<?xml version="1.0" encoding="UTF-8" standalone="no"?><!DOCTYPE svg PUBLIC "-//W3C//DTD SVG 1.1//EN" "http://www.w3.org/Graphics/SVG/1.1/DTD/svg11.dtd"><svg width="500px" height="100%" viewBox="0 0 876 670" version="1.1" xmlns="http://www.w3.org/2000/svg" xmlns:xlink="http://www.w3.org/1999/xlink" xml:space="preserve" xmlns:serif="http://www.serif.com/" style="fill-rule:evenodd;clip-rule:evenodd;stroke-miterlimit:10;"><rect x="751.744" y="92" width="2" height="166.89" style="fill:#f2f2f2;"/><rect x="684.744" y="92" width="2" height="166.89" style="fill:#f2f2f2;"/><path d="M9.897,334.549c-24.034,138.019 -9.384,273.758 101.108,320.04c110.491,46.282 244.365,-21.967 299.016,-152.438c54.651,-130.471 -53.235,-199.717 -101.108,-320.04c-97.214,-244.341 -224.379,-276.175 -299.016,152.438Z" style="fill:#f2f2f2;fill-rule:nonzero;"/><circle cx="101.51" cy="560.97" r="6.535" style="fill:#ff6584;"/><path d="M69.492,669.443l0,-74.412" style="fill:#3f3d56;fill-rule:nonzero;"/><rect x="68.492" y="595.032" width="2" height="74.411" style="fill:#3f3d56;"/><circle cx="69.492" cy="595.031" r="10.523" style="fill:#3f3d56;"/><path d="M69.492,640.893c0,0 1.503,-32.332 32.32,-28.574" style="fill:#3f3d56;fill-rule:nonzero;"/><rect x="536.274" y="91" width="302" height="2" style="fill:#f2f2f2;"/><rect x="536.274" y="184" width="302" height="2" style="fill:#f2f2f2;"/><rect x="536.274" y="258" width="302" height="2" style="fill:#f2f2f2;"/><rect x="548.774" y="348.5" width="269" height="2" style="fill:#3f3d56;"/><path d="M833.274,366c9.326,0 17,-7.674 17,-17c0,-9.326 -7.674,-17 -17,-17c-9.326,0 -17,7.674 -17,17c0.011,9.322 7.678,16.989 17,17Zm0,-32c8.229,0 15,6.771 15,15c0,8.228 -6.771,15 -15,15c-8.229,0 -15,-6.772 -15,-15c0.009,-8.226 6.775,-14.991 15,-15l0,0Z" style="fill:#3f3d56;fill-rule:nonzero;"/><rect x="751.715" y="259" width="2" height="90" style="fill:#3f3d56;"/><rect x="684.715" y="185" width="2" height="164" style="fill:#3f3d56;"/><rect x="616.715" y="92" width="2" height="257" style="fill:#3f3d56;"/><circle cx="752.745" cy="349" r="14.588" style="fill:#00d8bc;"/><circle cx="685.274" cy="349" r="14.588" style="fill:#00d8bc;"/><circle cx="617.803" cy="349" r="14.588" style="fill:#00d8bc;"/><circle cx="617.274" cy="92" r="14" style="fill:#00d8bc;"/><circle cx="617.637" cy="184.89" r="14" style="fill:#00d8bc;"/><circle cx="685.274" cy="185" r="14" style="fill:#00d8bc;"/><circle cx="685.637" cy="258.89" r="14" style="fill:#00d8bc;"/><circle cx="752.274" cy="259" r="14" style="fill:#00d8bc;"/><circle cx="862.274" cy="92" r="13" style="fill:#f2f2f2;"/><circle cx="862.274" cy="184" r="13" style="fill:#f2f2f2;"/><circle cx="862.274" cy="259" r="13" style="fill:#f2f2f2;"/><path d="M237.711,100.031c0,0 -18.903,24.22 -16.54,41.351c2.363,17.132 -38.989,-23.629 -38.989,-23.629c0,0 14.178,-29.537 6.498,-43.714c-7.679,-14.178 49.031,25.992 49.031,25.992Z" style="fill:#ffb9b9;fill-rule:nonzero;"/><path d="M171.549,590.342c0,0 -24.811,27.174 -20.676,33.081c4.135,5.907 76.796,28.355 85.066,27.174c8.27,-1.181 12.406,-7.089 9.452,-8.861c-2.954,-1.772 -21.857,-11.815 -21.857,-11.815l-15.95,-18.313c0,0 -11.815,-6.498 -11.815,-10.042c0,-3.544 -24.22,-11.224 -24.22,-11.224Z" style="fill:#2f2e41;fill-rule:nonzero;"/><path d="M213.491,620.469c0,0 9.452,15.36 11.224,15.95c1.772,0.591 -8.861,21.858 -8.861,21.858l-24.811,-7.68l-13.587,-11.224l2.954,-15.359l33.081,-3.545Z" style="fill:#ffb9b9;fill-rule:nonzero;"/><path d="M238.893,327.464l11.814,52.576c0,0 40.761,91.564 12.406,107.514l-62.027,118.738l-33.082,-14.769l55.53,-121.691l-25.402,-140.005l40.761,-2.363Z" style="fill:#d0cde1;fill-rule:nonzero;"/><path d="M238.893,327.464l11.814,52.576c0,0 40.761,91.564 12.406,107.514l-62.027,118.738l-33.082,-14.769l55.53,-121.691l-25.402,-140.005l40.761,-2.363Z" style="fill-opacity:0.1;fill-rule:nonzero;"/><path d="M234.758,335.735l5.993,0c0.467,18.168 -0.549,36.344 -3.04,54.347c-4.135,30.128 -14.768,99.244 -14.768,99.244c0,0 1.181,12.996 -2.363,17.131c-3.545,4.136 -4.135,-1.181 -4.726,8.271c-0.591,9.451 -6.203,75.167 -6.203,75.167c0,0 -3.84,13.443 0.296,16.397c4.135,2.954 12.405,18.903 6.498,21.266c-5.908,2.363 -46.668,5.317 -48.441,3.545c-1.772,-1.772 0,-112.831 0,-112.831c0,0 1.182,-22.448 2.363,-23.629c1.182,-1.182 6.498,-17.132 4.726,-20.676c-1.772,-3.544 -0.59,-14.178 -0.59,-15.95c0,-1.772 5.316,0 0.59,-7.68c-4.726,-7.679 -5.316,-69.116 -5.316,-69.116c0,0 -25.402,-38.988 -17.722,-49.031l82.703,3.545Z" style="fill:#d0cde1;fill-rule:nonzero;"/><circle cx="221.171" cy="69.903" r="38.989" style="fill:#ffb9b9;"/><path d="M182.182,111.255c0,0 23.629,5.907 33.081,20.085l8.271,1.772l0,8.27c0,0 15.359,49.031 11.814,70.298c-3.544,21.267 0,62.618 5.908,73.842c5.907,11.224 7.679,13.587 4.726,18.313c-2.954,4.726 -7.089,20.676 -4.136,27.764c2.954,7.089 0,14.178 -27.173,15.95c-27.174,1.773 -65.572,1.773 -65.572,-7.679c0,-9.452 2.363,-36.035 0,-43.124c-2.363,-7.089 -3.545,-11.815 -2.363,-18.313c1.181,-6.498 -2.363,-79.158 -2.363,-79.158c0,0 -0.591,-72.661 37.807,-88.02Z" style="fill:#2f2e41;fill-rule:nonzero;"/><path d="M237.711,293.792l32.491,48.441c0,0 34.262,31.309 21.857,45.486c-12.405,14.178 -44.896,-41.351 -44.896,-41.351l-35.444,-40.17l25.992,-12.406Z" style="fill:#ffb9b9;fill-rule:nonzero;"/><path d="M217.035,639.373c0,0 1.182,-7.68 5.317,-7.68c4.135,0 31.9,18.904 31.9,18.904c0,0 38.115,16.397 22.022,17.403c-16,1 -100.59,3.273 -101.181,0.319c-0.591,-2.954 -1.772,-32.081 2.363,-31.99c4.135,0.09 37.217,6.588 37.217,6.588l2.362,-3.544Z" style="fill:#2f2e41;fill-rule:nonzero;"/><path d="M218.397,49.761c1.385,0.683 2.912,1.028 4.456,1.007c1.594,0.09 3.496,-0.008 4.343,-1.361c0.401,-0.89 0.587,-1.862 0.543,-2.837c0.617,-4.621 4.602,-8.108 9.264,-8.108c0.556,0 1.111,0.049 1.658,0.148c-0.169,1.952 -0.763,3.844 -1.741,5.543c3.498,1.187 7.357,0.673 10.423,-1.387l0.6,7.957c2.119,1.013 4.834,1.224 6.682,-0.225c1.848,-1.45 1.996,-4.852 -0.095,-5.923c2.582,-0.538 5.74,-1.695 5.93,-4.326c0.174,-2.4 -2.375,-4.157 -2.844,-6.517c-0.383,-1.925 0.673,-4.018 -0.074,-5.833c-0.982,-2.385 -4.544,-2.997 -5.259,-5.475c-0.364,-1.261 0.16,-2.611 0.035,-3.918c-0.327,-3.423 -4.63,-4.844 -8.063,-4.65c-3.433,0.195 -7.18,1.107 -10.097,-0.715c-1.414,-0.883 -2.401,-2.296 -3.644,-3.408c-3.513,-3.013 -8.587,-3.454 -12.568,-1.093c-1.38,0.859 -2.585,2.048 -4.125,2.57c-3.151,1.068 -6.438,-0.952 -9.733,-1.418c-2.439,-0.418 -4.94,0.306 -6.778,1.964c-1.807,1.737 -2.224,4.492 -1.01,6.686c-1.933,-0.327 -3.981,-0.643 -5.803,0.081c-1.821,0.724 -3.213,2.905 -2.37,4.675c0.313,0.464 0.56,0.969 0.735,1.501c0.171,1.03 -0.821,1.91 -1.822,2.205c-1.001,0.296 -2.088,0.24 -3.068,0.599c-4.049,1.482 -3.077,7.955 -6.264,10.86c-1.094,0.795 -2.249,1.501 -3.455,2.112c-3.25,2.253 -4.492,6.509 -2.964,10.156c0.638,1.415 1.709,2.765 1.58,4.311c-0.181,2.17 -2.506,3.358 -4.137,4.8c-3.044,2.807 -3.951,7.279 -2.24,11.05c1.499,3.128 4.747,5.5 5.077,8.953c0.143,1.501 -0.308,3 -0.283,4.507c0.193,2.822 1.664,5.406 3.992,7.012c2.314,1.568 4.921,2.652 7.663,3.188c1.288,0.309 2.825,0.791 3.136,2.078c0.37,1.526 -1.333,2.915 -1.156,4.475c0.11,0.677 0.485,1.284 1.041,1.686c2.305,1.802 5.952,0.257 7.361,-2.307c1.409,-2.563 1.229,-5.67 1.011,-8.588l-0.795,-10.608c-0.247,-3.301 -0.224,-7.22 2.467,-9.148c2.975,-2.131 7.307,-0.406 10.672,-1.846c3.505,-1.501 4.762,-5.892 4.621,-9.702c-0.142,-3.811 -1.233,-7.627 -0.606,-11.388c0.778,-4.662 4.924,-7.794 9.111,-4.774c-3.679,-0.501 -4.315,3.722 -1.407,5.431Z" style="fill:#2f2e41;fill-rule:nonzero;"/><path d="M185.726,139.61c0,0 23.63,9.452 23.63,29.537c0,20.085 -1.182,46.668 2.954,55.529c4.135,8.861 7.679,11.815 5.316,18.904c-2.363,7.089 -6.498,5.907 0,11.224c6.498,5.316 5.908,-3.545 6.498,5.316c0.591,8.861 -5.907,10.043 0,14.178c5.908,4.135 21.267,20.676 14.769,25.993c-6.498,5.316 -23.63,22.448 -29.537,15.949c-5.907,-6.498 -8.861,-23.038 -17.131,-21.857c-8.271,1.182 -9.452,1.772 -8.271,-4.135c1.182,-5.907 6.498,-5.907 -0.59,-7.68c-7.089,-1.772 -10.043,2.363 -7.68,-3.544c2.363,-5.907 4.135,-8.27 -0.591,-14.768c-4.726,-6.499 -7.089,-8.271 -6.498,-14.769c0.591,-6.498 -12.996,-64.981 -12.996,-64.981c0,0 -4.135,-49.622 30.127,-44.896Z" style="fill-opacity:0.1;fill-rule:nonzero;"/><path d="M192.225,138.429c0,0 23.629,9.452 23.629,29.537c0,20.085 -1.181,46.668 2.954,55.529c4.135,8.861 7.679,11.814 5.316,18.903c-2.363,7.089 -6.498,5.908 0,11.224c6.498,5.317 5.908,-3.544 6.498,5.317c0.591,8.861 -5.907,10.042 0,14.178c5.908,4.135 21.267,20.675 14.769,25.992c-6.498,5.317 -23.63,22.448 -29.537,15.95c-5.907,-6.498 -8.861,-23.039 -17.131,-21.857c-8.271,1.181 -9.452,1.772 -8.271,-4.136c1.182,-5.907 6.498,-5.907 -0.59,-7.679c-7.089,-1.772 -10.043,2.363 -7.68,-3.545c2.363,-5.907 4.135,-8.27 -0.591,-14.768c-4.726,-6.498 -7.088,-8.27 -6.498,-14.768c0.591,-6.498 -12.996,-64.981 -12.996,-64.981c0,0 -4.135,-49.622 30.128,-44.896Z" style="fill-opacity:0.1;fill-rule:nonzero;"/><path d="M189.271,136.657c0,0 23.629,9.451 23.629,29.536c0,20.085 -1.181,46.669 2.954,55.53c4.135,8.861 7.68,11.814 5.317,18.903c-2.363,7.089 -6.498,5.907 0,11.224c6.498,5.317 5.907,-3.544 6.498,5.317c0.59,8.861 -5.908,10.042 0,14.177c5.907,4.136 21.266,20.676 14.768,25.993c-6.498,5.316 -23.629,22.448 -29.537,15.95c-5.907,-6.498 -8.861,-23.039 -17.131,-21.858c-8.27,1.182 -9.452,1.773 -8.27,-4.135c1.181,-5.907 6.498,-5.907 -0.591,-7.679c-7.089,-1.773 -10.043,2.363 -7.68,-3.545c2.363,-5.907 4.136,-8.27 -0.59,-14.768c-4.726,-6.498 -7.089,-8.27 -6.498,-14.769c0.59,-6.498 -12.997,-64.981 -12.997,-64.981c0,0 -4.135,-49.621 30.128,-44.895Z" style="fill:#2f2e41;fill-rule:nonzero;"/><path d="M59.274,669l540,0" style="fill:none;stroke:#3f3d56;stroke-width:2px;"/><rect x="508.274" y="478" width="70" height="6.545" style="fill:#3f3d56;"/><rect x="508.274" y="492.727" width="70" height="6.545" style="fill:#3f3d56;"/><rect x="508.274" y="507.455" width="70" height="6.545" style="fill:#3f3d56;"/><path d="M468.741,669.468c34.302,-0.077 66.099,-18.369 83.41,-47.982l0.505,-0.867l-83.163,-47.947l0,-96.137l-1.003,0.003c-52.824,0.138 -96.213,43.641 -96.213,96.465c0,52.919 43.545,96.465 96.464,96.465l0,0Zm81.171,-48.123c-17.016,28.573 -47.912,46.133 -81.168,46.133c-51.825,0 -94.47,-42.645 -94.47,-94.47c0,-51.352 41.871,-93.782 93.219,-94.462l0,95.283l0.5,0.288l81.919,47.228Z" style="fill:#2f2e41;fill-rule:nonzero;"/><circle cx="468.741" cy="573.002" r="36.297" style="fill:#00d8bc;"/><circle cx="468.741" cy="573.002" r="18.104" style="fill:#2f2e41;"/><rect x="524.637" y="79.89" width="24" height="24" style="fill:#00d8bc;"/><rect x="524.637" y="171.89" width="24" height="24" style="fill:#00d8bc;"/><rect x="524.637" y="246.89" width="24" height="24" style="fill:#00d8bc;"/><path d="M523.637,361.89l26,0l0,-26l-26,0l0,26Zm24,-2l-22,0l0,-22l22,0l0,22Z" style="fill:#3f3d56;fill-rule:nonzero;"/></svg>