<?xml version="1.0" encoding="UTF-8" standalone="no"?><!DOCTYPE svg PUBLIC "-//W3C//DTD SVG 1.1//EN" "http://www.w3.org/Graphics/SVG/1.1/DTD/svg11.dtd"><svg width="100%" height="100%" viewBox="0 0 909 712" version="1.1" xmlns="http://www.w3.org/2000/svg" xmlns:xlink="http://www.w3.org/1999/xlink" xml:space="preserve" xmlns:serif="http://www.serif.com/" style="fill-rule:evenodd;clip-rule:evenodd;stroke-miterlimit:10;"><path d="M751.523,690.234c12.909,-0.02 23.393,2.309 23.398,5.199c0.004,2.89 -10.472,5.253 -23.381,5.274c-12.909,0.021 -23.393,-2.309 -23.398,-5.199c-0.004,-2.89 10.472,-5.253 23.381,-5.274Z" style="fill:#e6e6e6;"/><path d="M830.788,692.016c12.909,-0.021 23.393,2.308 23.398,5.198c0.005,2.89 -10.472,5.253 -23.381,5.274c-12.909,0.021 -23.393,-2.309 -23.397,-5.198c-0.005,-2.89 10.472,-5.254 23.38,-5.274Z" style="fill:#e6e6e6;"/><g id="Group_17"><path id="Path_125" d="M787.505,570.61c-2.19,-17.165 4.67,-34.834 0.592,-51.639c-3.137,-12.981 -12.43,-23.819 -15.484,-36.823c-4.487,-19.273 5.777,-39.066 18.876,-53.864c9.009,-10.2 20.315,-19.456 33.793,-21.309c8.322,-1.184 16.875,0.645 24.558,4.037c15.786,7.079 27.932,20.421 33.5,36.8c1.776,5.268 2.8,10.779 4.984,15.887c3.759,8.8 10.655,15.9 14.946,24.464c5.782,11.727 6.348,25.368 1.557,37.533c-4.966,12.395 -15.39,22.765 -16.929,36.03c-1.119,9.559 2.468,20.03 -2.19,28.453c-3.516,6.357 -10.755,9.565 -17.609,11.969c-15.928,5.54 -38.22,14.537 -54.2,5.972c-13.977,-7.488 -24.365,-21.666 -26.394,-37.51Z" style="fill:#e6e6e6;fill-rule:nonzero;"/><path id="Path_126" d="M832.253,577.809c0,0 17.481,-7.052 19.685,-11.019c2.204,-3.967 5.289,-27.328 5.289,-27.328" style="fill:none;stroke:#d0cde1;stroke-width:3px;"/><path id="Line_2" d="M832.028,696.84l0.533,-170.4" style="fill:none;stroke:#d0cde1;stroke-width:3px;"/><path id="Path_173" d="M700.195,514.458c-2.54,-19.911 5.417,-40.406 0.687,-59.9c-3.639,-15.057 -14.419,-27.629 -17.961,-42.713c-5.2,-22.356 6.7,-45.316 21.9,-62.481c10.45,-11.83 23.564,-22.569 39.2,-24.718c9.654,-1.373 19.575,0.748 28.487,4.683c18.312,8.21 32.402,23.686 38.862,42.686c2.06,6.111 3.248,12.5 5.781,18.428c4.36,10.21 12.359,18.449 17.337,28.377c6.707,13.603 7.363,29.426 1.806,43.537c-5.76,14.377 -17.852,26.407 -19.637,41.793c-1.3,11.089 2.863,23.235 -2.54,33c-4.078,7.374 -12.476,11.1 -20.426,13.883c-18.476,6.427 -44.334,16.863 -62.872,6.928c-16.226,-8.679 -28.275,-25.123 -30.624,-43.503Z" style="fill:#38d39f;fill-rule:nonzero;"/><path id="Line_3" d="M751.835,696.84l0,-236.877" style="fill:none;stroke:#333;stroke-width:3px;"/><path id="Path_174" d="M752.096,528.609c0,0 27.231,-10.986 30.664,-17.165c3.433,-6.179 8.236,-42.569 8.236,-42.569" style="fill:none;stroke:#333;stroke-width:3px;"/></g><g id="Group_18"><path id="Rectangle_50" d="M663.139,24.939c-0.034,-13.798 -11.263,-24.973 -25.061,-24.939l-336.017,0.821c-13.798,0.034 -24.972,11.263 -24.939,25.061l1.581,646.761c0.033,13.798 11.263,24.973 25.061,24.939l336.017,-0.821c13.798,-0.034 24.972,-11.263 24.939,-25.061l-1.581,-646.761Z" style="fill:#2f2e41;"/><path id="Path_122" d="M651.049,657.566c0.025,7.868 -6.425,14.364 -14.293,14.394l-329.839,0.8c-7.868,0.011 -14.352,-6.451 -14.369,-14.319l-0.226,-96.917l-1.261,-522.571c-0.025,-7.868 6.425,-14.364 14.293,-14.395l68.986,-0.162c2.271,14.853 15.156,25.95 30.181,25.992l130.34,-0.313c15.067,-0.063 27.961,-11.235 30.17,-26.139l70.064,-0.173c7.868,-0.01 14.352,6.452 14.368,14.319l1.347,523.442l0.239,96.042Z" style="fill:#fff;fill-rule:nonzero;"/><path id="Path_123" d="M651.048,664.156c0.095,7.965 -6.378,14.599 -14.343,14.7l-331,0.816c-7.964,-0.058 -14.471,-6.656 -14.419,-14.62l-0.225,-98.958l359.75,0l0.237,98.062Z" style="fill:#e6e6e6;fill-rule:nonzero;"/><path id="Rectangle_51" d="M509.919,27.177c-0.017,-1.104 -0.926,-1.986 -2.03,-1.97l-82.013,1.231c-1.104,0.017 -1.986,0.926 -1.97,2.03l0.021,1.38c0.017,1.104 0.926,1.986 2.03,1.97l82.013,-1.232c1.103,-0.016 1.986,-0.926 1.969,-2.029l-0.02,-1.38Z" style="fill:#fff;"/><path id="Ellipse_2" d="M528.138,23.812c1.783,-0.027 3.252,1.399 3.279,3.182c0.027,1.783 -1.399,3.252 -3.182,3.279c-1.783,0.027 -3.252,-1.399 -3.279,-3.182c-0.027,-1.783 1.399,-3.253 3.182,-3.279Z" style="fill:#fff;"/><g id="Group_11"><path id="Rectangle_52" d="M379.003,124.403c0,-5.795 -4.705,-10.5 -10.5,-10.5l-46.941,0c-5.795,0 -10.5,4.705 -10.5,10.5l0,46.941c0,5.795 4.705,10.5 10.5,10.5l46.941,0c5.795,0 10.5,-4.705 10.5,-10.5l0,-46.941Z" style="fill:#e6e6e6;"/><path id="Rectangle_53" d="M462.868,124.403c0,-5.795 -4.705,-10.5 -10.5,-10.5l-46.941,0c-5.795,0 -10.5,4.705 -10.5,10.5l0,46.941c0,5.795 4.705,10.5 10.5,10.5l46.941,0c5.795,0 10.5,-4.705 10.5,-10.5l0,-46.941Z" style="fill:#e6e6e6;"/><path id="Rectangle_54" d="M546.733,124.403c0,-5.795 -4.705,-10.5 -10.5,-10.5l-46.941,0c-5.795,0 -10.5,4.705 -10.5,10.5l0,46.941c0,5.795 4.705,10.5 10.5,10.5l46.941,0c5.795,0 10.5,-4.705 10.5,-10.5l0,-46.941Z" style="fill:#e6e6e6;"/><path id="Rectangle_55" d="M630.598,124.403c0,-5.795 -4.705,-10.5 -10.5,-10.5l-46.941,0c-5.795,0 -10.5,4.705 -10.5,10.5l0,46.941c0,5.795 4.705,10.5 10.5,10.5l46.941,0c5.795,0 10.5,-4.705 10.5,-10.5l0,-46.941Z" style="fill:#e6e6e6;"/></g><path id="Rectangle_56" d="M378.979,226.247c0,-5.795 -4.705,-10.5 -10.5,-10.5l-46.917,0c-5.795,0 -10.5,4.705 -10.5,10.5l0,46.917c0,5.795 4.705,10.5 10.5,10.5l46.917,0c5.795,0 10.5,-4.705 10.5,-10.5l0,-46.917Z" style="fill:#38d39f;"/><path id="Rectangle_57" d="M462.813,226.247c0,-5.795 -4.705,-10.5 -10.5,-10.5l-46.917,0c-5.795,0 -10.5,4.705 -10.5,10.5l0,46.917c0,5.795 4.705,10.5 10.5,10.5l46.917,0c5.795,0 10.5,-4.705 10.5,-10.5l0,-46.917Z" style="fill:#e6e6e6;"/><path id="Rectangle_58" d="M546.648,226.247c0,-5.795 -4.705,-10.5 -10.5,-10.5l-46.917,0c-5.795,0 -10.5,4.705 -10.5,10.5l0,46.917c0,5.795 4.705,10.5 10.5,10.5l46.917,0c5.795,0 10.5,-4.705 10.5,-10.5l0,-46.917Z" style="fill:#e6e6e6;"/><path id="Rectangle_59" d="M630.482,226.247c0,-5.795 -4.705,-10.5 -10.5,-10.5l-46.917,0c-5.795,0 -10.5,4.705 -10.5,10.5l0,46.917c0,5.795 4.705,10.5 10.5,10.5l46.917,0c5.795,0 10.5,-4.705 10.5,-10.5l0,-46.917Z" style="fill:#e6e6e6;"/><g id="Group_12"><path id="Rectangle_60" d="M379.003,328.226c0,-5.795 -4.705,-10.5 -10.5,-10.5l-46.941,0c-5.795,0 -10.5,4.705 -10.5,10.5l0,46.941c0,5.795 4.705,10.5 10.5,10.5l46.941,0c5.795,0 10.5,-4.705 10.5,-10.5l0,-46.941Z" style="fill:#e6e6e6;"/><path id="Rectangle_61" d="M462.868,328.226c0,-5.795 -4.705,-10.5 -10.5,-10.5l-46.941,0c-5.795,0 -10.5,4.705 -10.5,10.5l0,46.941c0,5.795 4.705,10.5 10.5,10.5l46.941,0c5.795,0 10.5,-4.705 10.5,-10.5l0,-46.941Z" style="fill:#e6e6e6;"/><path id="Rectangle_62" d="M546.733,328.226c0,-5.795 -4.705,-10.5 -10.5,-10.5l-46.941,0c-5.795,0 -10.5,4.705 -10.5,10.5l0,46.941c0,5.795 4.705,10.5 10.5,10.5l46.941,0c5.795,0 10.5,-4.705 10.5,-10.5l0,-46.941Z" style="fill:#e6e6e6;"/><path id="Rectangle_63" d="M630.598,328.226c0,-5.795 -4.705,-10.5 -10.5,-10.5l-46.941,0c-5.795,0 -10.5,4.705 -10.5,10.5l0,46.941c0,5.795 4.705,10.5 10.5,10.5l46.941,0c5.795,0 10.5,-4.705 10.5,-10.5l0,-46.941Z" style="fill:#e6e6e6;"/></g><g id="Group_13"><path id="Rectangle_64" d="M379.003,430.138c0,-5.795 -4.705,-10.5 -10.5,-10.5l-46.941,0c-5.795,0 -10.5,4.705 -10.5,10.5l0,46.941c0,5.795 4.705,10.5 10.5,10.5l46.941,0c5.795,0 10.5,-4.705 10.5,-10.5l0,-46.941Z" style="fill:#e6e6e6;"/><path id="Rectangle_65" d="M462.868,430.138c0,-5.795 -4.705,-10.5 -10.5,-10.5l-46.941,0c-5.795,0 -10.5,4.705 -10.5,10.5l0,46.941c0,5.795 4.705,10.5 10.5,10.5l46.941,0c5.795,0 10.5,-4.705 10.5,-10.5l0,-46.941Z" style="fill:#e6e6e6;"/><path id="Rectangle_66" d="M546.733,430.138c0,-5.795 -4.705,-10.5 -10.5,-10.5l-46.941,0c-5.795,0 -10.5,4.705 -10.5,10.5l0,46.941c0,5.795 4.705,10.5 10.5,10.5l46.941,0c5.795,0 10.5,-4.705 10.5,-10.5l0,-46.941Z" style="fill:#e6e6e6;"/><path id="Rectangle_67" d="M630.598,430.138c0,-5.795 -4.705,-10.5 -10.5,-10.5l-46.941,0c-5.795,0 -10.5,4.705 -10.5,10.5l0,46.941c0,5.795 4.705,10.5 10.5,10.5l46.941,0c5.795,0 10.5,-4.705 10.5,-10.5l0,-46.941Z" style="fill:#e6e6e6;"/></g><g id="Group_15"><path id="Rectangle_72" d="M376.561,598.645c0,-5.795 -4.705,-10.5 -10.5,-10.5l-49.564,0c-5.795,0 -10.5,4.705 -10.5,10.5l0,49.564c0,5.795 4.705,10.5 10.5,10.5l49.564,0c5.795,0 10.5,-4.705 10.5,-10.5l0,-49.564Z" style="fill:#38d39f;"/><path id="Rectangle_73" d="M463.663,598.645c0,-5.795 -4.705,-10.5 -10.5,-10.5l-49.564,0c-5.795,0 -10.5,4.705 -10.5,10.5l0,49.564c0,5.795 4.705,10.5 10.5,10.5l49.564,0c5.795,0 10.5,-4.705 10.5,-10.5l0,-49.564Z" style="fill:#38d39f;"/><path id="Rectangle_74" d="M550.766,598.645c0,-5.795 -4.705,-10.5 -10.5,-10.5l-49.564,0c-5.795,0 -10.5,4.705 -10.5,10.5l0,49.564c0,5.795 4.705,10.5 10.5,10.5l49.564,0c5.795,0 10.5,-4.705 10.5,-10.5l0,-49.564Z" style="fill:#38d39f;"/><path id="Rectangle_75" d="M637.868,598.645c0,-5.795 -4.705,-10.5 -10.5,-10.5l-49.564,0c-5.795,0 -10.5,4.705 -10.5,10.5l0,49.564c0,5.795 4.705,10.5 10.5,10.5l49.564,0c5.795,0 10.5,-4.705 10.5,-10.5l0,-49.564Z" style="fill:#38d39f;"/></g></g><path d="M187.973,686.875c45.666,-0.074 82.747,4.239 82.756,9.623c0.008,5.385 -37.059,9.817 -82.724,9.89c-45.665,0.074 -82.747,-4.238 -82.755,-9.623c-0.009,-5.385 37.058,-9.816 82.723,-9.89Z" style="fill:#e6e6e6;"/><path d="M38.724,692.36c17.824,-0.029 32.299,2.294 32.303,5.184c0.005,2.89 -14.462,5.26 -32.287,5.289c-17.824,0.028 -32.299,-2.295 -32.303,-5.185c-0.005,-2.89 14.462,-5.259 32.287,-5.288Z" style="fill:#e6e6e6;"/><g id="Group_16"><path id="Path_159" d="M294.488,238.113l0,15.466l-18.427,27l18.427,11.994c0,0 8.19,-31.554 12.606,-35.268c0,0 6.935,-4.948 10.709,-11.753c3.774,-6.805 1.887,-30.32 -16.389,-9.284l0,2.477l-6.926,-0.632Z" style="fill:#fda57d;fill-rule:nonzero;"/><path id="Path_160" d="M150.937,266.006l7.3,-14.593c0.432,-0.874 1.305,-1.448 2.278,-1.5l27.71,-1.415c0.048,-0.002 0.095,-0.004 0.143,-0.004c1.481,0 2.7,1.219 2.7,2.7c0,0.335 -0.062,0.666 -0.183,0.977l-7.149,18.482c-0.433,1.121 -1.563,1.824 -2.76,1.716l-27.851,-2.479c-1.388,-0.12 -2.466,-1.296 -2.466,-2.69c0,-0.414 0.095,-0.822 0.278,-1.194Z" style="fill:#fda57d;fill-rule:nonzero;"/><path id="Path_161" d="M152.987,259.744l-4.707,13.8l48.335,-1.736l-18.567,-11.14l-25.061,-0.924Z" style="fill:#edeef9;fill-rule:nonzero;"/><path id="Path_163" d="M133.665,410.561c1.941,9.547 0.799,19.468 -3.262,28.323c-6.8,14.232 -6.8,29.106 1.857,46.408l2.479,89.725c0,0 3.091,42.083 0,50.744c-3.091,8.661 1.214,50.132 1.214,50.132l34.656,0l0,-27.852l11.753,-82.3l0,-42.09l21.076,43.939l-24.088,101.489l31.554,13l39.6,-113.863c0,0 -6.865,-89.725 -31.615,-120.658l-4.657,-33.732l-80.567,-3.265Z" style="fill:#3f3d56;fill-rule:nonzero;"/><path id="Path_164" d="M135.351,696.786l0,-22.893l35.268,0c0,0 2.479,9.284 18.567,11.14c16.088,1.856 -7.427,13 -7.427,13l-46.408,-1.247Z" style="fill:#3f3d56;fill-rule:nonzero;"/><path id="Path_165" d="M174.449,686.534l6.14,-22.08l30.537,9.7c0,0 3.336,9.373 18.34,15.475c10.218,4.156 -0.913,8.935 -0.913,8.935l-4.017,1.037l-50.087,-13.067Z" style="fill:#3f3d56;fill-rule:nonzero;"/><path id="Path_166" d="M214.236,415.679l-80.582,-3.262c0.998,4.805 1.205,9.741 0.612,14.613c3.683,8.671 11.592,6.3 11.592,6.3l70.506,-2.168l-2.128,-15.483Z" style="fill-opacity:0.0980392;fill-rule:nonzero;"/><path id="Path_167" d="M149.895,268.405l-3.212,2.178c-19.821,13.426 -29.88,37.413 -25.563,60.961c4.318,23.548 17.945,35.127 12.375,70.255c-5.57,35.128 12.375,29.708 12.375,29.708l70.855,-2.182l5.259,-106.536c0,0 42.695,6.072 61.884,-8.782l15.467,-23.632l-23.515,-16.229l-8.025,11.479c0,0 -25.2,-5.319 -39.042,-10.94c-6.455,-2.634 -13.326,-4.105 -20.294,-4.346l-58.564,-1.934Z" style="fill:#ff6868;fill-rule:nonzero;"/><path id="Path_168" d="M150.515,439.817c0,0 -4.336,21.659 20.424,57.549" style="fill-opacity:0.0980392;fill-rule:nonzero;"/><path id="Path_169" d="M222.266,322.863c0,0 29.7,-9.9 42.695,-9.9c12.995,0 10.829,5.61 10.829,5.61c0,0 -20.695,9.238 -53.524,4.29Z" style="fill-opacity:0.0980392;fill-rule:nonzero;"/><path id="Path_170" d="M188.614,249.757l-11.823,1.415c-0.371,0 -0.713,0.512 -0.913,1.244c2.6,4.687 5.851,7.477 9.384,7.477c1.261,-0.018 2.495,-0.363 3.583,-1l0.9,-5.47c0.304,-1.819 -0.298,-3.766 -1.131,-3.666Z" style="fill-opacity:0.0980392;fill-rule:nonzero;"/><circle id="Ellipse_3" cx="180.364" cy="222.559" r="36.091" style="fill:#fda57d;"/><path id="Path_171" d="M211.066,202.124l-1.847,1.666c-1.291,1.182 -2.027,2.854 -2.027,4.605c0,2.516 1.521,4.796 3.844,5.763c2.323,0.967 -16.169,16.169 -18.417,19.17c-2.248,3.001 0.371,10.9 0.371,10.9c0,0 7.146,13.158 -30.45,10.147c0,0 -24.81,-5.259 -22.18,-38.72c0.261,-3.352 -5.259,-12.044 11.281,-16.54c1.013,-9.603 8.032,-17.564 17.433,-19.772c6.394,-1.59 12.998,-2.169 19.571,-1.716c12.63,1.109 22.433,11.819 22.421,24.497Z" style="fill-opacity:0.0980392;fill-rule:nonzero;"/><path id="Path_172" d="M211.848,200.157c0,0 3.834,1.184 4.015,13.76l-5.45,-0.371c0,0 -12.606,33.722 -11.281,29.326c4.888,-16.169 -4.888,-13.158 -7.146,-10.147c-2.258,3.011 0.371,10.9 0.371,10.9c0,0 7.146,13.158 -30.45,10.147c0,0 -24.81,-5.259 -22.18,-38.72c0.261,-3.352 -5.259,-12.044 11.281,-16.54c1.005,-9.598 8.009,-17.561 17.4,-19.782c6.394,-1.59 12.998,-2.169 19.571,-1.716c12.729,1.073 23.869,10.417 23.869,23.143Z" style="fill:#72351c;fill-rule:nonzero;"/></g><path id="Path_142" d="M37.242,696.85c0,0 -15.76,-53.5 3,-92.88c7.948,-16.46 10.345,-35.062 6.83,-53c-1.738,-8.505 -4.252,-16.833 -7.51,-24.88" style="fill:none;stroke:#d0cde1;stroke-width:2px;"/><path id="Path_143" d="M51.182,501.17c0,6.56 -11.87,25.57 -11.87,25.57c0,0 -11.87,-19 -11.87,-25.57c0,-6.514 5.361,-11.875 11.875,-11.875c6.515,0 11.875,5.361 11.875,11.875l-0.01,0Z" style="fill:#e6e6e6;fill-rule:nonzero;"/><path id="Path_144" d="M71.792,537.49c-3.56,5.5 -23.86,15 -23.86,15c0,0 0.37,-22.41 3.93,-27.92c2.187,-3.375 5.944,-5.418 9.965,-5.418c6.514,0 11.873,5.36 11.873,11.873c0,2.291 -0.663,4.533 -1.908,6.455l0,0.01Z" style="fill:#e6e6e6;fill-rule:nonzero;"/><path id="Path_145" d="M69.942,599.56c-5.85,3 -28.18,0.91 -28.18,0.91c0,0 11.63,-19.16 17.49,-22.12c1.658,-0.836 3.489,-1.271 5.345,-1.271c6.513,0 11.872,5.359 11.872,11.871c0,4.475 -2.531,8.585 -6.527,10.6l0,0.01Z" style="fill:#e6e6e6;fill-rule:nonzero;"/><path id="Path_146" d="M58.712,646.38c-5.27,3.9 -27.62,5.66 -27.62,5.66c0,0 8.23,-20.85 13.5,-24.75c2.043,-1.511 4.519,-2.327 7.06,-2.327c6.513,0 11.873,5.359 11.873,11.872c0,3.762 -1.788,7.308 -4.813,9.545Z" style="fill:#e6e6e6;fill-rule:nonzero;"/><path id="Path_147" d="M22.002,553.78c4.7,4.57 26.62,9.3 26.62,9.3c0,0 -5.37,-21.77 -10.07,-26.33c-2.183,-1.982 -5.029,-3.081 -7.978,-3.081c-6.512,0 -11.87,5.358 -11.87,11.87c0,3.059 1.182,6.002 3.298,8.211l0,0.03Z" style="fill:#e6e6e6;fill-rule:nonzero;"/><path id="Path_148" d="M9.572,608.7c5.85,3 28.18,0.91 28.18,0.91c0,0 -11.63,-19.16 -17.49,-22.12c-1.657,-0.836 -3.488,-1.271 -5.345,-1.271c-6.512,0 -11.871,5.359 -11.871,11.871c0,4.475 2.53,8.585 6.526,10.6l0,0.01Z" style="fill:#e6e6e6;fill-rule:nonzero;"/><path id="Path_149" d="M4.812,663.73c5.27,3.9 27.62,5.66 27.62,5.66c0,0 -8.23,-20.85 -13.5,-24.75c-2.043,-1.511 -4.518,-2.327 -7.06,-2.327c-6.513,0 -11.872,5.359 -11.872,11.872c0,3.762 1.788,7.308 4.812,9.545Z" style="fill:#e6e6e6;fill-rule:nonzero;"/></svg>