<?xml version="1.0" encoding="UTF-8" standalone="no"?><!DOCTYPE svg PUBLIC "-//W3C//DTD SVG 1.1//EN" "http://www.w3.org/Graphics/SVG/1.1/DTD/svg11.dtd"><svg width="100%" height="100%" viewBox="0 0 1884 1389" version="1.1" xmlns="http://www.w3.org/2000/svg" xmlns:xlink="http://www.w3.org/1999/xlink" xml:space="preserve" xmlns:serif="http://www.serif.com/" style="fill-rule:evenodd;clip-rule:evenodd;stroke-linejoin:round;stroke-miterlimit:1.41421;"><g><g><path d="M910.382,72.313c486.346,-287.26 779.252,346.568 905.555,758.333c146.857,478.773 -166.657,541.2 -747.221,552.777c-626.249,12.488 -1149.6,37.787 -1058.33,-505.555c61.866,-368.328 189.795,-386.074 899.999,-805.555Z" style="fill:#dffaff;fill-opacity:0.509804;"/><path d="M684.806,1210.23c9.84,-53.58 28.18,-105.66 55.33,-153.92c7.69,-13.67 16.05,-27.02 25.03,-40c4.24,-6.13 -6.32,-11.79 -10.54,-5.69c-32.19,46.57 -56.33,97.94 -71.17,151.45c-4.15,14.93 -7.51,30.02 -10.09,45.25c-0.49,2.92 0.81,5.89 4.14,6.73c2.85,0.73 6.76,-0.89 7.3,-3.82Z" style="fill:#d7e6ea;fill-rule:nonzero;"/><path d="M807.086,1031.1c8.36,7.13 12.55,17.11 16.09,26.86c4.28,11.78 7.66,23.83 10.37,35.99c5.33,23.96 7.88,48.32 9.46,72.71c0.92,14.13 1.51,28.28 2.09,42.43c0.3,7.34 12.7,7.38 12.4,0c-2.11,-51.01 -4.27,-103.11 -21.73,-152c-4.37,-12.23 -9.48,-25.05 -20.33,-33.7c-2.41,-1.93 -5.98,-2.19 -8.35,0c-2.2,2.02 -2.35,5.7 0,7.71Z" style="fill:#d7e6ea;fill-rule:nonzero;"/><path d="M825.526,987.79l-165.34,0c-11.81,0 -21.39,8.81 -21.39,19.68c0,10.87 9.54,20.62 21.36,20.62l192.32,6.98c10.96,0 23.19,-14.79 25.84,-24.58l49.6,-183.43c3.06,-11.29 -4.53,-22.69 -16.84,-25.33c-12,-2.57 -24.04,4.15 -27.09,15.13l-44.83,161.2c-1.59,5.72 -7.2,9.73 -13.63,9.73Z" style="fill:#d7e6ea;fill-rule:nonzero;"/><path d="M770.836,545.586l-15.02,-0.528l-1.42,13.933l-14.81,0.133l-3,13.149l-11.07,1.912l0.97,5.605l14.81,-2.557l2.83,-12.461l15.42,-0.138l1.39,-13.705l13.61,0.48l-3.71,-5.823Z" style="fill:#31dae7;fill-rule:nonzero;"/><path d="M589.306,801.6l-2.29,8.02l12.5,5.12l-1.91,12.15l8.73,5.35l-2.71,4.42l-11.68,-7.17l1.81,-11.5l-13,-5.33l3.45,-12.07l5.1,1.01Z" style="fill:#f36b80;fill-rule:nonzero;"/><path d="M931.506,761.18l-11.47,2.51l-7.25,-9.52l-12.65,3.72l-4.6,-12.52l-14.49,3.58l-5.66,-11.01l-14.51,1.16l0.44,5.49l10.85,-0.87l5.97,11.62l13.93,-3.44l4.68,12.73l13.96,-4.11l7.08,9.3l10.63,-2.33l3.37,7.08l4.97,-2.37l-5.25,-11.02Z" style="fill:#2b9cff;fill-rule:nonzero;"/><path d="M626.986,796.37l7.03,-4.59l-3,-4.62l-11.35,7.42l7.13,12.68l-7.46,8.99l4.65,9.83l-6.14,4.88l3.43,4.32l9.56,-7.6l-5.02,-10.61l7.64,-9.21l-6.47,-11.49Z" style="fill:#2b9cff;fill-rule:nonzero;"/><rect x="676.886" y="880.66" width="23.17" height="327.77" style="fill:#d7e6ea;fill-rule:nonzero;"/><rect x="444.936" y="1171.62" width="16.63" height="36.82" style="fill:#184655;fill-rule:nonzero;"/><rect x="352.766" y="1172.19" width="16.63" height="36.23" style="fill:#184655;fill-rule:nonzero;"/><path d="M492.626,874.42c0.39,0 0.789,-0.04 1.19,-0.13c3.42,-0.77 5.66,-4.65 5.01,-8.66c0,0 -27.151,-156.75 -29.27,-157.55c-0.68,-0.26 -2.27,-3.469 -2.33,-3.469c-0.33,0.009 -0.66,0.049 -0.99,0.13c-3.42,0.769 -5.66,4.639 -5.01,8.659l25.219,155c0.571,3.55 3.22,6.02 6.181,6.02Z" style="fill:#39363d;fill-rule:nonzero;"/><path d="M547.846,719.3l25.12,151.1l-77.92,1.08l-27.841,-166.869l70.871,3.939c5.35,0.24 9.1,6.61 9.77,10.75Z" style="fill:#343434;fill-rule:nonzero;"/><path d="M682.186,867.13c0,0.09 0,0.18 0,0.27c0.01,4.82 -2.8,8.79 -6.31,8.8l-98.95,0.25c-3.5,0.01 -6.35,-3.89 -6.36,-8.71c0,-0.2 0.01,-0.41 0.02,-0.61l111.6,0Z" style="fill:#355389;fill-rule:nonzero;"/><path d="M653.556,867.13c0.01,0.09 0.01,0.17 0.01,0.26c0.01,4.89 -4.24,8.86 -9.49,8.87l-148.22,0.31c-5.25,0.01 -9.51,-3.94 -9.52,-8.83c0,-0.21 0.01,-0.41 0.02,-0.61l167.2,0Z" style="fill:#39363d;fill-rule:nonzero;"/><path d="M622.956,1140.61c-6.03,11.21 -20.75,48.13 -21.31,50.93c-0.16,0.81 -2.24,3.5 -2.94,4.01c-19.01,1.9 -32.92,-8.3 -43.48,-18.37c9.97,0.7 25.21,-1.87 27.43,-2.25c5.78,-0.99 5.17,-18.58 8.47,-38.34c5.12,2.35 24.36,-2.73 31.83,4.02Z" style="fill:#ffb3c5;fill-rule:nonzero;"/><path d="M601.726,1191.29c-1.58,6.18 -8.13,17.58 -9.39,17.26c-1.51,-0.39 -57.63,-20.54 -62.46,-28.58c-2.98,-4.96 12.37,-5.2 24.72,-4.57c10.56,10.07 43.88,17.49 47.13,15.89Z" style="fill:#3fcb95;fill-rule:nonzero;"/><path d="M804.266,982.67l-130.54,7.52l-47.6,164.81l-37.82,-7.4c0,0 21.23,-170.51 33.59,-184.78c33.72,-38.92 151.55,-34.31 151.55,-34.31l30.82,54.16Z" style="fill:#003a51;fill-rule:nonzero;"/><path d="M703.536,1149.48c-0.48,7.59 -2.22,16.79 -1.88,25.65c0.23,5.95 2.44,13.19 2.7,14.3c0.19,0.8 -0.58,4.12 -1,4.87c-16.49,9.66 -33.38,6.18 -47.18,1.43c9.36,-3.52 15.87,-10.52 18.22,-13.08c3.97,-4.31 1.14,-17.26 -4.1,-36.59c5.64,0 23.64,0.39 33.24,3.42Z" style="fill:#ffb3c5;fill-rule:nonzero;"/><path d="M790.746,916.94c0,0 -121.75,2.28 -152.35,47.06c-22.89,33.51 34.12,198.78 34.12,198.78l34.3,-6.32c0,0 -7.9,-111.99 -13.62,-148.94c-0.97,-6.26 -5.43,-24.76 -5.43,-24.76c0,0 15.22,4.54 43.5,6.34c38.85,2.48 95.38,1.82 107.59,-4.52c21.09,-10.97 29.93,-40.71 20.65,-60.11c-9.28,-19.41 -68.76,-7.53 -68.76,-7.53Z" style="fill:#003145;fill-rule:nonzero;"/><path d="M704.316,1189.18c2.14,3.92 3.23,19.1 1.94,19.33c-1.53,0.27 -66.03,3.88 -73.77,-1.41c-4.77,-3.27 12.2,-6.79 23.69,-11.37c13.8,4.75 47.45,-2.35 48.14,-6.55Z" style="fill:#3fcb95;fill-rule:nonzero;"/><path d="M697.226,835.87c0,0 -35.46,8.87 -53.19,14.51c-17.72,5.64 -40.29,7.25 -40.29,7.25l-19.07,10.07l40.83,1.21l95.09,-8.46l8.06,-22.16l-31.43,-2.42Z" style="fill:#ea94ad;fill-rule:nonzero;"/><path d="M723.816,764.15l-16.92,2.42c0,0 -6.04,1.21 -10.88,27.8c-4.83,26.6 -11.68,40.7 -11.68,40.7l41.5,16.52c30.33,-41.89 51.12,-91.51 -2.02,-87.44Z" style="fill:#286cd6;fill-rule:nonzero;"/><path d="M722.796,740.04c-10.81,1.89 -11.47,10.62 -11.47,10.62l-11.07,46.13c0,0 -1.02,19.54 1.23,27.02c4.36,14.55 13.18,20.28 27.63,25.23c19.15,6.55 26.73,23.06 34.99,32.7c14.33,16.72 2.67,36.72 2.67,36.72l100.17,14.06c0,0 1.36,-19.55 -21.34,-74.48c-19.7,-47.71 -66.92,-127.78 -122.81,-118Z" style="fill:#286cd6;fill-rule:nonzero;"/><path d="M758.466,745.62c-12.29,-13.5 -43.51,3.22 -33.84,47.95c0.06,0.29 3.6,47.24 0.61,53.21c-1.81,3.63 -45.32,1.82 -71.66,7.36c0,0 -28.48,-10.57 -38.48,-11.28c-7.41,-0.53 -25.05,5.1 -25.05,5.1c0,0 -22.72,16.77 -19.54,19.54c4.35,3.8 15.04,-12.76 24.04,-12.76c0,0 -16.41,12.68 -11.35,12.96c5.07,0.29 12.06,-3.5 15.72,-4.63c3.65,-1.12 17.12,5.64 29.01,7.05c1.96,0.24 9.73,-0.19 18.73,1.01c9.14,1.21 19.47,4.54 31.57,5.1c32.52,1.52 69.33,5.1 78.44,-4.06c6.79,-6.84 22.48,-103.84 1.8,-126.55Z" style="fill:#ffb3c5;fill-rule:nonzero;"/><path d="M763.966,844.49c-19.86,-2.57 -39.78,-10.09 -39.78,-10.09c0,0 -1.63,-39.35 -1.78,-40.83c-1.27,-20.55 -0.5,-37.09 8.1,-47.75c4.33,-5.37 8.96,-6.65 14.47,-6.65c5.15,0 12.33,2.02 16.11,6.85c13.86,17.69 8.56,69.15 4.23,97.46l-0.18,1.16l-1.17,-0.15Z" style="fill:#286cd6;fill-rule:nonzero;"/><path d="M713.806,663.95c1.52,-13.248 1.51,-63.613 32.12,-62.574c30.61,1.039 30.79,34.727 55.58,-5.867c22.97,-37.606 65.39,-13.302 61.44,17.819c4.38,0.451 8.68,1.918 12.55,4.489c13.38,8.895 16.61,27.575 7.21,41.723c-1.49,2.25 -1.37,4.78 -3.26,6.52c0.94,14.06 -4.37,28.921 -17.67,42.51c-36.32,37.13 -56.16,-12.979 -75.72,-14.229c-19.55,-1.24 -9.94,16.059 -28.7,24.569c-18.76,8.52 -31.5,2.93 -52.4,-33.98l-4.98,-10.02c0,0 12.3,2.3 13.83,-10.96Z" style="fill:#343434;fill-rule:nonzero;"/><path d="M696.146,654.829c21.54,15.031 26.3,53.301 6.48,71.581c-12.89,11.88 -38.27,13.94 -52.36,2.16c-22.86,-19.11 -25.41,-40.729 -17.3,-57.71c10.46,-21.911 45.42,-28.43 63.18,-16.031Z" style="fill:#343434;fill-rule:nonzero;"/><path d="M702.876,706.68c0,0 6.64,20.61 30.01,32.49c2.87,1.47 -32.61,58.53 -32.62,57.85c-0.11,-4.4 6.13,-30.11 4.62,-33.27c-4.16,-8.64 -28.25,-48.07 -28.25,-48.07l26.24,-9Z" style="fill:#ffb3c5;fill-rule:nonzero;"/><path d="M689.476,711.28l-12.84,4.4c0.03,0.04 10.59,17.33 18.92,31.51c2.96,-2.43 5.58,-5.94 7.67,-10.76c3.35,-7.71 3.85,-15.73 2.56,-23.36c-2.08,-3.83 -2.91,-6.38 -2.91,-6.39l-13.4,4.6Z" style="fill:#ea94ad;fill-rule:nonzero;"/><path d="M655.076,668.02c0,0 11.49,-4.86 24,-0.18c12.5,4.68 34.96,35.08 23.39,61.75c-11.58,26.66 -39.26,13.41 -51.54,-3.5c-12.29,-16.91 -24.52,-42.41 4.15,-58.07Z" style="fill:#ffb3c5;fill-rule:nonzero;"/><path d="M704.886,683.12c-9.91,-17.2 -20.78,-27.291 -36.05,-23.38c-15.28,3.92 -28.98,6.53 -30.01,24.46l-1.1,3.06c0,0 22.12,-10.8 31.29,-2.35c9.18,8.46 28.39,11.22 30.95,17.081c2.55,5.869 8.87,16.479 8.87,16.479l1.14,-6.59c0,0 4.81,-11.56 -5.09,-28.76Z" style="fill:#343434;fill-rule:nonzero;"/><path d="M681.556,693.66c2.07,5.34 6.74,8.42 10.44,6.88c3.69,-1.53 5.02,-7.1 2.95,-12.439c-2.07,-5.341 -6.74,-8.421 -10.44,-6.881c-3.7,1.53 -5.02,7.1 -2.95,12.44Z" style="fill:#ffb3c5;fill-rule:nonzero;"/><rect x="549.716" y="884.45" width="22.01" height="324.12" style="fill:#d7e6ea;fill-rule:nonzero;"/><rect x="281.176" y="886.89" width="12.43" height="324.12" style="fill:#d7e6ea;fill-rule:nonzero;"/><path d="M237.806,896.16l479.86,0c4.7,0 8.51,-3.81 8.51,-8.51l0,-2.93c0,-4.7 -3.81,-8.51 -8.51,-8.51l-479.86,0c-4.7,0 -8.5,3.81 -8.5,8.51l0,2.93c0,4.7 3.8,8.51 8.5,8.51Z" style="fill:#d7e6ea;fill-rule:nonzero;"/><path d="M1198.49,253.332l230.62,0c21.99,0 39.81,-17.824 39.81,-39.809l0,-79.62c0,-21.985 -17.82,-39.809 -39.81,-39.809l-230.62,0c-21.99,0 -39.81,17.824 -39.81,39.809l0,79.62c0,21.985 17.82,39.809 39.81,39.809Z" style="fill:#3fcb95;fill-rule:nonzero;"/><path d="M1386.19,234.005l5.85,112.823l-79.61,-115.46l73.76,2.637Z" style="fill:#3fcb95;fill-rule:nonzero;"/><g><path d="M1088.16,565.691l4.838,-22c0,0 15.826,10.043 25.058,24.391c9.231,14.347 13.634,52.608 16.27,54.043c2.636,1.436 31.852,-43.574 36.954,-50.669c6.321,-8.775 8.683,-18.847 12.643,-26.498c3.949,-7.653 17.886,-10.258 23.158,-9.301c5.273,0.956 -7.247,23.339 -7.247,23.339c0,0 -31.653,54.999 -42.207,85.128c-10.554,30.132 -43.531,44.475 -48.803,40.176c-5.272,-4.309 -20.664,-118.609 -20.664,-118.609Z" style="fill:#ea94ad;fill-rule:nonzero;"/><path d="M1184.27,549.17c0,0 1.314,-5.792 4.866,-6.976c3.553,-1.185 9.742,-0.132 10.139,0c0.387,0.131 7.237,-3.554 7.237,-3.554l-5.659,10.53c0,0 -11.055,13.029 -14.74,8.159c-3.685,-4.869 -1.843,-8.159 -1.843,-8.159Z" style="fill:#ffb3c5;fill-rule:nonzero;"/><path d="M1208.49,539.122c0,0 3.988,20.313 2.986,24.569c-1.021,4.269 -3.562,1.98 -4.044,1.053c-1.966,-3.818 -3.336,-16.847 -3.336,-16.847l4.394,-8.775Z" style="fill:#ffb3c5;fill-rule:nonzero;"/><path d="M1199.89,556.014c0,0 1.899,12.597 3.855,14.082c1.275,0.966 2.901,0.395 3.42,-2.15c0.529,-2.544 -2.541,-18.075 -2.541,-18.075l-4.734,6.143Z" style="fill:#ffb3c5;fill-rule:nonzero;"/><path d="M1188.25,591.76l-6.624,-3.23l28.139,-57.734c3.666,1.784 5.187,6.195 3.401,9.855l-24.916,51.109Z" style="fill:#472a6a;fill-rule:nonzero;"/><path d="M1117.54,475.224c3.968,-18.054 7.861,-36.224 -2.608,-56.059c-8.475,-16.051 -23.121,-25.289 -40.082,-27.3c-48.037,-5.699 -37.766,39.145 -104.908,48.852c-20.863,3.017 -40.243,5.916 -57.657,16.292c-31.454,18.735 -43.322,48.788 -22.469,97.749c51.08,119.885 176.446,18.11 191.932,-5.497c11.518,-17.561 33.231,-62.414 35.792,-74.037Z" style="fill:#343434;fill-rule:nonzero;"/><path d="M925.426,1232.51c0,0 -3.421,34.734 -12.208,41.112c-8.797,6.377 -20.523,29.971 -14.655,42.717c1.823,3.988 5.489,6.293 9.666,7.578c12.349,3.798 25.493,-2.608 30.756,-14.409c2.938,-6.595 5.517,-15.402 6.028,-26.485c1.322,-28.214 10.119,-42.566 10.119,-42.566l-29.706,-7.947Z" style="fill:#ffb3c5;fill-rule:nonzero;"/><path d="M1060.55,1246.73c0,0 2.768,35.045 0.519,46.44c-1.2,6.095 -7.908,18.652 -4.828,24.388c3.071,5.735 6.586,7.171 6.586,7.171l79.766,1.285c4.346,0.066 1.474,-2.721 -2.032,-5.291c-5.726,-4.205 -10.355,-6.992 -28.676,-15.836c-1.191,-0.576 -5.547,-3.335 -7.106,-4.29c-3.978,-2.419 -7.975,-6.236 -11.414,-10.053c-5.726,-6.369 -6.227,-37.228 -6.227,-37.228l-26.588,-6.586Z" style="fill:#ffb3c5;fill-rule:nonzero;"/><path d="M1122.89,780.903c0,0 10.044,56.901 3.449,94.204c-6.595,37.304 -38.248,383.07 -38.248,383.07l-35.178,1.975c0,0 -7.37,-144.433 -6.057,-164.512c1.323,-20.088 11.764,-53.706 11.764,-53.706l-3.505,-116.607l44.39,-153.201l23.385,8.777Z" style="fill:#2b6468;fill-rule:nonzero;"/><path d="M1019.51,768.941c0,0 -27.694,41.603 -34.289,76.034c-6.595,34.441 4.838,140.257 -7.842,185.374c-6.87,24.435 -32.901,62.154 -36.86,93.713c-3.949,31.568 -19.474,114.244 -19.474,114.244l35.159,6.954l81.713,-206.482l64.099,-186.631l16.422,-96.122l-98.928,12.916Z" style="fill:#005a60;fill-rule:nonzero;"/><path d="M1041.93,532.214c0,0 -24.255,2.753 -38.758,18.535c-14.514,15.782 23.451,142.64 26.087,162.728c2.637,20.088 -21.618,66.944 -21.618,66.944c0,0 90.632,16.744 115.255,0.482c0,0 2.636,-144.43 0,-158.778c-2.636,-14.348 -24.623,-72.695 -29.895,-78.434c-5.282,-5.74 -51.071,-11.477 -51.071,-11.477Z" style="fill:#f36b80;fill-rule:nonzero;"/><path d="M1007.63,562.658c2.344,-7.069 10.356,-10.473 17.188,-7.519c9.363,4.048 22.299,11.733 28.61,24.9c10.554,21.999 47.48,97.562 58.913,100.434c11.433,2.872 58.043,-78.435 58.043,-78.435c0,0 -1.322,-14.348 2.637,-22.477c3.949,-8.132 15.826,-16.741 17.584,-13.87c1.757,2.87 -6.596,10.043 -6.596,11.478c0,1.435 3.515,2.392 8.353,-0.478c4.838,-2.869 7.455,-8.673 7.455,-8.673c0,0 7.937,14.411 -0.416,27.325c-8.352,12.912 -11.877,18.174 -11.877,18.174c0,0 -54.075,120.039 -73.86,121.475c-18.425,1.342 -124.553,-116.362 -106.034,-172.334Z" style="fill:#ffb3c5;fill-rule:nonzero;"/><path d="M1054.14,483.309c0,0 -0.189,1.079 -0.529,2.913c-1.635,8.798 -7.928,37.988 -12.18,46.013c-5.14,9.697 17.594,40.627 39.477,36.852c6.52,-1.124 -5.499,-28.418 -4.923,-31.31c1.106,-5.534 2.608,-13.085 4.139,-20.826c0.869,-4.368 1.739,-8.796 2.57,-12.957c2.334,-11.827 4.242,-21.501 4.242,-21.501l-32.796,0.816Z" style="fill:#ffb3c5;fill-rule:nonzero;"/><path d="M1053.61,486.222c0.34,-1.834 0.529,-2.913 0.529,-2.913l32.796,-0.816c0,0 -1.908,9.674 -4.242,21.501c-0.822,4.138 -1.691,8.54 -2.551,12.884c-5.065,-0.745 -10.356,-3.2 -15.666,-7.835c-5.783,-5.052 -9.572,-11.124 -11.858,-17.606c0.406,-2.068 0.737,-3.851 0.992,-5.215Z" style="fill:#ea94ad;fill-rule:nonzero;"/><path d="M1073.87,405.363c0,0 -13.37,1.855 -23.065,14.362c-9.684,12.507 -20.125,51.184 3.941,72.212c24.066,21.028 47.848,-2.774 51.382,-28.012c3.524,-25.237 2.806,-59.473 -32.258,-58.562Z" style="fill:#ffb3c5;fill-rule:nonzero;"/><path d="M1113.82,455.302c-2.872,5.572 -7.691,8.659 -10.771,6.892c-3.071,-1.766 -3.241,-7.716 -0.368,-13.291c2.872,-5.573 7.7,-8.66 10.771,-6.893c3.08,1.766 3.241,7.718 0.368,13.292Z" style="fill:#ffb3c5;fill-rule:nonzero;"/><path d="M1077.95,404.778c0,0 -20.655,36.78 -35.433,38.479c-14.768,1.701 -16.705,21.244 -16.705,21.244c0,0 5.272,-45.034 19.899,-53.718c14.626,-8.684 32.239,-6.005 32.239,-6.005Z" style="fill:#343434;fill-rule:nonzero;"/><path d="M1047.35,452.021c1.2,6.532 -1.219,12.522 -5.405,13.379c-4.176,0.857 -8.542,-3.742 -9.742,-10.274c-1.2,-6.532 1.21,-12.522 5.396,-13.38c4.185,-0.856 8.551,3.744 9.751,10.275Z" style="fill:#ffb3c5;fill-rule:nonzero;"/><path d="M941.375,1303.3c-19.162,3.486 -31.908,-7.692 -38.541,-16.073c-4.876,9.487 -7.862,21.335 -4.271,29.121c3.146,6.869 11.745,8.74 19.001,9.014c7.673,0.284 14.853,-3.732 18.661,-10.403c1.786,-3.108 3.619,-6.992 5.15,-11.659Z" style="fill:#2b6468;fill-rule:nonzero;"/><path d="M1104.76,1300.58c-21.089,5.404 -36.689,1.729 -45.41,-1.777c-2.249,6.359 -5.226,14.344 -3.648,18.945c1.937,5.641 4.697,6.917 7.125,6.973c19.275,0.51 70.582,1.191 85.274,1.389c2.051,0.029 3.185,-2.371 1.871,-3.94c-3.647,-4.346 -43.634,-20.626 -45.212,-21.59Z" style="fill:#2b6468;fill-rule:nonzero;"/></g><path d="M318.026,1357.09l-191.15,0c-24.34,-22.95 -39.18,-54.55 -38.63,-89.22c0.27,-17.51 3.76,-32.77 11.05,-47.76l246.45,2.86c6.81,15.23 10.46,31.95 10.19,49.46c-0.52,33.03 -14.89,62.8 -37.91,84.66Z" style="fill:#f47458;fill-rule:nonzero;"/><path d="M1240.89,326.773l-186.04,0c-17.74,0 -32.12,-14.378 -32.12,-32.115l0,-64.23c0,-17.737 14.38,-32.115 32.12,-32.115l186.04,0c17.74,0 32.12,14.378 32.12,32.115l0,64.23c0,17.737 -14.38,32.115 -32.12,32.115Z" style="fill:#e6e6e6;fill-rule:nonzero;"/><path d="M1102.46,309.055l-24.36,73.089l70.88,-73.089l-46.52,0Z" style="fill:#e6e6e6;fill-rule:nonzero;"/><path d="M1096.2,267.434c0,6.462 -5.62,11.701 -12.54,11.701c-6.92,0 -12.54,-5.239 -12.54,-11.701c0,-6.461 5.62,-11.7 12.54,-11.7c6.92,0 12.54,5.239 12.54,11.7Z" style="fill:#3fcb95;fill-rule:nonzero;"/><path d="M1160.27,267.434c0,6.462 -5.61,11.701 -12.54,11.701c-6.92,0 -12.53,-5.239 -12.53,-11.701c0,-6.461 5.61,-11.7 12.53,-11.7c6.93,0 12.54,5.239 12.54,11.7Z" style="fill:#3fcb95;fill-rule:nonzero;"/><path d="M1224.35,267.434c0,6.462 -5.62,11.701 -12.54,11.701c-6.92,0 -12.54,-5.239 -12.54,-11.701c0,-6.461 5.62,-11.7 12.54,-11.7c6.92,0 12.54,5.239 12.54,11.7Z" style="fill:#3fcb95;fill-rule:nonzero;"/><path d="M293.646,972.48c0,0 104,-31.21 108.19,-30.43c4.11,0.76 -12.23,35.45 -10.18,46.66c0.65,3.59 -89.02,54.87 -108.95,51.09c-21.73,-4.13 -105.25,-75.97 -114.16,-91.55c-9.96,-17.41 -27.39,-60.84 -15.78,-77.2c5.29,-7.45 18.11,-17.38 27.01,-15.28c35.38,8.35 73.59,71.02 113.87,116.71Z" style="fill:#25bb82;fill-rule:nonzero;"/><path d="M299.356,1091.71c-0.68,-3.09 -22.26,-53.27 -23.36,-58.39c-14.33,-66.9 -69.51,-164.71 -95.05,-177.3c-4.13,-2.06 -33.62,-2.25 -33.62,-2.25l15.24,7.54c17.36,15.86 36.8,34.21 49.19,54.68c35.95,59.37 60.44,196.14 63.71,195.9c3.66,-0.27 25.4,-13.32 23.89,-20.18Z" style="fill:#25bb82;fill-rule:nonzero;"/><path d="M265.206,1093.57c-50.5,-29.37 -58.44,-98.71 -79.79,-135.95c-26.14,-45.6 -64.69,-50.57 -131.05,32.09c-81.36,101.34 -39.96,305.2 72.37,370.53l269.39,-0.58c55.5,-19.98 80.16,-49.28 100.1,-98.08c88.66,-217.05 -118.68,-102.68 -231.02,-168.01Z" style="fill:#c2e7d1;fill-rule:nonzero;"/><path d="M384.686,1318.69c0,0 -1.88,33.2 -1.89,33.27c-0.69,4.21 -3.41,14.62 -3.41,18.45c0,14.4 64.04,-12.21 49.69,-18.59c-1.3,-0.58 -10.12,-8.21 -10.55,-13.1c-0.66,-7.55 -0.31,-19.56 -0.31,-19.56l-33.53,-0.47Z" style="fill:#ffb3c5;fill-rule:nonzero;"/><path d="M428.146,1351.19c0,0 -15.03,4.4 -22.73,5.5c-7.7,1.1 -17.85,-8.16 -23.3,-5.66c-4.45,2.05 -6.18,16.88 -6.78,24.4c-0.19,2.38 1.62,4.44 4,4.57c17.71,0.92 85.05,4.03 102.52,-1.03c9.069,-2.62 -22.97,-17.53 -53.71,-27.78Z" style="fill:#424242;fill-rule:nonzero;"/><path d="M564.646,1285.41c0,0 -15.03,4.4 -22.73,5.5c-7.7,1.1 -17.86,-8.17 -23.3,-5.66c-4.45,2.04 -6.19,16.88 -6.79,24.39c-0.19,2.39 1.9,5.08 4.28,5.32c19.65,1.93 84.77,3.29 102.25,-1.77c9.06,-2.63 -22.97,-17.53 -53.71,-27.78Z" style="fill:#424242;fill-rule:nonzero;"/><path d="M501.546,1258.51c0,0 18.01,25.33 19.69,30.92c1.69,5.59 43.42,9.69 43.42,-4.01c0,-0.18 -12.94,-10.71 -16.59,-15.5c-6.12,-8.02 -20.37,-34.82 -20.37,-34.82l-26.15,23.41Z" style="fill:#ffb3c5;fill-rule:nonzero;"/><path d="M113.756,706.73c0,0 -20.32,-13.739 -28.91,10.33c0,0 -11.49,-3.48 -16.4,8.32c0,0 -19.68,-1.48 -18.07,27.11c0,0 -9.89,0.3 -8.65,11.87c1.24,11.57 8.63,17.83 8.63,17.83c0,0 -4.45,5.18 0.27,15.02c4.01,8.37 11.61,8.11 11.61,8.11c0,0 5.25,14.44 12.69,17.49c7.44,3.06 15.75,-1.03 15.75,-1.03c0,0 4.11,7.55 11.48,5.17c7.37,-2.38 15.1,-11.61 24.24,-10.24c9.13,1.36 30.25,-6.87 30.25,-6.87c0,0 22.13,-16.35 9.24,-39.82c0,0 10.34,-14.5 -4.04,-25.98c0,0 3.41,-23.69 -15.74,-32.99c-19.16,-9.3 -32.35,-4.32 -32.35,-4.32Z" style="fill:#343434;fill-rule:nonzero;"/><path d="M435.976,1065.54c-16.89,-8.31 -194.18,19.3 -194.18,19.3l-21.26,-33.89l-69.2,15.71c0,0 -19.59,22.54 -20.4,32.64c-2.62,32.68 12.36,87.63 29.25,92.97c60.16,19.03 189.51,-19.86 207.61,-24.01c0,0 -0.66,29.31 4.83,89.13c2.17,23.64 5.01,49.69 7.64,72.48c15.83,-0.03 31.67,-0.33 47.5,-2.41c0,0 25.11,-253.61 8.21,-261.92Z" style="fill:#424242;fill-rule:nonzero;"/><path d="M548.356,1254.93c-30.33,-76.61 -96.15,-226.94 -120,-231.17c-31.26,-5.54 -186.59,61.14 -186.59,61.14l157.59,-3.29c0,0 0.87,1.56 7.73,34.59c5.35,25.74 64.63,116.4 98.43,166.63c15.59,-7.05 31.03,-13.56 42.84,-27.9Z" style="fill:#4c4c4c;fill-rule:nonzero;"/><path d="M148.076,854.33c0,0 -39.24,-0.44 -43.41,0.48c-4.17,0.92 3.29,160.14 8.39,219.56c5.11,59.42 13.29,68.33 13.29,68.33c0,0 55.96,0.22 94.63,-11.99c40.22,-12.69 49.77,-59.4 49.77,-59.4c0,0 -36.42,-106.82 -51.02,-139.92c-9.34,-21.18 -28,-45.01 -46.9,-64.42c-10.64,-10.93 -24.75,-12.64 -24.75,-12.64Z" style="fill:#f2f2f2;fill-rule:nonzero;"/><path d="M137.036,825.36l7.88,21.48c0,0 13.73,30.43 6.48,38.48c-7.24,8.04 -45.18,-30.89 -45.18,-30.89l-9.43,-56.75l40.25,27.68Z" style="fill:#ffb3c5;fill-rule:nonzero;"/><path d="M99.846,816.07c11.33,17.57 30.85,25.59 43.87,27.5l-6.68,-18.21l-40.25,-27.68l3.06,18.39Z" style="fill:#ea94ad;fill-rule:nonzero;"/><path d="M103.646,734.34c16.12,-9.86 37.29,-2.37 43.93,15.03c2.88,7.57 6.1,17.17 8.67,27.88c6.18,25.76 -1.65,53.88 -13.39,56.47c-11.74,2.6 -47.9,-6.98 -57.18,-43.43c-5.73,-22.51 1.04,-45.6 17.97,-55.95Z" style="fill:#ffb3c5;fill-rule:nonzero;"/><path d="M94.976,791.28c1.26,5.71 -1.5,11.16 -6.17,12.2c-4.66,1.03 -9.47,-2.76 -10.73,-8.47c-1.26,-5.7 1.5,-11.16 6.17,-12.19c4.66,-1.03 9.47,2.76 10.73,8.46Z" style="fill:#ffb3c5;fill-rule:nonzero;"/><path d="M106.146,854.27c0,0 -45.56,-1.81 -55.93,7.77c-6.6,6.09 6.76,67.05 6.76,67.05c0,0 37.16,71.14 42.57,112.76c8.97,69.11 17.16,111.58 20.7,113.87c20.48,7.35 88.17,-6.64 90.98,-14.63c31.07,-88.32 -105.08,-286.82 -105.08,-286.82Z" style="fill:#25bb82;fill-rule:nonzero;"/><path d="M326.486,1000.65l30.25,-127.71c0.78,-3.31 3.73,-5.65 7.13,-5.65l54.92,0c4.82,0 8.32,4.56 7.09,9.22l-33.36,125.67c-0.83,3.12 -3.58,5.32 -6.8,5.45l-51.81,2.04c-4.85,0.19 -8.54,-4.3 -7.42,-9.02Z" style="fill:#472a6a;fill-rule:nonzero;"/><path d="M376.596,997.35c-2.32,0.45 -6.16,1.29 -8.82,2.26c-2.88,1.05 -5.85,1.12 -8.39,1.65c-5.06,1.04 -8.74,1.87 -8.66,1.64c0.09,-0.29 -1.05,-0.78 1.59,-1.78c3.18,-1.2 10.47,-2.32 15,-4.44c2.57,-1.2 8.1,-3.4 8.1,-3.4c0,0 7.73,-4.83 7.6,-5.37c-0.69,-2.87 -6.9,-1.01 -10.19,1.07c-2.76,0.28 -8.51,2.76 -8.51,2.76c0,0 -12.71,2.47 -13.07,0.73c-0.15,-0.75 7.48,-3.17 14.61,-6.69c6.61,-3.27 12.76,-7.61 12.32,-8.98c-0.74,-2.31 -8.47,0.56 -8.47,0.56c0,0 -5.3,2.29 -7.12,2.92c-2.13,0.74 -8.69,2.48 -8.69,2.48c0,0 -23.07,5.03 -23.26,3.35c-0.19,-1.68 1.1,-6.22 2.43,-7.02c1.33,-0.79 4.52,-1.01 5.85,-1.8c1.32,-0.8 2.38,-2.93 1.54,-4.58c-0.84,-1.65 -8.72,-0.19 -8.72,-0.19c0,0 -6.39,1.23 -9.84,4.12c-11.93,10.01 -9.79,11.53 -11.36,12.78c-1.85,1.47 -33.35,4.92 -33.35,4.92c0,0 -92.78,10.77 -97.81,11.18l3.25,30.89c5.53,0.57 112.61,-18.09 123.6,-20.28c0,0 14.01,2.09 22.85,3.12c8.85,1.02 17.78,-1.85 20.32,-1.94c0.38,-0.01 8.84,-0.77 19.05,-4.42c8.8,-3.14 -0.94,-4.07 -0.94,-4.07c0,0 -17.33,2.99 -17.31,1.62c0.02,-1.06 9.57,-2.15 19.34,-5.52c2.51,-0.87 4.99,-1.74 7.26,-2.55c5.96,-2.13 6.38,-6.29 -0.2,-5.02Z" style="fill:#ffb3c5;fill-rule:nonzero;"/><path d="M165.496,990.4c0,0 108.23,-0.78 112.42,0c4.12,0.76 5.28,28.53 7.32,39.74c0.65,3.6 -114.08,16.45 -134.01,12.66c-21.73,-4.12 -76.45,-64.23 -89.13,-84.52c-10.63,-17.02 -33.33,-60.32 -27.68,-79.27c3.41,-11.45 21.11,-24.38 30.78,-21.39c38.57,11.96 100.3,132.78 100.3,132.78Z" style="fill:#3fcb95;fill-rule:nonzero;"/><path d="M410.696,939.43c2.08,-0.81 4.43,0.43 4.85,2.63c0.44,2.24 0.45,4.93 -1.27,6.64c-3.4,3.4 -26.38,5.96 -26.38,2.55c0,-2.61 15.59,-9 22.8,-11.82Z" style="fill:#ffb3c5;fill-rule:nonzero;"/><path d="M415.756,949.41c0,0 2.64,8.48 0.66,8.63c-1.98,0.15 -26.61,3.61 -27.82,0.71c-1.22,-2.89 23.91,-10.94 27.16,-9.34Z" style="fill:#ffb3c5;fill-rule:nonzero;"/><path d="M416.766,958.92c0,0 0.95,3.76 -0.95,6.09c-1.91,2.33 -24.99,2.38 -26.07,-1.22c-1.08,-3.6 26.03,-7.62 27.02,-4.87Z" style="fill:#ffb3c5;fill-rule:nonzero;"/><path d="M411.496,967.57c0,0 0.48,2.87 -0.48,4.28c-0.95,1.41 -18.04,2.32 -20.27,-1.01c-2.23,-3.33 18.21,-6.68 20.75,-3.27Z" style="fill:#ffb3c5;fill-rule:nonzero;"/><g><path d="M1683.53,561.878c23.59,-1.331 37.01,27.026 21.07,44.602c-2.86,3.157 -4.4,7.29 -4.51,11.549l-0.34,14.66c-0.09,4.04 -3.28,7.328 -7.31,7.556l-8.94,0.504c-4.03,0.228 -7.57,-2.683 -8.11,-6.686c-2.01,-14.608 -1.69,-20.14 -7.78,-25.497c-17.81,-15.67 -7.67,-45.357 15.92,-46.688Z" style="fill:#2b9cff;fill-rule:nonzero;"/><path d="M1671.64,583.649c-1.3,0.664 -1.43,2.713 -0.63,3.965c1.13,1.787 3.59,2.631 5.69,3.275c-0.37,-2.436 -0.56,-4.584 -1.64,-6.055c-0.75,-1.033 -3.27,-1.257 -3.42,-1.185Zm22.38,2.391c-1.14,1.654 -1.44,3.693 -1.47,5.891c2.87,-0.503 4.69,-1.484 5.56,-2.992c1.48,-2.529 -1.52,-6.63 -4.09,-2.899Zm-0.53,37.194c-1.18,-11.845 -2.03,-24.93 -2.19,-29.833c-4.35,0.55 -8.79,0.287 -13.05,-0.764c1.46,9.765 2.68,19.657 3.63,29.456l-1.26,0.123c-0.97,-9.961 -2.21,-20.016 -3.71,-29.937c-2.57,-0.742 -5.56,-1.755 -6.97,-3.984c-0.67,-1.043 -0.87,-2.436 -0.55,-3.634c0.88,-3.191 4.77,-3.221 6.7,-0.577c1.28,1.751 1.49,4.112 1.96,7.189c4.3,1.133 8.81,1.425 13.23,0.849c0.01,-2.486 0.34,-4.827 1.7,-6.803c4.77,-6.933 12.79,5.709 -0.41,7.899c0.11,3.837 0.92,17.272 2.18,29.889l-1.26,0.127Z" style="fill:#31dae7;fill-rule:nonzero;"/><path d="M1700.12,617.664c-0.01,0.122 -0.02,0.243 -0.03,0.365l-0.34,14.66c-0.09,4.04 -3.28,7.328 -7.31,7.556l-8.94,0.504c-4.03,0.228 -7.57,-2.683 -8.11,-6.686c-0.9,-6.498 -1.33,-11.198 -2.07,-14.888l26.8,-1.511Z" style="fill:#31dae7;fill-rule:nonzero;"/><path d="M1698.09,547.744l4.03,-13.937c0.39,-1.349 -0.39,-2.759 -1.73,-3.15c-1.35,-0.39 -2.76,0.387 -3.15,1.736l-4.04,13.937c-0.39,1.349 0.39,2.759 1.74,3.149c1.35,0.393 2.76,-0.393 3.15,-1.735Z" style="fill:#2b9cff;fill-rule:nonzero;"/><path d="M1719.66,574.469l14.54,-4.605c1.34,-0.424 2.08,-1.853 1.66,-3.192c-0.43,-1.337 -1.85,-2.08 -3.19,-1.656l-14.55,4.605c-1.33,0.424 -2.08,1.853 -1.65,3.192c0.42,1.337 1.85,2.079 3.19,1.656Z" style="fill:#2b9cff;fill-rule:nonzero;"/><path d="M1744.51,616.658c0.74,-1.189 0.38,-2.759 -0.81,-3.505c-4.45,-2.789 -9.19,-5.166 -14.08,-7.063c-1.31,-0.506 -2.78,0.143 -3.29,1.453c-0.51,1.31 0.14,2.783 1.45,3.29c4.6,1.78 9.04,4.01 13.22,6.628c1.19,0.743 2.76,0.393 3.51,-0.803Z" style="fill:#2b9cff;fill-rule:nonzero;"/><path d="M1661.29,555.245c1.25,-0.649 1.73,-2.185 1.08,-3.43c-3.08,-5.914 -5.55,-12.166 -7.35,-18.587c-0.38,-1.353 -1.78,-2.144 -3.14,-1.763c-1.35,0.379 -2.14,1.782 -1.76,3.135c1.89,6.758 4.5,13.341 7.74,19.566c0.66,1.252 2.2,1.725 3.43,1.079Z" style="fill:#2b9cff;fill-rule:nonzero;"/><path d="M1650.27,577.716c0.11,-1.401 -0.95,-2.619 -2.35,-2.722l-16.45,-1.208c-1.4,-0.103 -2.62,0.949 -2.72,2.349c-0.11,1.401 0.95,2.619 2.35,2.722l16.45,1.209c1.4,0.102 2.62,-0.946 2.72,-2.35Z" style="fill:#2b9cff;fill-rule:nonzero;"/><path d="M1634.09,624.392c0.23,-0.05 0.45,-0.13 0.66,-0.243c5,-2.694 9.74,-5.935 14.06,-9.633c1.06,-0.913 1.19,-2.518 0.27,-3.585c-0.91,-1.067 -2.51,-1.191 -3.58,-0.278c-4.05,3.462 -8.47,6.496 -13.16,9.017c-1.24,0.666 -1.7,2.207 -1.04,3.443c0.56,1.027 1.71,1.52 2.79,1.279Z" style="fill:#2b9cff;fill-rule:nonzero;"/><path d="M1846.77,926.69c-56.46,-72.49 -90.17,-68.84 -113.76,-29.9c-19.25,31.8 -27.38,91.55 -71.92,116.07c-99.11,54.54 -228.76,35.56 -176.89,190.21c14.49,43.22 36.82,39.81 47.16,40.12l252.07,-0.25c99.1,-54.55 132.55,-227.39 63.34,-316.25Z" style="fill:#c2e7d1;fill-rule:nonzero;"/><path d="M1793.74,791.98c5.8,-28.36 -7.54,-56.47 -33.04,-67.03c0.17,-16.14 -6.19,-32.33 -17.18,-43.38c-21.67,-21.79 -66.32,-31.215 -82.26,-3.43c-21.05,11.94 -19.72,26.77 -13.44,50.34c-20.41,21.19 -12.95,55.89 16.8,74c-0.47,23.78 -1.09,59.64 19.64,69.8c4.98,2.44 12.76,5.84 13.75,6.89c-1.3,-1.23 15.35,45.28 67.08,24c52.79,-21.72 63.06,-82.87 28.65,-111.19Z" style="fill:#343434;fill-rule:nonzero;"/><path d="M1574.41,983.35c4.15,-4.1 11.46,-7.73 11.04,-8.33c-1.74,-2.45 -19.8,16.24 -18.62,10.98c0.65,-2.93 13.59,-18.19 18.18,-18.77c4.45,-0.55 33.26,-5.1 33.26,-5.1l66.58,-44.25c0,0 3.3,-52.35 -10.83,-87.61c15.45,-4.71 18.47,-5.72 34.35,-4.49c9.06,35.77 18.8,96.01 7.03,113.57c-4.95,7.39 -91.49,35.95 -91.49,35.95c0,0 -18.72,7.05 -22.21,7.27c-2.65,0.17 -9.94,-0.44 -13.5,0.11c-8.08,1.26 -18.1,13.29 -18.79,11.9c-0.5,-1.01 0.76,-7.04 5,-11.23Z" style="fill:#ea94ad;fill-rule:nonzero;"/><path d="M1665.93,826.09c6.25,-11.57 12.69,-20.75 12.69,-20.75c6.49,-11.57 23.24,-17.42 23.24,-17.42c0,0 5.61,0.12 12.04,0.43c0.4,1.07 0.81,1.84 1.22,2.15c2.41,1.82 16.28,-0.53 25.23,5.57c30.01,25.81 21.71,150.91 19.35,190.43l-74.92,0.32c0,0 -4.95,-84.48 -23.52,-106.32c-12.93,-15.21 -4.61,-37.26 4.67,-54.41Z" style="fill:#f36b80;fill-rule:nonzero;"/><path d="M1645.38,1266.23c-0.8,-1.48 -11.21,-26.59 -19.72,-37.78c-12.35,-16.24 -119.15,-163.31 -114.76,-199.11c1.92,-15.63 48.2,-28.88 53.7,-29.83c29.45,3.96 -1.49,29.31 20.63,50.15c-14.38,4.92 -22.86,11.07 -19.76,15.11c12.45,16.19 78.56,146.67 81.44,148.36c12.8,7.51 17.82,4.02 17.82,4.02c0,0 -2.95,73.4 -9.05,71.08c-6.11,-2.31 -1.23,-5.31 -10.3,-22Z" style="fill:#ea94ad;fill-rule:nonzero;"/><path d="M1670.13,1217.62l-12.35,73.94c-2.77,9.57 -7.44,9.46 -8.64,8.18c-2.46,-2.64 -3.59,-22.38 -3.89,-33.6c5.57,-17.13 5.05,-49.38 1.61,-53.02c8.4,0.16 23.27,2.86 23.27,4.5Z" style="fill:#5c407b;fill-rule:nonzero;"/><path d="M1625.98,1036.45c-16.57,-27.48 -15.68,-24 -44.52,-36.42c-11.56,4.65 -50.24,28.89 -55.14,33.37l61.51,44.61c-2.01,-4.99 19.42,-29.76 38.15,-41.56Z" style="fill:#ffb3c5;fill-rule:nonzero;"/><path d="M1707.12,745.6c0,0 5.02,36 8.53,44.74c3.51,8.75 -19.29,27.46 -38.26,33.14c-18.98,5.68 5.8,-19.32 5.01,-28.67c-0.79,-9.36 -4.23,-53.63 -4.23,-53.63l28.95,4.42Z" style="fill:#ffb3c5;fill-rule:nonzero;"/><path d="M1679.12,753.87c-0.55,-7.32 -0.95,-12.69 -0.95,-12.69l28.95,4.42c0,0 0.73,4.23 1.54,10.21c-11.74,6.83 -22.3,4.67 -29.54,-1.94Z" style="fill:#ea94ad;fill-rule:nonzero;"/><path d="M1698.04,679.85c0,0 11.41,2.58 18.46,13.371c7.05,10.789 11.88,42.549 -11.33,57.379c-23.21,14.83 -41.26,-6.15 -41.56,-26.6c-0.3,-20.46 4.07,-47.76 34.43,-44.15Z" style="fill:#ffb3c5;fill-rule:nonzero;"/><path d="M1658.3,717.59c1.98,4.94 5.91,8 8.78,6.85c2.86,-1.16 3.58,-6.1 1.6,-11.04c-1.98,-4.93 -5.91,-8 -8.77,-6.84c-2.87,1.16 -3.59,6.1 -1.61,11.03Z" style="fill:#ffb3c5;fill-rule:nonzero;"/><path d="M1716.87,721.65c-1.68,5.32 -0.14,10.56 3.44,11.7c3.58,1.14 7.85,-2.25 9.53,-7.57c1.69,-5.31 0.15,-10.55 -3.43,-11.69c-3.59,-1.14 -7.86,2.24 -9.54,7.56Z" style="fill:#ffb3c5;fill-rule:nonzero;"/><path d="M1629.37,988.93c12.81,-1.18 55.22,-5.49 55.22,-5.49l75.24,-10.11c0,0 13.29,31.77 13.81,51.7c0.91,34.86 -31.17,64.24 -58.62,62.56c-16.33,-1.01 -108.8,-3.03 -126.85,-9.72c-3.73,-28.41 -8.02,-59.19 -27.16,-79.63c30.65,-4.21 50.96,-7.72 68.36,-9.31Z" style="fill:#5c407b;fill-rule:nonzero;"/><path d="M1628.41,1251.89c-2.07,-2.13 -18.57,-115.03 -28.53,-162.42c-2.4,-11.41 -9.66,-21.2 -19.89,-26.79l-53.67,-29.28c-18.59,17 68.16,207.97 76.1,227.99c5.47,13.78 8.9,42.25 9.3,43.99c4.47,19.52 -1.35,21.18 4.2,25.28c5.55,4.09 30.44,-67.19 30.44,-67.19c0,0 -7.07,-0.3 -17.95,-11.58Z" style="fill:#ffb3c5;fill-rule:nonzero;"/><path d="M1644.57,993.84c0.01,2.84 -2.6,5.15 -5.83,5.16l-91.16,0.21c-3.23,0.01 -6.47,-2.78 -7.52,-6.24l1.66,1.11c0,-2.84 2.61,-5.15 5.84,-5.16l91.15,-0.22c3.23,0 5.86,2.29 5.86,5.14Z" style="fill:#31dae7;fill-rule:nonzero;"/><path d="M1548.5,997.35c0.54,0 1.09,-0.03 1.64,-0.1c4.72,-0.6 7.82,-3.61 6.91,-6.73l-34.79,-120.38c-0.9,-3.12 -5.45,-5.16 -10.17,-4.57c-4.72,0.6 -7.81,3.61 -6.91,6.73l34.79,120.38c0.79,2.76 4.44,4.67 8.53,4.67Z" style="fill:#31dae7;fill-rule:nonzero;"/><path d="M1575.35,981.04c5.22,-2.61 13.29,-3.8 13.07,-4.51c-0.88,-2.85 -24.07,11.92 -21.31,7.29c1.53,-2.59 18.77,-15.7 23.31,-14.82c4.41,0.85 33.21,5.46 33.21,5.46l74.13,-26.79c0,0 14.13,-46.11 11.63,-84.01c16.15,0.31 27.43,2.99 42.15,9.08c-2.47,36.81 -11.87,97.12 -28.5,110.16c-7,5.49 -98.13,5.83 -98.13,5.83c0,0 -19.99,0.9 -23.38,0.03c-2.56,-0.67 -9.3,-3.5 -12.86,-4.08c-8.08,-1.31 -21.33,7.02 -21.55,5.49c-0.17,-1.12 2.9,-6.46 8.23,-9.13Z" style="fill:#ffb3c5;fill-rule:nonzero;"/><path d="M1704.23,823.45c1.04,-11.65 2.46,-23.38 14.34,-28.42c7.36,-3.12 16.16,-1.98 22.83,2.3c7.94,5.1 11.07,14.39 12.09,23.4c2.3,20.48 3.38,41.87 2,62.46c-14.72,-6.09 -34.74,-2.87 -50.89,-3.18c-3.6,-18.04 -1.72,-41.38 -0.37,-56.56Z" style="fill:#e25a74;fill-rule:nonzero;"/><path d="M1586.36,970.04c-12.67,3.24 -11.96,3.01 -12.47,3.33c-8.95,5.64 -8.24,8.08 5.5,2.19c0.35,-0.15 0.72,-0.22 1.1,-0.22l6.52,0.07c2.53,0.03 3.73,-3.1 1.83,-4.77c-0.68,-0.6 -1.61,-0.82 -2.48,-0.6Z" style="fill:#ffb3c5;fill-rule:nonzero;"/><path d="M1611.17,1301.21c0,0 0.54,8.95 -2.47,16.13c-3.01,7.18 -14.52,9.88 -11.74,13.59c2.78,3.7 25.01,0 25.01,0l25.72,-62.9c1.05,-2.34 0.45,-5.08 -1.47,-6.77c-3.09,-2.71 -8.75,-6.55 -17.69,-9.23c0,0 1.39,39.45 -17.36,49.18Z" style="fill:#5c407b;fill-rule:nonzero;"/></g><path d="M1189.74,805.782c14.834,-4.271 15.231,-1.625 17.112,-2.23c2.229,-0.709 20.172,-25.011 20.172,-25.011c0,0 53.414,-71.253 56.154,-75.212l16.847,-92.201l50.608,-0.4c0,0 -21.147,99.565 -23.206,104.497c-2.07,4.933 -86.721,91.955 -93.892,99.873c0,0 -4.64,12.869 -7.833,20.825c-3.194,7.956 -10.035,13.776 -11.31,15.846c-0.18,0.302 -4.857,6.926 -13.002,13.37c-7.03,5.565 -3.316,-3.09 -3.316,-3.09c0,0 10.875,-12.756 9.6,-13.512c-0.983,-0.586 -6.463,6.756 -14.155,12.992c-1.984,1.607 -3.94,3.175 -5.754,4.611c-4.762,3.751 -8.797,1.758 -4.535,-3.004c1.502,-1.682 4.072,-4.413 6.217,-6.085c2.315,-1.796 3.77,-4.233 5.452,-6.057c3.335,-3.628 5.811,-6.227 5.575,-6.293c-0.322,-0.085 -0.227,-1.313 -2.391,0.321c-2.598,1.966 -7.049,7.418 -11.13,9.988c-2.315,1.464 -6.926,4.818 -6.926,4.818c0,0 -8.089,3.714 -8.523,3.308c-2.325,-2.211 2.305,-6.341 5.754,-7.9c1.559,-2.135 6.539,-5.527 6.539,-5.527c0,0 8.239,-9.203 6.793,-10.488c-0.614,-0.539 -6.425,4.45 -13.01,8.39c-6.114,3.657 -13.011,6.331 -14.06,5.188c-1.786,-1.928 4.488,-6.747 4.488,-6.747c0,0 4.592,-3.118 6.028,-4.28c1.682,-1.361 6.359,-5.839 6.359,-5.839c0,0 15.449,-16.384 13.984,-17.49c-1.464,-1.115 -6.255,-2.617 -7.606,-1.956c-1.361,0.652 -3.052,3.194 -4.413,3.846c-1.351,0.661 -3.817,0.331 -4.951,-1.304c-1.124,-1.635 3.912,-7.38 3.912,-7.38c0,0 4.139,-4.629 8.419,-5.867Z" style="fill:#ea94ad;fill-rule:nonzero;"/><path d="M1273.76,1268.32c0,0 1.805,31.805 1.814,31.871c0.661,4.044 3.269,14.022 3.269,17.688c0,13.795 -61.369,-11.707 -47.612,-17.82c1.247,-0.548 7.767,-4.734 8.173,-9.43c0.633,-7.238 2.23,-21.865 2.23,-21.865l32.126,-0.444Z" style="fill:#ffb3c5;fill-rule:nonzero;"/><path d="M1231.38,1299.92c0,0 14.41,4.224 21.789,5.273c7.38,1.058 17.102,-7.824 22.327,-5.424c5.745,2.646 5.159,28.639 5.159,28.639c0,0 -76.903,4.536 -98.635,-2.466c-8.608,-2.768 19.899,-16.195 49.36,-26.022Z" style="fill:#424242;fill-rule:nonzero;"/><path d="M1408.97,1271.37c0,0 1.795,31.805 1.805,31.871c0.661,4.044 3.269,14.022 3.269,17.688c0,13.795 -61.37,-11.707 -47.612,-17.82c1.247,-0.548 9.704,-7.862 10.11,-12.548c0.633,-7.238 0.293,-18.747 0.293,-18.747l32.135,-0.444Z" style="fill:#ffb3c5;fill-rule:nonzero;"/><path d="M1366.59,1302.97c0,0 14.409,4.224 21.789,5.282c7.379,1.049 17.111,-7.833 22.327,-5.433c5.745,2.646 5.972,26.409 5.972,26.409c0,0 -82.223,5.962 -101.555,0.369c-8.683,-2.514 22.015,-16.8 51.467,-26.627Z" style="fill:#343434;fill-rule:nonzero;"/><path d="M1311.72,812.169l-25.946,11.197l-54.575,260.624l2.21,195.39l43.757,1.02c0,0 20.344,-170.918 20.344,-184.165c0,-13.237 94.26,-231.786 94.26,-231.786l-80.05,-52.28Z" style="fill:#424242;fill-rule:nonzero;"/><path d="M1331.75,826.512c0,0 19.114,200.804 19.114,234.659c0,33.845 15.496,223.302 15.496,223.302l43.852,-0.255c0,0 3.165,-57.751 7.87,-142.704c0.738,-13.304 -0.954,-40.148 0,-53.924c6.823,-99.07 20.315,-192.329 13.871,-229.292c-1.039,-5.953 -2.986,-21.515 -6.784,-25.446c-28.724,-29.706 -93.419,-6.34 -93.419,-6.34Z" style="fill:#4c4c4c;fill-rule:nonzero;"/><path d="M1278.25,668.029l53.064,-3.553c0,0 2.627,-47.433 2.627,-70.06c0,-27.451 8.362,-67.925 5.093,-67.164c-9.185,2.136 -25.03,10.587 -32.391,20.837c-25.464,35.468 -28.393,119.94 -28.393,119.94Z" style="fill:#25bb82;fill-rule:nonzero;"/><path d="M1403.98,526.202c0,0 30.264,4.207 38.229,10.056c8.967,6.588 18.926,21.327 18.926,21.327c0,0 -37.153,175.621 -37.219,205.177c-0.056,22.866 8.041,79.001 8.041,79.001c0,0 -112.279,7.086 -154.798,-9.695c0,0 13.427,-66.764 13.427,-84.301c0,-17.528 16.062,-176.956 19.719,-188.089c3.317,-10.102 9.373,-28.255 29.896,-32.731c20.513,-4.475 63.779,-0.745 63.779,-0.745Z" style="fill:#3fcb95;fill-rule:nonzero;"/><path d="M1395.72,478.918l7.493,49.041c0,0 -27.363,58.394 -43.691,53.33c-13.7,-4.249 -5.272,-55.917 -5.272,-55.917c0,0 7.474,-27.748 5.235,-41.632c-2.249,-13.885 36.235,-4.822 36.235,-4.822Z" style="fill:#ffb3c5;fill-rule:nonzero;"/><path d="M1359.48,483.74c-2.249,-13.885 36.235,-4.822 36.235,-4.822l0.615,4.066c-1.125,2.722 -2.495,5.051 -4.167,6.837c-8.598,9.188 -22.035,14.706 -33.647,15.123c1.162,-7.486 1.88,-15.511 0.964,-21.204Z" style="fill:#ea94ad;fill-rule:nonzero;"/><path d="M1402.03,409.536c1.087,-0.393 8.712,55.856 -5.763,71.333c-14.476,15.476 -42.69,20.541 -52.809,8.353c-11.188,-13.484 -10.63,-73.938 11.886,-89.859c22.507,-15.92 46.686,10.173 46.686,10.173Z" style="fill:#ffb3c5;fill-rule:nonzero;"/><path d="M1363.91,369.275c17.395,3.524 28.667,14.087 32.806,18.588c7.899,0.927 18.642,5.264 29.726,23.501c13.634,22.425 3.571,47.269 -12.303,59.459c-15.873,12.19 -15.694,26.34 -15.694,26.34l-2.466,-7.353c-1.852,-5.518 -2.608,-11.368 -1.984,-17.154c0.368,-3.472 1.115,-7.227 2.561,-10.314c3.817,-8.141 -8.202,-13.55 -11.566,-20.323c-2.598,-5.214 -2.721,-17.144 -6.812,-25.765l-4.876,-6.581c0,0 -11.263,-8.705 -22.289,-6.249c-11.018,2.457 -9.43,-38.671 12.897,-34.149Z" style="fill:#343434;fill-rule:nonzero;"/><path d="M1385.73,452.03c-0.113,6.862 3.024,12.48 7.021,12.548c3.987,0.068 7.313,-5.44 7.426,-12.304c0.114,-6.861 -3.023,-12.48 -7.011,-12.548c-3.996,-0.068 -7.322,5.441 -7.436,12.304Z" style="fill:#ffb3c5;fill-rule:nonzero;"/><path d="M1326.81,704.851l-0.728,4.185c-0.368,2.155 -2.418,3.6 -4.573,3.222l-86.786,-15.032c-2.154,-0.369 -3.6,-2.419 -3.222,-4.574l0.727,-4.185c0.369,-2.155 2.419,-3.6 4.574,-3.222l86.786,15.023c2.154,0.378 3.6,2.428 3.222,4.583Z" style="fill:#31dae7;fill-rule:nonzero;"/><path d="M1449.83,548.816c-10.176,-0.294 -19.181,66.864 -12.727,73.49c6.453,6.625 7.682,89.348 7.682,89.348l-96.056,-2.391l-0.009,0.029c-1.871,-1.257 -21.997,-14.769 -24.87,-17.726c-3.023,-3.099 -17.688,-1.54 -21.561,2.712c-3.884,4.261 8.617,0.774 12.075,3.099c3.449,2.324 -2.589,8.135 -2.589,8.135c0,0 -24.349,3.534 -29.092,-1.502c-4.744,-5.036 -17.415,-13.559 -19.144,-8.523c-0.888,2.598 5.651,10.469 9.326,13.776c-4.592,-3.439 -10.091,-7.096 -11.981,-6.463c-3.449,1.162 -2.012,5.556 -0.142,6.841c1.862,1.295 21.194,16.054 24.208,17.083c2.948,1.011 47.896,2.117 55.662,3.837c0,0 126.661,28.847 133.87,27.042c6.312,-1.578 12.633,-42.123 12.633,-73.171c0,-31.058 -5.462,-134.694 -37.285,-135.616Z" style="fill:#ffb3c5;fill-rule:nonzero;"/><path d="M1436.63,533.495c0,0 17.717,4.08 36.019,24.648c16.649,18.705 27.137,123.454 27.137,123.454l-57.477,9.288l-4.592,-50.664l-15.354,-23.179l14.267,-83.547Z" style="fill:#25bb82;fill-rule:nonzero;"/><path d="M415.336,772.13l-147.06,0c-14.02,0 -25.39,-11.37 -25.39,-25.39l0,-50.769c0,-14.021 11.37,-25.381 25.39,-25.381l147.06,0c14.02,0 25.38,11.36 25.38,25.381l0,50.769c0,14.02 -11.36,25.39 -25.38,25.39Z" style="fill:#00b6ff;fill-rule:nonzero;"/><path d="M305.916,758.12l62.63,99.3l-25.87,-99.3l-36.76,0Z" style="fill:#00b6ff;fill-rule:nonzero;"/><path d="M1536.71,237.266l-6.02,-14.237l-15.15,-3.111c-1.72,-0.354 -2.29,-2.533 -0.96,-3.686l11.68,-10.126l-1.72,-15.361c-0.2,-1.75 1.7,-2.965 3.21,-2.056l13.24,7.979l14.07,-6.383c1.61,-0.727 3.35,0.7 2.95,2.415l-3.5,15.057l10.42,11.417c1.19,1.3 0.37,3.397 -1.38,3.548l-15.4,1.327l-7.64,13.439c-0.87,1.531 -3.12,1.399 -3.8,-0.222Z" style="fill:#31dae7;fill-rule:nonzero;"/><path d="M786.994,202.164l-4.77,-11.283l-12,-2.466c-1.37,-0.281 -1.82,-2.007 -0.77,-2.921l9.26,-8.025l-1.36,-12.176c-0.16,-1.386 1.34,-2.35 2.54,-1.629l10.49,6.324l11.16,-5.059c1.27,-0.576 2.65,0.555 2.33,1.914l-2.77,11.934l8.26,9.049c0.94,1.03 0.29,2.692 -1.1,2.812l-12.2,1.051l-6.06,10.651c-0.69,1.214 -2.469,1.11 -3.01,-0.176Z" style="fill:#2b9cff;fill-rule:nonzero;"/><path d="M1567.27,277.693l-4.09,16.5l-27.28,-3.66l-8.97,23.387l-20.86,0.599l0.3,10.561l27.91,-0.8l8.49,-22.164l28.38,3.807l6.17,-24.829l-10.05,-3.401Z" style="fill:#f36b80;fill-rule:nonzero;"/><path d="M885.424,223.635l-4.1,16.501l-27.27,-3.661l-8.97,23.387l-20.86,0.598l0.301,10.561l27.899,-0.8l8.5,-22.163l28.38,3.807l6.16,-24.829l-10.04,-3.401Z" style="fill:#31dae7;fill-rule:nonzero;"/><path d="M1042.59,151.662l-15.39,7.232l-14.37,-23.474l-23.8,7.797l-13.63,-15.807l-8,6.897l18.22,21.143l22.56,-7.39l14.95,24.42l23.15,-10.881l-3.69,-9.937Z" style="fill:#f36b80;fill-rule:nonzero;"/><path d="M1532.32,132.466l-24.93,6.807l-5.37,-30.21l8.16,-1.45l3.78,21.277l16.18,-4.416l2.18,7.992Z" style="fill:#2b9cff;fill-rule:nonzero;"/></g></g></svg>