<?xml version="1.0" encoding="UTF-8" standalone="no"?><!DOCTYPE svg PUBLIC "-//W3C//DTD SVG 1.1//EN" "http://www.w3.org/Graphics/SVG/1.1/DTD/svg11.dtd"><svg width="100%" height="100%" viewBox="0 0 823 690" version="1.1" xmlns="http://www.w3.org/2000/svg" xmlns:xlink="http://www.w3.org/1999/xlink" xml:space="preserve" xmlns:serif="http://www.serif.com/" style="fill-rule:evenodd;clip-rule:evenodd;stroke-linejoin:round;stroke-miterlimit:1.41421;"><g><path d="M34.454,683.537c-66.842,-135.459 -28.693,-271.656 48.322,-348.953c78.289,-78.575 -10.093,-241.137 145.728,-307.287c80.61,-34.22 151.495,59.105 230.507,63.16c70.799,3.634 144.038,-78.668 215.92,-40.542c48.073,21.947 96.126,83.539 92.543,157.183c-1.853,38.055 -18.248,83.103 -1.271,112.012c71.653,122.011 64.266,228.734 36.187,362.715c0.005,-0.003 -767.936,1.712 -767.936,1.712Z" style="fill:#d1fff0;fill-opacity:0.498039;fill-rule:nonzero;"/><path d="M801.991,689.734l-765.337,0c-1.508,0 -2.73,-1.371 -2.73,-3.064c0,-1.692 1.222,-3.063 2.73,-3.063l765.337,0c1.509,0 2.73,1.371 2.73,3.063c0,1.693 -1.221,3.064 -2.73,3.064Z" style="fill:#8ee1c6;fill-rule:nonzero;"/><g><path d="M428.847,277.773c-19.462,-5.49 -61.022,12.099 -49.711,82.876c11.311,70.779 64.897,59.105 64.897,59.105c0,0 23.352,-7.343 25.449,-52.309c2.097,-44.966 -7.909,-80.437 -40.635,-89.672Z" style="fill-rule:nonzero;"/><path d="M419.068,372.39c0,0 -25.626,19.864 -63.846,18.634c-7.706,-14.775 8.002,-22.13 8.002,-22.13l30.574,-13.853c0,0 10.998,-3.613 20.075,3.531c7.909,6.225 5.195,13.818 5.195,13.818Z" style="fill:#ff3e41;fill-rule:nonzero;"/><path d="M392.091,333.189c0,0 -9.803,23.125 -15.462,36.893c-2.246,5.467 -10.757,21.262 -21.407,20.942c-9.452,-10.182 3.312,-38.795 32.022,-62.432c3.394,3.593 4.847,4.597 4.847,4.597Z" style="fill:#f8bd8c;fill-rule:nonzero;"/><path d="M390.712,343.16l-9.451,-4.644c-1.285,-0.629 -1.813,-2.179 -1.184,-3.461l9.932,-20.223c0.629,-1.281 3.078,-2.117 4.363,-1.484l8.55,4.948c1.285,0.629 1.812,2.18 1.183,3.461l-8.471,20.551c-0.399,0.973 -2.602,2.031 -4.922,0.852Z" style="fill:#8a284c;fill-rule:nonzero;"/><path d="M392.642,343.031l-9.452,-4.644c-1.285,-0.629 -1.812,-2.179 -1.183,-3.46l9.932,-20.224c0.629,-1.281 2.179,-1.812 3.464,-1.179l9.452,4.639c1.281,0.629 1.808,2.18 1.179,3.465l-9.932,20.219c-0.629,1.282 -2.179,1.813 -3.46,1.184Z" style="fill:#e62552;fill-rule:nonzero;"/><path d="M393.81,338.949l-8.015,-3.94c-1.054,-0.516 -1.492,-1.793 -0.972,-2.848l7.967,-16.22c0.516,-1.054 1.793,-1.488 2.847,-0.972l8.019,3.937c1.054,0.519 1.488,1.796 0.968,2.851l-7.963,16.22c-0.52,1.054 -1.793,1.488 -2.851,0.972Z" style="fill:#3b1120;fill-rule:nonzero;"/><path d="M390.115,339.071c-0.152,0.695 -0.836,1.136 -1.535,0.984c-0.695,-0.149 -1.137,-0.836 -0.988,-1.531c0.152,-0.699 0.84,-1.141 1.535,-0.988c0.699,0.148 1.14,0.835 0.988,1.535Z" style="fill:#8a284c;fill-rule:nonzero;"/><path d="M381.968,329.209c0.183,-0.11 0.382,-0.176 0.585,-0.223c-0.019,-0.031 -0.039,-0.058 -0.058,-0.09c-1.102,-1.859 -0.914,-4.011 0.422,-4.8c0.218,-0.129 0.457,-0.211 0.703,-0.254c-0.27,-1.351 0.097,-2.609 1.05,-3.171c0.379,-0.223 0.809,-0.313 1.254,-0.285c-0.355,-1.328 0.051,-2.687 1.117,-3.32c1.336,-0.789 3.179,-0.145 4.121,1.445c0.941,1.586 0.624,3.515 -0.711,4.308c-0.34,0.199 -0.711,0.305 -1.09,0.328c0.773,1.723 0.508,3.546 -0.699,4.261c-0.219,0.129 -0.457,0.211 -0.703,0.254c0.269,1.351 -0.098,2.609 -1.051,3.171c-0.351,0.207 -0.746,0.301 -1.16,0.289c0.371,1.168 0.035,2.387 -0.902,2.945c-1.129,0.664 -2.687,0.121 -3.48,-1.222c-0.797,-1.34 -0.527,-2.968 0.602,-3.636Z" style="fill:#f8bd8c;fill-rule:nonzero;"/><path d="M411.944,342.058l14.505,-2.171l-1.156,13.463c0,0 -7.342,13.236 -14.314,10.959c-6.968,-2.281 -3.57,-8.132 -3.57,-8.132l4.535,-14.119Z" style="fill:#f8bd8c;fill-rule:nonzero;"/><path d="M438.053,320.214c-2.355,15.908 -14.396,27.301 -26.887,25.449c-12.494,-1.851 -20.711,-16.243 -18.356,-32.151c2.359,-15.908 14.396,-27.302 26.89,-25.451c12.495,1.852 20.712,16.248 18.353,32.153Z" style="fill:#f8bd8c;fill-rule:nonzero;"/><path d="M443.138,318.757c-14.775,-0.668 -34.21,-14.305 -36.557,-21.793c2.015,-9.421 9.444,-14.745 18.318,-11.245c8.87,3.501 23.406,20.952 18.239,33.038Z" style="fill-rule:nonzero;"/><path d="M409.956,300.75c0,0 -8.796,8.937 -17.697,10.98c3.113,-10.425 5.339,-18.328 10.682,-20.888c5.343,-2.56 11.245,-3.005 11.245,-3.005l-4.23,12.913Z" style="fill-rule:nonzero;"/><path d="M434.6,317.746c-2.769,2.573 -3.308,6.499 -1.199,8.764c2.106,2.265 6.062,2.015 8.831,-0.559c2.769,-2.573 3.304,-6.499 1.195,-8.764c-2.105,-2.269 -6.057,-2.019 -8.827,0.559Z" style="fill:#f8bd8c;fill-rule:nonzero;"/><path d="M398.368,646.915c0.968,-9.686 -4.027,-83.409 -4.027,-83.409c-14.139,-64.811 -8.585,-111.206 -8.585,-111.206l24.293,1.707l9.577,36.623l-4.542,61.163c0,0 1.707,4.71 2.605,8.475c4.878,20.419 0.019,44.818 -2.984,61.081c-1.394,7.538 -3.558,23.375 -3.613,26.976l6.101,7.89c0,0 -22.087,24.445 -25.485,24.598c-6.608,0.3 -4.659,-6.242 -4.659,-6.242c9.077,-9.322 11.037,-24.883 11.319,-27.656Z" style="fill:#f8bd8c;fill-rule:nonzero;"/><path d="M417.572,664.878l-1.215,15.704l-2.824,0.129l-1.429,-14.587c-7.515,1.917 -12.897,15.556 -12.897,15.556c-5.175,1.855 -18.333,3.128 -23.016,0.715c-1.129,-4.586 10.877,-7.804 10.877,-7.804c1.086,1.285 7.492,2.269 9.769,0.891c8.381,-7.136 12.466,-17.51 14.251,-27.157c0,0 13.244,0.922 6.484,16.553Z" style="fill:#e62552;fill-rule:nonzero;"/><path d="M406.581,457.014l34.226,-4.714c13.091,29.62 17.36,81.195 20.914,99.567c14.264,23.918 18.794,96.458 18.794,96.458l6.105,7.89c0,0 -22.09,24.445 -25.488,24.598c-6.605,0.3 -4.66,-6.242 -4.66,-6.242c9.081,-9.322 10.85,-21.711 11.44,-24.433c0.883,-4.097 -27.703,-84.57 -27.703,-84.57l-3.05,-7.635c-34.917,-57.668 -40.647,-101.263 -40.647,-101.263l10.069,0.344Z" style="fill:#f8bd8c;fill-rule:nonzero;"/><path d="M486.999,664.878l-1.215,15.704l-2.824,0.129l-1.429,-14.587c-7.515,1.917 -12.897,15.556 -12.897,15.556c-5.175,1.855 -18.333,3.128 -23.016,0.715c-1.128,-4.586 10.878,-7.804 10.878,-7.804c1.081,1.285 7.491,2.269 9.768,0.891c8.381,-7.136 12.467,-17.51 14.251,-27.157c0,0 13.245,0.922 6.484,16.553Z" style="fill:#e62552;fill-rule:nonzero;"/><path d="M470.212,548.5c-3.417,-11.435 -1.933,-93.29 -32.104,-115.549l-51.926,5.472c-11.998,19.423 -7.597,69.962 -3.554,111.554c24.41,8.713 43.821,12.209 87.584,-1.477Z" style="fill:#070635;fill-rule:nonzero;"/><path d="M385.549,425.612c0,-11.369 -9.854,-28.406 -5.132,-39.884c3.441,-9.237 10.202,-30.066 17.568,-31.472c2.988,-0.574 6.268,0.004 10.408,-1.141c0,0 -2.159,9.643 2.703,10.03c9.366,0.754 14.287,-11.252 14.287,-11.252c5.05,-0.484 22.657,4.773 22.645,6.675c-0.055,14.892 -6.604,38.982 -10.561,55.085c-0.734,8.198 -0.156,14.561 0.668,19.2c1.496,4.836 3.328,7.605 3.339,8.652c0,0 -34.709,11.795 -56.792,-0.364c0,0 0.867,-7.85 0.867,-15.529Z" style="fill:#ff3e41;fill-rule:nonzero;"/><path d="M447.302,436.419l-2.957,1.184c0,0 -3.085,-4.906 -6.21,-4.75l1.558,4.683c0,0 -1.769,5.476 -11.244,4.851c-8.089,1.84 -2.429,5.679 -4.671,7.218c-3.304,2.265 5.968,7.835 13.775,5.433c10.108,-3.109 16.673,-12.651 16.673,-12.651l-6.924,-5.968Z" style="fill:#f8bd8c;fill-rule:nonzero;"/><path d="M447.302,357.677c0,0 24.73,14.486 36.705,49.208c-10.756,11.924 -19.817,3.027 -19.817,3.027l-23.958,-23.677c0,0 -7.045,-8.651 -3.675,-19.219c2.933,-9.202 10.745,-9.339 10.745,-9.339Z" style="fill:#f37a50;fill-rule:nonzero;"/><path d="M447.302,436.419l17.29,-25.32c0,0 4.085,-9.714 19.415,-4.214c0.742,8.245 -5.226,19.985 -32.573,38.072c-1.765,-4.616 -4.132,-8.538 -4.132,-8.538Z" style="fill:#f8bd8c;fill-rule:nonzero;"/><path d="M411.096,363.145c-0.832,3.898 1.43,8.569 7.956,6.378c7.815,-2.625 11.467,-17.294 11.467,-17.294l-4.902,-2.656c0,0 -3.718,10.135 -14.521,13.572Z" style="fill:#fff;fill-rule:nonzero;"/><path d="M411.096,363.145c-0.965,2.008 -6.46,7.155 -9.065,4.089c-2.609,-3.066 0.434,-11.107 0.434,-11.107l5.928,-3.012c0,0 -2.323,7.245 2.703,10.03Z" style="fill:#fff;fill-rule:nonzero;"/><path d="M447.302,357.677c0,0 24.73,14.486 36.705,49.208c-10.756,11.924 -20.751,2.105 -20.751,2.105l-23.024,-22.755c0,0 -7.045,-8.651 -3.675,-19.219c2.933,-9.202 10.745,-9.339 10.745,-9.339Z" style="fill:#ff3e41;fill-rule:nonzero;"/></g><g><path d="M116.142,654.777c-6.441,27.051 -29.466,12.174 -24.651,29.27c0.355,1.261 1.553,2.101 2.861,2.152l13.52,0.519c1.305,0.047 2.591,-0.324 3.668,-1.062c7.133,-4.882 11.972,-11.76 27.377,-12.596c-0.118,-6.577 0.181,-15.97 -1.991,-19.325l-20.784,1.042Z" style="fill:#3a3a3a;fill-rule:nonzero;"/><path d="M151.771,464.966c0,0 -39.32,59.967 -44.748,78.625c-5.428,18.653 5.927,50.262 3.873,113.96c12.289,3.19 28.675,0.449 28.675,0.449c0,0 9.862,-79.903 -1.738,-98.767c17.381,-26.523 61.039,-84.425 61.039,-84.425l-47.101,-9.842Z" style="fill:#201d40;fill-rule:nonzero;"/><path d="M173.577,663.499c-10.005,13.619 -34.978,5.565 -33.976,23.844c37.851,-0.605 53.585,-0.523 53.585,-0.523c-0.09,-4.199 -0.936,-14.162 -1.847,-18.056l-17.762,-5.265Z" style="fill:#3a3a3a;fill-rule:nonzero;"/><path d="M161.849,452.843c0,0 -12.538,97.841 -9.644,117.049c2.894,19.212 11.861,34.248 12.176,97.981c12.399,2.73 31.348,5.187 31.348,5.187c0,0 7.99,-76.871 -8.444,-98.036c4.657,-31.367 26.854,-110.261 26.854,-110.261l-52.29,-11.92Z" style="fill:#3a3a3a;fill-rule:nonzero;"/><path d="M97.616,409.771l-15.286,-17.142c-0.333,-0.367 -0.805,-0.582 -1.302,-0.594l-12.586,-0.074c-0.359,-0.004 -1.468,1.984 -1.228,2.25l10.782,9.584c0.05,0.055 0.114,0.094 0.185,0.113l18.49,6.863c0.397,0.121 1.222,-0.692 0.945,-1Z" style="fill:#c4204a;fill-rule:nonzero;"/><path d="M96.448,410.919l-14.562,-16.158c-0.333,-0.371 -0.805,-0.585 -1.302,-0.593l-12.975,-0.235c-0.359,-0.007 -0.552,0.418 -0.311,0.684l10.254,11.307c0.05,0.054 0.113,0.094 0.185,0.117l18.289,5.546c0.396,0.117 0.7,-0.359 0.422,-0.668Z" style="fill:#e62552;fill-rule:nonzero;"/><path d="M125.22,425.659l-10.531,-5.163c0,0 -10.388,-10.514 -11.93,-12.862c-2.311,-1.171 -6.683,-4.112 -7.666,-4.225c-0.983,-0.114 -2.997,0.191 -2.997,0.191l4.876,5.546c0,0 -2.316,0.461 -5.27,-1.418c-2.955,-1.874 -8.175,-6.909 -10.731,-5.932l-0.906,0.8c0,0 -1.614,-1.722 -3.136,-1.082c-1.522,0.641 1.504,8.23 10.092,16.275c0.57,2.144 3.399,5.91 3.399,5.91l17.364,6.1l17.436,-4.14Z" style="fill:#f8bd8c;fill-rule:nonzero;"/><path d="M79.514,397.199c0.617,0.617 1.504,0.73 1.981,0.253c0.477,-0.476 0.363,-1.363 -0.254,-1.98c-0.617,-0.617 -1.503,-0.73 -1.98,-0.254c-0.477,0.477 -0.364,1.363 0.253,1.981Z" style="fill:#c4204a;fill-rule:nonzero;"/><path d="M174.261,348.218c-3.125,4.05 21.351,8.451 24.633,0.035c3.28,-8.417 -2.354,-31.566 -2.354,-31.566l-22.316,4.738c0,0 4.104,21.52 0.037,26.793Z" style="fill:#f8bd8c;fill-rule:nonzero;"/><path d="M201.42,297.789c1.88,17.904 -7.998,33.615 -22.059,35.091c-14.062,1.476 -26.985,-11.842 -28.864,-29.747c-1.879,-17.905 7.997,-33.616 22.06,-35.091c14.062,-1.476 26.984,11.843 28.863,29.747Z" style="fill:#f8bd8c;fill-rule:nonzero;"/><path d="M196.193,309.161c-9.265,-7.755 -6.706,-19.604 -6.706,-19.604c-4.493,0.293 -5.751,2.214 -5.751,2.214c-3.612,-4.148 -2.733,-8.054 -2.733,-8.054c-9.736,-1.061 -12.586,5.826 -20.018,9.89c-10.177,5.565 -24.792,4.844 -29.631,-8.106c-0.7,-1.874 1.08,-3.689 2.975,-3.047c1.759,0.595 3.954,0.869 6.397,0.136c0,0 -2.974,-1.958 -4.049,-5.485c-0.593,-1.946 1.422,-3.625 3.27,-2.775c2.77,1.274 7.449,1.922 14.557,-1.496c4.731,-2.276 13.986,-13.328 21.511,-13.684c6.151,-0.29 12.091,3.412 15.981,9.952c0,0 14.675,-2.366 20.339,12.961c5.564,15.057 -15.294,38.319 -15.294,38.319c0,0 1.6,-8.837 -0.848,-11.221Z" style="fill:#201d40;fill-rule:nonzero;"/><path d="M189.597,298.614c-3.014,2.973 -3.484,7.383 -1.051,9.849c2.433,2.466 6.848,2.055 9.862,-0.918c3.013,-2.973 3.484,-7.383 1.051,-9.849c-2.433,-2.466 -6.849,-2.055 -9.862,0.918Z" style="fill:#f8bd8c;fill-rule:nonzero;"/><path d="M147.059,472.148c17.457,3.562 48.843,9.714 65.442,3.242c6.282,-9.022 7.873,-60.018 7.873,-60.018c1.817,-52.493 -4.478,-60.28 -18.675,-77.868c-5.957,2.734 -20.868,5.07 -27.423,5.121c0,0 -14.855,20.622 -17.753,35.6c-2.939,15.185 -3.272,42.181 -3.544,57.647c-0.304,17.174 -3.696,25.458 -5.92,36.276Z" style="fill:#2674e5;fill-rule:nonzero;"/><path d="M203.768,353.436c10.211,19.879 7.899,41.892 -21.792,85.229c-20.792,-1.816 -24.869,-19.146 -24.869,-19.146c0,0 5.712,-21.516 13.133,-48.582c7.421,-27.063 29.059,-26.199 33.528,-17.501Z" style="fill:#2674e5;fill-rule:nonzero;"/><path d="M112.995,415.372l44.519,3.554c0,0 19.093,-3.484 24.462,19.739c-9.556,7.44 -34.222,10.229 -74.682,-4.792c4.282,-5.827 5.701,-18.501 5.701,-18.501Z" style="fill:#2674e5;fill-rule:nonzero;"/><path d="M174.409,341.152l-0.422,11.975l30.12,-12.631l-3.647,-9.686l-26.051,10.342Z" style="fill:#fff;fill-rule:nonzero;"/><path d="M76.147,363.395c0,9.553 -7.745,17.298 -17.299,17.298c-9.554,0 -17.299,-7.745 -17.299,-17.298c0,-9.553 7.745,-17.298 17.299,-17.298c9.554,0 17.299,7.745 17.299,17.298Z" style="fill:#75e8c3;fill-rule:nonzero;"/><path d="M57.452,374.304l-0.012,0c-0.842,-0.004 -1.627,-0.422 -2.096,-1.121l-7.116,-10.608c-0.781,-1.164 -0.47,-2.742 0.694,-3.523c1.165,-0.781 2.741,-0.469 3.523,0.695l5.029,7.495l8.516,-12.428c0.793,-1.156 2.373,-1.453 3.529,-0.66c1.157,0.793 1.452,2.375 0.66,3.531l-10.632,15.517c-0.474,0.691 -1.258,1.102 -2.095,1.102Z" style="fill:#fff;fill-rule:nonzero;"/><path d="M77.705,383.279c0,2.738 -2.219,4.96 -4.957,4.96c-2.738,0 -4.957,-2.222 -4.957,-4.96c0,-2.738 2.219,-4.957 4.957,-4.957c2.738,0 4.957,2.219 4.957,4.957Z" style="fill:#7f99eb;fill-rule:nonzero;"/></g><g><path d="M660.001,325.784l0.012,0l10.944,0.039l2.476,25.84l-12.772,6.745l-13.619,-6.667l2.203,-25.918l10.756,-0.039Z" style="fill:#f8bd8c;fill-rule:nonzero;"/><path d="M637.032,308.437c2.636,17.929 16.189,30.786 30.273,28.716c14.084,-2.073 23.36,-18.286 20.723,-36.216c-2.636,-17.931 -16.193,-30.787 -30.273,-28.715c-14.083,2.071 -23.359,18.286 -20.723,36.215Z" style="fill:#f8bd8c;fill-rule:nonzero;"/><path d="M631.009,294.077c-1.769,-17.094 13.889,-22.934 13.889,-22.934c0,0 -3.543,-1.19 -2.757,-6.377c2.507,1.494 5.557,2.158 8.459,1.83c19.54,-2.212 31.902,0.834 30.062,8.53c-0.652,2.739 12.006,3.74 6.609,21.928c-0.489,-1.276 -2.387,-9.913 -6.218,-11.627c-3.843,-1.721 -1.488,4.511 -10.147,3.658c-8.733,-0.86 -14.463,-4.399 -20.767,-0.865c-5.038,3.193 -12.529,26.75 -11.334,27.578c-3.71,-2.571 -7.018,-14.208 -7.796,-21.721Z" style="fill:#201d40;fill-rule:nonzero;"/><path d="M642.816,305.089c3.129,2.894 3.746,7.315 1.379,9.876c-2.371,2.559 -6.823,2.289 -9.956,-0.604c-3.128,-2.894 -3.741,-7.315 -1.374,-9.875c2.366,-2.561 6.823,-2.291 9.951,0.603Z" style="fill:#f8bd8c;fill-rule:nonzero;"/><path d="M679.967,663.843c9.674,13.346 33.429,5.156 32.644,23.208c-36.128,-0.231 -51.141,0 -51.141,0c0.047,-4.148 0.761,-13.987 1.593,-17.841l16.904,-5.367Z" style="fill-rule:nonzero;"/><path d="M625.916,664.191c9.675,13.345 33.429,5.159 32.644,23.211c-36.127,-0.234 -51.141,0 -51.141,0c0.047,-4.148 0.762,-13.99 1.594,-17.841l16.903,-5.37Z" style="fill-rule:nonzero;"/><path d="M696.687,460.08c0,0 5.866,85.542 3.484,104.563c-2.382,19.017 -10.819,43.4 -9.862,106.305c-11.779,2.948 -28.839,0 -28.839,0c0,0 -2.531,-71.13 9.92,-102.899c-5.062,-30.863 -21.305,-101.544 -21.305,-101.544l46.602,-6.425Z" style="fill:#303030;fill-rule:nonzero;"/><path d="M674.397,462.416c0,0 -11.842,96.041 -17.638,114.257c-5.799,18.212 -10.846,31.557 -21.34,93.529c-12.104,0.605 -29.582,0.23 -29.582,0.23c0,0 1.582,-76.782 20.431,-94.654c0.636,-31.296 -3.047,-112.745 -3.047,-112.745l51.176,-0.617Z" style="fill:#303030;fill-rule:nonzero;"/><path d="M619.8,353.421c0,0 20.571,-7.199 27.43,-3.898c21.313,10.264 26.203,0 26.203,0c6.811,0.589 27.371,3.898 27.371,3.898c0,22.961 1.531,46.001 1.113,63.377c-0.293,15.13 2.589,56.304 2.589,56.304c0,0 -22.676,5.948 -44.13,6.101c-21.454,-0.137 -43.29,-5.859 -43.29,-5.859c0,0 1.148,-41.705 2.101,-57.206c-0.313,-17.373 0.613,-39.819 0.613,-62.717Z" style="fill:#4cd3a7;fill-rule:nonzero;"/><path d="M737.369,387.548c-8.491,-20.258 -33.687,-33.143 -36.565,-34.127l-5.843,26.007c12.1,7.159 20.887,14.901 20.887,14.901c-1.488,7.241 -1.242,14.345 -5.432,23.5c0,0 3.64,-5.023 8.131,-2.051c4.367,2.891 12.397,-3.007 12.397,-3.007c0,0 12.908,-9.752 6.425,-25.223Z" style="fill:#4cd3a7;fill-rule:nonzero;"/><path d="M732.635,438.74c0.148,0.043 0.297,0.074 0.441,0.09l0.485,0c0.882,-0.094 1.671,-0.699 1.952,-1.605l22.634,-72.974c0.047,-0.145 0.074,-0.293 0.09,-0.441c0.011,-0.098 0.007,-0.192 0.003,-0.289c0,-0.055 0.008,-0.118 0,-0.172c-0.003,-0.051 -0.019,-0.102 -0.027,-0.153c-0.137,-0.828 -0.719,-1.554 -1.574,-1.82c-0.14,-0.043 -0.281,-0.078 -0.433,-0.093c-0.164,-0.02 -0.328,-0.016 -0.489,0l-56.979,0l-22.833,77.547l56.769,0l-0.039,-0.09Z" style="fill:#768fdb;fill-rule:nonzero;"/><path d="M699.257,361.372c-1.215,-0.374 -2.503,0.305 -2.878,1.516l-22.493,72.794l-0.051,0.168c-0.375,1.21 0.301,2.488 1.504,2.87l0,0.004c1.214,0.375 2.503,-0.3 2.878,-1.511l22.552,-72.962c0.374,-1.211 -0.301,-2.5 -1.512,-2.879Z" style="fill:#4364cc;fill-rule:nonzero;"/><path d="M742.301,407.67c0.215,-0.14 0.446,-0.23 0.684,-0.297c-0.024,-0.035 -0.051,-0.066 -0.074,-0.105c-1.418,-2.136 -1.324,-4.695 0.211,-5.71c0.25,-0.168 0.527,-0.277 0.816,-0.344c-0.398,-1.582 -0.039,-3.093 1.054,-3.82c0.438,-0.289 0.942,-0.417 1.473,-0.41c-0.5,-1.554 -0.106,-3.191 1.125,-3.999c1.531,-1.019 3.757,-0.363 4.968,1.465c1.21,1.824 0.945,4.128 -0.59,5.143c-0.387,0.258 -0.82,0.407 -1.269,0.457c1.023,1.988 0.816,4.168 -0.571,5.089c-0.253,0.164 -0.531,0.274 -0.82,0.34c0.399,1.586 0.043,3.097 -1.054,3.82c-0.403,0.269 -0.867,0.398 -1.356,0.414c0.504,1.359 0.184,2.828 -0.894,3.539c-1.297,0.859 -3.175,0.304 -4.199,-1.235c-1.019,-1.542 -0.796,-3.487 0.496,-4.347Z" style="fill:#f8bd8c;fill-rule:nonzero;"/><path d="M672.253,403.058l5.195,-3.008c0,0 1.437,-7.37 9.776,-7.545c-0.953,3.089 -2.328,7.545 -2.328,7.545c0,0 4.105,3.187 13.842,-2.269c9.518,-2.136 5.452,4.8 8.608,5.3c4.651,0.734 -3.394,9.881 -12.901,11.284c-12.295,1.808 -13.756,-0.707 -13.756,-0.707l-6.959,2.433l-1.477,-13.033Z" style="fill:#f8bd8c;fill-rule:nonzero;"/><path d="M619.132,411.627c17.361,-1.211 52.032,-10.483 52.032,-10.483c4.741,7.268 3.429,16.923 3.429,16.923c-26.961,23.637 -67.537,31.277 -79.984,25.59c-11.37,-5.194 -3.293,-74.403 25.242,-90.252l-0.719,58.222Z" style="fill:#4cd3a7;fill-rule:nonzero;"/><path d="M710.869,372.453c-0.985,2.464 -3.516,3.773 -5.648,2.917c-2.136,-0.851 -3.07,-3.538 -2.086,-6.003c0.985,-2.464 3.512,-3.769 5.648,-2.917c2.132,0.851 3.07,3.542 2.086,6.003Z" style="fill:#4364cc;fill-rule:nonzero;"/><path d="M718.141,371.617c-0.586,1.473 -2.093,2.25 -3.371,1.742c-1.273,-0.508 -1.827,-2.113 -1.242,-3.582c0.586,-1.472 2.094,-2.249 3.371,-1.741c1.273,0.507 1.828,2.113 1.242,3.581Z" style="fill:#4364cc;fill-rule:nonzero;"/></g><g><path d="M458.673,181.029l-59.616,0c-7.034,0 -12.736,5.702 -12.736,12.736l0,23.977c0,7.034 5.702,12.737 12.736,12.737l41.119,0l-1.443,26.771c-0.112,2.054 2.696,2.746 3.553,0.877l12.673,-27.648l3.714,0c7.034,0 12.736,-5.703 12.736,-12.737l0,-23.977c0,-7.034 -5.702,-12.736 -12.736,-12.736Z" style="fill:#82f1cd;fill-rule:nonzero;"/><path d="M460.398,196.9l-61.974,0c-2.406,0 -4.354,-1.95 -4.354,-4.355c0,-2.406 1.948,-4.356 4.354,-4.356l61.974,0c2.408,0 4.357,1.95 4.357,4.356c0,2.405 -1.949,4.355 -4.357,4.355Z" style="fill:#e2fff6;fill-rule:nonzero;"/><path d="M460.398,209.808l-61.974,0c-2.406,0 -4.354,-1.95 -4.354,-4.355c0,-2.406 1.948,-4.356 4.354,-4.356l61.974,0c2.408,0 4.357,1.95 4.357,4.356c0,2.405 -1.949,4.355 -4.357,4.355Z" style="fill:#e2fff6;fill-rule:nonzero;"/><path d="M440.535,222.716l-42.798,0c-2.026,0 -3.667,-1.642 -3.667,-3.668l0,-1.375c0,-2.025 1.641,-3.667 3.667,-3.667l42.798,0c2.026,0 3.667,1.642 3.667,3.667l0,1.375c0,2.026 -1.641,3.668 -3.667,3.668Z" style="fill:#e2fff6;fill-rule:nonzero;"/></g><g><path d="M290.575,157.035c-0.496,0 -0.919,-0.377 -0.967,-0.88c-0.051,-0.535 0.341,-1.01 0.876,-1.061c1.386,-0.132 2.812,-0.212 4.236,-0.237c0.541,-0.007 0.98,0.418 0.989,0.955c0.01,0.538 -0.418,0.98 -0.954,0.99c-1.374,0.024 -2.75,0.101 -4.086,0.229c-0.032,0.003 -0.063,0.004 -0.094,0.004Zm12.482,0.218c-0.039,0 -0.079,-0.002 -0.121,-0.007c-1.363,-0.169 -2.737,-0.292 -4.085,-0.366c-0.536,-0.03 -0.948,-0.489 -0.918,-1.025c0.03,-0.536 0.486,-0.948 1.025,-0.918c1.392,0.077 2.811,0.204 4.218,0.379c0.532,0.066 0.912,0.551 0.845,1.085c-0.061,0.492 -0.481,0.852 -0.964,0.852Zm-20.676,1.262c-0.428,0 -0.82,-0.284 -0.938,-0.717c-0.141,-0.518 0.164,-1.052 0.682,-1.194c1.348,-0.367 2.744,-0.682 4.15,-0.934c0.528,-0.096 1.034,0.257 1.13,0.785c0.094,0.529 -0.257,1.035 -0.787,1.129c-1.349,0.243 -2.688,0.544 -3.98,0.897c-0.087,0.023 -0.173,0.034 -0.257,0.034Zm28.861,0.298c-0.081,0 -0.163,-0.01 -0.243,-0.03c-1.328,-0.342 -2.678,-0.644 -4.009,-0.898c-0.526,-0.101 -0.874,-0.61 -0.772,-1.138c0.101,-0.527 0.61,-0.873 1.138,-0.773c1.37,0.262 2.759,0.573 4.126,0.925c0.521,0.133 0.834,0.663 0.701,1.184c-0.113,0.439 -0.507,0.73 -0.941,0.73Zm7.928,2.561c-0.117,0 -0.236,-0.022 -0.353,-0.067c-1.274,-0.498 -2.576,-0.962 -3.872,-1.381c-0.51,-0.165 -0.791,-0.713 -0.625,-1.224c0.164,-0.511 0.712,-0.792 1.224,-0.627c1.332,0.431 2.672,0.908 3.98,1.42c0.501,0.195 0.748,0.759 0.553,1.259c-0.15,0.385 -0.518,0.62 -0.907,0.62Zm-44.583,0.066c-0.369,0 -0.722,-0.212 -0.886,-0.57c-0.223,-0.488 -0.007,-1.065 0.482,-1.288c0.437,-0.2 0.874,-0.399 1.307,-0.595c0.841,-0.382 1.711,-0.742 2.583,-1.072c0.503,-0.189 1.065,0.064 1.254,0.567c0.19,0.503 -0.064,1.064 -0.567,1.253c-0.834,0.315 -1.664,0.659 -2.465,1.023c-0.434,0.197 -0.869,0.394 -1.305,0.594c-0.132,0.059 -0.268,0.088 -0.403,0.088Zm-69.676,1.673c-0.488,0 -0.909,-0.367 -0.965,-0.864c-0.06,-0.534 0.324,-1.015 0.858,-1.075c1.378,-0.155 2.865,-0.161 4.362,-0.018c0.535,0.051 0.927,0.526 0.875,1.061c-0.051,0.534 -0.528,0.925 -1.06,0.875c-1.364,-0.131 -2.716,-0.125 -3.96,0.015c-0.037,0.004 -0.074,0.006 -0.11,0.006Zm121.827,1.746c-0.154,0 -0.311,-0.037 -0.457,-0.115c-1.202,-0.643 -2.441,-1.258 -3.68,-1.829c-0.489,-0.225 -0.702,-0.803 -0.477,-1.291c0.224,-0.488 0.802,-0.701 1.29,-0.476c1.275,0.587 2.548,1.219 3.784,1.88c0.474,0.253 0.653,0.842 0.399,1.316c-0.175,0.328 -0.511,0.515 -0.859,0.515Zm-59.732,0.059c-0.369,0 -0.721,-0.211 -0.885,-0.567c-0.223,-0.489 -0.009,-1.066 0.478,-1.29c0.873,-0.4 1.74,-0.799 2.601,-1.195l1.188,-0.546c0.488,-0.224 1.066,-0.01 1.291,0.478c0.224,0.488 0.01,1.065 -0.478,1.29l-1.188,0.545c-0.861,0.397 -1.73,0.796 -2.602,1.196c-0.131,0.06 -0.27,0.089 -0.405,0.089Zm-50.088,0.685c-0.207,0 -0.414,-0.065 -0.591,-0.2c-0.674,-0.516 -1.392,-0.909 -2.132,-1.167c-0.425,-0.147 -0.86,-0.284 -1.295,-0.407c-0.517,-0.146 -0.818,-0.683 -0.672,-1.2c0.146,-0.517 0.683,-0.818 1.2,-0.672c0.472,0.133 0.945,0.282 1.407,0.442c0.935,0.326 1.835,0.817 2.674,1.459c0.427,0.326 0.508,0.937 0.182,1.363c-0.192,0.251 -0.481,0.382 -0.773,0.382Zm-19.019,1.317c-0.127,0 -0.256,-0.025 -0.381,-0.078c-0.494,-0.211 -0.724,-0.782 -0.513,-1.276c0.574,-1.347 1.779,-2.474 3.484,-3.26c0.488,-0.225 1.065,-0.012 1.29,0.476c0.225,0.488 0.012,1.066 -0.476,1.29c-1.259,0.581 -2.127,1.361 -2.509,2.257c-0.157,0.369 -0.517,0.591 -0.895,0.591Zm61.511,1.443c-0.372,0 -0.726,-0.215 -0.889,-0.577c-0.218,-0.49 0.003,-1.065 0.493,-1.284c1.187,-0.53 2.429,-1.089 3.796,-1.71c0.489,-0.222 1.066,-0.006 1.288,0.483c0.223,0.49 0.006,1.066 -0.483,1.288c-1.372,0.623 -2.618,1.184 -3.809,1.715c-0.129,0.058 -0.264,0.085 -0.396,0.085Zm74.429,0.856c-0.192,0 -0.388,-0.057 -0.558,-0.176c-1.113,-0.78 -2.267,-1.539 -3.434,-2.255c-0.457,-0.281 -0.601,-0.88 -0.32,-1.338c0.281,-0.457 0.88,-0.601 1.338,-0.32c1.199,0.737 2.389,1.518 3.533,2.32c0.441,0.309 0.546,0.915 0.238,1.355c-0.189,0.27 -0.49,0.414 -0.797,0.414Zm-82.08,2.461c-0.381,0 -0.742,-0.224 -0.898,-0.597c-0.208,-0.496 0.026,-1.066 0.521,-1.273c1.217,-0.509 2.502,-1.058 3.824,-1.631c0.493,-0.214 1.066,0.012 1.279,0.504c0.214,0.493 -0.012,1.066 -0.504,1.28c-1.33,0.577 -2.623,1.129 -3.847,1.641c-0.124,0.052 -0.25,0.076 -0.375,0.076Zm-30.246,0.745c-0.398,0 -0.773,-0.247 -0.915,-0.644c-0.47,-1.31 -1.049,-2.501 -1.722,-3.541c-0.291,-0.451 -0.162,-1.053 0.289,-1.345c0.451,-0.291 1.053,-0.162 1.345,0.289c0.753,1.164 1.399,2.49 1.919,3.94c0.181,0.506 -0.082,1.063 -0.587,1.244c-0.109,0.039 -0.219,0.057 -0.329,0.057Zm-20.752,1.802c-0.246,0 -0.492,-0.093 -0.682,-0.279c-1.225,-1.204 -2.138,-2.399 -2.713,-3.551c-0.24,-0.48 -0.045,-1.065 0.436,-1.305c0.48,-0.24 1.064,-0.044 1.304,0.436c0.479,0.959 1.265,1.98 2.337,3.033c0.383,0.376 0.388,0.992 0.012,1.375c-0.191,0.194 -0.442,0.291 -0.694,0.291Zm139.584,0.197c-0.233,0 -0.468,-0.084 -0.654,-0.254c-1.001,-0.912 -2.051,-1.809 -3.122,-2.665c-0.42,-0.335 -0.488,-0.947 -0.153,-1.367c0.336,-0.42 0.948,-0.488 1.367,-0.152c1.105,0.882 2.187,1.806 3.218,2.746c0.397,0.362 0.425,0.977 0.064,1.374c-0.192,0.211 -0.456,0.318 -0.72,0.318Zm-96.335,0.341c-0.394,0 -0.765,-0.241 -0.911,-0.631c-0.188,-0.503 0.066,-1.064 0.569,-1.253c1.243,-0.465 2.545,-0.97 3.869,-1.498c0.499,-0.2 1.066,0.044 1.265,0.543c0.199,0.499 -0.045,1.064 -0.543,1.263c-1.338,0.534 -2.653,1.043 -3.908,1.514c-0.112,0.042 -0.228,0.062 -0.341,0.062Zm-7.885,2.714c-0.415,0 -0.799,-0.267 -0.929,-0.685c-0.159,-0.513 0.129,-1.058 0.642,-1.217c1.263,-0.391 2.586,-0.825 3.932,-1.29c0.507,-0.175 1.061,0.094 1.236,0.602c0.176,0.508 -0.093,1.062 -0.601,1.237c-1.366,0.472 -2.709,0.912 -3.992,1.31c-0.096,0.029 -0.193,0.043 -0.288,0.043Zm-28.568,1.501c-0.13,0 -0.262,-0.026 -0.389,-0.082c-1.125,-0.492 -2.192,-1.086 -3.17,-1.766c-0.207,-0.143 -0.408,-0.286 -0.605,-0.428c-0.435,-0.315 -0.533,-0.923 -0.218,-1.358c0.315,-0.436 0.923,-0.533 1.358,-0.219c0.187,0.135 0.378,0.271 0.575,0.408c0.875,0.608 1.83,1.14 2.839,1.581c0.492,0.215 0.717,0.788 0.502,1.28c-0.16,0.366 -0.517,0.584 -0.892,0.584Zm20.508,0.628c-0.45,0 -0.854,-0.314 -0.951,-0.771c-0.111,-0.526 0.224,-1.042 0.75,-1.153c1.282,-0.272 2.63,-0.596 4.006,-0.961c0.518,-0.138 1.051,0.17 1.189,0.689c0.138,0.52 -0.17,1.052 -0.69,1.19c-1.407,0.375 -2.787,0.706 -4.102,0.985c-0.068,0.014 -0.135,0.021 -0.202,0.021Zm118.041,0.833c-0.279,0 -0.556,-0.119 -0.748,-0.35c-0.862,-1.039 -1.782,-2.067 -2.73,-3.058c-0.372,-0.387 -0.358,-1.003 0.029,-1.375c0.388,-0.371 1.003,-0.358 1.376,0.03c0.979,1.023 1.928,2.086 2.82,3.159c0.344,0.413 0.288,1.027 -0.126,1.37c-0.181,0.151 -0.402,0.224 -0.621,0.224Zm-126.289,0.329c-0.512,0 -0.941,-0.399 -0.97,-0.917c-0.031,-0.536 0.378,-0.996 0.915,-1.026c0.696,-0.041 1.414,-0.1 2.149,-0.178c-0.045,-1.011 -0.151,-2.018 -0.316,-3.004c-0.089,-0.53 0.269,-1.032 0.798,-1.12c0.53,-0.089 1.031,0.269 1.12,0.798c0.17,1.013 0.281,2.046 0.334,3.083c0.523,-0.063 1.003,0.302 1.079,0.827c0.076,0.531 -0.293,1.024 -0.824,1.101c-0.208,0.03 -0.416,0.059 -0.622,0.086c-0.16,0.116 -0.355,0.185 -0.567,0.186c-0.124,0.001 -0.255,-0.024 -0.369,-0.07c-0.915,0.105 -1.809,0.183 -2.671,0.233c-0.019,0.001 -0.038,0.001 -0.056,0.001Zm-4.165,0.012c-0.018,0 -0.037,-0.001 -0.056,-0.001c-1.5,-0.087 -2.939,-0.276 -4.277,-0.563c-0.525,-0.112 -0.859,-0.63 -0.747,-1.155c0.113,-0.525 0.629,-0.86 1.155,-0.747c1.241,0.266 2.58,0.442 3.98,0.522c0.537,0.031 0.946,0.491 0.916,1.027c-0.03,0.517 -0.459,0.917 -0.971,0.917Zm135.284,6.444c-0.33,0 -0.652,-0.168 -0.834,-0.472c-0.695,-1.155 -1.451,-2.306 -2.244,-3.42c-0.313,-0.438 -0.211,-1.045 0.226,-1.357c0.438,-0.311 1.045,-0.21 1.358,0.228c0.822,1.155 1.606,2.348 2.327,3.546c0.277,0.461 0.128,1.058 -0.332,1.335c-0.157,0.095 -0.331,0.14 -0.501,0.14Zm-129.374,1.569c-0.109,0 -0.219,-0.019 -0.328,-0.058c-0.505,-0.181 -0.769,-0.738 -0.587,-1.243c0.436,-1.218 0.767,-2.517 0.983,-3.862c0.086,-0.53 0.584,-0.891 1.115,-0.806c0.53,0.086 0.891,0.585 0.806,1.115c-0.236,1.463 -0.597,2.879 -1.073,4.209c-0.143,0.397 -0.517,0.645 -0.916,0.645Zm-4.438,6.962c-0.259,0 -0.517,-0.103 -0.708,-0.306c-0.368,-0.39 -0.35,-1.006 0.04,-1.374c0.931,-0.878 1.764,-1.897 2.475,-3.027c0.286,-0.455 0.886,-0.591 1.341,-0.305c0.455,0.286 0.592,0.886 0.306,1.341c-0.799,1.269 -1.736,2.415 -2.787,3.406c-0.188,0.177 -0.428,0.265 -0.667,0.265Zm-7.262,3.886c-0.437,0 -0.834,-0.296 -0.944,-0.74c-0.128,-0.522 0.191,-1.048 0.713,-1.177c1.305,-0.321 2.538,-0.786 3.661,-1.383c0.475,-0.251 1.064,-0.071 1.316,0.404c0.251,0.474 0.071,1.063 -0.404,1.315c-1.265,0.671 -2.648,1.194 -4.109,1.553c-0.078,0.019 -0.156,0.028 -0.233,0.028Zm-5.106,0.587c-0.604,0 -1.227,-0.021 -1.851,-0.063c-0.457,-0.031 -0.915,-0.055 -1.36,-0.071c-0.537,-0.019 -0.956,-0.47 -0.937,-1.007c0.02,-0.537 0.47,-0.954 1.007,-0.937c0.465,0.017 0.943,0.042 1.42,0.074c0.911,0.061 1.813,0.075 2.67,0.04c0.535,-0.021 0.99,0.395 1.012,0.932c0.021,0.537 -0.396,0.989 -0.933,1.011c-0.337,0.014 -0.682,0.021 -1.028,0.021Zm-11.456,0.505c-0.449,0 -0.853,-0.312 -0.95,-0.769c-0.113,-0.525 0.222,-1.042 0.747,-1.155c1.339,-0.287 2.769,-0.486 4.252,-0.593c0.537,-0.039 1.002,0.365 1.04,0.9c0.039,0.536 -0.365,1.002 -0.9,1.04c-1.393,0.1 -2.734,0.287 -3.984,0.555c-0.069,0.015 -0.138,0.022 -0.205,0.022Zm-7.626,3.191c-0.307,0 -0.61,-0.146 -0.799,-0.418c-0.307,-0.441 -0.197,-1.047 0.244,-1.354c1.166,-0.81 2.458,-1.508 3.838,-2.075c0.498,-0.204 1.066,0.033 1.27,0.53c0.204,0.497 -0.034,1.065 -0.53,1.269c-1.251,0.514 -2.418,1.144 -3.469,1.874c-0.169,0.117 -0.362,0.174 -0.554,0.174Zm-5.474,6.177c-0.154,0 -0.311,-0.037 -0.457,-0.115c-0.474,-0.252 -0.653,-0.842 -0.4,-1.316c0.698,-1.308 1.538,-2.521 2.496,-3.605c0.356,-0.402 0.971,-0.44 1.373,-0.084c0.403,0.356 0.441,0.97 0.085,1.373c-0.858,0.97 -1.611,2.057 -2.238,3.232c-0.175,0.328 -0.511,0.515 -0.859,0.515Zm-2.277,7.975c-0.017,0 -0.034,0 -0.051,-0.001c-0.537,-0.028 -0.949,-0.485 -0.921,-1.022c0.032,-0.616 0.17,-2.271 0.759,-4.329c0.148,-0.516 0.687,-0.815 1.203,-0.667c0.517,0.148 0.815,0.687 0.667,1.203c-0.534,1.865 -0.658,3.345 -0.686,3.894c-0.027,0.519 -0.457,0.922 -0.971,0.922Z" style="fill:#fff;fill-rule:nonzero;"/><g><path d="M351.765,180.529l-3.15,5.159l27.114,18.498l-23.964,-23.657Z" style="fill:#90f4d4;fill-rule:nonzero;"/><path d="M345.821,191.879l1.641,5.916l27.061,5.539l-28.702,-11.455Z" style="fill:#90f4d4;fill-rule:nonzero;"/><path d="M375.729,204.186l-45.724,-15.585l15.815,-5.561l29.909,21.146Z" style="fill:#fff;fill-rule:nonzero;"/><path d="M351.765,180.529l23.964,23.657l-14.025,-27.853l-9.939,4.196Z" style="fill:#fff;fill-rule:nonzero;"/></g></g><g><path d="M684.459,112.856c-0.116,0 -0.233,-0.013 -0.349,-0.038c-2.103,-0.458 -4.312,-0.654 -6.543,-0.586c-0.894,0.031 -1.651,-0.68 -1.679,-1.58c-0.028,-0.9 0.68,-1.651 1.581,-1.678c2.489,-0.077 4.971,0.145 7.335,0.658c0.88,0.192 1.436,1.06 1.245,1.94c-0.165,0.762 -0.84,1.284 -1.59,1.284Zm-20.459,2.562c-0.631,0 -1.232,-0.369 -1.498,-0.985c-0.356,-0.827 0.026,-1.786 0.853,-2.142c2.291,-0.987 4.603,-1.766 6.873,-2.316c0.876,-0.213 1.756,0.325 1.968,1.199c0.214,0.875 -0.324,1.756 -1.2,1.969c-2.093,0.507 -4.228,1.228 -6.351,2.142c-0.212,0.091 -0.429,0.133 -0.645,0.133Zm32.893,3.539c-0.317,0 -0.636,-0.092 -0.918,-0.285c-0.722,-0.493 -1.443,-0.997 -2.146,-1.498c-1.146,-0.816 -2.34,-1.541 -3.549,-2.156c-0.803,-0.407 -1.125,-1.388 -0.717,-2.191c0.407,-0.802 1.388,-1.123 2.191,-0.715c1.355,0.687 2.689,1.497 3.965,2.407c0.687,0.489 1.393,0.981 2.096,1.462c0.742,0.508 0.933,1.523 0.426,2.266c-0.317,0.461 -0.827,0.71 -1.348,0.71Zm-44.81,3.677c-0.48,0 -0.955,-0.211 -1.278,-0.615c-0.559,-0.704 -0.443,-1.73 0.26,-2.29c1.889,-1.503 3.87,-2.888 5.889,-4.117c0.771,-0.469 1.772,-0.225 2.24,0.544c0.468,0.769 0.226,1.772 -0.545,2.24c-1.902,1.158 -3.77,2.465 -5.553,3.883c-0.301,0.239 -0.659,0.355 -1.013,0.355Zm56.726,3.615c-0.263,0 -0.528,-0.064 -0.777,-0.198c-2.038,-1.107 -4.096,-2.297 -6.122,-3.537c-0.768,-0.47 -1.008,-1.474 -0.538,-2.241c0.468,-0.768 1.472,-1.01 2.24,-0.539c1.977,1.211 3.989,2.372 5.977,3.453c0.792,0.43 1.083,1.419 0.655,2.21c-0.296,0.544 -0.857,0.852 -1.435,0.852Zm12.648,5.93c-0.198,0 -0.398,-0.036 -0.594,-0.112c-2.118,-0.826 -4.312,-1.772 -6.517,-2.811c-0.812,-0.383 -1.162,-1.355 -0.78,-2.169c0.384,-0.814 1.355,-1.163 2.17,-0.78c2.138,1.007 4.261,1.923 6.313,2.723c0.838,0.327 1.252,1.273 0.926,2.111c-0.251,0.644 -0.866,1.038 -1.518,1.038Zm-79.062,0.472c-0.329,0 -0.659,-0.099 -0.946,-0.303c-0.733,-0.523 -0.903,-1.54 -0.382,-2.273c1.323,-1.854 2.89,-3.715 4.662,-5.531c0.628,-0.644 1.66,-0.656 2.305,-0.028c0.645,0.629 0.657,1.661 0.028,2.305c-1.656,1.696 -3.115,3.428 -4.34,5.146c-0.317,0.446 -0.82,0.684 -1.327,0.684Zm112.686,0.361c-0.521,0 -1.034,-0.25 -1.35,-0.714c-0.505,-0.744 -0.312,-1.758 0.433,-2.264c1.539,-1.046 2.915,-2.358 4.093,-3.898c0.547,-0.716 1.569,-0.851 2.287,-0.306c0.714,0.547 0.849,1.57 0.305,2.285c-1.393,1.819 -3.025,3.372 -4.853,4.615c-0.281,0.191 -0.6,0.282 -0.915,0.282Zm-20.215,3.023c-0.091,0 -0.184,-0.007 -0.275,-0.023c-2.225,-0.377 -4.575,-0.926 -6.985,-1.633c-0.863,-0.253 -1.359,-1.158 -1.106,-2.022c0.254,-0.864 1.16,-1.359 2.021,-1.106c2.292,0.671 4.515,1.192 6.615,1.547c0.887,0.151 1.484,0.992 1.334,1.88c-0.135,0.795 -0.824,1.357 -1.604,1.357Zm6.946,0.621c-0.899,0 -1.628,-0.729 -1.63,-1.629c0,-0.9 0.729,-1.631 1.63,-1.631c2.344,-0.002 4.535,-0.261 6.512,-0.77c0.871,-0.224 1.761,0.3 1.984,1.172c0.226,0.872 -0.3,1.76 -1.171,1.985c-2.242,0.577 -4.706,0.871 -7.323,0.873l-0.002,0Z" style="fill:#fff;fill-rule:nonzero;"/><path d="M640.821,126.056l2.351,7.415l-39.566,14.786l37.215,-22.201Z" style="fill:#90f4d4;fill-rule:nonzero;"/><path d="M644.765,142.067l-3.87,6.889l-35.522,-1.394l39.392,-5.495Z" style="fill:#90f4d4;fill-rule:nonzero;"/><path d="M603.606,148.257l61.928,-5.427l-18.054,-11.809l-43.874,17.236Z" style="fill:#fff;fill-rule:nonzero;"/><path d="M640.821,126.056l-37.215,22.201l26.085,-30.498l11.13,8.297Z" style="fill:#fff;fill-rule:nonzero;"/></g><path d="M457.654,40.749c-3.461,0 -5.788,-2.611 -5.788,-5.789c0,-2.724 2.327,-5.335 5.788,-5.335c3.007,0 5.335,2.611 5.335,5.335c0,3.122 -2.215,5.789 -5.335,5.789Zm-7.773,-37.855c2.551,-1.929 5.617,-2.894 9.194,-2.894c7.718,0 11.803,4.199 11.803,10.102c0,3.405 -1.644,6.867 -4.995,10.329c-4.257,4.484 -7.319,6.697 -9.249,6.697c-1.874,0 -3.237,-1.476 -3.237,-3.235c0,-1.589 1.476,-3.178 4.03,-5.505c0.172,-0.17 0.34,-0.341 0.453,-0.397c2.894,-2.668 3.804,-4.143 3.804,-5.959c0,-2.271 -1.531,-3.519 -3.745,-3.519c-1.023,0 -2.215,0.227 -3.632,0.681c-1.418,0.454 -2.441,0.681 -3.066,0.681c-1.59,0 -3.406,-1.362 -3.406,-3.633c0,-1.191 0.683,-2.326 2.046,-3.348Z" style="fill:#fff;fill-rule:nonzero;"/><g><path d="M268.425,114.849l-13.7,25.345c-0.522,0.966 -1.726,1.325 -2.69,0.804l-44.05,-23.809c-0.964,-0.522 -1.323,-1.726 -0.801,-2.692l13.699,-25.345c0.523,-0.966 1.727,-1.325 2.692,-0.804l44.048,23.809c0.965,0.521 1.324,1.726 0.802,2.692Z" style="fill:#9efbdd;fill-rule:nonzero;"/><path d="M268.425,114.849l-0.757,1.401l-27.862,3.566c-2.736,0.405 -5.418,-1.015 -6.622,-3.506l-12.733,-26.358l0.432,-0.8c0.522,-0.965 1.728,-1.325 2.693,-0.803l44.046,23.807c0.965,0.522 1.325,1.727 0.803,2.693Z" style="fill:#fff;fill-rule:nonzero;"/></g><g><path d="M532.197,143.693c-5.067,0 -9.188,4.122 -9.188,9.188c0,5.066 4.121,9.188 9.188,9.188c5.067,0 9.188,-4.122 9.188,-9.188c0,-5.066 -4.121,-9.188 -9.188,-9.188Zm0,21.868c-6.992,0 -12.68,-5.688 -12.68,-12.68c0,-6.992 5.688,-12.681 12.68,-12.681c6.992,0 12.68,5.689 12.68,12.681c0,6.992 -5.688,12.68 -12.68,12.68Z" style="fill:#fff;fill-rule:nonzero;"/><path d="M560.624,132.701c0,3.999 -3.241,7.24 -7.239,7.24c-3.998,0 -7.239,-3.241 -7.239,-7.24c0,-3.998 3.241,-7.239 7.239,-7.239c3.998,0 7.239,3.241 7.239,7.239Z" style="fill:#fff;fill-rule:nonzero;"/></g></g></svg>