<?xml version="1.0" encoding="UTF-8" standalone="no"?>
<!DOCTYPE svg PUBLIC "-//W3C//DTD SVG 1.1//EN" "http://www.w3.org/Graphics/SVG/1.1/DTD/svg11.dtd">
<svg width="100%" height="100%" viewBox="0 0 700 543" version="1.1" xmlns="http://www.w3.org/2000/svg" xmlns:xlink="http://www.w3.org/1999/xlink" xml:space="preserve" xmlns:serif="http://www.serif.com/" style="fill-rule:evenodd;clip-rule:evenodd;stroke-linejoin:round;stroke-miterlimit:1.41421;">
    <g transform="matrix(1,0,0,1,-940.06,-215.731)">
        <g transform="matrix(1.64393,0,0,1.64393,878.939,75.451)">
            <path d="M462.82,401.913C462.82,394.659 368.761,388.778 252.732,388.778C136.704,388.778 42.644,394.659 42.644,401.913C42.644,409.167 136.704,415.048 252.732,415.048C368.761,415.048 462.82,409.167 462.82,401.913Z" style="fill:rgb(231,246,253);fill-rule:nonzero;"/>
            <path d="M211.896,407.988C211.896,406.533 195.325,405.353 174.882,405.353C154.44,405.353 137.869,406.533 137.869,407.988C137.869,409.444 154.44,410.625 174.882,410.625C195.325,410.625 211.896,409.444 211.896,407.988Z" style="fill:rgb(212,235,250);fill-rule:nonzero;"/>
            <path d="M385.083,405.628C385.083,403.535 361.705,401.838 332.867,401.838C304.029,401.838 280.651,403.535 280.651,405.628C280.651,407.722 304.029,409.418 332.867,409.418C361.705,409.418 385.083,407.722 385.083,405.628Z" style="fill:rgb(212,235,250);fill-rule:nonzero;"/>
            <path d="M70.132,237.244C117.856,205.509 99.1,115.137 182.987,115.137C266.873,115.137 219.8,161.624 304.29,143.03C388.78,124.435 354.144,245.18 403.265,262.951C462.44,284.36 480.513,342.614 435.854,397.159L65.304,397.159C65.304,397.159 -1.081,284.598 70.132,237.244Z" style="fill:rgb(212,235,250);fill-rule:nonzero;"/>
            <path d="M162.158,117.153L162.019,117.271C162.019,117.271 162.108,117.217 162.278,117.127L162.158,117.153Z" style="fill:rgb(212,235,250);fill-rule:nonzero;"/>
            <path d="M271.794,147.42C267.312,147.42 263.598,147.014 260.437,146.292C263.496,146.948 267.067,147.317 271.329,147.317C279.317,147.316 289.748,146.025 303.826,142.926C309.839,141.603 315.24,140.986 320.119,140.986C324.002,140.986 327.55,141.377 330.799,142.117C327.676,141.445 324.283,141.089 320.583,141.089C315.707,141.089 310.298,141.708 304.29,143.03C290.207,146.129 279.782,147.42 271.794,147.42ZM212.257,117.781C204.762,116.136 195.28,115.137 182.987,115.137C182.48,115.137 181.983,115.14 181.484,115.147C181.343,115.117 181.203,115.087 181.063,115.059C181.552,115.053 182.027,115.034 182.523,115.034C195.072,115.034 204.69,116.074 212.257,117.781Z" style="fill:rgb(243,249,254);fill-rule:nonzero;"/>
            <path d="M435.39,397.056L360.206,397.056C362.987,395.814 364.926,393.024 364.926,389.781L364.926,389.551C371.44,381.207 377.649,372.263 382.566,363.435C384.61,368.131 387.073,371.693 387.832,372.793C387.295,375.174 386.882,377.449 386.579,379.574L386.624,379.73L386.848,379.788L386.921,379.68C387.272,377.374 387.684,375.172 388.15,373.062C388.865,372.509 393.947,369.649 400.173,366.032C401.082,367.212 401.986,368.323 402.874,369.36L403.021,369.429L403.212,369.299L403.179,369.173C402.24,368.054 401.347,366.945 400.498,365.843C405.786,362.769 411.85,359.175 416.752,355.994C421.522,352.689 421.031,347.372 416.028,345.1C411.044,342.262 434.637,337.832 436.179,332.332C438.123,325.76 424.867,330.809 435.911,323.89C445.971,318.258 445.495,307.233 437.713,307.233C436.89,307.233 435.985,307.357 435.002,307.623C425.158,310.81 418.421,307.008 411.664,315.397C408.438,319.745 407.396,320.984 406.185,320.984C405.017,320.984 403.692,319.832 400.102,319.205C399.931,319.187 399.768,319.179 399.61,319.179C397.074,319.179 396.063,321.432 395.292,324.387C393.359,322.292 402.95,305.216 400.156,300.916C399.43,299.763 398.653,299.364 397.889,299.364C397.032,299.364 396.192,299.867 395.463,300.37C394.733,300.873 394.115,301.376 393.7,301.376C393.041,301.376 392.897,300.105 393.642,295.541C395.454,287.079 391.063,281.068 386.587,281.068C384.47,281.068 382.334,282.413 380.826,285.48C376.75,294.902 369.527,297.486 371.209,307.893C369.264,307.433 367.173,307.051 364.926,306.752L364.926,226.874C364.926,222.477 361.361,218.913 356.964,218.913L345.533,218.913C346.361,218.559 346.986,217.803 347.144,216.868L349.513,202.853C349.718,201.635 348.824,200.521 347.614,200.435C347.565,200.432 347.515,200.43 347.465,200.43L344.021,200.43C345.025,199.93 346.049,199.353 347.064,198.685C347.065,198.685 347.066,198.684 347.066,198.684C347.074,198.679 347.082,198.674 347.09,198.669C347.091,198.668 347.092,198.667 347.094,198.666C347.116,198.652 347.138,198.637 347.159,198.623C347.162,198.621 347.166,198.619 347.169,198.617C347.173,198.613 347.178,198.61 347.183,198.607C347.188,198.604 347.193,198.6 347.198,198.597C347.202,198.594 347.207,198.591 347.211,198.588C347.216,198.585 347.222,198.581 347.228,198.577C347.232,198.575 347.235,198.572 347.239,198.57C347.246,198.565 347.254,198.56 347.261,198.555C347.263,198.553 347.265,198.552 347.267,198.551C347.287,198.538 347.307,198.524 347.327,198.511C347.328,198.51 347.329,198.51 347.329,198.509C348.264,197.88 349.191,197.173 350.089,196.379C350.098,196.371 350.107,196.363 350.116,196.355C350.118,196.354 350.119,196.352 350.121,196.351C350.129,196.344 350.137,196.337 350.145,196.33C350.146,196.328 350.148,196.327 350.149,196.325C350.159,196.317 350.168,196.309 350.178,196.3C355.473,191.577 361.769,186.035 364.893,183.289C374.223,214.589 376.6,253.37 402.801,262.849C461.977,284.258 480.049,342.511 435.39,397.056ZM329.708,218.913L323.333,218.913C323.535,210.763 323.586,203.259 322.861,197.083C326.821,198.107 331.341,198.427 334.368,200.43L327.776,200.43C327.571,200.43 327.375,200.459 327.19,200.514C326.211,200.801 325.549,201.787 325.729,202.853L328.098,216.868C328.256,217.803 328.88,218.559 329.708,218.913ZM339.706,200.43L339.188,200.43C339.242,198.533 339.267,196.664 339.233,195.074C339.232,195.025 339.231,194.976 339.23,194.928L339.23,194.926C339.229,194.911 339.229,194.896 339.229,194.881L339.229,194.877C339.228,194.861 339.228,194.846 339.227,194.83C339.221,194.587 339.218,194.349 339.218,194.117C339.218,188.543 340.981,185.865 342.097,176.047C342.302,174.239 342.387,172.297 342.386,170.324C342.385,161.136 340.544,151.287 340.544,151.287C340.544,151.287 333.405,164.204 335.648,178.713C337.559,191.071 337.21,194.065 337.642,200.43L337.528,200.43C337.511,200.187 337.49,199.936 337.467,199.677C337.108,195.788 335.991,190.236 332.78,184.984L332.779,184.983C332.772,184.97 332.764,184.958 332.757,184.946C332.756,184.945 332.756,184.945 332.756,184.944C332.733,184.908 332.71,184.87 332.687,184.833C332.686,184.831 332.684,184.828 332.683,184.826C332.677,184.817 332.671,184.807 332.665,184.798C332.663,184.794 332.661,184.791 332.659,184.788C332.653,184.779 332.648,184.77 332.642,184.761C332.64,184.758 332.638,184.755 332.636,184.752C332.629,184.74 332.622,184.728 332.614,184.716C326.664,175.218 319.31,163.253 319.31,163.253C319.31,163.253 316.19,177.63 326.227,186.28C331.23,190.593 334.025,194.679 335.586,197.912C336.027,198.825 336.368,199.668 336.633,200.43L336.599,200.43C336.228,199.968 335.76,199.478 335.17,198.963C334.325,198.224 333.23,197.433 331.821,196.602C327.765,194.209 323.74,191.032 320.736,187.907C319.71,185.402 318.323,183.443 316.463,182.148C316.02,181.206 315.778,180.334 315.778,179.57C315.778,179.473 315.782,179.379 315.79,179.286C315.79,179.286 315.497,180.112 315.191,181.404C313.778,180.721 312.134,180.36 310.221,180.36C308.802,180.36 307.233,180.559 305.504,180.973C295.933,183.265 287.538,184.41 279.972,184.41C252.824,184.41 236.354,169.658 214.589,140.154C202.339,123.549 190.69,117.131 181.484,115.147C181.983,115.14 182.48,115.137 182.987,115.137C195.28,115.137 204.762,116.136 212.257,117.781C242.344,124.57 239.98,141.9 260.437,146.292C263.598,147.014 267.312,147.42 271.794,147.42C279.782,147.42 290.207,146.129 304.29,143.03C310.298,141.708 315.707,141.089 320.583,141.089C324.283,141.089 327.676,141.445 330.799,142.117C349.698,146.423 358.48,162.489 364.399,181.66C360.346,182.027 352.27,183.692 347.874,190.982C345.424,195.046 342.887,197.811 340.638,199.689C340.682,198.927 340.796,197.906 340.995,196.317C341.667,190.96 349.208,187.087 353.779,176.693C353.783,176.685 353.787,176.676 353.791,176.667C353.812,176.618 353.834,176.569 353.855,176.52C353.857,176.515 353.86,176.509 353.862,176.504C353.877,176.469 353.891,176.435 353.906,176.401C356.317,170.746 355.984,166.333 355.148,163.911C354.687,162.573 354.073,161.841 353.681,161.841C353.499,161.841 353.365,161.999 353.317,162.327C352.974,164.666 346.272,178.31 342.145,187.431C339.927,192.332 339.64,197.025 339.848,200.321C339.801,200.358 339.753,200.394 339.706,200.43Z" style="fill:rgb(203,230,248);fill-rule:nonzero;"/>
            <path d="M427.956,233.56L427.956,258.998C427.956,265.678 422.486,271.147 415.798,271.147L390.358,271.147C383.68,271.147 378.209,265.678 378.209,258.998L378.209,233.56C378.209,226.871 383.68,221.4 390.358,221.4L415.798,221.4C422.486,221.4 427.956,226.871 427.956,233.56Z" style="fill:rgb(25,220,166);fill-rule:nonzero;"/>
            <path d="M409.316,246.667C408.854,246.667 408.479,246.292 408.479,245.83C408.479,245.367 408.854,244.992 409.316,244.992C409.779,244.992 410.154,245.367 410.154,245.83C410.154,246.292 409.779,246.667 409.316,246.667ZM403.032,246.667C402.57,246.667 402.194,246.292 402.194,245.83C402.194,245.367 402.57,244.992 403.032,244.992C403.495,244.992 403.87,245.367 403.87,245.83C403.87,246.292 403.495,246.667 403.032,246.667ZM397.076,246.667C396.613,246.667 396.238,246.292 396.238,245.83C396.238,245.367 396.613,244.992 397.076,244.992C397.539,244.992 397.914,245.367 397.914,245.83C397.914,246.292 397.539,246.667 397.076,246.667ZM402.773,231.945C395.503,232.188 389.581,238.099 389.323,245.369C389.206,248.698 390.257,251.776 392.098,254.229C392.849,255.23 393.124,256.511 392.842,257.729L391.954,261.559L396.642,259.494C397.541,259.099 398.549,259.033 399.495,259.297C400.976,259.712 402.556,259.891 404.192,259.781C411.161,259.319 416.77,253.664 417.168,246.691C417.637,238.462 410.962,231.67 402.773,231.945Z" style="fill:white;fill-rule:nonzero;"/>
            <path d="M95.038,245.866L95.038,270.34C95.038,276.774 89.772,282.04 83.337,282.04L58.864,282.04C52.428,282.04 47.163,276.774 47.163,270.34L47.163,245.866C47.163,239.43 52.428,234.165 58.864,234.165L83.337,234.165C89.772,234.165 95.038,239.43 95.038,245.866Z" style="fill:rgb(25,220,166);fill-rule:nonzero;"/>
            <path d="M76.021,259.301L67.363,264.527C66.443,265.083 65.269,264.421 65.269,263.346L65.269,252.893C65.269,251.817 66.443,251.154 67.363,251.71L76.021,256.938C76.91,257.475 76.91,258.764 76.021,259.301ZM77.921,243.896L63.393,243.896C59.574,243.896 56.45,247.021 56.45,250.839L56.45,265.367C56.45,269.187 59.574,272.311 63.393,272.311L77.921,272.311C81.74,272.311 84.865,269.187 84.865,265.367L84.865,250.839C84.865,247.021 81.74,243.896 77.921,243.896Z" style="fill:white;fill-rule:nonzero;"/>
            <path d="M266.282,127.638L266.282,153.551C266.282,160.362 260.709,165.935 253.898,165.935L227.986,165.935C221.175,165.935 215.603,160.362 215.603,153.551L215.603,127.638C215.603,120.827 221.175,115.254 227.986,115.254L253.898,115.254C260.709,115.254 266.282,120.827 266.282,127.638Z" style="fill:rgb(98,159,214);fill-rule:nonzero;"/>
            <path d="M224.494,142.935C223.854,143.156 223.517,143.854 223.749,144.495L224.494,146.612C224.727,147.241 225.425,147.578 226.053,147.357L227.124,146.973L225.553,142.563L224.494,142.935Z" style="fill:rgb(36,96,173);fill-rule:nonzero;"/>
            <path d="M237.561,148.599L232.977,150.228L232.918,150.251L235.071,156.336C235.129,156.511 235.281,156.627 235.455,156.651L239.877,157.128C240.214,157.163 240.482,156.825 240.366,156.5L237.561,148.599Z" style="fill:rgb(36,96,173);fill-rule:nonzero;"/>
            <path d="M257.462,144.585L255.261,138.373C256.148,137.673 256.734,136.614 256.734,135.394C256.734,133.275 255.021,131.569 252.909,131.569L252.851,131.572L250.665,125.403C250.366,124.561 249.442,124.12 248.6,124.418C247.758,124.717 247.317,125.642 247.616,126.483L254.413,145.666C254.711,146.508 255.636,146.949 256.478,146.65C257.319,146.352 257.76,145.428 257.462,144.585Z" style="fill:rgb(36,96,173);fill-rule:nonzero;"/>
            <path d="M234.052,136.081L228.606,138.011C227.069,138.555 226.265,140.243 226.81,141.78L228.622,146.895C229.158,148.408 230.801,149.204 232.318,148.709L232.32,148.715L232.388,148.692L232.391,148.691L237.831,146.764L237.841,146.775C237.841,146.775 249.385,143.929 252.777,146.084L246.09,127.213C244.812,131.023 234.052,136.081 234.052,136.081Z" style="fill:rgb(36,96,173);fill-rule:nonzero;"/>
            <path d="M113.725,374.313C113.644,374.285 120.484,368.92 124.773,361.257C129.186,353.824 131.048,344.095 123.875,340.672C113.691,336.224 122.97,320.176 115.313,319.066C113.506,318.93 112.21,319.057 111.224,319.183C108.171,319.576 108.097,319.969 105.04,312.533C100.552,302.741 93.086,304.77 84.327,299.264C75.053,294.041 70.197,306.038 79.448,314.808C84.307,319.89 83.166,319.858 81.127,319.826C79.386,319.798 76.991,319.771 77.115,322.926C77.258,328.636 99.039,338.728 93.51,340.253C88.103,341.227 86.319,346.26 90.132,350.637C99.252,360.485 113.779,373.957 113.725,374.313Z" style="fill:rgb(98,159,214);fill-rule:nonzero;"/>
            <path d="M113.271,381.042L113.229,380.926C113.243,380.779 113.257,380.632 113.271,380.486L113.271,381.042Z" style="fill:rgb(131,159,210);fill-rule:nonzero;"/>
            <path d="M113.271,362.369C113.044,360.076 112.736,357.862 112.363,355.709L112.345,355.609L112.271,355.544C107.056,350.996 101.323,347.37 95.463,344.789L95.38,344.704L95.43,344.538L95.637,344.487C101.206,346.938 106.682,350.343 111.712,354.604C111.89,354.755 112.068,354.906 112.245,355.059C112.202,354.827 112.158,354.595 112.114,354.363C111.298,350.121 110.259,346.313 109.031,342.757L109.006,342.685L108.95,342.635L108.888,342.47L108.901,342.397L108.876,342.326C107.459,338.306 105.69,334.283 103.423,330.108L103.349,329.972L103.192,329.958C97.368,329.066 91.876,327.481 86.682,325.29L86.569,325.174L86.583,324.972L86.719,324.929C91.736,327.038 97.033,328.582 102.634,329.482C102.799,329.51 102.965,329.536 103.131,329.563C103.045,329.408 102.958,329.253 102.871,329.098C98.726,321.721 93.302,314.462 86.147,307.519L86.089,307.301L86.224,307.168L86.34,307.219C91.593,312.308 95.861,317.507 99.451,322.856C99.618,323.105 99.785,323.355 99.95,323.606C99.94,323.314 99.929,323.022 99.918,322.73C99.746,318.537 98.979,314.222 97.618,309.998L97.614,309.873L97.828,309.776L97.967,309.912C99.453,314.523 100.233,319.229 100.314,323.781L100.292,323.863L100.205,324.006L100.303,324.158C103.996,329.885 106.782,335.563 108.882,341.304C108.959,341.512 109.034,341.721 109.109,341.93C109.191,341.735 109.273,341.541 109.354,341.347C110.826,337.837 111.692,333.939 112.345,330.069C112.574,328.717 112.782,327.352 112.989,325.981L113.016,325.901L113.271,325.861L113.271,326.633C113.088,327.829 112.903,329.02 112.702,330.201C111.991,334.398 111.029,338.615 109.331,342.344L109.287,342.442L109.324,342.55C111.294,348.144 112.549,353.835 113.271,359.311L113.271,362.369Z" style="fill:rgb(64,110,181);fill-rule:nonzero;"/>
            <path d="M133.926,391.232C133.726,391.996 127.179,374.277 109.538,361.297C93.136,347.78 65.639,339.003 52.145,345.287C25.932,357.178 45.926,369.933 59.703,365.634C73.994,362.378 62.681,382.606 78.335,378.408C93.87,375.498 93.516,380.837 102.382,380.192C112.014,378.962 134.552,390.62 133.926,391.232Z" style="fill:rgb(60,139,202);fill-rule:nonzero;"/>
            <path d="M399.029,364.001C399.08,363.932 390.404,363.375 382.533,359.481C374.69,355.849 367.651,348.878 371.632,341.997C377.515,332.569 360.786,324.583 366.474,319.337C372.264,314.687 373.478,318.538 371.25,308.14C369.413,297.525 376.718,294.977 380.826,285.48C385.521,275.929 396.311,283.076 393.642,295.541C392.428,302.976 393.574,301.673 395.463,300.37C396.841,299.419 398.616,298.468 400.156,300.916C403.269,305.706 391.014,326.347 396.436,324.478C401.446,322.223 405.764,325.365 405.095,331.131C403.144,344.411 398.783,363.737 399.029,364.001Z" style="fill:rgb(60,139,202);fill-rule:nonzero;"/>
            <path d="M403.021,369.429L402.874,369.36C401.986,368.323 401.082,367.212 400.173,366.032C400.281,365.969 400.389,365.907 400.498,365.843C401.347,366.945 402.24,368.054 403.179,369.173L403.212,369.299L403.021,369.429Z" style="fill:rgb(127,155,208);fill-rule:nonzero;"/>
            <path d="M385.556,338.281C385.251,337.303 384.962,336.314 384.694,335.316L384.664,335.206L384.571,335.15C381.061,333.036 377.884,330.102 374.924,327.043C373.946,326.035 372.98,325.004 372.013,323.968L371.98,323.794C372.017,323.721 372.095,323.662 372.173,323.662C372.193,323.662 372.213,323.666 372.232,323.675L372.301,323.726C373.246,324.738 374.189,325.746 375.144,326.732C377.871,329.555 380.789,332.279 383.988,334.342C384.165,334.456 384.343,334.569 384.521,334.683C384.464,334.469 384.408,334.254 384.354,334.039C382.839,328.116 381.925,321.858 381.73,315.047L381.726,314.866L381.573,314.797L381.509,314.743C379.002,310.943 376.983,306.62 375.6,301.978L375.638,301.786L375.868,301.745L375.936,301.851C377.202,306.104 379.011,310.096 381.241,313.651C381.397,313.899 381.553,314.146 381.71,314.392C381.705,314.092 381.7,313.792 381.697,313.492C381.632,307.05 382.212,300.348 383.665,293.181L383.732,293.072L383.919,293.106C383.988,293.157 384.014,293.228 383.995,293.319C382.021,303.091 381.652,312.144 382.407,320.572C382.423,320.75 382.439,320.927 382.456,321.104C382.577,320.988 382.699,320.872 382.821,320.756C386.93,316.847 390.425,312.576 393.369,308L393.506,307.959L393.632,308.116L393.604,308.276C390.561,313.021 386.928,317.435 382.629,321.464L382.508,321.564L382.523,321.719C383.015,326.443 383.831,330.762 384.936,334.879L384.957,334.952L385.008,335.004L385.05,335.175L385.032,335.248L385.053,335.321C385.313,336.267 385.594,337.22 385.897,338.182C385.782,338.213 385.668,338.246 385.556,338.281Z" style="fill:rgb(39,97,174);fill-rule:nonzero;"/>
            <path d="M388.064,373.148C388.149,373.142 382.838,366.259 380.563,357.776C378.111,349.488 378.697,339.599 386.492,338.044C397.457,336.234 392.406,318.399 400.102,319.205C407.417,320.482 405.327,323.937 411.664,315.397C418.421,307.008 425.158,310.81 435.002,307.623C445.275,304.84 447.035,317.662 435.911,323.89C424.867,330.809 438.123,325.76 436.179,332.332C434.637,337.832 411.044,342.262 416.028,345.1C421.031,347.372 421.522,352.689 416.752,355.994C405.491,363.301 388.099,372.789 388.064,373.148Z" style="fill:rgb(98,159,214);fill-rule:nonzero;"/>
            <path d="M386.848,379.788L386.624,379.73L386.579,379.574C386.882,377.449 387.295,375.174 387.832,372.793C387.977,373.004 388.06,373.124 388.065,373.145C388.065,373.146 388.065,373.147 388.064,373.148C388.065,373.148 388.066,373.147 388.065,373.145C388.07,373.13 388.099,373.102 388.15,373.062C387.684,375.172 387.272,377.374 386.921,379.68L386.848,379.788Z" style="fill:rgb(127,155,208);fill-rule:nonzero;"/>
            <path d="M388.064,373.148C388.065,373.147 388.065,373.146 388.065,373.145C388.066,373.147 388.065,373.148 388.064,373.148ZM388.065,373.145C388.06,373.124 387.977,373.004 387.832,372.793C389.884,363.692 393.741,353.055 400.136,343.44L400.198,343.345L400.18,343.238C399.449,339.207 399.554,334.883 399.896,330.64C400.007,329.24 400.143,327.834 400.282,326.423L400.392,326.284C400.412,326.279 400.433,326.276 400.455,326.276C400.538,326.276 400.623,326.316 400.647,326.395L400.654,326.479C400.519,327.857 400.385,329.232 400.274,330.601C399.956,334.513 399.838,338.503 400.401,342.267C400.433,342.475 400.465,342.684 400.497,342.892C400.62,342.707 400.745,342.523 400.87,342.341C404.317,337.292 408.412,332.473 413.399,327.829L413.531,327.706L413.482,327.546L413.48,327.461C414.679,323.069 416.591,318.698 419.164,314.594L419.333,314.496L419.516,314.643L419.481,314.764C417.124,318.522 415.32,322.517 414.123,326.54C414.04,326.82 413.958,327.101 413.877,327.381C414.099,327.179 414.321,326.977 414.544,326.776C419.339,322.473 424.754,318.482 431.096,314.84L431.222,314.819L431.319,314.981L431.21,315.18C422.567,320.15 415.526,325.853 409.696,331.985C409.573,332.115 409.451,332.244 409.329,332.374C409.497,332.388 409.664,332.402 409.832,332.418C411.911,332.603 413.973,332.694 416.015,332.694C419.523,332.694 422.976,332.427 426.377,331.914L426.498,331.989L426.462,332.188L426.325,332.273C422.898,332.795 419.418,333.066 415.883,333.066C413.669,333.066 411.432,332.959 409.173,332.741L409.018,332.716L408.913,332.83C405.689,336.319 402.986,339.785 400.625,343.333L400.583,343.396L400.578,343.47L400.478,343.614L400.41,343.649L400.369,343.713C398.305,346.858 396.361,350.294 394.528,354.206C394.428,354.42 394.329,354.634 394.23,354.848C394.439,354.743 394.648,354.641 394.858,354.538C400.781,351.644 406.927,349.688 412.926,348.681L413.114,348.781L413.122,348.955L413.021,349.017C406.706,350.079 400.258,352.185 394.087,355.312L393.998,355.356L393.956,355.449C391.624,360.676 389.619,366.415 388.15,373.062C388.099,373.102 388.07,373.13 388.065,373.145Z" style="fill:rgb(64,110,181);fill-rule:nonzero;"/>
            <path d="M366.809,385.873C366.809,385.873 427.295,339.638 446.333,343.636C465.371,347.635 453.359,367.707 441.123,366.98C428.886,366.255 439.713,386.223 425.108,383.83C410.505,381.437 410.28,386.641 401.557,384.948C392.833,383.257 366.809,385.873 366.809,385.873Z" style="fill:rgb(60,139,202);fill-rule:nonzero;"/>
            <path d="M356.964,218.913L121.232,218.913C116.835,218.913 113.271,222.477 113.271,226.874L113.271,389.781C113.271,394.179 116.835,397.743 121.232,397.743L356.964,397.743C361.361,397.743 364.926,394.179 364.926,389.781L364.926,226.874C364.926,222.477 361.361,218.913 356.964,218.913Z" style="fill:rgb(36,96,173);fill-rule:nonzero;"/>
            <path d="M134.191,386.172C133.374,386.172 132.708,385.507 132.708,384.689L132.708,231.966C132.708,231.148 133.374,230.483 134.191,230.483L329.843,230.483C330.66,230.483 331.325,231.148 331.325,231.966L331.325,384.689C331.325,385.507 330.66,386.172 329.843,386.172L134.191,386.172Z" style="fill:rgb(212,235,250);fill-rule:nonzero;"/>
            <path d="M329.843,230.483L134.191,230.483C133.374,230.483 132.708,231.148 132.708,231.966L132.708,236.206L322.977,236.206C323.794,236.206 324.459,236.871 324.459,237.688L324.459,386.172L329.843,386.172C330.66,386.172 331.325,385.507 331.325,384.689L331.325,231.966C331.325,231.148 330.66,230.483 329.843,230.483Z" style="fill:rgb(182,215,241);fill-rule:nonzero;"/>
            <path d="M356.057,308.328C356.057,303.854 352.431,300.229 347.958,300.229C343.484,300.229 339.858,303.854 339.858,308.328C339.858,312.801 343.484,316.427 347.958,316.427C352.431,316.427 356.057,312.801 356.057,308.328Z" style="fill:white;fill-rule:nonzero;"/>
            <path d="M134.194,386.171L241.086,386.171C235.193,390.48 228.965,394.354 222.445,397.744L121.234,397.744C116.837,397.744 113.271,394.178 113.271,389.78L113.271,226.872C113.271,222.481 116.837,218.915 121.234,218.915L291.634,218.915C293.033,222.7 294.273,226.558 295.353,230.481L134.194,230.481C133.37,230.481 132.706,231.145 132.706,231.969L132.706,384.69C132.706,385.507 133.37,386.171 134.194,386.171Z" style="fill:rgb(60,101,176);fill-rule:nonzero;"/>
            <path d="M122.749,292.529C121.915,292.529 121.233,293.212 121.233,294.045L121.233,329.4C121.233,330.233 121.915,330.915 122.749,330.915C123.582,330.915 124.264,330.233 124.264,329.4L124.264,294.045C124.264,293.212 123.582,292.529 122.749,292.529Z" style="fill:white;fill-rule:nonzero;"/>
            <path d="M168.239,341.689C168.049,341.195 167.919,340.662 167.858,340.084C167.912,340.373 168.034,340.951 168.239,341.689Z" style="fill:rgb(36,96,173);fill-rule:nonzero;"/>
            <path d="M337.035,203.513L337.845,202.947C337.589,201.458 336.286,199.235 331.821,196.602C323.56,191.729 315.427,183.603 315.79,179.286C315.79,179.286 311.89,190.269 317.691,194.798C323.136,199.049 334.013,196.81 337.035,203.513Z" style="fill:rgb(98,159,214);fill-rule:nonzero;"/>
            <path d="M337.365,203.283L337.846,202.946C337.59,201.458 336.286,199.236 331.821,196.602C323.56,191.729 315.427,183.603 315.79,179.286C315.79,179.286 314.649,188.585 320.421,192.689C326.118,196.741 334.009,195.407 337.365,203.283Z" style="fill:rgb(60,139,202);fill-rule:nonzero;"/>
            <path d="M335.586,197.912C336.416,199.63 336.894,201.103 337.173,202.245L337.608,202.008C337.5,198.228 336.686,191.216 332.614,184.716C326.664,175.218 319.31,163.253 319.31,163.253C319.31,163.253 316.19,177.63 326.227,186.28C331.23,190.593 334.025,194.679 335.586,197.912Z" style="fill:rgb(98,159,214);fill-rule:nonzero;"/>
            <path d="M326.199,179.528C331.463,187.22 336.409,196.344 337.137,200.944C337.239,200.539 337.351,200.112 337.467,199.677C337.102,195.722 335.953,190.047 332.614,184.716C326.664,175.218 319.31,163.253 319.31,163.253C319.31,163.253 319.35,169.517 326.199,179.528Z" style="fill:rgb(60,139,202);fill-rule:nonzero;"/>
            <path d="M339.154,200.835C337.783,201.81 336.575,202.443 335.624,202.854L335.894,203.198C339.162,202.544 345.133,200.799 350.178,196.3C357.549,189.726 366.855,181.566 366.855,181.566C366.855,181.566 353.903,180.984 347.874,190.982C344.867,195.968 341.73,199.001 339.154,200.835Z" style="fill:rgb(98,159,214);fill-rule:nonzero;"/>
            <path d="M353.736,189.96C347.832,195.67 340.638,201.318 336.749,202.63C337.115,202.659 337.504,202.693 337.898,202.729C341.28,201.827 346.041,199.99 350.178,196.3C357.549,189.726 366.855,181.566 366.855,181.566C366.855,181.566 361.42,182.528 353.736,189.96Z" style="fill:rgb(60,139,202);fill-rule:nonzero;"/>
            <path d="M337.955,204.127C338.168,206.238 338.345,207.695 338.414,208.691L338.829,208.697C339.016,205.125 339.334,198.956 339.227,194.83C339.07,188.754 340.935,186.274 342.097,176.047C343.26,165.819 340.544,151.287 340.544,151.287C340.544,151.287 333.405,164.204 335.648,178.713C337.892,193.222 337.019,194.825 337.955,204.127Z" style="fill:rgb(98,159,214);fill-rule:nonzero;"/>
            <path d="M338.44,208.691L338.52,208.693L338.901,207.307C339.086,203.673 339.321,198.46 339.227,194.83C339.07,188.754 340.935,186.274 342.097,176.047C343.26,165.819 340.544,151.287 340.544,151.287C340.544,151.287 337.63,171.452 338.243,180.723C338.812,189.301 338.492,206.211 338.44,208.691Z" style="fill:rgb(60,139,202);fill-rule:nonzero;"/>
            <path d="M353.317,162.327C352.974,164.666 346.272,178.31 342.145,187.431C338.915,194.569 339.779,201.269 340.308,203.848L341.136,203.83C340.573,200.719 340.383,201.201 340.995,196.317C341.667,190.96 349.208,187.087 353.779,176.693C358.351,166.3 353.66,159.989 353.317,162.327Z" style="fill:rgb(98,159,214);fill-rule:nonzero;"/>
            <path d="M353.574,161.868C353.713,165.177 353.712,176.446 347.784,182.565C340.917,189.654 338.842,197.364 341.072,203.832L341.136,203.83C340.573,200.719 340.383,201.201 340.995,196.317C341.667,190.96 349.208,187.087 353.779,176.693C357.845,167.45 354.587,161.441 353.574,161.868Z" style="fill:rgb(60,139,202);fill-rule:nonzero;"/>
            <path d="M325.729,202.853L328.098,216.868C328.318,218.175 329.449,219.131 330.774,219.131L344.467,219.131C345.792,219.131 346.923,218.175 347.144,216.868L349.513,202.853C349.727,201.585 348.75,200.43 347.465,200.43L327.776,200.43C326.491,200.43 325.515,201.585 325.729,202.853Z" style="fill:rgb(182,215,241);fill-rule:nonzero;"/>
            <path d="M327.19,200.514C327.375,200.459 327.571,200.43 327.776,200.43L334.369,200.43L327.776,200.43C327.572,200.43 327.375,200.459 327.19,200.514ZM337.642,200.43L337.529,200.43L337.528,200.43L337.642,200.43ZM336.634,200.43L336.599,200.43L336.634,200.43Z" style="fill:rgb(142,191,231);"/>
            <path d="M335.67,200.43L334.369,200.43L334.368,200.43L335.67,200.43Z" style="fill:rgb(98,159,214);fill-rule:nonzero;"/>
            <path d="M336.599,200.43L335.67,200.43L335.669,200.43L336.599,200.43Z" style="fill:rgb(81,151,209);fill-rule:nonzero;"/>
            <path d="M337.529,200.43L337.268,200.43L337.529,200.43ZM337.042,200.43L336.634,200.43L336.633,200.43L337.042,200.43Z" style="fill:rgb(98,159,214);fill-rule:nonzero;"/>
            <path d="M337.268,200.43L337.042,200.43L337.269,200.43L337.268,200.43Z" style="fill:rgb(81,151,209);fill-rule:nonzero;"/>
            <path d="M347.614,200.435C347.565,200.432 347.515,200.43 347.465,200.43L344.02,200.43L347.465,200.43C347.515,200.43 347.565,200.432 347.614,200.435ZM339.705,200.43L339.188,200.43L339.706,200.43L339.705,200.43Z" style="fill:rgb(142,191,231);fill-rule:nonzero;"/>
            <path d="M344.02,200.43L344.019,200.43L344.021,200.43L344.02,200.43ZM340.961,200.43L340.617,200.43L340.962,200.43L340.961,200.43ZM339.855,200.43L339.705,200.43L339.855,200.43Z" style="fill:rgb(98,159,214);fill-rule:nonzero;"/>
            <path d="M344.019,200.43L340.961,200.43L344.02,200.43L344.019,200.43Z" style="fill:rgb(81,151,209);fill-rule:nonzero;"/>
            <path d="M338.556,200.43L337.642,200.43L338.556,200.43Z" style="fill:rgb(98,159,214);fill-rule:nonzero;"/>
            <path d="M339.188,200.43L338.556,200.43L339.188,200.43Z" style="fill:rgb(81,151,209);fill-rule:nonzero;"/>
            <path d="M340.31,200.43L339.855,200.43L340.31,200.43Z" style="fill:rgb(98,159,214);fill-rule:nonzero;"/>
            <path d="M340.617,200.43L340.31,200.43L340.617,200.43Z" style="fill:rgb(81,151,209);fill-rule:nonzero;"/>
            <path d="M344.467,219.131L338.232,219.131C339.558,219.131 340.689,218.175 340.91,216.868L343.278,202.853C343.295,202.754 343.292,202.659 343.295,202.563L325.713,202.563C325.685,201.614 326.304,200.775 327.19,200.514C327.375,200.459 327.572,200.43 327.776,200.43L347.465,200.43C347.515,200.43 347.565,200.432 347.614,200.435C347.716,200.443 347.815,200.459 347.912,200.48L348.072,200.531L348.319,200.617L348.516,200.728L348.675,200.826L348.885,201.007L348.975,201.093C349.049,201.172 349.113,201.258 349.175,201.348L349.214,201.406C349.279,201.509 349.333,201.618 349.379,201.731L349.39,201.758C349.438,201.881 349.474,202.008 349.497,202.14L349.498,202.144C349.539,202.373 349.554,202.609 349.513,202.853L347.144,216.868C346.923,218.175 345.792,219.131 344.467,219.131Z" style="fill:rgb(133,184,227);fill-rule:nonzero;"/>
            <path d="M309.486,197.493L309.486,386.153L162.644,386.153L162.644,188.398C162.644,193.431 166.713,197.493 171.738,197.493L309.486,197.493Z" style="fill:white;fill-rule:nonzero;"/>
            <path d="M293.217,179.094L293.217,195.976L171.733,195.976C167.563,195.976 164.16,192.581 164.16,188.402L164.16,186.66C164.16,182.488 167.563,179.094 171.733,179.094L293.217,179.094Z" style="fill:rgb(182,215,241);fill-rule:nonzero;"/>
            <path d="M173.636,184.688L299.44,184.688L299.44,183.166L173.636,183.166C171.482,183.166 169.724,184.924 169.724,187.085L169.724,187.984C169.724,190.146 171.482,191.903 173.636,191.903L306.344,191.903L306.344,190.381L173.636,190.381C172.32,190.381 171.247,189.3 171.247,187.984L171.247,187.085C171.247,185.761 172.32,184.688 173.636,184.688Z" style="fill:white;fill-rule:nonzero;"/>
            <path d="M171.733,179.094L293.217,179.094L293.217,177.572L171.733,177.572C166.71,177.572 162.638,181.636 162.638,186.66L162.638,188.402C162.638,193.426 166.71,197.498 171.733,197.498L309.5,197.498L309.5,195.976L171.733,195.976C167.563,195.976 164.16,192.581 164.16,188.402L164.16,186.66C164.16,182.488 167.563,179.094 171.733,179.094Z" style="fill:white;fill-rule:nonzero;"/>
            <path d="M306.346,191.903L306.346,195.976L171.733,195.976C171.041,195.976 170.364,195.884 169.724,195.702L169.724,187.984C169.724,190.146 171.482,191.903 173.636,191.903L306.346,191.903Z" style="fill:rgb(98,159,214);fill-rule:nonzero;"/>
            <rect x="214.76" y="260.888" width="18.114" height="1.762" style="fill:rgb(197,226,246);fill-rule:nonzero;"/>
            <rect x="214.76" y="265.653" width="18.114" height="1.764" style="fill:rgb(197,226,246);fill-rule:nonzero;"/>
            <rect x="214.76" y="270.419" width="18.114" height="1.764" style="fill:rgb(197,226,246);fill-rule:nonzero;"/>
            <rect x="214.76" y="275.186" width="18.114" height="1.762" style="fill:rgb(197,226,246);fill-rule:nonzero;"/>
            <rect x="214.76" y="279.951" width="18.114" height="1.763" style="fill:rgb(197,226,246);fill-rule:nonzero;"/>
            <rect x="214.76" y="284.717" width="18.114" height="1.763" style="fill:rgb(197,226,246);fill-rule:nonzero;"/>
            <rect x="180.845" y="289.482" width="52.029" height="1.764" style="fill:rgb(197,226,246);fill-rule:nonzero;"/>
            <rect x="180.845" y="294.249" width="52.029" height="1.763" style="fill:rgb(197,226,246);fill-rule:nonzero;"/>
            <rect x="180.845" y="299.015" width="52.029" height="1.763" style="fill:rgb(197,226,246);fill-rule:nonzero;"/>
            <rect x="180.845" y="303.78" width="52.029" height="1.764" style="fill:rgb(197,226,246);fill-rule:nonzero;"/>
            <rect x="180.845" y="308.547" width="52.029" height="1.763" style="fill:rgb(197,226,246);fill-rule:nonzero;"/>
            <rect x="267.46" y="347.385" width="25.27" height="1.709" style="fill:rgb(197,226,246);fill-rule:nonzero;"/>
            <rect x="267.46" y="352.004" width="25.27" height="1.709" style="fill:rgb(197,226,246);fill-rule:nonzero;"/>
            <rect x="267.46" y="356.623" width="25.27" height="1.709" style="fill:rgb(197,226,246);fill-rule:nonzero;"/>
            <rect x="267.46" y="361.243" width="25.27" height="1.709" style="fill:rgb(197,226,246);fill-rule:nonzero;"/>
            <rect x="267.46" y="365.862" width="25.27" height="1.709" style="fill:rgb(197,226,246);fill-rule:nonzero;"/>
            <rect x="267.46" y="370.333" width="25.27" height="1.764" style="fill:rgb(197,226,246);fill-rule:nonzero;"/>
            <rect x="267.46" y="375.099" width="25.27" height="1.763" style="fill:rgb(197,226,246);fill-rule:nonzero;"/>
            <rect x="235.458" y="347.385" width="26.873" height="1.709" style="fill:rgb(197,226,246);fill-rule:nonzero;"/>
            <rect x="235.458" y="352.004" width="26.873" height="1.709" style="fill:rgb(197,226,246);fill-rule:nonzero;"/>
            <rect x="235.458" y="356.623" width="26.873" height="1.709" style="fill:rgb(197,226,246);fill-rule:nonzero;"/>
            <rect x="235.458" y="361.243" width="26.873" height="1.709" style="fill:rgb(197,226,246);fill-rule:nonzero;"/>
            <rect x="235.458" y="365.862" width="26.873" height="1.709" style="fill:rgb(197,226,246);fill-rule:nonzero;"/>
            <rect x="235.458" y="370.333" width="26.873" height="1.764" style="fill:rgb(197,226,246);fill-rule:nonzero;"/>
            <rect x="235.458" y="375.099" width="26.873" height="1.763" style="fill:rgb(197,226,246);fill-rule:nonzero;"/>
            <rect x="267.229" y="289.482" width="25.501" height="1.764" style="fill:rgb(197,226,246);fill-rule:nonzero;"/>
            <rect x="240.368" y="260.615" width="52.362" height="25.715" style="fill:rgb(182,215,241);fill-rule:nonzero;"/>
            <rect x="180.845" y="315.315" width="111.885" height="25.716" style="fill:rgb(98,159,214);fill-rule:nonzero;"/>
            <rect x="267.229" y="294.249" width="25.501" height="1.763" style="fill:rgb(197,226,246);fill-rule:nonzero;"/>
            <rect x="240.778" y="289.462" width="21.849" height="20.848" style="fill:rgb(182,215,241);fill-rule:nonzero;"/>
            <rect x="267.229" y="299.015" width="25.501" height="1.763" style="fill:rgb(197,226,246);fill-rule:nonzero;"/>
            <rect x="267.229" y="303.78" width="25.501" height="1.764" style="fill:rgb(197,226,246);fill-rule:nonzero;"/>
            <rect x="267.229" y="308.547" width="25.501" height="1.763" style="fill:rgb(197,226,246);fill-rule:nonzero;"/>
            <rect x="180.845" y="260.888" width="30.636" height="25.354" style="fill:rgb(98,159,214);fill-rule:nonzero;"/>
            <path d="M180.845,346.343L229.009,346.702L229.009,376.983L180.845,376.625L180.845,346.343Z" style="fill:rgb(182,215,241);fill-rule:nonzero;"/>
            <rect x="180.845" y="207.867" width="111.885" height="43.513" style="fill:rgb(25,220,166);fill-rule:nonzero;"/>
            <path d="M197.581,246.073L194.608,246.073L194.608,216.347L198.813,216.347L205.692,237.834L205.692,216.347L208.622,216.347L208.622,246.073L205.182,246.073L197.581,222.037L197.581,246.073Z" style="fill:white;fill-rule:nonzero;"/>
            <path d="M226.84,229.511L226.84,232.484L219.578,232.484L219.578,243.058L228.496,243.058L228.496,246.073L216.266,246.073L216.266,216.347L228.496,216.347L228.496,219.362L219.578,219.362L219.578,229.511L226.84,229.511Z" style="fill:white;fill-rule:nonzero;"/>
            <path d="M243.698,246.073L239.154,246.073L235.078,216.347L238.305,216.347L241.787,241.657L245.1,216.389L248.369,216.389L251.64,241.699L254.994,216.347L257.881,216.347L253.848,246.073L249.474,246.073L246.628,225.901L243.698,246.073Z" style="fill:white;fill-rule:nonzero;"/>
            <path d="M277.671,223.481L277.671,224.288L274.528,224.288L274.528,223.311C274.528,220.636 273.51,219.064 271.131,219.064C268.753,219.064 267.734,220.636 267.734,223.269C267.734,229.936 277.714,230.573 277.714,238.938C277.714,243.44 275.548,246.37 271.004,246.37C266.46,246.37 264.337,243.44 264.337,238.938L264.337,237.24L267.437,237.24L267.437,239.108C267.437,241.784 268.541,243.355 270.919,243.355C273.297,243.355 274.401,241.784 274.401,239.108C274.401,232.484 264.464,231.847 264.464,223.481C264.464,218.895 266.587,216.049 271.046,216.049C275.548,216.049 277.671,218.979 277.671,223.481Z" style="fill:white;fill-rule:nonzero;"/>
            <path d="M299.442,184.688L299.442,190.199L277.18,190.381L173.636,190.381C172.32,190.381 171.247,189.3 171.247,187.984L171.247,187.085C171.247,185.761 172.32,184.688 173.636,184.688L299.442,184.688Z" style="fill:rgb(131,177,223);fill-rule:nonzero;"/>
            <path d="M174.203,337.797C167.321,334.009 167.826,339.881 167.826,339.881C168.361,345.723 175.195,347.703 179.892,348.375L180.94,341.527C179.311,340.619 177.082,339.382 174.203,337.797Z" style="fill:rgb(60,101,176);fill-rule:nonzero;"/>
            <path d="M199.425,341.223L184.399,344.079C184.399,344.079 183.062,343.864 180.795,342.601L179.996,347.536C181.939,348.249 185.158,349.243 185.346,348.972L199.867,342.848C202.351,342.848 203.771,341.27 203.771,341.27L199.425,341.223Z" style="fill:rgb(248,165,132);fill-rule:nonzero;"/>
            <path d="M166.69,338.702L179.601,314.911C179.835,314.537 180.341,313.976 180.77,313.873C181.911,313.602 184.215,313.339 185.843,315.038C186.05,315.255 185.944,315.619 185.653,315.689L182.057,316.369C181.458,316.481 180.968,316.914 180.781,317.494L173.087,341.354L166.69,338.702Z" style="fill:rgb(248,165,132);fill-rule:nonzero;"/>
            <path d="M173.087,341.354L176.44,330.958L171.306,328.149L165.09,338.07L173.087,341.354Z" style="fill:rgb(60,101,176);fill-rule:nonzero;"/>
            <path d="M163.437,362.249L164.501,380.665L155.431,406.046L159.051,406.066L175.697,380.918L174.435,362.987L163.437,362.249Z" style="fill:rgb(28,67,130);fill-rule:nonzero;"/>
            <path d="M164.543,362.546C164.543,362.546 165.238,365.071 168.71,371.006C172.183,376.94 176.792,382.434 176.792,382.434L178.018,406.023L181.758,406.023L185.629,382.011C185.753,381.382 185.682,380.729 185.424,380.143L176.918,360.778L164.543,362.546Z" style="fill:rgb(36,96,173);fill-rule:nonzero;"/>
            <path d="M170.024,336.53C169.984,336.555 169.762,336.696 169.476,336.955C169.628,336.787 169.81,336.645 170.024,336.53Z" style="fill:url(#_Linear1);"/>
            <path d="M168.773,335.791C170.954,335.613 172.996,336.877 174.042,338.798C175.473,341.429 177.833,346.237 177.911,349.461L178.259,363.957C178.259,363.957 170.463,367.808 162.282,362.803C162.282,362.803 165.259,354.317 163.918,345.862C162.889,339.371 165.441,336.063 168.773,335.791Z" style="fill:rgb(60,101,176);fill-rule:nonzero;"/>
            <path d="M175.196,364.949C175.246,361.193 174.481,354.491 174.073,351.207C173.938,350.118 173.321,349.171 172.423,348.541C170.045,346.874 168.822,343.748 168.254,341.743C169.632,345.442 173.94,347.178 177.746,347.984C177.844,348.502 177.905,348.996 177.913,349.461L178.255,363.96C178.255,363.96 177.091,364.531 175.196,364.949Z" style="fill:rgb(36,96,173);fill-rule:nonzero;"/>
            <path d="M176.954,329.367L176.437,330.958L172.167,328.621L175.348,322.753C175.782,324.693 176.535,327.708 176.954,329.367Z" style="fill:rgb(239,128,95);fill-rule:nonzero;"/>
            <path d="M173.793,330.516C173.504,328.675 173.146,326.95 171.519,327.205C169.89,327.46 167.689,329.683 167.978,331.524C168.079,332.168 168.359,332.726 168.742,333.178L167.081,333.178L167.081,336.631L171.515,336.631L171.515,334.315L171.596,334.312C173.224,334.056 174.081,332.356 173.793,330.516Z" style="fill:rgb(248,165,132);fill-rule:nonzero;"/>
            <path d="M169.568,330.791C169.568,330.791 168.83,329.901 168.349,330.489C167.869,331.076 167.628,331.957 169.017,332.464C169.017,332.464 168.589,334.84 166.507,334.546C164.425,334.252 162.584,332.224 163.465,329.421C164.346,326.619 165.12,324.51 168.269,324.644C171.418,324.777 173.688,324.51 173.474,323.709C173.474,323.709 174.889,327.438 173.594,327.909C172.299,328.381 170.832,328.381 170.832,328.381C170.832,328.381 170.493,330.692 169.568,330.791Z" style="fill:rgb(28,67,130);fill-rule:nonzero;"/>
            <path d="M171.515,336.631L171.515,334.353L171.479,334.317C171.479,334.317 170.651,334.414 169.669,334.145C169.669,334.145 170.323,334.856 170.708,335.029C170.875,335.104 170.897,335.831 170.869,336.631L171.515,336.631Z" style="fill:rgb(239,128,95);fill-rule:nonzero;"/>
            <path d="M178.151,406.019L178.151,408.743L185.582,408.743C186.004,408.743 186.169,408.196 185.818,407.962C184.731,407.238 182.99,406.241 181.373,406.019L178.151,406.019Z" style="fill:rgb(28,67,130);fill-rule:nonzero;"/>
            <path d="M155.441,406.019L155.441,408.743L162.873,408.743C163.295,408.743 163.46,408.196 163.108,407.962C162.021,407.238 160.281,406.241 158.663,406.019L155.441,406.019Z" style="fill:rgb(28,67,130);fill-rule:nonzero;"/>
            <path d="M175.196,365.646L183.989,382.625L180.768,406.721L181.758,406.721L185.629,382.707C185.753,382.078 185.682,381.427 185.424,380.84L177.839,363.572L175.196,365.646Z" style="fill:rgb(28,67,130);fill-rule:nonzero;"/>
            <path d="M164.276,363.841C166.453,360.012 166.722,350.346 165.111,346.269C162.966,340.838 166.671,336.451 166.671,336.451C164.475,337.729 163.122,340.838 163.918,345.862C165.259,354.317 162.282,362.803 162.282,362.803C162.952,363.212 163.616,363.543 164.276,363.841Z" style="fill:rgb(73,126,192);fill-rule:nonzero;"/>
            <path d="M402.835,329.7L329.323,329.7L329.323,378.111C329.323,388.954 338.113,397.744 348.956,397.744L383.201,397.744C394.045,397.744 402.835,388.954 402.835,378.111L402.835,329.7Z" style="fill:rgb(212,235,250);fill-rule:nonzero;"/>
            <path d="M333.778,378.111L333.778,329.7L329.323,329.7L329.323,378.111C329.323,388.954 338.113,397.744 348.956,397.744L353.412,397.744C342.568,397.744 333.778,388.954 333.778,378.111Z" style="fill:white;fill-rule:nonzero;"/>
            <path d="M381.268,329.7L381.268,378.111C381.268,388.954 372.478,397.744 361.634,397.744L383.201,397.744C394.045,397.744 402.835,388.954 402.835,378.111L402.835,329.7L381.268,329.7Z" style="fill:rgb(182,215,241);fill-rule:nonzero;"/>
            <path d="M402.808,329.675C402.808,326.403 386.357,323.752 366.065,323.752C345.773,323.752 329.323,326.403 329.323,329.675C329.323,332.946 345.773,335.599 366.065,335.599C386.357,335.599 402.808,332.946 402.808,329.675Z" style="fill:rgb(182,215,241);fill-rule:nonzero;"/>
            <path d="M366.065,334.225C343.707,334.225 332.143,331.291 330.763,329.675C332.143,328.06 343.707,325.125 366.065,325.125C388.424,325.125 399.987,328.06 401.367,329.675C399.987,331.291 388.424,334.225 366.065,334.225Z" style="fill:rgb(14,247,183);fill-rule:nonzero;"/>
            <path d="M360.732,326.603C374.506,326.603 386.044,329.295 389.108,332.916C396.534,331.928 400.586,330.59 401.367,329.675C399.987,328.06 388.424,325.125 366.065,325.125C343.707,325.125 332.143,328.06 330.763,329.675C331.155,330.134 332.37,330.698 334.417,331.272C339.125,328.51 349.139,326.603 360.732,326.603Z" style="fill:rgb(25,220,166);fill-rule:nonzero;"/>
            <path d="M395.105,344.247C395.098,345.769 396.27,347.129 397.964,347.476C401.13,348.124 403.837,349.561 405.921,351.724C408.688,354.596 410.199,358.629 410.177,363.08C410.154,367.531 408.604,371.549 405.809,374.393C403.703,376.535 400.981,377.945 397.81,378.562C396.111,378.892 394.927,380.239 394.919,381.762C394.908,383.871 397.127,385.452 399.49,385.025C410.893,382.969 417.438,373.958 417.491,363.116C417.545,352.274 411.091,343.199 399.709,341.028C397.351,340.579 395.116,342.138 395.105,344.247Z" style="fill:rgb(212,235,250);fill-rule:nonzero;"/>
            <path d="M395.301,382.24L395.301,382.239C395.309,380.683 396.493,379.304 398.191,378.966C401.363,378.335 404.085,376.893 406.19,374.7C408.986,371.79 410.538,367.679 410.561,363.125C410.583,358.571 409.072,354.445 406.307,351.508C404.223,349.295 401.516,347.825 398.35,347.163C396.655,346.808 395.483,345.417 395.492,343.86C395.495,343.166 395.746,342.542 396.14,342.014C395.515,342.596 395.11,343.367 395.105,344.247C395.098,345.769 396.27,347.129 397.964,347.476C401.13,348.124 403.837,349.561 405.921,351.724C408.688,354.596 410.199,358.629 410.177,363.08C410.154,367.531 408.604,371.549 405.809,374.393C403.703,376.535 400.981,377.945 397.81,378.562C396.111,378.892 394.927,380.239 394.919,381.762C394.915,382.565 395.238,383.291 395.767,383.859C395.476,383.379 395.298,382.834 395.301,382.24Z" style="fill:white;fill-rule:nonzero;"/>
            <path d="M399.709,341.028C398.242,340.749 396.824,341.247 395.958,342.17C396.581,341.996 397.268,341.952 397.967,342.08C409.35,344.158 415.806,352.84 415.754,363.21C415.703,373.58 409.16,382.197 397.758,384.162C397.167,384.264 396.585,384.246 396.044,384.129C396.91,384.878 398.177,385.263 399.49,385.025C410.893,382.969 417.438,373.958 417.491,363.116C417.545,352.274 411.091,343.199 399.709,341.028Z" style="fill:rgb(182,215,241);fill-rule:nonzero;"/>
            <path d="M113.464,190.407C119.469,190.407 119.787,181.468 113.794,181.086L113.624,181.076L113.627,180.964C113.627,174.575 108.447,169.396 102.058,169.396C100.043,169.396 98.15,169.911 96.501,170.816C94.474,167.045 90.493,164.481 85.913,164.481C79.278,164.481 73.9,169.859 73.9,176.494C73.9,176.85 73.918,177.202 73.949,177.55C72.719,177.197 71.422,177.003 70.079,177.003C65.239,177.003 60.974,179.461 58.462,183.196C56.397,186.27 58.671,190.407 62.374,190.407L113.464,190.407Z" style="fill:rgb(182,215,241);fill-rule:nonzero;"/>
            <path d="M188.15,131.748C194.065,131.748 194.379,122.94 188.475,122.564L188.307,122.554L188.31,122.444C188.31,116.149 183.207,111.046 176.912,111.046C174.927,111.046 173.062,111.554 171.437,112.446C169.44,108.731 165.519,106.205 161.006,106.205C154.469,106.205 149.17,111.503 149.17,118.04C149.17,118.391 149.189,118.737 149.219,119.08C148.007,118.732 146.729,118.542 145.406,118.542C140.638,118.542 136.436,120.963 133.961,124.643C131.926,127.67 134.167,131.748 137.815,131.748L188.15,131.748Z" style="fill:rgb(182,215,241);fill-rule:nonzero;"/>
            <path d="M402.085,191.439C396.761,191.439 396.479,183.514 401.792,183.175L401.943,183.166L401.94,183.067C401.94,177.402 406.533,172.81 412.198,172.81C413.984,172.81 415.663,173.267 417.125,174.069C418.922,170.726 422.451,168.452 426.513,168.452C432.395,168.452 437.164,173.221 437.164,179.103C437.164,179.419 437.147,179.73 437.12,180.04C438.21,179.726 439.36,179.555 440.552,179.555C444.843,179.555 448.624,181.734 450.851,185.046C452.683,187.771 450.666,191.439 447.383,191.439L402.085,191.439Z" style="fill:rgb(182,215,241);fill-rule:nonzero;"/>
            <path d="M348.67,125.559C342.35,125.559 342.016,116.149 348.322,115.747L348.503,115.737L348.499,115.619C348.499,108.894 353.952,103.441 360.678,103.441C362.798,103.441 364.791,103.984 366.526,104.937C368.66,100.968 372.851,98.268 377.672,98.268C384.655,98.268 390.316,103.93 390.316,110.914C390.316,111.288 390.297,111.658 390.266,112.025C391.56,111.653 392.925,111.45 394.339,111.45C399.434,111.45 403.923,114.037 406.566,117.969C408.741,121.203 406.347,125.559 402.449,125.559L348.67,125.559Z" style="fill:rgb(182,215,241);fill-rule:nonzero;"/>
            <path d="M442.236,116.144C442.236,99.127 428.441,85.332 411.425,85.332C394.407,85.332 380.612,99.127 380.612,116.144C380.612,133.161 394.407,146.956 411.425,146.956C428.441,146.956 442.236,133.161 442.236,116.144Z" style="fill:rgb(14,247,183);fill-rule:nonzero;"/>
            <path d="M411.425,146.956L411.38,146.956L411.425,146.956C411.624,146.956 411.823,146.954 412.022,146.95C411.823,146.954 411.624,146.956 411.425,146.956ZM411.365,146.956C411.354,146.955 411.344,146.955 411.333,146.955C411.344,146.955 411.354,146.955 411.365,146.956ZM411.318,146.955L411.285,146.955L411.318,146.955ZM411.272,146.955L411.227,146.955L411.272,146.955ZM411.216,146.955L411.182,146.955L411.216,146.955ZM411.166,146.954L411.135,146.954L411.166,146.954ZM411.119,146.954L411.086,146.954L411.119,146.954ZM411.073,146.954C411.059,146.953 411.044,146.953 411.03,146.953C411.044,146.953 411.059,146.953 411.073,146.954ZM411.014,146.953C411.004,146.953 410.994,146.953 410.985,146.952C410.994,146.953 411.005,146.953 411.014,146.953ZM410.966,146.952L410.939,146.952L410.966,146.952ZM410.919,146.951L410.892,146.951L410.919,146.951ZM410.874,146.951C410.861,146.951 410.847,146.95 410.833,146.95C410.847,146.95 410.861,146.951 410.874,146.951ZM410.812,146.95C410.804,146.949 410.797,146.949 410.788,146.949C410.797,146.949 410.804,146.949 410.812,146.95ZM410.765,146.949C410.758,146.948 410.752,146.948 410.745,146.948C410.752,146.948 410.758,146.948 410.765,146.949ZM410.72,146.948C410.714,146.948 410.709,146.947 410.704,146.947C410.709,146.947 410.715,146.948 410.72,146.948ZM410.642,146.946L410.639,146.946L410.642,146.946ZM410.606,146.945L410.596,146.945L410.606,146.945ZM410.564,146.944C410.562,146.944 410.557,146.944 410.555,146.943C410.558,146.944 410.561,146.944 410.564,146.944ZM410.406,146.939L410.403,146.939L410.406,146.939ZM442.236,116.144L442.236,116.095L442.236,116.144ZM442.236,116.081L442.236,116.046L442.236,116.081ZM442.236,116.029L442.236,115.998L442.236,116.029ZM442.236,115.978L442.236,115.95L442.236,115.978ZM442.236,115.928C442.235,115.919 442.235,115.911 442.235,115.901C442.235,115.91 442.236,115.919 442.236,115.928ZM442.235,115.879L442.235,115.852L442.235,115.879ZM442.235,115.831C442.235,115.822 442.235,115.813 442.234,115.804C442.235,115.814 442.235,115.821 442.235,115.831ZM442.234,115.782L442.234,115.756L442.234,115.782ZM442.234,115.733C442.233,115.725 442.233,115.716 442.233,115.708C442.233,115.716 442.234,115.725 442.234,115.733ZM442.233,115.684L442.233,115.66L442.233,115.684ZM442.232,115.636L442.232,115.612L442.232,115.636ZM442.231,115.588L442.231,115.563L442.231,115.588ZM442.23,115.539L442.23,115.516L442.23,115.539ZM442.23,115.491C442.229,115.483 442.229,115.476 442.229,115.467C442.229,115.475 442.229,115.483 442.23,115.491ZM442.228,115.443L442.228,115.418L442.228,115.443ZM442.227,115.395L442.227,115.373L442.227,115.395ZM442.224,115.254L442.224,115.252L442.224,115.254ZM442.223,115.22C442.223,115.214 442.222,115.21 442.222,115.204C442.222,115.21 442.223,115.214 442.223,115.22ZM442.221,115.171L442.221,115.157L442.221,115.171ZM442.22,115.125C442.22,115.119 442.219,115.114 442.219,115.108C442.219,115.113 442.22,115.12 442.22,115.125ZM442.218,115.078L442.218,115.061L442.218,115.078ZM442.217,115.03C442.216,115.025 442.216,115.018 442.216,115.013C442.216,115.019 442.216,115.024 442.217,115.03ZM442.215,114.981C442.215,114.977 442.214,114.971 442.214,114.967C442.214,114.972 442.215,114.976 442.215,114.981ZM442.213,114.932C442.213,114.927 442.213,114.925 442.212,114.919C442.213,114.923 442.213,114.929 442.213,114.932ZM442.211,114.885L442.211,114.872L442.211,114.885ZM442.209,114.837L442.209,114.825L442.209,114.837ZM442.207,114.789L442.207,114.78L442.207,114.789ZM442.205,114.741L442.205,114.734L442.205,114.741ZM442.203,114.694L442.203,114.689L442.203,114.694ZM442.201,114.646C442.201,114.645 442.201,114.645 442.2,114.644C442.201,114.645 442.201,114.645 442.201,114.646Z" style="fill:rgb(253,213,184);fill-rule:nonzero;"/>
            <path d="M411.425,146.956L411.365,146.956C411.354,146.955 411.344,146.955 411.333,146.955L411.182,146.955C411.177,146.955 411.171,146.955 411.166,146.954L411.073,146.954C411.059,146.953 411.044,146.953 411.03,146.953L411.014,146.953C411.005,146.953 410.994,146.953 410.985,146.952L410.939,146.952C410.932,146.952 410.927,146.952 410.919,146.951L410.874,146.951C410.861,146.951 410.847,146.95 410.833,146.95L410.812,146.95C410.804,146.949 410.797,146.949 410.788,146.949L410.765,146.949C410.758,146.948 410.752,146.948 410.745,146.948L410.72,146.948C410.715,146.948 410.709,146.947 410.704,146.947C410.683,146.947 410.662,146.946 410.642,146.946L410.639,146.946C410.628,146.945 410.617,146.945 410.606,146.945L410.596,146.945C410.585,146.944 410.575,146.944 410.564,146.944C410.561,146.944 410.558,146.944 410.555,146.943C410.505,146.942 410.456,146.941 410.406,146.939L410.403,146.939C397.397,146.514 386.435,138.027 382.339,126.315C387.131,131.462 393.962,134.686 401.549,134.686C416.044,134.686 427.794,122.935 427.794,108.44C427.794,98.549 422.319,89.938 414.236,85.465C429.443,86.842 441.463,99.262 442.2,114.644C442.201,114.645 442.201,114.645 442.201,114.646C442.201,114.661 442.202,114.674 442.203,114.689L442.203,114.694C442.203,114.707 442.204,114.721 442.205,114.734L442.205,114.741C442.206,114.754 442.206,114.768 442.207,114.78L442.207,114.789C442.208,114.801 442.208,114.813 442.209,114.825L442.209,114.837C442.21,114.849 442.21,114.861 442.211,114.872L442.211,114.885C442.212,114.897 442.212,114.908 442.212,114.919C442.213,114.925 442.213,114.927 442.213,114.932C442.213,114.944 442.214,114.955 442.214,114.967C442.214,114.971 442.215,114.977 442.215,114.981C442.215,114.991 442.216,115.002 442.216,115.013C442.216,115.018 442.216,115.025 442.217,115.03C442.217,115.041 442.217,115.05 442.218,115.061L442.218,115.078C442.219,115.088 442.219,115.098 442.219,115.108C442.219,115.114 442.22,115.119 442.22,115.125C442.22,115.136 442.22,115.146 442.221,115.157L442.221,115.171C442.222,115.181 442.222,115.193 442.222,115.204C442.222,115.21 442.223,115.214 442.223,115.22C442.223,115.231 442.223,115.241 442.224,115.252L442.224,115.254C442.225,115.293 442.226,115.334 442.227,115.373L442.227,115.395C442.228,115.402 442.228,115.41 442.228,115.418L442.228,115.443C442.229,115.451 442.229,115.459 442.229,115.467C442.229,115.476 442.229,115.483 442.23,115.491L442.23,115.539C442.231,115.547 442.231,115.556 442.231,115.563L442.231,115.588C442.232,115.596 442.232,115.604 442.232,115.612L442.232,115.636C442.232,115.644 442.232,115.652 442.233,115.66L442.233,115.708C442.233,115.716 442.233,115.725 442.234,115.733L442.234,115.804C442.235,115.813 442.235,115.822 442.235,115.831L442.235,115.901C442.235,115.911 442.235,115.919 442.236,115.928L442.236,116.144C442.236,132.961 428.763,146.632 412.022,146.95C411.823,146.954 411.624,146.956 411.425,146.956Z" style="fill:rgb(25,220,166);fill-rule:nonzero;"/>
            <path d="M339.526,378.057L337.098,381.531L325.941,376.102C325.941,376.102 325.731,374.142 325.182,374.084C324.9,374.055 324.752,374.395 324.672,374.735C324.123,374.201 323.531,373.713 323.201,373.714C322.461,373.719 324.322,376.703 324.614,377.255C325.167,378.301 332.29,383.242 340.262,386.751L343.438,380.787L339.526,378.057Z" style="fill:rgb(248,165,132);fill-rule:nonzero;"/>
            <path d="M325.237,374.428L323.631,367.69C323.581,367.476 323.364,367.32 323.146,367.343L322.407,367.451C322.189,367.475 322.054,367.668 322.104,367.883L323.71,374.62C323.733,374.838 323.929,374.996 324.146,374.973L324.886,374.864C325.104,374.841 325.261,374.646 325.237,374.428Z" style="fill:rgb(28,67,130);fill-rule:nonzero;"/>
            <path d="M324.908,381.65C322.478,381.862 300.659,402.678 300.659,402.678L305.658,402.608L324.676,391.407C324.676,391.407 337.619,401.743 348.642,401.921C353.429,401.998 353.59,396.123 353.59,396.123C353.59,396.123 330.833,381.133 324.908,381.65Z" style="fill:rgb(28,67,130);fill-rule:nonzero;"/>
            <path d="M353.513,396.974C353.513,396.974 352.235,403.9 345.209,404.897L290.042,404.623L290.273,400.182L338.051,394.731L353.513,396.974Z" style="fill:rgb(24,57,102);fill-rule:nonzero;"/>
            <path d="M345.076,371.133C345.076,371.133 342.586,371.436 341.143,373.343C340.349,374.392 337.857,379.231 337.857,379.231L343.336,382.535L345.076,371.133Z" style="fill:rgb(36,96,173);fill-rule:nonzero;"/>
            <path d="M343.928,363.744C343.928,363.744 342.029,363.461 341.549,362.064C340.947,360.313 341.909,358.006 343.022,358.039C343.022,358.039 344.92,358.246 347.331,358.759C348.243,358.953 349.063,358.28 349.774,358.355C351.599,358.548 356.059,363.374 350.407,368.522L346.235,365.55L343.928,363.744Z" style="fill:rgb(28,67,130);fill-rule:nonzero;"/>
            <path d="M351.193,364.103C350.743,363.622 350.223,364.011 350.223,364.011L350.202,364.033C348.869,363.717 347.583,362.216 347.583,362.216C346.902,363.115 343.905,363.741 343.905,363.741L343.905,365.744C343.905,367.49 345.19,368.907 346.823,369.053L346.791,371.643L350.56,370.478L350.56,366.54C351.354,366.216 351.58,364.516 351.193,364.103Z" style="fill:rgb(248,165,132);fill-rule:nonzero;"/>
            <path d="M347.867,369.539C348.13,369.382 349.443,367.517 349.443,367.517C348.916,368.294 346.995,369.017 346.822,369.08L346.791,371.643L347.772,371.34C347.736,370.505 347.73,369.621 347.867,369.539Z" style="fill:rgb(239,128,95);fill-rule:nonzero;"/>
            <path d="M369,405.513C369,405.513 364.052,394.02 360.96,383.402C359.698,384.232 358.279,385.297 356.711,385.946L366.462,405.19C366.462,405.19 367.234,407.149 368.395,407.227C369.554,407.304 372.481,407.869 372.505,407.626C372.556,407.085 369,405.513 369,405.513Z" style="fill:rgb(248,165,132);fill-rule:nonzero;"/>
            <path d="M357.36,372.881C355.781,371.574 351.999,370.733 350.655,370.468C350.343,370.405 350.025,370.398 349.709,370.444L345.054,371.12C340.752,373.638 342.12,376.858 340.588,382.489C339.057,388.121 336.624,394.248 336.624,394.248C340.183,397.131 352.7,399.061 352.7,399.061C354.701,396.97 354.788,389.222 354.923,384.366L356.626,386.229C356.626,386.229 362.319,383.325 362.258,383.12C361.446,380.417 357.36,372.881 357.36,372.881Z" style="fill:rgb(60,101,176);fill-rule:nonzero;"/>
            <path d="M290.022,404.621L287.813,404.413C287.261,404.361 286.855,403.872 286.907,403.32L287.635,395.567C287.682,395.071 288.342,394.934 288.578,395.372C289.311,396.731 290.295,398.895 290.378,400.827L290.022,404.621Z" style="fill:rgb(28,67,130);fill-rule:nonzero;"/>
            <path d="M348.392,398.265C350.859,398.776 352.7,399.061 352.7,399.061C354.701,396.97 354.788,389.222 354.923,384.366L353.177,380.894C353.177,380.894 352.917,392.61 348.392,398.265Z" style="fill:rgb(73,126,192);fill-rule:nonzero;"/>
            <path d="M352.942,398.76C352.058,400.885 349.933,404.23 345.207,404.901L290.042,404.622L290.061,404.352C299.446,404.091 335.412,403.075 340.967,402.897C347.351,402.692 348.395,398.266 348.395,398.266L348.404,398.266C350.864,398.778 352.7,399.058 352.7,399.058C352.784,398.965 352.868,398.872 352.942,398.76Z" style="fill:rgb(28,67,130);fill-rule:nonzero;"/>
            <path d="M166.316,163.271C166.316,163.271 164.688,163.996 164.043,165.228C163.399,166.459 163.556,177.822 160.313,178.454C157.07,179.085 150.776,179.762 150.776,179.762L150.984,182.124L167.885,179.84L166.316,163.271Z" style="fill:rgb(36,96,173);fill-rule:nonzero;"/>
            <path d="M163.913,180.352L173.618,189.497C173.618,189.497 169.077,194.216 158.534,191.775L147.437,190.361L131.833,208.928L128.746,207.676L142.292,184.555C142.826,183.657 143.748,183.06 144.786,182.939L163.913,180.352Z" style="fill:rgb(24,57,102);fill-rule:nonzero;"/>
            <path d="M169.63,161.376C171.285,162.538 181.718,170.76 175.034,189.297L163.504,180.271C163.504,180.271 165.634,174.708 165.108,170.186C164.2,162.378 168.487,161.594 169.18,161.321C169.332,161.262 169.497,161.283 169.63,161.376Z" style="fill:rgb(60,101,176);fill-rule:nonzero;"/>
            <path d="M163.722,180.422L174.884,188.929C174.884,188.929 172.672,192.737 161.878,193.528L150.949,194.862L141.419,217.062L138.036,216.905L144.316,190.84C144.56,189.825 145.264,188.981 146.219,188.559L163.722,180.422Z" style="fill:rgb(28,67,130);fill-rule:nonzero;"/>
            <path d="M154.303,168.797L151.698,163.246C151.616,163.068 151.4,162.972 151.215,163.032L150.594,163.258C150.409,163.318 150.326,163.51 150.408,163.687L153.013,169.239C153.073,169.423 153.271,169.525 153.456,169.465L154.077,169.239C154.261,169.179 154.363,168.981 154.303,168.797Z" style="fill:rgb(28,67,130);fill-rule:nonzero;"/>
            <path d="M150.83,180.208C150.83,180.208 147.136,180.722 147.472,182.567L150.984,182.124L150.83,180.208Z" style="fill:rgb(248,165,132);fill-rule:nonzero;"/>
            <path d="M155.261,169.919C155.261,169.919 154.68,168.459 154.192,168.509C153.944,168.534 153.876,168.855 153.868,169.166C153.296,168.801 152.695,168.484 152.409,168.545C151.769,168.682 153.919,170.934 154.271,171.36C154.38,171.491 154.691,171.719 155.139,172.005L156.02,170.325L155.261,169.919Z" style="fill:rgb(248,165,132);fill-rule:nonzero;"/>
            <path d="M171.336,163.679C169.556,163.115 167.678,164.21 167.292,166.038L165.864,172.819L156.085,169.801L155.086,172.254C157.393,173.723 163.787,177.055 170.101,178.4L173.394,167.637C173.917,165.976 172.996,164.205 171.336,163.679Z" style="fill:rgb(60,101,176);fill-rule:nonzero;"/>
            <path d="M174.906,166.795C174.906,166.795 171.859,181.189 171.208,181.639C170.547,182.098 164.02,176.579 164.02,176.579C165.957,177.307 168.034,177.962 170.104,178.4L173.167,168.354L174.906,166.795Z" style="fill:rgb(36,96,173);fill-rule:nonzero;"/>
            <path d="M141.37,216.913L141.37,219.608L134.02,219.608C133.602,219.608 133.439,219.067 133.787,218.835C134.861,218.119 136.583,217.133 138.184,216.913L141.37,216.913Z" style="fill:rgb(28,67,130);fill-rule:nonzero;"/>
            <path d="M131.844,208.909L130.619,211.404L124.018,208.728C123.629,208.575 123.675,208.012 124.083,207.923C125.346,207.65 127.24,207.308 128.81,207.689L131.844,208.909Z" style="fill:rgb(28,67,130);fill-rule:nonzero;"/>
            <path d="M149.213,193.8L140.602,217.024L141.419,217.062L150.949,194.862L161.878,193.528C172.672,192.737 174.884,188.929 174.884,188.929L172.721,187.28C167.265,191.387 149.213,193.8 149.213,193.8Z" style="fill:rgb(21,101,175);fill-rule:nonzero;"/>
            <path d="M175.059,167.965C176.168,172.534 176.987,177.573 176.032,181.481C175.24,184.722 172.721,187.28 172.721,187.28L175.034,189.297C178.594,179.424 177.298,172.478 175.059,167.965Z" style="fill:rgb(73,126,192);fill-rule:nonzero;"/>
            <path d="M161.055,154.89C162.042,152.973 164.579,152.394 166.529,153.398C168.479,154.402 169.26,156.771 168.273,158.687C168.176,158.875 168.061,159.054 167.938,159.227L168.764,161.718L165.426,163.848L165.225,161.046C164.105,161.536 163.217,161.213 162.474,160.831C160.524,159.826 160.068,156.806 161.055,154.89Z" style="fill:rgb(248,165,132);fill-rule:nonzero;"/>
            <path d="M165.766,156.565C165.766,156.565 166.916,156.056 167.102,157.091C167.288,158.126 166.412,158.979 167.586,160.651C168.759,162.324 168.891,161.77 167.83,165.266C166.769,168.762 169.442,171.816 174.578,171.178C179.714,170.539 180.364,164.692 176.333,160.399C172.301,156.106 171.397,154.315 169.264,152.206C167.131,150.096 160.957,149.564 160.333,155.621C160.333,155.621 162.282,156.129 164.102,155.782L164.112,157.307C164.113,157.527 164.368,157.651 164.542,157.515L165.766,156.565Z" style="fill:rgb(63,64,64);fill-rule:nonzero;"/>
            <path d="M166.006,161.639C165.994,161.254 166.852,159.613 166.65,159.865C166.448,160.117 165.225,161.046 165.225,161.046L165.426,163.848L166.3,163.29C166.148,162.529 166.012,161.807 166.006,161.639Z" style="fill:rgb(239,128,95);fill-rule:nonzero;"/>
        </g>
    </g>
    <defs>
        <linearGradient id="_Linear1" x1="0" y1="0" x2="1" y2="0" gradientUnits="userSpaceOnUse" gradientTransform="matrix(-0.0819352,-0.126852,0.126852,-0.0819352,169.801,336.822)"><stop offset="0" style="stop-color:rgb(238,59,135);stop-opacity:1"/><stop offset="1" style="stop-color:rgb(242,133,181);stop-opacity:1"/></linearGradient>
    </defs>
</svg>
