<?xml version="1.0" encoding="UTF-8" standalone="no"?><!DOCTYPE svg PUBLIC "-//W3C//DTD SVG 1.1//EN" "http://www.w3.org/Graphics/SVG/1.1/DTD/svg11.dtd"><svg width="400" height="100%" viewBox="0 0 3571 2485" version="1.1" xmlns="http://www.w3.org/2000/svg" xmlns:xlink="http://www.w3.org/1999/xlink" xml:space="preserve" xmlns:serif="http://www.serif.com/" style="fill-rule:evenodd;clip-rule:evenodd;stroke-linejoin:round;stroke-miterlimit:1.41421;"><path d="M2508.59,1668.39c35.736,35.054 36.58,93.196 1.876,129.272l-580.752,601.075c-17.265,17.868 -41.074,27.97 -65.92,27.97c-24.234,0 -47.506,-9.61 -64.679,-26.709l-1772.13,-1764.45c-17.266,-17.196 -26.983,-40.587 -26.983,-64.955c0,-30.966 15.689,-59.912 41.636,-76.814l696.838,-453.871c35.781,-23.547 83.571,-18.844 114.075,11.228l1656.04,1617.26Z" style="fill:#3f3d56;fill-rule:nonzero;"/><path d="M14.836,520.58c3.517,5.399 7.589,10.415 12.151,14.965l1767.97,1797.79c17.173,17.099 40.444,26.709 64.678,26.709c24.847,0 48.656,-10.103 65.921,-27.971l593.251,-626.074c4.042,-4.2 7.672,-8.778 10.841,-13.67c22.75,35.001 10.985,74.125 -19.174,105.336l-580.752,601.075c-17.265,17.868 -41.074,27.97 -65.92,27.97c-24.234,0 -47.506,-9.61 -64.679,-26.709l-1772.13,-1764.45c-30.624,-30.508 -35.721,-78.73 -12.151,-114.965Z" style="fill:#3f3d56;fill-rule:nonzero;"/><path d="M178.917,542.326l72.115,-45.979c-5.763,10.269 -8.79,21.85 -8.79,33.626c0,37.694 31.017,68.711 68.71,68.711c13.917,0 27.51,-4.228 38.972,-12.122l466.667,-320.833c18.642,-12.795 29.809,-34.005 29.809,-56.616c0,-29.868 -19.487,-56.468 -47.965,-65.473l37.154,-23.689c9.898,-6.31 22.973,-4.841 31.223,3.508l1569.9,1542.79c4.622,4.678 7.217,10.996 7.217,17.572c0,6.883 -2.842,13.468 -7.85,18.19l-570.149,555.546c-9.766,9.207 -25.293,8.992 -34.799,-0.483l-1656.42,-1675.96c-4.704,-4.689 -7.351,-11.065 -7.351,-17.707c0,-8.531 4.366,-16.494 11.559,-21.08Z" style="fill:#fff;fill-rule:nonzero;"/><path d="M1990.82,1325.58l-481.596,454.075l-1145.51,-1131.75l581.354,-378.396l1045.75,1056.07Z" style="fill:#e6e6e6;fill-rule:nonzero;"/><path d="M408.241,927.216c-6.557,6.257 -17.014,6.257 -23.572,0l-100.175,-100.173c-6.451,-6.472 -6.451,-17.099 0,-23.57c6.558,-6.258 17.015,-6.258 23.572,0l100.175,100.173c6.451,6.471 6.451,17.098 0,23.57Z" style="fill:#3f3d56;fill-rule:nonzero;"/><path d="M576.991,1095.97c-6.472,6.451 -17.1,6.451 -23.572,0l-100.175,-100.175c-3.114,-3.124 -4.864,-7.359 -4.864,-11.769c0,-9.144 7.524,-16.668 16.668,-16.668c4.41,0 8.645,1.751 11.768,4.865l100.175,100.175c6.453,6.471 6.453,17.1 0,23.572Z" style="fill:#3f3d56;fill-rule:nonzero;"/><circle cx="1979.7" cy="1715.34" r="112.5" style="fill:#00bfa6;"/><rect x="1158.87" y="743.216" width="1189.21" height="234.792" style="fill:#e6e6e6;"/><rect x="1158.87" y="372.219" width="1189.21" height="234.792" style="fill:#e6e6e6;"/><rect x="1158.87" y="0" width="1189.21" height="234.792" style="fill:#e6e6e6;"/><rect x="1184.22" y="25.352" width="1138.5" height="184.087" style="fill:#fff;fill-rule:nonzero;"/><rect x="1184.22" y="398.39" width="1138.5" height="184.087" style="fill:#fff;fill-rule:nonzero;"/><rect x="1184.22" y="768.569" width="1138.5" height="184.087" style="fill:#fff;fill-rule:nonzero;"/><circle cx="1283.89" cy="115.871" r="70.133" style="fill:#00bfa6;"/><rect x="1451.6" y="88.428" width="692.179" height="15.246" style="fill:#00bfa6;"/><rect x="1451.6" y="128.068" width="692.179" height="15.246" style="fill:#00bfa6;"/><circle cx="1283.89" cy="491.139" r="70.133" style="fill:#ccc;"/><rect x="1451.6" y="463.696" width="692.179" height="15.246" style="fill:#ccc;"/><rect x="1451.6" y="503.336" width="692.179" height="15.246" style="fill:#ccc;"/><circle cx="1283.89" cy="862.137" r="70.133" style="fill:#ccc;"/><rect x="1451.6" y="834.694" width="692.179" height="15.246" style="fill:#ccc;"/><rect x="1451.6" y="874.334" width="692.179" height="15.246" style="fill:#ccc;"/><path d="M3517.26,2461.35l-30.679,3.603c-24.232,14.61 -52.675,20.11 -84.175,18.99c-8.937,-0.267 -17.089,-5.263 -21.384,-13.104c-1.982,-3.659 -3.021,-7.756 -3.021,-11.917c0,-11.59 8.054,-21.736 19.342,-24.365l23.311,-5.429l56.249,-55.014l33.935,-61.415l49.292,5.653l10.261,78.008c2.69,32.246 -20.994,61.215 -53.131,64.99Z" style="fill:#2f2e41;fill-rule:nonzero;"/><path d="M3039.45,2421.88l-30.069,7.075c-22.41,17.276 -50.04,25.981 -81.463,28.458c-8.909,0.752 -17.577,-3.282 -22.738,-10.583c-2.942,-4.204 -4.522,-9.214 -4.522,-14.346c0,-10.547 6.67,-20.011 16.603,-23.559l22.54,-8.05l49.616,-61.065l26.715,-64.881l49.616,0l19.082,76.331c6.346,31.729 -13.882,63.209 -45.38,70.62Z" style="fill:#2f2e41;fill-rule:nonzero;"/><path d="M3014.8,2279.25l56.108,8.632l88.477,-446.702l153.216,-261.116l185.587,759.609l69.055,12.948c-7.744,-427.765 30.051,-966.301 -56.108,-1031.51l-375.488,43.159l-164.006,440.228l43.159,474.756Z" style="fill:#2f2e41;fill-rule:nonzero;"/><circle cx="3286.71" cy="526.97" r="129.479" style="fill:#ffb8b8;"/><path d="M3467.98,725.504l-155.375,25.896l-38.846,-138.112l112.217,-34.525l82.004,146.741Z" style="fill:#ffb8b8;fill-rule:nonzero;"/><path d="M3532.72,1338.37l-414.332,38.843c33.217,-115.501 63.65,-230.597 38.844,-345.276c-31.501,-102.382 -1.096,-163.265 82.003,-211.482l56.107,-125.163l151.059,-17.264c39.994,64.304 56.364,140.573 46.281,215.625c-21.524,163.243 -15.711,314.723 40.038,444.717Z" style="fill:#4163a8;fill-rule:nonzero;"/><path d="M3337.62,380.027c-44.22,-3.055 -95.347,-3.898 -101.749,7.75c-45.791,-2.142 -85.672,13.831 -104.066,51.003c-1.634,3.346 -2.483,7.022 -2.483,10.745c0,10.913 7.292,20.571 17.786,23.56c23.23,6.698 58.637,14.983 84.471,12.337c53.654,63.079 31.079,178.128 -21,245.341l47.061,9.646l89.301,-124.361l-28.178,136.89l108.673,17.775l37.902,-173.963c7.969,-41.291 5.974,-83.894 -5.818,-124.26c-1.259,-4.077 -2.779,-8.068 -4.55,-11.951c-21.296,-46.317 -66.471,-77.311 -117.35,-80.512Z" style="fill:#2f2e41;fill-rule:nonzero;"/><path d="M3265.13,1467.85l2.863,100.2c0.814,28.497 -20.807,53.085 -49.174,55.922c-1.807,0.18 -3.621,0.271 -5.436,0.271c-29.971,0 -54.632,-24.662 -54.632,-54.632c0,-4.814 0.636,-9.607 1.892,-14.254l22.484,-83.191l64.739,-353.908l-4.316,-207.166l138.111,-4.316l-25.896,233.062l-90.635,328.012Z" style="fill:#ffb8b8;fill-rule:nonzero;"/><path d="M3390.29,928.354c-50.024,-19.054 -105.351,-19.054 -155.375,0l8.632,-172.639c0,-37.882 31.173,-69.055 69.055,-69.055c37.883,0 69.055,31.173 69.055,69.055l8.633,172.639Z" style="fill:#4163a8;fill-rule:nonzero;"/></svg>