<?xml version="1.0" encoding="UTF-8" standalone="no"?><!DOCTYPE svg PUBLIC "-//W3C//DTD SVG 1.1//EN" "http://www.w3.org/Graphics/SVG/1.1/DTD/svg11.dtd"><svg width="400" height="100%" viewBox="0 0 3166 2746" version="1.1" xmlns="http://www.w3.org/2000/svg" xmlns:xlink="http://www.w3.org/1999/xlink" xml:space="preserve" xmlns:serif="http://www.serif.com/" style="fill-rule:evenodd;clip-rule:evenodd;stroke-linejoin:round;stroke-miterlimit:1.41421;"><rect id="Artboard1" x="0" y="0" width="3165.04" height="2745.83" style="fill:none;"/><clipPath id="_clip1"><rect id="Artboard11" serif:id="Artboard1" x="0" y="0" width="3165.04" height="2745.83"/></clipPath><g clip-path="url(#_clip1)"><path d="M1864.58,1799.18c-8.001,-5.02 -16.062,-10.269 -23.956,-15.598l-5.36,7.941c7.984,5.389 16.131,10.693 24.222,15.771l5.094,-8.114Z" style="fill:#e6e6e6;fill-rule:nonzero;"/><path d="M2789.34,378.087c-10.674,-7.205 -21.599,-14.23 -32.477,-20.883l-4.998,8.173c16.287,9.961 32.588,20.711 48.247,31.811l5.538,-7.82c-5.375,-3.81 -10.812,-7.57 -16.31,-11.281Zm62.817,46.663l-6.06,7.423c14.892,12.152 29.518,24.948 43.487,38.034l6.548,-6.991c-14.124,-13.231 -28.917,-26.174 -43.975,-38.466Zm-146.129,-96.341c-17.228,-8.993 -34.955,-17.488 -52.692,-25.251l-3.836,8.778c17.531,7.674 35.058,16.073 52.091,24.969l4.437,-8.496Zm231.341,176.199l-7.015,6.53c13.062,14.043 25.8,28.725 37.858,43.638l7.451,-6.022c-12.2,-15.087 -25.082,-29.94 -38.294,-44.146Zm-338.342,-223.017c-18.256,-6.532 -36.988,-12.511 -55.668,-17.772l-2.598,9.218c18.474,5.206 36.99,11.119 55.044,17.576l3.222,-9.022Zm411.787,313.844l-7.85,5.492c10.996,15.708 21.581,31.99 31.458,48.387l8.205,-4.948c-9.99,-16.58 -20.691,-33.043 -31.813,-48.931Zm-524.301,-345.527c-19.04,-3.963 -38.437,-7.309 -57.655,-9.942l-1.302,9.495c18.999,2.603 38.179,5.91 57.003,9.829l1.954,-9.382Zm584.498,445.477l-8.526,4.37c8.737,17.073 16.998,34.659 24.538,52.268l8.811,-3.772c-7.63,-17.81 -15.983,-35.594 -24.823,-52.866Zm-700.336,-461.372c-19.393,-1.311 -39.054,-1.968 -58.444,-1.946l0.012,9.58c19.169,-0.019 38.611,0.626 57.789,1.922l0.643,-9.556Zm746.309,568.682l-9.043,3.163c6.334,18.109 12.12,36.66 17.2,55.147l9.239,-2.534c-5.138,-18.701 -10.989,-37.466 -17.396,-55.776Zm-863.185,-568.571c-19.346,1.345 -38.906,3.374 -58.142,6.035l1.316,9.489c19.016,-2.628 38.358,-4.635 57.492,-5.965l-0.666,-9.559Zm894.137,681.188l-9.389,1.903c3.81,18.803 7.025,37.978 9.549,56.998l9.5,-1.264c-2.556,-19.232 -5.806,-38.623 -9.66,-57.637l0,0Zm-1009.86,-665.169c-19.001,3.964 -38.101,8.635 -56.765,13.877l2.591,9.222c18.456,-5.185 37.339,-9.799 56.128,-13.721l-1.954,-9.378Zm1025.22,780.989l-9.558,0.615c1.221,19.127 1.795,38.569 1.708,57.778l9.578,0.042c0.092,-19.426 -0.491,-39.088 -1.728,-58.435l0,0Zm-1137.67,-749.405c-18.278,6.506 -36.556,13.73 -54.324,21.462l3.821,8.788c17.569,-7.646 35.642,-14.789 53.72,-21.228l-3.217,-9.022Zm1137.11,866.278l-9.551,-0.701c-1.405,19.155 -3.495,38.497 -6.213,57.499l9.482,1.355c2.751,-19.217 4.865,-38.78 6.282,-58.153Zm-1244.16,-819.696c-17.206,8.935 -34.318,18.583 -50.859,28.673l4.99,8.176c16.355,-9.972 33.273,-19.514 50.285,-28.349l-4.416,-8.5Zm1227.61,935.444l-9.366,-2.01c-4.028,18.784 -8.761,37.669 -14.071,56.129l9.207,2.648c5.374,-18.672 10.162,-37.772 14.23,-56.767Zm-1327.21,-874.686c-15.835,11.222 -31.473,23.139 -46.486,35.418l6.068,7.414c14.841,-12.14 30.301,-23.919 45.957,-35.018l-5.539,-7.814Zm1294.88,987.026l-9.006,-3.28c-6.566,18.031 -13.845,36.054 -21.629,53.573l8.753,3.888c7.874,-17.718 15.234,-35.946 21.882,-54.181Zm-1385.29,-913.065c-14.127,13.288 -27.977,27.242 -41.16,41.475l7.028,6.511c13.036,-14.073 26.728,-27.869 40.696,-41.004l-6.564,-6.982Zm1337.86,1019.79l-8.468,-4.479c-8.96,16.928 -18.635,33.786 -28.751,50.111l8.142,5.045c10.232,-16.505 20.014,-33.555 29.077,-50.677Zm-1417.24,-934.116c-12.158,15.077 -23.974,30.788 -35.12,46.698l7.849,5.496c11.02,-15.736 22.705,-31.27 34.729,-46.178l-7.458,-6.016Zm1347.93,1027.81c-11.191,15.609 -23.046,31.014 -35.236,45.787l7.386,6.098c12.331,-14.94 24.32,-30.519 35.639,-46.3l-7.789,-5.585Zm-73.513,89.065c-13.22,13.941 -27.067,27.581 -41.165,40.541l6.483,7.052c14.259,-13.106 28.266,-26.901 41.634,-41.003l-6.952,-6.59Zm-85.026,78.145c-14.971,11.962 -30.546,23.556 -46.295,34.454l5.451,7.878c15.929,-11.024 31.683,-22.748 46.821,-34.849l-5.977,-7.483Zm-94.872,65.641c-16.495,9.804 -33.527,19.15 -50.618,27.782l4.318,8.553c17.288,-8.731 34.511,-18.184 51.194,-28.1l-4.894,-8.235Zm-103.037,52.035c-17.696,7.462 -35.855,14.396 -53.96,20.617l3.109,9.057c18.313,-6.286 36.677,-13.299 54.576,-20.844l-3.725,-8.83Zm-109.216,37.502c-18.521,4.98 -37.456,9.385 -56.281,13.093l1.851,9.399c19.039,-3.75 38.188,-8.205 56.919,-13.237l-2.489,-9.255Zm-113.33,22.317c-19.059,2.416 -38.425,4.207 -57.558,5.32l0.555,9.563c19.35,-1.125 38.936,-2.933 58.206,-5.379l-1.203,-9.504Zm-115.345,6.707c-19.221,-0.205 -38.654,-1.072 -57.76,-2.583l-0.759,9.551c19.327,1.527 38.978,2.406 58.419,2.61l0.1,-9.578Zm-115.218,-9.126c-19.002,-2.827 -38.136,-6.353 -56.876,-10.481l-2.06,9.356c18.951,4.174 38.307,7.74 57.527,10.603l1.409,-9.478Zm-112.901,-24.865c-18.404,-5.41 -36.853,-11.533 -54.838,-18.199l-3.332,8.982c18.193,6.744 36.854,12.937 55.465,18.408l2.705,-9.191Zm-108.291,-40.14c-17.468,-7.885 -34.9,-16.483 -51.817,-25.56l-4.527,8.447c17.108,9.178 34.74,17.873 52.401,25.847l3.943,-8.734Z" style="fill:#e6e6e6;fill-rule:nonzero;"/><path d="M1589.66,650.523l-8.206,-4.941c-4.99,8.287 -9.864,16.699 -14.489,25.006l8.367,4.66c4.575,-8.21 9.395,-16.53 14.328,-24.725Z" style="fill:#e6e6e6;fill-rule:nonzero;"/><ellipse cx="1175" cy="2675" rx="1175" ry="70.833" style="fill:#3f3d56;"/><path d="M964.387,644.991c0,0 -32.922,427.993 13.169,441.162c46.092,13.169 210.704,111.936 474.084,85.598c0,0 256.796,138.275 217.289,6.585c-39.507,-131.69 -217.289,-98.768 -217.289,-98.768c0,0 -316.056,-65.845 -329.225,-111.936c-13.169,-46.092 39.507,-237.042 19.754,-243.627c-19.754,-6.584 -177.782,-79.014 -177.782,-79.014Z" style="fill:#a0616a;fill-rule:nonzero;"/><path d="M1631.03,1071.84l-88.412,-20.476c-8.757,-2.028 -17.826,2.319 -21.731,10.415l-90.564,187.804c-1.019,2.112 -1.548,4.428 -1.548,6.773c0,6.949 4.646,13.099 11.331,14.998l89.852,25.528c9.906,2.815 20.478,-2.21 24.55,-11.669l57.787,-134.226l1.76,0.976l10.999,-25.43l-1.828,-0.935l16.13,-37.467c0.639,-1.484 0.968,-3.082 0.968,-4.697c0,-5.545 -3.882,-10.387 -9.294,-11.594Z" style="fill:#3f3d56;fill-rule:nonzero;"/><path d="M1553.27,1058.33l-10.321,-2.39c-6.084,-1.409 -12.383,1.637 -15.057,7.281l-88.397,186.603c-0.523,1.105 -0.795,2.313 -0.795,3.536c0,3.633 2.397,6.86 5.875,7.909l89.219,26.92c5.186,1.564 10.783,-1.043 12.921,-6.02l83.636,-194.663c0.502,-1.168 0.761,-2.427 0.761,-3.699c0,-4.346 -3.023,-8.149 -7.257,-9.129l-9.79,-2.268c-1.942,-0.449 -3.96,0.467 -4.899,2.225c-0.829,1.553 -2.61,2.362 -4.325,1.965l-46.479,-10.765c-3.379,-0.783 -5.614,-4.076 -5.092,-7.505Z" style="fill:#00bfa6;fill-rule:nonzero;"/><path d="M1358.79,1391.2c0,0 -25.669,618.322 -65.176,710.505c-32.908,76.785 -52.11,327.174 -57.607,408.679c-1.102,16.345 -1.653,25.898 -1.653,25.898c0,0 -105.352,0 -111.937,-26.338c-6.584,-26.338 -26.338,-316.056 0,-408.239c26.338,-92.183 -33.591,-730.258 -33.591,-730.258l269.964,19.753Z" style="fill:#2f2e41;fill-rule:nonzero;"/><path d="M1208.01,2503.36c0,0 65.845,19.754 79.014,46.092c13.169,26.338 230.457,72.43 164.612,105.352c-65.845,32.923 -263.38,-26.338 -263.38,-26.338c0,0 -105.352,-6.584 -98.767,-46.092c6.584,-39.507 30.563,-88.185 30.563,-88.185l87.958,9.171Z" style="fill:#2f2e41;fill-rule:nonzero;"/><path d="M1023.65,2574.25c0,0 65.845,19.754 79.014,46.092c13.169,26.338 230.457,72.43 164.612,105.352c-65.845,32.923 -263.38,-26.338 -263.38,-26.338c0,0 -105.352,-6.584 -98.767,-46.092c6.584,-39.507 30.563,-88.185 30.563,-88.185l87.958,9.171Z" style="fill:#2f2e41;fill-rule:nonzero;"/><path d="M1300.2,1375.87l-92.183,158.028l-153.847,549.434c0,0 15.572,504.086 -4.181,504.086c-19.754,0 -125.106,32.923 -131.69,0c-5.562,-27.81 -79.31,-294.212 -42.55,-471.528c23.91,-112.068 39.291,-225.787 46.01,-340.18l16.293,-307.657c0,0 -65.845,-118.521 6.585,-138.275c72.429,-19.753 355.563,46.092 355.563,46.092Z" style="fill:#2f2e41;fill-rule:nonzero;"/><circle cx="1214.6" cy="203.829" r="158.028" style="fill:#a0616a;"/><path d="M1234.35,309.181c0,0 -26.338,210.705 -19.754,223.873c6.585,13.169 -158.028,-144.859 -158.028,-144.859c0,0 59.261,-92.183 46.092,-138.274l131.69,59.26Z" style="fill:#a0616a;fill-rule:nonzero;"/><path d="M865.62,519.885c0,0 184.366,-131.69 190.95,-158.028l138.275,118.521l23.496,-27.967c0,0 108.194,106.981 108.194,153.073c0,46.092 6.584,184.366 -13.169,223.873c-19.754,39.507 59.26,539.929 59.26,539.929c0,0 -65.845,59.261 -72.429,65.845c-6.585,6.585 -269.965,-39.507 -269.965,-39.507c0,0 -131.69,-13.169 -131.69,-32.922c0,-19.754 39.507,-316.056 26.338,-395.07c-13.169,-79.014 -59.26,-447.747 -59.26,-447.747Z" style="fill:#d0cde1;fill-rule:nonzero;"/><path d="M826.113,704.252c0,0 -32.923,427.992 13.169,441.161c46.091,13.169 210.704,111.937 474.084,85.599c0,0 256.795,138.274 217.288,6.584c-39.507,-131.69 -217.288,-98.767 -217.288,-98.767c0,0 -316.056,-65.845 -329.225,-111.937c-13.169,-46.091 39.507,-237.042 19.753,-243.626c-19.753,-6.585 -177.781,-79.014 -177.781,-79.014Z" style="fill:#a0616a;fill-rule:nonzero;"/><path d="M1282.1,124.887c-21.601,-7.688 -45.432,-11.636 -67.457,-5.263c-31.172,9.02 -52.761,36.345 -76.047,58.947c-23.285,22.602 -55.94,42.629 -86.601,32.001c1.848,-13.285 -1.641,-26.775 -9.699,-37.498c-3.412,-4.493 -7.749,-8.758 -8.612,-14.333c-1.31,-8.464 5.807,-15.764 7.942,-24.059c3.74,-14.535 -6.513,-34.433 6.093,-42.58c3.327,-2.15 7.54,-2.641 10.787,-4.91c12.745,-8.908 -1.408,-31.062 7.018,-44.129c2.524,-3.374 5.803,-6.11 9.575,-7.988c61.1,-35.651 135.821,-35.749 206.555,-34.851c9.847,0.125 23.556,5.016 20.779,14.464c13.368,-9.595 30.873,3.878 41.648,16.315l22.054,25.455c10.363,11.07 19.408,23.305 26.952,36.458c6.737,12.884 8.226,32.691 -5.182,38.308c9.969,-4.176 22.061,54.869 -23.893,45.154c-26.701,-5.644 -52.873,-41.155 -81.912,-51.491Z" style="fill:#2f2e41;fill-rule:nonzero;"/><path d="M970.972,533.054l-105.352,-13.169c0,0 -105.352,204.12 -46.092,237.043c59.26,32.922 210.704,59.26 210.704,46.091c0,-13.169 -59.26,-269.965 -59.26,-269.965Z" style="fill:#d0cde1;fill-rule:nonzero;"/><path d="M423.24,2633.72c1.099,-1.796 27.019,-45.076 36.005,-134.948c8.243,-82.453 2.943,-221.434 -69.134,-415.301c-136.549,-367.267 31.468,-663.599 33.185,-666.551l-8.29,-4.809c-0.435,0.749 -43.79,76.302 -69.401,196.608c-33.838,159.485 -21.512,325.36 35.524,478.092c136.314,366.641 34.972,540.206 33.933,541.918l8.178,4.991Z" style="fill:#3f3d56;fill-rule:nonzero;"/><circle cx="476.633" cy="1333.09" r="62.272" style="fill:#00bfa6;"/><circle cx="280.236" cy="1563.02" r="62.272" style="fill:#00bfa6;"/><circle cx="414.361" cy="1716.3" r="62.272" style="fill:#00bfa6;"/><circle cx="251.495" cy="1845.64" r="62.272" style="fill:#00bfa6;"/><circle cx="462.263" cy="2046.83" r="62.272" style="fill:#00bfa6;"/><path d="M385.62,2636.02c0,0 62.272,-153.286 -124.545,-268.25l124.545,268.25Z" style="fill:#3f3d56;fill-rule:nonzero;"/><path d="M462.205,2633.24c0,0 28.341,-163.007 247.693,-161.61l-247.693,161.61Z" style="fill:#3f3d56;fill-rule:nonzero;"/><path d="M2211.87,1362.5c-84.573,0 -154.167,69.593 -154.167,154.167c0,84.573 69.594,154.166 154.167,154.166c84.573,0 154.167,-69.593 154.167,-154.166c0,-84.574 -69.594,-154.167 -154.167,-154.167Zm76.191,115.066c0.081,1.665 0.122,3.37 0.122,5.076c0,52.011 -39.547,111.982 -111.942,111.982c-21.358,0.047 -42.273,-6.135 -60.173,-17.784c3.112,0.374 6.244,0.563 9.379,0.568c17.709,0.032 34.922,-5.906 48.845,-16.85c-16.789,-0.316 -31.611,-11.339 -36.746,-27.326c2.433,0.491 4.909,0.735 7.39,0.731c3.497,0 6.979,-0.465 10.354,-1.38c-18.287,-3.697 -31.553,-19.916 -31.549,-38.573l0,-0.487c5.465,3.071 11.599,4.758 17.866,4.913c-17.211,-11.473 -22.602,-34.649 -12.222,-52.54c19.93,24.595 49.426,39.565 81.043,41.131c-0.689,-2.941 -1.03,-5.953 -1.015,-8.973c0,-0.016 0,-0.031 0,-0.046c0,-21.559 17.74,-39.299 39.298,-39.299c10.879,0 21.284,4.518 28.712,12.465c8.809,-1.722 17.257,-4.95 24.97,-9.541c-2.933,9.11 -9.083,16.849 -17.296,21.763c7.79,-0.945 15.398,-3.039 22.575,-6.213c-5.275,7.905 -11.916,14.807 -19.611,20.383Z" style="fill:#1fa0da;fill-rule:nonzero;"/><circle cx="2705.84" cy="1090.3" r="25.986" style="fill:#9e23c4;"/><path d="M2738.32,1025.34l-64.965,0c-17.799,0.051 -32.43,14.682 -32.482,32.482l0,64.964c0.052,17.799 14.683,32.43 32.482,32.482l64.965,0c17.799,-0.052 32.43,-14.683 32.482,-32.482l0,-64.964c-0.052,-17.8 -14.683,-32.43 -32.482,-32.483l0,0.001Zm-32.482,103.942c0,0 0,0 0,0c-21.384,0 -38.979,-17.595 -38.979,-38.978c0,-21.383 17.595,-38.979 38.979,-38.979c21.383,0 38.978,17.596 38.978,38.979c-0.005,21.381 -17.598,38.973 -38.978,38.978l0,0Zm42.226,-71.46c-5.346,0 -9.744,-4.399 -9.744,-9.745c0,-5.346 4.399,-9.745 9.744,-9.745c5.346,0 9.745,4.399 9.745,9.745l0,0.024c0,5.333 -4.388,9.721 -9.721,9.721c-0.008,0 -0.016,0 -0.024,0l0,0Z" style="fill:#9e23c4;fill-rule:nonzero;"/><path d="M2704.17,937.5c-84.574,0 -154.167,69.593 -154.167,154.167c0,84.573 69.593,154.166 154.167,154.166c84.573,0 154.166,-69.593 154.166,-154.166c0,-84.574 -69.593,-154.167 -154.166,-154.167Zm79.625,185.284c-0.073,24.919 -20.556,45.402 -45.475,45.475l-64.965,0c-24.919,-0.073 -45.402,-20.556 -45.475,-45.475l0,-64.964c0.073,-24.92 20.556,-45.402 45.475,-45.475l64.965,0c24.919,0.073 45.402,20.555 45.475,45.475l0,64.964Z" style="fill:#9e23c4;fill-rule:nonzero;"/><path d="M2245.83,500c-84.573,0 -154.166,69.593 -154.166,154.167c0,84.573 69.593,154.166 154.166,154.166c84.574,0 154.167,-69.593 154.167,-154.166c0,-84.574 -69.593,-154.167 -154.167,-154.167Zm0.924,244.198c-8.729,-0.007 -17.411,-1.265 -25.783,-3.735c3.959,-6.027 7.035,-12.59 9.135,-19.489c1.137,-4.061 6.416,-25.011 6.416,-25.011c4.999,7.289 13.374,11.56 22.209,11.328c29.234,0 49.089,-26.636 49.089,-62.325c0,-26.961 -22.859,-52.094 -57.574,-52.094c-43.202,0 -65.005,30.98 -65.005,56.804c0,15.672 5.928,29.558 18.636,34.755c0.45,0.238 0.952,0.363 1.461,0.363c1.531,0 2.847,-1.125 3.087,-2.636c0.446,-1.625 1.421,-5.644 1.867,-7.309c0.714,-1.789 0.187,-3.849 -1.299,-5.075c-4.138,-4.992 -6.28,-11.346 -6.009,-17.825c-0.002,-0.168 -0.003,-0.336 -0.003,-0.504c0,-23.642 19.454,-43.096 43.096,-43.096c0.564,0 1.128,0.011 1.692,0.033c24.402,0 37.841,14.902 37.841,34.837c0,26.23 -11.612,48.358 -28.828,48.358c-0.247,0.013 -0.495,0.02 -0.744,0.02c-7.713,0 -14.061,-6.347 -14.061,-14.061c0,-1.167 0.145,-2.328 0.432,-3.459c2.72,-11.531 8.039,-23.955 8.039,-32.279c0,-7.43 -3.979,-13.642 -12.262,-13.642c-9.744,0 -17.54,10.069 -17.54,23.549c-0.06,4.945 0.937,9.845 2.923,14.374c1.987,4.528 -9.947,42.186 -11.693,49.575c-1.433,6.859 -1.966,13.874 -1.584,20.87c-32.943,-14.472 -54.317,-47.208 -54.317,-83.19c0,-49.847 41.018,-90.864 90.864,-90.864c49.847,0 90.865,41.017 90.865,90.864c0,49.847 -41.018,90.864 -90.865,90.864c-0.028,0 -0.057,0 -0.086,0l0.001,0Z" style="fill:#f5443f;fill-rule:nonzero;"/></g></svg>