<svg width="58" height="58" viewBox="0 0 58 58" fill="none" xmlns="http://www.w3.org/2000/svg">
<path d="M20.8613 26.5486C20.9788 26.6074 21.0836 26.6887 21.1696 26.788C21.2556 26.8872 21.3213 27.0024 21.3628 27.1271C21.4043 27.2517 21.4208 27.3832 21.4115 27.5143C21.4022 27.6453 21.3671 27.7732 21.3083 27.8906C21.2496 28.0081 21.1683 28.1128 21.069 28.1989C20.9698 28.2849 20.8545 28.3506 20.7299 28.3921C20.6053 28.4336 20.4737 28.4501 20.3427 28.4408C20.2117 28.4315 20.0838 28.3964 19.9663 28.3376L1.65835 19.1826C1.12772 18.9173 0.687678 18.5006 0.393837 17.9853C0.0999975 17.4699 -0.0344423 16.879 0.00751355 16.2872C0.0494694 15.6954 0.265937 15.1294 0.629551 14.6606C0.993165 14.1919 1.4876 13.8414 2.05035 13.6536L20.8043 7.40263C21.0548 7.32272 21.3267 7.34468 21.5611 7.46374C21.7955 7.5828 21.9736 7.7894 22.0569 8.0388C22.1401 8.2882 22.1217 8.56035 22.0058 8.79632C21.8898 9.0323 21.6856 9.21312 21.4373 9.29963L2.68235 15.5506C2.49475 15.6132 2.32991 15.73 2.20867 15.8862C2.08743 16.0424 2.01524 16.2311 2.00122 16.4284C1.98719 16.6256 2.03197 16.8226 2.12989 16.9944C2.22782 17.1662 2.37448 17.3052 2.55135 17.3936L20.8603 26.5486H20.8613ZM21.6243 27.6466L29.8313 44.5836C29.9177 44.762 30.0552 44.9106 30.2262 45.0107C30.3972 45.1108 30.5941 45.1578 30.7919 45.1458C30.9896 45.1338 31.1794 45.0633 31.337 44.9433C31.4947 44.8233 31.6131 44.6591 31.6773 44.4716L45.7513 3.32363C45.8114 3.148 45.8214 2.95913 45.7802 2.77814C45.739 2.59716 45.6482 2.43121 45.5181 2.29888C45.3879 2.16654 45.2235 2.07305 45.0432 2.02885C44.863 1.98466 44.674 1.9915 44.4973 2.04863L29.2873 6.97563C29.0374 7.04916 28.7687 7.02224 28.5383 6.90061C28.3079 6.77898 28.1341 6.57224 28.0538 6.3244C27.9735 6.07655 27.9931 5.80716 28.1085 5.57356C28.2238 5.33996 28.4258 5.16059 28.6713 5.07363L43.8813 0.145634C44.4112 -0.0257536 44.9782 -0.0463046 45.519 0.0862835C46.0599 0.218872 46.5531 0.499366 46.9436 0.896367C47.334 1.29337 47.6063 1.79121 47.7299 2.33416C47.8535 2.87711 47.8235 3.44375 47.6433 3.97064L33.5693 45.1186C33.3769 45.6811 33.0216 46.1736 32.5487 46.5338C32.0758 46.894 31.5066 47.1056 30.9132 47.1417C30.3198 47.1778 29.7291 47.0368 29.216 46.7366C28.703 46.4364 28.2906 45.9906 28.0313 45.4556L19.2023 27.2386L34.5553 11.8866C34.7439 11.7045 34.9966 11.6037 35.2587 11.606C35.5209 11.6082 35.7718 11.7134 35.9572 11.8988C36.1426 12.0842 36.2477 12.335 36.25 12.5972C36.2523 12.8594 36.1515 13.112 35.9693 13.3006L21.6243 27.6466ZM13.4343 34.1786L1.68535 27.9586C1.56926 27.8972 1.46641 27.8135 1.38268 27.7122C1.29894 27.611 1.23597 27.4943 1.19734 27.3688C1.15871 27.2432 1.14519 27.1113 1.15754 26.9806C1.1699 26.8498 1.20789 26.7227 1.26935 26.6066C1.33081 26.4905 1.41453 26.3877 1.51573 26.304C1.61694 26.2202 1.73365 26.1573 1.85919 26.1186C1.98474 26.08 2.11666 26.0665 2.24743 26.0788C2.3782 26.0912 2.50526 26.1292 2.62135 26.1906L14.9143 32.6986L21.4223 44.9916C21.5465 45.2261 21.5724 45.5002 21.4944 45.7538C21.4163 46.0073 21.2408 46.2195 21.0063 46.3436C20.7719 46.4678 20.4977 46.4937 20.2442 46.4156C19.9906 46.3376 19.7785 46.1621 19.6543 45.9276L13.4343 34.1776V34.1786Z" transform="translate(5.17773 5.15637)" fill="#333333"/>
</svg>
