<svg width="58" height="58" viewBox="0 0 58 58" fill="none" xmlns="http://www.w3.org/2000/svg">
<path d="M18.5564 17.1429C18.7385 17.3315 18.8393 17.5841 18.837 17.8463C18.8348 18.1085 18.7296 18.3593 18.5442 18.5447C18.3588 18.7301 18.108 18.8353 17.8458 18.8375C17.5836 18.8398 17.331 18.739 17.1424 18.5569L10.7784 12.1929L7.24336 15.7289L5.82836 14.3149L14.3144 5.82886L15.7284 7.24386L12.1924 10.7789L18.5564 17.1429V17.1429ZM10.7784 2.29286C10.5908 2.10539 10.3365 2.00007 10.0714 2.00007C9.80619 2.00007 9.55189 2.10539 9.36436 2.29286L2.29336 9.36486C2.10589 9.55239 2.00057 9.80669 2.00057 10.0719C2.00057 10.337 2.10589 10.5913 2.29336 10.7789L38.7054 47.1919L37.5274 46.0129L46.0124 37.5279L46.6024 38.1179L10.7784 2.29386V2.29286ZM47.3864 38.9829L38.9824 47.3869C39.074 47.4308 39.1718 47.4604 39.2724 47.4749L47.5214 48.6529C47.675 48.6747 47.8316 48.6606 47.9788 48.6115C48.126 48.5624 48.2597 48.4797 48.3695 48.37C48.4792 48.2602 48.5619 48.1265 48.611 47.9793C48.6601 47.8321 48.6742 47.6755 48.6524 47.5219L47.4744 39.2719C47.4599 39.1713 47.4303 39.0735 47.3864 38.9819V38.9829ZM15.7284 27.0429L12.8994 29.8709L16.4354 33.4069C16.6175 33.5955 16.7183 33.8481 16.716 34.1103C16.7138 34.3725 16.6086 34.6233 16.4232 34.8087C16.2378 34.9941 15.987 35.0993 15.7248 35.1015C15.4626 35.1038 15.21 35.003 15.0214 34.8209L11.4854 31.2849L7.24336 35.5279L10.7784 39.0629C10.966 39.2504 11.0715 39.5047 11.0716 39.77C11.0717 40.0353 10.9664 40.2897 10.7789 40.4774C10.5914 40.665 10.337 40.7705 10.0717 40.7706C9.80644 40.7707 9.552 40.6654 9.36436 40.4779L5.82836 36.9419L2.29336 40.4779C2.10589 40.6654 2.00057 40.9197 2.00057 41.1849C2.00057 41.45 2.10589 41.7043 2.29336 41.8919L9.36436 48.9619C9.55189 49.1493 9.80619 49.2546 10.0714 49.2546C10.3365 49.2546 10.5908 49.1493 10.7784 48.9619L24.2134 35.5279L15.7284 27.0429V27.0429ZM27.0424 15.7289L35.5274 24.2139L48.9624 10.7789C49.1498 10.5913 49.2551 10.337 49.2551 10.0719C49.2551 9.80669 49.1498 9.55239 48.9624 9.36486L41.8914 2.29386C41.7038 2.10639 41.4495 2.00107 41.1844 2.00107C40.9192 2.00107 40.6649 2.10639 40.4774 2.29386L36.9414 5.82886L40.4774 9.36486C40.5702 9.45777 40.6438 9.56806 40.6941 9.68943C40.7443 9.81079 40.7701 9.94086 40.7701 10.0722C40.77 10.2036 40.7441 10.3336 40.6938 10.4549C40.6435 10.5763 40.5698 10.6865 40.4769 10.7794C40.3839 10.8722 40.2737 10.9458 40.1523 10.9961C40.0309 11.0463 39.9009 11.0721 39.7695 11.0721C39.6382 11.072 39.5081 11.0461 39.3868 10.9958C39.2654 10.9455 39.1552 10.8718 39.0624 10.7789L35.5274 7.24386L31.2844 11.4859L34.8204 15.0219C35.0025 15.2105 35.1033 15.4631 35.101 15.7253C35.0988 15.9875 34.9936 16.2383 34.8082 16.4237C34.6228 16.6091 34.372 16.7143 34.1098 16.7165C33.8476 16.7188 33.595 16.618 33.4064 16.4359L29.8704 12.8999L27.0424 15.7289V15.7289ZM14.3144 25.6289L0.879359 12.1919C0.316946 11.6293 0.0010004 10.8664 0.0010004 10.0709C0.0010004 9.27537 0.316946 8.51244 0.879359 7.94986L7.94936 0.87886C8.22794 0.60023 8.55868 0.379206 8.92269 0.22841C9.2867 0.0776139 9.67685 -8.86136e-07 10.0709 -8.86136e-07C10.4649 -8.86136e-07 10.855 0.0776139 11.219 0.22841C11.583 0.379206 11.9138 0.60023 12.1924 0.87886L25.6274 14.3139L39.0624 0.87886C39.3409 0.60023 39.6717 0.379206 40.0357 0.22841C40.3997 0.0776139 40.7898 -8.86136e-07 41.1839 -8.86136e-07C41.5779 -8.86136e-07 41.968 0.0776139 42.332 0.22841C42.696 0.379206 43.0268 0.60023 43.3054 0.87886L50.3764 7.94886C50.655 8.22744 50.876 8.55818 51.0268 8.92219C51.1776 9.2862 51.2552 9.67635 51.2552 10.0704C51.2552 10.4644 51.1776 10.8545 51.0268 11.2185C50.876 11.5825 50.655 11.9133 50.3764 12.1919L36.9414 25.6279L48.6054 37.2919C49.0641 37.7509 49.3617 38.3464 49.4534 38.9889L50.6324 47.2389C50.6982 47.6999 50.6558 48.1699 50.5085 48.6117C50.3612 49.0535 50.1131 49.455 49.7838 49.7843C49.4545 50.1136 49.053 50.3617 48.6112 50.509C48.1694 50.6563 47.6994 50.6987 47.2384 50.6329L38.9884 49.4539C38.3459 49.3622 37.7504 49.0646 37.2914 48.6059L25.6274 36.9409L12.1924 50.3769C11.6298 50.9393 10.8669 51.2552 10.0714 51.2552C9.27587 51.2552 8.51294 50.9393 7.95036 50.3769L0.879359 43.3069C0.60058 43.0283 0.37943 42.6975 0.228545 42.3334C0.0776608 41.9692 9.49165e-07 41.579 9.49165e-07 41.1849C9.49165e-07 40.7907 0.0776608 40.4005 0.228545 40.0364C0.37943 39.6723 0.60058 39.3415 0.879359 39.0629L14.3144 25.6279V25.6289ZM22.7994 22.7999C22.6119 22.9874 22.5066 23.2417 22.5066 23.5069C22.5066 23.772 22.6119 24.0263 22.7994 24.2139L36.0864 37.5009C36.275 37.683 36.5276 37.7838 36.7898 37.7815C37.052 37.7793 37.3028 37.6741 37.4882 37.4887C37.6736 37.3033 37.7788 37.0525 37.781 36.7903C37.7833 36.5281 37.6825 36.2755 37.5004 36.0869L24.2134 22.7999C24.0258 22.6124 23.7715 22.5071 23.5064 22.5071C23.2412 22.5071 22.9869 22.6124 22.7994 22.7999V22.7999Z" transform="translate(3.49976 3.49902)" fill="#333333"/>
</svg>
