<svg width="58" height="58" viewBox="0 0 58 58" fill="none" xmlns="http://www.w3.org/2000/svg">
<path d="M16 44H5C3.67392 44 2.40215 43.4732 1.46447 42.5355C0.526784 41.5979 0 40.3261 0 39C0 37.6739 0.526784 36.4021 1.46447 35.4645C2.40215 34.5268 3.67392 34 5 34H8V24C8 15.163 15.163 8 24 8C32.837 8 40 15.163 40 24V34H43C44.3261 34 45.5979 34.5268 46.5355 35.4645C47.4732 36.4021 48 37.6739 48 39C48 40.3261 47.4732 41.5979 46.5355 42.5355C45.5979 43.4732 44.3261 44 43 44H32C32 46.1217 31.1571 48.1566 29.6569 49.6569C28.1566 51.1571 26.1217 52 24 52C21.8783 52 19.8434 51.1571 18.3431 49.6569C16.8429 48.1566 16 46.1217 16 44V44ZM18 44C18 45.5913 18.6321 47.1174 19.7574 48.2426C20.8826 49.3679 22.4087 50 24 50C25.5913 50 27.1174 49.3679 28.2426 48.2426C29.3679 47.1174 30 45.5913 30 44H18ZM38 34V24C38 16.268 31.732 10 24 10C16.268 10 10 16.268 10 24V34H38ZM5 36C4.20435 36 3.44129 36.3161 2.87868 36.8787C2.31607 37.4413 2 38.2044 2 39C2 39.7956 2.31607 40.5587 2.87868 41.1213C3.44129 41.6839 4.20435 42 5 42H43C43.7956 42 44.5587 41.6839 45.1213 41.1213C45.6839 40.5587 46 39.7956 46 39C46 38.2044 45.6839 37.4413 45.1213 36.8787C44.5587 36.3161 43.7956 36 43 36H5ZM29 5C29 5.26522 28.8946 5.51957 28.7071 5.70711C28.5196 5.89464 28.2652 6 28 6C27.7348 6 27.4804 5.89464 27.2929 5.70711C27.1054 5.51957 27 5.26522 27 5C27 4.20435 26.6839 3.44129 26.1213 2.87868C25.5587 2.31607 24.7956 2 24 2C23.2044 2 22.4413 2.31607 21.8787 2.87868C21.3161 3.44129 21 4.20435 21 5C21 5.26522 20.8946 5.51957 20.7071 5.70711C20.5196 5.89464 20.2652 6 20 6C19.7348 6 19.4804 5.89464 19.2929 5.70711C19.1054 5.51957 19 5.26522 19 5C19 3.67392 19.5268 2.40215 20.4645 1.46447C21.4021 0.526784 22.6739 0 24 0C25.3261 0 26.5979 0.526784 27.5355 1.46447C28.4732 2.40215 29 3.67392 29 5ZM15 30C15 30.2652 14.8946 30.5196 14.7071 30.7071C14.5196 30.8946 14.2652 31 14 31C13.7348 31 13.4804 30.8946 13.2929 30.7071C13.1054 30.5196 13 30.2652 13 30V24C13 17.925 17.925 13 24 13C24.2652 13 24.5196 13.1054 24.7071 13.2929C24.8946 13.4804 25 13.7348 25 14C25 14.2652 24.8946 14.5196 24.7071 14.7071C24.5196 14.8946 24.2652 15 24 15C21.6131 15 19.3239 15.9482 17.636 17.636C15.9482 19.3239 15 21.6131 15 24V30Z" transform="translate(5 3)" fill="#333333"/>
</svg>
