<svg width="58" height="58" viewBox="0 0 58 58" fill="none" xmlns="http://www.w3.org/2000/svg">
<path fill-rule="evenodd" clip-rule="evenodd" d="M35.003 2H31.01C30.452 2 30 1.536 30 1C30 0.448 30.428 0 31.01 0H31.505H22.495H22.991C23.548 0 24 0.464 24 1C24.0014 1.13255 23.9761 1.26402 23.9257 1.38662C23.8753 1.50922 23.8008 1.62045 23.7066 1.71371C23.6124 1.80698 23.5004 1.88037 23.3773 1.92955C23.2542 1.97873 23.1225 2.00268 22.99 2H8.998C8.441 2 7.861 2.42 7.688 2.938L6.668 6H37.334L36.314 2.937C36.144 2.432 35.554 2 35.004 2H35.003ZM40.011 12L36.198 48.22C35.976 50.334 34.114 52 31.995 52H12.005C9.877 52 8.024 50.329 7.802 48.22L3.989 12H2.989C1.333 12 0 10.636 0 9C0 7.334 1.36 6 3.02 6H4.558L5.79 2.305C6.236 0.967 7.582 0 8.997 0H35.003C36.41 0 37.768 0.978 38.21 2.305L39.442 6H40.981C42.639 6 44 7.35 44 9C44 10.652 42.66 12 41.011 12H40.011V12ZM2 9C2 9.536 2.443 10 2.989 10H41.01C41.55 10 41.999 9.552 41.999 9C41.999 8.464 41.543 8 40.979 8H3.02C2.88736 7.99868 2.75577 8.0235 2.63272 8.07304C2.50968 8.12258 2.3976 8.19588 2.30288 8.28874C2.20816 8.3816 2.13266 8.4922 2.0807 8.61424C2.02873 8.73628 2.00131 8.86736 2 9V9ZM35.053 40.001L36.947 22H7.053L8.947 40.001L8.997 40H35.003L35.053 40.001ZM34.843 42H9.157L9.79 48.01C9.904 49.098 10.897 50 12.004 50H31.994C33.087 50 34.093 49.11 34.208 48.01L34.841 42H34.843ZM37.157 20.012L38 12H6L6.843 20.012C6.89262 20.0041 6.94277 20.0001 6.993 20H37.007C37.058 20 37.107 20.004 37.157 20.012V20.012ZM13 30H31C31.2652 30 31.5196 30.1054 31.7071 30.2929C31.8946 30.4804 32 30.7348 32 31C32 31.2652 31.8946 31.5196 31.7071 31.7071C31.5196 31.8946 31.2652 32 31 32H13C12.7348 32 12.4804 31.8946 12.2929 31.7071C12.1054 31.5196 12 31.2652 12 31C12 30.7348 12.1054 30.4804 12.2929 30.2929C12.4804 30.1054 12.7348 30 13 30Z" transform="translate(7 3)" fill="#333333"/>
</svg>
