<svg width="58" height="58" viewBox="0 0 58 58" fill="none" xmlns="http://www.w3.org/2000/svg">
<path d="M8.00002 10H3.01902C2.88518 9.99745 2.75218 10.0218 2.62793 10.0716C2.50367 10.1214 2.39067 10.1956 2.29564 10.2899C2.20061 10.3842 2.12548 10.4966 2.0747 10.6205C2.02392 10.7443 1.99852 10.8771 2.00002 11.011V22.532L5.59502 25.197C5.70551 25.2732 5.79954 25.3708 5.8715 25.4841C5.94347 25.5973 5.9919 25.7239 6.01391 25.8563C6.03592 25.9887 6.03107 26.1241 5.99963 26.2546C5.96819 26.3851 5.91082 26.5079 5.83092 26.6157C5.75103 26.7235 5.65025 26.8141 5.5346 26.8822C5.41894 26.9503 5.29076 26.9943 5.15771 27.0118C5.02466 27.0293 4.88945 27.0198 4.76013 26.9839C4.63082 26.9481 4.51005 26.8865 4.40502 26.803L2.03903e-05 23.54V11.011C-0.0014414 10.6145 0.0757078 10.2217 0.227008 9.85516C0.378309 9.48867 0.600759 9.1558 0.881496 8.87581C1.16223 8.59581 1.49569 8.37425 1.86258 8.22392C2.22948 8.07359 2.62253 7.99749 3.01902 8H8.00002V4C8.00002 1.79 9.78602 0 12.002 0H39.998C41.0584 0.00211223 42.0748 0.424155 42.8248 1.17379C43.5748 1.92342 43.9974 2.9396 44 4V8H48.981C49.3775 7.99749 49.7706 8.07359 50.1375 8.22392C50.5043 8.37425 50.8378 8.59581 51.1185 8.87581C51.3993 9.1558 51.6217 9.48867 51.773 9.85516C51.9243 10.2217 52.0015 10.6145 52 11.011V23.539L47.595 26.803C47.49 26.8865 47.3692 26.9481 47.2399 26.9839C47.1106 27.0198 46.9754 27.0293 46.8423 27.0118C46.7093 26.9943 46.5811 26.9503 46.4654 26.8822C46.3498 26.8141 46.249 26.7235 46.1691 26.6157C46.0892 26.5079 46.0318 26.3851 46.0004 26.2546C45.969 26.1241 45.9641 25.9887 45.9861 25.8563C46.0081 25.7239 46.0566 25.5973 46.1285 25.4841C46.2005 25.3708 46.2945 25.2732 46.405 25.197L50 22.532V11.011C50.0015 10.8771 49.9761 10.7443 49.9253 10.6205C49.8746 10.4966 49.7994 10.3842 49.7044 10.2899C49.6094 10.1956 49.4964 10.1214 49.3721 10.0716C49.2479 10.0218 49.1149 9.99745 48.981 10H44V22C44 29.813 38.384 36.327 30.981 37.723L32.028 44H35.995C36.5208 43.9991 37.0416 44.1019 37.5276 44.3025C38.0136 44.5031 38.4553 44.7977 38.8273 45.1692C39.1993 45.5408 39.4944 45.982 39.6956 46.4678C39.8968 46.9535 40.0003 47.4742 40 48C40 50.208 38.195 52 35.995 52H16.005C15.4792 52.0009 14.9584 51.8981 14.4724 51.6975C13.9864 51.4969 13.5448 51.2023 13.1728 50.8308C12.8008 50.4592 12.5057 50.018 12.3044 49.5322C12.1032 49.0465 11.9998 48.5258 12 48C12 45.792 13.805 44 16.005 44H19.972L21.018 37.724C13.608 36.33 8.00002 29.815 8.00002 22V10ZM23.005 37.97L22 44H30L28.995 37.97C28.669 37.99 28.341 38 28.011 38H23.989C23.659 38 23.33 37.99 23.005 37.97V37.97ZM35.995 46H16.005C15.4746 46.0016 14.9663 46.2126 14.5908 46.5872C14.2152 46.9618 14.0029 47.4696 14 48C14 49.112 14.898 50 16.005 50H35.995C36.5254 49.9984 37.0337 49.7874 37.4093 49.4128C37.7848 49.0382 37.9971 48.5304 38 48C38 46.888 37.102 46 35.995 46ZM10 4V22C10 29.724 16.263 36 23.99 36H28.01C35.717 36 42 29.732 42 22V4C42 2.91 41.104 2 39.998 2H12.002C11.7391 1.99921 11.4785 2.05039 11.2354 2.15059C10.9923 2.2508 10.7714 2.39805 10.5853 2.5839C10.3993 2.76975 10.2518 2.99053 10.1514 3.23355C10.0509 3.47657 9.99949 3.73704 10 4V4ZM25.832 9.002C23.9862 9.03638 22.1957 9.63754 20.7031 10.724C19.2105 11.8104 18.0881 13.3296 17.4882 15.0755C16.8882 16.8214 16.8396 18.7095 17.3491 20.484C17.8585 22.2584 18.9013 23.8333 20.336 24.995C20.5418 25.162 20.6729 25.404 20.7004 25.6676C20.728 25.9312 20.6497 26.195 20.4828 26.401C20.316 26.6069 20.0742 26.7382 19.8106 26.766C19.547 26.7937 19.2831 26.7157 19.077 26.549C17.8298 25.5413 16.8186 24.2725 16.1144 22.832C15.4102 21.3915 15.0302 19.8142 15.001 18.211C14.9863 18.142 14.979 18.0716 14.979 18.001C14.979 11.991 19.799 7.107 25.782 7.002C28.287 6.952 30.822 7.752 32.922 9.452C37.643 13.275 38.372 20.202 34.548 24.922C34.508 24.972 34.466 25.016 34.42 25.055C33.3887 26.2915 32.098 27.2859 30.6394 27.9679C29.1809 28.6498 27.5901 29.0025 25.98 29.001C25.7148 29.001 25.4604 28.8956 25.2729 28.7081C25.0854 28.5206 24.98 28.2662 24.98 28.001C24.98 27.7358 25.0854 27.4814 25.2729 27.2939C25.4604 27.1064 25.7148 27.001 25.98 27.001C28.367 26.9814 30.6484 26.0143 32.3223 24.3126C33.9963 22.6109 34.9256 20.3139 34.906 17.927C34.8864 15.54 33.9194 13.2587 32.2177 11.5847C30.516 9.91076 28.219 8.98137 25.832 9.001V9.002ZM26 20.53L23.528 21.608L23.79 18.924L22 16.906L24.634 16.326L26 14L27.366 16.326L30 16.906L28.21 18.924L28.472 21.608L26 20.53Z" transform="translate(3 3)" fill="#333333"/>
</svg>
