<svg width="58" height="58" viewBox="0 0 58 58" fill="none" xmlns="http://www.w3.org/2000/svg">
<path fill-rule="evenodd" clip-rule="evenodd" d="M25.9981 46.002C14.9521 46.002 5.99807 37.048 5.99807 26.002C5.99807 14.956 14.9521 6.00195 25.9981 6.00195C37.0441 6.00195 45.9981 14.956 45.9981 26.002C45.9981 37.048 37.0441 46.002 25.9981 46.002ZM25.9981 44.002C35.9391 44.002 43.9981 35.943 43.9981 26.002C43.9981 16.061 35.9391 8.00195 25.9981 8.00195C16.0571 8.00195 7.99807 16.061 7.99807 26.002C7.99807 35.943 16.0571 44.002 25.9981 44.002ZM30.9581 28.886H23.4301L23.4001 28.953C23.3581 30.457 23.7801 31.665 24.6641 32.577C25.5491 33.49 26.7521 33.946 28.2731 33.946C28.8631 33.946 29.4471 33.908 30.0271 33.832C30.6071 33.757 31.1651 33.643 31.7031 33.492L31.9981 35.588C30.7753 35.8621 29.5262 36.001 28.2731 36.002C25.8831 36.002 23.9501 35.359 22.4761 34.072C21.0011 32.787 20.2641 31.058 20.2641 28.886H17.9981V27.23H20.2641V25.014H17.9981V23.3449H20.2641V23.145C20.2641 20.973 20.9961 19.24 22.4601 17.945C23.9241 16.65 25.8521 16.002 28.2421 16.002C28.8521 16.002 29.4601 16.0379 30.0661 16.1089C30.6711 16.1799 31.3161 16.282 31.9981 16.416L31.7031 18.5389C31.1378 18.3954 30.5653 18.2819 29.9881 18.1989C29.4099 18.1145 28.8264 18.0717 28.2421 18.071C26.7321 18.071 25.5331 18.53 24.6491 19.447C23.7641 20.363 23.3221 21.587 23.3221 23.118V23.3449H30.9581V25.014H23.3221V27.23H30.9581V28.886V28.886ZM41.6651 44.196C41.6902 44.1682 41.717 44.1418 41.7451 44.117C42.7473 43.2468 43.6761 42.2956 44.5221 41.273C45.3521 40.263 46.1101 39.173 46.7851 38.004C47.5153 36.7405 48.1295 35.4134 48.6201 34.039C49.7915 30.7277 50.2256 27.2005 49.8921 23.704C49.5525 20.2082 48.4535 16.8288 46.6721 13.802C45.928 12.546 45.0714 11.3601 44.1131 10.259C43.2429 9.25675 42.2917 8.32795 41.2691 7.48195C40.2591 6.65195 39.1691 5.89495 38.0001 5.21995C36.7366 4.48969 35.4095 3.87551 34.0351 3.38495C30.7238 2.21351 27.1966 1.77939 23.7001 2.11295C20.2043 2.45255 16.8249 3.55149 13.7981 5.33295C12.5422 6.07675 11.3563 6.93292 10.2551 7.89095C9.25283 8.7614 8.32402 9.71295 7.47807 10.736C6.64807 11.746 5.89107 12.836 5.21607 14.004C5.1972 14.0368 5.1765 14.0685 5.15407 14.099C0.235066 22.711 1.01307 33.841 7.88707 41.749C7.97328 41.8481 8.03912 41.9633 8.08083 42.0879C8.12253 42.2124 8.13929 42.344 8.13015 42.4751C8.121 42.6062 8.08613 42.7342 8.02752 42.8517C7.96891 42.9693 7.88772 43.0742 7.78857 43.1605C7.68942 43.2467 7.57426 43.3125 7.44967 43.3542C7.32507 43.3959 7.19349 43.4127 7.06242 43.4035C6.93135 43.3944 6.80336 43.3595 6.68577 43.3009C6.56818 43.2423 6.46328 43.1611 6.37707 43.062C-2.08293 33.328 -2.01893 19.089 5.93507 9.46395C7.8566 7.127 10.1738 5.14587 12.7811 3.61095C16.0565 1.67289 19.7192 0.481558 23.5081 0.121953C27.2261 -0.239047 31.0481 0.195951 34.7041 1.49995C37.5563 2.50913 40.2089 4.01165 42.5411 5.93895C44.878 7.86048 46.8591 10.1777 48.3941 12.785C50.3321 16.0604 51.5235 19.7231 51.8831 23.5119C52.2531 27.2999 51.7826 31.1228 50.5051 34.708C49.4956 37.5602 47.9927 40.2129 46.0651 42.545C38.1351 52.189 24.1701 54.97 13.0001 48.521C12.7723 48.3874 12.6065 48.1692 12.539 47.9139C12.4715 47.6586 12.5078 47.3869 12.6398 47.1583C12.7718 46.9296 12.989 46.7624 13.2438 46.6932C13.4986 46.624 13.7705 46.6584 14.0001 46.789C23.0751 52.029 34.1501 50.668 41.6651 44.196V44.196Z" transform="translate(3.00195 2.99805)" fill="#333333"/>
</svg>
