<svg width="58" height="58" viewBox="0 0 58 58" fill="none" xmlns="http://www.w3.org/2000/svg">
<path d="M10.0298 34.1313C7.39244 32.8187 5.11573 30.8815 3.39785 28.4883C3.34519 28.4395 3.29792 28.3851 3.25685 28.3263C-2.44515 20.1833 -0.466152 8.95926 7.67685 3.25726C10.8867 1.00205 14.7479 -0.137582 18.6678 0.0132583C28.3138 0.349258 36.0298 8.27426 36.0298 18.0023C36.0298 18.0843 36.0198 18.1643 36.0008 18.2403C35.9228 23.8273 33.2518 29.2973 28.3258 32.7463C28.1085 32.8926 27.8424 32.9478 27.5847 32.8999C27.3271 32.852 27.0985 32.705 26.9482 32.4903C26.7979 32.2757 26.7379 32.0106 26.781 31.7522C26.8241 31.4937 26.967 31.2625 27.1788 31.1083C34.4168 26.0403 36.1768 16.0633 31.1088 8.82526C29.6377 6.7205 27.6808 5.00142 25.4041 3.81369C23.1273 2.62596 20.5978 2.0046 18.0298 2.00226C9.19285 2.00226 2.02985 9.16526 2.02985 18.0023C2.02985 26.8393 9.19285 34.0023 18.0298 34.0023C18.2951 34.0023 18.5494 34.1076 18.737 34.2952C18.9245 34.4827 19.0298 34.737 19.0298 35.0023C19.0298 35.2675 18.9245 35.5218 18.737 35.7094C18.5494 35.8969 18.2951 36.0023 18.0298 36.0023C15.9862 36.0046 13.9571 35.6583 12.0298 34.9783V41.0023C12.0298 41.2675 12.1352 41.5218 12.3227 41.7094C12.5103 41.8969 12.7646 42.0023 13.0298 42.0023H23.0298C23.2951 42.0023 23.5494 41.8969 23.737 41.7094C23.9245 41.5218 24.0298 41.2675 24.0298 41.0023V38.0023C24.0298 37.737 24.1352 37.4827 24.3227 37.2952C24.5103 37.1076 24.7646 37.0023 25.0298 37.0023C25.2951 37.0023 25.5494 37.1076 25.737 37.2952C25.9245 37.4827 26.0298 37.737 26.0298 38.0023V41.0023C26.0298 41.7979 25.7138 42.561 25.1512 43.1236C24.5886 43.6862 23.8255 44.0023 23.0298 44.0023H13.0298C12.2342 44.0023 11.4711 43.6862 10.9085 43.1236C10.3459 42.561 10.0298 41.7979 10.0298 41.0023V34.1313ZM32.0298 18.0023C32.0298 18.2675 31.9245 18.5218 31.737 18.7094C31.5494 18.8969 31.2951 19.0023 31.0298 19.0023C30.7646 19.0023 30.5103 18.8969 30.3227 18.7094C30.1352 18.5218 30.0298 18.2675 30.0298 18.0023C30.0298 11.3753 24.6568 6.00226 18.0298 6.00226C17.7646 6.00226 17.5103 5.8969 17.3227 5.70937C17.1352 5.52183 17.0298 5.26748 17.0298 5.00226C17.0298 4.73704 17.1352 4.48269 17.3227 4.29515C17.5103 4.10761 17.7646 4.00226 18.0298 4.00226C25.7618 4.00226 32.0298 10.2703 32.0298 18.0023ZM13.0298 46.0023H23.0298C23.2951 46.0023 23.5494 46.1076 23.737 46.2952C23.9245 46.4827 24.0298 46.737 24.0298 47.0023C24.0298 47.2675 23.9245 47.5218 23.737 47.7094C23.5494 47.8969 23.2951 48.0023 23.0298 48.0023H13.0298C12.7646 48.0023 12.5103 47.8969 12.3227 47.7094C12.1352 47.5218 12.0298 47.2675 12.0298 47.0023C12.0298 46.737 12.1352 46.4827 12.3227 46.2952C12.5103 46.1076 12.7646 46.0023 13.0298 46.0023ZM13.0298 50.0023H23.0298C23.2951 50.0023 23.5494 50.1076 23.737 50.2952C23.9245 50.4827 24.0298 50.737 24.0298 51.0023C24.0298 51.2675 23.9245 51.5218 23.737 51.7094C23.5494 51.8969 23.2951 52.0023 23.0298 52.0023H13.0298C12.7646 52.0023 12.5103 51.8969 12.3227 51.7094C12.1352 51.5218 12.0298 51.2675 12.0298 51.0023C12.0298 50.737 12.1352 50.4827 12.3227 50.2952C12.5103 50.1076 12.7646 50.0023 13.0298 50.0023Z" transform="translate(10.9702 2.9978)" fill="#333333"/>
</svg>
