<svg width="58" height="58" viewBox="0 0 58 58" fill="none" xmlns="http://www.w3.org/2000/svg">
<path d="M25.9981 27.002C24.1416 27.002 22.3611 26.2645 21.0483 24.9517C19.7356 23.6389 18.9981 21.8585 18.9981 20.002C18.9981 18.1454 19.7356 16.365 21.0483 15.0522C22.3611 13.7394 24.1416 13.002 25.9981 13.002C27.8546 13.002 29.6351 13.7394 30.9478 15.0522C32.2606 16.365 32.9981 18.1454 32.9981 20.002C32.9981 21.8585 32.2606 23.6389 30.9478 24.9517C29.6351 26.2645 27.8546 27.002 25.9981 27.002ZM25.9981 25.002C27.3241 25.002 28.5959 24.4752 29.5336 23.5375C30.4713 22.5998 30.9981 21.328 30.9981 20.002C30.9981 18.6759 30.4713 17.4041 29.5336 16.4664C28.5959 15.5287 27.3241 15.002 25.9981 15.002C24.672 15.002 23.4002 15.5287 22.4625 16.4664C21.5249 17.4041 20.9981 18.6759 20.9981 20.002C20.9981 21.328 21.5249 22.5998 22.4625 23.5375C23.4002 24.4752 24.672 25.002 25.9981 25.002ZM44.5221 41.272C45.3521 40.264 46.1101 39.173 46.7851 38.004C47.5153 36.7405 48.1295 35.4134 48.6201 34.039C49.7915 30.7277 50.2256 27.2005 49.8921 23.704C49.5525 20.2082 48.4535 16.8288 46.6721 13.802C45.928 12.546 45.0714 11.3601 44.1131 10.259C43.2429 9.25675 42.2917 8.32795 41.2691 7.48195C40.2591 6.65195 39.1691 5.89495 38.0001 5.21995C36.7366 4.48969 35.4095 3.87551 34.0351 3.38495C30.7238 2.21351 27.1966 1.77939 23.7001 2.11295C20.2043 2.45255 16.8249 3.55149 13.7981 5.33295C12.5422 6.07675 11.3563 6.93292 10.2551 7.89095C9.25283 8.7614 8.32402 9.71295 7.47807 10.736C6.64807 11.746 5.89107 12.836 5.21607 14.004C0.236067 22.711 1.01307 33.841 7.88707 41.75C7.97321 41.8491 8.03899 41.9642 8.08064 42.0888C8.12228 42.2134 8.13899 42.3449 8.12979 42.476C8.1206 42.607 8.08569 42.7349 8.02706 42.8524C7.96842 42.97 7.88722 43.0748 7.78807 43.161C7.68892 43.2471 7.57377 43.3129 7.44921 43.3545C7.32464 43.3962 7.19309 43.4129 7.06206 43.4037C6.93104 43.3945 6.80311 43.3596 6.68558 43.3009C6.56805 43.2423 6.46321 43.1611 6.37707 43.062C-2.08293 33.328 -2.01893 19.089 5.93507 9.46395C7.8566 7.127 10.1738 5.14587 12.7811 3.61095C16.0565 1.67289 19.7192 0.481558 23.5081 0.121953C27.2261 -0.239047 31.0481 0.195951 34.7041 1.49995C37.5563 2.50913 40.2089 4.01165 42.5411 5.93895C44.878 7.86048 46.8591 10.1777 48.3941 12.785C50.3321 16.0604 51.5235 19.7231 51.8831 23.5119C52.2531 27.2999 51.7826 31.1228 50.5051 34.708C49.4956 37.5602 47.9927 40.2129 46.0651 42.545C38.1351 52.189 24.1701 54.97 13.0001 48.521C12.7723 48.3874 12.6065 48.1692 12.539 47.9139C12.4715 47.6586 12.5078 47.3869 12.6398 47.1583C12.7718 46.9296 12.989 46.7624 13.2438 46.6932C13.4986 46.624 13.7705 46.6584 14.0001 46.789C23.0751 52.029 34.1501 50.668 41.6651 44.196C42.695 43.3006 43.6504 42.323 44.5221 41.273V41.272ZM18.0841 27.597C18.1917 27.3545 18.3913 27.1648 18.6389 27.0696C18.8864 26.9743 19.1617 26.9813 19.4041 27.089C19.6465 27.1966 19.8362 27.3962 19.9314 27.6437C20.0267 27.8913 20.0197 28.1665 19.9121 28.409L17.1621 34.597C17.0946 34.7492 17.0663 34.9158 17.0796 35.0818C17.0929 35.2477 17.1474 35.4077 17.2381 35.5473C17.3289 35.6868 17.4531 35.8015 17.5994 35.8809C17.7458 35.9603 17.9096 36.0019 18.0761 36.002H33.9201C34.0867 36.002 34.2506 35.9604 34.3971 35.8809C34.5435 35.8015 34.6678 35.6867 34.7586 35.547C34.8494 35.4073 34.9039 35.2471 34.9171 35.081C34.9302 34.915 34.9017 34.7482 34.8341 34.596L32.0841 28.4079C31.9764 28.1655 31.9694 27.8903 32.0647 27.6427C32.16 27.3952 32.3497 27.1956 32.5921 27.0879C32.8345 26.9803 33.1097 26.9733 33.3573 27.0686C33.6048 27.1638 33.8044 27.3535 33.9121 27.596L36.6621 33.784C36.865 34.2407 36.9506 34.741 36.911 35.2392C36.8715 35.7375 36.7081 36.218 36.4357 36.637C36.1633 37.0561 35.7905 37.4005 35.3511 37.6388C34.9118 37.8772 34.4199 38.002 33.9201 38.002H18.0761C17.5762 38.002 17.0843 37.8772 16.645 37.6388C16.2057 37.4005 15.8329 37.0561 15.5604 36.637C15.288 36.218 15.1246 35.7375 15.0851 35.2392C15.0455 34.741 15.1311 34.2407 15.3341 33.784L18.0841 27.596V27.597Z" transform="translate(3.00195 2.99805)" fill="#333333"/>
</svg>
