<svg width="58" height="58" viewBox="0 0 58 58" fill="none" xmlns="http://www.w3.org/2000/svg">
<path d="M0 3.984C0.00368963 2.92851 0.424617 1.91731 1.17096 1.17096C1.91731 0.424617 2.92851 0.00368963 3.984 0H48.016C49.0715 0.00368963 50.0827 0.424617 50.829 1.17096C51.5754 1.91731 51.9963 2.92851 52 3.984V40.016C51.9963 41.0715 51.5754 42.0827 50.829 42.829C50.0827 43.5754 49.0715 43.9963 48.016 44H3.984C2.92851 43.9963 1.91731 43.5754 1.17096 42.829C0.424617 42.0827 0.00368963 41.0715 0 40.016V3.984ZM2 3.984V40.016C2 41.09 2.888 42 3.984 42H48.016C48.5411 41.9963 49.0436 41.7861 49.4148 41.4148C49.7861 41.0436 49.9963 40.5411 50 40.016V3.984C49.9963 3.45894 49.7861 2.95643 49.4148 2.58515C49.0436 2.21387 48.5411 2.00367 48.016 2H3.984C3.45894 2.00367 2.95643 2.21387 2.58515 2.58515C2.21387 2.95643 2.00367 3.45894 2 3.984ZM24.817 36H16.117V34.538L20.515 28.634C21.298 27.564 21.829 26.714 22.108 26.083C22.388 25.451 22.527 24.813 22.527 24.171C22.527 23.441 22.337 22.844 21.959 22.378C21.58 21.912 21.058 21.679 20.39 21.679C19.563 21.679 18.932 21.964 18.5 22.535C18.066 23.105 17.85 23.817 17.85 24.669H16.02L16 24.604C15.969 23.318 16.35 22.23 17.146 21.338C17.942 20.446 19.023 20 20.389 20C21.64 20 22.625 20.39 23.344 21.17C24.062 21.95 24.422 22.957 24.422 24.192C24.422 25.022 24.218 25.835 23.811 26.63C23.403 27.424 22.782 28.42 21.948 29.62L18.416 34.278L18.436 34.332H24.816V36H24.817ZM36 21.907C34.23 24.275 33.033 26.366 32.41 28.179C31.788 29.991 31.477 32.024 31.477 34.278V36H29.58V34.278C29.58 31.894 29.97 29.748 30.75 27.838C31.529 25.928 32.656 23.95 34.132 21.907H26.702V20.227H36V21.907V21.907ZM19 8C18.7348 8 18.4804 7.89464 18.2929 7.70711C18.1054 7.51957 18 7.26522 18 7C18 6.73478 18.1054 6.48043 18.2929 6.29289C18.4804 6.10536 18.7348 6 19 6H33C33.2652 6 33.5196 6.10536 33.7071 6.29289C33.8946 6.48043 34 6.73478 34 7C34 7.26522 33.8946 7.51957 33.7071 7.70711C33.5196 7.89464 33.2652 8 33 8H19ZM7 14C6.73478 14 6.48043 13.8946 6.29289 13.7071C6.10536 13.5196 6 13.2652 6 13C6 12.7348 6.10536 12.4804 6.29289 12.2929C6.48043 12.1054 6.73478 12 7 12H45C45.2652 12 45.5196 12.1054 45.7071 12.2929C45.8946 12.4804 46 12.7348 46 13C46 13.2652 45.8946 13.5196 45.7071 13.7071C45.5196 13.8946 45.2652 14 45 14H7ZM7 8C6.73478 8 6.48043 7.89464 6.29289 7.70711C6.10536 7.51957 6 7.26522 6 7C6 6.73478 6.10536 6.48043 6.29289 6.29289C6.48043 6.10536 6.73478 6 7 6H9C9.26522 6 9.51957 6.10536 9.70711 6.29289C9.89464 6.48043 10 6.73478 10 7C10 7.26522 9.89464 7.51957 9.70711 7.70711C9.51957 7.89464 9.26522 8 9 8H7ZM43 8C42.7348 8 42.4804 7.89464 42.2929 7.70711C42.1054 7.51957 42 7.26522 42 7C42 6.73478 42.1054 6.48043 42.2929 6.29289C42.4804 6.10536 42.7348 6 43 6H45C45.2652 6 45.5196 6.10536 45.7071 6.29289C45.8946 6.48043 46 6.73478 46 7C46 7.26522 45.8946 7.51957 45.7071 7.70711C45.5196 7.89464 45.2652 8 45 8H43Z" transform="translate(3 7)" fill="#333333"/>
</svg>
