<svg width="58" height="58" viewBox="0 0 58 58" fill="none" xmlns="http://www.w3.org/2000/svg">
<path d="M3 36C2.20435 36 1.44129 35.6839 0.878679 35.1213C0.31607 34.5587 -2.28882e-07 33.7956 -2.28882e-07 33V3C-2.28882e-07 2.20435 0.31607 1.44129 0.878679 0.878679C1.44129 0.31607 2.20435 0 3 0H45.01C45.8056 0 46.5687 0.31607 47.1313 0.878679C47.6939 1.44129 48.01 2.20435 48.01 3V32.942C48.01 33.7377 47.6939 34.5007 47.1313 35.0633C46.5687 35.6259 45.8056 35.942 45.01 35.942H36.01C35.7448 35.942 35.4904 35.8366 35.3029 35.6491C35.1154 35.4616 35.01 35.2072 35.01 34.942C35.01 34.6768 35.1154 34.4224 35.3029 34.2349C35.4904 34.0474 35.7448 33.942 36.01 33.942H45.01C45.2752 33.942 45.5296 33.8366 45.7171 33.6491C45.9046 33.4616 46.01 33.2072 46.01 32.942V3C46.01 2.73478 45.9046 2.48043 45.7171 2.29289C45.5296 2.10536 45.2752 2 45.01 2H3C2.73478 2 2.48043 2.10536 2.29289 2.29289C2.10536 2.48043 2 2.73478 2 3V33C2 33.2652 2.10536 33.5196 2.29289 33.7071C2.48043 33.8946 2.73478 34 3 34H27.49L35.79 44.375C35.877 44.4769 35.9426 44.5952 35.983 44.7229C36.0234 44.8506 36.0377 44.9851 36.0251 45.1185C36.0125 45.2518 35.9732 45.3813 35.9096 45.4992C35.846 45.6171 35.7594 45.721 35.6548 45.8047C35.5503 45.8885 35.43 45.9504 35.3011 45.9868C35.1722 46.0232 35.0373 46.0333 34.9044 46.0165C34.7715 45.9997 34.6433 45.9564 34.5274 45.8892C34.4116 45.8219 34.3105 45.7321 34.23 45.625L26.53 36H3ZM27.79 44.375C27.877 44.4769 27.9426 44.5952 27.983 44.7229C28.0234 44.8506 28.0377 44.9851 28.0251 45.1185C28.0125 45.2518 27.9732 45.3813 27.9096 45.4992C27.846 45.6171 27.7594 45.721 27.6548 45.8047C27.5503 45.8885 27.43 45.9504 27.3011 45.9868C27.1722 46.0232 27.0373 46.0333 26.9044 46.0165C26.7715 45.9997 26.6433 45.9564 26.5274 45.8892C26.4116 45.8219 26.3105 45.7321 26.23 45.625L22.23 40.625C22.143 40.5231 22.0774 40.4048 22.037 40.2771C21.9966 40.1494 21.9823 40.0149 21.9949 39.8815C22.0075 39.7482 22.0468 39.6187 22.1104 39.5008C22.174 39.3829 22.2606 39.279 22.3652 39.1953C22.4697 39.1115 22.59 39.0496 22.7189 39.0132C22.8478 38.9768 22.9827 38.9667 23.1156 38.9835C23.2485 39.0003 23.3767 39.0436 23.4926 39.1108C23.6084 39.1781 23.7095 39.2679 23.79 39.375L27.79 44.375ZM17.01 11H37.01C37.2752 11 37.5296 11.1054 37.7171 11.2929C37.9046 11.4804 38.01 11.7348 38.01 12C38.01 12.2652 37.9046 12.5196 37.7171 12.7071C37.5296 12.8946 37.2752 13 37.01 13H17.01C16.7448 13 16.4904 12.8946 16.3029 12.7071C16.1154 12.5196 16.01 12.2652 16.01 12C16.01 11.7348 16.1154 11.4804 16.3029 11.2929C16.4904 11.1054 16.7448 11 17.01 11ZM17.01 17H37.01C37.2752 17 37.5296 17.1054 37.7171 17.2929C37.9046 17.4804 38.01 17.7348 38.01 18C38.01 18.2652 37.9046 18.5196 37.7171 18.7071C37.5296 18.8946 37.2752 19 37.01 19H17.01C16.7448 19 16.4904 18.8946 16.3029 18.7071C16.1154 18.5196 16.01 18.2652 16.01 18C16.01 17.7348 16.1154 17.4804 16.3029 17.2929C16.4904 17.1054 16.7448 17 17.01 17ZM17.01 23H37.01C37.2752 23 37.5296 23.1054 37.7171 23.2929C37.9046 23.4804 38.01 23.7348 38.01 24C38.01 24.2652 37.9046 24.5196 37.7171 24.7071C37.5296 24.8946 37.2752 25 37.01 25H17.01C16.7448 25 16.4904 24.8946 16.3029 24.7071C16.1154 24.5196 16.01 24.2652 16.01 24C16.01 23.7348 16.1154 23.4804 16.3029 23.2929C16.4904 23.1054 16.7448 23 17.01 23ZM11.01 11H13.01C13.2752 11 13.5296 11.1054 13.7171 11.2929C13.9046 11.4804 14.01 11.7348 14.01 12C14.01 12.2652 13.9046 12.5196 13.7171 12.7071C13.5296 12.8946 13.2752 13 13.01 13H11.01C10.7448 13 10.4904 12.8946 10.3029 12.7071C10.1154 12.5196 10.01 12.2652 10.01 12C10.01 11.7348 10.1154 11.4804 10.3029 11.2929C10.4904 11.1054 10.7448 11 11.01 11ZM11.01 17H13.01C13.2752 17 13.5296 17.1054 13.7171 17.2929C13.9046 17.4804 14.01 17.7348 14.01 18C14.01 18.2652 13.9046 18.5196 13.7171 18.7071C13.5296 18.8946 13.2752 19 13.01 19H11.01C10.7448 19 10.4904 18.8946 10.3029 18.7071C10.1154 18.5196 10.01 18.2652 10.01 18C10.01 17.7348 10.1154 17.4804 10.3029 17.2929C10.4904 17.1054 10.7448 17 11.01 17ZM11.01 23H13.01C13.2752 23 13.5296 23.1054 13.7171 23.2929C13.9046 23.4804 14.01 23.7348 14.01 24C14.01 24.2652 13.9046 24.5196 13.7171 24.7071C13.5296 24.8946 13.2752 25 13.01 25H11.01C10.7448 25 10.4904 24.8946 10.3029 24.7071C10.1154 24.5196 10.01 24.2652 10.01 24C10.01 23.7348 10.1154 23.4804 10.3029 23.2929C10.4904 23.1054 10.7448 23 11.01 23Z" transform="translate(4.98999 6)" fill="#333333"/>
</svg>
