<svg width="58" height="58" viewBox="0 0 58 58" fill="none" xmlns="http://www.w3.org/2000/svg">
<path d="M43.6203 23.001H35.7783C35.8563 23.731 35.9143 24.412 35.9533 25.035C35.9823 25.479 35.9953 25.8 36.0003 25.976C36.0069 26.2412 35.9079 26.4982 35.7251 26.6904C35.5422 26.8827 35.2905 26.9944 35.0253 27.001C34.7601 27.0076 34.5031 26.9086 34.3109 26.7258C34.1187 26.5429 34.0069 26.2912 34.0003 26.026C33.9911 25.7378 33.9767 25.4497 33.9573 25.162C33.911 24.4402 33.8473 23.7197 33.7663 23.001H32.0003C31.7351 23.001 31.4807 22.8956 31.2932 22.7081C31.1057 22.5206 31.0003 22.2662 31.0003 22.001C31.0003 21.7358 31.1057 21.4814 31.2932 21.2939C31.4807 21.1064 31.7351 21.001 32.0003 21.001H33.5003C33.2346 19.239 32.8497 17.497 32.3483 15.787C30.6453 10.073 27.9233 6.567 24.0003 6.064V21.001H26.0003C26.2655 21.001 26.5199 21.1064 26.7074 21.2939C26.895 21.4814 27.0003 21.7358 27.0003 22.001C27.0003 22.2662 26.895 22.5206 26.7074 22.7081C26.5199 22.8956 26.2655 23.001 26.0003 23.001H24.0003V46.986C24.0003 48.3121 23.4735 49.5838 22.5358 50.5215C21.5982 51.4592 20.3264 51.986 19.0003 51.986C17.6742 51.986 16.4025 51.4592 15.4648 50.5215C14.5271 49.5838 14.0003 48.3121 14.0003 46.986V43.013C14.0003 42.454 14.4643 42.001 15.0003 42.001C15.5523 42.001 16.0003 42.462 16.0003 43.013V46.986C16.0003 47.7816 16.3164 48.5447 16.879 49.1073C17.4416 49.6699 18.2047 49.986 19.0003 49.986C19.796 49.986 20.559 49.6699 21.1216 49.1073C21.6842 48.5447 22.0003 47.7816 22.0003 46.986V23.001H12.2343C12.1473 23.781 12.0843 24.507 12.0433 25.162C12.0163 25.579 12.0033 25.874 12.0003 26.026C11.9937 26.2912 11.882 26.5429 11.6897 26.7258C11.4975 26.9086 11.2405 27.0076 10.9753 27.001C10.7101 26.9944 10.4584 26.8827 10.2755 26.6904C10.0927 26.4982 9.99368 26.2412 10.0003 25.976C10.0053 25.8 10.0183 25.479 10.0473 25.036C10.0873 24.412 10.1443 23.73 10.2223 23.001H2.38031C2.24024 23.7274 2.13346 24.4598 2.06031 25.196C2.02031 25.602 2.00331 25.885 2.00031 26.026C1.99368 26.2912 1.88197 26.5429 1.68974 26.7258C1.49752 26.9086 1.24053 27.0076 0.975313 27.001C0.710097 26.9944 0.458376 26.8827 0.275528 26.6904C0.09268 26.4982 -0.00631759 26.2412 0.000312825 25.976C0.00531283 25.789 0.0243131 25.457 0.0693131 25.001C0.142313 24.253 0.260312 23.422 0.435312 22.528C0.933312 19.975 1.78031 17.421 3.06231 15.028C6.62231 8.388 12.7773 4.29 22.0003 4.016V0.981C22.0003 0.439 22.4643 5.49316e-07 23.0003 5.49316e-07C23.5523 5.49316e-07 24.0003 0.43 24.0003 0.981V4.015C33.2233 4.289 39.3783 8.387 42.9383 15.028C44.2203 17.42 45.0683 19.974 45.5653 22.528C45.7403 23.421 45.8583 24.252 45.9313 25C45.9763 25.456 45.9953 25.788 46.0003 25.975C46.0069 26.2402 45.9079 26.4972 45.7251 26.6894C45.5422 26.8817 45.2905 26.9934 45.0253 27C44.7601 27.0066 44.5031 26.9076 44.3109 26.7248C44.1187 26.5419 44.0069 26.2902 44.0003 26.025C43.9973 25.884 43.9803 25.601 43.9403 25.195C43.8763 24.533 43.7723 23.795 43.6203 23V23.001ZM43.1573 21.001C42.6885 19.2556 42.0236 17.5688 41.1753 15.973C38.7553 11.46 35.0533 8.263 29.7853 6.836C31.7263 8.777 33.2013 11.644 34.2653 15.216C34.8207 17.1122 35.2407 19.0454 35.5223 21.001H43.1573V21.001ZM10.4773 21.001C10.7592 19.045 11.1796 17.1115 11.7353 15.215C12.7993 11.644 14.2743 8.777 16.2153 6.836C10.9473 8.264 7.24531 11.46 4.82531 15.973C3.977 17.5688 3.3121 19.2556 2.84331 21.001H10.4783H10.4773ZM12.5013 21.001H22.0003V6.064C18.0773 6.567 15.3553 10.073 13.6523 15.787C13.1509 17.497 12.7661 19.239 12.5003 21.001H12.5013Z" transform="translate(5.99976 2.99902)" fill="#333333"/>
</svg>
