<svg width="58" height="58" viewBox="0 0 58 58" fill="none" xmlns="http://www.w3.org/2000/svg">
<path d="M1.17169e-06 3.98705C-0.000401615 3.46184 0.103047 2.94174 0.304397 2.45666C0.505747 1.97157 0.801023 1.53109 1.17324 1.16055C1.54545 0.790007 1.98726 0.496717 2.47325 0.297554C2.95923 0.0983914 3.4798 -0.00271323 4.005 5.53577e-05H47.995C50.203 5.53577e-05 52 1.78105 52 3.98705V40.0131C52.0004 40.5383 51.897 41.0584 51.6956 41.5435C51.4943 42.0285 51.199 42.469 50.8268 42.8396C50.4545 43.2101 50.0127 43.5034 49.5268 43.7026C49.0408 43.9017 48.5202 44.0028 47.995 44.0001H4.005C1.797 44.0001 1.17169e-06 42.2191 1.17169e-06 40.0131V3.98705ZM2 3.98705V40.0131C2 41.1101 2.898 42.0001 4.005 42.0001H47.995C49.121 42.0001 50 41.1101 50 40.0131V3.98705C49.9988 3.72494 49.946 3.46562 49.8446 3.2239C49.7432 2.98219 49.5952 2.76281 49.409 2.5783C49.2228 2.39379 49.0021 2.24776 48.7595 2.14854C48.5169 2.04933 48.2571 1.99887 47.995 2.00006H4.005C2.879 2.00006 2 2.89005 2 3.98705ZM13 8.00006C12.7348 8.00006 12.4804 7.8947 12.2929 7.70716C12.1054 7.51963 12 7.26527 12 7.00006C12 6.73484 12.1054 6.48048 12.2929 6.29295C12.4804 6.10541 12.7348 6.00006 13 6.00006H47C47.2652 6.00006 47.5196 6.10541 47.7071 6.29295C47.8946 6.48048 48 6.73484 48 7.00006C48 7.26527 47.8946 7.51963 47.7071 7.70716C47.5196 7.8947 47.2652 8.00006 47 8.00006H13ZM9 24.0001C8.73478 24.0001 8.48043 23.8947 8.29289 23.7072C8.10536 23.5196 8 23.2653 8 23.0001C8 22.7348 8.10536 22.4805 8.29289 22.2929C8.48043 22.1054 8.73478 22.0001 9 22.0001H43C43.2652 22.0001 43.5196 22.1054 43.7071 22.2929C43.8946 22.4805 44 22.7348 44 23.0001C44 23.2653 43.8946 23.5196 43.7071 23.7072C43.5196 23.8947 43.2652 24.0001 43 24.0001H9ZM9 28.0001C8.73478 28.0001 8.48043 27.8947 8.29289 27.7072C8.10536 27.5196 8 27.2653 8 27.0001C8 26.7348 8.10536 26.4805 8.29289 26.2929C8.48043 26.1054 8.73478 26.0001 9 26.0001H43C43.2652 26.0001 43.5196 26.1054 43.7071 26.2929C43.8946 26.4805 44 26.7348 44 27.0001C44 27.2653 43.8946 27.5196 43.7071 27.7072C43.5196 27.8947 43.2652 28.0001 43 28.0001H9ZM9 32.0001C8.73478 32.0001 8.48043 31.8947 8.29289 31.7072C8.10536 31.5196 8 31.2653 8 31.0001C8 30.7348 8.10536 30.4805 8.29289 30.2929C8.48043 30.1054 8.73478 30.0001 9 30.0001H43C43.2652 30.0001 43.5196 30.1054 43.7071 30.2929C43.8946 30.4805 44 30.7348 44 31.0001C44 31.2653 43.8946 31.5196 43.7071 31.7072C43.5196 31.8947 43.2652 32.0001 43 32.0001H9ZM9 8.00006C8.73478 8.00006 8.48043 7.8947 8.29289 7.70716C8.10536 7.51963 8 7.26527 8 7.00006C8 6.73484 8.10536 6.48048 8.29289 6.29295C8.48043 6.10541 8.73478 6.00006 9 6.00006C9.26522 6.00006 9.51957 6.10541 9.70711 6.29295C9.89464 6.48048 10 6.73484 10 7.00006C10 7.26527 9.89464 7.51963 9.70711 7.70716C9.51957 7.8947 9.26522 8.00006 9 8.00006ZM5 8.00006C4.73478 8.00006 4.48043 7.8947 4.29289 7.70716C4.10536 7.51963 4 7.26527 4 7.00006C4 6.73484 4.10536 6.48048 4.29289 6.29295C4.48043 6.10541 4.73478 6.00006 5 6.00006C5.26522 6.00006 5.51957 6.10541 5.70711 6.29295C5.89464 6.48048 6 6.73484 6 7.00006C6 7.26527 5.89464 7.51963 5.70711 7.70716C5.51957 7.8947 5.26522 8.00006 5 8.00006ZM5 14.0001C4.73478 14.0001 4.48043 13.8947 4.29289 13.7072C4.10536 13.5196 4 13.2653 4 13.0001C4 12.7348 4.10536 12.4805 4.29289 12.2929C4.48043 12.1054 4.73478 12.0001 5 12.0001H47C47.2652 12.0001 47.5196 12.1054 47.7071 12.2929C47.8946 12.4805 48 12.7348 48 13.0001C48 13.2653 47.8946 13.5196 47.7071 13.7072C47.5196 13.8947 47.2652 14.0001 47 14.0001H5Z" transform="translate(3 7)" fill="#333333"/>
</svg>
