<svg width="58" height="58" viewBox="0 0 58 58" fill="none" xmlns="http://www.w3.org/2000/svg">
<path d="M1.51608e-05 47.998V43.01C1.51608e-05 42.453 0.464015 42.001 1.00002 42.001C1.13256 41.9996 1.26404 42.0249 1.38663 42.0753C1.50923 42.1257 1.62046 42.2002 1.71373 42.2944C1.80699 42.3886 1.88039 42.5006 1.92957 42.6237C1.97874 42.7468 2.0027 42.8785 2.00002 43.011V47.999C2.00002 49.112 2.89002 50.001 3.99002 50.001H38.01C39.098 50.001 40 49.105 40 47.999V40H27.99C25.778 40 24 38.208 24 35.981V32.02C24 29.809 25.797 28 27.99 28H40V20.002C40 18.889 39.11 18 38.01 18H3.99002C2.90201 18 2.00002 18.896 2.00002 20.002V35.009C2.00002 35.556 1.53602 36 1.00002 36C0.448015 36 1.51608e-05 35.568 1.51608e-05 35.01V20.001C1.51608e-05 17.796 1.79202 16 3.99002 16H14C13.9971 14.0508 14.7086 12.1681 16 10.708V4.981C16 4.439 16.464 4 17 4C17.552 4 18 4.43 18 4.981V9.071C19.2162 8.36882 20.5959 7.99917 22.0002 7.9992C23.4046 7.99924 24.7842 8.36896 26.0004 9.0712C27.2165 9.77344 28.2264 10.7835 28.9285 11.9997C29.6306 13.216 30.0002 14.5956 30 16L38.01 15.999C38.535 15.9991 39.0549 16.1029 39.5398 16.3042C40.0247 16.5056 40.465 16.8007 40.8357 17.1725C41.2063 17.5444 41.5 17.9857 41.6998 18.4713C41.8996 18.9568 42.0016 19.477 42 20.002V28H44.01C46.223 28 48 29.792 48 32.019V35.981C48 38.191 46.203 40 44.01 40H42V47.998C42 50.204 40.208 52 38.01 52H3.99002C3.46507 51.9999 2.9453 51.8962 2.46049 51.6949C1.97567 51.4936 1.53534 51.1986 1.1647 50.8268C0.794067 50.4551 0.50041 50.0139 0.300554 49.5284C0.100698 49.043 -0.00143172 48.5229 1.51608e-05 47.998V47.998ZM28 16C28 14.4087 27.3679 12.8826 26.2427 11.7574C25.1174 10.6321 23.5913 10 22 10C20.4087 10 18.8826 10.6321 17.7574 11.7574C16.6322 12.8826 16 14.4087 16 16H18C18 14.9391 18.4214 13.9217 19.1716 13.1716C19.9217 12.4214 20.9391 12 22 12C23.0609 12 24.0783 12.4214 24.8284 13.1716C25.5786 13.9217 26 14.9391 26 16H28ZM20 16H24C24 15.4696 23.7893 14.9609 23.4142 14.5858C23.0392 14.2107 22.5304 14 22 14C21.4696 14 20.9609 14.2107 20.5858 14.5858C20.2107 14.9609 20 15.4696 20 16ZM26 0.99C26 0.444 26.464 0 27 0C27.552 0 28 0.432 28 0.99V5.01C28 5.556 27.536 6 27 6C26.448 6 26 5.568 26 5.01V0.99ZM26 32.019V35.981C26 37.113 26.891 38 27.99 38H44.01C45.089 38 46 37.096 46 35.981V32.02C46.0035 31.7563 45.9545 31.4945 45.8561 31.2499C45.7577 31.0052 45.6117 30.7825 45.4267 30.5946C45.2416 30.4067 45.0211 30.2575 44.7779 30.1554C44.5347 30.0533 44.2737 30.0005 44.01 30H27.99C26.911 30 26 30.904 26 32.019V32.019ZM30 36C29.4696 36 28.9609 35.7893 28.5858 35.4142C28.2107 35.0391 28 34.5304 28 34C28 33.4696 28.2107 32.9609 28.5858 32.5858C28.9609 32.2107 29.4696 32 30 32C30.5304 32 31.0392 32.2107 31.4142 32.5858C31.7893 32.9609 32 33.4696 32 34C32 34.5304 31.7893 35.0391 31.4142 35.4142C31.0392 35.7893 30.5304 36 30 36ZM28 45C28 44.448 28.43 44 28.981 44H35.019C35.561 44 36 44.464 36 45C36 45.552 35.57 46 35.019 46H28.981C28.439 46 28 45.536 28 45V45Z" transform="translate(5 3)" fill="#333333"/>
</svg>
