<svg width="58" height="58" viewBox="0 0 58 58" fill="none" xmlns="http://www.w3.org/2000/svg">
<path fill-rule="evenodd" clip-rule="evenodd" d="M31 32C32.2526 31.9998 33.4821 31.6634 34.5604 31.0261C35.6387 30.3888 36.5262 29.4738 37.1304 28.3766C37.7346 27.2794 38.0333 26.0402 37.9954 24.7882C37.9575 23.5362 37.5844 22.3173 36.9149 21.2587C36.2455 20.2001 35.3042 19.3404 34.1894 18.7695C33.0745 18.1986 31.8269 17.9372 30.5766 18.0128C29.3263 18.0883 28.1192 18.4979 27.0812 19.1989C26.0431 19.8998 25.2122 20.8665 24.675 21.998C24.44 22.587 23.857 22.834 23.345 22.628C23.2232 22.5788 23.1122 22.506 23.0185 22.4138C22.9248 22.3217 22.8502 22.212 22.7989 22.0909C22.7477 21.9699 22.7207 21.84 22.7197 21.7086C22.7187 21.5771 22.7436 21.4468 22.793 21.325C23.4304 19.8944 24.4309 18.6553 25.6952 17.7309C26.9594 16.8064 28.4435 16.2287 30 16.055V4.00502C30.0016 3.74127 29.9508 3.47984 29.8506 3.23586C29.7504 2.99188 29.6028 2.77022 29.4163 2.58372C29.2298 2.39722 29.0082 2.24959 28.7642 2.1494C28.5202 2.0492 28.2588 1.99843 27.995 2.00002H4.00502C3.47399 2.00239 2.96538 2.21439 2.58988 2.58988C2.21439 2.96538 2.00239 3.47399 2.00002 4.00502V40H30V42H2.00002V47.995C2.00002 49.121 2.89802 50 4.00502 50H27.995C28.526 49.9977 29.0347 49.7857 29.4102 49.4102C29.7856 49.0347 29.9976 48.5261 30 47.995V33.945C28.4443 33.7706 26.9609 33.1938 25.6961 32.2714C24.4312 31.349 23.4286 30.1129 22.787 28.685C22.586 28.163 22.833 27.58 23.345 27.373C23.857 27.166 24.468 27.49 24.675 28.003C25.2432 29.1994 26.1391 30.21 27.2587 30.9175C28.3783 31.625 29.6756 32.0004 31 32ZM40 25C40 29.633 36.5 33.448 32 33.945V47.995C31.9976 49.0565 31.5749 50.0738 30.8244 50.8244C30.0738 51.5749 29.0565 51.9976 27.995 52H4.00502C3.47863 52.0016 2.95712 51.8991 2.4705 51.6984C1.98387 51.4977 1.54174 51.2027 1.16952 50.8305C0.797308 50.4583 0.502363 50.0162 0.301654 49.5295C0.100945 49.0429 -0.00156624 48.5214 1.80876e-05 47.995V4.00502C0.00239539 2.94356 0.425113 1.92625 1.17568 1.17568C1.92625 0.425113 2.94356 0.00239539 4.00502 1.80876e-05H27.995C28.5214 -0.00156624 29.0429 0.100945 29.5295 0.301654C30.0162 0.502363 30.4583 0.797308 30.8305 1.16952C31.2027 1.54174 31.4977 1.98387 31.6984 2.4705C31.8991 2.95712 32.0016 3.47863 32 4.00502V16.055C36.5 16.552 40 20.367 40 25ZM16 48C15.4696 48 14.9609 47.7893 14.5858 47.4142C14.2107 47.0392 14 46.5305 14 46C14 45.4696 14.2107 44.9609 14.5858 44.5858C14.9609 44.2107 15.4696 44 16 44C16.5305 44 17.0392 44.2107 17.4142 44.5858C17.7893 44.9609 18 45.4696 18 46C18 46.5305 17.7893 47.0392 17.4142 47.4142C17.0392 47.7893 16.5305 48 16 48ZM4.00002 9.00002C4.00002 8.44802 4.45802 8.00002 5.00002 8.00002H27C27.552 8.00002 28 8.46402 28 9.00002C28 9.55202 27.542 10 27 10H5.00002C4.44802 10 4.00002 9.53602 4.00002 9.00002ZM31 30C29.6739 30 28.4022 29.4732 27.4645 28.5356C26.5268 27.5979 26 26.3261 26 25C26 23.6739 26.5268 22.4022 27.4645 21.4645C28.4022 20.5268 29.6739 20 31 20C32.3261 20 33.5979 20.5268 34.5356 21.4645C35.4732 22.4022 36 23.6739 36 25C36 26.3261 35.4732 27.5979 34.5356 28.5356C33.5979 29.4732 32.3261 30 31 30ZM31 28C31.7957 28 32.5587 27.6839 33.1213 27.1213C33.6839 26.5587 34 25.7957 34 25C34 24.2044 33.6839 23.4413 33.1213 22.8787C32.5587 22.3161 31.7957 22 31 22C30.2044 22 29.4413 22.3161 28.8787 22.8787C28.3161 23.4413 28 24.2044 28 25C28 25.7957 28.3161 26.5587 28.8787 27.1213C29.4413 27.6839 30.2044 28 31 28Z" transform="translate(13 3)" fill="#333333"/>
</svg>
