<svg width="58" height="58" viewBox="0 0 58 58" fill="none" xmlns="http://www.w3.org/2000/svg">
<path d="M17.01 50H40.016C41.09 50 42 49.104 42 47.999V42H23.874C23.6516 42.8582 23.1504 43.6183 22.4493 44.1609C21.7481 44.7035 20.8866 44.9979 20 44.9979C19.1134 44.9979 18.2519 44.7035 17.5507 44.1609C16.8496 43.6183 16.3484 42.8582 16.126 42H13.874C13.6516 42.8582 13.1504 43.6183 12.4493 44.1609C11.7481 44.7035 10.8866 44.9979 10 44.9979C9.1134 44.9979 8.2519 44.7035 7.55074 44.1609C6.84957 43.6183 6.34844 42.8582 6.126 42H2V47.999C2 49.105 2.888 50 3.984 50H8.991C9.548 50 10 50.464 10 51C10.0014 51.1325 9.9761 51.264 9.9257 51.3866C9.8753 51.5092 9.80079 51.6205 9.7066 51.7137C9.6124 51.807 9.50044 51.8804 9.37734 51.9296C9.25425 51.9787 9.12253 52.0027 8.99 52H3.984C1.779 52 0 50.205 0 47.999V4C0 1.8 1.798 0 3.984 0H40.016C42.221 0 44 1.795 44 4.001V48C44 50.2 42.202 52 40.016 52H17.01C16.452 52 16 51.536 16 51C16 50.448 16.428 50 17.01 50ZM16.126 40C16.3484 39.1418 16.8496 38.3817 17.5507 37.8391C18.2519 37.2965 19.1134 37.0021 20 37.0021C20.8866 37.0021 21.7481 37.2965 22.4493 37.8391C23.1504 38.3817 23.6516 39.1418 23.874 40H42V32H37.874C37.6516 32.8582 37.1504 33.6183 36.4493 34.1609C35.7481 34.7035 34.8866 34.9979 34 34.9979C33.1134 34.9979 32.2519 34.7035 31.5507 34.1609C30.8496 33.6183 30.3484 32.8582 30.126 32H13.874C13.6516 32.8582 13.1504 33.6183 12.4493 34.1609C11.7481 34.7035 10.8866 34.9979 10 34.9979C9.1134 34.9979 8.2519 34.7035 7.55074 34.1609C6.84957 33.6183 6.34844 32.8582 6.126 32H2V40H6.126C6.34844 39.1418 6.84957 38.3817 7.55074 37.8391C8.2519 37.2965 9.1134 37.0021 10 37.0021C10.8866 37.0021 11.7481 37.2965 12.4493 37.8391C13.1504 38.3817 13.6516 39.1418 13.874 40H16.126V40ZM30.126 30C30.3484 29.1418 30.8496 28.3817 31.5507 27.8391C32.2519 27.2965 33.1134 27.0021 34 27.0021C34.8866 27.0021 35.7481 27.2965 36.4493 27.8391C37.1504 28.3817 37.6516 29.1418 37.874 30H42V22H23.874C23.6516 22.8582 23.1504 23.6183 22.4493 24.1609C21.7481 24.7035 20.8866 24.9979 20 24.9979C19.1134 24.9979 18.2519 24.7035 17.5507 24.1609C16.8496 23.6183 16.3484 22.8582 16.126 22H13.874C13.6516 22.8582 13.1504 23.6183 12.4493 24.1609C11.7481 24.7035 10.8866 24.9979 10 24.9979C9.1134 24.9979 8.2519 24.7035 7.55074 24.1609C6.84957 23.6183 6.34844 22.8582 6.126 22H2V30H6.126C6.34844 29.1418 6.84957 28.3817 7.55074 27.8391C8.2519 27.2965 9.1134 27.0021 10 27.0021C10.8866 27.0021 11.7481 27.2965 12.4493 27.8391C13.1504 28.3817 13.6516 29.1418 13.874 30H30.126V30ZM23.874 20H42V12H33.874C33.6516 12.8582 33.1504 13.6183 32.4493 14.1609C31.7481 14.7035 30.8866 14.9979 30 14.9979C29.1134 14.9979 28.2519 14.7035 27.5507 14.1609C26.8496 13.6183 26.3484 12.8582 26.126 12H13.874C13.6516 12.8582 13.1504 13.6183 12.4493 14.1609C11.7481 14.7035 10.8866 14.9979 10 14.9979C9.1134 14.9979 8.2519 14.7035 7.55074 14.1609C6.84957 13.6183 6.34844 12.8582 6.126 12H2V20H6.126C6.34844 19.1418 6.84957 18.3817 7.55074 17.8391C8.2519 17.2965 9.1134 17.0021 10 17.0021C10.8866 17.0021 11.7481 17.2965 12.4493 17.8391C13.1504 18.3817 13.6516 19.1418 13.874 20H16.126C16.3484 19.1418 16.8496 18.3817 17.5507 17.8391C18.2519 17.2965 19.1134 17.0021 20 17.0021C20.8866 17.0021 21.7481 17.2965 22.4493 17.8391C23.1504 18.3817 23.6516 19.1418 23.874 20V20ZM33.874 10H42V4.001C42.0012 3.73932 41.9508 3.47997 41.8517 3.23778C41.7526 2.99558 41.6068 2.77527 41.4226 2.58945C41.2383 2.40363 41.0193 2.25592 40.7779 2.15479C40.5366 2.05365 40.2777 2.00105 40.016 2H3.984C2.91 2 2 2.896 2 4.001V10H6.126C6.34844 9.14176 6.84957 8.38168 7.55074 7.83907C8.2519 7.29647 9.1134 7.00206 10 7.00206C10.8866 7.00206 11.7481 7.29647 12.4493 7.83907C13.1504 8.38168 13.6516 9.14176 13.874 10H26.126C26.3484 9.14176 26.8496 8.38168 27.5507 7.83907C28.2519 7.29647 29.1134 7.00206 30 7.00206C30.8866 7.00206 31.7481 7.29647 32.4493 7.83907C33.1504 8.38168 33.6516 9.14176 33.874 10V10ZM10 13C10.5304 13 11.0391 12.7893 11.4142 12.4142C11.7893 12.0391 12 11.5304 12 11C12 10.4696 11.7893 9.96086 11.4142 9.58579C11.0391 9.21071 10.5304 9 10 9C9.46957 9 8.96086 9.21071 8.58579 9.58579C8.21071 9.96086 8 10.4696 8 11C8 11.5304 8.21071 12.0391 8.58579 12.4142C8.96086 12.7893 9.46957 13 10 13ZM30 13C30.5304 13 31.0391 12.7893 31.4142 12.4142C31.7893 12.0391 32 11.5304 32 11C32 10.4696 31.7893 9.96086 31.4142 9.58579C31.0391 9.21071 30.5304 9 30 9C29.4696 9 28.9609 9.21071 28.5858 9.58579C28.2107 9.96086 28 10.4696 28 11C28 11.5304 28.2107 12.0391 28.5858 12.4142C28.9609 12.7893 29.4696 13 30 13ZM10 23C10.5304 23 11.0391 22.7893 11.4142 22.4142C11.7893 22.0391 12 21.5304 12 21C12 20.4696 11.7893 19.9609 11.4142 19.5858C11.0391 19.2107 10.5304 19 10 19C9.46957 19 8.96086 19.2107 8.58579 19.5858C8.21071 19.9609 8 20.4696 8 21C8 21.5304 8.21071 22.0391 8.58579 22.4142C8.96086 22.7893 9.46957 23 10 23ZM20 23C20.5304 23 21.0391 22.7893 21.4142 22.4142C21.7893 22.0391 22 21.5304 22 21C22 20.4696 21.7893 19.9609 21.4142 19.5858C21.0391 19.2107 20.5304 19 20 19C19.4696 19 18.9609 19.2107 18.5858 19.5858C18.2107 19.9609 18 20.4696 18 21C18 21.5304 18.2107 22.0391 18.5858 22.4142C18.9609 22.7893 19.4696 23 20 23ZM10 33C10.5304 33 11.0391 32.7893 11.4142 32.4142C11.7893 32.0391 12 31.5304 12 31C12 30.4696 11.7893 29.9609 11.4142 29.5858C11.0391 29.2107 10.5304 29 10 29C9.46957 29 8.96086 29.2107 8.58579 29.5858C8.21071 29.9609 8 30.4696 8 31C8 31.5304 8.21071 32.0391 8.58579 32.4142C8.96086 32.7893 9.46957 33 10 33ZM34 33C34.5304 33 35.0391 32.7893 35.4142 32.4142C35.7893 32.0391 36 31.5304 36 31C36 30.4696 35.7893 29.9609 35.4142 29.5858C35.0391 29.2107 34.5304 29 34 29C33.4696 29 32.9609 29.2107 32.5858 29.5858C32.2107 29.9609 32 30.4696 32 31C32 31.5304 32.2107 32.0391 32.5858 32.4142C32.9609 32.7893 33.4696 33 34 33ZM10 43C10.5304 43 11.0391 42.7893 11.4142 42.4142C11.7893 42.0391 12 41.5304 12 41C12 40.4696 11.7893 39.9609 11.4142 39.5858C11.0391 39.2107 10.5304 39 10 39C9.46957 39 8.96086 39.2107 8.58579 39.5858C8.21071 39.9609 8 40.4696 8 41C8 41.5304 8.21071 42.0391 8.58579 42.4142C8.96086 42.7893 9.46957 43 10 43ZM20 43C20.5304 43 21.0391 42.7893 21.4142 42.4142C21.7893 42.0391 22 41.5304 22 41C22 40.4696 21.7893 39.9609 21.4142 39.5858C21.0391 39.2107 20.5304 39 20 39C19.4696 39 18.9609 39.2107 18.5858 39.5858C18.2107 39.9609 18 40.4696 18 41C18 41.5304 18.2107 42.0391 18.5858 42.4142C18.9609 42.7893 19.4696 43 20 43Z" transform="translate(7 3)" fill="#333333"/>
</svg>
