<svg width="58" height="58" viewBox="0 0 58 58" fill="none" xmlns="http://www.w3.org/2000/svg">
<path d="M31.9915 31.9923C27.7935 36.1903 23.7245 39.9083 19.9715 42.9663C21.907 43.6529 23.9458 44.0027 25.9995 44.0003C30.2865 44.0003 34.2225 42.5023 37.3145 40.0003H32.9795C32.4375 40.0003 31.9985 39.5363 31.9985 39.0003C31.9985 38.4483 32.4285 38.0003 32.9795 38.0003H39.0175C39.1338 38.0005 39.2491 38.0222 39.3575 38.0643C40.4627 36.8426 41.3954 35.4753 42.1295 34.0003H41.0095C40.4515 34.0003 39.9995 33.5363 39.9995 33.0003C39.9995 32.4483 40.4275 32.0003 41.0095 32.0003H42.9755C43.6555 30.0731 44.0018 28.044 43.9995 26.0003C44.0018 23.9467 43.652 21.9078 42.9655 19.9723C39.9075 23.7253 36.1895 27.7943 31.9915 31.9923V31.9923ZM25.9995 8.00034C16.7345 8.00034 9.10446 15.0003 8.10946 24.0003H15.4045C15.9545 24.0003 16.3995 24.4643 16.3995 25.0003C16.3995 25.5523 15.9695 26.0003 15.4045 26.0003H7.99946C7.99946 32.9213 11.9055 38.9303 17.6345 41.9423C21.5845 38.8023 25.9775 34.8763 30.4265 30.4273C34.8755 25.9783 38.8015 21.5853 41.9415 17.6353C38.9295 11.9063 32.9215 8.00034 25.9995 8.00034ZM0.956464 51.0433C-1.01854 49.0673 0.159463 44.9003 3.62046 39.4253C3.95346 38.9123 4.59446 38.8483 5.10646 39.1813C5.61946 39.5143 5.76546 40.1993 5.43246 40.7123C2.57946 45.1243 1.40246 48.3583 2.52246 49.4783C4.00446 50.9603 9.18246 48.4083 15.9185 43.2783C9.98546 39.8073 5.99946 33.3683 5.99946 26.0003C5.99946 14.9543 14.9535 6.00034 25.9995 6.00034C28.7805 6.00034 31.4295 6.56834 33.8355 7.59434C42.0015 1.23934 48.4335 -1.65166 51.0425 0.957342C53.6515 3.56734 50.7605 9.99834 44.4055 18.1643C45.4606 20.6419 46.0028 23.3075 45.9995 26.0003C45.9995 37.0463 37.0455 46.0003 25.9995 46.0003C23.2185 46.0003 20.5695 45.4323 18.1635 44.4063C9.99747 50.7613 3.56546 53.6523 0.956464 51.0433V51.0433ZM43.2765 15.9193C48.4065 9.18234 50.9595 4.00534 49.4765 2.52234C47.9945 1.04034 42.8165 3.59234 36.0805 8.72234C39.0568 10.4643 41.5349 12.9427 43.2765 15.9193ZM19.9995 25.0003C19.9995 24.4483 20.4315 24.0003 20.9895 24.0003H25.0095C25.5555 24.0003 25.9995 24.4643 25.9995 25.0003C25.9995 25.5523 25.5675 26.0003 25.0095 26.0003H20.9895C20.4435 26.0003 19.9995 25.5363 19.9995 25.0003V25.0003ZM19.9995 17.0003C19.9995 16.4483 20.4295 16.0003 20.9945 16.0003H29.0045C29.5545 16.0003 29.9995 16.4643 29.9995 17.0003C29.9995 17.5523 29.5695 18.0003 29.0045 18.0003H20.9945C20.4445 18.0003 19.9995 17.5363 19.9995 17.0003Z" transform="translate(3.00049 2.99976)" fill="#333333"/>
</svg>
