<svg width="58" height="58" viewBox="0 0 58 58" fill="none" xmlns="http://www.w3.org/2000/svg">
<path fill-rule="evenodd" clip-rule="evenodd" d="M43.89 30C43.005 21.993 36.868 15.569 29 14.249V6C28.7348 6 28.4804 5.89464 28.2929 5.70711C28.1054 5.51957 28 5.26522 28 5C28 4.73478 28.1054 4.48043 28.2929 4.29289C28.4804 4.10536 28.7348 4 29 4H31C31.2652 4 31.5196 3.89464 31.7071 3.70711C31.8946 3.51957 32 3.26522 32 3C32 2.73478 31.8946 2.48043 31.7071 2.29289C31.5196 2.10536 31.2652 2 31 2H21C20.7348 2 20.4804 2.10536 20.2929 2.29289C20.1054 2.48043 20 2.73478 20 3C20 3.26522 20.1054 3.51957 20.2929 3.70711C20.4804 3.89464 20.7348 4 21 4H23C23.2652 4 23.5196 4.10536 23.7071 4.29289C23.8946 4.48043 24 4.73478 24 5C24 5.26522 23.8946 5.51957 23.7071 5.70711C23.5196 5.89464 23.2652 6 23 6V14.249C14.487 15.677 8 23.08 8 32C8 41.941 16.059 50 26 50C35.941 50 44 41.941 44 32H17C16.7348 32 16.4804 31.8946 16.2929 31.7071C16.1054 31.5196 16 31.2652 16 31C16 30.7348 16.1054 30.4804 16.2929 30.2929C16.4804 30.1054 16.7348 30 17 30H43.89ZM45.984 31.182C45.994 31.453 46 31.726 46 32C46 39.916 41.4 46.759 34.728 50H51C51.2652 50 51.5196 50.1054 51.7071 50.2929C51.8946 50.4804 52 50.7348 52 51C52 51.2652 51.8946 51.5196 51.7071 51.7071C51.5196 51.8946 51.2652 52 51 52H1C0.734784 52 0.480429 51.8946 0.292892 51.7071C0.105356 51.5196 0 51.2652 0 51C0 50.7348 0.105356 50.4804 0.292892 50.2929C0.480429 50.1054 0.734784 50 1 50H17.272C10.599 46.759 6 39.916 6 32C6 22.68 12.374 14.85 21 12.63V6C20.2044 6 19.4413 5.68393 18.8787 5.12132C18.3161 4.55871 18 3.79565 18 3C18 2.20435 18.3161 1.44129 18.8787 0.878679C19.4413 0.31607 20.2044 2.37122e-08 21 0H31C31.7956 2.37122e-08 32.5587 0.31607 33.1213 0.878679C33.6839 1.44129 34 2.20435 34 3C34 3.79565 33.6839 4.55871 33.1213 5.12132C32.5587 5.68393 31.7956 6 31 6V12.63C39.227 14.748 45.406 21.969 45.96 30.718C46.0043 30.8686 46.0125 31.0276 45.984 31.182V31.182ZM15.394 21.393C15.4869 21.3002 15.5972 21.2265 15.7186 21.1763C15.8399 21.1261 15.97 21.1002 16.1014 21.1003C16.2327 21.1003 16.3628 21.1263 16.4841 21.1766C16.6054 21.2269 16.7157 21.3006 16.8085 21.3935C16.9013 21.4864 16.975 21.5967 17.0252 21.7181C17.0754 21.8394 17.1013 21.9695 17.1012 22.1009C17.1012 22.2322 17.0752 22.3623 17.0249 22.4836C16.9746 22.6049 16.9009 22.7152 16.808 22.808C11.731 27.884 11.731 36.116 16.808 41.192C16.9956 41.3796 17.1011 41.6341 17.1011 41.8995C17.1011 42.1649 16.9956 42.4194 16.808 42.607C16.6204 42.7946 16.3659 42.9001 16.1005 42.9001C15.8351 42.9001 15.5806 42.7946 15.393 42.607C9.536 36.749 9.536 27.251 15.393 21.393H15.394ZM27 46C26.2044 46 25.4413 45.6839 24.8787 45.1213C24.3161 44.5587 24 43.7956 24 43C24 42.2044 24.3161 41.4413 24.8787 40.8787C25.4413 40.3161 26.2044 40 27 40C27.7956 40 28.5587 40.3161 29.1213 40.8787C29.6839 41.4413 30 42.2044 30 43C30 43.7956 29.6839 44.5587 29.1213 45.1213C28.5587 45.6839 27.7956 46 27 46ZM33 26C32.2044 26 31.4413 25.6839 30.8787 25.1213C30.3161 24.5587 30 23.7956 30 23C30 22.2044 30.3161 21.4413 30.8787 20.8787C31.4413 20.3161 32.2044 20 33 20C33.7956 20 34.5587 20.3161 35.1213 20.8787C35.6839 21.4413 36 22.2044 36 23C36 23.7956 35.6839 24.5587 35.1213 25.1213C34.5587 25.6839 33.7956 26 33 26Z" transform="translate(3 3)" fill="#333333"/>
</svg>
