<svg width="58" height="58" viewBox="0 0 58 58" fill="none" xmlns="http://www.w3.org/2000/svg">
<path d="M34.4663 23.422L41.4013 9.552C41.5235 9.32102 41.7313 9.14705 41.9801 9.06733C42.229 8.9876 42.4992 9.00846 42.7329 9.12542C42.9665 9.24239 43.1451 9.44618 43.2304 9.69318C43.3158 9.94017 43.301 10.2107 43.1893 10.447L35.9523 24.921C36.8365 25.9571 37.5649 27.1166 38.1143 28.363L48.3983 7.794C48.8913 6.808 48.3983 6 47.2943 6H3.29533C2.18933 6 1.69533 6.803 2.19133 7.794L12.4753 28.363C13.0248 27.1166 13.7531 25.9571 14.6373 24.921L7.40032 10.447C7.29135 10.2111 7.27849 9.94202 7.36446 9.69679C7.45044 9.45156 7.6285 9.24943 7.86093 9.13321C8.09336 9.017 8.3619 8.99583 8.60968 9.07418C8.85745 9.15254 9.06498 9.32427 9.18832 9.553L16.1233 23.422C18.6667 21.2105 21.9249 19.9949 25.2953 20C28.8033 20 32.0093 21.29 34.4663 23.422ZM38.9903 31.082C39.1903 32.022 39.2953 32.999 39.2953 34C39.2953 41.732 33.0273 48 25.2953 48C17.5633 48 11.2953 41.732 11.2953 34C11.2953 33 11.4003 32.023 11.6003 31.081L0.403325 8.69C-0.756675 6.37 0.701325 4.001 3.29632 4.001H47.2953C49.8883 4.001 51.3453 6.375 50.1883 8.69L38.9903 31.08V31.082ZM25.2953 46C31.9223 46 37.2953 40.627 37.2953 34C37.2953 27.373 31.9223 22 25.2953 22C18.6683 22 13.2953 27.373 13.2953 34C13.2953 40.627 18.6683 46 25.2953 46ZM5.29533 1C5.29533 0.448 5.74533 0 6.28433 0H44.3053C44.8513 0 45.2943 0.464 45.2943 1C45.2943 1.552 44.8443 2 44.3053 2H6.28533C5.73933 2 5.29632 1.536 5.29632 1H5.29533ZM27.0473 39.612H24.8283V30.557L22.7193 30.604V29.003L27.0473 28.229V39.612V39.612Z" transform="translate(3.70459 5)" fill="#333333"/>
</svg>
