<svg width="58" height="58" viewBox="0 0 58 58" fill="none" xmlns="http://www.w3.org/2000/svg">
<path d="M36.9415 18.9634C35.5858 16.8406 33.6394 15.1601 31.3415 14.1284C29.6615 13.3727 27.8407 12.9808 25.9985 12.9784C23.6947 12.9813 21.4326 13.5934 19.4415 14.7524C17.4884 15.8907 15.8676 17.5209 14.7405 19.4804C14.6753 19.5951 14.5881 19.6957 14.4839 19.7765C14.3797 19.8573 14.2605 19.9167 14.1332 19.9512C14.0059 19.9858 13.8731 19.9948 13.7423 19.9778C13.6115 19.9608 13.4854 19.9181 13.3712 19.8522C13.257 19.7863 13.1569 19.6984 13.0768 19.5936C12.9967 19.4888 12.9381 19.3693 12.9044 19.2418C12.8707 19.1143 12.8626 18.9814 12.8804 18.8507C12.8983 18.72 12.9418 18.5942 13.0085 18.4804C14.5763 15.755 16.9645 13.594 19.8325 12.3054C21.7696 11.428 23.872 10.9752 25.9985 10.9774C28.1251 10.9752 30.2275 11.428 32.1645 12.3054C34.8564 13.5143 37.1295 15.494 38.6965 17.9944L39.1335 16.4704C39.1672 16.3414 39.2263 16.2204 39.3074 16.1146C39.3885 16.0087 39.49 15.9202 39.6058 15.8541C39.7216 15.7881 39.8495 15.7458 39.9819 15.7299C40.1143 15.714 40.2486 15.7248 40.3767 15.7615C40.5049 15.7983 40.6245 15.8603 40.7283 15.9439C40.8322 16.0275 40.9183 16.1311 40.9815 16.2485C41.0448 16.3659 41.0839 16.4947 41.0966 16.6275C41.1093 16.7602 41.0953 16.8942 41.0555 17.0214L40.2295 19.9054C40.1571 20.1579 40.0357 20.3936 39.8721 20.5992C39.7086 20.8047 39.5062 20.976 39.2765 21.1033C39.0467 21.2306 38.7942 21.3114 38.5332 21.3411C38.2723 21.3708 38.008 21.3489 37.7555 21.2764L34.8715 20.4494C34.7425 20.4158 34.6215 20.3567 34.5157 20.2756C34.4098 20.1944 34.3213 20.093 34.2552 19.9771C34.1892 19.8613 34.1469 19.7334 34.131 19.601C34.1151 19.4686 34.1259 19.3344 34.1626 19.2062C34.1994 19.078 34.2614 18.9585 34.345 18.8546C34.4286 18.7508 34.5322 18.6647 34.6496 18.6014C34.767 18.5382 34.8958 18.4991 35.0286 18.4864C35.1613 18.4736 35.2953 18.4876 35.4225 18.5274L36.9425 18.9624L36.9415 18.9634ZM15.0685 33.0194C16.4243 35.1423 18.3707 36.8228 20.6685 37.8544C22.3435 38.6074 24.1675 39.0024 26.0115 39.0044C28.3155 39.0012 30.5776 38.3888 32.5685 37.2294C34.5219 36.0915 36.143 34.4618 37.2705 32.5024C37.4041 32.2746 37.6223 32.1089 37.8776 32.0414C38.1329 31.9739 38.4045 32.0101 38.6332 32.1422C38.8619 32.2742 39.0291 32.4913 39.0983 32.7462C39.1675 33.001 39.133 33.2729 39.0025 33.5024C37.4345 36.228 35.046 38.3891 32.1775 39.6774C30.2404 40.5545 28.138 41.007 26.0115 41.0044C23.8851 41.007 21.7827 40.5545 19.8455 39.6774C17.1539 38.4681 14.8811 36.4881 13.3145 33.9874L12.8775 35.5124C12.8413 35.6387 12.7805 35.7566 12.6987 35.8594C12.6169 35.9622 12.5157 36.0478 12.4008 36.1115C12.2858 36.1751 12.1595 36.2155 12.029 36.2304C11.8985 36.2452 11.7663 36.2342 11.64 36.1979C11.5138 36.1617 11.3959 36.1009 11.2931 36.0191C11.1903 35.9373 11.1046 35.8361 11.041 35.7211C10.9773 35.6062 10.9369 35.4799 10.9221 35.3494C10.9073 35.2189 10.9183 35.0867 10.9545 34.9604L11.7815 32.0774C11.8538 31.8249 11.9752 31.589 12.1387 31.3834C12.3022 31.1777 12.5046 31.0063 12.7343 30.8789C12.964 30.7515 13.2166 30.6706 13.4777 30.6408C13.7387 30.6111 14.003 30.633 14.2555 30.7054L17.1395 31.5324C17.3945 31.6056 17.61 31.7771 17.7386 32.0092C17.8671 32.2413 17.8982 32.5149 17.825 32.7699C17.7518 33.0249 17.5803 33.2404 17.3482 33.369C17.1162 33.4975 16.8425 33.5286 16.5875 33.4554L15.0675 33.0194H15.0685ZM44.1965 10.3394C44.1691 10.3142 44.143 10.2875 44.1185 10.2594C43.2481 9.25719 42.2965 8.32838 41.2735 7.48243C40.2635 6.65243 39.1735 5.89443 38.0055 5.21943C36.7417 4.48911 35.4143 3.87493 34.0395 3.38443C30.7282 2.21299 27.2011 1.77887 23.7045 2.11243C20.2088 2.45203 16.8294 3.55097 13.8025 5.33243C12.5466 6.07654 11.3607 6.93305 10.2595 7.89143C9.25764 8.76192 8.32916 9.71347 7.48353 10.7364C6.65353 11.7454 5.89553 12.8364 5.22053 14.0044C4.49027 15.2679 3.87608 16.595 3.38553 17.9694C2.21408 21.2807 1.77997 24.8079 2.11353 28.3044C2.45299 31.8005 3.55193 35.1803 5.33353 38.2074C6.07769 39.463 6.9342 40.6486 7.89253 41.7494C8.76266 42.7516 9.71388 43.6804 10.7365 44.5264C11.7465 45.3564 12.8365 46.1144 14.0055 46.7884C14.0385 46.8084 14.0695 46.8284 14.0995 46.8504C22.7115 51.7694 33.8425 50.9924 41.7505 44.1174C41.8497 44.0313 41.9648 43.9655 42.0894 43.9239C42.214 43.8822 42.3455 43.8655 42.4765 43.8747C42.6076 43.8839 42.7355 43.9188 42.853 43.9774C42.9705 44.0361 43.0754 44.1173 43.1615 44.2164C43.2477 44.3156 43.3135 44.4307 43.3551 44.5553C43.3967 44.6799 43.4134 44.8114 43.4043 44.9424C43.3951 45.0735 43.3602 45.2014 43.3015 45.3189C43.2429 45.4365 43.1617 45.5413 43.0625 45.6274C33.3285 54.0874 19.0895 54.0234 9.46453 46.0694C7.12766 44.1482 5.14654 41.8313 3.61153 39.2244C1.67332 35.9487 0.48199 32.2856 0.122529 28.4964C-0.247494 24.7085 0.223029 20.8856 1.50053 17.3004C2.51002 14.4482 4.01287 11.7955 5.94053 9.46343C7.86176 7.12656 10.1787 5.14545 12.7855 3.61043C16.0609 1.67237 19.7237 0.481035 23.5125 0.12143C27.2315 -0.23857 31.0525 0.19643 34.7095 1.49943C37.5614 2.50902 40.2138 4.01187 42.5455 5.93943C52.1895 13.8694 54.9705 27.8344 48.5215 39.0044C48.4563 39.1191 48.3691 39.2197 48.2649 39.3005C48.1607 39.3813 48.0415 39.4407 47.9142 39.4752C47.7869 39.5098 47.6541 39.5188 47.5233 39.5018C47.3925 39.4848 47.2664 39.4421 47.1522 39.3762C47.038 39.3103 46.938 39.2224 46.8578 39.1176C46.7777 39.0128 46.7191 38.8933 46.6854 38.7658C46.6517 38.6383 46.6436 38.5054 46.6614 38.3747C46.6793 38.244 46.7228 38.1182 46.7895 38.0044C52.0295 28.9294 50.6685 17.8544 44.1965 10.3394V10.3394Z" transform="translate(3.00146 2.99658)" fill="#333333"/>
</svg>
