<svg width="58" height="58" viewBox="0 0 58 58" fill="none" xmlns="http://www.w3.org/2000/svg">
<path fill-rule="evenodd" clip-rule="evenodd" d="M25.9981 46.002C14.9521 46.002 5.99807 37.048 5.99807 26.002C5.99807 14.956 14.9521 6.00195 25.9981 6.00195C37.0441 6.00195 45.9981 14.956 45.9981 26.002C45.9981 37.048 37.0441 46.002 25.9981 46.002ZM25.9981 44.002C35.9391 44.002 43.9981 35.943 43.9981 26.002C43.9981 16.061 35.9391 8.00195 25.9981 8.00195C16.0571 8.00195 7.99807 16.061 7.99807 26.002C7.99807 35.943 16.0571 44.002 25.9981 44.002ZM19.9981 24.002C18.9372 24.002 17.9198 23.5805 17.1696 22.8304C16.4195 22.0802 15.9981 21.0628 15.9981 20.002C15.9981 18.9411 16.4195 17.9237 17.1696 17.1735C17.9198 16.4234 18.9372 16.002 19.9981 16.002C21.0589 16.002 22.0763 16.4234 22.8265 17.1735C23.5766 17.9237 23.9981 18.9411 23.9981 20.002C23.9981 21.0628 23.5766 22.0802 22.8265 22.8304C22.0763 23.5805 21.0589 24.002 19.9981 24.002ZM19.9981 22.002C20.5285 22.002 21.0372 21.7912 21.4123 21.4162C21.7874 21.0411 21.9981 20.5324 21.9981 20.002C21.9981 19.4715 21.7874 18.9628 21.4123 18.5877C21.0372 18.2127 20.5285 18.002 19.9981 18.002C19.4676 18.002 18.9589 18.2127 18.5839 18.5877C18.2088 18.9628 17.9981 19.4715 17.9981 20.002C17.9981 20.5324 18.2088 21.0411 18.5839 21.4162C18.9589 21.7912 19.4676 22.002 19.9981 22.002ZM31.9981 36.002C30.9372 36.002 29.9198 35.5805 29.1696 34.8304C28.4195 34.0802 27.9981 33.0628 27.9981 32.002C27.9981 30.9411 28.4195 29.9237 29.1696 29.1735C29.9198 28.4234 30.9372 28.002 31.9981 28.002C33.0589 28.002 34.0763 28.4234 34.8265 29.1735C35.5766 29.9237 35.9981 30.9411 35.9981 32.002C35.9981 33.0628 35.5766 34.0802 34.8265 34.8304C34.0763 35.5805 33.0589 36.002 31.9981 36.002ZM31.9981 34.002C32.5285 34.002 33.0372 33.7912 33.4123 33.4162C33.7874 33.0411 33.9981 32.5324 33.9981 32.002C33.9981 31.4715 33.7874 30.9628 33.4123 30.5877C33.0372 30.2127 32.5285 30.002 31.9981 30.002C31.4676 30.002 30.9589 30.2127 30.5839 30.5877C30.2088 30.9628 29.9981 31.4715 29.9981 32.002C29.9981 32.5324 30.2088 33.0411 30.5839 33.4162C30.9589 33.7912 31.4676 34.002 31.9981 34.002ZM30.6381 15.976C30.7725 15.748 30.9911 15.582 31.2467 15.5135C31.5024 15.4451 31.7747 15.4797 32.0051 15.61C32.4831 15.886 32.6421 16.506 32.3701 16.976L21.3711 36.028C21.2366 36.2556 21.0182 36.4215 20.7628 36.4899C20.5074 36.5584 20.2353 36.5239 20.0051 36.394C19.7768 36.26 19.6104 36.0416 19.5419 35.786C19.4734 35.5304 19.5083 35.2581 19.6391 35.028L30.6391 15.976H30.6381ZM41.6651 44.196C41.6902 44.1682 41.717 44.1418 41.7451 44.117C42.7473 43.2468 43.6761 42.2956 44.5221 41.273C45.3521 40.263 46.1101 39.173 46.7851 38.004C47.5153 36.7405 48.1295 35.4134 48.6201 34.039C49.7915 30.7277 50.2256 27.2005 49.8921 23.704C49.5525 20.2082 48.4535 16.8288 46.6721 13.802C45.928 12.546 45.0714 11.3601 44.1131 10.259C43.2429 9.25675 42.2917 8.32795 41.2691 7.48195C40.2591 6.65195 39.1691 5.89495 38.0001 5.21995C36.7366 4.48969 35.4095 3.87551 34.0351 3.38495C30.7238 2.21351 27.1966 1.77939 23.7001 2.11295C20.2043 2.45255 16.8249 3.55149 13.7981 5.33295C12.5422 6.07675 11.3563 6.93292 10.2551 7.89095C9.25283 8.7614 8.32402 9.71295 7.47807 10.736C6.64807 11.746 5.89107 12.836 5.21607 14.004C5.1972 14.0368 5.1765 14.0685 5.15407 14.099C0.235066 22.711 1.01307 33.841 7.88707 41.749C7.97328 41.8481 8.03912 41.9633 8.08083 42.0879C8.12253 42.2124 8.13929 42.344 8.13015 42.4751C8.121 42.6062 8.08613 42.7342 8.02752 42.8517C7.96891 42.9693 7.88772 43.0742 7.78857 43.1605C7.68942 43.2467 7.57426 43.3125 7.44967 43.3542C7.32507 43.3959 7.19349 43.4127 7.06242 43.4035C6.93135 43.3944 6.80336 43.3595 6.68577 43.3009C6.56818 43.2423 6.46328 43.1611 6.37707 43.062C-2.08293 33.328 -2.01893 19.089 5.93507 9.46395C7.8566 7.127 10.1738 5.14587 12.7811 3.61095C16.0565 1.67289 19.7192 0.481558 23.5081 0.121953C27.2261 -0.239047 31.0481 0.195951 34.7041 1.49995C37.5563 2.50913 40.2089 4.01165 42.5411 5.93895C44.878 7.86048 46.8591 10.1777 48.3941 12.785C50.3321 16.0604 51.5235 19.7231 51.8831 23.5119C52.2531 27.2999 51.7826 31.1228 50.5051 34.708C49.4956 37.5602 47.9927 40.2129 46.0651 42.545C38.1351 52.189 24.1701 54.97 13.0001 48.521C12.7723 48.3874 12.6065 48.1692 12.539 47.9139C12.4715 47.6586 12.5078 47.3869 12.6398 47.1583C12.7718 46.9296 12.989 46.7624 13.2438 46.6932C13.4986 46.624 13.7705 46.6584 14.0001 46.789C23.0751 52.029 34.1501 50.668 41.6651 44.196V44.196Z" transform="translate(3.00195 2.99805)" fill="#333333"/>
</svg>
