<svg width="58" height="58" viewBox="0 0 58 58" fill="none" xmlns="http://www.w3.org/2000/svg">
<path fill-rule="evenodd" clip-rule="evenodd" d="M4 27.994C3.99974 27.4689 4.10306 26.949 4.30406 26.4639C4.50506 25.9788 4.79978 25.5381 5.17135 25.1671C5.54291 24.7961 5.98402 24.5021 6.46941 24.3018C6.95479 24.1015 7.47492 23.999 8 24C10.205 24 12 25.798 12 27.994V40.006C12.0003 40.5311 11.8969 41.0511 11.6959 41.5362C11.4949 42.0212 11.2002 42.4619 10.8287 42.8329C10.4571 43.2039 10.016 43.498 9.53059 43.6983C9.04521 43.8985 8.52508 44.0011 8 44C5.795 44 4 42.202 4 40.006V27.994ZM16 20.004C15.9992 19.4783 16.1021 18.9576 16.3028 18.4717C16.5035 17.9859 16.798 17.5443 17.1696 17.1724C17.5411 16.8005 17.9823 16.5055 18.468 16.3043C18.9537 16.1032 19.4743 15.9998 20 16C22.208 16 24 17.805 24 20.005V39.995C24.0009 40.5208 23.8981 41.0416 23.6975 41.5276C23.4969 42.0136 23.2023 42.4553 22.8308 42.8273C22.4592 43.1993 22.0179 43.4944 21.5322 43.6956C21.0465 43.8968 20.5258 44.0003 20 44C17.792 44 16 42.195 16 39.995V20.005V20.004ZM28 12.002C27.9992 11.4764 28.1021 10.9558 28.3028 10.4701C28.5035 9.98428 28.7981 9.54288 29.1697 9.17113C29.5413 8.79938 29.9825 8.50458 30.4682 8.30362C30.9539 8.10266 31.4744 7.99949 32 8.00002C34.21 8.00002 36 9.78602 36 12.002V39.998C36.0008 40.5236 35.8979 41.0442 35.6972 41.53C35.4965 42.0158 35.2019 42.4572 34.8303 42.8289C34.4587 43.2007 34.0175 43.4955 33.5318 43.6964C33.0461 43.8974 32.5256 44.0005 32 44C29.79 44 28 42.214 28 39.998V12.002V12.002ZM40 3.98402C40.0004 3.4596 40.1042 2.9404 40.3056 2.45618C40.5069 1.97195 40.8019 1.5322 41.1734 1.16212C41.545 0.792041 41.9859 0.4989 42.4709 0.299488C42.956 0.100076 43.4756 -0.00168888 44 2.11994e-05C46.201 2.11994e-05 48 1.79802 48 3.98402V40.016C47.9996 40.5404 47.8958 41.0596 47.6944 41.5439C47.4931 42.0281 47.1981 42.4678 46.8266 42.8379C46.455 43.208 46.0141 43.5011 45.5291 43.7006C45.044 43.9 44.5244 44.0017 44 44C41.799 44 40 42.202 40 40.016V3.98402V3.98402ZM6 27.994V40.006C6 41.094 6.895 42 8 42C9.112 42 10 41.107 10 40.006V27.994C9.99684 27.4651 9.78492 26.9589 9.41036 26.5854C9.0358 26.212 8.52891 26.0016 8 26C6.888 26 6 26.893 6 27.994ZM18 20.004V39.995C18 41.088 18.895 42 20 42C21.112 42 22 41.102 22 39.995V20.005C21.9984 19.4746 21.7874 18.9663 21.4128 18.5908C21.0382 18.2153 20.5304 18.0029 20 18C18.888 18 18 18.898 18 20.005V20.004ZM30 12.002V39.998C30 41.111 30.895 42 32 42C33.112 42 34 41.104 34 39.998V12.002C34.0008 11.7391 33.9496 11.4785 33.8494 11.2354C33.7492 10.9923 33.6019 10.7714 33.4161 10.5853C33.2303 10.3993 33.0095 10.2518 32.7665 10.1514C32.5234 10.0509 32.263 9.99949 32 10C30.888 10 30 10.896 30 12.002V12.002ZM42 3.98402V40.016C42 41.09 42.895 42 44 42C45.112 42 46 41.112 46 40.016V3.98402C46 2.91002 45.105 2.00002 44 2.00002C42.888 2.00002 42 2.88802 42 3.98402V3.98402ZM1 48C0.734784 48 0.480429 47.8947 0.292892 47.7071C0.105356 47.5196 0 47.2652 0 47C0 46.7348 0.105356 46.4805 0.292892 46.2929C0.480429 46.1054 0.734784 46 1 46H35C35.2652 46 35.5196 46.1054 35.7071 46.2929C35.8946 46.4805 36 46.7348 36 47C36 47.2652 35.8946 47.5196 35.7071 47.7071C35.5196 47.8947 35.2652 48 35 48H1ZM41 48C40.7348 48 40.4804 47.8947 40.2929 47.7071C40.1054 47.5196 40 47.2652 40 47C40 46.7348 40.1054 46.4805 40.2929 46.2929C40.4804 46.1054 40.7348 46 41 46H51C51.2652 46 51.5196 46.1054 51.7071 46.2929C51.8946 46.4805 52 46.7348 52 47C52 47.2652 51.8946 47.5196 51.7071 47.7071C51.5196 47.8947 51.2652 48 51 48H41Z" transform="translate(3 5)" fill="#333333"/>
</svg>
