<svg width="58" height="58" viewBox="0 0 58 58" fill="none" xmlns="http://www.w3.org/2000/svg">
<path d="M10 20V29.01C10 29.556 9.536 30 9 30C8.448 30 8 29.568 8 29.01V28.505V34H8.99C9.548 34 10 34.464 10 35C10.0014 35.1325 9.9761 35.264 9.9257 35.3866C9.8753 35.5092 9.8008 35.6205 9.7066 35.7137C9.61241 35.807 9.50044 35.8804 9.37735 35.9296C9.25425 35.9787 9.12253 36.0027 8.99 36H8.49501H9H5.00001C2.23601 36 5.18612e-06 33.772 5.18612e-06 31.003V24.997C-0.00165616 23.8442 0.395884 22.7264 1.12507 21.8335C1.85426 20.9406 2.87011 20.3277 4.00001 20.099V19.992C4.00001 8.95 12.953 0 24 0C35.04 0 44 8.96 44 19.992V20.099C45.1299 20.3277 46.1457 20.9406 46.8749 21.8335C47.6041 22.7264 48.0017 23.8442 48 24.997V31.003C48.0015 32.1624 47.5993 33.2861 46.8625 34.1812C46.1256 35.0762 45.1001 35.6868 43.962 35.908C43.601 40.336 40.7 46.231 36.242 47.345C34.082 47.885 31.852 48.065 29.892 48.033C29.6527 49.1539 29.0365 50.159 28.1462 50.8808C27.2559 51.6026 26.1452 51.9976 24.999 52H23.003C22.3459 52.0013 21.695 51.8729 21.0876 51.6221C20.4802 51.3714 19.9283 51.0032 19.4635 50.5387C18.9987 50.0741 18.6301 49.5224 18.379 48.9152C18.1279 48.308 17.9991 47.6571 18 47C18 44.242 20.25 42 23.002 42H24.998C26.157 41.998 27.2806 42.3992 28.1762 43.1348C29.0719 43.8705 29.6837 44.8947 29.907 46.032C31.713 46.062 33.787 45.897 35.757 45.405C39.37 44.502 41.567 39.458 41.943 36H38V20H42V19.992C42 10.07 33.941 2 24 2C14.057 2 6.00001 10.055 6.00001 19.992V20H10ZM14.043 11.67C13.8653 11.8671 13.6166 11.9855 13.3516 11.9991C13.0866 12.0128 12.8271 11.9207 12.63 11.743C12.4329 11.5653 12.3146 11.3166 12.3009 11.0516C12.2872 10.7866 12.3793 10.5271 12.557 10.33C15.744 6.793 19.578 5 24 5C28.422 5 32.256 6.792 35.443 10.33C35.531 10.4276 35.5989 10.5415 35.6428 10.6653C35.6868 10.7892 35.7059 10.9204 35.6991 11.0516C35.6924 11.1828 35.6598 11.3114 35.6033 11.43C35.5469 11.5487 35.4676 11.655 35.37 11.743C35.2724 11.831 35.1585 11.8989 35.0347 11.9428C34.9109 11.9868 34.7796 12.0059 34.6484 11.9991C34.5172 11.9924 34.3886 11.9598 34.27 11.9033C34.1513 11.8469 34.045 11.7676 33.957 11.67C31.14 8.541 27.84 7 24 7C20.159 7 16.86 8.542 14.043 11.67ZM20 47C20 48.668 21.344 50 23.002 50H24.998C25.7932 49.9979 26.5552 49.6812 27.1177 49.1191C27.6802 48.557 27.9974 47.7952 28 47C28 45.332 26.656 44 24.998 44H23.002C22.2068 44.0021 21.4448 44.3188 20.8823 44.8809C20.3198 45.443 20.0026 46.2048 20 47V47ZM46 24.997C46.0008 24.603 45.9237 24.2126 45.7732 23.8485C45.6227 23.4843 45.4017 23.1535 45.1229 22.875C44.8441 22.5965 44.5131 22.3758 44.1488 22.2257C43.7844 22.0755 43.394 21.9988 43 22H40V34H43C44.657 34 46 32.67 46 31.003V24.997ZM2.00001 24.997V31.003C1.99921 31.397 2.07629 31.7874 2.22681 32.1515C2.37733 32.5157 2.59833 32.8465 2.8771 33.125C3.15587 33.4035 3.48693 33.6242 3.85125 33.7743C4.21556 33.9245 4.60596 34.0012 5.00001 34H8V22H5.00001C3.33201 22 2.00001 23.342 2.00001 24.997Z" transform="translate(5 3)" fill="#333333"/>
</svg>
