<svg width="58" height="58" viewBox="0 0 58 58" fill="none" xmlns="http://www.w3.org/2000/svg">
<path fill-rule="evenodd" clip-rule="evenodd" d="M25 50C11.193 50 0 38.807 0 25C0 11.193 11.193 0 25 0C38.807 0 50 11.193 50 25C50 38.807 38.807 50 25 50ZM25 48C37.703 48 48 37.703 48 25C48 12.297 37.703 2 25 2C12.297 2 2 12.297 2 25C2 37.703 12.297 48 25 48ZM16.066 39.466C16.127 39.488 16.187 39.516 16.245 39.551C24.292 44.386 34.736 41.782 39.572 33.735C40.788 31.7176 41.57 29.4687 41.868 27.132C41.955 26.434 42 25.722 42 25C42 15.611 34.389 8 25 8C24.928 8 24.858 7.992 24.79 7.978C19.098 8.054 13.575 10.986 10.428 16.223C10.289 16.4452 10.0683 16.6039 9.8134 16.665C9.55853 16.7261 9.28986 16.6847 9.06522 16.5497C8.84057 16.4147 8.6779 16.1969 8.61222 15.9431C8.54653 15.6894 8.58308 15.42 8.714 15.193C14.119 6.199 25.791 3.288 34.786 8.693C41.496 12.724 44.82 20.244 43.832 27.539C42.59 36.832 34.632 44 25 44C14.507 44 6 35.493 6 25C6 24.7348 6.10536 24.4804 6.29289 24.2929C6.48043 24.1054 6.73478 24 7 24C7.26522 24 7.51957 24.1054 7.70711 24.2929C7.89464 24.4804 8 24.7348 8 25C8 31.112 11.225 36.47 16.066 39.466ZM34.478 30.596C34.492 30.563 34.508 30.531 34.526 30.5C37.564 25.239 35.761 18.511 30.5 15.474C29.1949 14.7178 27.7478 14.2393 26.2492 14.0684C24.7505 13.8975 23.2328 14.038 21.791 14.481C15.981 16.257 12.711 22.406 14.488 28.216C14.499 28.253 14.508 28.29 14.515 28.326C15.3415 30.9441 17.1204 33.1566 19.5 34.526C19.7278 34.6596 19.8935 34.8778 19.961 35.1331C20.0285 35.3884 19.9923 35.66 19.8603 35.8887C19.7282 36.1174 19.5111 36.2846 19.2563 36.3537C19.0014 36.4229 18.7296 36.3885 18.5 36.258C12.282 32.668 10.152 24.718 13.742 18.5C14.6972 16.8417 16.0075 15.4153 17.5788 14.323C19.1502 13.2306 20.9438 12.4995 22.831 12.182C29.183 11.095 35.505 14.872 37.439 21.199C39.539 28.065 35.674 35.333 28.808 37.432C28.6824 37.4704 28.5504 37.4837 28.4197 37.4711C28.2889 37.4585 28.162 37.4203 28.046 37.3587C27.93 37.297 27.8273 37.2131 27.7437 37.1118C27.6602 37.0104 27.5974 36.8936 27.559 36.768C27.5206 36.6424 27.5073 36.5104 27.5199 36.3797C27.5325 36.249 27.5707 36.122 27.6323 36.006C27.694 35.89 27.7779 35.7873 27.8792 35.7037C27.9806 35.6202 28.0974 35.5574 28.223 35.519C30.8513 34.7199 33.0836 32.9629 34.478 30.596V30.596ZM20 25C20 24.7348 20.1054 24.4804 20.2929 24.2929C20.4804 24.1054 20.7348 24 21 24C21.2652 24 21.5196 24.1054 21.7071 24.2929C21.8946 24.4804 22 24.7348 22 25C22 25.5933 22.1759 26.1734 22.5056 26.6667C22.8352 27.1601 23.3038 27.5446 23.852 27.7716C24.4001 27.9987 25.0033 28.0581 25.5853 27.9424C26.1672 27.8266 26.7018 27.5409 27.1213 27.1213C27.5409 26.7018 27.8266 26.1672 27.9424 25.5853C28.0581 25.0033 27.9987 24.4001 27.7716 23.852C27.5446 23.3038 27.1601 22.8352 26.6667 22.5056C26.1734 22.1759 25.5933 22 25 22C24.7348 22 24.4804 21.8946 24.2929 21.7071C24.1054 21.5196 24 21.2652 24 21C24 20.7348 24.1054 20.4804 24.2929 20.2929C24.4804 20.1054 24.7348 20 25 20C25.9889 20 26.9556 20.2932 27.7779 20.8427C28.6001 21.3921 29.241 22.173 29.6194 23.0866C29.9978 24.0002 30.0969 25.0055 29.9039 25.9755C29.711 26.9454 29.2348 27.8363 28.5355 28.5355C27.8363 29.2348 26.9454 29.711 25.9755 29.9039C25.0055 30.0969 24.0002 29.9978 23.0866 29.6194C22.173 29.241 21.3921 28.6001 20.8427 27.7779C20.2932 26.9556 20 25.9889 20 25Z" transform="translate(4 4)" fill="#333333"/>
</svg>
