<svg width="58" height="58" viewBox="0 0 58 58" fill="none" xmlns="http://www.w3.org/2000/svg">
<path fill-rule="evenodd" clip-rule="evenodd" d="M40 47C40 46.448 40.456 46 40.982 46H51.018C51.56 46 52 46.464 52 47C52 47.552 51.544 48 51.018 48H40.982C40.44 48 40 47.536 40 47ZM0 47C0 47.536 0.448 48 1 48H35C35.545 48 36 47.552 36 47C36 46.464 35.552 46 35 46H1C0.455 46 0 46.448 0 47ZM48 27.994C48.0003 27.4689 47.8969 26.949 47.6959 26.4639C47.4949 25.9788 47.2002 25.5381 46.8287 25.1671C46.4571 24.7961 46.016 24.5021 45.5306 24.3018C45.0452 24.1015 44.5251 23.999 44 24C41.795 24 40 25.798 40 27.994V40.006C39.9997 40.5311 40.1031 41.0511 40.3041 41.5362C40.5051 42.0212 40.7998 42.4619 41.1713 42.8329C41.5429 43.2039 41.984 43.498 42.4694 43.6983C42.9548 43.8985 43.4749 44.0011 44 44C46.205 44 48 42.202 48 40.006V27.994ZM36 20.004C36.0008 19.4783 35.8979 18.9576 35.6972 18.4717C35.4965 17.9859 35.202 17.5443 34.8304 17.1724C34.4589 16.8005 34.0177 16.5055 33.532 16.3043C33.0463 16.1032 32.5257 15.9998 32 16C29.792 16 28 17.805 28 20.005V39.995C27.9991 40.5208 28.1019 41.0416 28.3025 41.5276C28.5031 42.0136 28.7977 42.4553 29.1692 42.8273C29.5408 43.1993 29.9821 43.4944 30.4678 43.6956C30.9535 43.8968 31.4742 44.0003 32 44C34.208 44 36 42.195 36 39.995V20.005V20.004ZM24 12.002C24.0008 11.4764 23.8979 10.9558 23.6972 10.4701C23.4965 9.98428 23.2019 9.54288 22.8303 9.17113C22.4587 8.79938 22.0175 8.50458 21.5318 8.30362C21.0461 8.10266 20.5256 7.99949 20 8.00002C17.79 8.00002 16 9.78602 16 12.002V39.998C15.9992 40.5236 16.1021 41.0442 16.3028 41.53C16.5035 42.0158 16.7981 42.4572 17.1697 42.8289C17.5413 43.2007 17.9825 43.4955 18.4682 43.6964C18.9539 43.8974 19.4744 44.0005 20 44C22.21 44 24 42.214 24 39.998V12.002V12.002ZM12 3.98402C11.9996 3.4596 11.8958 2.9404 11.6944 2.45618C11.4931 1.97195 11.1981 1.5322 10.8266 1.16212C10.455 0.792041 10.0141 0.4989 9.52906 0.299488C9.04403 0.100076 8.52442 -0.00168888 8 2.11994e-05C5.799 2.11994e-05 4 1.79802 4 3.98402V40.016C4.00039 40.5404 4.10424 41.0596 4.30559 41.5439C4.50695 42.0281 4.80185 42.4678 5.17342 42.8379C5.54499 43.208 5.98591 43.5011 6.47094 43.7006C6.95597 43.9 7.47558 44.0017 8 44C10.201 44 12 42.202 12 40.016V3.98402V3.98402ZM46 27.994V40.006C45.9968 40.5349 45.7849 41.0412 45.4104 41.4146C45.0358 41.7881 44.5289 41.9985 44 42C42.888 42 42 41.107 42 40.006V27.994C42 26.906 42.895 26 44 26C45.112 26 46 26.893 46 27.994ZM34 20.004V39.995C33.9984 40.5254 33.7874 41.0337 33.4128 41.4093C33.0382 41.7848 32.5304 41.9971 32 42C30.888 42 30 41.102 30 39.995V20.005C30 18.912 30.895 18 32 18C33.112 18 34 18.898 34 20.005V20.004ZM22 12.002V39.998C22.0008 40.261 21.9496 40.5215 21.8494 40.7646C21.7492 41.0077 21.6019 41.2287 21.4161 41.4147C21.2303 41.6007 21.0095 41.7482 20.7665 41.8487C20.5234 41.9491 20.263 42.0006 20 42C18.888 42 18 41.104 18 39.998V12.002C18 10.889 18.895 10 20 10C21.112 10 22 10.896 22 12.002V12.002ZM10 3.98402V40.016C10 41.09 9.105 42 8 42C6.888 42 6 41.112 6 40.016V3.98402C6 2.91002 6.895 2.00002 8 2.00002C9.112 2.00002 10 2.88802 10 3.98402V3.98402Z" transform="translate(3 5)" fill="#333333"/>
</svg>
