<svg width="58" height="58" viewBox="0 0 58 58" fill="none" xmlns="http://www.w3.org/2000/svg">
<path d="M41.61 25.961L27.593 11.944L25.653 13.884C27.238 19.027 25.996 24.854 21.926 28.925L21.216 29.635L14.872 23.251C12.512 25.611 8.713 25.611 6.37 23.268C5.24487 22.1428 4.61278 20.6167 4.61278 19.0255C4.61278 17.4343 5.24487 15.9082 6.37 14.783C6.377 14.776 5.733 14.112 4.44 12.791L-7.47681e-07 8.42499L0.713 7.71199C4.783 3.64199 10.61 2.39899 15.753 3.98499L17.683 2.05499C18.8707 0.865005 20.4471 0.142257 22.1238 0.0188824C23.8006 -0.104492 25.4657 0.379751 26.8148 1.38308C28.1639 2.3864 29.1068 3.84178 29.4711 5.48312C29.8355 7.12445 29.5969 8.84209 28.799 10.322L42.819 24.342C43.5167 23.7217 44.3742 23.3091 45.2943 23.151C46.2145 22.9929 47.1605 23.0956 48.0253 23.4474C48.89 23.7993 49.639 24.3862 50.1875 25.1417C50.7359 25.8973 51.0618 26.7913 51.1283 27.7225C51.1949 28.6537 50.9994 29.585 50.5639 30.4108C50.1285 31.2367 49.4705 31.9241 48.6646 32.3953C47.8586 32.8665 46.9368 33.1026 46.0035 33.0769C45.0703 33.0512 44.1628 32.7648 43.384 32.25L31.555 44.078H40.141C40.9366 44.078 41.6997 44.3941 42.2623 44.9567C42.8249 45.5193 43.141 46.2823 43.141 47.078V50.078H51.141C51.4062 50.078 51.6606 50.1833 51.8481 50.3709C52.0356 50.5584 52.141 50.8128 52.141 51.078C52.141 51.3432 52.0356 51.5976 51.8481 51.7851C51.6606 51.9726 51.4062 52.078 51.141 52.078H1.141C0.875784 52.078 0.621429 51.9726 0.433892 51.7851C0.246356 51.5976 0.141 51.3432 0.141 51.078C0.141 50.8128 0.246356 50.5584 0.433892 50.3709C0.621429 50.1833 0.875784 50.078 1.141 50.078H15.141V47.078C15.141 46.2823 15.4571 45.5193 16.0197 44.9567C16.5823 44.3941 17.3454 44.078 18.141 44.078H28.727L41.969 30.835C41.4275 30.0176 41.1394 29.0585 41.141 28.078C41.141 27.321 41.309 26.604 41.61 25.961ZM26.169 10.541C27.1068 9.60332 27.6337 8.33151 27.6338 7.00534C27.6339 5.67918 27.1072 4.4073 26.1695 3.46949C25.2318 2.53168 23.96 2.00478 22.6339 2.00468C21.3077 2.00459 20.0358 2.53132 19.098 3.46899L17.788 4.77899C19.284 5.49499 20.687 6.47199 21.926 7.71199C23.1316 8.91491 24.1231 10.3146 24.858 11.851L26.168 10.541H26.169ZM10.433 18.784L7.814 16.165L7.784 16.197C7.41393 16.5699 7.12094 17.012 6.92174 17.4981C6.72255 17.9842 6.62105 18.5048 6.62304 19.0302C6.62504 19.5555 6.73049 20.0753 6.93338 20.5599C7.13626 21.0445 7.43261 21.4844 7.8055 21.8545C8.17839 22.2246 8.62052 22.5176 9.10664 22.7167C9.59276 22.9159 10.1134 23.0174 10.6387 23.0154C11.1641 23.0135 11.6839 22.908 12.1685 22.7051C12.653 22.5022 13.0929 22.2059 13.463 21.833L10.433 18.784V18.784ZM27.848 41.785C27.6594 41.9671 27.4068 42.0679 27.1446 42.0657C26.8824 42.0634 26.6316 41.9582 26.4462 41.7728C26.2608 41.5874 26.1556 41.3366 26.1533 41.0744C26.151 40.8122 26.2518 40.5596 26.434 40.371L37.434 29.371C37.6226 29.1888 37.8752 29.088 38.1374 29.0903C38.3996 29.0926 38.6504 29.1978 38.8358 29.3832C39.0212 29.5686 39.1264 29.8194 39.1287 30.0816C39.131 30.3438 39.0302 30.5964 38.848 30.785L27.848 41.785ZM42.848 18.371C43.0302 18.5596 43.131 18.8122 43.1287 19.0744C43.1264 19.3366 43.0212 19.5874 42.8358 19.7728C42.6504 19.9582 42.3996 20.0634 42.1374 20.0657C41.8752 20.0679 41.6226 19.9671 41.434 19.785L32.434 10.785C32.2518 10.5964 32.151 10.3438 32.1533 10.0816C32.1556 9.81939 32.2608 9.56858 32.4462 9.38317C32.6316 9.19776 32.8824 9.09259 33.1446 9.09031C33.4068 9.08804 33.6594 9.18883 33.848 9.37099L42.848 18.371ZM41.141 50.078V47.078C41.141 46.8128 41.0356 46.5584 40.8481 46.3709C40.6606 46.1833 40.4062 46.078 40.141 46.078H18.141C17.8758 46.078 17.6214 46.1833 17.4339 46.3709C17.2464 46.5584 17.141 46.8128 17.141 47.078V50.078H41.141ZM46.141 31.078C46.535 31.078 46.9251 31.0004 47.289 30.8496C47.653 30.6989 47.9837 30.4779 48.2623 30.1993C48.5409 29.9207 48.7619 29.59 48.9126 29.226C49.0634 28.8621 49.141 28.472 49.141 28.078C49.141 27.684 49.0634 27.2939 48.9126 26.9299C48.7619 26.566 48.5409 26.2352 48.2623 25.9567C47.9837 25.6781 47.653 25.4571 47.289 25.3064C46.9251 25.1556 46.535 25.078 46.141 25.078C45.3453 25.078 44.5823 25.3941 44.0197 25.9567C43.4571 26.5193 43.141 27.2823 43.141 28.078C43.141 28.8736 43.4571 29.6367 44.0197 30.1993C44.5823 30.7619 45.3453 31.078 46.141 31.078V31.078ZM5.848 11.371L11.848 17.371L21.194 26.774C25.578 21.667 25.35 13.964 20.512 9.12599C15.675 4.28899 7.975 4.05999 2.868 8.43999L5.848 11.37V11.371Z" transform="translate(2.85889 2.92212)" fill="#333333"/>
</svg>
