<svg width="58" height="58" viewBox="0 0 58 58" fill="none" xmlns="http://www.w3.org/2000/svg">
<path fill-rule="evenodd" clip-rule="evenodd" d="M35.78 42.125L42.465 48.885C42.9053 49.2967 43.4233 49.6165 43.9886 49.8257C44.5539 50.0349 45.1553 50.1294 45.7576 50.1035C46.3598 50.0776 46.9508 49.932 47.4962 49.6751C48.0415 49.4182 48.5301 49.0551 48.9335 48.6072C49.3369 48.1593 49.647 47.6354 49.8456 47.0663C50.0442 46.4972 50.1274 45.8941 50.0903 45.2925C50.0532 44.6908 49.8966 44.1026 49.6295 43.5622C49.3625 43.0217 48.9904 42.54 48.535 42.145L44.63 38.06C44.5324 37.9721 44.453 37.8658 44.3964 37.7472C44.3399 37.6286 44.3072 37.5 44.3004 37.3688C44.2935 37.2376 44.3125 37.1063 44.3564 36.9825C44.4003 36.8586 44.4681 36.7446 44.556 36.647C44.6439 36.5494 44.7502 36.47 44.8688 36.4134C44.9874 36.3569 45.116 36.3242 45.2472 36.3174C45.3784 36.3105 45.5097 36.3295 45.6335 36.3734C45.7574 36.4173 45.8714 36.4851 45.969 36.573L49.873 40.658C50.5223 41.2291 51.0517 41.9233 51.4308 42.7005C51.8098 43.4777 52.0309 44.3224 52.0811 45.1856C52.1314 46.0488 52.0099 46.9134 51.7236 47.7293C51.4374 48.5453 50.9921 49.2963 50.4135 49.9389C49.835 50.5815 49.1346 51.1029 48.3531 51.4729C47.5716 51.8429 46.7244 52.0542 45.8607 52.0945C44.997 52.1348 44.1338 52.0033 43.3212 51.7076C42.5087 51.4119 41.7629 50.958 41.127 50.372L34.09 43.255C30.751 44.982 26.994 46 23 46C10.297 46 0 35.703 0 23C0 10.297 10.297 0 23 0C35.703 0 46 10.297 46 23C46 30.973 41.943 37.999 35.78 42.125ZM23 44C34.598 44 44 34.598 44 23C44 11.402 34.598 2 23 2C11.402 2 2 11.402 2 23C2 34.598 11.402 44 23 44ZM8.477 26.767C8.41716 26.5125 8.45937 26.2447 8.59459 26.0209C8.7298 25.7972 8.94726 25.6353 9.2004 25.5699C9.45353 25.5045 9.7222 25.5409 9.94885 25.6712C10.1755 25.8015 10.3421 26.0154 10.413 26.267C11.1375 29.0539 12.7664 31.5216 15.0444 33.283C17.3223 35.0445 20.1205 36.0001 23 36C30.18 36 36 30.18 36 23C36 15.82 30.18 10 23 10C20.2868 10 17.6415 10.8486 15.4347 12.427C13.2278 14.0053 11.5699 16.2344 10.693 18.802C10.6506 18.9263 10.5841 19.041 10.4973 19.1396C10.4106 19.2382 10.3053 19.3188 10.1874 19.3767C10.0695 19.4346 9.94136 19.4687 9.8103 19.4771C9.67923 19.4854 9.5478 19.4679 9.4235 19.4255C9.17247 19.3398 8.96576 19.158 8.84883 18.9199C8.79093 18.802 8.75682 18.6739 8.74844 18.5428C8.74006 18.4117 8.75758 18.2803 8.8 18.156C9.81167 15.1934 11.7246 12.6214 14.2709 10.8003C16.8173 8.97911 19.8694 7.99998 23 8C31.284 8 38 14.716 38 23C38 31.284 31.284 38 23 38C19.6772 38 16.4483 36.897 13.8199 34.864C11.1915 32.831 9.31231 29.9831 8.477 26.767V26.767Z" transform="translate(3 3)" fill="#333333"/>
</svg>
