<svg width="58" height="58" viewBox="0 0 58 58" fill="none" xmlns="http://www.w3.org/2000/svg">
<path d="M12.032 14.84C11.3603 14.6099 10.7919 14.149 10.4279 13.5394C10.064 12.9297 9.92794 12.2107 10.0441 11.5103C10.1602 10.8098 10.5209 10.1732 11.0621 9.71354C11.6033 9.25393 12.29 9.0011 13 9C13.7048 8.99941 14.3872 9.24695 14.9277 9.69921C15.4682 10.1515 15.8322 10.7796 15.9559 11.4734C16.0797 12.1672 15.9551 12.8824 15.6043 13.4936C15.2534 14.1048 14.6985 14.573 14.037 14.816C14.243 17.0507 15.2764 19.1279 16.9345 20.6402C18.5926 22.1524 20.7558 22.9908 23 22.9908C25.2442 22.9908 27.4074 22.1524 29.0655 20.6402C30.7236 19.1279 31.757 17.0507 31.963 14.816C31.2988 14.5716 30.7424 14.1003 30.392 13.4854C30.0416 12.8706 29.9198 12.1516 30.0481 11.4556C30.1764 10.7596 30.5465 10.1314 31.0931 9.68182C31.6397 9.23227 32.3276 8.99037 33.0353 8.99884C33.7429 9.00731 34.4249 9.26561 34.9605 9.72811C35.4962 10.1906 35.8512 10.8276 35.9628 11.5264C36.0744 12.2253 35.9354 12.9411 35.5704 13.5474C35.2054 14.1537 34.6378 14.6116 33.968 14.84C33.54 20.523 28.792 25 23 25C17.208 25 12.46 20.523 12.032 14.84ZM37 2C36.7348 2 36.4804 1.89464 36.2929 1.70711C36.1054 1.51957 36 1.26522 36 1C36 0.734784 36.1054 0.480429 36.2929 0.292892C36.4804 0.105356 36.7348 0 37 0H43C43.7956 0 44.5587 0.31607 45.1213 0.878679C45.6839 1.44129 46 2.20435 46 3V45C46 45.7956 45.6839 46.5587 45.1213 47.1213C44.5587 47.6839 43.7956 48 43 48H3C2.20435 48 1.44129 47.6839 0.878679 47.1213C0.31607 46.5587 0 45.7956 0 45V3C0 2.20435 0.31607 1.44129 0.878679 0.878679C1.44129 0.31607 2.20435 0 3 0H29C29.2652 0 29.5196 0.105356 29.7071 0.292892C29.8946 0.480429 30 0.734784 30 1C30 1.26522 29.8946 1.51957 29.7071 1.70711C29.5196 1.89464 29.2652 2 29 2H3C2.73478 2 2.48043 2.10536 2.29289 2.29289C2.10536 2.48043 2 2.73478 2 3V45C2 45.2652 2.10536 45.5196 2.29289 45.7071C2.48043 45.8946 2.73478 46 3 46H43C43.2652 46 43.5196 45.8946 43.7071 45.7071C43.8946 45.5196 44 45.2652 44 45V3C44 2.73478 43.8946 2.48043 43.7071 2.29289C43.5196 2.10536 43.2652 2 43 2H37ZM33 13C33.2652 13 33.5196 12.8946 33.7071 12.7071C33.8946 12.5196 34 12.2652 34 12C34 11.7348 33.8946 11.4804 33.7071 11.2929C33.5196 11.1054 33.2652 11 33 11C32.7348 11 32.4804 11.1054 32.2929 11.2929C32.1054 11.4804 32 11.7348 32 12C32 12.2652 32.1054 12.5196 32.2929 12.7071C32.4804 12.8946 32.7348 13 33 13ZM13 13C13.2652 13 13.5196 12.8946 13.7071 12.7071C13.8946 12.5196 14 12.2652 14 12C14 11.7348 13.8946 11.4804 13.7071 11.2929C13.5196 11.1054 13.2652 11 13 11C12.7348 11 12.4804 11.1054 12.2929 11.2929C12.1054 11.4804 12 11.7348 12 12C12 12.2652 12.1054 12.5196 12.2929 12.7071C12.4804 12.8946 12.7348 13 13 13ZM15 41C14.7348 41 14.4804 40.8946 14.2929 40.7071C14.1054 40.5196 14 40.2652 14 40C14 39.7348 14.1054 39.4804 14.2929 39.2929C14.4804 39.1054 14.7348 39 15 39H31C31.2652 39 31.5196 39.1054 31.7071 39.2929C31.8946 39.4804 32 39.7348 32 40C32 40.2652 31.8946 40.5196 31.7071 40.7071C31.5196 40.8946 31.2652 41 31 41H15ZM9 37C8.73478 37 8.48043 36.8946 8.29289 36.7071C8.10536 36.5196 8 36.2652 8 36C8 35.7348 8.10536 35.4804 8.29289 35.2929C8.48043 35.1054 8.73478 35 9 35H37C37.2652 35 37.5196 35.1054 37.7071 35.2929C37.8946 35.4804 38 35.7348 38 36C38 36.2652 37.8946 36.5196 37.7071 36.7071C37.5196 36.8946 37.2652 37 37 37H9Z" transform="translate(6 5)" fill="#333333"/>
</svg>
