<svg width="58" height="58" viewBox="0 0 58 58" fill="none" xmlns="http://www.w3.org/2000/svg">
<path d="M8.32534 35.59L2.01134 44.218L7.45534 44.894C7.88482 44.947 8.2979 45.0916 8.66659 45.3182C9.03529 45.5447 9.351 45.8478 9.59234 46.207L12.1763 50.06L17.0333 41.095C17.6883 41.3 18.3583 41.471 19.0403 41.608L13.9483 51.008C13.782 51.3119 13.5404 51.568 13.2465 51.7515C12.9527 51.9351 12.6166 52.04 12.2706 52.0562C11.9245 52.0723 11.5801 51.9992 11.2704 51.8439C10.9608 51.6885 10.6963 51.4561 10.5023 51.169L7.91734 47.316C7.83685 47.1965 7.73163 47.0956 7.6088 47.0202C7.48597 46.9448 7.34838 46.8966 7.20534 46.879L1.76234 46.202C1.4251 46.1602 1.10385 46.0339 0.828343 45.835C0.614965 45.6814 0.434097 45.4871 0.296168 45.2633C0.158239 45.0395 0.0659775 44.7906 0.0247029 44.531C-0.0165717 44.2713 -0.00604303 44.0061 0.055682 43.7505C0.117407 43.495 0.229108 43.2542 0.384343 43.042L6.99934 34.002C7.41334 34.554 7.85634 35.084 8.32534 35.589V35.59ZM29.8573 42.91L33.5773 50.193L37.1273 45.957C37.6122 45.3798 38.2952 45.0046 39.0423 44.905L43.9873 44.241L41.4063 40.696C41.3256 40.5922 41.2663 40.4733 41.2317 40.3464C41.1971 40.2195 41.188 40.087 41.205 39.9566C41.2219 39.8261 41.2645 39.7003 41.3303 39.5864C41.3961 39.4725 41.4838 39.3728 41.5883 39.293C41.7999 39.1309 42.0668 39.059 42.3311 39.0929C42.5954 39.1268 42.8356 39.2638 42.9993 39.474L45.5793 43.019C46.2593 43.894 46.0963 45.149 45.2163 45.824C44.9363 46.038 44.6063 46.176 44.2563 46.223L39.3123 46.887C39.0623 46.92 38.8353 47.046 38.6743 47.237L35.1223 51.473C34.9082 51.7273 34.6345 51.9248 34.3257 52.0479C34.0169 52.1711 33.6824 52.2161 33.352 52.179C33.0216 52.1419 32.7055 52.0238 32.4317 51.8353C32.1579 51.6467 31.9348 51.3934 31.7823 51.098L27.8793 43.457C26.3093 43.812 24.6763 44 22.9993 44C10.8493 44 0.999343 34.15 0.999343 22C0.999343 9.85 10.8493 0 22.9993 0C35.1493 0 44.9993 9.85 44.9993 22C44.9993 31.756 38.6493 40.028 29.8573 42.91V42.91ZM22.9993 42C34.0453 42 42.9993 33.046 42.9993 22C42.9993 10.954 34.0453 2 22.9993 2C11.9533 2 2.99934 10.954 2.99934 22C2.99934 33.046 11.9533 42 22.9993 42ZM22.9993 38C14.1623 38 6.99934 30.837 6.99934 22C6.99934 13.163 14.1623 6 22.9993 6C31.8363 6 38.9993 13.163 38.9993 22C38.9993 30.837 31.8363 38 22.9993 38ZM22.9993 36C30.7313 36 36.9993 29.732 36.9993 22C36.9993 14.268 30.7313 8 22.9993 8C15.2673 8 8.99934 14.268 8.99934 22C8.99934 29.732 15.2673 36 22.9993 36ZM16.3413 23.858C16.3413 23.556 16.2703 23.316 16.1263 23.14C15.9833 22.964 15.7313 22.79 15.3703 22.62C14.6323 22.338 14.0793 22.019 13.7103 21.66C13.3403 21.303 13.1563 20.802 13.1563 20.158C13.1563 19.52 13.3703 19.001 13.8003 18.601C14.2293 18.201 14.7773 18 15.4443 18C16.1203 18 16.6703 18.223 17.0923 18.67C17.5153 19.117 17.7203 19.68 17.7073 20.36L17.6973 20.393H16.3513C16.3513 20.036 16.2703 19.748 16.1073 19.527C15.9443 19.307 15.7153 19.197 15.4193 19.197C15.1433 19.197 14.9273 19.287 14.7733 19.471C14.6147 19.6659 14.5323 19.9118 14.5413 20.163C14.5377 20.2808 14.5589 20.398 14.6035 20.5071C14.6481 20.6161 14.7152 20.7146 14.8003 20.796C14.9723 20.961 15.2713 21.146 15.6973 21.348C16.3703 21.598 16.8773 21.914 17.2173 22.296C17.5573 22.679 17.7273 23.196 17.7273 23.848C17.7273 24.521 17.5223 25.048 17.1123 25.428C16.7023 25.81 16.1573 26 15.4783 26C14.8315 26.0111 14.204 25.7796 13.7193 25.351C13.2233 24.919 12.9843 24.298 12.9993 23.49L13.0093 23.458H14.3613C14.3613 23.938 14.4533 24.284 14.6393 24.494C14.8243 24.704 15.1043 24.809 15.4783 24.809C15.7703 24.809 15.9883 24.724 16.1283 24.553C16.2703 24.382 16.3413 24.15 16.3413 23.858V23.858ZM21.7903 24.238H19.9173L19.5373 25.888H18.1373L20.1373 18.112H21.5803L23.5753 25.888H22.1753L21.7903 24.238ZM20.2003 23.015H21.5073L20.8673 20.265H20.8383L20.1993 23.015H20.2003ZM25.5163 24.675H28.1113V25.888H24.1263V18.112H25.5163V24.676V24.675ZM32.5803 22.475H30.1943V24.675H32.9993V25.888H28.8043V18.112H32.9893V19.33H30.1943V21.263H32.5803V22.475V22.475Z" transform="translate(6.00073 3)" fill="#333333"/>
</svg>
