<svg width="58" height="58" viewBox="0 0 58 58" fill="none" xmlns="http://www.w3.org/2000/svg">
<path d="M45.8541 13.467C47.7406 14.1002 49.3641 15.3408 50.4707 16.9947C51.5772 18.6487 52.1044 20.6227 51.9698 22.6081C51.8352 24.5935 51.0463 26.4784 49.7266 27.9678C48.4069 29.4572 46.6308 30.4673 44.6761 30.84C43.3801 36.654 38.1911 41 31.9871 41C31.5751 41 31.1681 40.98 30.7671 40.943L28.2971 50H46.9871C47.2523 50 47.5066 50.1054 47.6942 50.2929C47.8817 50.4804 47.9871 50.7348 47.9871 51C47.9871 51.2652 47.8817 51.5196 47.6942 51.7071C47.5066 51.8946 47.2523 52 46.9871 52H4.98706C4.72184 52 4.46748 51.8946 4.27995 51.7071C4.09241 51.5196 3.98706 51.2652 3.98706 51C3.98706 50.7348 4.09241 50.4804 4.27995 50.2929C4.46748 50.1054 4.72184 50 4.98706 50H20.6431L18.0291 41.287C17.9529 41.0329 17.9809 40.759 18.1067 40.5255C18.2325 40.292 18.446 40.1181 18.7001 40.042C18.9541 39.9659 19.228 39.9938 19.4615 40.1197C19.695 40.2455 19.8689 40.4589 19.9451 40.713L22.7311 50H26.2231L28.7861 40.603C25.9452 39.8801 23.4318 38.2191 21.6531 35.889C19.602 37.8873 16.8506 39.0039 13.9871 39C7.91206 39 2.98706 34.075 2.98706 28C2.98706 26.298 3.37405 24.686 4.06405 23.248C2.30654 22.0953 1.0079 20.3638 0.393332 18.3539C-0.221232 16.3439 -0.112951 14.1823 0.699399 12.2438C1.51175 10.3053 2.97693 8.71228 4.84084 7.74097C6.70475 6.76966 8.84982 6.48134 10.9041 6.926C13.3331 2.782 17.8351 0 22.9871 0C27.4371 0 31.4031 2.077 33.9671 5.314C35.2732 4.56574 36.764 4.20114 38.2681 4.26209C39.7722 4.32304 41.2286 4.80706 42.4699 5.65855C43.7113 6.51003 44.6873 7.69444 45.2857 9.07569C45.8841 10.4569 46.0808 11.979 45.8531 13.467H45.8541ZM43.8941 13.044C44.0915 11.5346 43.7079 10.0066 42.821 8.76942C41.9341 7.53223 40.6102 6.67832 39.1174 6.38062C37.6245 6.08291 36.0743 6.36366 34.7807 7.16601C33.4871 7.96836 32.5467 9.23235 32.1501 10.702C32.116 10.8289 32.0574 10.9478 31.9774 11.052C31.8974 11.1561 31.7977 11.2436 31.684 11.3092C31.5702 11.3749 31.4447 11.4175 31.3144 11.4346C31.1842 11.4517 31.0519 11.443 30.9251 11.409C30.7982 11.375 30.6793 11.3163 30.5751 11.2364C30.4709 11.1564 30.3835 11.0567 30.3179 10.9429C30.2522 10.8292 30.2096 10.7036 30.1925 10.5734C30.1753 10.4432 30.184 10.3109 30.2181 10.184C30.5895 8.78932 31.333 7.52181 32.3691 6.517C31.246 5.10654 29.819 3.96779 28.1946 3.18568C26.5701 2.40357 24.79 1.99827 22.9871 2C16.3601 2 10.9871 7.373 10.9871 14C10.9871 14.2652 10.8817 14.5196 10.6942 14.7071C10.5066 14.8946 10.2523 15 9.98706 15C9.72184 15 9.46748 14.8946 9.27995 14.7071C9.09241 14.5196 8.98706 14.2652 8.98706 14C8.98706 12.16 9.34206 10.403 9.98706 8.793C8.41945 8.57213 6.82325 8.88899 5.45887 9.6919C4.0945 10.4948 3.04247 11.7364 2.47442 13.214C1.90637 14.6917 1.85583 16.3183 2.33104 17.8284C2.80625 19.3384 3.77916 20.6429 5.09106 21.529C7.09106 18.784 10.3311 17 13.9871 17C14.2523 17 14.5066 17.1054 14.6942 17.2929C14.8817 17.4804 14.9871 17.7348 14.9871 18C14.9871 18.2652 14.8817 18.5196 14.6942 18.7071C14.5066 18.8946 14.2523 19 13.9871 19C12.207 19 10.467 19.5278 8.98692 20.5168C7.50688 21.5057 6.35333 22.9113 5.67214 24.5559C4.99095 26.2004 4.81272 28.01 5.15999 29.7558C5.50725 31.5016 6.36442 33.1053 7.6231 34.364C8.88177 35.6226 10.4854 36.4798 12.2312 36.8271C13.9771 37.1743 15.7867 36.9961 17.4312 36.3149C19.0757 35.6337 20.4813 34.4802 21.4703 33.0001C22.4592 31.5201 22.9871 29.78 22.9871 28C22.9871 27.7348 23.0924 27.4804 23.2799 27.2929C23.4675 27.1054 23.7218 27 23.9871 27C24.2523 27 24.5066 27.1054 24.6942 27.2929C24.8817 27.4804 24.9871 27.7348 24.9871 28C24.9871 30.355 24.2471 32.537 22.9871 34.326C24.0014 35.7708 25.3489 36.9499 26.9155 37.7635C28.4822 38.5771 30.2218 39.0012 31.9871 39C37.0251 39 41.2721 35.613 42.5751 30.992C41.1359 30.9271 39.7336 30.5161 38.4871 29.794C38.3724 29.7288 38.2718 29.6416 38.191 29.5374C38.1102 29.4331 38.0508 29.314 38.0162 29.1867C37.9817 29.0594 37.9727 28.9266 37.9897 28.7958C38.0067 28.665 38.0494 28.5389 38.1153 28.4247C38.1812 28.3105 38.2691 28.2104 38.3739 28.1303C38.4786 28.0502 38.5982 27.9916 38.7257 27.9579C38.8532 27.9242 38.9861 27.916 39.1168 27.9339C39.2474 27.9518 39.3733 27.9953 39.4871 28.062C40.686 28.7543 42.0634 29.0755 43.4449 28.985C44.8264 28.8945 46.1501 28.3963 47.2485 27.5535C48.3469 26.7107 49.1707 25.5611 49.6157 24.2501C50.0608 22.9391 50.1071 21.5256 49.7488 20.1883C49.3905 18.851 48.6436 17.65 47.6027 16.7371C46.5618 15.8242 45.2736 15.2405 43.901 15.0598C42.5283 14.8791 41.1329 15.1095 39.8912 15.7218C38.6495 16.3342 37.6173 17.301 36.9251 18.5C36.7915 18.7278 36.5733 18.8935 36.318 18.961C36.0627 19.0285 35.7911 18.9923 35.5624 18.8603C35.3337 18.7282 35.1665 18.5111 35.0973 18.2563C35.0281 18.0014 35.0625 17.7296 35.1931 17.5C36.0601 15.9981 37.3424 14.7785 38.886 13.988C40.4296 13.1975 42.1686 12.8697 43.8941 13.044V13.044ZM23.3871 10.2C23.4921 10.1212 23.6117 10.0639 23.7389 10.0313C23.8661 9.99869 23.9985 9.99148 24.1285 10.01C24.2585 10.0286 24.3836 10.0726 24.4965 10.1395C24.6095 10.2064 24.7083 10.2949 24.7871 10.4C24.8658 10.5051 24.9232 10.6246 24.9558 10.7518C24.9884 10.879 24.9956 11.0114 24.977 11.1414C24.9584 11.2714 24.9144 11.3965 24.8475 11.5095C24.7806 11.6225 24.6921 11.7212 24.5871 11.8C22.2301 13.567 21.3761 15.846 21.9671 18.804C22.0091 19.0598 21.9502 19.322 21.8027 19.5352C21.6552 19.7484 21.4306 19.896 21.1764 19.9468C20.9222 19.9977 20.6582 19.9478 20.44 19.8077C20.2218 19.6677 20.0666 19.4483 20.0071 19.196C19.2651 15.487 20.4101 12.433 23.3871 10.2V10.2Z" transform="translate(3.01294 3)" fill="#333333"/>
</svg>
