<svg width="58" height="58" viewBox="0 0 58 58" fill="none" xmlns="http://www.w3.org/2000/svg">
<path fill-rule="evenodd" clip-rule="evenodd" d="M23 16H33C33.2652 16 33.5196 15.8946 33.7071 15.7071C33.8946 15.5196 34 15.2652 34 15V7C34 6.73478 33.8946 6.48043 33.7071 6.29289C33.5196 6.10536 33.2652 6 33 6H7C6.73478 6 6.48043 6.10536 6.29289 6.29289C6.10536 6.48043 6 6.73478 6 7V15C6 15.2652 6.10536 15.5196 6.29289 15.7071C6.48043 15.8946 6.73478 16 7 16H17C17.2652 16 17.5196 16.1054 17.7071 16.2929C17.8946 16.4804 18 16.7348 18 17C18 17.2652 17.8946 17.5196 17.7071 17.7071C17.5196 17.8946 17.2652 18 17 18H7C6.20435 18 5.44129 17.6839 4.87868 17.1213C4.31607 16.5587 4 15.7956 4 15V7C4 6.20435 4.31607 5.44129 4.87868 4.87868C5.44129 4.31607 6.20435 4 7 4H33C33.7956 4 34.5587 4.31607 35.1213 4.87868C35.6839 5.44129 36 6.20435 36 7V15C36 15.7956 35.6839 16.5587 35.1213 17.1213C34.5587 17.6839 33.7956 18 33 18H23C22.7348 18 22.4804 17.8946 22.2929 17.7071C22.1054 17.5196 22 17.2652 22 17C22 16.7348 22.1054 16.4804 22.2929 16.2929C22.4804 16.1054 22.7348 16 23 16ZM4 0H36C37.0609 0 38.0783 0.421428 38.8284 1.17157C39.5786 1.92172 40 2.93913 40 4V48C40 49.0609 39.5786 50.0783 38.8284 50.8284C38.0783 51.5786 37.0609 52 36 52H4C2.93913 52 1.92172 51.5786 1.17157 50.8284C0.421428 50.0783 0 49.0609 0 48V4C0 2.93913 0.421428 1.92172 1.17157 1.17157C1.92172 0.421428 2.93913 0 4 0V0ZM4 2C3.46957 2 2.96086 2.21071 2.58579 2.58579C2.21071 2.96086 2 3.46957 2 4V48C2 48.5304 2.21071 49.0391 2.58579 49.4142C2.96086 49.7893 3.46957 50 4 50H36C36.5304 50 37.0391 49.7893 37.4142 49.4142C37.7893 49.0391 38 48.5304 38 48V4C38 3.46957 37.7893 2.96086 37.4142 2.58579C37.0391 2.21071 36.5304 2 36 2H4ZM10 28C9.46957 28 8.96086 27.7893 8.58578 27.4142C8.21071 27.0391 8 26.5304 8 26C8 25.4696 8.21071 24.9609 8.58578 24.5858C8.96086 24.2107 9.46957 24 10 24C10.5304 24 11.0391 24.2107 11.4142 24.5858C11.7893 24.9609 12 25.4696 12 26C12 26.5304 11.7893 27.0391 11.4142 27.4142C11.0391 27.7893 10.5304 28 10 28ZM20 28C19.4696 28 18.9609 27.7893 18.5858 27.4142C18.2107 27.0391 18 26.5304 18 26C18 25.4696 18.2107 24.9609 18.5858 24.5858C18.9609 24.2107 19.4696 24 20 24C20.5304 24 21.0391 24.2107 21.4142 24.5858C21.7893 24.9609 22 25.4696 22 26C22 26.5304 21.7893 27.0391 21.4142 27.4142C21.0391 27.7893 20.5304 28 20 28ZM30 28C29.4696 28 28.9609 27.7893 28.5858 27.4142C28.2107 27.0391 28 26.5304 28 26C28 25.4696 28.2107 24.9609 28.5858 24.5858C28.9609 24.2107 29.4696 24 30 24C30.5304 24 31.0391 24.2107 31.4142 24.5858C31.7893 24.9609 32 25.4696 32 26C32 26.5304 31.7893 27.0391 31.4142 27.4142C31.0391 27.7893 30.5304 28 30 28ZM10 36C9.46957 36 8.96086 35.7893 8.58578 35.4142C8.21071 35.0391 8 34.5304 8 34C8 33.4696 8.21071 32.9609 8.58578 32.5858C8.96086 32.2107 9.46957 32 10 32C10.5304 32 11.0391 32.2107 11.4142 32.5858C11.7893 32.9609 12 33.4696 12 34C12 34.5304 11.7893 35.0391 11.4142 35.4142C11.0391 35.7893 10.5304 36 10 36ZM20 36C19.4696 36 18.9609 35.7893 18.5858 35.4142C18.2107 35.0391 18 34.5304 18 34C18 33.4696 18.2107 32.9609 18.5858 32.5858C18.9609 32.2107 19.4696 32 20 32C20.5304 32 21.0391 32.2107 21.4142 32.5858C21.7893 32.9609 22 33.4696 22 34C22 34.5304 21.7893 35.0391 21.4142 35.4142C21.0391 35.7893 20.5304 36 20 36ZM30 36C29.4696 36 28.9609 35.7893 28.5858 35.4142C28.2107 35.0391 28 34.5304 28 34C28 33.4696 28.2107 32.9609 28.5858 32.5858C28.9609 32.2107 29.4696 32 30 32C30.5304 32 31.0391 32.2107 31.4142 32.5858C31.7893 32.9609 32 33.4696 32 34C32 34.5304 31.7893 35.0391 31.4142 35.4142C31.0391 35.7893 30.5304 36 30 36ZM10 44C9.46957 44 8.96086 43.7893 8.58578 43.4142C8.21071 43.0391 8 42.5304 8 42C8 41.4696 8.21071 40.9609 8.58578 40.5858C8.96086 40.2107 9.46957 40 10 40C10.5304 40 11.0391 40.2107 11.4142 40.5858C11.7893 40.9609 12 41.4696 12 42C12 42.5304 11.7893 43.0391 11.4142 43.4142C11.0391 43.7893 10.5304 44 10 44ZM20 44C19.4696 44 18.9609 43.7893 18.5858 43.4142C18.2107 43.0391 18 42.5304 18 42C18 41.4696 18.2107 40.9609 18.5858 40.5858C18.9609 40.2107 19.4696 40 20 40C20.5304 40 21.0391 40.2107 21.4142 40.5858C21.7893 40.9609 22 41.4696 22 42C22 42.5304 21.7893 43.0391 21.4142 43.4142C21.0391 43.7893 20.5304 44 20 44ZM30 44C29.4696 44 28.9609 43.7893 28.5858 43.4142C28.2107 43.0391 28 42.5304 28 42C28 41.4696 28.2107 40.9609 28.5858 40.5858C28.9609 40.2107 29.4696 40 30 40C30.5304 40 31.0391 40.2107 31.4142 40.5858C31.7893 40.9609 32 41.4696 32 42C32 42.5304 31.7893 43.0391 31.4142 43.4142C31.0391 43.7893 30.5304 44 30 44ZM9 10H31C31.2652 10 31.5196 10.1054 31.7071 10.2929C31.8946 10.4804 32 10.7348 32 11C32 11.2652 31.8946 11.5196 31.7071 11.7071C31.5196 11.8946 31.2652 12 31 12H9C8.73478 12 8.48043 11.8946 8.29289 11.7071C8.10536 11.5196 8 11.2652 8 11C8 10.7348 8.10536 10.4804 8.29289 10.2929C8.48043 10.1054 8.73478 10 9 10Z" transform="translate(9 3)" fill="#333333"/>
</svg>
