<svg width="58" height="58" viewBox="0 0 58 58" fill="none" xmlns="http://www.w3.org/2000/svg">
<path d="M11.99 29.439L2.28882e-07 22.516V7.506L13 -1.52588e-08L24.995 6.925L36.99 -1.52588e-08L49.99 7.505V22.516L36.99 30.022L24.995 23.096L13.99 29.45V42.142L24.99 48.492L35.202 42.597C34.8882 41.6755 34.9211 40.6713 35.2946 39.7724C35.6682 38.8734 36.3567 38.1416 37.2312 37.714C38.1057 37.2863 39.1061 37.1923 40.0449 37.4494C40.9838 37.7065 41.7967 38.2972 42.3313 39.1107C42.8658 39.9242 43.0854 40.9048 42.9488 41.8686C42.8122 42.8324 42.3289 43.7133 41.5893 44.3463C40.8498 44.9792 39.9048 45.3208 38.9315 45.3069C37.9581 45.2931 37.0232 44.9248 36.302 44.271L24.99 50.801L11.99 43.296V29.439ZM12.99 27.707L23.99 21.357V8.654L13 2.309L2 8.659V21.362L12.99 27.707ZM36.994 27.71L47.99 21.362V8.659L36.99 2.309L25.99 8.659V21.357L36.994 27.71V27.71ZM6.486 10.729C6.25628 10.8531 5.98712 10.8825 5.73603 10.8108C5.48494 10.7392 5.27185 10.5721 5.1423 10.3454C5.01275 10.1187 4.97702 9.85029 5.04274 9.59758C5.10846 9.34486 5.27041 9.12788 5.494 8.993L12.99 4.709L20.486 8.993C20.6033 9.05638 20.7067 9.14258 20.7902 9.24652C20.8737 9.35045 20.9355 9.47003 20.9721 9.59823C21.0087 9.72642 21.0193 9.86063 21.0033 9.99298C20.9873 10.1253 20.9449 10.2531 20.8788 10.3689C20.8126 10.4846 20.724 10.586 20.6181 10.667C20.5123 10.748 20.3913 10.807 20.2622 10.8406C20.1332 10.8741 19.9988 10.8815 19.8668 10.8624C19.7349 10.8432 19.6082 10.7979 19.494 10.729L12.99 7.013L6.486 10.729V10.729ZM43.99 10.309C43.99 10.0438 44.0954 9.78943 44.2829 9.60189C44.4704 9.41436 44.7248 9.309 44.99 9.309C45.2552 9.309 45.5096 9.41436 45.6971 9.60189C45.8846 9.78943 45.99 10.0438 45.99 10.309V19.709C45.99 19.9742 45.8846 20.2286 45.6971 20.4161C45.5096 20.6036 45.2552 20.709 44.99 20.709C44.7248 20.709 44.4704 20.6036 44.2829 20.4161C44.0954 20.2286 43.99 19.9742 43.99 19.709V10.309ZM16.416 41.202C16.3014 41.1368 16.2007 41.0496 16.1199 40.9454C16.0391 40.8411 15.9797 40.722 15.9452 40.5947C15.9106 40.4674 15.9016 40.3346 15.9186 40.2038C15.9356 40.073 15.9783 39.9469 16.0442 39.8327C16.1102 39.7185 16.1981 39.6184 16.3028 39.5383C16.4076 39.4582 16.5272 39.3996 16.6547 39.3659C16.7822 39.3322 16.9151 39.324 17.0457 39.3419C17.1764 39.3598 17.3022 39.4033 17.416 39.47L25.556 44.17C25.7838 44.3035 25.9495 44.5218 26.017 44.7771C26.0845 45.0324 26.0483 45.304 25.9163 45.5327C25.7842 45.7614 25.5671 45.9286 25.3123 45.9977C25.0574 46.0669 24.7856 46.0325 24.556 45.902L16.416 41.202ZM38.99 43.309C39.5204 43.309 40.0291 43.0983 40.4042 42.7232C40.7793 42.3481 40.99 41.8394 40.99 41.309C40.99 40.7786 40.7793 40.2699 40.4042 39.8948C40.0291 39.5197 39.5204 39.309 38.99 39.309C38.4596 39.309 37.9509 39.5197 37.5758 39.8948C37.2007 40.2699 36.99 40.7786 36.99 41.309C36.99 41.8394 37.2007 42.3481 37.5758 42.7232C37.9509 43.0983 38.4596 43.309 38.99 43.309Z" transform="translate(4.01001 3.69092)" fill="#333333"/>
</svg>
