<svg width="58" height="58" viewBox="0 0 58 58" fill="none" xmlns="http://www.w3.org/2000/svg">
<path d="M29.162 23.0481V23.0581C29.162 23.6121 28.587 24.1951 27.878 24.3621C27.168 24.5281 26.594 24.2141 26.594 23.6611C26.594 23.1071 27.169 22.5231 27.878 22.3571C28.086 22.3081 28.282 22.3011 28.456 22.3281V20.8311L24.731 21.3681V23.8491H24.711C24.605 24.3431 24.08 24.8181 23.447 24.9591C22.737 25.1181 22.162 24.7981 22.162 24.2441C22.162 23.6911 22.738 23.1141 23.447 22.9541C23.655 22.9081 23.851 22.9031 24.025 22.9321V19.2641C24.025 18.9321 24.284 18.6251 24.603 18.5791L28.585 18.0061C28.904 17.9601 29.162 18.1921 29.162 18.5241V23.0481V23.0481ZM14.677 25.9831C13.974 25.9072 13.3204 25.5854 12.8315 25.0745C12.3427 24.5637 12.05 23.8965 12.0051 23.1909C11.9602 22.4852 12.166 21.7864 12.5862 21.2177C13.0063 20.649 13.6139 20.247 14.3016 20.0826C14.9893 19.9182 15.713 20.002 16.3449 20.3192C16.9769 20.6365 17.4764 21.1667 17.7555 21.8164C18.0346 22.4661 18.0752 23.1935 17.8702 23.8702C17.6651 24.5469 17.2277 25.1295 16.635 25.5151C17.0949 26.7381 17.79 27.8593 18.681 28.8151L18.686 28.8201L18.755 28.8931C19.6803 29.8659 20.7916 30.643 22.023 31.1781C23.2371 31.7031 24.543 31.9825 25.8656 32.0004C27.1882 32.0182 28.5012 31.7741 29.729 31.2821C30.762 30.8841 31.856 30.2121 32.82 29.3141L32.926 29.2131C33.8774 28.3 34.6393 27.2081 35.168 26.0001C35.6977 24.7835 35.9806 23.4738 36.0001 22.147C36.0197 20.8202 35.7756 19.5028 35.282 18.2711C34.884 17.2381 34.212 16.1441 33.314 15.1801C32.3754 14.1732 31.2395 13.3706 29.977 12.8221C28.7213 12.2795 27.3679 11.9998 26 12.0001H25.99C23.4614 11.999 21.027 12.9591 19.18 14.6861C19.0847 14.7791 18.9717 14.8522 18.8477 14.901C18.7238 14.9498 18.5913 14.9734 18.4581 14.9703C18.3249 14.9672 18.1937 14.9375 18.0721 14.8829C17.9505 14.8284 17.8411 14.7501 17.7502 14.6527C17.6593 14.5553 17.5888 14.4407 17.5428 14.3157C17.4969 14.1906 17.4763 14.0576 17.4825 13.9245C17.4886 13.7914 17.5213 13.6609 17.5785 13.5406C17.6358 13.4203 17.7165 13.3127 17.816 13.2241C20.0795 11.1065 23.0768 9.95063 26.176 10.0001C27.746 10.0231 29.311 10.3531 30.772 10.9851C33.6966 12.255 35.9972 14.6344 37.168 17.6001C37.7336 19.0388 38.0158 20.5732 37.999 22.1191C37.983 23.7181 37.649 25.3121 37.001 26.7991C35.7281 29.7106 33.3546 32 30.399 33.1671C28.9427 33.7395 27.3885 34.0215 25.824 33.9971C24.2422 33.9745 22.6804 33.6401 21.228 33.0131C19.7491 32.3724 18.4151 31.4394 17.306 30.2701C16.1362 29.0426 15.2399 27.5811 14.676 25.9821L14.677 25.9831ZM1.17169e-06 3.98705C-0.000401615 3.46184 0.103047 2.94174 0.304397 2.45666C0.505747 1.97157 0.801023 1.53109 1.17324 1.16055C1.54545 0.790007 1.98726 0.496717 2.47325 0.297554C2.95923 0.0983914 3.4798 -0.00271323 4.005 5.53577e-05H47.995C50.203 5.53577e-05 52 1.78105 52 3.98705V40.0131C52.0004 40.5383 51.897 41.0584 51.6956 41.5435C51.4943 42.0285 51.199 42.469 50.8268 42.8396C50.4545 43.2101 50.0127 43.5034 49.5268 43.7026C49.0408 43.9017 48.5202 44.0028 47.995 44.0001H4.005C1.797 44.0001 1.17169e-06 42.2191 1.17169e-06 40.0131V3.98705ZM2 3.98705V40.0131C2 41.1101 2.898 42.0001 4.005 42.0001H47.995C49.121 42.0001 50 41.1101 50 40.0131V3.98705C49.9988 3.72494 49.946 3.46562 49.8446 3.2239C49.7432 2.98219 49.5952 2.76281 49.409 2.5783C49.2228 2.39379 49.0021 2.24776 48.7595 2.14854C48.5169 2.04933 48.2571 1.99887 47.995 2.00006H4.005C2.879 2.00006 2 2.89005 2 3.98705ZM15 24.0001C15.2652 24.0001 15.5196 23.8947 15.7071 23.7072C15.8946 23.5196 16 23.2653 16 23.0001C16 22.7348 15.8946 22.4805 15.7071 22.2929C15.5196 22.1054 15.2652 22.0001 15 22.0001C14.7348 22.0001 14.4804 22.1054 14.2929 22.2929C14.1054 22.4805 14 22.7348 14 23.0001C14 23.2653 14.1054 23.5196 14.2929 23.7072C14.4804 23.8947 14.7348 24.0001 15 24.0001Z" transform="translate(3 7)" fill="#333333"/>
</svg>
