<svg width="58" height="58" viewBox="0 0 58 58" fill="none" xmlns="http://www.w3.org/2000/svg">
<path d="M11.882 15V11C11.882 4.925 16.807 0 22.882 0C28.957 0 33.882 4.925 33.882 11V27C33.882 27.2652 33.7766 27.5196 33.5891 27.7071C33.4016 27.8946 33.1472 28 32.882 28C32.6168 28 32.3624 27.8946 32.1749 27.7071C31.9874 27.5196 31.882 27.2652 31.882 27V11C31.882 8.61305 30.9338 6.32387 29.246 4.63604C27.5581 2.94821 25.2689 2 22.882 2C20.4951 2 18.2059 2.94821 16.518 4.63604C14.8302 6.32387 13.882 8.61305 13.882 11V15H27.882C28.1472 15 28.4016 15.1054 28.5891 15.2929C28.7766 15.4804 28.882 15.7348 28.882 16C28.882 16.2652 28.7766 16.5196 28.5891 16.7071C28.4016 16.8946 28.1472 17 27.882 17H13.882V23C13.882 23.2652 13.7766 23.5196 13.5891 23.7071C13.4016 23.8946 13.1472 24 12.882 24C12.6168 24 12.3624 23.8946 12.1749 23.7071C11.9874 23.5196 11.882 23.2652 11.882 23V17H4.771C4.51572 17.0001 4.27013 17.0978 4.08458 17.2731C3.89903 17.4485 3.78755 17.6881 3.773 17.943L2.001 48.943C2 49.553 2.447 50 3 50C24.586 50 42.83 49.998 42.822 49.998C43.0865 49.9825 43.334 49.8627 43.5102 49.6649C43.6865 49.4671 43.777 49.2075 43.762 48.943L41.992 17.943C41.9774 17.6878 41.8657 17.4478 41.6797 17.2725C41.4937 17.0971 41.2476 16.9996 40.992 17H37.882C37.6168 17 37.3624 16.8946 37.1749 16.7071C36.9874 16.5196 36.882 16.2652 36.882 16C36.882 15.7348 36.9874 15.4804 37.1749 15.2929C37.3624 15.1054 37.6168 15 37.882 15H40.993C41.759 15 42.496 15.2931 43.0529 15.8191C43.6098 16.3451 43.9443 17.0642 43.988 17.829L45.76 48.829C45.8053 49.6233 45.5333 50.4031 45.0037 50.9968C44.4741 51.5906 43.7303 51.9496 42.936 51.995C42.877 51.998 34.534 51.999 3 52C2.20435 52 1.44129 51.6839 0.878679 51.1213C0.31607 50.5587 3.05176e-08 49.7956 3.05176e-08 49C3.05176e-08 48.914 -2.59373e-07 48.914 0.00399974 48.829L1.776 17.829C1.81966 17.0642 2.15423 16.3451 2.7111 15.8191C3.26798 15.2931 4.00497 15 4.771 15H11.882ZM11.882 38H33.882C34.1472 38 34.4016 38.1054 34.5891 38.2929C34.7766 38.4804 34.882 38.7348 34.882 39C34.882 39.2652 34.7766 39.5196 34.5891 39.7071C34.4016 39.8946 34.1472 40 33.882 40H11.882C11.6168 40 11.3624 39.8946 11.1749 39.7071C10.9874 39.5196 10.882 39.2652 10.882 39C10.882 38.7348 10.9874 38.4804 11.1749 38.2929C11.3624 38.1054 11.6168 38 11.882 38ZM15.882 42H29.882C30.1472 42 30.4016 42.1054 30.5891 42.2929C30.7766 42.4804 30.882 42.7348 30.882 43C30.882 43.2652 30.7766 43.5196 30.5891 43.7071C30.4016 43.8946 30.1472 44 29.882 44H15.882C15.6168 44 15.3624 43.8946 15.1749 43.7071C14.9874 43.5196 14.882 43.2652 14.882 43C14.882 42.7348 14.9874 42.4804 15.1749 42.2929C15.3624 42.1054 15.6168 42 15.882 42Z" transform="translate(6.11792 3)" fill="#333333"/>
</svg>
