<svg width="58" height="58" viewBox="0 0 58 58" fill="none" xmlns="http://www.w3.org/2000/svg">
<path fill-rule="evenodd" clip-rule="evenodd" d="M41.2736 7.48195C40.2636 6.65195 39.1736 5.89395 38.0046 5.21995C36.7411 4.48969 35.414 3.87551 34.0396 3.38495C30.7283 2.21351 27.2011 1.77939 23.7046 2.11295C20.2085 2.45241 16.8288 3.55135 13.8016 5.33295C12.546 6.0768 11.3605 6.93297 10.2596 7.89095C9.25737 8.7614 8.32856 9.71295 7.48261 10.736C6.65261 11.746 5.8946 12.836 5.2206 14.004C4.49029 15.2678 3.87611 16.5952 3.38561 17.97C2.21416 21.2812 1.78005 24.8084 2.11361 28.305C2.45321 31.8007 3.55214 35.1801 5.33361 38.207C6.0774 39.4629 6.93357 40.6487 7.89161 41.75C8.7621 42.7518 9.71365 43.6803 10.7366 44.526C11.7466 45.356 12.8366 46.114 14.0046 46.789C22.7116 51.769 33.8416 50.992 41.7506 44.117C41.9508 43.943 42.212 43.8557 42.4766 43.8742C42.7412 43.8928 42.9876 44.0157 43.1616 44.216C43.3356 44.4162 43.4229 44.6773 43.4043 44.942C43.3858 45.2066 43.2628 45.453 43.0626 45.6269C33.3286 54.0879 19.0896 54.023 9.46461 46.07C7.12765 44.1484 5.14653 41.8312 3.61161 39.2239C1.67354 35.9485 0.48221 32.2858 0.122605 28.497C-0.247567 24.7087 0.222958 20.8854 1.5006 17.3C2.50989 14.4481 4.0124 11.7958 5.9396 9.46395C7.86114 7.127 10.1784 5.14587 12.7856 3.61095C16.061 1.67289 19.7238 0.481557 23.5126 0.121951C27.2306 -0.239049 31.0526 0.195952 34.7086 1.49995C37.5608 2.50913 40.2135 4.01165 42.5456 5.93895C52.1896 13.869 54.9706 27.835 48.5216 39.004C48.3881 39.2318 48.1698 39.3975 47.9145 39.465C47.6592 39.5325 47.3876 39.4963 47.1589 39.3642C46.9302 39.2322 46.763 39.0151 46.6939 38.7602C46.6247 38.5054 46.6591 38.2335 46.7896 38.004C52.0296 28.929 50.6686 17.855 44.1966 10.34C43.3013 9.30971 42.3237 8.35391 41.2736 7.48195V7.48195ZM14.5966 14.762L16.5526 12.805C16.7599 12.5977 17.0102 12.4385 17.2859 12.3387C17.5615 12.2389 17.8557 12.2009 18.1477 12.2274C18.4397 12.254 18.7222 12.3443 18.9754 12.4922C19.2285 12.64 19.4461 12.8417 19.6126 13.083L23.4666 18.663C23.7324 19.0479 23.8549 19.5139 23.8127 19.9798C23.7704 20.4457 23.5663 20.882 23.2356 21.213L21.5786 22.87L29.6146 30.907L31.2806 29.24C31.6077 28.9128 32.0382 28.7092 32.4986 28.6638C32.959 28.6184 33.4209 28.734 33.8056 28.991L38.8636 32.3689C39.1095 32.5333 39.3158 32.75 39.4678 33.0037C39.6198 33.2573 39.7137 33.5415 39.7427 33.8358C39.7717 34.1301 39.735 34.4271 39.6354 34.7056C39.5358 34.984 39.3757 35.2368 39.1666 35.4459L36.2036 38.409C35.4961 39.1164 34.5926 39.5953 33.6099 39.7838C32.6272 39.9722 31.6107 39.8615 30.6916 39.466C27.2926 38.0039 23.9626 35.636 20.6986 32.372C17.3326 29.006 14.6826 25.332 12.7556 21.355C12.3026 20.4201 12.152 19.3674 12.3247 18.343C12.4975 17.3186 12.985 16.3735 13.7196 15.639L14.5966 14.761V14.762ZM16.0116 16.175L15.1336 17.053C14.6927 17.4937 14.4 18.0608 14.2962 18.6755C14.1925 19.2902 14.2828 19.9219 14.5546 20.483C16.3836 24.255 18.9016 27.746 22.1126 30.958C25.2076 34.052 28.3316 36.273 31.4826 37.629C32.034 37.8663 32.6439 37.9327 33.2334 37.8197C33.823 37.7066 34.3651 37.4194 34.7896 36.9949L37.7526 34.032L32.6956 30.654L31.0286 32.3209C30.6535 32.6959 30.1449 32.9065 29.6146 32.9065C29.0843 32.9065 28.5757 32.6959 28.2006 32.3209L20.1636 24.285C19.9778 24.0992 19.8304 23.8787 19.7298 23.636C19.6293 23.3933 19.5775 23.1332 19.5775 22.8705C19.5775 22.6077 19.6293 22.3476 19.7298 22.1049C19.8304 21.8622 19.9778 21.6417 20.1636 21.456L21.8206 19.8L17.9676 14.22L16.0116 16.176V16.175Z" transform="translate(2.99951 3)" fill="#333333"/>
</svg>
