<svg width="58" height="58" viewBox="0 0 58 58" fill="none" xmlns="http://www.w3.org/2000/svg">
<path d="M4 6H12.558L13.647 2.735C13.9125 1.93853 14.4219 1.24579 15.103 0.754917C15.7841 0.264048 16.6024 -6.22114e-05 17.442 1.09918e-08H34.558C35.3976 -6.22114e-05 36.2159 0.264048 36.897 0.754917C37.5781 1.24579 38.0875 1.93853 38.353 2.735L39.442 6H48C49.0609 6 50.0783 6.42143 50.8284 7.17157C51.5786 7.92172 52 8.93913 52 10V40C52 41.0609 51.5786 42.0783 50.8284 42.8284C50.0783 43.5786 49.0609 44 48 44H4C2.93913 44 1.92172 43.5786 1.17157 42.8284C0.421428 42.0783 0 41.0609 0 40V10C0 8.93913 0.421428 7.92172 1.17157 7.17157C1.92172 6.42143 2.93913 6 4 6V6ZM4 8C3.46957 8 2.96086 8.21071 2.58579 8.58579C2.21071 8.96086 2 9.46957 2 10V40C2 40.5304 2.21071 41.0391 2.58579 41.4142C2.96086 41.7893 3.46957 42 4 42H48C48.5304 42 49.0391 41.7893 49.4142 41.4142C49.7893 41.0391 50 40.5304 50 40V10C50 9.46957 49.7893 8.96086 49.4142 8.58579C49.0391 8.21071 48.5304 8 48 8H39.442C39.0221 8.0001 38.6128 7.86802 38.2721 7.62248C37.9314 7.37695 37.6767 7.03041 37.544 6.632L36.456 3.368C36.3233 2.96959 36.0686 2.62305 35.7279 2.37752C35.3872 2.13198 34.9779 1.9999 34.558 2H17.442C17.0221 1.9999 16.6128 2.13198 16.2721 2.37752C15.9314 2.62305 15.6767 2.96959 15.544 3.368L14.456 6.632C14.3233 7.03041 14.0686 7.37695 13.7279 7.62248C13.3872 7.86802 12.9779 8.0001 12.558 8H4ZM26 38C18.82 38 13 32.18 13 25C13 17.82 18.82 12 26 12C33.18 12 39 17.82 39 25C39 32.18 33.18 38 26 38ZM26 36C32.075 36 37 31.075 37 25C37 18.925 32.075 14 26 14C19.925 14 15 18.925 15 25C15 31.075 19.925 36 26 36ZM31.958 24.29C31.8383 23.2958 31.4717 22.3473 30.8916 21.5311C30.3115 20.7149 29.5363 20.0568 28.6368 19.6169C27.7372 19.177 26.7418 18.9692 25.7413 19.0126C24.7409 19.0559 23.7672 19.349 22.909 19.865C22.682 19.9959 22.4126 20.0325 22.1589 19.9668C21.9051 19.9011 21.6873 19.7384 21.5523 19.5138C21.4173 19.2891 21.3759 19.0205 21.437 18.7656C21.4981 18.5107 21.6568 18.29 21.879 18.151C23.086 17.4231 24.4646 17.0287 25.874 17.008C25.9158 17.0027 25.9579 17 26 17C30.04 17 33.38 19.994 33.923 23.885C34.1806 25.7121 33.7989 27.5721 32.8424 29.15C31.886 30.728 30.4136 31.9269 28.6746 32.5438C26.9356 33.1606 25.0369 33.1576 23.2999 32.5351C21.5629 31.9126 20.0944 30.709 19.143 29.128C19.1287 29.1052 19.1154 29.0819 19.103 29.058C18.3784 27.8286 17.9974 26.4271 18 25C18 24.7348 18.1054 24.4804 18.2929 24.2929C18.4804 24.1054 18.7348 24 19 24C19.2652 24 19.5196 24.1054 19.7071 24.2929C19.8946 24.4804 20 24.7348 20 25C20.0002 25.8178 20.1675 26.6269 20.4918 27.3776C20.816 28.1284 21.2903 28.8049 21.8855 29.3657C22.4807 29.9265 23.1843 30.3597 23.953 30.6387C24.7217 30.9177 25.5393 31.0366 26.3556 30.9881C27.172 30.9397 27.9698 30.7248 28.7001 30.3568C29.4303 29.9888 30.0777 29.4754 30.6024 28.8481C31.127 28.2209 31.5179 27.4929 31.751 26.7091C31.9842 25.9253 32.0546 25.102 31.958 24.29V24.29ZM20 6H32C32.2652 6 32.5196 6.10536 32.7071 6.29289C32.8946 6.48043 33 6.73478 33 7C33 7.26522 32.8946 7.51957 32.7071 7.70711C32.5196 7.89464 32.2652 8 32 8H20C19.7348 8 19.4804 7.89464 19.2929 7.70711C19.1054 7.51957 19 7.26522 19 7C19 6.73478 19.1054 6.48043 19.2929 6.29289C19.4804 6.10536 19.7348 6 20 6Z" transform="translate(3 7)" fill="#333333"/>
</svg>
