<svg width="58" height="58" viewBox="0 0 58 58" fill="none" xmlns="http://www.w3.org/2000/svg">
<path d="M32.803 6C32.4451 6.61814 32.2012 7.29558 32.083 8H3.00201C2.87026 7.9988 2.73959 8.02384 2.61761 8.07364C2.49563 8.12345 2.38478 8.19703 2.29153 8.2901C2.19827 8.38317 2.12447 8.49387 2.07442 8.61575C2.02437 8.73763 1.99907 8.86825 2.00001 9C2.00001 9.536 2.44801 10 3.00201 10H32.083C32.2012 10.7044 32.4451 11.3819 32.803 12H3.00201C2.2069 11.9976 1.44501 11.6809 0.882599 11.1188C0.320186 10.5568 0.00290943 9.7951 8.21826e-06 9C8.21826e-06 7.342 1.33201 6 3.00201 6H32.802H32.803ZM43.197 6H48.998C49.7931 6.00237 50.555 6.31914 51.1174 6.88118C51.6798 7.44322 51.9971 8.2049 52 9C52 10.658 50.668 12 48.998 12H43.198C43.5556 11.3818 43.7991 10.7044 43.917 10H48.998C49.1298 10.0012 49.2604 9.97616 49.3824 9.92636C49.5044 9.87655 49.6152 9.80297 49.7085 9.7099C49.8017 9.61683 49.8755 9.50613 49.9256 9.38425C49.9756 9.26237 50.0009 9.13175 50 9C50 8.464 49.552 8 48.998 8H43.917C43.7988 7.29558 43.5549 6.61814 43.197 6V6ZM21.418 36C20.8199 37.4772 19.7943 38.7422 18.4727 39.6329C17.1511 40.5236 15.5937 40.9995 14 40.9995C12.4063 40.9995 10.8489 40.5236 9.52728 39.6329C8.20569 38.7422 7.18014 37.4772 6.58201 36H3.00201C2.60762 36.0012 2.21688 35.9244 1.85225 35.7741C1.48763 35.6238 1.15631 35.4029 0.877335 35.1241C0.598363 34.8453 0.377241 34.5141 0.226679 34.1496C0.0761175 33.7851 -0.000915974 33.3944 8.21826e-06 33C8.21826e-06 31.358 1.34501 30 3.00201 30H6.58201C7.18014 28.5228 8.20569 27.2578 9.52728 26.3671C10.8489 25.4764 12.4063 25.0005 14 25.0005C15.5937 25.0005 17.1511 25.4764 18.4727 26.3671C19.7943 27.2578 20.8199 28.5228 21.418 30H48.998C49.3924 29.9988 49.7831 30.0756 50.1478 30.2259C50.5124 30.3762 50.8437 30.5971 51.1227 30.8759C51.4017 31.1547 51.6228 31.4859 51.7733 31.8504C51.9239 32.2149 52.0009 32.6056 52 33C52 34.642 50.655 36 48.998 36H21.418V36ZM21.938 34H48.998C49.552 34 50 33.536 50 33C50 32.448 49.565 32 48.998 32H21.938C22.0208 32.6641 22.0208 33.3359 21.938 34V34ZM6.06201 34C5.97917 33.3359 5.97917 32.6641 6.06201 32H3.00201C2.44801 32 2.00001 32.464 2.00001 33C2.00001 33.552 2.43501 34 3.00201 34H6.06201ZM14 39C15.5913 39 17.1174 38.3679 18.2426 37.2426C19.3679 36.1174 20 34.5913 20 33C20 31.4087 19.3679 29.8826 18.2426 28.7574C17.1174 27.6321 15.5913 27 14 27C12.4087 27 10.8826 27.6321 9.75737 28.7574C8.63215 29.8826 8.00001 31.4087 8.00001 33C8.00001 34.5913 8.63215 36.1174 9.75737 37.2426C10.8826 38.3679 12.4087 39 14 39ZM14 35C13.4696 35 12.9609 34.7893 12.5858 34.4142C12.2107 34.0391 12 33.5304 12 33C12 32.4696 12.2107 31.9609 12.5858 31.5858C12.9609 31.2107 13.4696 31 14 31C14.5304 31 15.0392 31.2107 15.4142 31.5858C15.7893 31.9609 16 32.4696 16 33C16 33.5304 15.7893 34.0391 15.4142 34.4142C15.0392 34.7893 14.5304 35 14 35ZM14 2C13.7348 2 13.4804 1.89464 13.2929 1.70711C13.1054 1.51957 13 1.26522 13 1C13 0.734784 13.1054 0.480429 13.2929 0.292892C13.4804 0.105356 13.7348 0 14 0H28C28.2652 0 28.5196 0.105356 28.7071 0.292892C28.8947 0.480429 29 0.734784 29 1C29 1.26522 28.8947 1.51957 28.7071 1.70711C28.5196 1.89464 28.2652 2 28 2H14ZM24 42C23.7348 42 23.4804 41.8946 23.2929 41.7071C23.1054 41.5196 23 41.2652 23 41C23 40.7348 23.1054 40.4804 23.2929 40.2929C23.4804 40.1054 23.7348 40 24 40H38C38.2652 40 38.5196 40.1054 38.7071 40.2929C38.8947 40.4804 39 40.7348 39 41C39 41.2652 38.8947 41.5196 38.7071 41.7071C38.5196 41.8946 38.2652 42 38 42H24ZM32 9C32 10.536 32.586 12.071 33.757 13.243C33.8525 13.3352 33.9287 13.4456 33.9811 13.5676C34.0335 13.6896 34.0611 13.8208 34.0623 13.9536C34.0634 14.0864 34.0381 14.2181 33.9878 14.341C33.9376 14.4639 33.8633 14.5755 33.7694 14.6694C33.6755 14.7633 33.5639 14.8375 33.441 14.8878C33.3181 14.9381 33.1864 14.9634 33.0536 14.9622C32.9208 14.9611 32.7896 14.9335 32.6676 14.8811C32.5456 14.8287 32.4353 14.7525 32.343 14.657C31.0342 13.3483 30.2197 11.6263 30.0383 9.78435C29.8568 7.94243 30.3196 6.09457 31.3478 4.55563C32.3761 3.01668 33.9061 1.88187 35.6772 1.34455C37.4483 0.807224 39.351 0.900636 41.061 1.60887C42.7709 2.3171 44.1824 3.59633 45.055 5.2286C45.9275 6.86086 46.2071 8.74517 45.8461 10.5605C45.485 12.3757 44.5058 14.0097 43.0751 15.1839C41.6444 16.3581 39.8508 16.9999 38 17C37.7348 17 37.4804 16.8946 37.2929 16.7071C37.1054 16.5196 37 16.2652 37 16C37 15.7348 37.1054 15.4804 37.2929 15.2929C37.4804 15.1054 37.7348 15 38 15C39.1867 15 40.3467 14.6481 41.3334 13.9888C42.3201 13.3295 43.0892 12.3925 43.5433 11.2961C43.9974 10.1997 44.1162 8.99334 43.8847 7.82946C43.6532 6.66557 43.0818 5.59647 42.2426 4.75736C41.4035 3.91824 40.3344 3.3468 39.1706 3.11529C38.0067 2.88378 36.8003 3.0026 35.7039 3.45672C34.6076 3.91085 33.6705 4.67988 33.0112 5.66658C32.3519 6.65327 32 7.81331 32 9ZM38 11C37.4696 11 36.9609 10.7893 36.5858 10.4142C36.2107 10.0391 36 9.53043 36 9C36 8.46957 36.2107 7.96086 36.5858 7.58579C36.9609 7.21071 37.4696 7 38 7C38.5304 7 39.0391 7.21071 39.4142 7.58579C39.7893 7.96086 40 8.46957 40 9C40 9.53043 39.7893 10.0391 39.4142 10.4142C39.0391 10.7893 38.5304 11 38 11Z" transform="translate(3 8)" fill="#333333"/>
</svg>
