<svg width="58" height="58" viewBox="0 0 58 58" fill="none" xmlns="http://www.w3.org/2000/svg">
<path fill-rule="evenodd" clip-rule="evenodd" d="M7.99769e-06 43C-4.45199e-07 42.7362 0.104258 42.483 0.290068 42.2957C0.475878 42.1084 0.728181 42.0021 0.992009 42H51.008C51.2732 42 51.5276 42.1054 51.7151 42.2929C51.9026 42.4804 52.008 42.7348 52.008 43C52.008 43.2652 51.9026 43.5196 51.7151 43.7071C51.5276 43.8946 51.2732 44 51.008 44H0.992009C0.444009 44 7.99769e-06 43.536 7.99769e-06 43ZM7.99769e-06 47C-4.45199e-07 46.7362 0.104258 46.483 0.290068 46.2957C0.475878 46.1084 0.728181 46.0021 0.992009 46H51.008C51.2732 46 51.5276 46.1054 51.7151 46.2929C51.9026 46.4804 52.008 46.7348 52.008 47C52.008 47.2652 51.9026 47.5196 51.7151 47.7071C51.5276 47.8946 51.2732 48 51.008 48H0.992009C0.444009 48 7.99769e-06 47.536 7.99769e-06 47ZM7.99769e-06 39C-4.45199e-07 38.7362 0.104258 38.483 0.290068 38.2957C0.475878 38.1084 0.728181 38.0021 0.992009 38H51.008C51.2732 38 51.5276 38.1054 51.7151 38.2929C51.9026 38.4804 52.008 38.7348 52.008 39C52.008 39.2652 51.9026 39.5196 51.7151 39.7071C51.5276 39.8946 51.2732 40 51.008 40H0.992009C0.444009 40 7.99769e-06 39.536 7.99769e-06 39ZM7.99769e-06 4.014C-0.000911993 3.48771 0.101854 2.96639 0.302437 2.47982C0.503021 1.99325 0.797493 1.55097 1.16903 1.17822C1.54057 0.805471 1.9819 0.509566 2.46782 0.307405C2.95374 0.105245 3.47472 0.000787254 4.00101 0H48C48.5263 0.000787134 49.0472 0.105251 49.533 0.307425C50.0189 0.509598 50.4602 0.805517 50.8316 1.17828C51.2031 1.55104 51.4975 1.99334 51.6979 2.4799C51.8984 2.96646 52.0011 3.48776 52 4.014V27.986C52.0009 28.5123 51.8982 29.0336 51.6976 29.5202C51.497 30.0067 51.2025 30.449 50.831 30.8218C50.4594 31.1945 50.0181 31.4904 49.5322 31.6926C49.0463 31.8948 48.5253 31.9992 47.999 32H4.00001C3.47376 31.9992 2.95283 31.8947 2.46697 31.6926C1.98111 31.4904 1.53985 31.1945 1.16839 30.8217C0.796926 30.449 0.502549 30.0067 0.302075 29.5201C0.1016 29.0335 -0.0010435 28.5122 7.99769e-06 27.986V4.014V4.014ZM2.00001 4.014V27.986C2.00001 29.1 2.89601 30 4.00101 30H48C48.2636 29.9991 48.5244 29.9463 48.7675 29.8446C49.0107 29.7428 49.2314 29.5942 49.4171 29.4072C49.6028 29.2202 49.7499 28.9984 49.8499 28.7546C49.9499 28.5107 50.0009 28.2496 50 27.986V4.014C50.0009 3.75035 49.9499 3.48911 49.8498 3.24519C49.7497 3.00127 49.6026 2.77946 49.4168 2.59243C49.2309 2.4054 49.0101 2.25681 48.7668 2.15516C48.5236 2.05351 48.2627 2.00079 47.999 2H4.00001C3.73644 2.00092 3.47564 2.05374 3.23249 2.15545C2.98934 2.25716 2.76861 2.40577 2.58289 2.59278C2.39717 2.7798 2.25011 3.00157 2.1501 3.24542C2.05009 3.48927 1.99909 3.75044 2.00001 4.014V4.014ZM6.00001 7C6.00001 6.448 6.46001 6 7.00001 6H11.4C11.952 6 12.4 6.464 12.4 7C12.4 7.552 11.94 8 11.4 8H7.00001C6.44801 8 6.00001 7.536 6.00001 7ZM39.6 7C39.6 6.448 40.06 6 40.6 6H45C45.552 6 46 6.464 46 7C46 7.552 45.54 8 45 8H40.6C40.048 8 39.6 7.536 39.6 7ZM39.6 25C39.6 24.448 40.06 24 40.6 24H45C45.552 24 46 24.464 46 25C46 25.552 45.54 26 45 26H40.6C40.048 26 39.6 25.536 39.6 25ZM6.00001 25C6.00001 24.448 6.46001 24 7.00001 24H11.4C11.952 24 12.4 24.464 12.4 25C12.4 25.552 11.94 26 11.4 26H7.00001C6.44801 26 6.00001 25.536 6.00001 25ZM31.46 13.51C31.3391 13.2463 31.1994 12.9917 31.042 12.748C30.5727 12.0217 29.9527 11.4047 29.224 10.939C28.2599 10.3272 27.1419 10.0015 26 10C25.5632 9.99978 25.1276 10.0471 24.701 10.141C24.0062 10.2943 23.3445 10.5707 22.747 10.957C22.0195 11.425 21.4026 12.0457 20.939 12.776C20.4733 13.5047 20.1716 14.3261 20.055 15.183C19.8962 16.3262 20.0723 17.4909 20.562 18.536C21.0461 19.5703 21.8139 20.4459 22.776 21.061C23.7544 21.6824 24.891 22.0087 26.05 22.001C26.9095 21.9942 27.7575 21.8022 28.536 21.438C28.7751 21.3339 29.0454 21.3273 29.2893 21.4196C29.5332 21.5119 29.7313 21.6959 29.8416 21.9322C29.9518 22.1685 29.9653 22.4386 29.8793 22.6848C29.7932 22.9309 29.6144 23.1338 29.381 23.25C27.9876 23.9024 26.435 24.1372 24.911 23.926C23.7682 23.7708 22.6729 23.3688 21.701 22.748C20.7278 22.1299 19.9007 21.3076 19.277 20.338C18.7615 19.5412 18.3927 18.6587 18.188 17.732C17.9821 16.806 17.9435 15.8506 18.074 14.911C18.2292 13.7682 18.6312 12.6729 19.252 11.701C19.8701 10.7278 20.6924 9.9007 21.662 9.277C22.4588 8.76146 23.3413 8.39265 24.268 8.188C25.194 7.9821 26.1494 7.94349 27.089 8.074C28.2318 8.22919 29.3271 8.63115 30.299 9.252C31.2722 9.87007 32.0993 10.6924 32.723 11.662C33.5589 12.9542 34.0025 14.461 34 16C34 16.2652 33.8947 16.5196 33.7071 16.7071C33.5196 16.8946 33.2652 17 33 17C32.7348 17 32.4804 16.8946 32.2929 16.7071C32.1054 16.5196 32 16.2652 32 16C32 15.111 31.807 14.268 31.46 13.51Z" transform="translate(3 7)" fill="#333333"/>
</svg>
