<svg width="58" height="58" viewBox="0 0 58 58" fill="none" xmlns="http://www.w3.org/2000/svg">
<path d="M44.9995 6.803C44.3813 6.44509 43.7039 6.20122 42.9995 6.083V3C42.9995 2.73478 42.8941 2.48043 42.7066 2.29289C42.519 2.10536 42.2647 2 41.9995 2C41.7342 2 41.4799 2.10536 41.2923 2.29289C41.1048 2.48043 40.9995 2.73478 40.9995 3V6.083C40.295 6.20122 39.6176 6.44509 38.9995 6.803V3C38.9995 2.20435 39.3155 1.44129 39.8781 0.878679C40.4407 0.31607 41.2038 0 41.9995 0C42.7951 0 43.5582 0.31607 44.1208 0.878679C44.6834 1.44129 44.9995 2.20435 44.9995 3V6.803ZM44.9995 19.418V45C44.9995 45.7956 44.6834 46.5587 44.1208 47.1213C43.5582 47.6839 42.7951 48 41.9995 48C41.2038 48 40.4407 47.6839 39.8781 47.1213C39.3155 46.5587 38.9995 45.7956 38.9995 45V19.418C37.5221 18.82 36.257 17.7944 35.3662 16.4728C34.4754 15.1513 33.9995 13.5938 33.9995 12C33.9995 11.7348 34.1048 11.4804 34.2923 11.2929C34.4799 11.1054 34.7342 11 34.9995 11C35.2647 11 35.519 11.1054 35.7066 11.2929C35.8941 11.4804 35.9995 11.7348 35.9995 12C35.9996 13.3881 36.4811 14.7332 37.3618 15.8062C38.2426 16.8791 39.4681 17.6135 40.8296 17.8841C42.191 18.1548 43.6043 17.945 44.8284 17.2905C46.0525 16.636 47.0119 15.5773 47.543 14.2948C48.074 13.0123 48.144 11.5853 47.7409 10.257C47.3378 8.9287 46.4867 7.78124 45.3324 7.01015C44.1782 6.23906 42.7922 5.89204 41.4108 6.02822C40.0294 6.16441 38.7379 6.77537 37.7565 7.757C37.6642 7.85251 37.5539 7.92869 37.4319 7.9811C37.3099 8.03351 37.1786 8.0611 37.0459 8.06225C36.9131 8.0634 36.7814 8.0381 36.6585 7.98782C36.5356 7.93754 36.424 7.86329 36.3301 7.7694C36.2362 7.6755 36.1619 7.56385 36.1116 7.44095C36.0614 7.31806 36.0361 7.18638 36.0372 7.0536C36.0384 6.92082 36.0659 6.7896 36.1184 6.66759C36.1708 6.54559 36.2469 6.43525 36.3425 6.343C37.1811 5.50533 38.1955 4.8645 39.3121 4.46684C40.4288 4.06918 41.6198 3.92464 42.7992 4.04366C43.9786 4.16268 45.1167 4.54229 46.1314 5.15504C47.1461 5.76779 48.012 6.59837 48.6664 7.58672C49.3207 8.57507 49.7473 9.69649 49.9152 10.8699C50.0832 12.0433 49.9883 13.2393 49.6373 14.3715C49.2864 15.5038 48.6883 16.5439 47.8862 17.4166C47.0841 18.2894 46.0981 18.973 44.9995 19.418ZM40.9995 19.938V45C40.9995 45.2652 41.1048 45.5196 41.2923 45.7071C41.4799 45.8946 41.7342 46 41.9995 46C42.2647 46 42.519 45.8946 42.7066 45.7071C42.8941 45.5196 42.9995 45.2652 42.9995 45V19.938C42.3354 20.0208 41.6635 20.0208 40.9995 19.938ZM41.9995 14C41.469 14 40.9603 13.7893 40.5852 13.4142C40.2102 13.0391 39.9995 12.5304 39.9995 12C39.9995 11.4696 40.2102 10.9609 40.5852 10.5858C40.9603 10.2107 41.469 10 41.9995 10C42.5299 10 43.0386 10.2107 43.4137 10.5858C43.7887 10.9609 43.9995 11.4696 43.9995 12C43.9995 12.5304 43.7887 13.0391 43.4137 13.4142C43.0386 13.7893 42.5299 14 41.9995 14ZM27.9995 43.418V45C27.9995 45.7956 27.6834 46.5587 27.1208 47.1213C26.5582 47.6839 25.7951 48 24.9995 48C24.2038 48 23.4407 47.6839 22.8781 47.1213C22.3155 46.5587 21.9995 45.7956 21.9995 45V43.418C20.5222 42.8199 19.2572 41.7943 18.3665 40.4727C17.4758 39.1511 17 37.5937 17 36C17 34.4063 17.4758 32.8489 18.3665 31.5273C19.2572 30.2057 20.5222 29.1801 21.9995 28.582V3C21.9995 2.20435 22.3155 1.44129 22.8781 0.878679C23.4407 0.31607 24.2038 0 24.9995 0C25.7951 0 26.5582 0.31607 27.1208 0.878679C27.6834 1.44129 27.9995 2.20435 27.9995 3V28.582C29.4767 29.1801 30.7417 30.2057 31.6324 31.5273C32.5231 32.8489 32.9989 34.4063 32.9989 36C32.9989 37.5937 32.5231 39.1511 31.6324 40.4727C30.7417 41.7943 29.4767 42.8199 27.9995 43.418V43.418ZM23.9995 43.938V45C23.9995 45.2652 24.1048 45.5196 24.2923 45.7071C24.4799 45.8946 24.7342 46 24.9995 46C25.2647 46 25.519 45.8946 25.7066 45.7071C25.8941 45.5196 25.9995 45.2652 25.9995 45V43.938C25.3354 44.0208 24.6635 44.0208 23.9995 43.938V43.938ZM23.9995 28.062C24.6635 27.9792 25.3354 27.9792 25.9995 28.062V3C25.9995 2.73478 25.8941 2.48043 25.7066 2.29289C25.519 2.10536 25.2647 2 24.9995 2C24.7342 2 24.4799 2.10536 24.2923 2.29289C24.1048 2.48043 23.9995 2.73478 23.9995 3V28.062V28.062ZM24.9995 30C23.4082 30 21.882 30.6321 20.7568 31.7574C19.6316 32.8826 18.9995 34.4087 18.9995 36C18.9995 37.5913 19.6316 39.1174 20.7568 40.2426C21.882 41.3679 23.4082 42 24.9995 42C26.5908 42 28.1169 41.3679 29.2421 40.2426C30.3673 39.1174 30.9995 37.5913 30.9995 36C30.9995 34.4087 30.3673 32.8826 29.2421 31.7574C28.1169 30.6321 26.5908 30 24.9995 30ZM24.9995 34C25.5299 34 26.0386 34.2107 26.4137 34.5858C26.7887 34.9609 26.9995 35.4696 26.9995 36C26.9995 36.5304 26.7887 37.0391 26.4137 37.4142C26.0386 37.7893 25.5299 38 24.9995 38C24.469 38 23.9603 37.7893 23.5852 37.4142C23.2102 37.0391 22.9995 36.5304 22.9995 36C22.9995 35.4696 23.2102 34.9609 23.5852 34.5858C23.9603 34.2107 24.469 34 24.9995 34ZM10.9995 4.582C12.4767 5.18013 13.7417 6.20568 14.6324 7.52727C15.5231 8.84886 15.9989 10.4063 15.9989 12C15.9989 13.5937 15.5231 15.1511 14.6324 16.4727C13.7417 17.7943 12.4767 18.8199 10.9995 19.418V45C10.9995 45.7956 10.6834 46.5587 10.1208 47.1213C9.55817 47.6839 8.7951 48 7.99945 48C7.20381 48 6.44074 47.6839 5.87813 47.1213C5.31552 46.5587 4.99945 45.7956 4.99945 45V19.418C3.52223 18.8199 2.25723 17.7943 1.36653 16.4727C0.475833 15.1511 9.66918e-08 13.5937 9.66918e-08 12C9.66918e-08 10.4063 0.475833 8.84886 1.36653 7.52727C2.25723 6.20568 3.52223 5.18013 4.99945 4.582V3C4.99945 2.20435 5.31552 1.44129 5.87813 0.878679C6.44074 0.31607 7.20381 0 7.99945 0C8.7951 0 9.55817 0.31607 10.1208 0.878679C10.6834 1.44129 10.9995 2.20435 10.9995 3V4.582ZM6.99945 4.062C7.66355 3.97916 8.33536 3.97916 8.99945 4.062V3C8.99945 2.73478 8.8941 2.48043 8.70656 2.29289C8.51903 2.10536 8.26467 2 7.99945 2C7.73424 2 7.47988 2.10536 7.29235 2.29289C7.10481 2.48043 6.99945 2.73478 6.99945 3V4.062ZM6.99945 19.938V45C6.99945 45.2652 7.10481 45.5196 7.29235 45.7071C7.47988 45.8946 7.73424 46 7.99945 46C8.26467 46 8.51903 45.8946 8.70656 45.7071C8.8941 45.5196 8.99945 45.2652 8.99945 45V19.938C8.33536 20.0208 7.66355 20.0208 6.99945 19.938ZM7.99945 18C9.59075 18 11.1169 17.3679 12.2421 16.2426C13.3673 15.1174 13.9995 13.5913 13.9995 12C13.9995 10.4087 13.3673 8.88258 12.2421 7.75736C11.1169 6.63214 9.59075 6 7.99945 6C6.40816 6 4.88203 6.63214 3.75681 7.75736C2.63159 8.88258 1.99945 10.4087 1.99945 12C1.99945 13.5913 2.63159 15.1174 3.75681 16.2426C4.88203 17.3679 6.40816 18 7.99945 18V18ZM7.99945 14C7.46902 14 6.96031 13.7893 6.58524 13.4142C6.21017 13.0391 5.99945 12.5304 5.99945 12C5.99945 11.4696 6.21017 10.9609 6.58524 10.5858C6.96031 10.2107 7.46902 10 7.99945 10C8.52989 10 9.03859 10.2107 9.41367 10.5858C9.78874 10.9609 9.99945 11.4696 9.99945 12C9.99945 12.5304 9.78874 13.0391 9.41367 13.4142C9.03859 13.7893 8.52989 14 7.99945 14Z" transform="translate(4.00049 5)" fill="#333333"/>
</svg>
