<svg width="58" height="58" viewBox="0 0 58 58" fill="none" xmlns="http://www.w3.org/2000/svg">
<path d="M1.17169e-06 3.98705C-0.000401615 3.46184 0.103047 2.94174 0.304397 2.45666C0.505747 1.97157 0.801023 1.53109 1.17324 1.16055C1.54545 0.790007 1.98726 0.496717 2.47325 0.297554C2.95923 0.0983914 3.4798 -0.00271323 4.005 5.53577e-05H47.995C50.203 5.53577e-05 52 1.78105 52 3.98705V40.0131C52.0004 40.5383 51.897 41.0584 51.6956 41.5435C51.4943 42.0285 51.199 42.469 50.8268 42.8396C50.4545 43.2101 50.0127 43.5034 49.5268 43.7026C49.0408 43.9017 48.5202 44.0028 47.995 44.0001H4.005C1.797 44.0001 1.17169e-06 42.2191 1.17169e-06 40.0131V3.98705ZM2 3.98705V40.0131C2 41.1101 2.898 42.0001 4.005 42.0001H47.995C49.121 42.0001 50 41.1101 50 40.0131V3.98705C49.9988 3.72494 49.946 3.46562 49.8446 3.2239C49.7432 2.98219 49.5952 2.76281 49.409 2.5783C49.2228 2.39379 49.0021 2.24776 48.7595 2.14854C48.5169 2.04933 48.2571 1.99887 47.995 2.00006H4.005C2.879 2.00006 2 2.89005 2 3.98705ZM13 8.00006C12.7348 8.00006 12.4804 7.8947 12.2929 7.70716C12.1054 7.51963 12 7.26527 12 7.00006C12 6.73484 12.1054 6.48048 12.2929 6.29295C12.4804 6.10541 12.7348 6.00006 13 6.00006H47C47.2652 6.00006 47.5196 6.10541 47.7071 6.29295C47.8946 6.48048 48 6.73484 48 7.00006C48 7.26527 47.8946 7.51963 47.7071 7.70716C47.5196 7.8947 47.2652 8.00006 47 8.00006H13ZM9 8.00006C8.73478 8.00006 8.48043 7.8947 8.29289 7.70716C8.10536 7.51963 8 7.26527 8 7.00006C8 6.73484 8.10536 6.48048 8.29289 6.29295C8.48043 6.10541 8.73478 6.00006 9 6.00006C9.26522 6.00006 9.51957 6.10541 9.70711 6.29295C9.89464 6.48048 10 6.73484 10 7.00006C10 7.26527 9.89464 7.51963 9.70711 7.70716C9.51957 7.8947 9.26522 8.00006 9 8.00006ZM5 8.00006C4.73478 8.00006 4.48043 7.8947 4.29289 7.70716C4.10536 7.51963 4 7.26527 4 7.00006C4 6.73484 4.10536 6.48048 4.29289 6.29295C4.48043 6.10541 4.73478 6.00006 5 6.00006C5.26522 6.00006 5.51957 6.10541 5.70711 6.29295C5.89464 6.48048 6 6.73484 6 7.00006C6 7.26527 5.89464 7.51963 5.70711 7.70716C5.51957 7.8947 5.26522 8.00006 5 8.00006ZM5 14.0001C4.73478 14.0001 4.48043 13.8947 4.29289 13.7072C4.10536 13.5196 4 13.2653 4 13.0001C4 12.7348 4.10536 12.4805 4.29289 12.2929C4.48043 12.1054 4.73478 12.0001 5 12.0001H47C47.2652 12.0001 47.5196 12.1054 47.7071 12.2929C47.8946 12.4805 48 12.7348 48 13.0001C48 13.2653 47.8946 13.5196 47.7071 13.7072C47.5196 13.8947 47.2652 14.0001 47 14.0001H5ZM26 37.0001C21.347 37.0001 17.071 34.1501 13.18 28.5721L12.78 28.0001L13.18 27.4281C17.07 21.8501 21.347 19.0001 26 19.0001C30.653 19.0001 34.929 21.8501 38.82 27.4281L39.22 28.0001L38.82 28.5721C34.93 34.1501 30.653 37.0001 26 37.0001ZM26 35.0001C29.756 35.0001 33.344 32.7041 36.772 28.0001C33.344 23.2961 29.756 21.0001 26 21.0001C22.244 21.0001 18.656 23.2961 15.228 28.0001C18.656 32.7041 22.244 35.0001 26 35.0001ZM21.5 28.0001C21.5 27.7348 21.6054 27.4805 21.7929 27.2929C21.9804 27.1054 22.2348 27.0001 22.5 27.0001C22.7652 27.0001 23.0196 27.1054 23.2071 27.2929C23.3946 27.4805 23.5 27.7348 23.5 28.0001C23.5 28.4945 23.6466 28.9779 23.9213 29.389C24.196 29.8001 24.5865 30.1205 25.0433 30.3098C25.5001 30.499 26.0028 30.5485 26.4877 30.452C26.9727 30.3556 27.4181 30.1175 27.7678 29.7678C28.1174 29.4182 28.3555 28.9727 28.452 28.4878C28.5484 28.0028 28.4989 27.5002 28.3097 27.0433C28.1205 26.5865 27.8001 26.1961 27.3889 25.9214C26.9778 25.6467 26.4945 25.5001 26 25.5001C25.7348 25.5001 25.4804 25.3947 25.2929 25.2072C25.1054 25.0196 25 24.7653 25 24.5001C25 24.2348 25.1054 23.9805 25.2929 23.7929C25.4804 23.6054 25.7348 23.5001 26 23.5001C26.89 23.5001 27.76 23.764 28.5001 24.2584C29.2401 24.7529 29.8169 25.4557 30.1575 26.278C30.4981 27.1002 30.5872 28.005 30.4135 28.878C30.2399 29.7509 29.8113 30.5527 29.182 31.182C28.5526 31.8114 27.7508 32.24 26.8779 32.4136C26.005 32.5872 25.1002 32.4981 24.2779 32.1575C23.4557 31.8169 22.7529 31.2401 22.2584 30.5001C21.7639 29.7601 21.5 28.8901 21.5 28.0001V28.0001Z" transform="translate(3 7)" fill="#333333"/>
</svg>
