<svg width="58" height="58" viewBox="0 0 58 58" fill="none" xmlns="http://www.w3.org/2000/svg">
<path fill-rule="evenodd" clip-rule="evenodd" d="M0 26.014C0 23.803 1.78 22 3.987 22H36.013C38.221 22 40 23.802 40 26.014V47.986C40 50.197 38.22 52 36.013 52H3.987C1.779 52 0 50.198 0 47.986V26.014ZM2 26.014V47.986C2 49.1 2.89 50 3.987 50H36.013C37.11 50 38 49.098 38 47.986V26.014C38 24.9 37.11 24 36.013 24H3.987C2.89 24 2 24.902 2 26.014ZM29 16.991V14.996C29.0001 13.8143 28.7674 12.6441 28.3151 11.5523C27.8628 10.4605 27.1998 9.46859 26.364 8.63316C25.5282 7.79773 24.536 7.13517 23.444 6.68336C22.352 6.23155 21.1817 5.99934 20 6C15.036 6 11 10.034 11 14.996V22H9V14.996C9 8.928 13.933 4 20 4C26.077 4 31 8.92 31 14.996V16.991C31 17.548 30.536 18 30 18C29.8675 18.0014 29.736 17.9761 29.6134 17.9257C29.4908 17.8753 29.3795 17.8008 29.2863 17.7066C29.193 17.6124 29.1196 17.5004 29.0704 17.3773C29.0213 17.2542 28.9973 17.1225 29 16.99V16.991ZM5 22V14.996C5 6.72 11.723 0 20 0C28.287 0 35 6.71 35 14.996V22H33V14.996C33 7.815 27.181 2 20 2C12.83 2 7 7.823 7 14.996V22H5ZM15 32H25C25.7956 32 26.5587 32.3161 27.1213 32.8787C27.6839 33.4413 28 34.2044 28 35C28 35.7956 27.6839 36.5587 27.1213 37.1213C26.5587 37.6839 25.7956 38 25 38H15C14.2044 38 13.4413 37.6839 12.8787 37.1213C12.3161 36.5587 12 35.7956 12 35C12 34.2044 12.3161 33.4413 12.8787 32.8787C13.4413 32.3161 14.2044 32 15 32ZM15 34C14.7348 34 14.4804 34.1054 14.2929 34.2929C14.1054 34.4804 14 34.7348 14 35C14 35.2652 14.1054 35.5196 14.2929 35.7071C14.4804 35.8946 14.7348 36 15 36H25C25.2652 36 25.5196 35.8946 25.7071 35.7071C25.8946 35.5196 26 35.2652 26 35C26 34.7348 25.8946 34.4804 25.7071 34.2929C25.5196 34.1054 25.2652 34 25 34H15ZM15 40H25C25.2652 40 25.5196 40.1054 25.7071 40.2929C25.8946 40.4804 26 40.7348 26 41C26 41.2652 25.8946 41.5196 25.7071 41.7071C25.5196 41.8946 25.2652 42 25 42H15C14.7348 42 14.4804 41.8946 14.2929 41.7071C14.1054 41.5196 14 41.2652 14 41C14 40.7348 14.1054 40.4804 14.2929 40.2929C14.4804 40.1054 14.7348 40 15 40Z" transform="translate(9 3)" fill="#333333"/>
</svg>
