<svg width="58" height="58" viewBox="0 0 58 58" fill="none" xmlns="http://www.w3.org/2000/svg">
<path fill-rule="evenodd" clip-rule="evenodd" d="M25.9936 46.007C14.9476 46.007 5.99361 37.053 5.99361 26.007C5.99361 14.961 14.9476 6.00695 25.9936 6.00695C37.0396 6.00695 45.9936 14.961 45.9936 26.007C45.9936 37.053 37.0396 46.007 25.9936 46.007V46.007ZM25.9936 44.007C35.9346 44.007 43.9936 35.948 43.9936 26.007C43.9936 16.066 35.9346 8.00695 25.9936 8.00695C16.0526 8.00695 7.99361 16.066 7.99361 26.007C7.99361 35.948 16.0526 44.007 25.9936 44.007ZM25.9476 32.824H17.1206V31.505L21.5836 26.183C22.3776 25.22 22.9166 24.453 23.1996 23.883C23.4826 23.313 23.6246 22.739 23.6246 22.16C23.6246 21.502 23.4326 20.964 23.0486 20.544C22.6646 20.124 22.1336 19.914 21.4566 19.914C20.6166 19.914 19.9766 20.171 19.5376 20.685C19.0976 21.2 18.8776 21.841 18.8776 22.609H17.0226L17.0026 22.55C16.9706 21.392 17.3586 20.41 18.1656 19.606C18.9726 18.802 20.0696 18.4 21.4566 18.4C22.7266 18.4 23.7256 18.752 24.4546 19.455C25.1846 20.158 25.5486 21.066 25.5486 22.179C25.5486 22.928 25.3416 23.66 24.9286 24.377C24.5146 25.093 23.8846 25.991 23.0386 27.072L19.4546 31.272L19.4746 31.32H25.9486V32.824H25.9476ZM33.6356 28.039H35.5986V29.543H33.6356V32.823H31.7206V29.543H25.6166V28.459L31.6026 18.605H33.6346V28.039H33.6356ZM27.6786 28.039H31.7216V21.369L31.6626 21.359L31.4776 21.847L27.6776 28.039H27.6786ZM44.1966 10.339C44.1688 10.3138 44.1424 10.2871 44.1176 10.259C43.2475 9.25675 42.2963 8.32795 41.2736 7.48195C40.2636 6.65195 39.1736 5.89395 38.0046 5.21995C36.7411 4.48969 35.414 3.87551 34.0396 3.38495C30.7283 2.21351 27.2011 1.77939 23.7046 2.11295C20.2085 2.45241 16.8288 3.55135 13.8016 5.33295C12.546 6.0768 11.3605 6.93297 10.2596 7.89095C9.25737 8.7614 8.32856 9.71295 7.48261 10.736C6.65261 11.746 5.8946 12.836 5.2206 14.004C4.49029 15.2678 3.87611 16.5952 3.38561 17.97C2.21416 21.2812 1.78005 24.8084 2.11361 28.305C2.45321 31.8007 3.55214 35.1801 5.33361 38.207C6.0774 39.4629 6.93357 40.6487 7.89161 41.75C8.7621 42.7518 9.71365 43.6803 10.7366 44.526C11.7466 45.356 12.8366 46.114 14.0046 46.789C14.0376 46.808 14.0696 46.8289 14.0996 46.8509C22.7116 51.7689 33.8416 50.992 41.7496 44.117C41.8488 44.0307 41.9639 43.9649 42.0885 43.9232C42.2131 43.8815 42.3447 43.8647 42.4758 43.8739C42.6068 43.883 42.7348 43.9179 42.8524 43.9765C42.97 44.0351 43.0749 44.1163 43.1611 44.2155C43.2473 44.3146 43.3132 44.4298 43.3549 44.5543C43.3966 44.6789 43.4133 44.8105 43.4042 44.9416C43.395 45.0727 43.3602 45.2007 43.3016 45.3182C43.243 45.4358 43.1618 45.5407 43.0626 45.6269C33.3286 54.0879 19.0896 54.023 9.46461 46.07C7.12765 44.1484 5.14653 41.8312 3.61161 39.2239C1.67354 35.9485 0.48221 32.2858 0.122605 28.497C-0.247567 24.7087 0.222958 20.8854 1.5006 17.3C2.50989 14.4481 4.0124 11.7958 5.9396 9.46395C7.86114 7.127 10.1784 5.14587 12.7856 3.61095C16.061 1.67289 19.7238 0.481557 23.5126 0.121951C27.2306 -0.239049 31.0526 0.195952 34.7086 1.49995C37.5608 2.50913 40.2135 4.01165 42.5456 5.93895C52.1896 13.869 54.9706 27.835 48.5216 39.004C48.3881 39.2318 48.1698 39.3975 47.9145 39.465C47.6592 39.5325 47.3876 39.4963 47.1589 39.3642C46.9302 39.2322 46.763 39.0151 46.6939 38.7602C46.6247 38.5054 46.6591 38.2335 46.7896 38.004C52.0296 28.929 50.6686 17.855 44.1966 10.34V10.339Z" transform="translate(2.99951 3)" fill="#333333"/>
</svg>
