<svg width="58" height="58" viewBox="0 0 58 58" fill="none" xmlns="http://www.w3.org/2000/svg">
<path d="M29.35 34.937C29.5409 34.8657 29.7055 34.7377 29.8217 34.5702C29.9378 34.4028 30.0001 34.2038 30 34V18C30 17.7348 29.8946 17.4804 29.7071 17.2929C29.5196 17.1054 29.2652 17 29 17H13C12.7348 17 12.4804 17.1054 12.2929 17.2929C12.1054 17.4804 12 17.7348 12 18V29L14.816 25.245C15.0738 24.901 15.4026 24.6164 15.78 24.4105C16.1574 24.2047 16.5747 24.0823 17.0035 24.0518C17.4323 24.0213 17.8627 24.0833 18.2655 24.2336C18.6683 24.3839 19.034 24.619 19.338 24.923L29.35 34.937ZM26.587 35L17.924 26.338C17.8227 26.2367 17.7008 26.1584 17.5666 26.1083C17.4324 26.0582 17.289 26.0375 17.1461 26.0476C17.0032 26.0578 16.8641 26.0985 16.7383 26.1671C16.6126 26.2356 16.503 26.3304 16.417 26.445L12 32.333V34C12 34.2652 12.1054 34.5196 12.2929 34.7071C12.4804 34.8946 12.7348 35 13 35H26.586H26.587ZM30.708 0.292999C30.8008 0.38582 30.8744 0.496057 30.9245 0.617382C30.9746 0.738708 31.0003 0.868734 31 1V10.033C31 10.2982 31.1054 10.5526 31.2929 10.7401C31.4804 10.9276 31.7348 11.033 32 11.033L34.989 11C35.2542 10.9971 35.5097 11.0996 35.6993 11.2851C35.8889 11.4706 35.9971 11.7238 36 11.989C36.0029 12.2542 35.9004 12.5097 35.7149 12.6993C35.5294 12.8889 35.2762 12.9971 35.011 13L32.033 13.033C31.6365 13.0364 31.2433 12.9614 30.8759 12.8123C30.5085 12.6631 30.1743 12.4428 29.8924 12.164C29.6105 11.8852 29.3865 11.5533 29.2334 11.1876C29.0802 10.8219 29.0009 10.4295 29 10.033V2H3C2.73478 2 2.48043 2.10536 2.29289 2.29289C2.10536 2.48043 2 2.73478 2 3V45C2 45.2652 2.10536 45.5196 2.29289 45.7071C2.48043 45.8946 2.73478 46 3 46H39C39.2652 46 39.5196 45.8946 39.7071 45.7071C39.8946 45.5196 40 45.2652 40 45V12.071L34.69 6.703C34.5913 6.6112 34.5122 6.5004 34.4574 6.37726C34.4026 6.25411 34.3733 6.12116 34.3712 5.98639C34.3691 5.85162 34.3942 5.71782 34.4452 5.59303C34.4961 5.46823 34.5717 5.35501 34.6675 5.26018C34.7633 5.16534 34.8772 5.09085 35.0025 5.04118C35.1278 4.9915 35.2618 4.96766 35.3966 4.9711C35.5313 4.97454 35.664 5.00519 35.7866 5.06119C35.9092 5.11719 36.0192 5.1974 36.11 5.297L42 11.249V45C42 45.7956 41.6839 46.5587 41.1213 47.1213C40.5587 47.6839 39.7956 48 39 48H3C2.20435 48 1.44129 47.6839 0.878679 47.1213C0.31607 46.5587 0 45.7956 0 45V3C0 2.20435 0.31607 1.44129 0.878679 0.878679C1.44129 0.31607 2.20435 0 3 0H30C30.276 0 30.526 0.111999 30.707 0.292999H30.708ZM13 15H29C29.7956 15 30.5587 15.3161 31.1213 15.8787C31.6839 16.4413 32 17.2044 32 18V34C32 34.7956 31.6839 35.5587 31.1213 36.1213C30.5587 36.6839 29.7956 37 29 37H13C12.2044 37 11.4413 36.6839 10.8787 36.1213C10.3161 35.5587 10 34.7956 10 34V18C10 17.2044 10.3161 16.4413 10.8787 15.8787C11.4413 15.3161 12.2044 15 13 15ZM25 25C24.2044 25 23.4413 24.6839 22.8787 24.1213C22.3161 23.5587 22 22.7956 22 22C22 21.2044 22.3161 20.4413 22.8787 19.8787C23.4413 19.3161 24.2044 19 25 19C25.7956 19 26.5587 19.3161 27.1213 19.8787C27.6839 20.4413 28 21.2044 28 22C28 22.7956 27.6839 23.5587 27.1213 24.1213C26.5587 24.6839 25.7956 25 25 25ZM25 23C25.2652 23 25.5196 22.8946 25.7071 22.7071C25.8946 22.5196 26 22.2652 26 22C26 21.7348 25.8946 21.4804 25.7071 21.2929C25.5196 21.1054 25.2652 21 25 21C24.7348 21 24.4804 21.1054 24.2929 21.2929C24.1054 21.4804 24 21.7348 24 22C24 22.2652 24.1054 22.5196 24.2929 22.7071C24.4804 22.8946 24.7348 23 25 23Z" transform="translate(8 5)" fill="#333333"/>
</svg>
