<svg width="58" height="58" viewBox="0 0 58 58" fill="none" xmlns="http://www.w3.org/2000/svg">
<path d="M52 22.977V42C52 43.0609 51.5786 44.0783 50.8284 44.8284C50.0783 45.5786 49.0609 46 48 46H4C2.93913 46 1.92172 45.5786 1.17157 44.8284C0.421428 44.0783 0 43.0609 0 42V23.023V12C0 10.9391 0.421428 9.92172 1.17157 9.17157C1.92172 8.42143 2.93913 8 4 8H48C49.0609 8 50.0783 8.42143 50.8284 9.17157C51.5786 9.92172 52 10.9391 52 12V22.977V22.977ZM50 22.284V12C50 11.4696 49.7893 10.9609 49.4142 10.5858C49.0391 10.2107 48.5304 10 48 10H4C3.46957 10 2.96086 10.2107 2.58579 10.5858C2.21071 10.9609 2 11.4696 2 12V22.284L20 28.404V27C20 26.2044 20.3161 25.4413 20.8787 24.8787C21.4413 24.3161 22.2044 24 23 24H29C29.7956 24 30.5587 24.3161 31.1213 24.8787C31.6839 25.4413 32 26.2044 32 27V28.404L50 22.284ZM50 24.396L32 30.516V33C32 33.7956 31.6839 34.5587 31.1213 35.1213C30.5587 35.6839 29.7956 36 29 36H23C22.2044 36 21.4413 35.6839 20.8787 35.1213C20.3161 34.5587 20 33.7956 20 33V30.516L2 24.396V42C2 42.5304 2.21071 43.0391 2.58579 43.4142C2.96086 43.7893 3.46957 44 4 44H48C48.5304 44 49.0391 43.7893 49.4142 43.4142C49.7893 43.0391 50 42.5304 50 42V24.396ZM23 26C22.7348 26 22.4804 26.1054 22.2929 26.2929C22.1054 26.4804 22 26.7348 22 27V33C22 33.2652 22.1054 33.5196 22.2929 33.7071C22.4804 33.8946 22.7348 34 23 34H29C29.2652 34 29.5196 33.8946 29.7071 33.7071C29.8946 33.5196 30 33.2652 30 33V27C30 26.7348 29.8946 26.4804 29.7071 26.2929C29.5196 26.1054 29.2652 26 29 26H23ZM1 48H51C51.2652 48 51.5196 48.1054 51.7071 48.2929C51.8946 48.4804 52 48.7348 52 49C52 49.2652 51.8946 49.5196 51.7071 49.7071C51.5196 49.8946 51.2652 50 51 50H1C0.734784 50 0.480429 49.8946 0.292892 49.7071C0.105356 49.5196 0 49.2652 0 49C0 48.7348 0.105356 48.4804 0.292892 48.2929C0.480429 48.1054 0.734784 48 1 48ZM27.01 29C27.556 29 28 29.464 28 30C28 30.552 27.568 31 27.01 31H24.99C24.444 31 24 30.536 24 30C24 29.448 24.432 29 24.99 29H27.01ZM19.893 5.45C19.7725 5.68489 19.5641 5.86261 19.3131 5.9444C19.0621 6.0262 18.7889 6.00544 18.5532 5.88664C18.3175 5.76785 18.1383 5.56066 18.0547 5.31027C17.9711 5.05987 17.9899 4.78658 18.107 4.55C19.624 1.535 22.309 0 26 0C29.69 0 32.376 1.534 33.893 4.55C33.9532 4.66738 33.9896 4.79552 34.0001 4.92702C34.0105 5.05853 33.9949 5.19081 33.954 5.31624C33.9131 5.44167 33.8478 5.55777 33.7619 5.65786C33.6759 5.75794 33.571 5.84003 33.4532 5.8994C33.3354 5.95877 33.207 5.99424 33.0754 6.00377C32.9439 6.01329 32.8117 5.99669 32.6866 5.95492C32.5614 5.91315 32.4458 5.84703 32.3463 5.76037C32.2469 5.67371 32.1655 5.56823 32.107 5.45C30.94 3.131 28.959 2 26 2C23.04 2 21.06 3.132 19.893 5.45V5.45Z" transform="translate(3 5)" fill="#333333"/>
</svg>
