<svg width="58" height="58" viewBox="0 0 58 58" fill="none" xmlns="http://www.w3.org/2000/svg">
<path d="M22.62 29.827C22.444 30.053 22.2215 30.2386 21.9675 30.3711C21.7135 30.5037 21.4341 30.5801 21.148 30.5953C20.8619 30.6105 20.5759 30.564 20.3094 30.4591C20.0428 30.3541 19.8019 30.1931 19.603 29.987L16.28 26.543C16.0959 26.352 15.9953 26.0958 16.0002 25.8306C16.005 25.5654 16.115 25.3131 16.306 25.129C16.497 24.9449 16.7532 24.8443 17.0184 24.8492C17.2836 24.854 17.5359 24.964 17.72 25.155L21.042 28.599L27.712 20.028C26.8873 19.1052 25.881 18.3624 24.7563 17.8461C23.6315 17.3298 22.4123 17.051 21.1749 17.0271C19.9375 17.0033 18.7084 17.2349 17.5646 17.7076C16.4207 18.1802 15.3867 18.8837 14.527 19.774C14.4357 19.8686 14.3267 19.9442 14.2062 19.9966C14.0857 20.0491 13.9561 20.0772 13.8247 20.0796C13.6933 20.0819 13.5627 20.0583 13.4404 20.0102C13.3182 19.962 13.2066 19.8903 13.112 19.799C13.0174 19.7077 12.9418 19.5987 12.8894 19.4782C12.8369 19.3577 12.8088 19.2281 12.8064 19.0967C12.8041 18.9653 12.8277 18.8347 12.8758 18.7124C12.924 18.5902 12.9957 18.4786 13.087 18.384C15.1009 16.2932 17.8616 15.0863 20.764 15.028C20.839 15.01 20.919 15 21 15C27.048 15 31.956 19.88 32 25.919C32.0317 28.8075 30.9224 31.5918 28.913 33.667C24.693 38.037 17.729 38.158 13.359 33.938C13.3107 33.8918 13.2672 33.8409 13.229 33.786C12.2038 32.7653 11.3907 31.5519 10.8365 30.2156C10.2824 28.8794 9.99805 27.4466 10 26C10 25.7348 10.1054 25.4804 10.2929 25.2929C10.4804 25.1054 10.7348 25 11 25C11.2652 25 11.5196 25.1054 11.7071 25.2929C11.8946 25.4804 12 25.7348 12 26C12 28.3869 12.9482 30.6761 14.636 32.364C16.3239 34.0518 18.6131 35 21 35C23.3869 35 25.6761 34.0518 27.364 32.364C29.0518 30.6761 30 28.3869 30 26C29.9905 24.5121 29.6177 23.049 28.914 21.738L22.621 29.827H22.62ZM30.707 0.292999C30.8 0.385738 30.8738 0.495938 30.924 0.617268C30.9743 0.738597 31.0001 0.868664 31 1V10.033C31 10.2982 31.1054 10.5526 31.2929 10.7401C31.4804 10.9276 31.7348 11.033 32 11.033L34.989 11C35.2542 10.9971 35.5097 11.0996 35.6993 11.2851C35.8889 11.4706 35.9971 11.7238 36 11.989C36.0029 12.2542 35.9004 12.5097 35.7149 12.6993C35.5294 12.8889 35.2762 12.9971 35.011 13L32.033 13.033C31.6365 13.0364 31.2433 12.9614 30.8759 12.8123C30.5085 12.6631 30.1743 12.4428 29.8924 12.164C29.6105 11.8852 29.3865 11.5533 29.2334 11.1876C29.0802 10.8219 29.0009 10.4295 29 10.033V2H3C2.73478 2 2.48043 2.10536 2.29289 2.29289C2.10536 2.48043 2 2.73478 2 3V45C2 45.2652 2.10536 45.5196 2.29289 45.7071C2.48043 45.8946 2.73478 46 3 46H39C39.2652 46 39.5196 45.8946 39.7071 45.7071C39.8946 45.5196 40 45.2652 40 45V12.071L34.69 6.703C34.5913 6.6112 34.5122 6.5004 34.4574 6.37726C34.4026 6.25411 34.3733 6.12116 34.3712 5.98639C34.3691 5.85162 34.3942 5.71782 34.4452 5.59303C34.4961 5.46823 34.5717 5.35501 34.6675 5.26018C34.7633 5.16534 34.8772 5.09085 35.0025 5.04118C35.1278 4.9915 35.2618 4.96766 35.3966 4.9711C35.5313 4.97454 35.664 5.00519 35.7866 5.06119C35.9092 5.11719 36.0192 5.1974 36.11 5.297L42 11.249V45C42 45.7956 41.6839 46.5587 41.1213 47.1213C40.5587 47.6839 39.7956 48 39 48H3C2.20435 48 1.44129 47.6839 0.878679 47.1213C0.31607 46.5587 0 45.7956 0 45V3C0 2.20435 0.31607 1.44129 0.878679 0.878679C1.44129 0.31607 2.20435 0 3 0H30C30.276 0 30.526 0.111999 30.707 0.292999V0.292999Z" transform="translate(8 5)" fill="#333333"/>
</svg>
