<?xml version="1.0" encoding="UTF-8" standalone="no"?><!DOCTYPE svg PUBLIC "-//W3C//DTD SVG 1.1//EN" "http://www.w3.org/Graphics/SVG/1.1/DTD/svg11.dtd"><svg width="100%" height="100%" viewBox="0 0 1920 768" version="1.1" xmlns="http://www.w3.org/2000/svg" xmlns:xlink="http://www.w3.org/1999/xlink" xml:space="preserve" xmlns:serif="http://www.serif.com/" style="fill-rule:evenodd;clip-rule:evenodd;stroke-linecap:round;"><rect id="Artboard1" x="0" y="0" width="1920" height="768" style="fill:none;"/><g><g opacity="0.2"><path d="M303.809,1738.82c458.046,-458.046 680.452,-978.28 496.757,-1161.98c-183.695,-183.695 -703.929,38.711 -1161.98,496.757c-458.045,458.046 -680.451,978.28 -496.756,1161.97c183.695,183.695 703.928,-38.71 1161.97,-496.756l0.009,0.009Z" style="fill:none;stroke:#52d2ff;stroke-width:2px;stroke-dasharray:0,6.67;"/><path d="M527.978,1574.19c481.414,-481.414 715.167,-1028.19 522.1,-1221.26c-193.067,-193.067 -739.842,40.686 -1221.26,522.1c-481.413,481.415 -715.166,1028.19 -522.099,1221.26c193.066,193.067 739.84,-40.685 1221.26,-522.099l-0.001,-0.001Z" style="fill:none;stroke:#52d2ff;stroke-width:2px;"/><path d="M737.533,1405.35c516.057,-516.057 766.63,-1102.18 559.671,-1309.14c-206.96,-206.96 -793.081,43.614 -1309.14,559.671c-516.055,516.057 -766.629,1102.18 -559.669,1309.14c206.96,206.96 793.079,-43.613 1309.14,-559.669l-0.002,-0.002Z" style="fill:none;stroke:#52d2ff;stroke-width:2px;stroke-dasharray:0,6.67;"/><path d="M1099.66,1166.12c600.511,-618.592 892.091,-1321.17 651.262,-1569.25c-240.829,-248.08 -922.87,52.279 -1523.38,670.871c-600.509,618.592 -892.09,1321.17 -651.261,1569.25c240.83,248.081 922.869,-52.278 1523.38,-670.869l-0.001,-0.002Z" style="fill:none;stroke:#52d2ff;stroke-width:2px;"/><path d="M190.784,315.786c-0.304,-2.929 -1.862,-5.54 -4.383,-7.357c-2.707,-1.952 -6.214,-2.699 -9.379,-1.995c-3.009,0.668 -5.65,2.605 -7.248,5.31c-1.598,2.71 -2.016,5.958 -1.146,8.917c0.47,1.597 1.302,3.097 2.405,4.342c1.113,1.256 2.509,2.259 4.04,2.902c1.412,0.592 2.912,0.886 4.411,0.886c2.044,0 4.079,-0.546 5.866,-1.622l-1.263,-2.101c-2.43,1.464 -5.443,1.678 -8.064,0.578c-2.412,-1.015 -4.297,-3.137 -5.043,-5.674c-0.679,-2.312 -0.35,-4.857 0.906,-6.982c1.253,-2.124 3.319,-3.641 5.666,-4.164c2.494,-0.552 5.267,0.04 7.417,1.591c1.947,1.401 3.144,3.399 3.376,5.623c0.15,1.436 0.018,2.569 -0.391,3.368c-0.868,1.688 -2.128,1.698 -2.627,1.624c-0.017,-0.002 -0.029,-0.005 -0.039,-0.007c-0.144,-0.222 -0.126,-1.047 -0.119,-1.405c0.003,-0.14 0.005,-0.274 0.005,-0.399l0,-6.711l-1.877,0c-0.239,-0.196 -0.492,-0.374 -0.759,-0.534c-1.022,-0.609 -2.207,-0.932 -3.429,-0.932c-1.741,0 -3.378,0.635 -4.604,1.786c-1.949,1.829 -2.553,4.832 -1.471,7.308c0.514,1.175 1.382,2.15 2.508,2.818c1.055,0.625 2.287,0.957 3.561,0.957c1.461,0 2.804,-0.404 3.884,-1.168c0.115,-0.08 0.229,-0.167 0.337,-0.253c0.385,0.527 0.947,0.862 1.645,0.965c0.967,0.144 1.934,-0.016 2.802,-0.459c0.985,-0.504 1.779,-1.336 2.361,-2.472c0.64,-1.245 0.854,-2.795 0.652,-4.74Zm-8.089,3.806c-0.053,0.077 -0.133,0.174 -0.177,0.228c-0.036,0.046 -0.069,0.087 -0.099,0.124c-0.231,0.298 -0.515,0.568 -0.845,0.801c-0.674,0.476 -1.506,0.716 -2.471,0.716c-1.734,0 -3.201,-0.883 -3.823,-2.308c-0.674,-1.538 -0.304,-3.405 0.9,-4.533c0.761,-0.715 1.829,-1.124 2.929,-1.124c0.781,0 1.531,0.202 2.172,0.586c0.409,0.244 0.771,0.559 1.072,0.941c0.03,0.037 0.065,0.079 0.104,0.125c0.057,0.068 0.168,0.206 0.238,0.305l0,4.139l0,0Z" style="fill:#1ec3ff;fill-rule:nonzero;"/><path d="M1117.19,658.184c-0.304,-2.932 -1.863,-5.546 -4.387,-7.364c-2.71,-1.954 -6.22,-2.701 -9.388,-1.997c-3.012,0.669 -5.655,2.607 -7.255,5.316c-1.6,2.711 -2.018,5.963 -1.147,8.925c0.47,1.598 1.303,3.1 2.407,4.347c1.114,1.257 2.512,2.261 4.044,2.904c1.414,0.593 2.915,0.887 4.415,0.887c2.046,0 4.083,-0.546 5.872,-1.624l-1.265,-2.103c-2.432,1.466 -5.448,1.68 -8.071,0.579c-2.415,-1.016 -4.302,-3.14 -5.048,-5.68c-0.679,-2.314 -0.35,-4.861 0.907,-6.989c1.254,-2.126 3.322,-3.644 5.672,-4.168c2.496,-0.553 5.272,0.04 7.424,1.593c1.948,1.402 3.147,3.403 3.379,5.629c0.15,1.437 0.018,2.571 -0.392,3.37c-0.868,1.69 -2.129,1.7 -2.629,1.627c-0.017,-0.003 -0.029,-0.005 -0.039,-0.007c-0.144,-0.223 -0.126,-1.049 -0.119,-1.407c0.003,-0.14 0.005,-0.275 0.005,-0.4l0,-6.717l-1.879,0c-0.24,-0.197 -0.493,-0.375 -0.76,-0.535c-1.023,-0.609 -2.209,-0.932 -3.432,-0.932c-1.743,0 -3.381,0.635 -4.609,1.788c-1.95,1.83 -2.555,4.836 -1.472,7.314c0.515,1.176 1.383,2.152 2.51,2.821c1.056,0.626 2.289,0.958 3.565,0.958c1.463,0 2.807,-0.404 3.888,-1.169c0.115,-0.08 0.229,-0.167 0.337,-0.253c0.386,0.527 0.948,0.863 1.647,0.966c0.968,0.144 1.936,-0.016 2.804,-0.46c0.986,-0.505 1.781,-1.338 2.364,-2.474c0.641,-1.246 0.854,-2.798 0.652,-4.745Zm-8.097,3.81c-0.053,0.077 -0.133,0.174 -0.177,0.228c-0.036,0.047 -0.069,0.087 -0.099,0.124c-0.231,0.299 -0.515,0.568 -0.845,0.802c-0.675,0.476 -1.508,0.717 -2.474,0.717c-1.736,0 -3.204,-0.884 -3.827,-2.31c-0.675,-1.54 -0.304,-3.408 0.902,-4.538c0.761,-0.716 1.83,-1.126 2.931,-1.126c0.781,0 1.533,0.203 2.174,0.587c0.41,0.244 0.771,0.56 1.073,0.942c0.03,0.037 0.065,0.08 0.104,0.126c0.057,0.068 0.168,0.206 0.238,0.305l0,4.143l0,0Z" style="fill:#1ec3ff;fill-rule:nonzero;"/><path d="M1438.22,518.408c-0.305,-2.932 -1.864,-5.546 -4.387,-7.364c-2.711,-1.953 -6.22,-2.701 -9.388,-1.997c-3.012,0.669 -5.656,2.608 -7.255,5.316c-1.6,2.712 -2.019,5.964 -1.147,8.925c0.469,1.598 1.302,3.1 2.406,4.347c1.115,1.257 2.512,2.261 4.045,2.905c1.413,0.592 2.915,0.887 4.415,0.887c2.046,-0.001 4.083,-0.547 5.871,-1.625l-1.264,-2.103c-2.432,1.466 -5.448,1.68 -8.072,0.579c-2.414,-1.016 -4.301,-3.14 -5.047,-5.68c-0.68,-2.313 -0.351,-4.861 0.906,-6.988c1.254,-2.126 3.323,-3.645 5.672,-4.168c2.496,-0.553 5.272,0.04 7.425,1.592c1.948,1.402 3.146,3.403 3.378,5.629c0.151,1.437 0.019,2.571 -0.391,3.37c-0.868,1.69 -2.13,1.7 -2.63,1.627c-0.017,-0.003 -0.029,-0.005 -0.039,-0.007c-0.144,-0.223 -0.125,-1.049 -0.118,-1.407c0.002,-0.14 0.005,-0.274 0.005,-0.4l0,-6.717l-1.879,0c-0.24,-0.196 -0.493,-0.375 -0.76,-0.535c-1.024,-0.609 -2.209,-0.932 -3.432,-0.932c-1.743,0 -3.381,0.635 -4.61,1.788c-1.95,1.831 -2.555,4.837 -1.471,7.314c0.514,1.176 1.382,2.152 2.51,2.822c1.056,0.625 2.289,0.957 3.565,0.957c1.462,0 2.806,-0.404 3.888,-1.168c0.114,-0.081 0.228,-0.168 0.337,-0.254c0.385,0.528 0.948,0.863 1.646,0.966c0.968,0.144 1.936,-0.016 2.804,-0.46c0.987,-0.505 1.782,-1.337 2.365,-2.474c0.64,-1.246 0.854,-2.798 0.652,-4.745Zm-8.097,3.81c-0.053,0.077 -0.134,0.174 -0.178,0.228c-0.035,0.047 -0.069,0.088 -0.098,0.124c-0.232,0.299 -0.515,0.569 -0.846,0.802c-0.675,0.476 -1.508,0.717 -2.473,0.717c-1.737,0 -3.205,-0.884 -3.827,-2.31c-0.675,-1.54 -0.304,-3.408 0.901,-4.537c0.761,-0.717 1.831,-1.126 2.932,-1.126c0.781,0 1.532,0.202 2.174,0.586c0.409,0.244 0.771,0.56 1.073,0.943c0.03,0.036 0.065,0.079 0.103,0.125c0.057,0.068 0.169,0.206 0.239,0.305l0,4.143l0,0Z" style="fill:#1ec3ff;fill-rule:nonzero;"/><path d="M889.995,57.385c-0.305,-2.932 -1.864,-5.546 -4.387,-7.365c-2.711,-1.953 -6.22,-2.701 -9.389,-1.997c-3.012,0.669 -5.655,2.608 -7.255,5.316c-1.6,2.712 -2.018,5.964 -1.147,8.925c0.47,1.599 1.303,3.1 2.407,4.347c1.115,1.257 2.512,2.261 4.045,2.905c1.413,0.592 2.914,0.887 4.415,0.887c2.045,0 4.083,-0.547 5.871,-1.625l-1.264,-2.102c-2.433,1.465 -5.448,1.68 -8.072,0.579c-2.415,-1.017 -4.301,-3.14 -5.048,-5.681c-0.679,-2.313 -0.35,-4.861 0.907,-6.988c1.254,-2.126 3.322,-3.645 5.672,-4.168c2.496,-0.553 5.272,0.04 7.424,1.592c1.948,1.402 3.147,3.403 3.379,5.629c0.151,1.438 0.018,2.571 -0.391,3.371c-0.869,1.69 -2.13,1.7 -2.63,1.626c-0.017,-0.002 -0.029,-0.005 -0.039,-0.007c-0.144,-0.222 -0.126,-1.048 -0.119,-1.407c0.003,-0.14 0.005,-0.274 0.005,-0.4l0,-6.717l-1.879,0c-0.239,-0.196 -0.493,-0.374 -0.759,-0.535c-1.024,-0.608 -2.21,-0.932 -3.432,-0.932c-1.743,0 -3.382,0.635 -4.61,1.788c-1.95,1.831 -2.555,4.837 -1.472,7.314c0.515,1.177 1.383,2.152 2.511,2.822c1.055,0.625 2.288,0.957 3.564,0.957c1.463,0 2.807,-0.404 3.888,-1.168c0.115,-0.081 0.229,-0.168 0.338,-0.254c0.385,0.528 0.947,0.863 1.646,0.966c0.968,0.144 1.936,-0.016 2.804,-0.46c0.986,-0.504 1.781,-1.337 2.364,-2.474c0.641,-1.246 0.855,-2.798 0.653,-4.744Zm-8.097,3.809c-0.054,0.077 -0.134,0.175 -0.178,0.228c-0.036,0.047 -0.069,0.088 -0.098,0.125c-0.232,0.298 -0.516,0.568 -0.846,0.801c-0.675,0.476 -1.508,0.717 -2.473,0.717c-1.737,0 -3.205,-0.884 -3.828,-2.31c-0.674,-1.54 -0.304,-3.408 0.902,-4.537c0.761,-0.717 1.83,-1.126 2.932,-1.126c0.781,0 1.532,0.202 2.174,0.587c0.409,0.244 0.771,0.559 1.073,0.942c0.029,0.037 0.064,0.079 0.103,0.125c0.057,0.068 0.168,0.206 0.239,0.306l0,4.142l0,0Z" style="fill:#1ec3ff;fill-rule:nonzero;"/><path d="M690.795,310.984c-0.305,-2.932 -1.864,-5.546 -4.387,-7.364c-2.711,-1.953 -6.22,-2.701 -9.388,-1.997c-3.013,0.669 -5.656,2.608 -7.255,5.316c-1.601,2.712 -2.019,5.964 -1.148,8.925c0.47,1.598 1.303,3.1 2.407,4.347c1.115,1.257 2.512,2.261 4.045,2.905c1.413,0.592 2.915,0.887 4.415,0.887c2.045,-0.001 4.083,-0.547 5.871,-1.625l-1.264,-2.103c-2.433,1.466 -5.448,1.68 -8.072,0.579c-2.414,-1.016 -4.301,-3.14 -5.048,-5.68c-0.679,-2.313 -0.35,-4.861 0.907,-6.988c1.254,-2.126 3.322,-3.645 5.672,-4.168c2.496,-0.553 5.272,0.04 7.424,1.592c1.949,1.402 3.147,3.403 3.379,5.629c0.151,1.437 0.019,2.571 -0.391,3.37c-0.869,1.69 -2.13,1.7 -2.63,1.627c-0.017,-0.003 -0.029,-0.005 -0.039,-0.007c-0.144,-0.223 -0.125,-1.049 -0.118,-1.407c0.002,-0.14 0.005,-0.274 0.005,-0.4l0,-6.717l-1.88,0c-0.239,-0.196 -0.493,-0.375 -0.759,-0.535c-1.024,-0.609 -2.21,-0.932 -3.432,-0.932c-1.743,0 -3.382,0.635 -4.61,1.788c-1.95,1.831 -2.555,4.837 -1.471,7.314c0.514,1.176 1.382,2.152 2.51,2.822c1.055,0.625 2.289,0.957 3.565,0.957c1.462,0 2.806,-0.404 3.887,-1.168c0.115,-0.081 0.229,-0.168 0.338,-0.254c0.385,0.528 0.947,0.863 1.646,0.966c0.968,0.144 1.936,-0.016 2.804,-0.46c0.987,-0.505 1.782,-1.337 2.364,-2.474c0.641,-1.246 0.855,-2.798 0.653,-4.745Zm-8.097,3.81c-0.054,0.077 -0.134,0.174 -0.178,0.228c-0.036,0.047 -0.069,0.088 -0.098,0.124c-0.232,0.299 -0.516,0.569 -0.846,0.802c-0.675,0.476 -1.508,0.717 -2.473,0.717c-1.737,0 -3.205,-0.884 -3.827,-2.31c-0.675,-1.54 -0.304,-3.408 0.901,-4.537c0.761,-0.717 1.83,-1.126 2.932,-1.126c0.781,0 1.532,0.202 2.174,0.586c0.409,0.244 0.771,0.56 1.073,0.943c0.03,0.036 0.065,0.079 0.103,0.125c0.057,0.068 0.169,0.206 0.239,0.305l0,4.143l0,0Z" style="fill:#1ec3ff;fill-rule:nonzero;"/><path d="M466.944,618.597c0.003,-0.019 0.009,-0.039 0.01,-0.058c0.006,-0.059 0,-0.119 -0.008,-0.179c-0.001,-0.016 0.001,-0.03 -0.001,-0.045c-0.015,-0.08 -0.041,-0.158 -0.08,-0.232c-0.007,-0.013 -0.016,-0.025 -0.023,-0.038c-0.001,-0.001 -0.001,-0.004 -0.002,-0.006c-0.001,-0.002 -0.003,-0.003 -0.004,-0.005c-0.006,-0.009 -0.011,-0.019 -0.016,-0.027c-0.05,-0.073 -0.11,-0.133 -0.178,-0.184c-0.015,-0.011 -0.032,-0.018 -0.048,-0.028c-0.06,-0.039 -0.122,-0.071 -0.19,-0.093c-0.029,-0.01 -0.059,-0.015 -0.09,-0.02c-0.058,-0.012 -0.117,-0.018 -0.178,-0.016c-0.032,0.001 -0.062,0.002 -0.094,0.007c-0.021,0.003 -0.041,0 -0.062,0.005l-46.55,9.62c-0.331,0.069 -0.584,0.338 -0.632,0.673c-0.047,0.335 0.121,0.664 0.42,0.822l13.338,7.035l2.339,12.981c-0.002,0.01 0.001,0.02 0,0.03c-0.008,0.064 -0.009,0.127 -0.001,0.19c0.004,0.032 0.008,0.063 0.016,0.094c0.019,0.076 0.048,0.147 0.088,0.215c0.009,0.013 0.009,0.028 0.017,0.041c0.003,0.004 0.007,0.007 0.01,0.01c0.01,0.015 0.025,0.027 0.037,0.043c0.038,0.046 0.077,0.089 0.122,0.125c0.007,0.005 0.012,0.014 0.02,0.02c0.012,0.009 0.025,0.011 0.037,0.019c0.049,0.032 0.1,0.059 0.154,0.079c0.021,0.008 0.041,0.018 0.064,0.025c0.072,0.02 0.147,0.035 0.222,0.035c0.001,0 0.002,0 0.002,0c0.004,0 0.007,-0.002 0.01,-0.002c0.014,0.001 0.027,0.002 0.041,0.002c0.222,0 0.423,-0.1 0.571,-0.253l8.885,-5.923l9.302,6.047c0.132,0.085 0.284,0.129 0.437,0.129c0.084,0 0.17,-0.014 0.253,-0.041c0.231,-0.077 0.415,-0.255 0.499,-0.484l11.224,-30.466c0.011,-0.027 0.02,-0.055 0.027,-0.084c0.003,-0.012 0.004,-0.024 0.006,-0.035c0.003,-0.009 0.004,-0.018 0.006,-0.028Zm-9.288,5.119l-19.241,14.147c-0.031,0.023 -0.056,0.052 -0.084,0.079c-0.01,0.01 -0.02,0.018 -0.029,0.028c-0.017,0.019 -0.032,0.037 -0.048,0.057c-0.014,0.019 -0.025,0.04 -0.038,0.06c-0.03,0.048 -0.055,0.097 -0.074,0.15c-0.004,0.011 -0.01,0.019 -0.014,0.029c0,0.003 -0.004,0.005 -0.004,0.008l-2.206,7.167l-1.747,-9.696l23.485,-12.029Zm-20.495,23.268l2.186,-7.221l3.404,2.213l0.973,0.633l-3.307,2.204l-3.256,2.171Zm23.366,-26.541l-27.245,13.955l-11.339,-5.981l38.584,-7.974Zm-6.003,27.271l-12.354,-8.029l-1.871,-1.217l24.182,-17.78l-9.957,27.026Z" style="fill:#1ec3ff;fill-rule:nonzero;"/><path d="M1433.08,147.456c0.004,-0.024 0.011,-0.049 0.014,-0.074c0.007,-0.077 -0.002,-0.155 -0.011,-0.233c-0.002,-0.019 0.001,-0.038 -0.002,-0.058c-0.019,-0.102 -0.053,-0.203 -0.104,-0.3c-0.008,-0.016 -0.019,-0.032 -0.029,-0.048c-0.002,-0.002 -0.002,-0.005 -0.003,-0.009c-0.001,-0.002 -0.004,-0.003 -0.005,-0.006c-0.007,-0.011 -0.013,-0.024 -0.021,-0.034c-0.064,-0.094 -0.142,-0.172 -0.229,-0.239c-0.02,-0.014 -0.043,-0.022 -0.063,-0.036c-0.077,-0.051 -0.158,-0.092 -0.245,-0.12c-0.038,-0.013 -0.077,-0.019 -0.116,-0.026c-0.076,-0.016 -0.152,-0.023 -0.231,-0.021c-0.041,0.001 -0.081,0.003 -0.122,0.009c-0.027,0.005 -0.053,0 -0.08,0.007l-60.215,12.444c-0.428,0.089 -0.756,0.437 -0.817,0.87c-0.062,0.434 0.155,0.859 0.542,1.064l17.254,9.1l3.026,16.792c-0.002,0.013 0.001,0.026 0,0.039c-0.011,0.083 -0.012,0.164 -0.001,0.246c0.005,0.041 0.01,0.08 0.02,0.121c0.024,0.098 0.063,0.191 0.114,0.278c0.011,0.016 0.011,0.036 0.022,0.053c0.003,0.005 0.009,0.009 0.013,0.013c0.013,0.02 0.032,0.036 0.047,0.055c0.049,0.06 0.1,0.115 0.158,0.162c0.009,0.007 0.016,0.019 0.026,0.026c0.016,0.011 0.033,0.015 0.049,0.025c0.063,0.041 0.128,0.076 0.198,0.103c0.028,0.01 0.054,0.022 0.083,0.031c0.093,0.027 0.19,0.045 0.287,0.045c0.001,0 0.002,0 0.003,0c0.004,0 0.009,-0.002 0.013,-0.002c0.017,0.001 0.035,0.002 0.053,0.002c0.287,0 0.546,-0.128 0.738,-0.326l11.493,-7.662l12.034,7.821c0.17,0.11 0.367,0.167 0.565,0.167c0.109,0 0.22,-0.017 0.327,-0.053c0.299,-0.099 0.537,-0.329 0.646,-0.626l14.519,-39.409c0.014,-0.035 0.025,-0.071 0.034,-0.109c0.005,-0.015 0.006,-0.031 0.009,-0.045c0.003,-0.012 0.005,-0.024 0.007,-0.037Zm-12.015,6.622l-24.889,18.3c-0.041,0.03 -0.073,0.068 -0.108,0.103c-0.014,0.012 -0.027,0.023 -0.039,0.036c-0.021,0.024 -0.041,0.048 -0.061,0.074c-0.019,0.025 -0.033,0.051 -0.05,0.077c-0.038,0.062 -0.07,0.126 -0.095,0.195c-0.005,0.013 -0.014,0.023 -0.018,0.037c-0.001,0.004 -0.005,0.006 -0.006,0.01l-2.853,9.271l-2.26,-12.543l30.379,-15.56Zm-26.511,30.099l2.828,-9.34l4.403,2.862l1.259,0.818l-4.278,2.852l-4.212,2.808Zm30.225,-34.333l-35.243,18.052l-14.668,-7.737l49.911,-10.315Zm-7.765,35.277l-15.98,-10.386l-2.421,-1.574l31.281,-23l-12.88,34.96Z" style="fill:#1ec3ff;fill-rule:nonzero;"/><path d="M247.944,86.598c0.003,-0.02 0.009,-0.039 0.011,-0.058c0.005,-0.06 -0.001,-0.12 -0.008,-0.18c-0.002,-0.015 0,-0.03 -0.002,-0.045c-0.015,-0.079 -0.041,-0.157 -0.08,-0.232c-0.007,-0.012 -0.016,-0.024 -0.023,-0.037c-0.001,-0.002 -0.001,-0.004 -0.002,-0.007c-0.001,-0.001 -0.003,-0.002 -0.004,-0.004c-0.006,-0.009 -0.011,-0.019 -0.016,-0.027c-0.05,-0.073 -0.11,-0.133 -0.177,-0.184c-0.016,-0.012 -0.033,-0.018 -0.049,-0.028c-0.06,-0.04 -0.122,-0.072 -0.19,-0.093c-0.029,-0.01 -0.059,-0.015 -0.089,-0.02c-0.059,-0.013 -0.117,-0.018 -0.178,-0.017c-0.033,0.001 -0.063,0.003 -0.095,0.008c-0.021,0.003 -0.041,0 -0.062,0.005l-46.55,9.62c-0.331,0.069 -0.584,0.337 -0.631,0.672c-0.048,0.336 0.12,0.664 0.419,0.822l13.338,7.036l2.339,12.981c-0.001,0.01 0.001,0.02 0,0.03c-0.008,0.064 -0.009,0.126 -0.001,0.19c0.004,0.032 0.008,0.062 0.016,0.094c0.019,0.076 0.049,0.147 0.089,0.215c0.008,0.012 0.008,0.028 0.016,0.04c0.003,0.004 0.007,0.008 0.01,0.011c0.011,0.015 0.025,0.027 0.037,0.042c0.038,0.047 0.077,0.089 0.122,0.125c0.007,0.006 0.012,0.015 0.02,0.02c0.012,0.009 0.026,0.012 0.038,0.02c0.049,0.032 0.099,0.058 0.153,0.079c0.021,0.008 0.041,0.018 0.064,0.024c0.072,0.021 0.147,0.035 0.222,0.035c0.001,0 0.002,0 0.002,0c0.004,0 0.007,-0.001 0.01,-0.001c0.014,0.001 0.027,0.001 0.041,0.001c0.222,0 0.423,-0.099 0.571,-0.252l8.885,-5.923l9.302,6.046c0.132,0.085 0.284,0.129 0.437,0.129c0.085,0 0.17,-0.013 0.253,-0.04c0.231,-0.077 0.415,-0.255 0.5,-0.485l11.224,-30.465c0.01,-0.027 0.019,-0.055 0.026,-0.084c0.003,-0.012 0.004,-0.024 0.007,-0.035c0.002,-0.009 0.004,-0.019 0.005,-0.028Zm-9.288,5.118l-19.241,14.147c-0.031,0.024 -0.056,0.053 -0.083,0.08c-0.011,0.009 -0.021,0.018 -0.03,0.028c-0.017,0.018 -0.032,0.037 -0.047,0.057c-0.015,0.019 -0.026,0.039 -0.039,0.059c-0.03,0.048 -0.055,0.098 -0.074,0.151c-0.004,0.01 -0.01,0.018 -0.013,0.029c-0.001,0.003 -0.004,0.005 -0.005,0.008l-2.206,7.167l-1.747,-9.696l23.485,-12.03Zm-20.495,23.269l2.187,-7.221l3.403,2.213l0.974,0.632l-3.308,2.205l-3.256,2.171Zm23.366,-26.541l-27.245,13.954l-11.339,-5.981l38.584,-7.973Zm-6.003,27.271l-12.354,-8.03l-1.871,-1.216l24.182,-17.781l-9.957,27.027Z" style="fill:#1ec3ff;fill-rule:nonzero;"/><text x="394.777px" y="292.503px" style="font-family:'ArialMT', 'Arial', sans-serif;font-size:31.736px;fill:#1ec3ff;stroke:#fff;stroke-width:1px;stroke-linecap:butt;stroke-linejoin:round;stroke-miterlimit:1.41421;">+</text><path d="M1033.26,278.436c2.032,-2.991 3.047,-6.202 3.047,-9.635c0,-3.52 -1.073,-6.81 -3.218,-9.871c-2.146,-3.061 -5.065,-5.608 -8.755,-7.639c0.657,2.145 0.986,4.32 0.986,6.523c0,3.834 -0.957,7.467 -2.875,10.901c-1.917,3.433 -4.664,6.465 -8.24,9.098c-3.319,2.403 -7.096,4.248 -11.331,5.536c-4.233,1.287 -8.654,1.932 -13.26,1.932c-0.859,0 -2.118,-0.057 -3.777,-0.171c5.751,3.776 12.503,5.664 20.257,5.664c2.46,0 4.978,-0.229 7.553,-0.687c3.548,2.519 7.525,4.349 11.931,5.494c1.03,0.259 2.26,0.487 3.691,0.687c0.343,0.029 0.659,-0.072 0.945,-0.3c0.286,-0.229 0.472,-0.543 0.557,-0.943c-0.013,-0.172 0,-0.266 0.043,-0.28c0.043,-0.014 0.035,-0.107 -0.021,-0.278c-0.057,-0.172 -0.086,-0.258 -0.086,-0.258l-0.107,-0.214c-0.029,-0.057 -0.078,-0.136 -0.15,-0.236c-0.071,-0.099 -0.128,-0.171 -0.172,-0.214c-0.042,-0.043 -0.106,-0.115 -0.192,-0.214c-0.085,-0.1 -0.143,-0.165 -0.172,-0.193c-0.143,-0.172 -0.472,-0.53 -0.987,-1.073c-0.515,-0.543 -0.886,-0.965 -1.115,-1.266c-0.229,-0.3 -0.551,-0.715 -0.966,-1.245c-0.414,-0.529 -0.773,-1.079 -1.073,-1.652c-0.3,-0.572 -0.594,-1.202 -0.88,-1.888c3.547,-2.062 6.337,-4.586 8.367,-7.578Zm-28.474,-1.587c4.649,-1.96 8.319,-4.627 11.008,-8.004c2.689,-3.376 4.034,-7.052 4.034,-11.029c0,-3.977 -1.345,-7.653 -4.034,-11.03c-2.689,-3.376 -6.359,-6.044 -11.008,-8.004c-4.649,-1.96 -9.706,-2.94 -15.171,-2.94c-5.465,0 -10.522,0.98 -15.172,2.94c-4.649,1.96 -8.318,4.628 -11.007,8.004c-2.69,3.377 -4.035,7.053 -4.035,11.03c0,3.404 1.017,6.61 3.048,9.614c2.031,3.004 4.821,5.537 8.368,7.596c-0.285,0.687 -0.579,1.316 -0.879,1.889c-0.301,0.572 -0.658,1.123 -1.073,1.652c-0.415,0.53 -0.737,0.945 -0.966,1.244c-0.229,0.301 -0.601,0.723 -1.116,1.266c-0.515,0.544 -0.844,0.901 -0.987,1.073c0,-0.029 -0.058,0.036 -0.172,0.193c-0.114,0.158 -0.179,0.229 -0.193,0.215c-0.014,-0.015 -0.072,0.056 -0.172,0.214c-0.1,0.157 -0.15,0.236 -0.15,0.236l-0.108,0.214c-0.042,0.085 -0.071,0.171 -0.085,0.257c-0.015,0.085 -0.022,0.179 -0.022,0.279c0,0.1 0.014,0.192 0.043,0.279c0.058,0.371 0.222,0.671 0.494,0.901c0.272,0.228 0.564,0.342 0.88,0.342l0.129,0c1.43,-0.2 2.66,-0.429 3.69,-0.686c4.406,-1.145 8.384,-2.976 11.931,-5.494c2.575,0.458 5.093,0.687 7.554,0.687c5.464,0.002 10.522,-0.978 15.171,-2.938Zm-24.012,-3.583l-1.888,1.33c-0.802,0.543 -1.688,1.102 -2.661,1.675l1.502,-3.606l-4.163,-2.403c-2.747,-1.602 -4.878,-3.49 -6.395,-5.665c-1.516,-2.174 -2.274,-4.435 -2.274,-6.781c0,-2.919 1.123,-5.651 3.369,-8.197c2.246,-2.547 5.272,-4.564 9.077,-6.052c3.805,-1.488 7.896,-2.232 12.274,-2.232c4.377,0 8.469,0.744 12.274,2.232c3.805,1.488 6.831,3.505 9.078,6.052c2.245,2.546 3.368,5.278 3.368,8.197c0,2.918 -1.123,5.651 -3.368,8.197c-2.247,2.547 -5.273,4.564 -9.078,6.051c-3.805,1.488 -7.896,2.232 -12.274,2.232c-2.146,0 -4.334,-0.201 -6.566,-0.601l-2.275,-0.429Z" style="fill:#1ec3ff;"/><path d="M221.333,637.068c1.454,0.02 2.83,0.896 3.418,2.31l4.78,11.536c0.785,1.891 -0.095,4.092 -2.024,4.894l-3.66,1.516c0.08,1.55 -0.812,3.039 -2.305,3.659l-4.615,1.912c-1.907,0.79 -4.103,-0.118 -4.893,-2.026l-6.693,-16.147c-0.791,-1.908 0.118,-4.104 2.027,-4.895l4.612,-1.912c0.486,-0.201 0.99,-0.291 1.486,-0.284c-0.511,-1.074 -1.09,-2.083 -1.735,-3.022c-1.365,0.498 -2.922,0.169 -3.955,-0.935c-7.246,-7.748 -20.261,-8.587 -29.011,-1.87c-8.75,6.717 -11.303,19.507 -5.69,28.509c0.799,1.283 0.715,2.873 -0.119,4.062c0.741,0.866 1.566,1.687 2.471,2.457c0.121,-0.48 0.339,-0.944 0.659,-1.362l3.039,-3.962c1.256,-1.638 3.612,-1.949 5.251,-0.693l13.87,10.638c1.638,1.257 1.949,3.613 0.692,5.251l-3.039,3.964c-0.989,1.287 -2.659,1.758 -4.13,1.281l-2.41,3.143c-1.269,1.652 -3.621,1.945 -5.253,0.691l-9.907,-7.597c-1.213,-0.933 -1.705,-2.486 -1.348,-3.898c-2.633,-1.884 -4.772,-3.915 -6.515,-6.185c-10.52,-13.704 -7.315,-33.734 6.347,-44.222c6.669,-5.12 15.073,-7.364 23.35,-6.419c8.494,0.97 15.955,5.131 21.01,11.716c1.742,2.269 3.151,4.86 4.29,7.89Zm-43.266,29.922l3.039,-3.962c0.419,-0.547 1.204,-0.65 1.751,-0.232l13.869,10.639c0.546,0.419 0.649,1.203 0.23,1.75l-0.76,0.991l-6.934,-5.32c-0.547,-0.42 -1.33,-0.317 -1.75,0.23c-0.42,0.548 -0.317,1.331 0.23,1.751l6.936,5.32l-0.76,0.991c-0.419,0.545 -1.205,0.649 -1.751,0.23c-0.001,0 -0.001,-0.001 -0.001,-0.001l-13.869,-10.636c-0.546,-0.419 -0.65,-1.204 -0.23,-1.751Zm43.193,-9.946l-6.692,-16.148c-0.264,-0.636 -0.996,-0.938 -1.632,-0.674l-4.613,1.912c-0.103,0.043 -0.198,0.098 -0.282,0.162c-0.438,0.336 -0.614,0.937 -0.394,1.469l6.693,16.148c0.263,0.635 0.995,0.938 1.631,0.674l1.154,-0.477l-3.347,-8.074c-0.264,-0.637 0.038,-1.367 0.675,-1.632c0.637,-0.264 1.368,0.039 1.632,0.676l3.347,8.074l1.154,-0.478c0.634,-0.264 0.937,-0.996 0.673,-1.632l0.001,0Zm1.184,-16.709l4.78,11.535c0.266,0.639 -0.041,1.368 -0.674,1.631l-3.461,1.434c-6.167,-14.982 -5.423,-12.917 -5.688,-13.861c3.634,-1.505 3.42,-1.42 3.499,-1.445c0.616,-0.206 1.295,0.105 1.544,0.706Zm-32.788,40.264l-2.278,2.972c-0.42,0.547 -1.202,0.653 -1.752,0.231l-9.906,-7.597c-0.517,-0.398 -0.643,-1.133 -0.279,-1.683c0.016,-0.026 0.035,-0.051 0.048,-0.068l2.247,-2.93c0.842,0.499 -0.954,-0.749 11.92,9.075Zm-4.126,-11.031c-0.419,0.547 -1.204,0.65 -1.751,0.231c-0.547,-0.42 -0.65,-1.204 -0.23,-1.751c0.419,-0.547 1.202,-0.651 1.75,-0.231c0.547,0.419 0.651,1.203 0.231,1.751Zm27.011,-23.776c0.638,-0.265 1.368,0.037 1.633,0.675c0.263,0.636 -0.039,1.367 -0.676,1.631c-0.638,0.264 -1.368,-0.039 -1.632,-0.676c-0.264,-0.637 0.038,-1.367 0.675,-1.63Zm-43.438,21.761l1.983,-1.522c1.298,1.512 2.822,2.894 4.551,4.126l-1.512,1.972c-1.967,-1.426 -3.623,-2.936 -5.022,-4.576Zm46.693,-35.844c1.223,1.774 2.254,3.765 3.123,6.033l-2.295,0.952c-0.745,-1.99 -1.686,-3.819 -2.811,-5.463l1.983,-1.522Zm-1.519,-1.982c-9.695,-11.485 -27.745,-13.33 -40.074,-3.865c-12.329,9.464 -15.211,27.377 -6.622,39.712l3.054,-2.345c0.499,-0.383 0.639,-1.083 0.32,-1.595c-6.427,-10.309 -3.393,-24.378 6.289,-31.811c9.677,-7.428 24.054,-6.731 32.356,2.145c0.412,0.441 1.125,0.486 1.623,0.104l3.054,-2.345Z" style="fill:#1ec3ff;"/><path d="M1607.58,285.818c1.453,0.02 2.83,0.897 3.418,2.31l4.78,11.536c0.785,1.891 -0.095,4.092 -2.024,4.894l-3.66,1.516c0.08,1.551 -0.812,3.039 -2.305,3.659l-4.615,1.912c-1.907,0.791 -4.103,-0.118 -4.893,-2.025l-6.693,-16.148c-0.791,-1.908 0.118,-4.103 2.027,-4.894l4.612,-1.912c0.486,-0.201 0.99,-0.292 1.486,-0.285c-0.511,-1.073 -1.09,-2.082 -1.735,-3.021c-1.365,0.498 -2.922,0.169 -3.955,-0.935c-7.246,-7.749 -20.261,-8.587 -29.011,-1.87c-8.75,6.717 -11.303,19.506 -5.69,28.509c0.799,1.283 0.715,2.872 -0.119,4.062c0.741,0.866 1.566,1.686 2.471,2.456c0.121,-0.48 0.339,-0.944 0.659,-1.361l3.039,-3.962c1.255,-1.639 3.612,-1.95 5.251,-0.693l13.87,10.638c1.638,1.256 1.949,3.612 0.692,5.251l-3.039,3.964c-0.989,1.287 -2.659,1.757 -4.13,1.281l-2.41,3.143c-1.269,1.651 -3.621,1.945 -5.253,0.691l-9.907,-7.597c-1.213,-0.933 -1.705,-2.487 -1.348,-3.899c-2.633,-1.884 -4.772,-3.914 -6.515,-6.184c-10.52,-13.705 -7.315,-33.734 6.347,-44.222c6.669,-5.12 15.073,-7.364 23.35,-6.419c8.494,0.97 15.955,5.13 21.01,11.715c1.742,2.27 3.151,4.86 4.29,7.89Zm-43.266,29.923l3.039,-3.963c0.419,-0.547 1.204,-0.65 1.751,-0.231l13.869,10.638c0.546,0.419 0.649,1.204 0.23,1.75l-0.76,0.991l-6.934,-5.32c-0.547,-0.419 -1.33,-0.316 -1.75,0.231c-0.42,0.547 -0.317,1.331 0.23,1.751l6.935,5.32l-0.759,0.99c-0.419,0.546 -1.205,0.649 -1.751,0.231c-0.001,-0.001 -0.001,-0.001 -0.001,-0.001l-13.869,-10.637c-0.546,-0.418 -0.65,-1.204 -0.23,-1.75Zm43.193,-9.947l-6.692,-16.148c-0.264,-0.635 -0.996,-0.937 -1.632,-0.674l-4.613,1.912c-0.103,0.043 -0.198,0.098 -0.282,0.163c-0.438,0.336 -0.614,0.936 -0.394,1.469l6.693,16.147c0.263,0.636 0.995,0.938 1.631,0.675l1.154,-0.478l-3.347,-8.074c-0.264,-0.636 0.038,-1.367 0.675,-1.631c0.637,-0.264 1.368,0.038 1.632,0.675l3.346,8.074l1.155,-0.478c0.634,-0.263 0.937,-0.995 0.673,-1.631l0.001,-0.001Zm1.184,-16.709l4.78,11.536c0.266,0.639 -0.041,1.368 -0.674,1.631l-3.461,1.433c-6.167,-14.981 -5.423,-12.917 -5.688,-13.86c3.634,-1.505 3.42,-1.42 3.499,-1.446c0.616,-0.206 1.295,0.105 1.544,0.706Zm-32.788,40.265l-2.278,2.972c-0.42,0.546 -1.202,0.652 -1.752,0.231l-9.906,-7.597c-0.517,-0.398 -0.643,-1.133 -0.279,-1.684c0.016,-0.025 0.035,-0.051 0.048,-0.068l2.247,-2.93c0.842,0.499 -0.954,-0.748 11.92,9.076Zm-4.126,-11.031c-0.419,0.546 -1.204,0.65 -1.751,0.231c-0.547,-0.42 -0.65,-1.204 -0.23,-1.752c0.419,-0.547 1.202,-0.65 1.75,-0.23c0.547,0.419 0.651,1.203 0.231,1.751Zm27.011,-23.777c0.638,-0.264 1.368,0.038 1.633,0.675c0.263,0.637 -0.039,1.368 -0.676,1.632c-0.638,0.264 -1.368,-0.039 -1.632,-0.676c-0.264,-0.638 0.038,-1.367 0.675,-1.631Zm-43.438,21.761l1.983,-1.522c1.298,1.512 2.822,2.894 4.551,4.127l-1.512,1.972c-1.967,-1.426 -3.623,-2.936 -5.022,-4.577Zm46.693,-35.844c1.223,1.775 2.254,3.765 3.123,6.034l-2.295,0.951c-0.745,-1.989 -1.686,-3.818 -2.811,-5.463l1.983,-1.522Zm-1.519,-1.982c-9.695,-11.485 -27.745,-13.329 -40.074,-3.865c-12.329,9.465 -15.211,27.378 -6.622,39.712l3.054,-2.345c0.499,-0.382 0.639,-1.083 0.32,-1.594c-6.427,-10.31 -3.393,-24.379 6.289,-31.811c9.677,-7.429 24.054,-6.732 32.356,2.144c0.412,0.441 1.125,0.486 1.623,0.104l3.054,-2.345Z" style="fill:#1ec3ff;"/><path d="M1330.74,679.954c0.832,1.191 0.924,2.82 0.12,4.123l-6.573,10.616c-1.077,1.742 -3.378,2.313 -5.155,1.215l-3.369,-2.086c-1.211,0.971 -2.94,1.116 -4.315,0.266l-4.247,-2.63c-1.756,-1.087 -2.3,-3.4 -1.213,-5.155l9.2,-14.863c1.087,-1.756 3.4,-2.3 5.157,-1.212l4.245,2.628c0.447,0.277 0.815,0.633 1.098,1.04c0.574,-1.042 1.055,-2.101 1.441,-3.173c-1.202,-0.817 -1.844,-2.274 -1.55,-3.757c2.058,-10.407 -4.861,-21.462 -15.423,-24.643c-10.563,-3.181 -22.436,2.215 -26.467,12.028c-0.574,1.398 -1.914,2.258 -3.367,2.276c-0.27,1.107 -0.454,2.255 -0.551,3.44c0.46,-0.182 0.964,-0.276 1.49,-0.26l4.991,0.153c2.063,0.063 3.692,1.794 3.629,3.859l-0.537,17.471c-0.063,2.064 -1.794,3.692 -3.858,3.628l-4.993,-0.152c-1.622,-0.051 -2.98,-1.133 -3.452,-2.605l-3.958,-0.122c-2.082,-0.065 -3.693,-1.802 -3.629,-3.86l0.383,-12.478c0.049,-1.53 1.022,-2.836 2.377,-3.371c-0.008,-3.238 0.391,-6.16 1.217,-8.9c4.982,-16.543 23.113,-25.638 39.605,-20.671c8.051,2.425 14.78,7.936 18.846,15.208c4.172,7.461 5.152,15.948 2.758,23.896c-0.825,2.74 -2.106,5.396 -3.9,8.091Zm-49.556,-17.652l4.991,0.154c0.689,0.02 1.231,0.598 1.211,1.286l-0.538,17.471c-0.021,0.688 -0.598,1.23 -1.286,1.209l-1.248,-0.038l0.269,-8.736c0.022,-0.689 -0.52,-1.265 -1.209,-1.286c-0.69,-0.021 -1.266,0.52 -1.287,1.209l-0.269,8.737l-1.247,-0.038c-0.688,-0.022 -1.231,-0.599 -1.21,-1.287c0,-0.001 0,-0.001 0,-0.001l0.536,-17.471c0.021,-0.687 0.599,-1.23 1.287,-1.209Zm33.296,29.257l9.202,-14.862c0.362,-0.585 0.18,-1.356 -0.406,-1.719l-4.246,-2.628c-0.095,-0.058 -0.195,-0.103 -0.297,-0.134c-0.528,-0.159 -1.118,0.048 -1.422,0.538l-9.2,14.862c-0.362,0.585 -0.181,1.356 0.405,1.719l1.061,0.657l4.6,-7.432c0.362,-0.586 1.132,-0.767 1.718,-0.404c0.587,0.363 0.768,1.132 0.405,1.719l-4.6,7.432l1.062,0.657c0.584,0.361 1.356,0.18 1.718,-0.405l0,0Zm14.256,-8.796l-6.573,10.616c-0.364,0.589 -1.134,0.766 -1.718,0.405l-3.184,-1.972c8.561,-13.754 7.319,-11.945 7.93,-12.711c3.344,2.071 3.15,1.947 3.217,1.996c0.527,0.38 0.67,1.113 0.328,1.666Zm-51.833,-3.105l-3.743,-0.115c-0.688,-0.021 -1.231,-0.594 -1.21,-1.287l0.383,-12.478c0.021,-0.652 0.545,-1.183 1.204,-1.209c0.03,-0.002 0.062,-0.002 0.083,-0.001l3.69,0.113c0.087,0.975 0.051,-1.211 -0.407,14.977Zm6.546,-9.792c-0.688,-0.02 -1.231,-0.597 -1.21,-1.286c0.022,-0.69 0.598,-1.231 1.288,-1.209c0.689,0.021 1.23,0.596 1.208,1.286c-0.02,0.688 -0.596,1.231 -1.286,1.209Zm35.075,8.045c0.587,0.363 0.768,1.132 0.405,1.719c-0.363,0.585 -1.133,0.767 -1.719,0.404c-0.587,-0.363 -0.767,-1.134 -0.404,-1.719c0.363,-0.587 1.132,-0.768 1.718,-0.404Zm-43.031,-22.557l2.393,0.721c-0.469,1.937 -0.701,3.981 -0.692,6.104l-2.483,-0.075c0.009,-2.43 0.267,-4.656 0.782,-6.75Zm56.364,16.975c-0.727,2.029 -1.74,4.028 -3.074,6.059l-2.113,-1.308c1.18,-1.766 2.116,-3.598 2.794,-5.472l2.393,0.721Zm0.722,-2.39c3.662,-14.578 -5.381,-30.307 -20.263,-34.789c-14.883,-4.482 -31.107,3.638 -36.105,17.813l3.687,1.11c0.602,0.182 1.252,-0.114 1.481,-0.671c4.617,-11.238 17.809,-16.99 29.497,-13.47c11.681,3.518 19.51,15.595 17.152,27.518c-0.117,0.592 0.263,1.197 0.864,1.378l3.687,1.111Z" style="fill:#1ec3ff;"/><path d="M1844.51,478.921c2.171,0.433 3.586,2.552 3.154,4.723l-3.825,19.204c-0.433,2.172 -2.551,3.587 -4.723,3.155l-1.134,-0.226l-1.427,7.164c-0.133,0.667 -0.655,1.189 -1.322,1.321c-0.221,0.044 -0.444,0.043 -0.656,0c-0.43,-0.085 -0.818,-0.337 -1.071,-0.716l-6.672,-9.989l-20.562,-4.096c-2.172,-0.432 -3.587,-2.551 -3.154,-4.723l3.824,-19.204c0.433,-2.171 2.552,-3.586 4.724,-3.154l32.844,6.541Zm-3.971,23.27l3.825,-19.204c0.07,-0.352 -0.16,-0.695 -0.512,-0.765l-32.844,-6.542c-0.352,-0.07 -0.695,0.159 -0.765,0.512l-3.825,19.203c-0.07,0.352 0.159,0.696 0.511,0.766l21.247,4.232c0.416,0.083 0.765,0.314 1.004,0.626c0.018,0.022 0.036,0.047 0.055,0.074c0.005,0.008 0.011,0.015 0.016,0.023l4.797,7.184c0,0 0.983,-4.921 0.995,-4.956c0.235,-0.839 1.078,-1.369 1.947,-1.196l2.783,0.555c0.352,0.07 0.696,-0.16 0.766,-0.512Zm-7.157,-46.469c2.171,0.433 3.586,2.551 3.154,4.723l-2.151,10.8c-0.182,0.911 -1.068,1.503 -1.979,1.322c-0.911,-0.182 -1.503,-1.068 -1.321,-1.979l2.151,-10.8c0.07,-0.352 -0.159,-0.696 -0.512,-0.766l-46.921,-9.345c-0.352,-0.07 -0.695,0.159 -0.766,0.512l-5.606,28.15c-0.07,0.352 0.159,0.695 0.511,0.765l4.692,0.935c0.862,0.171 1.437,0.973 1.343,1.83c-0.003,0.044 -1.643,8.295 -1.643,8.295l11.167,-7.458c0.353,-0.235 0.761,-0.318 1.151,-0.268c0.033,0.003 3.133,0.618 3.133,0.618c0.911,0.182 1.503,1.068 1.321,1.979c-0.181,0.911 -1.067,1.503 -1.979,1.322l-2.336,-0.466l-13.966,9.327c-0.379,0.253 -0.834,0.336 -1.263,0.251c-0.213,-0.043 -0.419,-0.126 -0.607,-0.252c-0.565,-0.378 -0.847,-1.06 -0.715,-1.727l2.088,-10.48l-3.043,-0.606c-2.172,-0.432 -3.587,-2.551 -3.154,-4.723l5.606,-28.15c0.433,-2.171 2.552,-3.586 4.723,-3.154l46.922,9.345Zm-7.662,31.819c-0.911,-0.181 -1.798,0.411 -1.979,1.322c-0.181,0.911 0.411,1.797 1.321,1.978c0.911,0.182 1.798,-0.41 1.979,-1.321c0.182,-0.911 -0.41,-1.797 -1.321,-1.979Zm-7.668,-1.527c-0.911,-0.181 -1.797,0.411 -1.979,1.322c-0.181,0.911 0.411,1.797 1.322,1.978c0.911,0.182 1.797,-0.41 1.978,-1.321c0.182,-0.911 -0.41,-1.797 -1.321,-1.979Zm15.334,3.054c-0.911,-0.181 -1.797,0.411 -1.979,1.322c-0.181,0.91 0.411,1.797 1.322,1.978c0.91,0.182 1.797,-0.41 1.978,-1.321c0.182,-0.911 -0.41,-1.797 -1.321,-1.979Zm-31.429,-16.921c0.912,0.182 1.503,1.067 1.322,1.979c-0.182,0.911 -1.068,1.503 -1.979,1.321l-11.397,-2.27c-0.911,-0.181 -1.503,-1.067 -1.321,-1.978c0.181,-0.912 1.067,-1.503 1.978,-1.322l11.397,2.27Zm20.807,-7.198c0.911,0.182 1.503,1.067 1.321,1.979c-0.181,0.911 -1.067,1.503 -1.979,1.321l-30.03,-5.981c-0.911,-0.181 -1.503,-1.067 -1.322,-1.978c0.182,-0.912 1.068,-1.503 1.979,-1.322l30.031,5.981Z" style="fill:#1ec3ff;"/><path d="M754.508,127.672c2.172,0.433 3.587,2.551 3.154,4.723l-3.824,19.204c-0.433,2.172 -2.552,3.587 -4.724,3.154l-1.134,-0.226l-1.426,7.164c-0.133,0.668 -0.655,1.189 -1.323,1.322c-0.221,0.044 -0.443,0.042 -0.656,0c-0.429,-0.086 -0.818,-0.337 -1.071,-0.716l-6.671,-9.99l-20.562,-4.095c-2.172,-0.433 -3.587,-2.552 -3.155,-4.723l3.825,-19.204c0.433,-2.172 2.551,-3.587 4.723,-3.154l32.844,6.541Zm-3.97,23.27l3.824,-19.204c0.07,-0.352 -0.159,-0.696 -0.511,-0.766l-32.844,-6.541c-0.352,-0.07 -0.696,0.159 -0.766,0.511l-3.825,19.204c-0.07,0.352 0.16,0.695 0.512,0.766l21.247,4.231c0.416,0.083 0.764,0.314 1.004,0.627c0.018,0.022 0.036,0.046 0.055,0.074c0.005,0.007 0.01,0.014 0.015,0.022l4.798,7.184c0,0 0.983,-4.921 0.994,-4.956c0.235,-0.839 1.079,-1.368 1.947,-1.195l2.784,0.554c0.352,0.07 0.695,-0.159 0.766,-0.511Zm-7.158,-46.469c2.172,0.432 3.587,2.551 3.154,4.723l-2.151,10.8c-0.181,0.911 -1.067,1.502 -1.978,1.321c-0.911,-0.181 -1.503,-1.067 -1.322,-1.979l2.151,-10.8c0.07,-0.352 -0.159,-0.695 -0.511,-0.765l-46.921,-9.345c-0.352,-0.07 -0.696,0.159 -0.766,0.511l-5.606,28.15c-0.071,0.352 0.159,0.696 0.511,0.766l4.692,0.934c0.861,0.172 1.436,0.973 1.343,1.831c-0.003,0.043 -1.644,8.294 -1.644,8.294l11.168,-7.458c0.352,-0.235 0.761,-0.318 1.15,-0.268c0.033,0.004 3.133,0.619 3.133,0.619c0.911,0.181 1.503,1.067 1.322,1.979c-0.182,0.911 -1.068,1.503 -1.979,1.321l-2.337,-0.465l-13.966,9.326c-0.378,0.253 -0.833,0.337 -1.263,0.251c-0.212,-0.042 -0.419,-0.126 -0.606,-0.251c-0.566,-0.378 -0.848,-1.06 -0.715,-1.727l2.087,-10.48l-3.042,-0.606c-2.172,-0.433 -3.587,-2.551 -3.155,-4.723l5.607,-28.15c0.432,-2.172 2.551,-3.587 4.723,-3.154l46.921,9.345Zm-7.662,31.819c-0.911,-0.181 -1.797,0.411 -1.978,1.321c-0.182,0.911 0.41,1.798 1.321,1.979c0.911,0.181 1.797,-0.411 1.979,-1.321c0.181,-0.911 -0.411,-1.798 -1.322,-1.979Zm-7.667,-1.527c-0.911,-0.182 -1.798,0.41 -1.979,1.321c-0.181,0.911 0.411,1.797 1.321,1.979c0.911,0.181 1.798,-0.411 1.979,-1.322c0.181,-0.91 -0.41,-1.797 -1.321,-1.978Zm15.333,3.054c-0.91,-0.182 -1.797,0.41 -1.978,1.321c-0.182,0.911 0.41,1.797 1.321,1.979c0.911,0.181 1.797,-0.411 1.979,-1.322c0.181,-0.91 -0.411,-1.797 -1.322,-1.978Zm-31.428,-16.921c0.911,0.181 1.503,1.067 1.321,1.978c-0.181,0.912 -1.067,1.503 -1.978,1.322l-11.397,-2.27c-0.911,-0.182 -1.503,-1.067 -1.322,-1.979c0.182,-0.911 1.068,-1.503 1.979,-1.321l11.397,2.27Zm20.806,-7.198c0.912,0.181 1.503,1.067 1.322,1.978c-0.182,0.912 -1.068,1.503 -1.979,1.322l-30.031,-5.981c-0.911,-0.182 -1.503,-1.068 -1.321,-1.979c0.181,-0.911 1.067,-1.503 1.979,-1.321l30.03,5.981Z" style="fill:#1ec3ff;"/><path d="M460.277,408.866c0.668,0.008 1.296,0.273 1.769,0.746l8.323,8.324c0.994,0.993 0.994,2.609 0,3.603l-2.164,2.164c-0.497,0.497 -1.149,0.745 -1.802,0.745c-0.238,0 -0.476,-0.034 -0.707,-0.1l-0.817,0.817c0,0 0,0 0,0.001c-0.58,0.581 0.311,4.192 4.676,8.557c4.366,4.365 7.977,5.256 8.557,4.676l0.818,-0.818c-0.248,-0.862 -0.034,-1.83 0.644,-2.508l2.165,-2.165c0.993,-0.993 2.61,-0.993 3.603,0l8.323,8.323c0.994,0.994 0.994,2.61 0,3.604l-2.164,2.164c-0.481,0.481 -1.121,0.746 -1.802,0.746c-0.243,0 -0.48,-0.035 -0.708,-0.1l-0.454,0.454c-1.577,1.577 -3.778,2.378 -6.417,2.378c-1.61,0 -3.382,-0.298 -5.277,-0.898c-4.717,-1.495 -9.714,-4.717 -14.071,-9.074c-4.356,-4.356 -7.578,-9.353 -9.073,-14.07c-1.526,-4.817 -1.094,-8.847 1.208,-11.406c0.034,-0.044 0.727,-0.743 0.727,-0.743c-0.248,-0.863 -0.034,-1.831 0.645,-2.509l2.164,-2.165c0.481,-0.481 1.121,-0.746 1.802,-0.746l0.032,0Zm-3.296,7.676l0,0c-1.834,1.833 -2.136,5.073 -0.853,9.123c1.374,4.335 4.373,8.966 8.446,13.038c4.073,4.073 8.704,7.073 13.039,8.447c4.049,1.283 7.289,0.98 9.122,-0.852c0,-0.001 0.001,-0.001 0.001,-0.001l0.23,-0.23l-6.459,-6.459l-0.593,0.592c-0.618,0.619 -1.43,0.895 -2.367,0.895c-2.784,0 -6.663,-2.44 -9.794,-5.571c-4.182,-4.182 -7.131,-9.701 -4.677,-12.159c0.001,0 0.001,-0.001 0.001,-0.001l0.593,-0.593l-6.459,-6.459l-0.23,0.23Zm32.718,28.656l-8.323,-8.324l2.165,-2.164l8.323,8.323c0,0 -2.164,2.165 -2.165,2.165Zm-0.071,-31.548c-3.644,-3.644 -8.488,-5.651 -13.641,-5.651c-0.704,0 -1.274,0.571 -1.274,1.274c0,0.704 0.57,1.274 1.274,1.274c4.472,0 8.677,1.742 11.839,4.904c3.163,3.163 4.905,7.367 4.904,11.84c0,0.703 0.571,1.274 1.274,1.274c0.704,0 1.274,-0.571 1.274,-1.274c0.001,-5.153 -2.006,-9.997 -5.65,-13.641Zm-4.569,4.569c-2.423,-2.423 -5.645,-3.758 -9.072,-3.757c-0.703,0 -1.274,0.57 -1.274,1.273c0,0.704 0.571,1.274 1.274,1.274c2.746,0 5.328,1.07 7.27,3.012c1.942,1.942 3.011,4.523 3.011,7.269c0,0.704 0.571,1.275 1.274,1.275c0.704,0 1.274,-0.571 1.274,-1.274c0,-3.427 -1.334,-6.649 -3.757,-9.072Zm-9.071,2.705c1.725,0 3.281,0.644 4.501,1.864c1.22,1.221 1.865,2.777 1.865,4.502c0,0.704 -0.57,1.274 -1.274,1.274l0,0c-0.704,0 -1.274,-0.57 -1.274,-1.274c0,-1.034 -0.387,-1.968 -1.118,-2.7c-0.742,-0.742 -1.651,-1.118 -2.7,-1.118l0,0c-0.704,0 -1.274,-0.571 -1.274,-1.274c-0.001,-0.704 0.57,-1.274 1.273,-1.274l0.001,0Zm-17.908,-7.346l4.162,4.162l4.163,4.163l2.163,-2.166l-8.323,-8.323l-2.165,2.164Z" style="fill:#1ec3ff;"/><path d="M281.588,379.743l4.364,-9.036c0.272,-0.562 0.865,-0.897 1.487,-0.84l9.947,0.912l8.383,-4.757c0.72,-0.408 1.635,-0.156 2.043,0.564l3.082,5.43l10.161,0.931c0.363,0.033 0.684,0.194 0.923,0.433c0.068,0.05 0.151,0.156 0.194,0.232l16.049,28.194c0.41,0.719 0.159,1.634 -0.561,2.044l-48.222,27.45c0,0.001 -0.001,0.001 -0.001,0.001c-0.346,0.196 -0.754,0.247 -1.137,0.142c-0.383,-0.105 -0.709,-0.358 -0.906,-0.704l-16.074,-28.238c-0.005,-0.008 -0.007,-0.016 -0.011,-0.024c-0.225,-0.41 -0.256,-0.919 -0.037,-1.372l4.451,-9.216l-3.045,-5.367c-0.409,-0.719 -0.156,-1.634 0.564,-2.043l8.346,-4.736Zm10.181,46.781l11.374,-27.285l29.152,4.216l-40.526,23.069Zm-16.428,-23.018l21.962,1.951l-8.814,21.146l-13.148,-23.097Zm36.088,-6.097l9.529,-19.87l13.18,23.154l-22.709,-3.284Zm-35.404,-11.062l8.491,14.963l13.998,1.244l2.309,-5.541c0.266,-0.638 0.921,-0.993 1.574,-0.909c0.008,0.001 0.016,0.001 0.025,0.002l5.898,0.853l6.083,-12.684l-8.458,-14.906l-29.92,16.978Zm30.591,-1.503c0.72,-0.409 1.635,-0.156 2.044,0.564c0.408,0.719 0.156,1.634 -0.564,2.043l-17.652,10.016c-0.72,0.408 -1.635,0.156 -2.043,-0.564c-0.409,-0.72 -0.156,-1.635 0.564,-2.043l17.651,-10.016Zm-29.095,10.214l3.365,5.93l-5.972,-0.531l2.607,-5.399Zm35.175,-19.866l5.808,0.531l-2.522,5.26l-3.286,-5.791Zm-9.926,2.873c0.72,-0.409 1.635,-0.156 2.043,0.563c0.408,0.72 0.156,1.635 -0.564,2.044l-17.652,10.016c-0.719,0.408 -1.634,0.156 -2.043,-0.564c-0.408,-0.72 -0.156,-1.635 0.564,-2.043l17.652,-10.016Zm-9.952,-4.694l-4.618,-0.424l-2.024,4.193l6.642,-3.769Z" style="fill:#1ec3ff;"/><path d="M1183.61,84.404l9.685,-2.621c0.603,-0.164 1.244,0.065 1.608,0.572l5.828,8.113l9.086,3.218c0.78,0.276 1.188,1.133 0.912,1.913l-2.084,5.886l5.953,8.287c0.213,0.296 0.302,0.644 0.278,0.981c0.006,0.084 -0.02,0.216 -0.049,0.299l-10.788,30.595c-0.275,0.781 -1.132,1.19 -1.912,0.915l-52.33,-18.452c0,0 -0.001,-0.001 -0.002,-0.001c-0.374,-0.132 -0.68,-0.408 -0.852,-0.766c-0.171,-0.358 -0.193,-0.77 -0.061,-1.145l10.805,-30.644c0.003,-0.008 0.008,-0.016 0.011,-0.024c0.163,-0.438 0.527,-0.795 1.013,-0.927l9.879,-2.674l2.06,-5.816c0.276,-0.78 1.133,-1.189 1.913,-0.912l9.047,3.203Zm-28.677,38.338l28.066,-9.28l15.912,24.787l-43.978,-15.507Zm6.629,-27.491l12.913,17.872l-21.75,7.192l8.837,-25.064Zm28.248,23.273l21.255,-5.817l-8.86,25.126l-12.395,-19.309Zm-14.835,-33.997l-5.743,16.218l8.23,11.391l5.699,-1.885c0.657,-0.217 1.354,0.045 1.718,0.593c0.005,0.007 0.01,0.013 0.015,0.02l3.219,5.016l13.568,-3.713l5.722,-16.156l-32.428,-11.484Zm21.176,22.129c0.78,0.276 1.189,1.133 0.912,1.913c-0.276,0.78 -1.133,1.189 -1.913,0.913l-19.131,-6.776c-0.78,-0.276 -1.189,-1.133 -0.912,-1.913c0.276,-0.78 1.133,-1.189 1.913,-0.913l19.131,6.776Zm-26.778,-15.292l-2.276,6.427l-3.511,-4.86l5.787,-1.567Zm38.053,13.562l3.403,4.737l-5.626,1.54l2.223,-6.277Zm-8.673,-5.617c0.78,0.276 1.189,1.133 0.912,1.913c-0.276,0.78 -1.133,1.189 -1.913,0.912l-19.131,-6.775c-0.78,-0.276 -1.189,-1.133 -0.912,-1.913c0.276,-0.781 1.133,-1.189 1.913,-0.913l19.131,6.776Zm-2.972,-10.594l-2.706,-3.767l-4.494,1.217l7.2,2.55Z" style="fill:#1ec3ff;"/><path d="M33.077,80.067c0.669,0.008 1.296,0.272 1.77,0.746l8.323,8.323c0.994,0.994 0.994,2.61 0,3.603l-2.164,2.165c-0.497,0.496 -1.15,0.745 -1.802,0.745c-0.238,0 -0.476,-0.034 -0.707,-0.1l-0.818,0.817c0,0 0,0 0,0c-0.58,0.581 0.312,4.192 4.677,8.557c4.365,4.366 7.977,5.257 8.557,4.676l0.817,-0.817c-0.247,-0.863 -0.033,-1.831 0.645,-2.509l2.164,-2.164c0.994,-0.994 2.61,-0.994 3.604,0l8.323,8.323c0.993,0.993 0.993,2.61 0,3.603l-2.165,2.165c-0.481,0.481 -1.12,0.746 -1.801,0.746c-0.243,0 -0.481,-0.035 -0.708,-0.101l-0.454,0.454c-1.578,1.578 -3.778,2.378 -6.417,2.378c-1.61,0 -3.383,-0.297 -5.278,-0.898c-4.717,-1.495 -9.714,-4.717 -14.07,-9.073c-4.356,-4.356 -7.579,-9.353 -9.073,-14.07c-1.527,-4.818 -1.095,-8.847 1.208,-11.407c0.034,-0.044 0.726,-0.743 0.726,-0.743c-0.247,-0.862 -0.033,-1.831 0.645,-2.509l2.165,-2.164c0.481,-0.481 1.121,-0.746 1.801,-0.746l0.032,0Zm-3.296,7.675l0,0.001c-1.833,1.833 -2.136,5.073 -0.852,9.123c1.373,4.335 4.373,8.965 8.446,13.038c4.073,4.073 8.703,7.072 13.038,8.446c4.05,1.284 7.29,0.981 9.123,-0.852c0,0 0,0 0,0l0.23,-0.23l-6.459,-6.46l-0.592,0.593c-0.618,0.618 -1.431,0.894 -2.367,0.894c-2.784,0 -6.663,-2.44 -9.794,-5.57c-4.183,-4.183 -7.132,-9.702 -4.677,-12.159c0,-0.001 0.001,-0.001 0.001,-0.002l0.592,-0.592l-6.459,-6.459l-0.23,0.229Zm32.719,28.656l-8.323,-8.323l2.164,-2.165l8.323,8.323c0,0 -2.163,2.166 -2.164,2.165Zm-0.071,-31.548c-3.644,-3.644 -8.489,-5.65 -13.642,-5.65c-0.703,0 -1.274,0.57 -1.274,1.274c0,0.703 0.571,1.274 1.274,1.274c4.473,0 8.677,1.741 11.84,4.904c3.162,3.162 4.904,7.367 4.904,11.839c0,0.704 0.57,1.274 1.274,1.274c0.704,0 1.274,-0.57 1.274,-1.274c0,-5.153 -2.007,-9.997 -5.65,-13.641Zm-4.57,4.57c-2.423,-2.424 -5.645,-3.758 -9.071,-3.758c-0.704,0 -1.274,0.57 -1.274,1.274c0,0.704 0.57,1.274 1.274,1.274c2.746,0 5.328,1.069 7.27,3.011c1.942,1.942 3.011,4.524 3.011,7.27c0,0.703 0.57,1.274 1.274,1.274c0.703,0 1.274,-0.57 1.274,-1.274c0,-3.427 -1.335,-6.648 -3.758,-9.071Zm-9.07,2.704c1.724,0 3.281,0.645 4.501,1.865c1.22,1.22 1.865,2.777 1.865,4.502c-0.001,0.703 -0.571,1.274 -1.274,1.274l-0.001,0c-0.703,-0.001 -1.274,-0.571 -1.273,-1.274c0,-1.035 -0.387,-1.969 -1.119,-2.7c-0.742,-0.743 -1.65,-1.119 -2.699,-1.119l-0.001,0c-0.703,0 -1.274,-0.57 -1.274,-1.274c0,-0.703 0.57,-1.274 1.274,-1.274l0.001,0Zm-17.908,-7.345l4.162,4.161l4.162,4.163l2.164,-2.165l-8.324,-8.324l-2.164,2.165Z" style="fill:#1ec3ff;"/><path d="M1794.13,130.548c-1.108,-1.154 -2.446,-1.771 -3.863,-1.771c-1.406,0 -2.755,0.605 -3.909,1.76l-3.612,3.6c-0.297,-0.16 -0.594,-0.308 -0.88,-0.457c-0.412,-0.206 -0.8,-0.4 -1.132,-0.606c-3.383,-2.149 -6.458,-4.949 -9.407,-8.572c-1.428,-1.806 -2.389,-3.326 -3.086,-4.87c0.937,-0.857 1.806,-1.748 2.652,-2.606c0.32,-0.32 0.64,-0.651 0.96,-0.971c2.4,-2.4 2.4,-5.51 0,-7.91l-3.12,-3.12c-0.355,-0.355 -0.72,-0.72 -1.063,-1.086c-0.686,-0.709 -1.406,-1.44 -2.149,-2.126c-1.109,-1.097 -2.435,-1.68 -3.829,-1.68c-1.395,0 -2.744,0.583 -3.887,1.68c-0.011,0.011 -0.011,0.011 -0.022,0.023l-3.887,3.92c-1.463,1.463 -2.297,3.246 -2.48,5.315c-0.274,3.338 0.709,6.447 1.463,8.481c1.852,4.995 4.618,9.625 8.744,14.585c5.007,5.978 11.03,10.699 17.911,14.025c2.629,1.246 6.138,2.721 10.059,2.972c0.24,0.011 0.491,0.023 0.72,0.023c2.64,0 4.858,-0.949 6.595,-2.835c0.011,-0.023 0.034,-0.034 0.046,-0.057c0.594,-0.72 1.28,-1.372 2,-2.069c0.492,-0.468 0.994,-0.96 1.486,-1.474c1.132,-1.178 1.726,-2.549 1.726,-3.955c0,-1.417 -0.606,-2.778 -1.76,-3.921l-6.276,-6.298Zm4.092,12.036c-0.011,0 -0.011,0.012 0,0c-0.445,0.48 -0.903,0.915 -1.394,1.395c-0.743,0.708 -1.497,1.451 -2.206,2.286c-1.154,1.234 -2.515,1.817 -4.298,1.817c-0.171,0 -0.354,0 -0.526,-0.011c-3.394,-0.217 -6.549,-1.543 -8.915,-2.675c-6.47,-3.132 -12.15,-7.578 -16.871,-13.213c-3.898,-4.698 -6.504,-9.041 -8.23,-13.705c-1.063,-2.846 -1.451,-5.064 -1.28,-7.155c0.114,-1.338 0.629,-2.446 1.577,-3.395l3.898,-3.898c0.56,-0.525 1.155,-0.811 1.738,-0.811c0.72,0 1.303,0.434 1.668,0.8c0.012,0.011 0.023,0.023 0.035,0.034c0.697,0.652 1.36,1.326 2.057,2.046c0.354,0.366 0.72,0.732 1.086,1.109l3.12,3.12c1.212,1.212 1.212,2.332 0,3.544c-0.331,0.331 -0.651,0.663 -0.983,0.983c-0.96,0.983 -1.874,1.897 -2.869,2.789c-0.022,0.022 -0.045,0.034 -0.057,0.057c-0.983,0.983 -0.8,1.943 -0.594,2.594c0.011,0.035 0.023,0.069 0.034,0.103c0.812,1.966 1.955,3.818 3.692,6.024l0.012,0.011c3.154,3.887 6.48,6.916 10.15,9.236c0.468,0.297 0.948,0.537 1.405,0.766c0.412,0.206 0.801,0.4 1.132,0.606c0.046,0.022 0.091,0.057 0.137,0.08c0.389,0.194 0.755,0.285 1.132,0.285c0.948,0 1.543,-0.594 1.737,-0.788l3.909,-3.909c0.389,-0.389 1.006,-0.858 1.726,-0.858c0.709,0 1.292,0.446 1.646,0.835l6.321,6.321c1.177,1.165 1.177,2.366 0.011,3.577Zm-17.625,-32.701c2.995,0.502 5.715,1.92 7.887,4.092c2.172,2.171 3.578,4.892 4.092,7.886c0.126,0.755 0.777,1.281 1.52,1.281c0.092,0 0.172,-0.012 0.263,-0.023c0.846,-0.137 1.406,-0.938 1.269,-1.783c-0.617,-3.624 -2.332,-6.927 -4.949,-9.545c-2.618,-2.617 -5.921,-4.332 -9.545,-4.949c-0.845,-0.137 -1.634,0.423 -1.783,1.257c-0.148,0.835 0.4,1.646 1.246,1.784Zm24.826,11.007c-1.017,-5.967 -3.829,-11.396 -8.149,-15.717c-4.321,-4.32 -9.75,-7.132 -15.717,-8.149c-0.834,-0.149 -1.623,0.423 -1.771,1.257c-0.138,0.846 0.423,1.634 1.268,1.783c5.327,0.903 10.185,3.429 14.048,7.281c3.863,3.863 6.378,8.721 7.281,14.048c0.126,0.754 0.777,1.28 1.52,1.28c0.092,0 0.172,-0.012 0.263,-0.023c0.835,-0.126 1.406,-0.926 1.257,-1.76Z" style="fill:#1ec3ff;"/><path d="M170.328,514.915c1.29,-1.899 1.934,-3.937 1.934,-6.117c0,-2.233 -0.681,-4.322 -2.043,-6.265c-1.362,-1.943 -3.215,-3.56 -5.557,-4.849c0.417,1.362 0.626,2.742 0.626,4.141c0,2.433 -0.608,4.74 -1.825,6.919c-1.217,2.179 -2.961,4.104 -5.231,5.775c-2.107,1.526 -4.504,2.697 -7.192,3.515c-2.687,0.816 -5.494,1.225 -8.418,1.225c-0.544,0 -1.344,-0.036 -2.397,-0.108c3.65,2.397 7.937,3.596 12.858,3.596c1.563,0 3.161,-0.146 4.795,-0.436c2.252,1.598 4.777,2.76 7.574,3.487c0.653,0.164 1.434,0.309 2.343,0.436c0.217,0.019 0.418,-0.045 0.599,-0.19c0.182,-0.146 0.3,-0.345 0.354,-0.599c-0.008,-0.109 0,-0.169 0.027,-0.178c0.027,-0.008 0.023,-0.068 -0.013,-0.176c-0.036,-0.11 -0.054,-0.164 -0.054,-0.164l-0.068,-0.136c-0.019,-0.036 -0.05,-0.086 -0.096,-0.15c-0.045,-0.063 -0.081,-0.108 -0.109,-0.136c-0.026,-0.027 -0.067,-0.073 -0.122,-0.136c-0.054,-0.063 -0.091,-0.104 -0.109,-0.122c-0.091,-0.109 -0.299,-0.336 -0.626,-0.681c-0.327,-0.345 -0.563,-0.613 -0.708,-0.803c-0.146,-0.191 -0.35,-0.454 -0.613,-0.791c-0.264,-0.335 -0.491,-0.685 -0.682,-1.048c-0.19,-0.364 -0.376,-0.763 -0.558,-1.199c2.251,-1.309 4.022,-2.911 5.311,-4.81Zm-18.075,-1.007c2.952,-1.245 5.281,-2.938 6.988,-5.081c1.707,-2.143 2.56,-4.477 2.56,-7.001c0,-2.525 -0.853,-4.859 -2.56,-7.002c-1.707,-2.143 -4.036,-3.836 -6.988,-5.081c-2.951,-1.244 -6.161,-1.866 -9.63,-1.866c-3.469,0 -6.679,0.622 -9.63,1.867c-2.952,1.244 -5.281,2.937 -6.988,5.08c-1.707,2.143 -2.561,4.477 -2.561,7.002c0,2.161 0.646,4.196 1.935,6.102c1.289,1.907 3.06,3.515 5.312,4.822c-0.181,0.437 -0.368,0.836 -0.558,1.199c-0.191,0.363 -0.418,0.713 -0.682,1.049c-0.263,0.336 -0.467,0.6 -0.612,0.79c-0.146,0.19 -0.382,0.459 -0.709,0.803c-0.327,0.345 -0.536,0.572 -0.626,0.681c0,-0.018 -0.037,0.023 -0.11,0.123c-0.072,0.1 -0.113,0.145 -0.122,0.136c-0.009,-0.009 -0.046,0.036 -0.109,0.136c-0.064,0.1 -0.096,0.15 -0.096,0.15l-0.068,0.136c-0.027,0.054 -0.045,0.108 -0.054,0.163c-0.009,0.054 -0.014,0.114 -0.014,0.177c0,0.063 0.009,0.122 0.027,0.177c0.037,0.236 0.141,0.426 0.314,0.572c0.172,0.145 0.358,0.217 0.558,0.217l0.082,0c0.908,-0.127 1.689,-0.272 2.343,-0.436c2.797,-0.726 5.321,-1.889 7.573,-3.487c1.635,0.291 3.233,0.436 4.795,0.436c3.469,0.001 6.679,-0.62 9.63,-1.864Zm-15.242,-2.275l-1.199,0.844c-0.508,0.345 -1.071,0.7 -1.688,1.063l0.953,-2.288l-2.642,-1.526c-1.744,-1.017 -3.097,-2.216 -4.06,-3.596c-0.962,-1.38 -1.443,-2.815 -1.443,-4.304c0,-1.853 0.713,-3.587 2.138,-5.204c1.426,-1.616 3.346,-2.897 5.762,-3.841c2.415,-0.945 5.012,-1.417 7.791,-1.417c2.779,0 5.376,0.472 7.791,1.417c2.416,0.944 4.336,2.225 5.763,3.841c1.425,1.616 2.138,3.351 2.138,5.204c0,1.852 -0.713,3.586 -2.138,5.203c-1.426,1.617 -3.347,2.897 -5.763,3.841c-2.415,0.944 -5.012,1.417 -7.791,1.417c-1.362,0 -2.751,-0.128 -4.168,-0.382l-1.444,-0.272Z" style="fill:#1ec3ff;"/><path d="M1644.08,68.665c1.29,-1.898 1.934,-3.936 1.934,-6.116c0,-2.234 -0.681,-4.323 -2.043,-6.266c-1.362,-1.943 -3.215,-3.559 -5.557,-4.849c0.417,1.362 0.626,2.742 0.626,4.141c0,2.434 -0.608,4.74 -1.825,6.92c-1.217,2.179 -2.961,4.104 -5.231,5.775c-2.107,1.526 -4.504,2.697 -7.192,3.514c-2.688,0.817 -5.494,1.226 -8.418,1.226c-0.544,0 -1.344,-0.036 -2.397,-0.108c3.65,2.396 7.937,3.595 12.858,3.595c1.562,0 3.16,-0.145 4.795,-0.436c2.252,1.599 4.777,2.761 7.574,3.488c0.653,0.164 1.434,0.309 2.342,0.436c0.218,0.018 0.419,-0.046 0.6,-0.191c0.182,-0.145 0.3,-0.345 0.354,-0.599c-0.008,-0.109 0,-0.168 0.027,-0.177c0.027,-0.009 0.023,-0.068 -0.013,-0.177c-0.036,-0.109 -0.055,-0.164 -0.055,-0.164l-0.067,-0.135c-0.019,-0.036 -0.05,-0.087 -0.096,-0.15c-0.045,-0.063 -0.081,-0.109 -0.109,-0.136c-0.027,-0.027 -0.067,-0.073 -0.122,-0.136c-0.054,-0.063 -0.091,-0.104 -0.109,-0.122c-0.091,-0.109 -0.3,-0.336 -0.626,-0.682c-0.328,-0.344 -0.563,-0.612 -0.709,-0.803c-0.145,-0.191 -0.349,-0.454 -0.613,-0.79c-0.263,-0.336 -0.49,-0.685 -0.681,-1.049c-0.19,-0.363 -0.377,-0.763 -0.558,-1.198c2.251,-1.309 4.022,-2.912 5.311,-4.811Zm-18.075,-1.007c2.952,-1.244 5.281,-2.937 6.988,-5.081c1.707,-2.143 2.56,-4.476 2.56,-7.001c0,-2.524 -0.853,-4.858 -2.56,-7.001c-1.707,-2.143 -4.036,-3.837 -6.988,-5.081c-2.951,-1.244 -6.161,-1.866 -9.63,-1.866c-3.469,0 -6.679,0.622 -9.63,1.866c-2.952,1.244 -5.281,2.938 -6.988,5.081c-1.707,2.143 -2.561,4.477 -2.561,7.001c0,2.161 0.646,4.196 1.935,6.103c1.289,1.907 3.06,3.514 5.312,4.822c-0.182,0.436 -0.368,0.835 -0.558,1.199c-0.191,0.363 -0.418,0.712 -0.682,1.049c-0.263,0.336 -0.467,0.599 -0.613,0.789c-0.145,0.191 -0.381,0.459 -0.708,0.804c-0.327,0.345 -0.536,0.572 -0.627,0.681c0,-0.019 -0.036,0.023 -0.109,0.123c-0.072,0.099 -0.113,0.145 -0.122,0.136c-0.009,-0.01 -0.046,0.036 -0.109,0.136c-0.064,0.1 -0.096,0.149 -0.096,0.149l-0.068,0.136c-0.027,0.054 -0.045,0.109 -0.054,0.164c-0.009,0.054 -0.014,0.113 -0.014,0.177c0,0.063 0.009,0.122 0.027,0.176c0.037,0.236 0.141,0.427 0.314,0.573c0.172,0.145 0.358,0.217 0.558,0.217l0.082,0c0.908,-0.127 1.689,-0.272 2.343,-0.436c2.797,-0.726 5.321,-1.889 7.573,-3.487c1.635,0.291 3.233,0.436 4.795,0.436c3.469,0.001 6.679,-0.621 9.63,-1.865Zm-15.242,-2.274l-1.199,0.844c-0.508,0.345 -1.071,0.699 -1.689,1.063l0.954,-2.289l-2.642,-1.525c-1.744,-1.017 -3.097,-2.216 -4.06,-3.596c-0.962,-1.38 -1.443,-2.815 -1.443,-4.305c0,-1.852 0.713,-3.587 2.138,-5.203c1.426,-1.617 3.346,-2.897 5.762,-3.842c2.415,-0.944 5.012,-1.416 7.791,-1.416c2.779,0 5.376,0.472 7.791,1.416c2.416,0.945 4.336,2.225 5.762,3.842c1.426,1.616 2.139,3.35 2.139,5.203c0,1.853 -0.713,3.587 -2.139,5.204c-1.426,1.616 -3.346,2.896 -5.762,3.841c-2.415,0.944 -5.012,1.416 -7.791,1.416c-1.362,0 -2.751,-0.127 -4.168,-0.381l-1.444,-0.272Z" style="fill:#1ec3ff;"/><path d="M821.268,519.374l-37.66,-15.12c-2.211,-0.888 -4.739,0.19 -5.628,2.404l-10.749,26.772c-0.885,2.206 0.184,4.737 2.404,5.628l37.659,15.12c2.206,0.885 4.737,-0.184 5.629,-2.404l10.748,-26.772c0.886,-2.206 -0.184,-4.737 -2.403,-5.628Zm-1.63,2.455l-25.493,10.887l-11.044,-25.557l36.537,14.67Zm-49.507,12.121l10.309,-25.676l7.761,17.959l-18.07,7.717Zm1.133,2.653l18.082,-7.721l2.721,6.296c0.315,0.729 1.16,1.067 1.89,0.755l6.178,-2.638l7.68,17.983l-36.551,-14.675Zm39.204,13.542l-7.68,-17.983l17.983,-7.68l-10.303,25.663Z" style="fill:#1ec3ff;fill-rule:nonzero;"/><path d="M1331.69,386.88l-29.581,4.177c-1.737,0.246 -2.955,1.862 -2.709,3.6l2.97,21.029c0.245,1.733 1.856,2.956 3.6,2.709l29.581,-4.178c1.733,-0.244 2.955,-1.856 2.709,-3.599l-2.97,-21.03c-0.245,-1.732 -1.857,-2.955 -3.6,-2.708Zm-0.139,2.164l-12.27,16.306l-16.429,-12.253l28.699,-4.053Zm-27.14,25.91l-2.848,-20.168l11.546,8.61l-8.698,11.558Zm1.697,1.277l8.703,-11.565l4.048,3.019c0.469,0.349 1.132,0.254 1.483,-0.213l2.974,-3.952l11.502,8.656l-28.71,4.055Zm29.987,-5.752l-11.502,-8.655l8.655,-11.503l2.847,20.158Z" style="fill:#1ec3ff;fill-rule:nonzero;"/><path d="M512.07,184.76l-33.361,12.5c-1.959,0.734 -2.959,2.929 -2.224,4.89l8.886,23.716c0.732,1.954 2.924,2.961 4.89,2.224l33.36,-12.499c1.954,-0.732 2.961,-2.924 2.225,-4.89l-8.886,-23.716c-0.732,-1.954 -2.924,-2.961 -4.89,-2.225Zm0.397,2.556l-10.076,22.151l-22.29,-10.024l32.366,-12.127Zm-24.909,37.17l-8.522,-22.745l15.664,7.044l-7.142,15.701Zm2.305,1.049l7.147,-15.711l5.492,2.47c0.636,0.286 1.383,0.004 1.672,-0.631l2.442,-5.367l15.625,7.108l-32.378,12.131Zm33.427,-14.437l-15.626,-7.108l7.108,-15.625l8.518,22.733Z" style="fill:#1ec3ff;fill-rule:nonzero;"/></g></g></svg>