<?xml version="1.0" encoding="UTF-8" standalone="no"?><!DOCTYPE svg PUBLIC "-//W3C//DTD SVG 1.1//EN" "http://www.w3.org/Graphics/SVG/1.1/DTD/svg11.dtd"><svg width="100%" height="100%" viewBox="0 0 1920 768" version="1.1" xmlns="http://www.w3.org/2000/svg" xmlns:xlink="http://www.w3.org/1999/xlink" xml:space="preserve" xmlns:serif="http://www.serif.com/" style="fill-rule:evenodd;clip-rule:evenodd;stroke-linecap:round;"><rect id="Artboard1" x="0" y="0" width="1920" height="768" style="fill:none;"/><clipPath id="_clip1"><rect x="0" y="0" width="1920" height="768"/></clipPath><g clip-path="url(#_clip1)"><g><g opacity="0.15"><path d="M303.809,1738.82c458.046,-458.046 680.452,-978.28 496.757,-1161.98c-183.695,-183.695 -703.929,38.711 -1161.98,496.757c-458.045,458.046 -680.451,978.28 -496.756,1161.97c183.695,183.695 703.928,-38.71 1161.97,-496.756Z" style="fill:none;stroke:#fff;stroke-width:2px;stroke-dasharray:0,6.67;"/><path d="M527.978,1574.19c481.414,-481.414 715.167,-1028.19 522.1,-1221.26c-193.067,-193.067 -739.842,40.686 -1221.26,522.1c-481.413,481.415 -715.166,1028.19 -522.099,1221.26c193.066,193.067 739.84,-40.685 1221.26,-522.099Z" style="fill:none;stroke:#fff;stroke-width:2px;"/><path d="M737.533,1405.35c516.057,-516.057 766.63,-1102.18 559.671,-1309.14c-206.96,-206.96 -793.081,43.614 -1309.14,559.671c-516.055,516.057 -766.629,1102.18 -559.669,1309.14c206.96,206.96 793.079,-43.613 1309.14,-559.669Z" style="fill:none;stroke:#fff;stroke-width:2px;stroke-dasharray:0,6.67;"/><path d="M1099.66,1166.12c600.511,-618.592 892.091,-1321.17 651.262,-1569.25c-240.829,-248.08 -922.87,52.279 -1523.38,670.871c-600.509,618.592 -892.09,1321.17 -651.261,1569.25c240.83,248.081 922.869,-52.278 1523.38,-670.869Z" style="fill:none;stroke:#fff;stroke-width:2px;"/><circle cx="911.479" cy="49.847" r="10.8" style="fill:#fff;"/><circle cx="714.871" cy="303.799" r="10.8" style="fill:#fff;"/><circle cx="177.271" cy="316.087" r="10.8" style="fill:#fff;"/><circle cx="1832.87" cy="449.559" r="10.8" style="fill:none;stroke:#fff;stroke-width:3px;stroke-linejoin:round;stroke-miterlimit:1.5;"/><circle cx="1502.07" cy="536.759" r="10.8" style="fill:none;stroke:#fff;stroke-width:3px;stroke-linejoin:round;stroke-miterlimit:1.5;"/><circle cx="416.631" cy="639.159" r="10.8" style="fill:none;stroke:#fff;stroke-width:3px;stroke-linejoin:round;stroke-miterlimit:1.5;"/><path d="M1101.66,664.558c5.652,0 10.24,4.588 10.24,10.24c0,5.652 -4.588,10.24 -10.24,10.24c-5.652,0 -10.24,-4.588 -10.24,-10.24c0,-5.652 4.588,-10.24 10.24,-10.24Zm0,5.12c2.826,0 5.12,2.294 5.12,5.12c0,2.826 -2.294,5.12 -5.12,5.12c-2.826,0 -5.12,-2.294 -5.12,-5.12c0,-2.826 2.294,-5.12 5.12,-5.12Z" style="fill:none;stroke:#fff;stroke-width:3px;stroke-linejoin:round;stroke-miterlimit:1.5;"/><text x="768.537px" y="544.663px" style="font-family:'ArialMT', 'Arial', sans-serif;font-size:31.736px;fill:#6969ff;stroke:#fff;stroke-width:1px;stroke-linecap:butt;stroke-linejoin:round;stroke-miterlimit:1.41421;">+</text><text x="394.777px" y="292.503px" style="font-family:'ArialMT', 'Arial', sans-serif;font-size:31.736px;fill:#6969ff;stroke:#fff;stroke-width:1px;stroke-linecap:butt;stroke-linejoin:round;stroke-miterlimit:1.41421;">+</text><text x="161.306px" y="498.326px" style="font-family:'ArialMT', 'Arial', sans-serif;font-size:31.736px;fill:#6969ff;stroke:#fff;stroke-width:1px;stroke-linecap:butt;stroke-linejoin:round;stroke-miterlimit:1.41421;">+</text><text x="1369.29px" y="229.656px" style="font-family:'ArialMT', 'Arial', sans-serif;font-size:31.736px;fill:#6969ff;stroke:#fff;stroke-width:1px;stroke-linecap:butt;stroke-linejoin:round;stroke-miterlimit:1.41421;">+</text><path d="M1087.22,341.758l-5.185,24.554l-17.57,-13.97l22.755,-10.584Z" style="fill:none;stroke:#fff;stroke-width:3px;stroke-linejoin:round;stroke-miterlimit:1.5;"/><path d="M1611.17,693.201l-7.881,21.834l-14.699,-16.452l22.58,-5.382Z" style="fill:none;stroke:#fff;stroke-width:3px;stroke-linejoin:round;stroke-miterlimit:1.5;"/><path d="M1743.7,154.924l8.263,11.322l-13.2,1.796l4.937,-13.118Z" style="fill:none;stroke:#fff;stroke-width:3px;stroke-linejoin:round;stroke-miterlimit:1.5;"/></g></g></g></svg>