<svg xmlns="http://www.w3.org/2000/svg" xmlns:xlink="http://www.w3.org/1999/xlink" width="4500" height="600" viewBox="0 0 4500 600"><defs><path id="a" d="M0 0h4386v646H0z"/><linearGradient id="c" x1="27.426%" x2="88.152%" y1="101.777%" y2=".739%"><stop offset="0%" stop-color="#1F9AFF" stop-opacity=".9"/><stop offset="6%" stop-color="#6369FF" stop-opacity=".84"/><stop offset="14%" stop-color="#6369FF" stop-opacity=".76"/><stop offset="57%" stop-color="#6369FF" stop-opacity=".36"/><stop offset="86%" stop-color="#6369FF" stop-opacity=".1"/><stop offset="100%" stop-color="#6369FF" stop-opacity="0"/></linearGradient><linearGradient id="d" x1="-6739.199%" x2="-6708.227%" y1="-1999.235%" y2="-1937.101%"><stop offset="0%" stop-color="#6380FF" stop-opacity=".4"/><stop offset="9%" stop-color="#6380FF" stop-opacity=".35"/><stop offset="62%" stop-color="#6380FF" stop-opacity=".1"/><stop offset="87%" stop-color="#6380FF" stop-opacity="0"/></linearGradient><linearGradient id="e" x1="-.027%" x2="100.026%" y1="49.978%" y2="49.978%"><stop offset="0%" stop-color="#6369FF" stop-opacity=".8"/><stop offset="6%" stop-color="#6369FF" stop-opacity="0"/><stop offset="10%" stop-color="#6369FF" stop-opacity=".12"/><stop offset="18%" stop-color="#6369FF" stop-opacity=".33"/><stop offset="25%" stop-color="#6369FF" stop-opacity=".5"/><stop offset="33%" stop-color="#6369FF" stop-opacity=".65"/><stop offset="41%" stop-color="#6369FF" stop-opacity=".76"/><stop offset="49%" stop-color="#6369FF" stop-opacity=".84"/><stop offset="57%" stop-color="#6369FF" stop-opacity=".88"/><stop offset="64%" stop-color="#6369FF" stop-opacity=".9"/><stop offset="100%" stop-color="#FFF" stop-opacity=".9"/></linearGradient><linearGradient id="f" x1="-.028%" x2="100.022%" y1="49.984%" y2="49.984%"><stop offset="0%" stop-color="#FFF" stop-opacity=".9"/><stop offset="4%" stop-color="#6369FF" stop-opacity=".9"/><stop offset="9%" stop-color="#6369FF" stop-opacity=".77"/><stop offset="17%" stop-color="#6369FF" stop-opacity=".59"/><stop offset="26%" stop-color="#6369FF" stop-opacity=".43"/><stop offset="35%" stop-color="#6369FF" stop-opacity=".3"/><stop offset="45%" stop-color="#6369FF" stop-opacity=".19"/><stop offset="55%" stop-color="#6369FF" stop-opacity=".11"/><stop offset="67%" stop-color="#6369FF" stop-opacity=".05"/><stop offset="80%" stop-color="#6369FF" stop-opacity=".01"/><stop offset="100%" stop-color="#6369FF" stop-opacity="0"/></linearGradient><radialGradient id="g" cx="49.798%" cy="50.472%" r="33.693%" fx="49.798%" fy="50.472%"><stop offset="21%" stop-color="#FFF" stop-opacity=".2"/><stop offset="58%" stop-color="#B0B3FF" stop-opacity=".1"/><stop offset="100%" stop-color="#6369FF" stop-opacity="0"/></radialGradient></defs><g fill="none" fill-rule="evenodd" transform="translate(135)"><mask id="b" fill="#fff"><use xlink:href="#a"/></mask><g mask="url(#b)"><g transform="translate(179 -1467)"><path stroke="#6969FF" stroke-dasharray="0,12.00393772125244" stroke-linecap="round" stroke-width="3.6" d="M3099.458 3108.224c458.046-458.046 680.452-978.28 496.757-1161.975-183.695-183.695-703.929 38.711-1161.975 496.757-458.045 458.046-680.451 978.28-496.756 1161.974 183.695 183.695 703.928-38.71 1161.974-496.756z"/><path stroke="#6969FF" stroke-dasharray="0,20" stroke-linecap="round" stroke-width="3.6" d="M3696.22 1744.58c-221.44-221.44-848.56 46.66-1400.72 598.8-552.16 552.14-820.24 1179.28-598.8 1400.72" opacity=".7"/><path stroke="#6969FF" stroke-dasharray="0,12" stroke-linecap="round" stroke-width="3.6" d="M2261.6 3739.62c256-107.04 555.56-314 835.8-594.34 552.16-552.16 820.24-1179.26 598.82-1400.7" opacity=".7"/><path stroke="#6969FF" stroke-dasharray="0,32" stroke-linecap="round" stroke-width="3.6" d="M3185.88 1452.42c-315.04 127.06-687.16 381.82-1034.76 729.42-669.52 669.52-994.62 1430-726 1698.46" opacity=".5"/><path stroke="#6969FF" stroke-dasharray="0,11.52786159515381" stroke-linecap="round" stroke-width="3.6" d="M2079.74 3887.2c316.94-125.8 692.82-382 1043.72-733 669.52-669.52 994.62-1430 726-1698.46" opacity=".9"/><path stroke="#6969FF" stroke-dasharray="0,42" stroke-linecap="round" stroke-width="3.6" d="M2781.5 1287.38c-270 168.84-553.12 394.26-824.26 665.4C1225.06 2685 826.28 3505.16 974.42 3913.94" opacity=".4"/><path stroke="#6969FF" stroke-dasharray="0,11.52786159515381" stroke-linecap="round" stroke-width="3.6" d="M2173.36 3914.38c316.52-174.96 659.56-434.64 985.2-760.28C3835.7 2477 4227.68 1724.54 4165.6 1291.9" opacity=".9"/><path stroke="url(#c)" stroke-width="2" d="M3693.74 2524.74c446.82-629.04 610.8-1220.12 362-1469.04"/><path fill="url(#d)" fill-rule="nonzero" d="M2314.14 2059.24l-69.46-70.06-38.96 129.26 73.18 72.08z"/><path stroke="url(#e)" stroke-width="1.4" d="M1131.36 3064.32c58-453.02 255.3-850.42 552.22-1118.44 603.42-544.72 1514-248.52 2012 584.1"/><path stroke="url(#f)" stroke-width="1.4" d="M1529.08 3509c-63.58-512.46 33.44-1019.8 269.7-1426.58 480.16-826.7 1510.74-865.7 2258-162.26"/><circle cx="3080.86" cy="1884.18" r="14.84" fill="url(#g)" fill-rule="nonzero"/><circle cx="3080.86" cy="1884.1" r="4.12" fill="#6969FF" fill-rule="nonzero"/><circle cx="1619.96" cy="2007.14" r="14.84" fill="url(#g)" fill-rule="nonzero"/><circle cx="1619.94" cy="2007.06" r="4.12" fill="#6969FF" fill-rule="nonzero"/></g></g></g></svg>
