<?xml version="1.0" encoding="UTF-8" standalone="no"?><!DOCTYPE svg PUBLIC "-//W3C//DTD SVG 1.1//EN" "http://www.w3.org/Graphics/SVG/1.1/DTD/svg11.dtd"><svg width="100%" height="100%" viewBox="0 0 834 834" version="1.1" xmlns="http://www.w3.org/2000/svg" xmlns:xlink="http://www.w3.org/1999/xlink" xml:space="preserve" xmlns:serif="http://www.serif.com/" style="fill-rule:evenodd;clip-rule:evenodd;stroke-linejoin:round;stroke-miterlimit:1.41421;"><rect id="Artboard1" x="0" y="0" width="833.333" height="833.333" style="fill:none;"/><path d="M416.667,108.861c-172.66,0 -312.5,139.84 -312.5,312.5c0,146.862 100.771,268.75 236.728,303.112c-1.569,-3.91 -2.34,-9.389 -2.34,-14.841l0,-53.138l-39.069,0c-21.091,0 -40.638,-9.362 -49.229,-26.569c-10.159,-18.75 -11.729,-47.66 -37.5,-65.639c-7.819,-6.25 -1.569,-12.5 7.021,-11.728c16.41,4.68 29.681,15.638 42.181,32.021c12.5,16.409 17.979,20.319 41.41,20.319c10.931,0 28.111,-0.771 43.75,-3.138c8.59,-21.889 23.431,-41.41 41.409,-50.772c-104.68,-12.5 -154.68,-64.069 -154.68,-134.388c0,-30.479 13.271,-59.388 35.159,-84.388c-7.021,-24.229 -16.409,-74.229 3.138,-93.75c46.889,0 75,30.479 82.022,38.271c23.431,-7.819 49.228,-12.5 75.771,-12.5c27.34,0 52.34,4.681 75.771,12.5c7.021,-7.819 35.16,-38.271 82.021,-38.271c18.75,18.75 10.16,69.521 2.341,93.75c21.888,24.229 34.388,53.909 34.388,84.388c0,70.319 -49.229,121.888 -153.111,132.819c28.909,14.841 49.228,57.022 49.228,88.272l0,71.17c0,2.34 -0.771,4.681 -0.771,7.021c121.862,-42.181 209.362,-157.792 209.362,-294.521c0,-172.66 -139.841,-312.5 -312.5,-312.5Z" style="fill:#38d39f;fill-rule:nonzero;"/></svg>