<?xml version="1.0" encoding="UTF-8"?>
<svg width="100px" height="30px" viewBox="0 0 100 30" version="1.1" xmlns="http://www.w3.org/2000/svg">
    <!-- Generator: Sketch 51 (57462) - http://www.bohemiancoding.com/sketch -->
    <title>logo</title>
    <desc>Created with Sketch.</desc>
    <defs></defs>
    <g id="Page-1" stroke="none" stroke-width="1" fill="none" fill-rule="evenodd">
        <g id="logo" fill="#FFFFFF" fill-rule="nonzero">
            <path d="M2.48,24.192 C1.86133,24.192 1.36,24 0.976,23.616 C0.61333,23.232 0.432,22.7307 0.432,22.112 L0.432,3.328 C0.432,2.70933 0.61333,2.21867 0.976,1.856001 C1.36,1.472001 1.86133,1.280001 2.48,1.280001 C3.12,1.280001 3.62133,1.472001 3.984,1.856001 C4.368,2.21867 4.56,2.70933 4.56,3.328 L4.56,22.112 C4.56,22.7307 4.368,23.232 3.984,23.616 C3.62133,24 3.12,24.192 2.48,24.192 Z M18.168,7.968 C20.0453,7.968 21.4427,8.50133 22.36,9.568 C23.2773,10.63467 23.736,12.2453 23.736,14.4 L23.736,22.272 C23.736,22.8693 23.5547,23.3387 23.192,23.68 C22.8507,24.0213 22.3707,24.192 21.752,24.192 C21.1333,24.192 20.6427,24.0213 20.28,23.68 C19.9173,23.3387 19.736,22.8693 19.736,22.272 L19.736,14.624 C19.736,13.408 19.5013,12.5227 19.032,11.968 C18.584,11.4133 17.8693,11.136 16.888,11.136 C15.736,11.136 14.808,11.4987 14.104,12.224 C13.4213,12.9493 13.08,13.92 13.08,15.136 L13.08,22.272 C13.08,22.8693 12.8987,23.3387 12.536,23.68 C12.1733,24.0213 11.6827,24.192 11.064,24.192 C10.4453,24.192 9.9547,24.0213 9.592,23.68 C9.2507,23.3387 9.08,22.8693 9.08,22.272 L9.08,9.888 C9.08,9.33333 9.2613,8.88533 9.624,8.544 C9.9867,8.20267 10.4773,8.032 11.096,8.032 C11.6507,8.032 12.0987,8.20267 12.44,8.544 C12.8027,8.864 12.984,9.29067 12.984,9.824 L12.984,10.688 C13.5173,9.81333 14.232,9.14133 15.128,8.672 C16.024,8.20267 17.0373,7.968 18.168,7.968 Z M33.4627,24.256 C31.1374,24.256 29.2601,23.7973 27.8307,22.88 C27.1481,22.4747 26.8068,21.8987 26.8068,21.152 C26.8068,20.7253 26.9241,20.384 27.1588,20.128 C27.3934,19.8507 27.6814,19.712 28.0227,19.712 C28.3854,19.712 28.8868,19.8827 29.5268,20.224 C30.2094,20.544 30.8281,20.7893 31.3828,20.96 C31.9587,21.1307 32.6841,21.216 33.5588,21.216 C34.4548,21.216 35.1481,21.0667 35.6388,20.768 C36.1507,20.4693 36.4067,20.0533 36.4067,19.52 C36.4067,19.1573 36.3001,18.8693 36.0868,18.656 C35.8947,18.4427 35.5321,18.2507 34.9987,18.08 C34.4867,17.888 33.6974,17.6747 32.6308,17.44 C30.7321,17.056 29.3668,16.512 28.5347,15.808 C27.7241,15.104 27.3188,14.1333 27.3188,12.896 C27.3188,11.9573 27.5961,11.1147 28.1507,10.368 C28.7054,9.6 29.4627,9.01333 30.4227,8.608 C31.4041,8.18133 32.5134,7.968 33.7507,7.968 C34.6468,7.968 35.5108,8.08533 36.3427,8.32 C37.1747,8.53333 37.9214,8.85333 38.5828,9.28 C39.2654,9.70667 39.6067,10.272 39.6067,10.976 C39.6067,11.4027 39.4894,11.7653 39.2548,12.064 C39.0201,12.3413 38.7321,12.48 38.3907,12.48 C38.1561,12.48 37.9214,12.4373 37.6868,12.352 C37.4734,12.2453 37.1961,12.096 36.8547,11.904 C36.2361,11.584 35.7028,11.3493 35.2548,11.2 C34.8068,11.0293 34.2521,10.944 33.5908,10.944 C32.8014,10.944 32.1721,11.104 31.7028,11.424 C31.2547,11.744 31.0307,12.1813 31.0307,12.736 C31.0307,13.2693 31.2654,13.6747 31.7347,13.952 C32.2041,14.2293 33.1107,14.5067 34.4548,14.784 C35.8841,15.0827 37.0041,15.424 37.8147,15.808 C38.6254,16.192 39.2014,16.672 39.5428,17.248 C39.9054,17.824 40.0868,18.56 40.0868,19.456 C40.0868,20.9067 39.4787,22.0693 38.2627,22.944 C37.0681,23.8187 35.4681,24.256 33.4627,24.256 Z M45.314,24.192 C44.738,24.192 44.258,24.032 43.874,23.712 C43.5113,23.3707 43.33,22.8907 43.33,22.272 L43.33,9.92 C43.33,9.30133 43.5113,8.832 43.874,8.512 C44.258,8.192 44.738,8.032 45.314,8.032 C45.89,8.032 46.37,8.192 46.754,8.512 C47.138,8.832 47.33,9.30133 47.33,9.92 L47.33,22.272 C47.33,22.8907 47.138,23.3707 46.754,23.712 C46.37,24.032 45.89,24.192 45.314,24.192 Z M45.314,5.184 C44.5887,5.184 44.0127,4.992 43.586,4.608 C43.1593,4.20267 42.946,3.68 42.946,3.04 C42.946,2.4 43.1593,1.888 43.586,1.504 C44.0127,1.12 44.5887,0.9279995 45.314,0.9279995 C46.018,0.9279995 46.5833,1.12 47.01,1.504 C47.458,1.888 47.682,2.4 47.682,3.04 C47.682,3.68 47.4687,4.20267 47.042,4.608 C46.6153,4.992 46.0393,5.184 45.314,5.184 Z M64.703,8.032 C65.3003,8.032 65.7803,8.20267 66.143,8.544 C66.5057,8.88533 66.687,9.344 66.687,9.92 L66.687,22.56 C66.687,25.0133 66.0043,26.8693 64.639,28.128 C63.2737,29.3867 61.2577,30.016 58.591,30.016 C56.2657,30.016 54.3243,29.5787 52.767,28.704 C51.9777,28.2347 51.583,27.6693 51.583,27.008 C51.583,26.5387 51.6897,26.1653 51.903,25.888 C52.1377,25.6107 52.4363,25.472 52.799,25.472 C52.991,25.472 53.2257,25.5147 53.503,25.6 C53.7803,25.7067 54.0683,25.824 54.367,25.952 C55.135,26.272 55.8177,26.5173 56.415,26.688 C57.0337,26.8587 57.7377,26.944 58.527,26.944 C61.3217,26.944 62.719,25.5787 62.719,22.848 L62.719,20.8 C62.2497,21.6747 61.567,22.3573 60.671,22.848 C59.775,23.3173 58.751,23.552 57.599,23.552 C56.2337,23.552 55.0177,23.232 53.951,22.592 C52.9057,21.9307 52.0843,21.0133 51.487,19.84 C50.8897,18.6667 50.591,17.312 50.591,15.776 C50.591,14.24 50.879,12.8853 51.455,11.712 C52.0523,10.51733 52.8843,9.6 53.951,8.96 C55.0177,8.29867 56.2337,7.968 57.599,7.968 C58.751,7.968 59.775,8.21333 60.671,8.704 C61.567,9.17333 62.2497,9.84533 62.719,10.72 L62.719,9.888 C62.719,9.33333 62.9003,8.88533 63.263,8.544 C63.6257,8.20267 64.1057,8.032 64.703,8.032 Z M58.655,20.448 C59.935,20.448 60.927,20.032 61.631,19.2 C62.3563,18.368 62.719,17.2267 62.719,15.776 C62.719,14.304 62.3563,13.152 61.631,12.32 C60.927,11.488 59.935,11.072 58.655,11.072 C57.3963,11.072 56.4043,11.488 55.679,12.32 C54.9537,13.152 54.591,14.304 54.591,15.776 C54.591,17.2267 54.9537,18.368 55.679,19.2 C56.4043,20.032 57.3963,20.448 58.655,20.448 Z M79.982,7.968 C83.6513,7.968 85.486,10.112 85.486,14.4 L85.486,22.272 C85.486,22.8693 85.3047,23.3387 84.942,23.68 C84.6007,24.0213 84.1207,24.192 83.502,24.192 C82.8833,24.192 82.3927,24.0213 82.03,23.68 C81.6673,23.3387 81.486,22.8693 81.486,22.272 L81.486,14.4 C81.486,13.2693 81.2513,12.448 80.782,11.936 C80.334,11.4027 79.6193,11.136 78.638,11.136 C77.486,11.136 76.558,11.4987 75.854,12.224 C75.1713,12.9493 74.83,13.92 74.83,15.136 L74.83,22.272 C74.83,22.8693 74.6487,23.3387 74.286,23.68 C73.9233,24.0213 73.4327,24.192 72.814,24.192 C72.1953,24.192 71.7047,24.0213 71.342,23.68 C71.0007,23.3387 70.83,22.8693 70.83,22.272 L70.83,3.136 C70.83,2.58133 71.0113,2.13333 71.374,1.792 C71.758,1.450667 72.2487,1.280001 72.846,1.280001 C73.4433,1.280001 73.9233,1.440001 74.286,1.76 C74.6487,2.08 74.83,2.51733 74.83,3.072 L74.83,10.528 C75.3633,9.696 76.0673,9.06667 76.942,8.64 C77.838,8.192 78.8513,7.968 79.982,7.968 Z M97.6768,21.216 C98.743,21.28 99.277,21.76 99.277,22.656 C99.277,23.168 99.063,23.5627 98.637,23.84 C98.231,24.096 97.6448,24.2027 96.8767,24.16 L96.0127,24.096 C92.4287,23.84 90.6367,21.92 90.6367,18.336 L90.6367,11.36 L89.0367,11.36 C88.4607,11.36 88.0127,11.232 87.6928,10.976 C87.3941,10.72 87.2447,10.34667 87.2447,9.856 C87.2447,9.36533 87.3941,8.992 87.6928,8.736 C88.0127,8.48 88.4607,8.352 89.0367,8.352 L90.6367,8.352 L90.6367,5.408 C90.6367,4.832 90.8181,4.37333 91.1807,4.032 C91.5434,3.69067 92.0341,3.52 92.6528,3.52 C93.2501,3.52 93.7301,3.69067 94.0928,4.032 C94.4554,4.37333 94.6368,4.832 94.6368,5.408 L94.6368,8.352 L97.3567,8.352 C97.9327,8.352 98.37,8.48 98.669,8.736 C98.989,8.992 99.149,9.36533 99.149,9.856 C99.149,10.34667 98.989,10.72 98.669,10.976 C98.37,11.232 97.9327,11.36 97.3567,11.36 L94.6368,11.36 L94.6368,18.624 C94.6368,20.2027 95.3621,21.0453 96.8127,21.152 L97.6768,21.216 Z" id="Shape"></path>
        </g>
    </g>
</svg>