<?xml version="1.0" encoding="UTF-8"?>
<svg width="24px" height="24px" viewBox="0 0 24 24" version="1.1" xmlns="http://www.w3.org/2000/svg">
    <!-- Generator: Sketch 49.1 (51147) - http://www.bohemiancoding.com/sketch -->
    <title>In</title>
    <desc>Created with Sketch.</desc>
    <defs></defs>
    <g id="Page-1" stroke="none" stroke-width="1" fill="none" fill-rule="evenodd">
        <g id="bootstrap-4" transform="translate(-456.000000, -157.000000)" fill="#FFFFFF">
            <path d="M458.124,180.192 C457.50533,180.192 457.009335,180.000002 456.636,179.616 C456.262665,179.231998 456.076,178.73067 456.076,178.112 L456.076,159.328 C456.076,158.70933 456.262665,158.213335 456.636,157.84 C457.009335,157.466665 457.50533,157.28 458.124,157.28 C458.764003,157.28 459.270665,157.466665 459.644,157.84 C460.017335,158.213335 460.204,158.70933 460.204,159.328 L460.204,178.112 C460.204,178.73067 460.017335,179.231998 459.644,179.616 C459.270665,180.000002 458.764003,180.192 458.124,180.192 Z M473.804,163.968 C475.681343,163.968 477.078662,164.501328 477.996,165.568 C478.913338,166.634672 479.372,168.245323 479.372,170.4 L479.372,178.272 C479.372,178.869336 479.196002,179.338665 478.844,179.68 C478.491998,180.021335 478.00667,180.192 477.388,180.192 C476.76933,180.192 476.278668,180.021335 475.916,179.68 C475.553332,179.338665 475.372,178.869336 475.372,178.272 L475.372,170.624 C475.372,169.407994 475.142669,168.522669 474.684,167.968 C474.225331,167.413331 473.505338,167.136 472.524,167.136 C471.371994,167.136 470.449337,167.498663 469.756,168.224 C469.062663,168.949337 468.716,169.919994 468.716,171.136 L468.716,178.272 C468.716,178.869336 468.534668,179.338665 468.172,179.68 C467.809332,180.021335 467.31867,180.192 466.7,180.192 C466.08133,180.192 465.596002,180.021335 465.244,179.68 C464.891998,179.338665 464.716,178.869336 464.716,178.272 L464.716,165.888 C464.716,165.333331 464.897332,164.885335 465.26,164.544 C465.622668,164.202665 466.11333,164.032 466.732,164.032 C467.286669,164.032 467.739998,164.197332 468.092,164.528 C468.444002,164.858668 468.62,165.290664 468.62,165.824 L468.62,166.688 C469.153336,165.813329 469.867996,165.141336 470.764,164.672 C471.660004,164.202664 472.673328,163.968 473.804,163.968 Z" id="In"></path>
        </g>
    </g>
</svg>