<?xml version="1.0" encoding="UTF-8"?>
<svg width="130px" height="156px" viewBox="0 0 130 156" version="1.1" xmlns="http://www.w3.org/2000/svg">
    <!-- Generator: Sketch 49.1 (51147) - http://www.bohemiancoding.com/sketch -->
    <title>Shape</title>
    <desc>Created with Sketch.</desc>
    <defs></defs>
    <g stroke="none" stroke-width="1" fill="none" fill-rule="evenodd">
        <g transform="translate(-72.000000, -50.000000)" fill="#FFFFFF" fill-rule="nonzero">
            <path d="M106.158,113.238 L106.158,76.985 L138.069,76.985 C141.109,76.985 144.039,77.238 146.861,77.745 C149.683,78.251 152.18,79.155 154.351,80.458 C156.521,81.761 158.258,83.57 159.561,85.885 C160.863,88.201 161.515,91.168 161.515,94.785 C161.515,101.298 159.561,106.002 155.653,108.896 C151.746,111.791 146.753,113.238 140.674,113.238 L106.158,113.238 Z M72.075,50.5 L72.075,205.5 L147.187,205.5 C154.134,205.5 160.9,204.632 167.485,202.895 C174.07,201.158 179.931,198.481 185.069,194.863 C190.206,191.245 194.295,186.577 197.334,180.861 C200.374,175.144 201.893,168.378 201.893,160.563 C201.893,150.866 199.541,142.581 194.838,135.707 C190.134,128.832 183.006,124.02 173.454,121.27 C180.401,117.942 185.648,113.672 189.194,108.462 C192.739,103.252 194.512,96.74 194.512,88.924 C194.512,81.688 193.318,75.61 190.93,70.689 C188.542,65.769 185.177,61.825 180.835,58.858 C176.494,55.891 171.284,53.756 165.205,52.454 C159.127,51.151 152.397,50.5 145.016,50.5 L72.075,50.5 Z M106.158,179.015 L106.158,136.466 L143.279,136.466 C150.66,136.466 156.594,138.166 161.081,141.568 C165.567,144.969 167.811,150.649 167.811,158.609 C167.811,162.662 167.123,165.99 165.748,168.595 C164.373,171.2 162.528,173.263 160.212,174.782 C157.897,176.302 155.219,177.387 152.18,178.039 C149.14,178.689 145.957,179.015 142.628,179.015 L106.158,179.015 Z" id="Shape"></path>
        </g>
    </g>
</svg>