<?xml version="1.0" encoding="UTF-8"?>
<svg width="188px" height="300px" viewBox="0 0 188 300" version="1.1" xmlns="http://www.w3.org/2000/svg">
    <!-- Generator: Sketch 51 (57462) - http://www.bohemiancoding.com/sketch -->
    <title>map-marker</title>
    <desc>Created with Sketch.</desc>
    <defs>
        <path d="M94,151.82 C91.5946546,151.82 89.5993413,151.164007 88.014,149.852 C86.4286587,148.539993 85.636,146.572013 85.636,143.948 L85.636,77.364 C85.636,74.7399869 86.4286587,72.7446735 88.014,71.378 C89.5993413,70.0113265 91.5946546,69.328 94,69.328 C96.4053454,69.328 98.3733257,70.0113265 99.904,71.378 C101.434674,72.7446735 102.2,74.7399869 102.2,77.364 L102.2,143.948 C102.2,146.572013 101.434674,148.539993 99.904,149.852 C98.3733257,151.164007 96.4053454,151.82 94,151.82 Z M94,53.256 C90.8293175,53.256 88.314676,52.3813421 86.456,50.632 C84.597324,48.8826579 83.668,46.5866809 83.668,43.744 C83.668,40.9013191 84.597324,38.6326751 86.456,36.938 C88.314676,35.2433249 90.8293175,34.396 94,34.396 C97.0613486,34.396 99.5486571,35.2433249 101.462,36.938 C103.375343,38.6326751 104.332,40.9013191 104.332,43.744 C104.332,46.5866809 103.402676,48.8826579 101.544,50.632 C99.685324,52.3813421 97.1706825,53.256 94,53.256 Z" id="path-1"></path>
    </defs>
    <g id="Page-1" stroke="none" stroke-width="1" fill="none" fill-rule="evenodd">
        <g id="map-marker">
            <path d="M93.75,0 C41.9771484,0 0,41.9677734 0,93.75 C0,108.251953 3.29589844,122.00332 9.1828125,134.25293 C9.51210937,134.949023 93.75,300 93.75,300 L177.301172,136.303711 C183.819727,123.541406 187.5,109.075781 187.5,93.75 C187.5,41.9677734 145.532227,0 93.75,0 Z M93.75,150 C62.6859375,150 37.5,124.804688 37.5,93.75 C37.5,62.6953125 62.6859375,37.5 93.75,37.5 C124.804688,37.5 150,62.6953125 150,93.75 C150,124.804688 124.804688,150 93.75,150 Z" id="Shape" fill="#152A49" fill-rule="nonzero"></path>
            <circle id="Oval" fill="#152A49" fill-rule="nonzero" cx="93.5" cy="89.5" r="60.5"></circle>
            <g id="i">
                <use fill="#000000" xlink:href="#path-1"></use>
                <use fill="#FFFFFF" xlink:href="#path-1"></use>
            </g>
        </g>
    </g>
</svg>