<?xml version="1.0" encoding="UTF-8" standalone="no"?><!DOCTYPE svg PUBLIC "-//W3C//DTD SVG 1.1//EN" "http://www.w3.org/Graphics/SVG/1.1/DTD/svg11.dtd"><svg width="100%" height="100%" viewBox="0 0 2501 741" version="1.1" xmlns="http://www.w3.org/2000/svg" xmlns:xlink="http://www.w3.org/1999/xlink" xml:space="preserve" xmlns:serif="http://www.serif.com/" style="fill-rule:evenodd;clip-rule:evenodd;stroke-linejoin:round;stroke-miterlimit:1.41421;"><g><path d="M2412.9,741.004l-2325.26,0c-48.426,0 -87.647,-39.211 -87.647,-87.624l0,-565.756c0,-48.413 39.221,-87.624 87.647,-87.624l2325.26,0c48.426,0 87.648,39.211 87.648,87.624l0,565.756c0,48.413 -39.222,87.624 -87.648,87.624Z" style="fill-rule:nonzero;"/><path d="M558.301,366.501c-0.4,-59.617 48.827,-88.825 51.228,-90.025c-28.015,-40.811 -71.238,-46.413 -86.847,-46.813c-36.42,-4.001 -71.639,22.006 -90.449,22.006c-18.81,0 -47.625,-21.606 -78.442,-20.806c-39.621,0.801 -76.842,23.607 -97.253,59.217c-42.022,72.82 -10.805,179.649 29.616,238.065c20.011,28.808 43.624,60.817 74.441,59.617c30.016,-1.201 41.222,-19.206 77.642,-19.206c36.019,0 46.425,19.206 78.042,18.405c32.417,-0.4 52.828,-28.808 72.039,-58.016c23.212,-32.809 32.417,-65.618 32.817,-67.218c0,0 -62.033,-23.607 -62.834,-95.226Zm-59.232,-175.649c16.009,-20.405 27.215,-47.613 24.013,-75.62c-23.612,1.2 -52.828,16.404 -69.637,36.01c-14.808,17.604 -28.416,46.012 -24.814,72.82c26.415,2 53.629,-13.204 70.438,-33.21Z" style="fill:#fff;fill-rule:nonzero;"/><path d="M994.537,583.76l-42.023,0l-23.212,-72.419l-80.044,0l-22.012,72.419l-40.822,0l79.243,-246.467l49.227,0l79.643,246.467Zm-72.039,-102.828l-20.811,-64.417c-2.402,-6.402 -6.404,-22.007 -12.407,-46.413l-0.8,0c-2.402,10.403 -6.404,26.007 -11.607,46.413l-20.411,64.417l66.036,0Zm275.749,11.603c0,30.409 -8.405,54.015 -24.814,71.62c-14.808,15.604 -32.817,23.607 -54.829,23.607c-23.613,0 -40.422,-8.403 -50.828,-25.207l0,93.225l-39.221,0l0,-191.652c0,-18.806 -0.4,-38.411 -1.601,-58.416l34.819,0l2.401,28.007l0.801,0c13.207,-21.206 33.218,-32.009 60.032,-32.009c20.811,0 38.421,8.403 52.428,24.807c14.008,17.205 20.812,39.211 20.812,66.018Zm-40.022,1.601c0,-17.205 -4.002,-31.609 -11.606,-42.812c-8.405,-11.603 -20.011,-17.605 -34.419,-17.605c-9.605,0 -18.41,3.201 -26.414,9.603c-8.004,6.402 -13.207,14.804 -15.608,25.607c-1.201,4.001 -1.601,8.002 -2.001,12.003l0,29.608c0,12.804 4.002,24.007 12.006,32.809c8.004,8.803 18.41,13.204 30.817,13.204c14.808,0 26.414,-5.602 34.818,-17.205c8.405,-11.203 12.407,-26.407 12.407,-45.212Zm244.932,-1.601c0,30.409 -8.404,54.015 -24.813,71.62c-14.808,15.604 -32.818,23.607 -54.83,23.607c-23.612,0 -40.422,-8.403 -50.827,-25.207l0,93.225l-39.622,0l0,-191.652c0,-18.806 -0.4,-38.411 -1.6,-58.416l34.818,0l2.402,28.007l0.8,0c13.207,-21.206 33.218,-32.009 60.033,-32.009c20.811,0 38.42,8.403 52.428,24.807c14.007,17.205 21.211,39.211 21.211,66.018Zm-40.422,1.601c0,-17.205 -4.002,-31.609 -11.606,-42.812c-8.404,-11.603 -20.011,-17.605 -34.418,-17.605c-9.606,0 -18.41,3.201 -26.415,9.603c-8.004,6.402 -13.207,14.804 -15.608,25.607c-1.201,4.801 -2.001,8.802 -2.001,12.003l0,29.608c0,12.804 4.002,24.007 12.006,32.809c8.005,8.803 18.41,13.204 30.817,13.204c14.808,0 26.414,-5.602 34.819,-17.205c8.404,-11.203 12.406,-26.407 12.406,-45.212Zm268.946,20.405c0,20.806 -7.204,38.011 -22.012,51.215c-16.009,14.404 -38.421,21.605 -67.237,21.605c-26.414,0 -47.625,-5.201 -64.034,-15.204l9.205,-32.809c17.209,10.403 36.42,15.204 57.231,15.204c14.808,0 26.414,-3.2 34.819,-10.002c8.404,-6.802 12.406,-15.605 12.406,-26.808c0,-10.002 -3.602,-18.405 -10.405,-25.207c-6.804,-6.801 -18.01,-13.203 -34.019,-19.205c-43.223,-16.004 -64.835,-39.611 -64.835,-70.819c0,-20.406 7.604,-36.81 22.813,-49.614c15.208,-12.803 35.619,-19.205 60.432,-19.205c22.412,0 41.222,4.001 56.03,11.603l-10.005,32.009c-14.008,-7.602 -29.616,-11.203 -47.225,-11.203c-14.008,0 -24.814,3.601 -32.818,10.403c-6.404,6.001 -10.006,13.603 -10.006,22.406c0,9.602 3.602,18.005 11.206,24.006c6.404,6.002 18.41,12.004 36.02,19.206c21.211,8.402 36.82,18.405 46.825,30.008c10.806,11.203 15.609,25.207 15.609,42.411Zm130.87,-78.821l-43.623,0l0,86.424c0,22.006 7.604,32.809 23.212,32.809c7.204,0 12.807,-0.401 17.61,-2.001l1.2,30.008c-7.604,2.801 -18.009,4.401 -30.816,4.401c-15.609,0 -27.615,-4.801 -36.42,-14.403c-8.805,-9.603 -13.207,-25.608 -13.207,-48.014l0,-89.624l-26.014,0l0,-29.608l26.014,0l0,-32.409l38.821,-11.604l0,44.413l43.623,0l-0.4,29.608Zm196.106,57.616c0,27.207 -8.004,49.613 -23.613,67.218c-16.408,18.005 -38.02,27.208 -65.235,27.208c-26.014,0 -46.825,-8.803 -62.434,-26.008c-15.608,-17.204 -23.212,-39.21 -23.212,-65.618c0,-27.607 8.004,-50.013 24.013,-67.618c16.009,-17.605 37.62,-26.407 64.435,-26.407c26.014,0 47.225,8.802 62.834,26.007c15.608,16.804 23.212,38.81 23.212,65.218Zm-40.822,0.8c0,-16.405 -3.602,-30.409 -10.406,-42.012c-8.404,-14.004 -20.01,-21.206 -35.619,-21.206c-16.008,0 -28.015,7.202 -36.419,21.206c-7.204,11.603 -10.406,26.007 -10.406,42.812c0,16.405 3.602,30.408 10.406,42.012c8.404,14.003 20.411,21.205 36.019,21.205c15.208,0 26.814,-7.202 35.619,-21.605c7.204,-12.004 10.806,-26.008 10.806,-42.412Zm169.291,-53.615c-4.002,-0.8 -8.404,-1.2 -12.406,-1.2c-14.008,0 -24.814,5.201 -32.018,15.604c-6.403,9.203 -10.005,20.806 -10.005,35.21l0,93.225l-39.621,0l0,-121.633c0,-18.805 -0.401,-37.21 -1.201,-56.015l34.419,0l1.6,34.009l1.201,0c4.002,-11.603 10.806,-21.206 19.611,-28.008c8.404,-6.001 18.41,-9.602 28.415,-9.602c3.602,0 6.804,0.4 10.005,0.8l0,37.61Zm176.896,46.013c0,6.001 -0.4,12.003 -1.601,18.005l-118.464,0c0.4,17.605 6.003,31.208 17.209,40.411c10.006,8.402 22.813,12.403 38.821,12.403c17.61,0 33.618,-2.801 48.026,-8.402l6.004,27.207c-16.81,7.202 -36.82,10.803 -59.633,10.803c-27.615,0 -49.226,-8.002 -64.835,-24.406c-15.608,-16.405 -23.612,-38.011 -23.612,-65.218c0,-26.808 7.203,-49.214 22.011,-66.819c15.209,-19.205 36.02,-28.407 62.034,-28.407c25.614,0 45.224,9.602 58.031,28.407c10.806,15.205 16.009,33.61 16.009,56.016Zm-37.62,-10.403c0.4,-11.603 -2.402,-22.006 -7.604,-30.408c-6.804,-11.204 -17.21,-16.405 -31.618,-16.405c-12.806,0 -23.612,5.201 -31.617,16.004c-6.403,8.403 -10.405,18.806 -11.606,30.809l82.445,0Zm-1388.35,-226.062c-10.806,0 -20.411,-0.4 -28.415,-1.601l0,-119.232c11.206,-1.601 22.412,-2.401 33.618,-2.401c45.225,0 66.036,22.406 66.036,58.816c0,41.611 -24.814,64.418 -71.239,64.418Zm6.404,-108.03c-6.003,0 -11.206,0.4 -15.609,1.2l0,90.425c2.402,0.4 6.804,0.4 13.207,0.4c29.616,0 46.426,-16.804 46.426,-48.413c0,-28.008 -15.209,-43.612 -44.024,-43.612Zm129.67,108.83c-25.614,0 -42.023,-19.205 -42.023,-44.812c0,-26.808 16.809,-46.013 43.624,-46.013c25.213,0 42.022,18.005 42.022,44.812c0,26.808 -17.609,46.013 -43.623,46.013Zm0.8,-76.821c-14.007,0 -23.212,13.203 -23.212,31.609c0,18.004 9.205,31.208 22.812,31.208c13.607,0 22.812,-14.004 22.812,-31.609c0.4,-18.005 -8.804,-31.208 -22.412,-31.208Zm188.502,-12.404l-27.215,87.224l-18.009,0l-11.207,-38.01c-2.801,-9.203 -5.202,-18.805 -7.203,-28.408l-0.401,0c-1.601,9.603 -4.002,19.205 -7.204,28.408l-12.006,38.01l-18.01,0l-25.614,-87.224l20.011,0l10.006,41.612c2.401,10.003 4.402,19.205 6.003,28.008l0.4,0c1.601,-7.202 3.602,-16.405 7.204,-28.008l12.407,-41.612l16.008,0l12.007,40.812c2.801,10.002 5.203,19.605 7.204,28.808l0.4,0c1.201,-8.803 3.202,-18.405 6.003,-28.808l10.806,-40.812l18.41,0Zm100.454,87.224l-19.21,0l0,-50.013c0,-15.605 -6.003,-23.207 -17.61,-23.207c-11.606,0 -19.61,10.003 -19.61,21.206l0,52.014l-19.611,0l0,-62.417c0,-7.602 0,-16.004 -0.8,-24.807l17.209,0l0.8,13.604l0.401,0c5.202,-9.202 16.008,-15.204 27.614,-15.204c18.41,0 30.417,14.004 30.417,36.81l0.4,52.014Zm53.629,0l-19.611,0l0,-127.635l19.611,0l0,127.635Zm70.838,2.001c-25.614,0 -42.022,-19.205 -42.022,-44.812c0,-26.808 16.809,-46.013 43.623,-46.013c25.214,0 42.023,18.005 42.023,44.812c0,26.808 -17.61,46.013 -43.624,46.013Zm0.801,-76.821c-14.008,0 -23.213,13.203 -23.213,31.609c0,18.004 9.205,31.208 22.813,31.208c13.607,0 22.812,-14.004 22.812,-31.609c0,-18.005 -8.805,-31.208 -22.412,-31.208Zm119.264,74.82l-1.601,-10.002l-0.4,0c-6.003,8.002 -14.408,12.003 -25.614,12.003c-15.608,0 -26.814,-10.803 -26.814,-25.607c0,-21.606 18.81,-32.809 51.227,-32.809l0,-1.601c0,-11.603 -6.003,-17.204 -18.009,-17.204c-8.805,0 -16.009,2 -22.813,6.402l-4.002,-12.804c8.005,-5.201 18.01,-7.602 30.016,-7.602c22.813,0 34.419,12.003 34.419,36.01l0,32.009c0,8.802 0.4,15.604 1.201,20.805l-17.61,0.4Zm-2.801,-43.612c-21.612,0 -32.418,5.202 -32.418,17.605c0,9.203 5.603,13.604 13.207,13.604c10.006,0 19.211,-7.602 19.211,-17.605l0,-13.604Zm113.261,43.612l-0.801,-14.003l-0.4,0c-5.603,10.402 -14.808,16.004 -28.015,16.004c-21.211,0 -36.82,-18.405 -36.82,-44.412c0,-27.208 16.009,-46.413 38.421,-46.413c11.606,0 20.011,4.001 24.813,12.003l0.4,0l0,-50.814l19.611,0l0,104.029c0,8.402 0.4,16.404 0.8,23.606l-18.009,0Zm-2.802,-51.214c0,-12.403 -8.004,-22.806 -20.411,-22.806c-14.408,0 -23.212,12.804 -23.212,30.809c0,17.604 9.205,29.608 22.812,29.608c12.407,0 20.811,-10.803 20.811,-23.207l0,-14.404Zm142.877,53.215c-25.614,0 -42.022,-19.205 -42.022,-44.812c0,-26.808 16.809,-46.013 43.623,-46.013c25.214,0 42.023,18.005 42.023,44.812c0,26.808 -17.61,46.013 -43.624,46.013Zm0.801,-76.821c-14.008,0 -22.813,13.203 -22.813,31.609c0,18.004 9.205,31.208 22.813,31.208c13.607,0 22.812,-14.004 22.812,-31.609c-0.4,-18.005 -9.205,-31.208 -22.812,-31.208Zm147.279,74.82l-19.61,0l0,-50.013c0,-15.605 -6.004,-23.207 -17.61,-23.207c-11.606,0 -19.21,10.003 -19.21,21.206l0,52.014l-19.611,0l0,-62.417c0,-7.602 0,-16.004 -0.8,-24.807l17.209,0l0.8,13.604l0.401,0c5.203,-9.202 16.008,-15.204 27.615,-15.204c18.41,0 30.416,14.004 30.416,36.81l0,52.014l0.4,0Zm130.471,-72.82l-21.212,0l0,42.412c0,10.803 3.602,16.004 11.206,16.004c3.602,0 6.404,-0.4 8.805,-0.8l0.4,14.804c-3.602,1.601 -8.805,2.001 -15.208,2.001c-15.208,0 -24.413,-8.402 -24.413,-30.408l0,-44.013l-12.807,0l0,-14.404l12.807,0l0,-16.004l19.21,-5.601l0,21.605l21.212,0l0,14.404Zm102.855,72.82l-19.21,0l0,-49.613c0,-15.605 -6.003,-23.607 -17.61,-23.607c-10.005,0 -19.61,6.802 -19.61,20.806l0,52.815l-19.211,0l0,-128.036l19.211,0l0,52.415l0.4,0c6.003,-9.603 14.808,-14.404 26.414,-14.404c18.41,0 29.616,14.404 29.616,37.21l0,52.414Zm105.257,-38.81l-58.432,0c0.401,16.404 11.206,26.007 27.615,26.007c8.805,0 16.409,-1.601 23.613,-4.001l3.202,13.604c-8.405,3.601 -18.01,5.201 -29.216,5.201c-27.215,0 -43.623,-17.205 -43.623,-44.012c0,-26.807 16.408,-46.813 41.222,-46.813c22.412,0 36.419,16.405 36.419,41.611c0,2.401 0,5.202 -0.8,8.403Zm-17.61,-14.004c0,-13.604 -6.803,-23.206 -19.21,-23.206c-11.206,0 -20.011,9.602 -21.211,23.206l40.421,0Z" style="fill:#fff;fill-rule:nonzero;"/></g></svg>