<?xml version="1.0" encoding="UTF-8" standalone="no"?><!DOCTYPE svg PUBLIC "-//W3C//DTD SVG 1.1//EN" "http://www.w3.org/Graphics/SVG/1.1/DTD/svg11.dtd"><svg width="100%" height="100%" viewBox="0 0 948 608" version="1.1" xmlns="http://www.w3.org/2000/svg" xmlns:xlink="http://www.w3.org/1999/xlink" xml:space="preserve" xmlns:serif="http://www.serif.com/" style="fill-rule:evenodd;clip-rule:evenodd;stroke-miterlimit:10;"><path d="M362.546,35.812c0,-2.853 -2.316,-5.17 -5.17,-5.17l-60.202,0c-2.854,0 -5.17,2.317 -5.17,5.17l0,16.113c0,2.854 2.316,5.17 5.17,5.17l60.202,0c2.854,0 5.17,-2.316 5.17,-5.17l0,-16.113Z" style="fill:#3755be;fill-opacity:0.0980392;"/><path d="M572.411,12.004c0,-2.854 -2.317,-5.17 -5.17,-5.17l-60.203,0c-2.853,0 -5.17,2.316 -5.17,5.17l0,16.113c0,2.854 2.317,5.17 5.17,5.17l60.203,0c2.853,0 5.17,-2.316 5.17,-5.17l0,-16.113Z" style="fill:#3755be;fill-opacity:0.0980392;"/><path d="M533.612,280.948c0,-2.854 -2.316,-5.17 -5.17,-5.17l-60.202,0c-2.854,0 -5.17,2.316 -5.17,5.17l0,16.113c0,2.854 2.316,5.17 5.17,5.17l60.202,0c2.854,0 5.17,-2.316 5.17,-5.17l0,-16.113Z" style="fill:#3755be;fill-opacity:0.0980392;"/><path d="M565.356,310.047c0,-2.854 -2.316,-5.17 -5.17,-5.17l-60.202,0c-2.854,0 -5.17,2.316 -5.17,5.17l0,16.113c0,2.854 2.316,5.17 5.17,5.17l60.202,0c2.854,0 5.17,-2.316 5.17,-5.17l0,-16.113Z" style="fill:#3755be;fill-opacity:0.0980392;"/><path d="M754.058,296.82c0,-2.853 -2.316,-5.17 -5.17,-5.17l-60.203,0c-2.853,0 -5.17,2.317 -5.17,5.17l0,16.113c0,2.854 2.317,5.17 5.17,5.17l60.203,0c2.854,0 5.17,-2.316 5.17,-5.17l0,-16.113Z" style="fill:#3755be;fill-opacity:0.0980392;"/><path d="M180.017,317.983c0,-2.854 -2.317,-5.17 -5.17,-5.17l-60.203,0c-2.853,0 -5.17,2.316 -5.17,5.17l0,16.113c0,2.854 2.317,5.17 5.17,5.17l60.203,0c2.853,0 5.17,-2.316 5.17,-5.17l0,-16.113Z" style="fill:#3755be;fill-opacity:0.0980392;"/><path d="M511.568,339.146c0,-2.854 -2.317,-5.17 -5.17,-5.17l-60.203,0c-2.853,0 -5.17,2.316 -5.17,5.17l0,16.113c0,2.853 2.317,5.17 5.17,5.17l60.203,0c2.853,0 5.17,-2.317 5.17,-5.17l0,-16.113Z" style="fill:#3755be;fill-opacity:0.0980392;"/><circle cx="360.642" cy="1.279" r="1.279" style="fill-opacity:0.2;"/><circle cx="387.413" cy="4.462" r="1.279" style="fill-opacity:0.2;"/><ellipse cx="473.518" cy="563.05" rx="473.518" ry="43.207" style="fill:#3755be;fill-opacity:0.0980392;"/><path d="M293.767,195.415c0,-2.854 -2.317,-5.17 -5.17,-5.17l-60.203,0c-2.853,0 -5.17,2.316 -5.17,5.17l0,16.113c0,2.854 2.317,5.17 5.17,5.17l60.203,0c2.853,0 5.17,-2.316 5.17,-5.17l0,-16.113Z" style="fill:#3755be;fill-opacity:0.0980392;"/><path d="M325.511,224.514c0,-2.854 -2.316,-5.17 -5.17,-5.17l-60.202,0c-2.854,0 -5.17,2.316 -5.17,5.17l0,16.113c0,2.854 2.316,5.17 5.17,5.17l60.202,0c2.854,0 5.17,-2.316 5.17,-5.17l0,-16.113Z" style="fill:#3755be;fill-opacity:0.0980392;"/><path d="M603.273,197.178c0,-2.853 -2.316,-5.17 -5.17,-5.17l-60.203,0c-2.853,0 -5.17,2.317 -5.17,5.17l0,16.114c0,2.853 2.317,5.17 5.17,5.17l60.203,0c2.854,0 5.17,-2.317 5.17,-5.17l0,-16.114Z" style="fill:#3755be;fill-opacity:0.0980392;"/><path d="M635.017,226.277c0,-2.853 -2.316,-5.17 -5.17,-5.17l-60.202,0c-2.854,0 -5.17,2.317 -5.17,5.17l0,16.114c0,2.853 2.316,5.17 5.17,5.17l60.202,0c2.854,0 5.17,-2.317 5.17,-5.17l0,-16.114Z" style="fill:#3755be;fill-opacity:0.0980392;"/><path d="M271.723,253.613c0,-2.854 -2.317,-5.17 -5.17,-5.17l-60.203,0c-2.854,0 -5.17,2.316 -5.17,5.17l0,16.113c0,2.853 2.316,5.17 5.17,5.17l60.203,0c2.853,0 5.17,-2.317 5.17,-5.17l0,-16.113Z" style="fill:#3755be;fill-opacity:0.0980392;"/><path d="M342.265,356.781c0,-2.853 -2.316,-5.17 -5.17,-5.17l-60.202,0c-2.854,0 -5.17,2.317 -5.17,5.17l0,16.114c0,2.853 2.316,5.17 5.17,5.17l60.202,0c2.854,0 5.17,-2.317 5.17,-5.17l0,-16.114Z" style="fill:#3755be;fill-opacity:0.0980392;"/><path d="M374.009,385.88c0,-2.853 -2.316,-5.17 -5.17,-5.17l-60.202,0c-2.854,0 -5.17,2.317 -5.17,5.17l0,16.114c0,2.853 2.316,5.17 5.17,5.17l60.202,0c2.854,0 5.17,-2.317 5.17,-5.17l0,-16.114Z" style="fill:#3755be;fill-opacity:0.0980392;"/><path d="M320.221,414.979c0,-2.853 -2.317,-5.17 -5.17,-5.17l-60.203,0c-2.853,0 -5.17,2.317 -5.17,5.17l0,16.113c0,2.854 2.317,5.17 5.17,5.17l60.203,0c2.853,0 5.17,-2.316 5.17,-5.17l0,-16.113Z" style="fill:#3755be;fill-opacity:0.0980392;"/><path d="M626.2,430.851c0,-2.853 -2.317,-5.17 -5.17,-5.17l-60.203,0c-2.854,0 -5.17,2.317 -5.17,5.17l0,16.114c0,2.853 2.316,5.17 5.17,5.17l60.203,0c2.853,0 5.17,-2.317 5.17,-5.17l0,-16.114Z" style="fill:#3755be;fill-opacity:0.0980392;"/><path d="M572.411,459.95c0,-2.854 -2.317,-5.17 -5.17,-5.17l-60.203,0c-2.853,0 -5.17,2.316 -5.17,5.17l0,16.113c0,2.854 2.317,5.17 5.17,5.17l60.203,0c2.853,0 5.17,-2.316 5.17,-5.17l0,-16.113Z" style="fill:#3755be;fill-opacity:0.0980392;"/><path d="M834.53,547.711c0,0 -12.769,-64.688 13.526,-109.024c11.144,-18.521 15.982,-40.168 13.783,-61.672c-1.134,-10.202 -3.2,-20.279 -6.173,-30.104" style="fill:none;stroke:#535461;stroke-width:1.76px;"/><path d="M872.085,318.871c-0.706,7.715 -16.754,28.816 -16.754,28.816c0,0 -11.922,-23.667 -11.207,-31.391c0.795,-7.066 6.839,-12.468 13.949,-12.468c7.701,0 14.038,6.337 14.038,14.038c0,0.332 -0.011,0.664 -0.035,0.996l0.009,0.009Z" style="fill:#3755be;fill-rule:nonzero;"/><path d="M891.264,363.753c-4.788,6.093 -29.716,15.097 -29.716,15.097c0,0 2.857,-26.348 7.645,-32.441c2.635,-3.664 6.882,-5.841 11.395,-5.841c7.701,0 14.038,6.337 14.038,14.038c0,3.356 -1.203,6.602 -3.389,9.147l0.027,0Z" style="fill:#3755be;fill-rule:nonzero;"/><path d="M883.539,436.703c-7.213,2.84 -33.269,-1.975 -33.269,-1.975c0,0 15.766,-21.304 22.979,-24.143c1.579,-0.594 3.252,-0.898 4.939,-0.898c7.701,0 14.038,6.337 14.038,14.038c0,5.675 -3.441,10.815 -8.687,12.978Z" style="fill:#3755be;fill-rule:nonzero;"/><path d="M865.26,490.624c-6.631,4.021 -33.129,3.677 -33.129,3.677c0,0 11.94,-23.658 18.571,-27.679c2.239,-1.409 4.831,-2.157 7.477,-2.157c7.701,0 14.038,6.337 14.038,14.038c0,4.984 -2.654,9.608 -6.957,12.121Z" style="fill:#3755be;fill-rule:nonzero;"/><path d="M832.061,377.624c5.044,5.89 30.324,13.826 30.324,13.826c0,0 -3.968,-26.206 -9.003,-32.088c-2.665,-3.204 -6.624,-5.06 -10.792,-5.06c-7.701,0 -14.038,6.337 -14.038,14.038c0,3.418 1.248,6.72 3.509,9.284Z" style="fill:#3755be;fill-rule:nonzero;"/><path d="M811.48,440.954c6.569,4.109 33.076,4.117 33.076,4.117c0,0 -11.622,-23.808 -18.2,-27.926c-2.266,-1.459 -4.905,-2.235 -7.601,-2.235c-7.701,0 -14.038,6.337 -14.038,14.038c0,4.903 2.569,9.464 6.763,12.006Z" style="fill:#3755be;fill-rule:nonzero;"/><path d="M799.911,505.227c5.784,5.158 31.903,9.655 31.903,9.655c0,0 -7.434,-25.439 -13.227,-30.598c-2.61,-2.489 -6.081,-3.878 -9.688,-3.878c-7.701,0 -14.038,6.337 -14.038,14.038c0,4.163 1.852,8.117 5.05,10.783Z" style="fill:#3755be;fill-rule:nonzero;"/><path d="M723.751,533.514c0,0 -6.851,-34.733 7.257,-58.541c5.984,-9.947 8.581,-21.572 7.398,-33.12c-0.603,-5.477 -1.707,-10.887 -3.297,-16.163" style="fill:none;stroke:#535461;stroke-width:1.76px;"/><path d="M743.918,410.629c-0.38,4.144 -8.995,15.475 -8.995,15.475c0,0 -6.401,-12.706 -6.022,-16.851c0.552,-3.672 3.741,-6.417 7.455,-6.417c4.136,0 7.539,3.403 7.539,7.539c0,0.085 -0.001,0.169 -0.004,0.254l0.027,0Z" style="fill:#3755be;fill-rule:nonzero;"/><path d="M754.208,434.728c-2.575,3.272 -15.96,8.104 -15.96,8.104c0,0 1.534,-14.109 4.109,-17.416c1.431,-1.713 3.553,-2.705 5.786,-2.705c4.136,0 7.539,3.403 7.539,7.539c0,1.612 -0.517,3.182 -1.474,4.478Z" style="fill:#3755be;fill-rule:nonzero;"/><path d="M750.064,473.915c-3.871,1.525 -17.865,-1.059 -17.865,-1.059c0,0 8.465,-11.463 12.345,-12.962c0.816,-0.293 1.677,-0.442 2.544,-0.442c4.136,0 7.54,3.403 7.54,7.539c0,3.005 -1.796,5.734 -4.556,6.924l-0.008,0Z" style="fill:#3755be;fill-rule:nonzero;"/><path d="M740.249,502.837c-3.527,2.16 -17.785,1.975 -17.785,1.975c0,0 6.41,-12.706 9.973,-14.867c1.212,-0.774 2.621,-1.186 4.06,-1.186c4.136,0 7.539,3.403 7.539,7.539c0,2.697 -1.447,5.197 -3.787,6.539Z" style="fill:#3755be;fill-rule:nonzero;"/><path d="M722.42,442.188c2.707,3.166 16.286,7.425 16.286,7.425c0,0 -2.125,-14.109 -4.832,-17.23c-1.432,-1.675 -3.528,-2.64 -5.731,-2.64c-4.138,0 -7.543,3.405 -7.543,7.542c0,1.798 0.643,3.537 1.811,4.903l0.009,0Z" style="fill:#3755be;fill-rule:nonzero;"/><path d="M711.371,476.181c3.527,2.204 17.759,2.213 17.759,2.213c0,0 -6.243,-12.786 -9.77,-14.99c-1.174,-0.708 -2.52,-1.082 -3.891,-1.082c-4.136,0 -7.539,3.403 -7.539,7.539c0,2.554 1.297,4.94 3.441,6.329l0,-0.009Z" style="fill:#3755be;fill-rule:nonzero;"/><path d="M705.172,510.694c3.104,2.769 17.133,5.185 17.133,5.185c0,0 -3.986,-13.659 -7.054,-16.428c-1.368,-1.178 -3.115,-1.826 -4.92,-1.826c-4.136,0 -7.539,3.403 -7.539,7.539c0,2.102 0.879,4.112 2.424,5.539l-0.044,-0.009Z" style="fill:#3755be;fill-rule:nonzero;"/><path d="M165.582,538.805c0,0 -6.851,-34.733 7.257,-58.542c5.984,-9.946 8.581,-21.572 7.398,-33.119c-0.603,-5.477 -1.707,-10.888 -3.297,-16.163" style="fill:none;stroke:#535461;stroke-width:1.76px;"/><path d="M185.749,415.92c-0.38,4.144 -8.995,15.475 -8.995,15.475c0,0 -6.401,-12.707 -6.022,-16.851c0.552,-3.673 3.741,-6.418 7.455,-6.418c4.136,0 7.539,3.404 7.539,7.54c0,0.084 -0.001,0.169 -0.004,0.254l0.027,0Z" style="fill:#3755be;fill-rule:nonzero;"/><path d="M196.039,440.019c-2.575,3.271 -15.96,8.103 -15.96,8.103c0,0 1.534,-14.108 4.109,-17.415c1.431,-1.713 3.553,-2.706 5.786,-2.706c4.136,0 7.539,3.404 7.539,7.54c0,1.611 -0.517,3.181 -1.474,4.478Z" style="fill:#3755be;fill-rule:nonzero;"/><path d="M191.895,479.205c-3.871,1.526 -17.865,-1.058 -17.865,-1.058c0,0 8.465,-11.463 12.345,-12.962c0.816,-0.293 1.677,-0.442 2.544,-0.442c4.136,0 7.54,3.403 7.54,7.539c0,3.004 -1.796,5.734 -4.556,6.923l-0.008,0Z" style="fill:#3755be;fill-rule:nonzero;"/><path d="M182.08,508.128c-3.527,2.16 -17.785,1.975 -17.785,1.975c0,0 6.41,-12.707 9.973,-14.867c1.212,-0.775 2.621,-1.186 4.06,-1.186c4.136,0 7.539,3.403 7.539,7.539c0,2.697 -1.447,5.196 -3.787,6.539Z" style="fill:#3755be;fill-rule:nonzero;"/><path d="M164.251,447.479c2.707,3.165 16.286,7.424 16.286,7.424c0,0 -2.125,-14.108 -4.832,-17.23c-1.432,-1.674 -3.528,-2.639 -5.732,-2.639c-4.137,0 -7.542,3.404 -7.542,7.542c0,1.797 0.643,3.537 1.811,4.903l0.009,0Z" style="fill:#3755be;fill-rule:nonzero;"/><path d="M153.202,481.471c3.527,2.205 17.759,2.214 17.759,2.214c0,0 -6.243,-12.786 -9.77,-14.991c-1.174,-0.707 -2.52,-1.081 -3.891,-1.081c-4.136,0 -7.539,3.403 -7.539,7.539c0,2.554 1.297,4.94 3.441,6.328l0,-0.009Z" style="fill:#3755be;fill-rule:nonzero;"/><path d="M147.003,515.984c3.104,2.769 17.133,5.185 17.133,5.185c0,0 -3.986,-13.658 -7.054,-16.427c-1.368,-1.178 -3.115,-1.827 -4.92,-1.827c-4.136,0 -7.539,3.404 -7.539,7.54c0,2.102 0.879,4.112 2.424,5.538l-0.044,-0.009Z" style="fill:#3755be;fill-rule:nonzero;"/><path d="M869.511,276.7c-1.43,-1.098 -3.104,-1.832 -4.88,-2.14c-1.87,-0.43 -3.78,-0.7 -5.68,-1l-24.62,-3.55c-2.485,-0.461 -5.02,-0.596 -7.54,-0.4c-2.553,0.209 -4.917,1.435 -6.56,3.4c-0.734,0.905 -1.136,2.035 -1.14,3.2c0.137,1.173 0.519,2.304 1.12,3.32c0.238,0.475 0.442,0.966 0.61,1.47c0.236,1.131 0.529,2.249 0.88,3.35c0.109,0.238 0.25,0.46 0.42,0.66c0.004,0.057 0.004,0.113 0,0.17c-0.27,1.38 0.6,2.82 0.21,4.15c-0.34,1.14 -1.45,1.83 -2.15,2.78c-0.953,1.375 -0.992,3.195 -0.1,4.61c0.75,1.16 2.11,1.95 2.5,3.28c0.51,1.75 -0.87,3.44 -2.1,4.79c-2.263,2.485 -4.354,5.121 -6.26,7.89c-0.536,0.681 -0.881,1.492 -1,2.35c-0.11,1.74 1.56,3.27 1.27,5c-0.23,1.36 -1.56,2.19 -2.71,3c-4.25,2.8 -7.66,7.3 -8,12.39c-1.091,-8.098 -4.447,-15.725 -9.68,-22c-1.43,-1.72 -3,-3.45 -3.59,-5.63c-0.22,-0.87 -0.26,-1.8 -0.56,-2.64c-1,-2.65 -4.18,-3.79 -5.57,-6.23c-1,-1.72 -1,-3.93 -2.24,-5.44c-1.24,-1.51 -3.19,-1.85 -4.26,-3.31c-0.534,-0.989 -0.989,-2.019 -1.36,-3.08c-0.449,-0.865 -1.08,-1.623 -1.85,-2.22c-0.147,-0.118 -0.301,-0.228 -0.46,-0.33c0.336,-0.3 0.529,-0.73 0.53,-1.18c0,-1.17 -1.16,-1.94 -2.17,-2.52c-1.3,-0.74 -2.57,-1.54 -3.81,-2.37c1.352,-0.63 2.525,-1.589 3.41,-2.79c1.11,-1.791 1.569,-3.91 1.3,-6c-0.068,-1.686 -0.698,-3.303 -1.79,-4.59c-0.63,-0.67 -1.42,-1.15 -2.08,-1.78c-1.71,-1.67 -2.29,-4.14 -3,-6.42c-0.94,-3 -2.41,-6.15 -5.15,-7.74c-1.32,-0.77 -2.86,-1.13 -4.15,-1.94c-1.29,-0.81 -2.37,-2.34 -1.92,-3.81c0.3,-1 1.23,-1.69 1.86,-2.54c1.555,-2.273 0.984,-5.419 -1.27,-7c-0.74,-0.47 -1.65,-0.88 -1.8,-1.74c-1.179,-0.306 -2.083,-1.265 -2.32,-2.46c-0.225,-1.176 -0.225,-2.384 0,-3.56c0.26,-1.86 0.517,-3.713 0.77,-5.56c0.889,0.37 1.891,0.37 2.78,0c0.865,1.404 1.87,2.718 3,3.92c3.045,3.596 5.417,7.712 7,12.15c0.57,1.6 1.15,3.39 2.63,4.24c0.51,0.29 1.09,0.44 1.59,0.75c0.617,0.43 1.146,0.973 1.56,1.6c1.2,1.59 2.4,3.17 3.59,4.76l0.06,0.24c0.032,0.141 0.086,0.276 0.16,0.4c0.221,0.249 0.528,0.406 0.86,0.44c3.68,0.85 7.81,1.63 11,-0.38c2.88,-1.8 4.14,-5.36 6.58,-7.74c1.73,-1.69 4.18,-3 4.67,-5.38c-0.584,-0.18 -1.158,-0.39 -1.72,-0.63c0.5,-0.5 1,-1.08 1.68,-1.74c0.988,-0.967 1.879,-2.029 2.66,-3.17c0.844,-1.408 1.516,-2.912 2,-4.48c1.927,-5.493 3.86,-10.99 5.8,-16.49c0.92,-2.6 1.84,-5.22 3,-7.75c1.2,-2.74 2.62,-5.37 3.93,-8.06c3.381,-6.996 5.99,-14.339 7.78,-21.9c0.317,-1.032 0.423,-2.117 0.31,-3.19c-0.28,-1.73 -1.59,-3.09 -2.84,-4.32c-1.257,-1.361 -2.689,-2.548 -4.26,-3.53c-1.592,-0.99 -3.517,-1.3 -5.34,-0.86c-2.56,0.75 -4.17,3.37 -4.76,6c-0.59,2.63 -0.37,5.34 -0.62,8c-0.36,3.85 -1.68,7.57 -2,11.43c-0.17,2.23 0,4.49 -0.27,6.72c-0.492,2.918 -1.509,5.724 -3,8.28c-3.243,6.097 -7.634,11.509 -12.93,15.94c-0.61,0.51 -1.24,1 -1.84,1.55c0,-0.43 0.07,-0.87 0.13,-1.3c-0.435,0.113 -0.86,0.264 -1.27,0.45c0.05,-0.505 -0.001,-1.015 -0.15,-1.5c-0.8,-2.39 -4.36,-3 -5,-5.43c-0.107,-0.601 -0.163,-1.21 -0.17,-1.82c-0.21,-2.13 -1.66,-3.93 -2.16,-6c-0.46,-1.91 -0.11,-4 -1,-5.77c-0.758,-1.107 -1.652,-2.115 -2.66,-3c-1.202,-1.372 -2.068,-3.006 -2.53,-4.77c-0.13,-0.49 -0.25,-1 -0.39,-1.49c0.152,-1.11 0.028,-2.24 -0.36,-3.29c-0.91,-2.26 -3.26,-3.71 -4.11,-6c-0.66,-1.78 -0.37,-4 -1.62,-5.38c-0.664,-0.659 -1.477,-1.15 -2.37,-1.43c-4.576,-1.782 -9.38,-2.917 -14.27,-3.37c-2.74,-0.25 -5.76,-0.39 -7.72,-2.32c-2.29,-2.24 -2.4,-6.27 -5.08,-8c-2.36,-1.53 -5.7,-0.4 -7.53,1.75c-0.275,0.316 -0.529,0.65 -0.76,1c-0.334,-1.34 -0.405,-2.733 -0.21,-4.1c0,-0.34 0.07,-0.69 0.1,-1c4.514,-1.475 8.358,-4.511 10.84,-8.56c2.482,-4.049 0,0 0,0.06l0.12,0.31c0.29,0.73 0.75,1.43 1.43,1.51c0.452,-0.005 0.89,-0.164 1.24,-0.45c0.603,-0.419 1.16,-0.902 1.66,-1.44c0.253,-0.28 0.493,-0.57 0.72,-0.87c0.461,-0.624 0.856,-1.295 1.18,-2c0.497,-1.061 0.834,-2.19 1,-3.35c0.18,-1.16 0.2,-2.35 0.4,-3.51c0.187,-0.898 0.431,-1.783 0.73,-2.65c0.1,-0.29 0.2,-0.58 0.29,-0.87c0.09,-0.29 0.22,-0.68 0.32,-1c0.626,-2.057 0.962,-4.191 1,-6.34c0,-0.36 0,-0.72 0,-1.08c-0.074,-2.833 -1.285,-5.52 -3.36,-7.45c-1.72,-1.41 -4,-2 -5.26,-3.91c-0.82,-1.28 -1,-2.93 -1.48,-4.43c-1.057,-3.656 -4.113,-6.405 -7.86,-7.07c-2.215,-0.243 -4.441,0.369 -6.22,1.71l-0.14,0.11c-0.992,0.757 -1.833,1.693 -2.48,2.76c-1.321,-0.364 -2.531,-1.051 -3.52,-2c-1,-0.93 -1.77,-2.1 -2.78,-3c-1.92,-1.758 -4.654,-2.334 -7.12,-1.5c-2.531,1.014 -4.427,3.185 -5.09,5.83c-0.55,2.06 -0.45,4.43 -1.6,6.15c-0.89,1.34 -2.35,2 -3.37,3.22c-0.634,0.772 -1.067,1.69 -1.26,2.67c-0.121,0.548 -0.178,1.109 -0.17,1.67c0,0.25 0,0.5 0.06,0.74c0,0 0,0.08 0,0.12c0.035,0.274 0.092,0.545 0.17,0.81c0.284,1.014 0.794,1.95 1.49,2.74c0.66,0.756 1.485,1.351 2.41,1.74c0.379,0.147 0.766,0.271 1.16,0.37l1.19,0.27l0.42,0.1c-2.908,5.461 -3.116,11.975 -0.56,17.61c0,0.28 -0.07,0.56 -0.1,0.84c-0.163,3.938 0.011,7.882 0.52,11.79c0.14,1.55 0.22,3.26 -0.73,4.49c-0.433,0.484 -0.919,0.917 -1.45,1.29c0.54,-0.7 1.09,-1.39 1.65,-2.08c-1.41,-1.42 -3.64,-1.6 -5.64,-1.46c-3.871,0.289 -7.629,1.437 -11,3.36c-2.24,1.29 -4.54,3 -7.1,2.7c-1.51,-0.17 -3,-1 -4.47,-0.6c-0.826,0.338 -1.598,0.796 -2.29,1.36c-0.547,0.392 -1.207,0.596 -1.88,0.58c-1.57,-1.93 -4,-3.24 -5.88,-4.81c-2.14,-1.905 -4.098,-4.004 -5.85,-6.27c-3.24,-3.91 -6.47,-7.83 -9.65,-11.78c-2.68,-3.32 -5.43,-6.91 -5.9,-11.16c-0.048,-0.422 -0.071,-0.846 -0.07,-1.27c0.065,-2.019 0.32,-4.028 0.76,-6c0.119,-0.476 0.119,-0.974 0,-1.45c-0.3,-1 -1.45,-1.37 -2.44,-1.59c0.13,-0.77 0.22,-1.56 0.27,-2.31c0.56,-8.6 -0.05,-17.34 1.77,-25.76c0.69,-3.24 1.82,-6.52 4.15,-8.87c3.65,-3.69 9.76,-4.58 12.56,-8.95c2.34,-3.64 1.41,-8.79 -1.53,-12c-2.94,-3.21 -7.47,-4.52 -11.78,-4.36c-1.209,-0.042 -2.404,0.279 -3.43,0.92c-0.959,0.852 -1.677,1.942 -2.08,3.16l-4.29,10.43c-1.244,2.715 -2.293,5.516 -3.14,8.38c-1.2,4.38 -1.47,9 -2.42,13.42c0,3.4 -2.19,7.64 -3.39,10.77c-1.34,3.52 -2.79,7 -4,10.59c-0.3,0.9 -1.35,3.57 -2,6c-0.246,0.143 -0.474,0.314 -0.68,0.51c-0.522,0.669 -0.997,1.374 -1.42,2.11c-0.91,1.2 -2.39,1.84 -3.39,3c-1,1.16 -1.21,3.29 0.18,3.87c0.282,0.095 0.574,0.159 0.87,0.19c0.182,0.015 0.363,0.045 0.54,0.09c1.5,0.42 2.09,2.31 1.87,3.87c-0.22,1.56 -1,3 -1.13,4.56c-0.27,2.76 1.35,5.33 2.91,7.65c1.615,2.515 3.399,4.917 5.34,7.19c1.41,1.58 3,3 4.42,4.52c5.41,5.56 9.71,12.06 14.57,18.1c1.748,2.28 3.736,4.365 5.93,6.22c1.432,1.12 2.932,2.152 4.49,3.09l8.36,5.3c0.948,0.695 2.021,1.201 3.16,1.49c0.372,0.05 0.748,0.05 1.12,0c0.05,0.25 0.09,0.49 0.15,0.74c0.65,2.62 2.08,5 2.24,7.67c0.16,2.67 -0.08,5.4 0.11,8.1c0.18,2.49 0.73,5 0.87,7.45c0.28,4.72 -0.88,9.38 -2,14c-1.69,6.76 -2.71,13.66 -6,19.79c-0.92,1.69 -2,3.41 -2,5.34c0,0.23 0,0.47 0.06,0.7l-1.5,0.85c-0.44,0.25 -0.88,0.5 -1.28,0.76c-1.9,1.24 -3.93,2.61 -4.71,4.75c-0.63,1.73 -0.34,3.71 -1.1,5.39c-0.036,0.075 -0.076,0.149 -0.12,0.22c-0.8,1.56 -2.39,2.72 -2.75,4.43c-0.27,1.31 0.25,2.7 0,4l0,0.05c-0.228,0.653 -0.408,1.321 -0.54,2c-0.011,0.222 0.009,0.444 0.06,0.66c0.191,0.758 0.61,1.438 1.2,1.95c0.36,0.346 0.752,0.657 1.17,0.93c0.427,0.28 0.867,0.54 1.32,0.78l0.26,0.14c0.38,0.2 0.76,0.39 1.15,0.57l0.26,0.11c0.45,0.2 0.91,0.38 1.37,0.54l0.32,0.1c0.36,0.12 0.73,0.23 1.1,0.32l0.25,0.08l0.23,0.05l1,0.21l0.37,0.07c0.44,0.073 0.89,0.133 1.35,0.18l0.4,0c0.34,0 0.67,0.05 1,0.06l1.83,0c0.47,0 0.94,-0.07 1.41,-0.13l0.15,0c0.42,-0.06 0.84,-0.13 1.26,-0.22l0.32,-0.07c0.39,-0.09 0.78,-0.18 1.17,-0.3l0.21,-0.06c0.47,-0.14 0.94,-0.29 1.4,-0.47c1.592,-0.654 3.136,-1.419 4.62,-2.29c1,-0.55 2,-1.11 3,-1.62c0.742,-0.374 1.503,-0.708 2.28,-1c1.891,-0.808 3.949,-1.151 6,-1c1.012,0.138 2.014,0.342 3,0.61c0,0.11 0,0.22 0,0.33c0.813,4.8 1.617,9.6 2.41,14.4c1.309,-0.942 2.694,-1.775 4.14,-2.49c-0.27,0.725 -0.449,1.481 -0.53,2.25c-0.06,0.595 -0.06,1.195 0,1.79c0.09,0.95 0.29,2 -0.28,2.75c-0.35,0.46 -1,0.72 -1.19,1.24c-0.139,0.532 -0.173,1.085 -0.1,1.63c-0.084,1.279 -1.103,2.314 -2.38,2.42c0.587,1.651 -0.04,3.505 -1.51,4.46c-0.418,0.201 -0.808,0.457 -1.16,0.76c-0.342,0.442 -0.572,0.96 -0.67,1.51c-1.321,4.952 -4.04,9.42 -7.83,12.87c-1.422,1.117 -2.72,2.385 -3.87,3.78c-0.711,1.081 -1.298,2.238 -1.75,3.45c-2.667,6.52 -5.373,13.043 -8.12,19.57c-1.52,3.65 -3,7.36 -3.48,11.29c-1.2,10.78 -10.8,19.92 -9,30.62c0.364,2.673 1.442,5.198 3.12,7.31c2,2.41 5,3.79 8,4.91c7.71,3 15.84,4.64 23.94,6.29l12.72,2.61c2.496,0.574 5.029,0.975 7.58,1.2c3.07,0.21 6.22,-0.08 9.21,0.7c1.85,0.48 3.62,1.37 5.53,1.47c1.64,0.09 3.66,-0.26 4.63,1.08c0.97,1.34 0.22,3.11 1.14,4.3c1.48,1.89 5.09,0 6.7,1.78c0.44,0.684 0.777,1.428 1,2.21c0.245,0.483 0.585,0.912 1,1.26c0.098,0.564 0.138,1.137 0.12,1.71c-0.209,2.322 -0.692,4.612 -1.44,6.82c-1.2,4.06 -2.397,8.123 -3.59,12.19c-0.456,1.436 -0.79,2.908 -1,4.4c-0.075,0.725 -0.075,1.455 0,2.18c0.21,2.21 1.48,4.49 3.59,5.21c1.636,0.433 3.378,0.218 4.86,-0.6c1.431,-0.747 2.772,-1.653 4,-2.7c2.214,-1.675 4.16,-3.678 5.77,-5.94c5,-7.48 3.38,-17.6 6.89,-25.87c2.33,-5.52 6.87,-10 8.38,-15.82c0.353,-1.107 0.395,-2.291 0.12,-3.42c-0.63,-2 -2.76,-3.14 -4.75,-3.86l-0.09,0c-1.635,-0.582 -3.305,-1.06 -5,-1.43c-0.42,-0.09 -0.85,-0.16 -1.28,-0.23c-0.952,-0.774 -1.708,-1.761 -2.21,-2.88c-0.078,-0.595 -0.237,-1.177 -0.47,-1.73c-0.322,-0.483 -0.859,-0.782 -1.44,-0.8c-1,-0.1 -2.34,0.26 -3.43,0.18c-2.23,-0.16 -3.71,-2.35 -5.71,-3.36c-2,-1.01 -4.17,-0.76 -6.3,-0.61c-0.762,0.104 -1.537,0.057 -2.28,-0.14c-0.888,-0.409 -1.7,-0.967 -2.4,-1.65c-2.493,-1.94 -5.761,-2.597 -8.81,-1.77c-0.957,0.386 -1.97,0.616 -3,0.68c-1.95,-0.11 -3.33,-1.85 -4.77,-3.17c-3.94,-3.61 -9.55,-4.56 -14.33,-6.93c-0.731,-0.272 -1.342,-0.797 -1.72,-1.48c-0.55,-1.36 0.69,-2.72 1.81,-3.65l8.22,-6.83c9,-7.48 20.25,-13.11 24.43,-24.08c0.436,-1.471 1.112,-2.859 2,-4.11c0.323,-0.382 0.697,-0.718 1.11,-1c1.818,-1.178 4.023,-1.608 6.15,-1.2c2.593,0.58 5.051,1.653 7.24,3.16c3.58,2.167 7.063,4.5 10.45,7c3.355,2.397 6.545,5.017 9.55,7.84c5.25,5 9.62,10.93 14.51,16.32c4.89,5.39 10.48,10.42 17.27,13c6.79,2.58 15,2.47 20.83,-1.86c6.73,-5 8.89,-13.94 10.59,-22.14c3.75,-3.62 4.88,-9.13 6.71,-14c1.15,-3.09 2.62,-6 3.86,-9.08c1.48,-3.62 2.64,-7.36 3.8,-11.09c1.315,-3.746 2.207,-7.626 2.66,-11.57c0.48,-6.23 -1.19,-12.86 0.56,-18.71c2.31,-0.51 4.41,-1.81 6.68,-2.57c3.38,-1.11 7,-0.93 10.58,-0.91l0.23,0c1.233,0.131 2.475,-0.162 3.52,-0.83c1.2,-1 1.39,-2.71 1.45,-4.26c0.14,-3.83 -0.1,-8.13 -2.97,-10.61Zm-144.89,-170.58c-0.827,0.205 -1.683,0.265 -2.53,0.18l2.53,-0.18Z" style="fill:url(#_Linear1);fill-rule:nonzero;"/><path d="M728.561,169.38c-1.211,1.028 -2.63,1.782 -4.16,2.21l-7.09,2.54c-3.85,1.38 -7.87,2.77 -11.93,2.27c-2.27,-0.28 -12,-1.71 -13.47,-3.48c-2.24,-2.74 5.61,-6.77 8.29,-9.08c0.607,-0.437 1.17,-0.932 1.68,-1.48c1,-1.22 0.87,-2.93 0.73,-4.47c-0.509,-3.901 -0.683,-7.839 -0.52,-11.77c0.078,-0.937 0.211,-1.869 0.4,-2.79c1,-4.6 5.28,-2.92 8.66,-1.7c4.069,1.322 8.003,3.026 11.75,5.09c1.141,0.588 2.133,1.43 2.9,2.46c1.48,2.24 0.89,5.18 0.65,8c-0.21,2.19 -0.2,4.29 1.17,5.88c0.689,0.608 1.322,1.277 1.89,2c0.655,1.489 0.269,3.243 -0.95,4.32Z" style="fill:#be6f72;fill-rule:nonzero;"/><path d="M630.621,97.31c1,-4.43 1.22,-9 2.42,-13.39c0.847,-2.854 1.896,-5.645 3.14,-8.35l4.41,-10.29c0.403,-1.215 1.121,-2.302 2.08,-3.15c1.028,-0.637 2.221,-0.957 3.43,-0.92c4.31,-0.16 8.84,1.18 11.78,4.35c2.94,3.17 3.87,8.3 1.53,11.93c-2.8,4.37 -8.91,5.25 -12.56,8.93c-2.33,2.35 -3.46,5.62 -4.15,8.85c-1.82,8.4 -1.21,17.11 -1.77,25.69c-0.18,2.67 -0.7,5.72 -3,7.1c-1.39,0.681 -2.936,0.981 -4.48,0.87l-6.56,0.11c-1.1,0 -5.09,0.69 -5.82,-0.14c-1.28,-1.45 1.64,-8.67 2.17,-10.28c1.18,-3.57 2.63,-7.05 4,-10.56c1.19,-3.13 3.38,-7.36 3.38,-10.75Z" style="fill:#be6f72;fill-rule:nonzero;"/><path d="M766.071,411.47c-1.51,5.78 -6.05,10.28 -8.38,15.79c-3.51,8.25 -1.93,18.34 -6.89,25.8c-1.609,2.266 -3.555,4.272 -5.77,5.95c-1.228,1.044 -2.57,1.947 -4,2.69c-1.482,0.818 -3.224,1.033 -4.86,0.6c-2.11,-0.72 -3.38,-3 -3.59,-5.2c-0.075,-0.721 -0.075,-1.449 0,-2.17c0.21,-1.489 0.545,-2.957 1,-4.39c1.2,-4.047 2.397,-8.1 3.59,-12.16c0.747,-2.202 1.23,-4.484 1.44,-6.8c0.13,-2.52 -1.47,-5.8 -0.79,-8.15c0.31,-1.06 1.47,-2 2,-2.89c0.752,-1.281 1.331,-2.656 1.72,-4.09c0.82,-2.79 1.38,-5.77 3.1,-8.12c1.122,-1.394 2.435,-2.622 3.9,-3.65c1.081,-0.948 2.348,-1.66 3.72,-2.09c1.331,-0.234 2.697,-0.169 4,0.19c1.696,0.362 3.367,0.837 5,1.42l0.09,0c2,0.72 4.12,1.83 4.75,3.85c0.306,1.121 0.296,2.305 -0.03,3.42Z" style="fill:#3f3d56;fill-rule:nonzero;"/><path d="M872.471,288.53c-0.06,1.55 -0.25,3.28 -1.45,4.25c-1.045,0.668 -2.287,0.961 -3.52,0.83l-0.27,0c-3.57,0 -7.2,-0.2 -10.58,0.91c-2.57,0.85 -4.93,2.41 -7.61,2.72c-3.69,0.42 -7.16,-1.6 -10.43,-3.36c-3.079,-1.659 -6.24,-3.161 -9.47,-4.5c-2.12,-0.87 -6.45,-1.43 -7.47,-3.75c-0.35,-1.098 -0.643,-2.213 -0.88,-3.34c-0.168,-0.504 -0.372,-0.995 -0.61,-1.47c-0.6,-1.013 -0.981,-2.141 -1.12,-3.31c0.004,-1.165 0.406,-2.295 1.14,-3.2c1.647,-1.95 4.006,-3.163 6.55,-3.37c2.52,-0.196 5.055,-0.061 7.54,0.4l24.62,3.54c1.9,0.27 3.81,0.54 5.68,1c1.776,0.308 3.45,1.042 4.88,2.14c2.91,2.44 3.15,6.73 3,10.51Z" style="fill:#3f3d56;fill-rule:nonzero;"/><path d="M850.831,294.93c-3,6.33 -0.84,13.82 -1.38,20.82c-0.453,3.934 -1.346,7.805 -2.66,11.54c-1.16,3.72 -2.32,7.45 -3.8,11.06c-1.24,3 -2.71,6 -3.86,9.06c-1.83,4.88 -3,10.37 -6.71,14c-1.7,8.18 -3.86,17.12 -10.59,22.08c-5.85,4.32 -14,4.47 -20.83,1.86c-6.83,-2.61 -12.38,-7.61 -17.27,-13c-4.89,-5.39 -9.26,-11.26 -14.51,-16.28c-3.009,-2.824 -6.206,-5.44 -9.57,-7.83c-3.387,-2.46 -6.87,-4.773 -10.45,-6.94c-2.192,-1.5 -4.649,-2.569 -7.24,-3.15c-2.127,-0.408 -4.332,0.022 -6.15,1.2c-0.413,0.282 -0.787,0.618 -1.11,1c-0.89,1.246 -1.566,2.632 -2,4.1c-4.2,10.94 -15.47,16.56 -24.47,24.02l-8.22,6.81c-1.12,0.93 -2.36,2.29 -1.81,3.64c0.378,0.683 0.989,1.208 1.72,1.48c4.78,2.36 10.39,3.31 14.33,6.91c1.44,1.32 2.82,3.06 4.77,3.16c1.03,-0.06 2.043,-0.287 3,-0.67c3.048,-0.825 6.313,-0.172 8.81,1.76c0.7,0.683 1.512,1.241 2.4,1.65c0.743,0.197 1.518,0.244 2.28,0.14c2.13,-0.15 4.39,-0.34 6.3,0.61c1.91,0.95 3.48,3.19 5.71,3.35c1.09,0.08 2.39,-0.28 3.43,-0.18c0.581,0.018 1.118,0.317 1.44,0.8c0.233,0.55 0.391,1.128 0.47,1.72c0.41,1.41 1.79,2.27 2.69,3.43c1.38,1.78 1.58,4.2 1.44,6.45c-0.453,7.033 -3.59,13.63 -8.76,18.42c-1.468,1.501 -3.341,2.543 -5.39,3c-2.099,0.439 -4.257,-0.519 -5.34,-2.37c-0.223,-0.779 -0.56,-1.52 -1,-2.2c-1.61,-1.77 -5.22,0.11 -6.7,-1.78c-0.92,-1.18 -0.26,-3.07 -1.14,-4.29c-0.88,-1.22 -3,-1 -4.63,-1.07c-1.91,-0.1 -3.68,-1 -5.53,-1.47c-3,-0.78 -6.14,-0.49 -9.21,-0.7c-2.551,-0.225 -5.084,-0.626 -7.58,-1.2l-12.72,-2.6c-8.1,-1.65 -16.23,-3.32 -23.94,-6.27c-2.95,-1.12 -5.92,-2.5 -8,-4.9c-1.677,-2.109 -2.755,-4.631 -3.12,-7.3c-1.81,-10.67 7.79,-19.79 9,-30.54c0.43,-3.92 2,-7.62 3.48,-11.26c2.713,-6.507 5.42,-13.017 8.12,-19.53c0.437,-1.213 1.007,-2.373 1.7,-3.46c1.151,-1.392 2.448,-2.656 3.87,-3.77c3.789,-3.438 6.508,-7.897 7.83,-12.84c0.098,-0.55 0.328,-1.068 0.67,-1.51c0.354,-0.297 0.744,-0.549 1.16,-0.75c1.465,-0.954 2.092,-2.802 1.51,-4.45c1.277,-0.106 2.296,-1.141 2.38,-2.42c-0.073,-0.541 -0.039,-1.092 0.1,-1.62c0.24,-0.52 0.84,-0.78 1.19,-1.24c0.57,-0.75 0.37,-1.8 0.28,-2.74c-0.06,-0.595 -0.06,-1.195 0,-1.79c0.219,-2.117 1.167,-4.094 2.68,-5.59c2.39,-2.35 5.79,-1.74 9.09,-2.3c3.292,-0.71 6.507,-1.739 9.6,-3.07c8.677,-3.419 17.813,-5.532 27.11,-6.27c9.343,-0.735 18.728,0.76 27.38,4.36c1.259,0.51 2.446,1.182 3.53,2c0.77,0.593 1.401,1.348 1.85,2.21c0.369,1.059 0.824,2.085 1.36,3.07c1.07,1.46 3.09,1.93 4.26,3.31c1.17,1.38 1.27,3.71 2.24,5.42c1.39,2.44 4.61,3.57 5.57,6.22c0.3,0.84 0.34,1.76 0.56,2.63c0.54,2.18 2.16,3.9 3.59,5.62c5.242,6.27 8.599,13.9 9.68,22c0.32,-5.07 3.73,-9.56 8,-12.36c1.15,-0.75 2.48,-1.58 2.71,-2.94c0.29,-1.72 -1.38,-3.25 -1.27,-5c0.121,-0.854 0.466,-1.662 1,-2.34c1.906,-2.762 3.997,-5.392 6.26,-7.87c1.23,-1.35 2.61,-3 2.1,-4.78c-0.39,-1.33 -1.75,-2.11 -2.5,-3.27c-0.893,-1.411 -0.854,-3.229 0.1,-4.6c0.7,-0.95 1.81,-1.64 2.15,-2.77c0.39,-1.33 -0.48,-2.77 -0.21,-4.14c0.365,-1.097 1.092,-2.038 2.06,-2.67c1.327,-1.208 2.835,-2.2 4.47,-2.94c2.64,-1 5.58,-0.63 8.38,-0.24c4.68,0.65 9.93,1.65 12.57,5.57c1.69,2.45 2.55,6.17 1.29,8.79Z" style="fill:#65617d;fill-rule:nonzero;"/><path d="M872.471,288.53c-0.06,1.55 -0.25,3.28 -1.45,4.25c-1.045,0.668 -2.287,0.961 -3.52,0.83l-0.27,0c0.41,-2.08 2.94,-3.27 3.38,-5.38c0.152,-1.31 -0.247,-2.625 -1.1,-3.63c-2.14,-2.89 -5.58,-4.49 -9,-5.66c-9.661,-3.312 -20.013,-4.087 -30.06,-2.25c-2.732,0.445 -5.39,1.263 -7.9,2.43c-0.832,0.52 -1.633,1.088 -2.4,1.7c-0.6,-1.013 -0.981,-2.141 -1.12,-3.31c0.004,-1.165 0.406,-2.295 1.14,-3.2c1.647,-1.95 4.006,-3.163 6.55,-3.37c2.52,-0.196 5.055,-0.061 7.54,0.4l24.62,3.54c1.9,0.27 3.81,0.54 5.68,1c1.776,0.308 3.45,1.042 4.88,2.14c2.94,2.44 3.18,6.73 3.03,10.51Z" style="fill-opacity:0.0980392;fill-rule:nonzero;"/><path d="M766.071,411.47c-1.51,5.78 -6.05,10.28 -8.38,15.79c-3.51,8.25 -1.93,18.34 -6.89,25.8c-1.609,2.266 -3.555,4.272 -5.77,5.95c-1.228,1.044 -2.57,1.947 -4,2.69c-1.482,0.818 -3.224,1.033 -4.86,0.6c-2.11,-0.72 -3.38,-3 -3.59,-5.2c-0.075,-0.721 -0.075,-1.449 0,-2.17l0.06,0.16c0.87,2.1 2.29,4.3 4.53,4.67c1.699,0.122 3.374,-0.469 4.62,-1.63c3.3,-2.65 5.22,-6.6 7.05,-10.41c1.432,-2.747 2.565,-5.641 3.38,-8.63c0.4,-1.7 0.59,-3.44 1,-5.14c1.9,-8.26 8.37,-15 9.8,-23.37c0.116,-0.576 0.143,-1.166 0.08,-1.75c-0.189,-0.762 -0.478,-1.495 -0.86,-2.18c-0.348,-0.774 -0.603,-1.586 -0.76,-2.42c2,0.72 4.12,1.83 4.75,3.85c0.258,1.123 0.203,2.296 -0.16,3.39Z" style="fill-opacity:0.0980392;fill-rule:nonzero;"/><path d="M750.971,397.13c-0.926,2.419 -2.483,4.547 -4.51,6.16c-2.847,2.169 -6.18,3.611 -9.71,4.2c-1.643,0.419 -3.368,0.398 -5,-0.06c-2.22,-0.77 -3.82,-2.85 -6.09,-3.45c-1.62,-0.44 -3.36,-0.05 -5,-0.29c-2.95,-0.41 -5.24,-2.66 -7.62,-4.46c-7.29,-5.48 -16.86,-7.25 -24.15,-12.73c-0.325,-0.199 -0.593,-0.478 -0.78,-0.81c-0.14,-0.359 -0.191,-0.747 -0.15,-1.13c0.027,-3.324 0.774,-6.603 2.19,-9.61c1.16,-2.098 2.541,-4.066 4.12,-5.87c6.53,-8 13.09,-16.06 20.91,-22.81c3.28,-2.83 6.86,-5.47 11,-6.75c2.3,-0.71 6.84,-1.38 9.64,-0.18c-0.413,0.282 -0.787,0.618 -1.11,1c-0.89,1.246 -1.566,2.632 -2,4.1c-4.21,10.95 -15.48,16.57 -24.48,24.03l-8.22,6.81c-1.12,0.93 -2.36,2.29 -1.81,3.64c0.378,0.683 0.989,1.208 1.72,1.48c4.78,2.36 10.39,3.31 14.33,6.91c1.44,1.32 2.82,3.06 4.77,3.16c1.03,-0.06 2.043,-0.287 3,-0.67c3.048,-0.825 6.313,-0.172 8.81,1.76c0.7,0.683 1.512,1.241 2.4,1.65c0.743,0.197 1.518,0.244 2.28,0.14c2.13,-0.15 4.39,-0.34 6.3,0.61c1.91,0.95 3.48,3.19 5.71,3.35c1.11,0.08 2.41,-0.3 3.45,-0.18Z" style="fill-opacity:0.0980392;fill-rule:nonzero;"/><path d="M659.001,261.41c-1.9,1.22 -3.92,2.6 -4.7,4.72c-0.64,1.73 -0.34,3.71 -1.11,5.39c-0.77,1.68 -2.5,2.85 -2.88,4.65c-0.27,1.31 0.26,2.69 0,4c-0.226,0.681 -0.41,1.376 -0.55,2.08c-0.1,1.49 1.18,2.7 2.43,3.53c5.393,3.507 12.144,4.251 18.17,2c2.67,-1 5.08,-2.63 7.64,-3.91c2.496,-1.437 5.352,-2.132 8.23,-2c1.65,0.18 3.23,0.78 4.88,1c1.653,0.327 3.365,-0.183 4.57,-1.36c0.51,-0.703 0.852,-1.514 1,-2.37c1.39,-5.49 0.76,-11.31 -0.56,-16.83c-1.32,-5.52 -3.32,-10.83 -4.73,-16.32c-1,-4.07 -1.77,-8.24 -3.44,-12.09c-1.67,-3.85 -4.48,-7.43 -8.41,-8.9c-0.31,-0.152 -0.662,-0.198 -1,-0.13c-0.252,0.105 -0.475,0.27 -0.65,0.48c-3.109,3.294 -5.451,7.235 -6.86,11.54c-1.57,4.79 -2,9.87 -3.44,14.68c-0.62,2 -1.42,4.68 -3,6.21c-1.58,1.53 -3.8,2.48 -5.59,3.63Z" style="fill:#3f3d56;fill-rule:nonzero;"/><path d="M696.711,279.11c-0.168,0.859 -0.527,1.669 -1.05,2.37c-1.203,1.181 -2.918,1.688 -4.57,1.35c-1.64,-0.2 -3.22,-0.81 -4.87,-1c-2.878,-0.133 -5.734,0.561 -8.23,2c-2.56,1.28 -5,2.87 -7.65,3.9c-3.876,1.47 -8.112,1.711 -12.13,0.69c-2.134,-0.536 -4.163,-1.429 -6,-2.64c-1.26,-0.82 -2.53,-2 -2.43,-3.53c0.14,-0.701 0.324,-1.392 0.55,-2.07c0.26,-1.31 -0.26,-2.69 0,-4c0.38,-1.8 2.12,-3 2.88,-4.66c0.76,-1.66 0.47,-3.65 1.1,-5.38c0.78,-2.13 2.81,-3.5 4.71,-4.73c1.9,-1.23 4.16,-2.17 5.68,-3.66c0.196,-0.232 0.374,-0.479 0.53,-0.74c1.096,-1.691 1.901,-3.553 2.38,-5.51c1.47,-4.82 1.87,-9.89 3.43,-14.69c1.415,-4.301 3.761,-8.238 6.87,-11.53c0.166,-0.215 0.387,-0.38 0.64,-0.48c0.338,-0.069 0.688,-0.027 1,0.12c3.92,1.48 6.73,5.06 8.41,8.91c1.68,3.85 2.39,8 3.44,12.08c1.4,5.49 3.41,10.82 4.73,16.33c1.32,5.51 1.97,11.37 0.58,16.87Z" style="fill-opacity:0.0980392;fill-rule:nonzero;"/><path d="M726.451,157.15c-9.689,3.079 -20.262,-1.696 -24.36,-11c0.078,-0.937 0.211,-1.869 0.4,-2.79c1,-4.6 5.28,-2.92 8.66,-1.7c4.069,1.322 8.003,3.026 11.75,5.09c1.141,0.588 2.133,1.43 2.9,2.46c1.48,2.21 0.89,5.15 0.65,7.94Z" style="fill-opacity:0.0980392;fill-rule:nonzero;"/><circle cx="720.411" cy="137.09" r="20" style="fill:#be6f72;"/><path d="M774.681,286.55c0,1.66 -2.25,2.19 -3.92,2.1c-6,-0.35 -11.87,-2 -17.81,-1.5c-7.51,0.68 -14.41,4.83 -21.94,5.21c-2.9,0.15 -5.85,-0.28 -8.71,0.25c-3.7,0.69 -7,2.94 -10.77,3.26c-3.27,0.28 -6.5,-0.95 -9.77,-0.82c-2.286,0.136 -4.515,0.771 -6.53,1.86c0.219,-2.117 1.167,-4.094 2.68,-5.59c2.39,-2.35 5.79,-1.74 9.09,-2.3c3.292,-0.71 6.507,-1.739 9.6,-3.07c8.677,-3.419 17.813,-5.532 27.11,-6.27c9.337,-0.743 18.718,0.742 27.37,4.33c1.259,0.51 2.446,1.182 3.53,2c0.055,0.175 0.078,0.357 0.07,0.54Z" style="fill-opacity:0.0980392;fill-rule:nonzero;"/><path d="M711.161,173.61l-8.1,-3l-3.42,-1.26c-1.394,-0.584 -2.861,-0.974 -4.36,-1.16c-3.92,-0.3 -7.61,2.31 -9.7,5.64c-2.09,3.33 -2.88,7.3 -3.55,11.17c-0.92,5.293 -1.7,10.607 -2.34,15.94c-0.689,4.816 -1.04,9.675 -1.05,14.54c0.23,12.38 2.85,24.59 5.73,36.64c1.411,5.343 2.476,10.771 3.19,16.25c0.24,2.26 0.35,4.53 0.59,6.8c0.26,2.55 0.68,5.07 1.1,7.6l2.41,14.37c3,-2.13 6.41,-4 10.1,-4.11c3.27,-0.12 6.51,1.1 9.77,0.82c3.75,-0.31 7.07,-2.56 10.77,-3.25c2.86,-0.53 5.81,-0.11 8.72,-0.25c7.52,-0.38 14.43,-4.54 21.93,-5.21c5.95,-0.54 11.86,1.14 17.82,1.49c1.66,0.1 3.91,-0.43 3.91,-2.1c0,-1.16 -1.16,-1.93 -2.17,-2.51c-4.761,-2.867 -9.291,-6.1 -13.55,-9.67c-3.94,-3.12 -7.94,-6.32 -10.65,-10.54c-6.53,-10.15 -4.29,-23.88 -9.86,-34.59c-4.53,-8.7 0,-20.1 0,-29.91c0,-4.89 0,-9.84 -1.15,-14.59c-0.719,-2.657 -1.614,-5.262 -2.68,-7.8l-3.89,-9.85c-0.081,-0.288 -0.24,-0.548 -0.46,-0.75c-0.261,-0.18 -0.573,-0.275 -0.89,-0.27c-2.335,-0.14 -4.641,0.599 -6.46,2.07c-1.83,1.49 -3,3.63 -4.8,5.18c-1.97,1.71 -4.51,3.21 -6.96,2.31Z" style="fill:#e3e8f4;fill-rule:nonzero;"/><path d="M724.231,167.93c0.64,-2.74 1.33,-5.59 3.16,-7.73c1.83,-2.14 5.17,-3.27 7.53,-1.74c2.68,1.74 2.79,5.76 5.08,8c2,1.92 5,2.07 7.72,2.32c4.891,0.445 9.695,1.576 14.27,3.36c0.892,0.277 1.705,0.764 2.37,1.42c1.25,1.42 1,3.6 1.62,5.37c0.85,2.28 3.2,3.73 4.11,6c1,2.52 0,5.34 -0.84,7.93c-1.51,4.65 -2.46,9.48 -3.93,14.15c-1.47,4.67 -3.56,9.27 -7,12.79c-1.52,1.56 -3.78,3 -5.78,2.07l-0.77,5.55c-0.225,1.173 -0.225,2.377 0,3.55c0.237,1.195 1.141,2.154 2.32,2.46c0.15,0.86 1.06,1.27 1.8,1.74c1.361,0.931 2.178,2.478 2.178,4.127c0,1.028 -0.317,2.032 -0.908,2.873c-0.63,0.85 -1.56,1.52 -1.86,2.53c-0.45,1.46 0.62,3 1.92,3.8c1.3,0.8 2.83,1.17 4.15,1.94c2.74,1.58 4.21,4.69 5.15,7.71c0.7,2.28 1.28,4.75 3,6.41c0.66,0.63 1.45,1.11 2.08,1.77c1.09,1.288 1.72,2.904 1.79,4.59c0.274,2.09 -0.186,4.211 -1.3,6c-2,2.86 -5.73,3.71 -9,5c-5.31,2.18 -9.68,6.08 -14.36,9.4c-1.906,1.535 -4.152,2.591 -6.55,3.08c-3.24,0.43 -6.43,-1 -9.69,-1.13c-1.95,0.018 -3.891,0.273 -5.78,0.76l-6,1.3c0.32,-4.65 -2.24,-9.31 -3.67,-13.74c-2.7,-8.34 -3.2,-17.26 -2.56,-26c0.64,-8.74 2.42,-17.36 4.18,-25.94c1.23,-6 1.11,-12.27 3,-18.1c1.77,-5.61 4.3,-11 5.23,-16.84c1.52,-9.45 -4.8,-17.46 -2.66,-26.78Z" style="fill:#3f3d56;fill-rule:nonzero;"/><path d="M769.721,186.42c0.552,1.016 0.94,2.113 1.15,3.25c0.462,1.761 1.329,3.391 2.53,4.76c1.006,0.887 1.899,1.895 2.66,3c0.92,1.74 0.57,3.86 1,5.76c0.5,2.07 1.95,3.87 2.16,6c0.006,0.61 0.063,1.219 0.17,1.82c0.65,2.42 4.21,3 5,5.42c0.53,1.57 -0.38,3.28 -0.21,4.93c0.124,0.51 0.155,1.039 0.09,1.56c-0.226,0.589 -0.623,1.098 -1.14,1.46c-3.309,3.161 -5.601,7.239 -6.58,11.71c-0.964,4.447 -1.47,8.98 -1.51,13.53l-3.91,-5.17c-0.414,-0.627 -0.943,-1.17 -1.56,-1.6c-0.5,-0.3 -1.08,-0.45 -1.59,-0.75c-1.48,-0.84 -2.06,-2.62 -2.63,-4.22c-1.583,-4.429 -3.955,-8.535 -7,-12.12c-1.59,-1.87 -3.44,-3.75 -3.79,-6.18c-0.105,-1.116 -0.044,-2.242 0.18,-3.34c1,-6.55 2.07,-13.26 5.26,-19.07c1.49,-2.72 3.42,-5.18 4.85,-7.94c0.96,-1.83 2.31,-6.59 4.87,-2.81Z" style="fill:#3f3d56;fill-rule:nonzero;"/><path d="M671.071,192.71c0.018,0.842 -0.196,1.672 -0.62,2.4c-0.779,0.902 -2.004,1.29 -3.16,1c-1.139,-0.286 -2.212,-0.788 -3.16,-1.48c-2.787,-1.76 -5.573,-3.523 -8.36,-5.29c-1.556,-0.938 -3.055,-1.966 -4.49,-3.08c-2.193,-1.852 -4.181,-3.934 -5.93,-6.21c-4.86,-6 -9.16,-12.51 -14.57,-18c-1.47,-1.5 -3,-2.94 -4.42,-4.51c-1.941,-2.269 -3.725,-4.668 -5.34,-7.18c-1.56,-2.31 -3.18,-4.87 -2.91,-7.63c0.16,-1.56 0.91,-3 1.13,-4.55c0.22,-1.55 -0.37,-3.44 -1.87,-3.86c-0.177,-0.045 -0.358,-0.075 -0.54,-0.09c-0.296,-0.031 -0.588,-0.095 -0.87,-0.19c-1.39,-0.58 -1.18,-2.73 -0.18,-3.86c1,-1.13 2.48,-1.76 3.39,-3c0.423,-0.736 0.898,-1.441 1.42,-2.11c0.67,-0.574 1.47,-0.976 2.33,-1.17c5.768,-1.7 11.87,-1.93 17.75,-0.67c1,0.22 2.14,0.62 2.44,1.59c0.12,0.472 0.12,0.968 0,1.44c-0.441,1.972 -0.695,3.981 -0.76,6c-0.002,0.421 0.022,0.842 0.07,1.26c0.47,4.24 3.22,7.83 5.9,11.14c3.18,3.94 6.41,7.85 9.65,11.75c1.752,2.26 3.711,4.352 5.85,6.25c2,1.66 4.59,3 6.15,5.13c1.27,1.72 0.86,4.07 1,6.14c0.465,6.25 0.499,12.525 0.1,18.78Z" style="fill:#3f3d56;fill-rule:nonzero;"/><path d="M798.071,234.43c0.988,-0.96 1.879,-2.015 2.66,-3.15c0.841,-1.406 1.512,-2.906 2,-4.47l5.8,-16.45c0.92,-2.6 1.84,-5.21 3,-7.74c1.2,-2.73 2.62,-5.36 3.93,-8c3.369,-6.947 5.975,-14.24 7.77,-21.75c0.316,-1.032 0.421,-2.117 0.31,-3.19c-0.28,-1.73 -1.59,-3.08 -2.84,-4.31c-1.257,-1.358 -2.69,-2.541 -4.26,-3.52c-1.592,-0.99 -3.517,-1.3 -5.34,-0.86c-2.56,0.75 -4.17,3.37 -4.76,6c-0.59,2.63 -0.37,5.32 -0.62,8c-0.36,3.84 -1.68,7.55 -2,11.4c-0.17,2.23 0,4.48 -0.27,6.7c-0.492,2.915 -1.509,5.717 -3,8.27c-3.249,6.081 -7.639,11.479 -12.93,15.9c-1.449,1.07 -2.754,2.324 -3.88,3.73c-0.94,1.406 -1.577,2.994 -1.87,4.66c-0.664,2.537 -0.376,5.231 0.81,7.57c1.63,2.78 4.76,4 7.75,4.62c4.04,0.84 4.97,-0.54 7.74,-3.41Z" style="fill:#be6f72;fill-rule:nonzero;"/><path d="M720.531,108.11c1.757,-3.301 5.335,-5.24 9.06,-4.91c3.745,0.663 6.8,3.408 7.86,7.06c0.47,1.49 0.66,3.14 1.48,4.42c1.24,1.93 3.54,2.49 5.26,3.89c2.074,1.927 3.286,4.61 3.36,7.44c0.096,2.862 -0.356,5.717 -1.33,8.41c-0.413,1.149 -0.747,2.325 -1,3.52c-0.2,1.16 -0.22,2.34 -0.4,3.5c-0.448,3.037 -2.104,5.769 -4.59,7.57c-0.35,0.286 -0.788,0.445 -1.24,0.45c-0.78,-0.09 -1.26,-1 -1.55,-1.82c-1.59,-4.59 -1.21,-10.2 -4.14,-13.86c-1.333,-1.476 -2.944,-2.676 -4.74,-3.53c-0.732,-0.472 -1.558,-0.783 -2.42,-0.91c-1.268,0.068 -2.487,0.514 -3.5,1.28c-2.111,1.416 -4.453,2.451 -6.92,3.06c-2.492,0.59 -5.122,0.024 -7.15,-1.54c-1.38,-1.14 -2.39,-2.85 -3.92,-3.74c-1.53,-0.89 -3.13,-0.84 -4.64,-1.45c-2.53,-1.076 -4.181,-3.572 -4.181,-6.322c0,-1.502 0.492,-2.963 1.401,-4.158c1,-1.2 2.48,-1.88 3.37,-3.21c1.15,-1.72 1.05,-4.08 1.6,-6.14c0.66,-2.642 2.558,-4.808 5.09,-5.81c2.464,-0.837 5.198,-0.265 7.12,1.49c1,0.9 1.8,2.06 2.78,3c1.964,1.88 4.756,2.635 7.4,2" style="fill:#3f3d56;fill-rule:nonzero;"/><path d="M736.971,255.3c-1.189,1.059 -1.611,2.746 -1.06,4.24c0.22,0.47 10.54,-1.52 11.63,-1.67c2.72,-0.39 7.49,-0.2 9.32,-2.69c3.26,-4.41 -6.84,-3.43 -8.69,-3.27c-3.52,0.3 -8.52,0.78 -11.2,3.39Z" style="fill-opacity:0.0980392;fill-rule:nonzero;"/><path d="M643.091,126.3c-0.441,1.972 -0.695,3.981 -0.76,6c-3,0.61 -6.12,-0.39 -9,-1.39l-8.27,-2.82c-1.038,-0.663 -2.431,-0.403 -3.16,0.59c-1.33,1.38 -3.16,4 -5,5.55c-0.296,-0.031 -0.588,-0.095 -0.87,-0.19c-1.39,-0.58 -1.18,-2.73 -0.18,-3.86c1,-1.13 2.48,-1.76 3.39,-3c0.423,-0.736 0.898,-1.441 1.42,-2.11c0.67,-0.574 1.47,-0.976 2.33,-1.17c5.768,-1.7 11.87,-1.93 17.75,-0.67c1,0.22 2.14,0.62 2.44,1.59c0.097,0.493 0.066,1.003 -0.09,1.48Z" style="fill:#3f3d56;fill-rule:nonzero;"/><path d="M643.091,126.3c-0.441,1.972 -0.695,3.981 -0.76,6c-3,0.61 -6.12,-0.39 -9,-1.39l-8.27,-2.82c-1.038,-0.663 -2.431,-0.403 -3.16,0.59c-1.33,1.38 -3.16,4 -5,5.55c-0.296,-0.031 -0.588,-0.095 -0.87,-0.19c-1.39,-0.58 -1.18,-2.73 -0.18,-3.86c1,-1.13 2.48,-1.76 3.39,-3c0.423,-0.736 0.898,-1.441 1.42,-2.11c0.67,-0.574 1.47,-0.976 2.33,-1.17c5.768,-1.7 11.87,-1.93 17.75,-0.67c1,0.22 2.14,0.62 2.44,1.59c0.097,0.493 0.066,1.003 -0.09,1.48Z" style="fill-opacity:0.0980392;fill-rule:nonzero;"/><path d="M718.741,316.15c1.44,0.48 3,1.18 3.49,2.62l-11.58,-2.94l-6,-1.53c-1.06,-0.27 -4.86,-0.58 -5.56,-1.41c-1,-1.22 2.55,-0.38 3.19,-0.29c1.94,0.29 3.88,0.59 5.81,0.94c3.64,0.65 7.14,1.72 10.65,2.61Z" style="fill-opacity:0.0980392;fill-rule:nonzero;"/><path d="M723.231,326.4c-1,-0.67 -3.87,-0.59 -5.1,-0.88c-1.8,-0.43 -3.57,-1 -5.34,-1.55c-3.59,-1.17 -7.15,-2.5 -10.84,-3.36c-0.68,-0.15 -3,-0.19 -2.89,-1.05c0.11,-0.86 2.32,-1.16 2.87,-1.2c3.27,-0.24 7.35,1.29 10.39,2.38c3.874,1.388 7.544,3.292 10.91,5.66Z" style="fill-opacity:0.0980392;fill-rule:nonzero;"/><path d="M715.891,307.01c-3.67,-1 -7,-3.28 -10.78,-3.72c-0.985,0.037 -1.954,-0.259 -2.75,-0.84c-0.444,-0.437 -0.753,-0.992 -0.89,-1.6c2.53,-0.13 5.47,0.94 7.77,1.95c1.266,0.543 2.483,1.192 3.64,1.94c0.84,0.51 2.1,1.98 3.01,2.27Z" style="fill-opacity:0.0980392;fill-rule:nonzero;"/><path d="M785.851,217.47c-1.277,8.556 3.976,16.838 12.26,19.33c-0.49,2.37 -2.94,3.68 -4.67,5.37c-2.44,2.37 -3.7,5.92 -6.58,7.72c-3.21,2 -7.34,1.22 -11,0.38c-0.333,-0.037 -0.64,-0.198 -0.86,-0.45c-0.075,-0.12 -0.13,-0.252 -0.16,-0.39c-1.21,-4.43 -2,-9.16 -0.76,-13.6c1,-3.78 3.4,-7 5.32,-10.34c1.92,-3.34 2.1,-6.92 6.45,-8.02Z" style="fill:#3f3d56;fill-rule:nonzero;"/><path d="M696.441,160.13c-3.871,0.282 -7.629,1.426 -11,3.35c-2.24,1.28 -4.54,3 -7.1,2.69c-1.51,-0.17 -3,-1 -4.47,-0.6c-0.828,0.334 -1.6,0.793 -2.29,1.36c-0.711,0.566 -1.669,0.718 -2.52,0.4l-1,13.84c-0.38,5.26 -0.75,10.63 0.51,15.76c0.65,2.62 2.08,5 2.24,7.66c0.16,2.66 -0.08,5.39 0.11,8.08c0.18,2.49 0.73,4.94 0.87,7.43c0.28,4.7 -0.88,9.36 -2,13.93c-1.69,6.74 -2.71,13.63 -6,19.73c-0.92,1.69 -2,3.41 -2,5.33c0,0.24 0,0.47 0.06,0.7c-1,0.55 -1.93,1.07 -2.78,1.61c-1.9,1.23 -3.93,2.6 -4.71,4.73c-0.63,1.73 -0.34,3.71 -1.1,5.38c-0.76,1.67 -2.5,2.86 -2.88,4.66c-0.27,1.31 0.25,2.69 0,4c-0.226,0.678 -0.41,1.369 -0.55,2.07c-0.1,1.5 1.17,2.71 2.43,3.53c1.837,1.211 3.866,2.104 6,2.64l5.97,-23.7c5.443,-10.064 9.971,-20.596 13.53,-31.47c1.018,-3.554 2.326,-7.019 3.91,-10.36c1.132,-1.89 2.134,-3.854 3,-5.88c0.91,-2.52 1,-5.25 1.44,-7.91c0.522,-3.105 1.309,-6.159 2.35,-9.13c1.08,-3.21 2.33,-6.41 2.55,-9.78c0.33,-4.82 -1.42,-9.91 0.44,-14.37c0.79,-1.669 1.817,-3.215 3.05,-4.59c2.58,-3.16 4.93,-6.47 7.51,-9.63c-1.34,-1.43 -3.57,-1.58 -5.57,-1.46Z" style="fill:#3f3d56;fill-rule:nonzero;"/><path d="M724.621,104.82l-1.25,0.09l-0.14,0.1c0.468,-0.019 0.934,-0.083 1.39,-0.19Z" style="fill-rule:nonzero;"/><path d="M747.501,125.58c-0.209,1.988 -0.638,3.947 -1.28,5.84c-0.413,1.149 -0.747,2.325 -1,3.52c-0.2,1.16 -0.22,2.34 -0.4,3.5c-0.448,3.037 -2.104,5.769 -4.59,7.57c-0.35,0.286 -0.788,0.445 -1.24,0.45c-0.78,-0.09 -1.26,-1 -1.55,-1.82c-1.59,-4.59 -1.21,-10.2 -4.14,-13.86c-1.333,-1.476 -2.944,-2.676 -4.74,-3.53c-0.732,-0.472 -1.558,-0.783 -2.42,-0.91c-1.268,0.068 -2.487,0.514 -3.5,1.28c-2.111,1.416 -4.453,2.451 -6.92,3.06c-2.492,0.59 -5.122,0.024 -7.15,-1.54c-1.38,-1.14 -2.39,-2.85 -3.92,-3.74c-1.53,-0.89 -3.13,-0.84 -4.64,-1.45c-1.909,-0.816 -3.346,-2.459 -3.9,-4.46c-0.035,-0.125 -0.062,-0.252 -0.08,-0.38c-0.25,1.116 -0.222,2.277 0.08,3.38c0.554,2.001 1.991,3.644 3.9,4.46c1.51,0.61 3.21,0.62 4.64,1.45c1.43,0.83 2.54,2.6 3.92,3.74c2.028,1.564 4.658,2.13 7.15,1.54c2.467,-0.609 4.809,-1.644 6.92,-3.06c1.013,-0.766 2.232,-1.212 3.5,-1.28c0.862,0.127 1.688,0.438 2.42,0.91c1.774,0.871 3.36,2.08 4.67,3.56c2.93,3.66 2.55,9.27 4.14,13.86c0.29,0.83 0.77,1.73 1.55,1.82c0.48,0.002 0.945,-0.168 1.31,-0.48c2.497,-1.806 4.158,-4.55 4.6,-7.6c0.18,-1.16 0.2,-2.34 0.4,-3.5c0.253,-1.195 0.587,-2.371 1,-3.52c0.974,-2.693 1.426,-5.548 1.33,-8.41c-0.02,-0.12 -0.04,-0.26 -0.06,-0.4Z" style="fill-rule:nonzero;"/><path d="M617.582,232.434l-0.5,6.71c-0.074,0.912 -1.816,22.607 -14.663,47.963c-11.024,21.747 -32.477,50.073 -72.98,65.992c-3.161,1.249 -6.441,2.415 -9.841,3.498l-3.793,-11.906c9.521,-2.996 18.692,-7.008 27.355,-11.965c20.645,-11.921 36.696,-28.935 47.89,-50.83c5.938,-11.656 10.171,-24.107 12.567,-36.968l-46.081,0l0,-12.494l60.046,0Z" style="fill:#3755be;fill-rule:nonzero;"/><path d="M557.551,370.01c55.1,-21.66 84.3,-60.19 99.29,-89.78c17.48,-34.5 19.86,-64 19.95,-65.26l0.68,-9.13l7,0l-0.68,9.13c-0.09,1.24 -2.47,30.76 -19.95,65.26c-15,29.59 -44.19,68.12 -99.29,89.78c-4.3,1.7 -8.767,3.29 -13.4,4.77l-0.68,-2.13c2.413,-0.86 4.773,-1.74 7.08,-2.64Z" style="fill:#fff;fill-opacity:0.0980392;fill-rule:nonzero;"/><path d="M443.398,344.691l-3.793,11.906c-3.405,-1.088 -6.688,-2.256 -9.848,-3.506c-40.496,-15.919 -61.957,-44.237 -72.974,-65.984c-12.847,-25.356 -14.596,-47.037 -14.662,-47.963l-0.5,-6.71l60.017,0l0,12.494l-46.089,0c2.409,12.863 6.654,25.313 12.604,36.968c11.194,21.895 27.238,38.909 47.882,50.822c8.664,4.963 17.838,8.977 27.363,11.973Z" style="fill:#3755be;fill-rule:nonzero;"/><path d="M435.411,370.01c-55.1,-21.66 -84.3,-60.19 -99.29,-89.78c-17.48,-34.5 -19.86,-64 -19.95,-65.26l-0.68,-9.13l-7,0l0.68,9.13c0.09,1.24 2.47,30.76 19.95,65.26c15,29.59 44.19,68.12 99.29,89.78c4.3,1.7 8.767,3.29 13.4,4.77l0.68,-2.13c-2.407,-0.86 -4.767,-1.74 -7.08,-2.64Z" style="fill:#fff;fill-opacity:0.0980392;fill-rule:nonzero;"/><path d="M548.93,459.784l0,67.374l-138.664,0l0,-67.374l4.41,-5.879c44.935,-15.949 54.041,-57.54 55.856,-73.995c0.27,-2.274 0.425,-4.56 0.463,-6.85l17.147,0c0.038,2.29 0.192,4.576 0.463,6.85c1.844,16.455 10.95,58.061 55.856,73.995l4.469,5.879Z" style="fill:#3755be;fill-rule:nonzero;"/><rect x="410.266" y="459.784" width="138.664" height="8.452" style="fill-opacity:0.0980392;"/><path d="M418.151,507.16c61.14,-21.7 73.53,-78.29 76,-100.68c0.368,-3.094 0.578,-6.205 0.63,-9.32l-10,0c-0.052,3.115 -0.262,6.226 -0.63,9.32c-2.51,22.39 -14.9,79 -76,100.68l-6,8l0,91.67l10,0l0,-91.67l6,-8Z" style="fill:#fff;fill-opacity:0.0980392;fill-rule:nonzero;"/><path d="M373.491,205.82l16.92,0l0,17l-15.42,0c-0.607,-5.6 -1.107,-11.267 -1.5,-17Z" style="fill-opacity:0.0980392;fill-rule:nonzero;"/><path d="M447.231,358.56l-5.16,16.2c-4.633,-1.48 -9.1,-3.07 -13.4,-4.77c-7.073,-8.638 -13.324,-17.918 -18.67,-27.72c11.788,6.752 24.271,12.214 37.23,16.29Z" style="fill-opacity:0.0980392;fill-rule:nonzero;"/><path d="M545.741,358.56c12.954,-4.077 25.433,-9.535 37.22,-16.28c-5.349,9.803 -11.599,19.086 -18.67,27.73c-4.3,1.7 -8.763,3.287 -13.39,4.76l-5.16,-16.21Z" style="fill-opacity:0.0980392;fill-rule:nonzero;"/><path d="M619.471,205.82c-0.393,5.733 -0.893,11.4 -1.5,17l-15.41,0l0,-17l16.91,0Z" style="fill-opacity:0.0980392;fill-rule:nonzero;"/><path d="M508.781,406.48c-8.121,1.573 -16.469,1.573 -24.59,0c0.368,-3.094 0.578,-6.205 0.63,-9.32l23.33,0c0.052,3.115 0.262,6.226 0.63,9.32Z" style="fill-opacity:0.0980392;fill-rule:nonzero;"/><path d="M390.672,211.738c0.316,92.648 40.004,167.569 88.929,167.569c48.926,0 88.606,-74.921 88.93,-167.569l-177.859,0Z" style="fill:#3755be;fill-rule:nonzero;"/><path d="M406.474,211.738l-15.802,0c0.316,92.648 40.004,167.569 88.929,167.569c2.648,-0.005 5.291,-0.228 7.901,-0.669c-45.229,-7.555 -80.727,-79.294 -81.028,-166.9Z" style="fill:#fff;fill-opacity:0.0980392;fill-rule:nonzero;"/><rect x="440.273" y="481.987" width="102.452" height="26.345" style="fill:#3f3d56;"/><path d="M436.849,488.881l89.907,0l0,-3.307l-94.316,0l0,24.253l4.409,0l0,-20.946Z" style="fill:#fff;fill-opacity:0.0980392;fill-rule:nonzero;"/><path d="M307.051,299.37c-2.31,-0.77 -15.91,-11.53 -16.94,-16.4c-1.03,-4.87 7.19,-50.24 7.19,-50.24c0,0 -0.76,0 -2,-0.15l0,-0.73l1.69,-59.6c0,0 6.93,-40 -6.16,-37.67c-13.09,2.33 -4.88,37.67 -4.88,37.67c0,0 -1.49,17.94 -2.54,23.32c-1,5.19 -5.58,26.33 -2.46,32.9c0.114,0.233 0.241,0.46 0.38,0.68c0.139,0.22 0.52,22.55 -5.13,25.63c-5.39,2.93 -7.63,17.68 -7.82,19l-0.29,-0.12c-1.609,-1.007 -3.022,-2.298 -4.17,-3.81c-0.12,-0.15 -0.21,-0.31 -0.32,-0.47c7.589,-8.538 7.33,-21.639 -0.59,-29.87c-1.785,-1.854 -3.88,-3.384 -6.19,-4.52c-0.067,-1.911 -0.52,-3.788 -1.33,-5.52c-2.6,-5.56 -17,-12.83 -27.23,-13c-4.72,-0.14 -8.59,1.2 -10,4.89c-0.72,1.87 -0.5,4 -0.8,5.94c-0.6,4 -3.17,7.13 -6.47,9.62c-1.333,-1.488 -2.773,-2.875 -4.31,-4.15c-3.34,-2.56 -10,-11 -10,-11c0,0 -20.79,-21.53 -22.33,-27.43c-1.54,-5.9 -22.31,-41.33 -26.93,-35.16c-4.62,6.17 15.91,33.06 15.91,33.06c0,0 3.9,9.77 6.9,13.07c3,3.3 26,36.7 26,36.7l1.1,2.28c-4.86,2.56 -9.3,5.82 -10.87,10.9c-2.3,7.48 2.73,15 6.21,22c6.78,13.66 7.75,31.08 -1,43.56c-7.84,11.02 -21.44,16.26 -34.17,20.84c6.147,4.827 13.787,7.363 21.6,7.17c-2.94,8.52 -13.36,11.34 -22.24,12.92c4.66,4.48 11.33,6.11 17.73,7.1c3.135,0.534 6.311,0.785 9.49,0.75l0.78,0l0.78,-0.06c1.084,-0.072 2.163,-0.209 3.23,-0.41c4.62,-0.94 9.11,-3.46 11.47,-7.54c2,-3.49 2.7,-8.25 6.33,-10c0.945,-0.427 1.964,-0.668 3,-0.71l-0.11,0c0.68,0 1.38,0 2.06,0l15.13,0.15c0.63,0 1.28,0 1.93,0c4.27,-0.1 8.83,-0.84 11,-4.37c0.893,-1.714 1.362,-3.617 1.37,-5.55c0.32,-4.79 0,-9.72 0.13,-14.55c1.29,8.79 2.64,22.49 -0.57,27.55c-2.608,3.834 -5.769,7.261 -9.38,10.17c-0.908,0.763 -1.739,1.614 -2.48,2.54c-0.49,0.35 -0.78,0.54 -0.78,0.54l-0.31,0.93c-1.14,1.729 -1.966,3.645 -2.44,5.66c-0.175,0.518 -0.239,1.066 -0.19,1.61c0.35,0.71 -2.5,3.64 -1.67,4.87c-7.12,8.35 -8.47,21 -8.47,21l-13,19.74c-6.68,17.55 -16.68,19.35 -16.68,19.35c0,0 -23.49,-15.76 -24.13,-16.53c-0.64,-0.77 -9.62,-4.62 -9.62,-4.62c-1.059,-1.857 -2.675,-3.333 -4.62,-4.22c-3.08,-1.28 -3.34,-6 -3.34,-6c-0.38,-11.15 -6.93,-12 -6.93,-12c-5.28,-0.45 -9.31,0.49 -12.41,2.21l-0.94,0.07c-4.54,0.37 -10,0.78 -16,1.18c-16.69,1.1 -20.66,11.91 -20.66,11.91c0,0 -2.05,2.31 0.64,4.81c2.69,2.5 19.91,0 20.64,-0.06c-1.312,0.142 -2.64,0.051 -3.92,-0.27c2.71,-0.1 6.44,-0.2 9.62,-0.2l0.77,0c-0.2,1.686 -0.297,3.382 -0.29,5.08c0,3.2 8.85,5.25 8.85,5.25l26.95,24c0,0 16.94,7.57 27.72,18.46c10.78,10.89 20.31,1.49 20.31,1.49c11.41,-2.82 44.24,-42.51 44.27,-42.55c0,1.16 0.69,39.76 2,47.51c0.052,0.393 0.149,0.779 0.29,1.15c1.54,3.33 -0.52,12.43 -1.41,16.27c-0.568,3.214 -0.786,6.479 -0.65,9.74c0.136,3.261 -12.31,47 -11.29,51.13c1.02,4.13 -6.67,23.32 -6.67,23.32l0,16l1.34,-0.07c-0.174,0.258 -0.335,0.525 -0.48,0.8l-0.09,0.17c0,0 8.21,1.79 13.73,1.28c5.52,-0.51 15,4.25 15,4.25c0,0 3.21,1.52 13.09,2.16c9.88,0.64 9.88,-4.36 9.88,-4.36c-1.13,-6.81 -16.74,-9.09 -17.22,-9.16c-1.26,-0.79 -2.44,-1.65 -3.41,-2.39l-0.2,-0.16c0.065,-0.15 0.122,-0.304 0.17,-0.46c1.67,-6.8 -7.57,-9.75 -7.57,-9.75l0,-1.66c6,-3.08 7.19,-24.22 7.19,-24.22c0,0 9,-26.14 10.26,-30.5c1.26,-4.36 0,-10.89 0,-10.89l0.9,-5.64c0,0 1.93,-3.84 1.93,-4.61c0.25,-1.951 1.001,-3.805 2.18,-5.38c1.41,-1.67 -1.54,-5.64 -1.54,-5.64l2.57,-6.66l0,-7.31l6,-26.52c0,0 6.29,-30.89 4.11,-41c-2.18,-10.11 2.57,-15.25 2.57,-15.25c-0.428,0.225 -0.869,0.425 -1.32,0.6c0.601,-1.388 1.118,-2.811 1.55,-4.26l13.5,1.67l0,0.2l4.87,0c0,0 -1.54,-19 -1.54,-26.66c0,-7.66 5.19,-35.15 5.19,-35.15c0,0 2.31,-26.87 0,-27.64Zm-59.93,-22.18c0,0.75 -0.07,1.53 -0.12,2.33l-0.27,0.41l-0.5,-0.42l-0.61,0.95l-0.18,0.09c-1.32,-0.68 -2,-4.57 -2.95,-3.73l-0.13,0.11c-0.21,-0.24 -0.42,-0.31 -0.64,-0.11l-0.2,0.17c0,-0.29 0,-0.59 0,-0.89c1.829,0.471 3.711,0.709 5.6,0.71c0.01,0.13 0,0.26 0,0.38Zm44.9,88.48l0.29,0l-0.48,1.26c0.06,-0.42 0.12,-0.83 0.19,-1.26Zm-49.29,226.77l-1.84,-0.46l1,-0.17l0.93,0.61l0.11,0.08l-0.2,-0.06Zm18.8,-2.69c-0.61,-0.32 -1.23,-0.69 -1.83,-1.07c0.2,0.11 0.99,0.52 1.83,1.07Z" style="fill:url(#_Linear2);fill-rule:nonzero;"/><path d="M298.661,346.78l-12.11,31.56l2.94,0l-11.39,9.08l20.56,2.56l0,-43.2Z" style="fill:#f86d70;fill-rule:nonzero;"/><path d="M298.661,346.78l-12.11,31.56l-3.05,-0.82l-5.4,9.9l20.56,2.56l0,-43.2Z" style="fill-opacity:0.0980392;fill-rule:nonzero;"/><path d="M279.671,366.97l18.99,0l6.97,-57.35l-25.96,0l0,57.35Z" style="fill:#f86d70;fill-rule:nonzero;"/><path d="M279.671,366.97l18.99,0l6.97,-57.35l-25.96,0l0,57.35Z" style="fill-opacity:0.0980392;fill-rule:nonzero;"/><path d="M242.581,323.2l4.1,-0.69l9.42,-1.6c0,0 28.29,-6.38 34.13,-6.9c3.538,-0.467 6.988,-1.451 10.24,-2.92c1.53,-0.66 2.5,-1.16 2.5,-1.16l-10.19,-18.61l-15.81,-11.72c0,0 -10,-2.13 -14.23,-7.95c-1.916,-2.542 -2.411,-5.893 -1.31,-8.88c2.58,-8 -15.41,7.65 -15.41,7.65c0,0 0.17,3.75 0,8.53c0,0.94 -0.09,1.92 -0.16,2.92c0,0.66 -0.09,1.32 -0.16,2c-0.44,4.75 -1.34,9.64 -3.12,12.56c-4.35,7.14 0,26.77 0,26.77Z" style="fill:#fbbebe;fill-rule:nonzero;"/><path d="M246.021,279.35l0.4,0c0.72,0 1.3,-1.53 2,-1.6c5.63,-0.54 10.77,-1.72 14.34,-5.71c-1.911,-2.54 -2.405,-5.886 -1.31,-8.87c2.58,-8 -15.41,7.64 -15.41,7.64c0,0 0.19,3.76 -0.02,8.54Z" style="fill-opacity:0.0980392;fill-rule:nonzero;"/><path d="M224.121,256.67c0,0.003 0,0.007 0,0.01c0,12.019 9.891,21.91 21.91,21.91c0.003,0 0.007,0 0.01,0c0.72,0 1.43,0 2.14,-0.1c11.166,-1.095 19.78,-10.596 19.78,-21.815c0,-12.025 -9.895,-21.92 -21.92,-21.92c-12.023,0 -21.917,9.892 -21.92,21.915Z" style="fill:#fbbebe;fill-rule:nonzero;"/><path d="M217.391,223.4c-0.72,1.86 -0.5,3.94 -0.79,5.91c-1.07,7.11 -8.3,11.37 -14.84,14.35c-6.54,2.98 -13.92,6.51 -16,13.38c-2.28,7.43 2.7,14.88 6.16,21.85c6.74,13.58 7.7,30.9 -1,43.32c-7.73,11 -21.2,16.22 -33.88,20.8c6.101,4.8 13.689,7.326 21.45,7.14c-2.91,8.47 -13.26,11.28 -22.08,12.84c4.63,4.46 11.26,6.08 17.61,7.06c4.63,0.72 9.38,1.19 14,0.26c4.62,-0.93 9,-3.44 11.38,-7.5c2,-3.47 2.68,-8.2 6.29,-9.95c1.629,-0.641 3.385,-0.898 5.13,-0.75l15,0.16c4.67,0 10.2,-0.36 12.61,-4.35c0.889,-1.704 1.355,-3.598 1.36,-5.52c0.65,-9.84 -1.24,-20.24 2.81,-29.22c1.22,-2.71 -6.61,-7 -5.79,-9.87c2.82,-9.87 3.53,-17.64 3.5,-27.91c0,-7.95 5.17,-14.8 9.44,-21.51c4.27,-6.71 7.84,-15.18 4.47,-22.38c-3.8,-8.03 -32.34,-19.7 -36.83,-8.11Z" style="fill:#3f3d56;fill-rule:nonzero;"/><path d="M237.361,589.56l3.82,2.53l0.59,0.39l0.11,0.07l4.53,3l10.58,1.78l9.3,-0.64c0,0 2.68,-5.6 -1.53,-5.47c-1.348,-0.069 -2.663,-0.449 -3.84,-1.11l-0.58,-0.29c-0.61,-0.32 -1.22,-0.68 -1.82,-1.06c-1.25,-0.79 -2.43,-1.65 -3.38,-2.38c-1.4,-1.08 -2.33,-1.9 -2.33,-1.9l-15.45,5.08Z" style="fill:#fbbebe;fill-rule:nonzero;"/><path d="M241.231,592.09l0.59,0.39l0.11,0.07l4.53,3l10.58,1.78l9.3,-0.64c0,0 2.68,-5.6 -1.53,-5.47c-1.348,-0.069 -2.663,-0.449 -3.84,-1.11c0.74,0.58 1.36,1.21 1.42,1.74c0.17,1.43 -6.88,4 -6.88,4l-9.94,-2.63c0,0 -1.69,-0.48 -4,-1.08l-0.22,-0.06l-0.12,0.01Z" style="fill-opacity:0.0980392;fill-rule:nonzero;"/><path d="M224.231,594.53c0,0 8.15,1.78 13.63,1.27c5.48,-0.51 14.92,4.21 14.92,4.21c0,0 3.19,1.5 13,2.14c9.81,0.64 9.81,-4.34 9.81,-4.34c-1.12,-6.77 -16.62,-9 -17.1,-9.1c0.19,0.1 1,0.51 1.82,1.06c1.1,0.72 2.29,1.66 2.38,2.42c0.17,1.42 -6.88,4 -6.88,4l-9.94,-2.62c0,0 -1.69,-0.49 -4,-1.09l-0.22,0c-3.425,-0.933 -6.905,-1.651 -10.42,-2.15c-4.28,-0.46 -6.47,3.18 -6.92,4c-0.033,0.064 -0.059,0.131 -0.08,0.2Z" style="fill:#3f3d56;fill-rule:nonzero;"/><path d="M95.771,414.7l4.33,3.32c0,0 1.26,-0.06 3.14,-0.12l0.6,0c2.69,-0.1 6.4,-0.2 9.55,-0.2c2.036,-0.092 4.077,0.022 6.09,0.34c2.16,0.76 6,-12.36 6,-12.36l-4.34,-1l-1.44,-0.34l-1,-0.24l-3.53,-0.83l-10.7,1.22l-7.52,4.84l-1.18,5.37Z" style="fill:#fbbebe;fill-rule:nonzero;"/><path d="M95.771,414.7l4.33,3.32c0,0 1.26,-0.06 3.14,-0.12c-0.862,-0.333 -1.574,-0.97 -2,-1.79c-2.8,-7.77 11.09,-11.09 11.09,-11.09l6.47,-0.28l1.26,-0.06l1,0l-1.44,-0.34l-1,-0.24l-3.53,-0.83l-10.7,1.22l-7.52,4.84l-1.1,5.37Z" style="fill-opacity:0.0980392;fill-rule:nonzero;"/><path d="M87.231,418.21c2.62,2.42 19.78,0 20.5,-0.06c-1.302,0.147 -2.62,0.055 -3.89,-0.27c-1.272,-0.228 -2.376,-1.019 -3,-2.15c-2.8,-7.78 11.09,-11.09 11.09,-11.09l6.47,-0.28l1.25,-0.06l15.73,-0.68l0.76,-4.33c0,0 -5.11,0.48 -13.13,1.12c-4.51,0.37 -10,0.78 -15.93,1.17c-16.57,1.1 -20.51,11.85 -20.51,11.85c0,0 -2.01,2.3 0.66,4.78Z" style="fill:#3f3d56;fill-rule:nonzero;"/><path d="M279.681,230.51c0.106,0.237 0.234,0.465 0.38,0.68l3.82,5.6l9.94,1l0.11,-3.94l1.67,-59.28c0,0 6.88,-39.76 -6.12,-37.47c-13,2.29 -4.84,37.47 -4.84,37.47c0,0 -1.48,17.84 -2.52,23.2c-1.01,5.18 -5.54,26.24 -2.44,32.74Z" style="fill:#fbbebe;fill-rule:nonzero;"/><path d="M257.371,377.75l2.83,4.84l6.33,10.83c0,0 11.48,4.21 14.42,1c1.61,-1.75 3.35,-7.86 4.57,-13c1,-4.16 1.67,-7.67 1.67,-7.67l-29.82,4Z" style="fill:#fbbebe;fill-rule:nonzero;"/><path d="M257.371,377.75l2.83,4.84c0.177,-0.153 0.338,-0.324 0.48,-0.51c3.2,-4.08 17.29,-0.87 24.84,-0.61c1,-4.16 1.67,-7.67 1.67,-7.67l-29.82,3.95Z" style="fill-opacity:0.0980392;fill-rule:nonzero;"/><path d="M113.391,417.68c2.036,-0.092 4.077,0.022 6.09,0.34c2.16,0.76 6,-12.36 6,-12.36l-5.78,-1.36l15.73,-0.68l0.76,-4.33c0,0 -5.11,0.48 -13.13,1.12c-1.657,0.954 -3.136,2.189 -4.37,3.65l-0.24,0.3c-3.35,4.11 -4.59,9.41 -5.06,13.32Z" style="fill-opacity:0.0980392;fill-rule:nonzero;"/><path d="M237.361,589.56l4.41,2.92c6.58,-1.19 12.59,-3.06 13.3,-6c0.003,-0.047 0.003,-0.093 0,-0.14c-1.4,-1.08 -2.33,-1.9 -2.33,-1.9l-15.38,5.12Z" style="fill-opacity:0.0980392;fill-rule:nonzero;"/><path d="M224.321,594.36c5.811,-0.289 11.6,-0.91 17.34,-1.86c-3.428,-0.94 -6.911,-1.665 -10.43,-2.17c-4.27,-0.46 -6.46,3.18 -6.91,4.03Z" style="fill-opacity:0.0980392;fill-rule:nonzero;"/><path d="M113.871,422.73c0,3.19 8.79,5.23 8.79,5.23l26.77,23.83c0,0 16.82,7.52 27.52,18.35c10.7,10.83 20.14,1.53 20.14,1.53c11.34,-2.8 44,-42.31 44,-42.31c0,0 0.76,45.12 2.29,48.43c1.53,3.31 -0.51,12.36 -1.4,16.19c-0.562,3.194 -0.776,6.44 -0.64,9.68c0.136,3.24 -12.23,46.77 -11.21,50.85c1.02,4.08 -6.63,23.2 -6.63,23.2l0,15.93c0,0 29.95,-1.15 31.6,-7.9c1.65,-6.75 -7.51,-9.69 -7.51,-9.69l0,-1.66c6,-3.06 7.13,-24.08 7.13,-24.08c0,0 8.93,-26 10.2,-30.33c1.27,-4.33 0,-10.84 0,-10.84l0.89,-5.6c0,0 1.91,-3.83 1.91,-4.59c0.25,-1.941 0.997,-3.784 2.17,-5.35c1.4,-1.66 -1.53,-5.61 -1.53,-5.61l2.55,-6.63l0,-7.26l6,-26.38c0,0 6.25,-30.72 4.08,-40.79c-2.17,-10.07 2.55,-15.16 2.55,-15.16c-10.23,5.36 -15.39,-6.57 -17.08,-11.7c-0.43,-1.32 -0.64,-2.2 -0.64,-2.2c0,0 -14.05,-5.18 -27.13,-3.94c-2.656,0.215 -5.274,0.77 -7.79,1.65c-14.53,5.23 -16.82,26.89 -16.82,26.89l-12.87,19.63c-6.63,17.46 -16.57,19.24 -16.57,19.24c0,0 -23.32,-15.67 -24,-16.44c-0.68,-0.77 -9.56,-4.59 -9.56,-4.59c-1.05,-1.848 -2.656,-3.318 -4.59,-4.2c-3.06,-1.28 -3.31,-6 -3.31,-6c-0.38,-11.09 -6.88,-12 -6.88,-12c-22.56,-1.88 -22.43,21.44 -22.43,24.62Z" style="fill:#3f3d56;fill-rule:nonzero;"/><rect x="243.611" y="317.73" width="13.76" height="42.69" style="fill:#f86d70;"/><rect x="243.611" y="317.73" width="13.76" height="42.69" style="fill-opacity:0.0980392;"/><path d="M279.671,230.42c-0.002,0.03 -0.002,0.06 0,0.09c0.106,0.237 0.234,0.465 0.38,0.68l3.82,5.6l9.94,1l0.11,-3.94c-3.1,-0.24 -10.16,-1.09 -14.25,-3.43Z" style="fill-opacity:0.0980392;fill-rule:nonzero;"/><path d="M280.061,231.19c0,0 0.51,22.42 -5.1,25.48c-5.61,3.06 -7.79,19 -7.79,19c0,0 17,11.18 20.79,16.1c3.79,4.92 12.49,16.64 10.7,19.44c-1.79,2.8 4.34,15.55 4.34,15.55c0,0 -11.22,22.94 -8.67,31.61c2.55,8.67 2.8,31.6 2.8,31.6l4.85,0c0,0 -1.53,-18.86 -1.53,-26.51c0,-7.65 5.09,-34.92 5.09,-34.92c0,0 2.3,-26.76 0,-27.52c-2.3,-0.76 -15.8,-11.47 -16.82,-16.32c-1.02,-4.85 7.14,-50 7.14,-50c0,0 -10.45,-0.45 -15.8,-3.51Z" style="fill:#f86d70;fill-rule:nonzero;"/><path d="M243.351,313.77c0.465,3.12 1.601,6.102 3.33,8.74l9.42,-1.6c0,0 28.29,-6.38 34.13,-6.9c3.538,-0.467 6.988,-1.451 10.24,-2.92c-2.241,-7.942 -6.617,-15.12 -12.65,-20.75l-3.59,-3.33c-5.29,-4.911 -11.421,-8.831 -18.1,-11.57c0.42,0.35 30.1,25.69 23.6,30.66c-6.5,4.97 -24,-7.13 -24,-7.13l-19.9,-17.1l-0.72,-0.62l-1.15,1.79c0.585,0.241 1.156,0.514 1.71,0.82c6.78,3.721 11.816,9.981 14,17.4c4.09,13.75 -16.32,12.51 -16.32,12.51Z" style="fill-opacity:0.0980392;fill-rule:nonzero;"/><path d="M237.231,377.49c0,0 18.86,10.45 23.44,4.59c1,-1.29 3.11,-1.85 5.74,-2c-0.43,-1.32 -0.64,-2.2 -0.64,-2.2c0,0 -14.05,-5.18 -27.13,-3.94c-0.86,2.16 -1.41,3.55 -1.41,3.55Z" style="fill:#444053;fill-rule:nonzero;"/><path d="M245.911,281.27l20.62,17.74c0,0 17.43,12.14 24,7.13c6.57,-5.01 -23.61,-30.67 -23.61,-30.67c6.664,2.748 12.789,6.655 18.09,11.54l3.59,3.33c9.44,8.75 11.57,8.75 11.89,21.61c0.08,3.17 -1,7.72 -1.83,8.54c-3.06,3 -5.2,24.79 -4.73,27.34c0.47,2.55 -5.7,24.56 -3.7,30.68c2,6.12 -25,-3.06 -29.57,2.81c-4.57,5.87 -23.43,-4.59 -23.43,-4.59c0,0 10.45,-26.77 13,-28.55c2.55,-1.78 5.61,-15.55 0,-21.92c-5.61,-6.37 -6.11,-12.49 -6.11,-12.49c0,0 20.4,1.26 16.31,-12.49c-2.327,-8.06 -8.057,-14.718 -15.68,-18.22l1.16,-1.79Z" style="fill:#e8e8f0;fill-rule:nonzero;"/><path d="M273.431,326.39c0,0 -7.91,14.91 -18.14,18.78c-0.33,0.12 -0.65,0.23 -1,0.33c-10.68,3.25 19.94,-14.49 19.14,-19.11Z" style="fill-opacity:0.0980392;fill-rule:nonzero;"/><path d="M162.811,194.48c0,0 3.82,9.69 6.88,13c3.06,3.31 25.74,36.45 25.74,36.45l1.92,4l1.65,3.41l14.53,-1.53l1,-5.86l-0.56,-0.68c-1.46,-1.75 -5.44,-6.45 -8.11,-8.5c-3.31,-2.54 -9.94,-10.95 -9.94,-10.95c0,0 -20.64,-21.42 -22.17,-27.28c-1.53,-5.86 -22.18,-41 -26.76,-34.92c-4.58,6.08 15.82,32.86 15.82,32.86Z" style="fill:#fbbebe;fill-rule:nonzero;"/><path d="M204.971,352.11c-1.744,-0.151 -3.5,0.102 -5.13,0.74c-3.6,1.75 -4.28,6.48 -6.28,9.95c-2.34,4.06 -6.8,6.57 -11.39,7.5c-0.912,0.177 -1.834,0.304 -2.76,0.38c2.923,0.284 5.872,0.157 8.76,-0.38c4.59,-0.93 9.05,-3.44 11.39,-7.5c2,-3.47 2.68,-8.2 6.28,-9.95c0.945,-0.425 1.964,-0.663 3,-0.7l-3.87,-0.04Z" style="fill-rule:nonzero;"/><path d="M240.491,275.4c0,-7.95 5.17,-14.8 9.43,-21.51c4.26,-6.71 7.84,-15.18 4.47,-22.38c-2.88,-6.15 -20.24,-14.4 -30.26,-12.77c9.81,1.27 21.9,7.73 24.26,12.77c3.37,7.2 -0.21,15.67 -4.47,22.38c-4.26,6.71 -9.45,13.56 -9.43,21.51c0,10.26 -0.69,18 -3.51,27.91c-0.81,2.85 7,7.16 5.8,9.86c-4.06,9 -2.16,19.38 -2.81,29.22c-0.014,1.922 -0.483,3.814 -1.37,5.52c-2,3.29 -6.1,4.14 -10.09,4.32l3.49,0c4.66,0 10.19,-0.36 12.6,-4.35c0.887,-1.706 1.356,-3.598 1.37,-5.52c0.65,-9.84 -1.25,-20.23 2.81,-29.22c1.22,-2.7 -6.61,-7 -5.8,-9.86c2.82,-9.84 3.53,-17.62 3.51,-27.88Z" style="fill-rule:nonzero;"/><path d="M197.351,247.91l1.65,3.41l14.53,-1.53l1,-5.86l-0.56,-0.68c-1.55,0.76 -13.16,6.35 -16.62,4.66Z" style="fill-opacity:0.0980392;fill-rule:nonzero;"/><path d="M251.001,286.24c0,0 -3.57,-5.6 -5.61,-4.08c-2.04,1.52 -2.83,-4.59 -4,-3.57c-1.17,1.02 -4.58,3.86 -6,-0.11c-1.11,-3.16 -13.19,-23.15 -18.09,-31.19c-1.26,-2.08 -2.05,-3.36 -2.05,-3.36c0,0 -13.76,6.88 -17.07,4.59l0,4.84l2.8,0.26l15,28c0,0 4.72,7.51 4.4,10.13c-0.32,2.62 6.05,14.09 7.07,14.85c1.02,0.76 12,13.51 12,13.51c0,0 5.61,27.53 0.76,35.18c-4.85,7.65 -13.25,13.25 -13.25,13.25c0,0 -2.53,7.39 -2.16,8.16c0.37,0.77 -2.94,4.08 -1.41,5.1c1.53,1.02 3.57,8.15 3.57,8.15c0,0 7.14,-11.47 11,-13.25c3.86,-1.78 8.8,-25.24 8.8,-25.24c0,0 1.41,-13.82 1.52,-22.74c0.11,-8.92 -0.34,-42.48 2.72,-42.48Z" style="fill-opacity:0.0980392;fill-rule:nonzero;"/><path d="M250.231,286.24c0,0 -3.56,-5.6 -5.6,-4.08c-2.04,1.52 -2.84,-4.59 -4,-3.57c-1.16,1.02 -4.57,3.86 -6,-0.11c-1.12,-3.16 -13.2,-23.15 -18.09,-31.19l-2.05,-3.36c0,0 -13.76,6.88 -17.08,4.59l0,4.84l2.81,0.26l15,28c0,0 4.73,7.51 4.4,10.13c-0.33,2.62 6,14.09 7.07,14.85c1.07,0.76 12,13.51 12,13.51c0,0 5.61,27.53 0.77,35.18c-2.557,3.842 -5.667,7.286 -9.23,10.22c-2.992,2.468 -5.099,5.847 -6,9.62c-0.174,0.514 -0.235,1.06 -0.18,1.6c0.37,0.76 -2.94,4.08 -1.41,5.1c1.53,1.02 3.59,8.18 3.59,8.18c0,0 7.14,-11.47 11,-13.25c3.86,-1.78 8.81,-25.24 8.81,-25.24c0,0 1.4,-13.82 1.52,-22.74c0.12,-8.92 -0.33,-42.54 2.67,-42.54Z" style="fill:#f86d70;fill-rule:nonzero;"/><path d="M215.311,402.22c0,0 10.71,2 15,5.09c4.29,3.09 -16.31,-4.84 -16.31,-4.84l1.31,-0.25Z" style="fill-opacity:0.0980392;fill-rule:nonzero;"/><path d="M241.061,429.36c0,0 11.17,9.31 9.17,17.72c-2,8.41 -7.16,29.57 -7.16,29.57l-2.01,-47.29Z" style="fill-opacity:0.0980392;fill-rule:nonzero;"/><path d="M143.371,411.46c0,0 -15.74,1.72 -14.72,3.76c1.02,2.04 14.72,-1.88 14.72,-1.88l0,-1.88Z" style="fill-opacity:0.0980392;fill-rule:nonzero;"/><path d="M264.231,488.88c0,0 1,1.27 -4.84,0c-5.84,-1.27 -1.53,-5.19 -1.53,-5.19l6.37,5.19Z" style="fill-opacity:0.0980392;fill-rule:nonzero;"/><path d="M262.231,506.47c0,0 -8,1.27 -12.29,0c-4.29,-1.27 12.29,0 12.29,0Z" style="fill-opacity:0.0980392;fill-rule:nonzero;"/><path d="M245.771,575.29c0,0 -1.4,-1.53 -8.41,1.27c-7.01,2.8 -9.81,2.93 -11.85,2c-2.04,-0.93 20.26,-3.27 20.26,-3.27Z" style="fill-opacity:0.0980392;fill-rule:nonzero;"/><path d="M253.551,409.29l-9.94,13.83c0,0 5.35,-12.11 9.94,-13.83Z" style="fill-opacity:0.0980392;fill-rule:nonzero;"/><path d="M234.231,282.16c0,0 -0.43,4.59 -6.84,6.38c-6.41,1.79 -7.63,3.24 -7.63,3.24" style="fill-opacity:0.0980392;fill-rule:nonzero;"/><path d="M217.571,248.89c0,0 -8.46,6 -17.29,4.73" style="fill-opacity:0.0980392;fill-rule:nonzero;"/><path d="M224.011,377.36c0,0 2.47,1.55 8.4,-5.23" style="fill-opacity:0.0980392;fill-rule:nonzero;"/><path d="M285.601,305.47c0.24,-1.24 -0.62,-2.39 -1.43,-3.36l-1.66,-2c-0.324,-0.409 -0.69,-0.785 -1.09,-1.12c-1,-0.77 -2.28,-1 -3.32,-1.69" style="fill-opacity:0.0980392;fill-rule:nonzero;"/><ellipse cx="851.421" cy="600.71" rx="40.21" ry="6.8" style="fill:#3755be;"/><path d="M868.051,589.59c1.836,-1.495 3.172,-3.516 3.83,-5.79c0.5,-2.29 -0.48,-5 -2.68,-5.89c-2.46,-0.94 -5.09,0.77 -7.08,2.49c-1.99,1.72 -4.28,3.69 -6.88,3.32c2.722,-2.473 3.954,-6.202 3.24,-9.81c-0.114,-0.736 -0.425,-1.427 -0.9,-2c-1.37,-1.46 -3.84,-0.84 -5.48,0.31c-5.2,3.66 -6.65,10.73 -6.68,17.08c-0.52,-2.29 -0.08,-4.68 -0.09,-7c-0.01,-2.32 -0.66,-5 -2.65,-6.23c-1.227,-0.66 -2.607,-0.984 -4,-0.94c-2.33,-0.09 -4.94,0.15 -6.53,1.86c-2,2.12 -1.47,5.68 0.25,8c1.72,2.32 4.35,3.81 6.77,5.42c1.936,1.154 3.587,2.73 4.83,4.61c0.15,0.263 0.271,0.541 0.36,0.83l14.66,0c3.279,-1.67 6.316,-3.775 9.03,-6.26Z" style="fill:#3755be;fill-rule:nonzero;"/><defs><linearGradient id="_Linear1" x1="0" y1="0" x2="1" y2="0" gradientUnits="userSpaceOnUse" gradientTransform="matrix(2.46338e-14,-402.3,402.3,2.46338e-14,743.741,461.68)"><stop offset="0" style="stop-color:#808080;stop-opacity:0.247059"/><stop offset="0.54" style="stop-color:#808080;stop-opacity:0.113725"/><stop offset="1" style="stop-color:#808080;stop-opacity:0.0941176"/></linearGradient><linearGradient id="_Linear2" x1="0" y1="0" x2="1" y2="0" gradientUnits="userSpaceOnUse" gradientTransform="matrix(222.22,0,0,222.22,85.851,368.36)"><stop offset="0" style="stop-color:#808080;stop-opacity:0.247059"/><stop offset="0.54" style="stop-color:#808080;stop-opacity:0.113725"/><stop offset="1" style="stop-color:#808080;stop-opacity:0.0941176"/></linearGradient></defs></svg>