<?xml version="1.0" encoding="UTF-8" standalone="no"?><!DOCTYPE svg PUBLIC "-//W3C//DTD SVG 1.1//EN" "http://www.w3.org/Graphics/SVG/1.1/DTD/svg11.dtd"><svg width="100%" height="100%" viewBox="0 0 2500 741" version="1.1" xmlns="http://www.w3.org/2000/svg" xmlns:xlink="http://www.w3.org/1999/xlink" xml:space="preserve" xmlns:serif="http://www.serif.com/" style="fill-rule:evenodd;clip-rule:evenodd;stroke-linejoin:round;stroke-miterlimit:1.41421;"><path d="M2407.41,740.87l-2314.82,0c-51.852,0 -92.593,-40.74 -92.593,-92.592l0,-555.556c0,-51.852 40.741,-92.592 92.593,-92.592l2314.82,0c51.85,0 92.59,40.74 92.59,92.592l0,555.556c0,51.852 -40.74,92.592 -92.59,92.592Z" style="fill-rule:nonzero;"/><path d="M877.778,189.019c0,14.814 -3.704,27.777 -12.963,37.037c-11.111,11.111 -24.074,16.666 -40.741,16.666c-16.667,0 -29.63,-5.555 -40.741,-16.666c-11.111,-11.112 -16.666,-24.075 -16.666,-40.741c0,-16.667 5.555,-29.63 16.666,-40.741c11.111,-11.111 24.074,-16.667 40.741,-16.667c7.407,0 14.815,1.852 22.222,5.556c7.408,3.704 12.963,7.407 16.667,12.963l-9.259,9.259c-7.408,-9.259 -16.667,-12.963 -29.63,-12.963c-11.111,0 -22.222,3.704 -29.63,12.963c-9.259,7.408 -12.963,18.519 -12.963,31.482c0,12.963 3.704,24.074 12.963,31.481c9.26,7.408 18.519,12.963 29.63,12.963c12.963,0 22.222,-3.704 31.482,-12.963c5.555,-5.555 9.259,-12.963 9.259,-22.222l-40.741,0l0,-14.815l53.704,0l0,7.408Zm85.185,-46.297l-50,0l0,35.185l46.296,0l0,12.963l-46.296,0l0,35.186l50,0l0,14.814l-64.815,0l0,-111.111l64.815,0l0,12.963Zm61.107,98.148l-14.81,0l0,-98.148l-31.482,0l0,-12.963l77.782,0l0,12.963l-31.49,0l0,98.148Zm85.19,0l0,-111.111l14.81,0l0,111.111l-14.81,0Zm77.78,0l-14.82,0l0,-98.148l-31.48,0l0,-12.963l75.93,0l0,12.963l-31.49,0l0,98.148l1.86,0Zm175.92,-14.814c-11.11,11.111 -24.07,16.666 -40.74,16.666c-16.66,0 -29.63,-5.555 -40.74,-16.666c-11.11,-11.112 -16.66,-24.075 -16.66,-40.741c0,-16.667 5.55,-29.63 16.66,-40.741c11.11,-11.111 24.08,-16.667 40.74,-16.667c16.67,0 29.63,5.556 40.74,16.667c11.11,11.111 16.67,24.074 16.67,40.741c0,16.666 -5.56,29.629 -16.67,40.741Zm-70.37,-9.26c7.41,7.408 18.52,12.963 29.63,12.963c11.11,0 22.22,-3.703 29.63,-12.963c7.41,-7.407 12.97,-18.518 12.97,-31.481c0,-12.963 -3.71,-24.074 -12.97,-31.482c-7.41,-7.407 -18.52,-12.963 -29.63,-12.963c-11.11,0 -22.22,3.704 -29.63,12.963c-7.41,7.408 -12.96,18.519 -12.96,31.482c0,12.963 3.7,24.074 12.96,31.481Zm107.41,24.074l0,-111.111l16.67,0l53.7,87.037l0,-87.037l14.81,0l0,111.111l-14.81,0l-57.41,-90.74l0,90.74l-12.96,0Z" style="fill:#fff;fill-rule:nonzero;"/><path d="M1261.11,403.833c-44.44,0 -79.63,33.334 -79.63,79.63c0,44.444 35.19,79.63 79.63,79.63c44.45,0 79.63,-33.334 79.63,-79.63c0,-48.148 -35.18,-79.63 -79.63,-79.63Zm0,125.926c-24.07,0 -44.44,-20.37 -44.44,-48.148c0,-27.778 20.37,-48.148 44.44,-48.148c24.07,0 44.45,18.518 44.45,48.148c0,27.778 -20.38,48.148 -44.45,48.148Zm-172.22,-125.926c-44.45,0 -79.63,33.334 -79.63,79.63c0,44.444 35.18,79.63 79.63,79.63c44.44,0 79.63,-33.334 79.63,-79.63c0,-48.148 -35.19,-79.63 -79.63,-79.63Zm0,125.926c-24.07,0 -44.45,-20.37 -44.45,-48.148c0,-27.778 20.38,-48.148 44.45,-48.148c24.07,0 44.44,18.518 44.44,48.148c0,27.778 -20.37,48.148 -44.44,48.148Zm-205.557,-101.852l0,33.334l79.63,0c-1.852,18.518 -9.259,33.333 -18.519,42.592c-11.111,11.111 -29.629,24.074 -61.111,24.074c-50,0 -87.037,-38.888 -87.037,-88.888c0,-50 38.889,-88.889 87.037,-88.889c25.926,0 46.297,11.111 61.111,24.074l24.075,-24.074c-20.371,-18.519 -46.297,-33.334 -83.334,-33.334c-66.666,0 -124.074,55.556 -124.074,122.223c0,66.666 57.408,122.222 124.074,122.222c37.037,0 62.963,-11.111 85.185,-35.185c22.223,-22.223 29.63,-53.704 29.63,-77.778c0,-7.408 0,-14.815 -1.852,-20.371l-114.815,0Zm840.737,25.926c-7.4,-18.518 -25.92,-50 -66.66,-50c-40.74,0 -74.08,31.482 -74.08,79.63c0,44.444 33.34,79.63 77.78,79.63c35.19,0 57.41,-22.223 64.82,-35.186l-25.93,-18.518c-9.26,12.963 -20.37,22.222 -38.89,22.222c-18.52,0 -29.63,-7.407 -38.89,-24.074l105.56,-44.444l-3.71,-9.26Zm-107.4,25.926c0,-29.629 24.07,-46.296 40.74,-46.296c12.96,0 25.92,7.407 29.63,16.667l-70.37,29.629Zm-87.04,75.926l35.19,0l0,-231.481l-35.19,0l0,231.481Zm-55.56,-135.185c-9.25,-9.259 -24.07,-18.519 -42.59,-18.519c-38.89,0 -75.92,35.186 -75.92,79.63c0,44.445 35.18,77.778 75.92,77.778c18.52,0 33.34,-9.259 40.74,-18.519l1.85,0l0,11.111c0,29.63 -16.66,46.297 -42.59,46.297c-20.37,0 -35.18,-14.815 -38.89,-27.778l-29.63,12.963c9.26,20.37 31.48,46.296 70.37,46.296c40.74,0 74.08,-24.074 74.08,-81.481l0,-140.741l-33.34,0l0,12.963Zm-40.74,109.259c-24.07,0 -44.44,-20.37 -44.44,-48.148c0,-27.778 20.37,-48.148 44.44,-48.148c24.08,0 42.6,20.37 42.6,48.148c0,27.778 -18.52,48.148 -42.6,48.148Zm451.85,-205.555l-83.33,0l0,231.481l35.19,0l0,-87.037l48.14,0c38.89,0 75.93,-27.778 75.93,-72.222c0,-44.445 -37.04,-72.222 -75.93,-72.222Zm1.86,111.111l-50,0l0,-79.63l50,0c25.92,0 40.74,22.222 40.74,38.889c-1.85,20.37 -16.67,40.741 -40.74,40.741Zm212.96,-33.334c-25.93,0 -51.85,11.112 -61.11,35.186l31.48,12.963c7.41,-12.963 18.52,-16.667 31.48,-16.667c18.52,0 35.19,11.111 37.04,29.63l0,1.851c-5.56,-3.703 -20.37,-9.259 -35.19,-9.259c-33.33,0 -66.66,18.519 -66.66,51.852c0,31.482 27.78,51.852 57.4,51.852c24.08,0 35.19,-11.111 44.45,-22.222l1.85,0l0,18.518l33.33,0l0,-88.889c-3.7,-40.74 -35.18,-64.815 -74.07,-64.815Zm-3.7,127.778c-11.12,0 -27.78,-5.555 -27.78,-20.37c0,-18.519 20.37,-24.074 37.04,-24.074c14.81,0 22.22,3.704 31.48,7.407c-3.71,22.222 -22.22,37.037 -40.74,37.037Zm194.44,-122.222l-38.89,100l-1.85,0l-40.74,-100l-37.04,0l61.11,140.741l-35.18,77.778l35.18,0l94.45,-218.519l-37.04,0Zm-311.11,148.148l35.19,0l0,-231.481l-35.19,0l0,231.481Z" style="fill:#fff;fill-rule:nonzero;"/><g><path d="M192.593,139.019c-5.556,5.555 -7.408,14.814 -7.408,25.925l0,409.26c0,11.111 3.704,20.37 9.259,25.926l1.852,1.851l229.63,-229.629l0,-3.704l-233.333,-229.629Z" style="fill:url(#_Linear1);fill-rule:nonzero;"/><path d="M500,450.13l-75.926,-75.926l0,-5.556l75.926,-75.926l1.852,1.852l90.741,51.852c25.926,14.815 25.926,38.889 0,53.704l-92.593,50Z" style="fill:url(#_Linear2);fill-rule:nonzero;"/><path d="M501.852,448.278l-77.778,-77.778l-231.481,231.481c9.259,9.26 22.222,9.26 38.888,1.852l270.371,-155.555" style="fill:url(#_Linear3);fill-rule:nonzero;"/><path d="M501.852,292.722l-270.371,-153.703c-16.666,-9.26 -29.629,-7.408 -38.888,1.851l231.481,229.63l77.778,-77.778Z" style="fill:url(#_Linear4);fill-rule:nonzero;"/><path d="M231.481,140.87l361.112,205.556c11.111,7.407 18.518,14.815 18.518,24.074c0,-9.259 -5.555,-18.519 -18.518,-25.926l-361.112,-205.555c-25.925,-14.815 -46.296,-3.704 -46.296,25.925l0,1.852c0,-27.777 20.371,-40.74 46.296,-25.926Z" style="fill:#fff;fill-opacity:0.247059;fill-rule:nonzero;"/></g><defs><linearGradient id="_Linear1" x1="0" y1="0" x2="1" y2="0" gradientUnits="userSpaceOnUse" gradientTransform="matrix(-310.796,310.778,-310.778,-310.796,403.704,161.167)"><stop offset="0" style="stop-color:#00a0ff;stop-opacity:1"/><stop offset="0.01" style="stop-color:#00a1ff;stop-opacity:1"/><stop offset="0.26" style="stop-color:#00beff;stop-opacity:1"/><stop offset="0.51" style="stop-color:#00d2ff;stop-opacity:1"/><stop offset="0.76" style="stop-color:#00dfff;stop-opacity:1"/><stop offset="1" style="stop-color:#00e3ff;stop-opacity:1"/></linearGradient><linearGradient id="_Linear2" x1="0" y1="0" x2="1" y2="0" gradientUnits="userSpaceOnUse" gradientTransform="matrix(-448.093,5.48756e-14,-5.48756e-14,-448.093,626.556,370.259)"><stop offset="0" style="stop-color:#ffe000;stop-opacity:1"/><stop offset="0.41" style="stop-color:#ffbd00;stop-opacity:1"/><stop offset="0.78" style="stop-color:#ffa500;stop-opacity:1"/><stop offset="1" style="stop-color:#ff9c00;stop-opacity:1"/></linearGradient><linearGradient id="_Linear3" x1="0" y1="0" x2="1" y2="0" gradientUnits="userSpaceOnUse" gradientTransform="matrix(-421.444,421.444,-421.444,-421.444,459.759,412.759)"><stop offset="0" style="stop-color:#ff3a44;stop-opacity:1"/><stop offset="1" style="stop-color:#c31162;stop-opacity:1"/></linearGradient><linearGradient id="_Linear4" x1="0" y1="0" x2="1" y2="0" gradientUnits="userSpaceOnUse" gradientTransform="matrix(188.204,188.204,-188.204,188.204,135.13,3.12963)"><stop offset="0" style="stop-color:#32a071;stop-opacity:1"/><stop offset="0.07" style="stop-color:#2da771;stop-opacity:1"/><stop offset="0.48" style="stop-color:#15cf74;stop-opacity:1"/><stop offset="0.8" style="stop-color:#06e775;stop-opacity:1"/><stop offset="1" style="stop-color:#00f076;stop-opacity:1"/></linearGradient></defs></svg>