<?xml version="1.0" encoding="UTF-8" standalone="no"?><!DOCTYPE svg PUBLIC "-//W3C//DTD SVG 1.1//EN" "http://www.w3.org/Graphics/SVG/1.1/DTD/svg11.dtd"><svg width="100%" height="100%" viewBox="0 0 755 780" version="1.1" xmlns="http://www.w3.org/2000/svg" xmlns:xlink="http://www.w3.org/1999/xlink" xml:space="preserve" xmlns:serif="http://www.serif.com/" style="fill-rule:evenodd;clip-rule:evenodd;stroke-linejoin:round;stroke-miterlimit:1.41421;"><ellipse cx="365.724" cy="707.07" rx="363.97" ry="44.52" style="fill:#3755be;fill-opacity:0.0980392;"/><path d="M650.371,7.65c0,-4.222 -3.428,-7.65 -7.65,-7.65l-554.621,0c-4.222,0 -7.65,3.428 -7.65,7.65l0,523.36c0,4.222 3.428,7.65 7.65,7.65l554.621,0c4.222,0 7.65,-3.428 7.65,-7.65l0,-523.36Z" style="fill:#e8eaf2;"/><path d="M650.365,7.65l0,25.86l-569.921,0l0,-25.86c0,-4.197 1.993,-7.65 4.415,-7.65l561.097,0c2.419,0 4.409,3.449 4.409,7.64c0,0.003 0,0.007 0,0.01Z" style="fill:#65617d;fill-rule:nonzero;"/><circle cx="95.694" cy="16.76" r="6.52" style="fill:#fa5959;fill-opacity:0.8;"/><circle cx="113.264" cy="16.76" r="6.52" style="fill:#fed253;fill-opacity:0.8;"/><circle cx="130.844" cy="16.76" r="6.52" style="fill:#8ccf4d;fill-opacity:0.8;"/><path d="M604.804,75.97c0,-4.222 -3.428,-7.65 -7.65,-7.65l-465.18,0c-4.222,0 -7.65,3.428 -7.65,7.65l0,207.81c0,4.222 3.428,7.65 7.65,7.65l465.18,0c4.222,0 7.65,-3.428 7.65,-7.65l0,-207.81Z" style="fill:#3755be;fill-opacity:0.2;"/><path d="M604.804,361.35c0,-1.043 -0.847,-1.89 -1.89,-1.89l-476.7,0c-1.043,0 -1.89,0.847 -1.89,1.89l0,11.53c0,1.043 0.847,1.89 1.89,1.89l476.7,0c1.043,0 1.89,-0.847 1.89,-1.89l0,-11.53Z" style="fill:#fff;"/><path d="M604.804,393.67c0,-1.043 -0.847,-1.89 -1.89,-1.89l-476.7,0c-1.043,0 -1.89,0.847 -1.89,1.89l0,11.53c0,1.043 0.847,1.89 1.89,1.89l476.7,0c1.043,0 1.89,-0.847 1.89,-1.89l0,-11.53Z" style="fill:#fff;"/><path d="M604.804,425.98c0,-1.043 -0.847,-1.89 -1.89,-1.89l-476.7,0c-1.043,0 -1.89,0.847 -1.89,1.89l0,11.53c0,1.043 0.847,1.89 1.89,1.89l476.7,0c1.043,0 1.89,-0.847 1.89,-1.89l0,-11.53Z" style="fill:#fff;"/><path d="M604.804,458.3c0,-1.043 -0.847,-1.89 -1.89,-1.89l-476.7,0c-1.043,0 -1.89,0.847 -1.89,1.89l0,11.53c0,1.043 0.847,1.89 1.89,1.89l476.7,0c1.043,0 1.89,-0.847 1.89,-1.89l0,-11.53Z" style="fill:#fff;"/><path d="M604.804,490.61c0,-1.043 -0.847,-1.89 -1.89,-1.89l-476.7,0c-1.043,0 -1.89,0.847 -1.89,1.89l0,11.53c0,1.043 0.847,1.89 1.89,1.89l476.7,0c1.043,0 1.89,-0.847 1.89,-1.89l0,-11.53Z" style="fill:#fff;"/><path d="M544.804,309.2c0,-1.043 -0.847,-1.89 -1.89,-1.89l-59.72,0c-1.043,0 -1.89,0.847 -1.89,1.89l0,11.53c0,1.043 0.847,1.89 1.89,1.89l59.72,0c1.043,0 1.89,-0.847 1.89,-1.89l0,-11.53Z" style="fill:#3755be;"/><path d="M505.524,335.66c0.942,1.29 2.071,2.433 3.35,3.39c0.84,0.69 1.69,1.39 2.58,2l0.78,0.52c-0.03,0.044 -0.057,0.091 -0.08,0.14c-0.211,0.381 -0.291,0.819 -0.23,1.25c0.192,0.52 0.541,0.968 1,1.28c2.081,1.933 3.484,4.487 4,7.28c0.31,1.62 -0.78,3.35 -0.71,5c0.158,1.614 0.588,3.189 1.27,4.66c1.36,3.47 2.81,7.06 5.54,9.59c0.644,5.571 2.791,10.864 6.21,15.31c2.87,3.68 6.7,6.45 10.47,9.18c1.195,0.957 2.497,1.772 3.88,2.43c1.242,0.453 2.525,0.788 3.83,1c11.072,2.246 22.317,3.537 33.61,3.86c0.32,6.72 0.457,13.447 0.41,20.18c0.061,1.106 -0.095,2.214 -0.46,3.26c-0.56,0.984 -1.231,1.9 -2,2.73c-2.59,3.44 -2.72,8.09 -2.5,12.39c0.253,5.033 0.837,10.044 1.75,15c1.17,6.34 0.1,13.35 2.35,19.38c0.89,2.38 1.78,4.77 2.66,7.15c0.299,0.667 0.478,1.381 0.53,2.11c0,1.57 -1,2.9 -1.8,4.26c-1.11,1.977 -1.65,4.224 -1.56,6.49c-0.01,0.257 0.056,0.511 0.19,0.73c0.29,0.39 0.88,0.36 1.37,0.28c1.989,-0.284 3.992,-0.468 6,-0.55c-0.367,0.449 -0.701,0.923 -1,1.42c-0.481,0.841 -0.905,1.713 -1.27,2.61c-0.718,1.496 -1.284,3.061 -1.69,4.67c-0.073,0.233 -0.13,0.47 -0.17,0.71c-0.11,0.48 -0.21,1 -0.29,1.45c-0.428,2.839 -0.602,5.71 -0.52,8.58c-0.28,5.35 -0.55,10.93 -1.07,12.57c-0.73,2.31 0.18,6 1.08,9.53c0.047,2.434 0.486,4.845 1.3,7.14c0.071,2.53 0.362,5.05 0.87,7.53c3.087,17.407 6.38,34.783 9.88,52.13c0.31,1.5 0.61,3 1,4.48c1.3,4.821 3.578,9.325 6.69,13.23c2.736,3.462 5.084,7.215 7,11.19c-0.2,0.94 -0.41,1.89 -0.64,2.83c-2,8.3 -4.56,16.48 -5.47,25c-0.36,3.38 -0.46,6.86 -1.8,10c-0.68,1.59 -1.68,3.1 -1.82,4.83c-0.08,1.094 0.178,2.187 0.74,3.13l-0.66,0.54l-0.37,0.3c-2.54,2 -5.94,2.43 -9.07,3.25c-3.13,0.82 -6.49,2.46 -7.46,5.57c-0.064,0.193 -0.114,0.39 -0.15,0.59c-0.57,2.86 1.16,5.9 3.6,7.58c2.6,1.79 5.84,2.34 9,2.75c3.16,0.41 6.36,0.7 9.19,2.11c2.45,1.21 4.51,3.2 7.1,4.08l0.47,0.13c-0.59,0.35 -1.17,0.69 -1.78,1c-2.682,1.387 -5.58,2.31 -8.57,2.73c-3,0.41 -6.62,0.61 -8.17,3.24c-1.27,2.17 -0.35,5.11 1.48,6.83c1.83,1.72 4.37,2.48 6.82,3c5.61,1.1 11.291,1.805 17,2.11l5.54,0.43c5.41,0.41 10.83,0.83 16.27,0.85c6.705,0.022 13.399,-0.561 20,-1.74c0.049,0.004 0.097,0.006 0.146,0.006c0.938,0 1.71,-0.772 1.71,-1.71c0,-0.099 -0.009,-0.198 -0.026,-0.296c-0.118,-6.794 -0.943,-13.557 -2.46,-20.18c-0.46,-2 -3.17,0.73 -4.68,2.44c-0.21,-1 -0.43,-2 -0.69,-2.93l1.19,-0.56c0.909,-0.347 1.676,-0.988 2.18,-1.82c0.242,-0.672 0.321,-1.392 0.23,-2.1c-0.22,-4.36 -0.49,-8.88 -2.56,-12.71c-1.35,-2.291 -3.035,-4.368 -5,-6.16c-0.471,-13.713 -2.145,-27.359 -5,-40.78c-1.53,-6.83 -3.43,-13.74 -7.38,-19.52c-0.5,-0.72 -1,-1.44 -1.57,-2.17c-0.427,-6.569 -1.222,-13.11 -2.38,-19.59c-0.231,-0.855 -0.231,-1.755 0,-2.61c0.379,-0.734 0.864,-1.408 1.44,-2c2.38,-3.07 1.41,-7.43 1.13,-11.31c-0.39,-5.56 0.92,-11.09 2.23,-16.52l4.83,-20.09c0.395,-1.905 0.964,-3.769 1.7,-5.57c1.27,-2.44 2.725,-4.78 4.35,-7c4.51,-7.107 6.634,-15.472 6.06,-23.87c0.92,0.33 1.83,0.66 2.73,1c0.68,-5.61 -1.69,-12 0,-17.25c2.909,-2.119 5.257,-4.917 6.84,-8.15c1.33,-3 1.7,-6.3 3.09,-9.24c0.78,-1.66 1.88,-3.18 2.34,-5c0.68,-2.66 -0.18,-5.46 -0.14,-8.21c0.09,-6 4.42,-11.53 3.49,-17.43c-0.45,-2.8 -2.08,-5.41 -2,-8.25c0.134,-1.54 0.523,-3.047 1.15,-4.46c3.3,-8.71 6.53,-18 4.85,-27.15c-0.43,-2.35 -1.19,-4.68 -1.06,-7.06c0.14,-2.73 1.43,-5.38 1,-8.09c-0.162,-1.029 -0.578,-2.002 -1.21,-2.83c1.178,-1.811 2.183,-3.73 3,-5.73c0.541,-1.146 0.812,-2.402 0.79,-3.67c-0.233,-1.742 -1.165,-3.317 -2.58,-4.36c-1.411,-1.009 -2.919,-1.877 -4.5,-2.59c-0.496,-0.221 -0.942,-0.541 -1.31,-0.94c-0.282,-0.451 -0.529,-0.922 -0.74,-1.41c-0.88,-1.53 -2.8,-2 -4.3,-2.93c-5.45,-3.33 -4.93,-11.9 -9.58,-16.28c-3.249,-2.912 -8.13,-3.172 -11.67,-0.62c-0.439,0.448 -1.017,0.734 -1.64,0.81c-0.602,-0.122 -1.155,-0.417 -1.59,-0.85c-1.157,-0.779 -2.537,-1.162 -3.93,-1.09c-0.855,-3.411 -1.225,-6.926 -1.1,-10.44l0.42,0c0.55,0.017 1.099,-0.047 1.63,-0.19c2.39,-0.69 3.75,-3.17 4.73,-5.47c0.845,-1.946 1.547,-3.951 2.1,-6c0.05,-0.2 0.09,-0.39 0.14,-0.59c4.58,3.22 9.9,6.59 11.18,5.88c2.34,-1.29 -10.5,-10.43 -10.5,-10.43c1.51,-1.34 2.35,-3.76 2.73,-5.9c0.908,-4.252 0.942,-8.644 0.1,-12.91c-1,-4.21 -3.53,-8.22 -7.37,-10.19c-1.7,-0.88 -3.76,-1.48 -5,-2.83c-0.188,-0.2 -0.353,-0.422 -0.49,-0.66c-0.069,-0.113 -0.133,-0.23 -0.19,-0.35c-0.131,-0.373 -0.313,-0.726 -0.54,-1.05c-0.7,-0.82 -2,-0.57 -3,-0.44l-0.35,0l-0.28,0l-0.29,0c-3.81,0.08 -7.5,-2.05 -11.35,-2.05c-4.22,0 -7.82,2.45 -11.53,4.13c-0.75,0.34 -1.46,0.65 -2.13,1c-2.33,1.09 -4.16,2.24 -5.33,4.86c-0.739,0.868 -1.27,1.895 -1.55,3c-0.115,0.506 -0.182,1.022 -0.2,1.54c-4.845,4.797 -7.574,11.339 -7.574,18.157c0,11.576 7.867,21.774 19.064,24.713c0.09,0.25 0.19,0.5 0.27,0.76c0.763,2.299 1.138,4.708 1.11,7.13c0,0.17 0,0.34 0,0.52c-1.941,0.458 -3.8,1.214 -5.51,2.24c-2.181,1.29 -3.834,3.315 -4.66,5.71c-0.05,0.19 -0.1,0.37 -0.14,0.54c-1.357,-0.447 -2.772,-0.689 -4.2,-0.72c-1.303,-0.185 -2.623,0.21 -3.61,1.08c-0.328,0.406 -0.561,0.882 -0.68,1.39c-0.49,0.45 -0.58,1.24 -0.93,1.84c-1.07,1.88 -3.86,1.26 -6,1.78c-2.28,0.56 -4.08,2.7 -6.42,2.71c-0.893,-0.137 -1.799,-0.171 -2.7,-0.1c-0.88,0.22 -1.57,1.43 -0.9,2c-1.072,-0.11 -2.118,0.394 -2.7,1.3c-0.65,0.84 -1.07,1.84 -1.79,2.63c-0.628,-0.88 -1.723,-1.305 -2.78,-1.08c-1.035,0.228 -2.028,0.62 -2.94,1.16c-0.407,0.218 -0.846,0.37 -1.3,0.45c-0.531,0.033 -1.063,-0.014 -1.58,-0.14c-2.511,-0.419 -5.091,-0.071 -7.4,1c-2,1 -4,-0.81 -6.24,-0.95c-0.82,0.045 -1.63,-0.207 -2.28,-0.71c-0.422,-0.526 -0.716,-1.142 -0.86,-1.8c-1.023,-2.933 -3.505,-5.13 -6.54,-5.79c1.203,-3.797 -0.764,-7.929 -4.47,-9.39c0.296,-2.675 -0.754,-5.33 -2.8,-7.08c-0.494,-0.33 -0.962,-0.698 -1.4,-1.1c-0.594,-0.702 -1.037,-1.519 -1.3,-2.4c-0.667,-1.747 -1.333,-3.497 -2,-5.25c-0.87,-0.18 -1.56,-0.54 -2.39,-0.68c0,-0.18 0,-0.36 0,-0.54c-0.026,-1.796 -0.33,-3.577 -0.9,-5.28c-1.02,-2.764 -2.449,-5.36 -4.24,-7.7c-1.89,-2.65 -4,-5.25 -6.81,-6.85c-0.94,-0.503 -1.908,-0.95 -2.9,-1.34l-5.11,-2.11c-0.292,-0.138 -0.608,-0.219 -0.93,-0.24c-1.38,0 -1.63,2.12 -0.85,3.26c1.56,2.29 5.06,2.93 6.05,5.53c-1.701,0.059 -3.18,1.214 -3.65,2.85c-0.038,0.422 -0.21,0.822 -0.49,1.14c-0.45,0.37 -1.16,0.16 -1.67,0.44c-0.91,0.48 -0.51,1.84 -0.61,2.87c-0.22,0.893 -0.532,1.761 -0.93,2.59c-0.435,1.618 -0.111,3.349 0.88,4.7Zm122.5,358.27l-0.12,-1.58c0.11,0.28 0.21,0.57 0.32,0.85c0.9,2.36 1.9,4.693 3,7l-0.19,-0.09c-0.773,-0.355 -1.596,-0.591 -2.44,-0.7c-0.22,0 -0.45,-0.05 -0.68,-0.06c0.296,-1.792 0.333,-3.617 0.11,-5.42Z" style="fill:url(#_Linear1);fill-rule:nonzero;"/><path d="M614.174,349.22c-0.1,3.73 -1.36,7.35 -1.56,11.07c11,0.55 21.83,-4.78 32.7,-3.15c-3,-2 -4.66,-5.51 -5.62,-9c-1.219,-4.502 -1.582,-9.194 -1.07,-13.83c0.028,-0.259 0.071,-0.516 0.13,-0.77c0.41,-1.82 1.45,-4.4 1.17,-5.84c-0.37,-1.9 -2.16,-1.52 -3.77,-1.41c-4.917,0.369 -9.81,1 -14.66,1.89c-1.27,0.22 -13.58,3.29 -13.76,3c2.158,3.47 3.944,7.157 5.33,11c0.756,2.269 1.131,4.648 1.11,7.04Z" style="fill:#ee8e9e;fill-rule:nonzero;"/><path d="M505.524,337.69c0.939,1.293 2.069,2.436 3.35,3.39c0.84,0.68 1.69,1.38 2.58,2c1.598,1.227 3.499,1.998 5.5,2.23c2.61,0.18 8.17,-1.36 9.8,-3.6c0.682,-1.127 1.006,-2.435 0.93,-3.75c-0.026,-1.786 -0.33,-3.557 -0.9,-5.25c-1.02,-2.755 -2.45,-5.341 -4.24,-7.67c-1.89,-2.63 -4,-5.22 -6.81,-6.81c-0.938,-0.504 -1.906,-0.948 -2.9,-1.33l-5.11,-2.12c-0.292,-0.138 -0.608,-0.219 -0.93,-0.24c-1.38,0 -1.63,2.11 -0.85,3.24c1.56,2.28 5.06,2.92 6.05,5.51c-1.7,0.044 -3.184,1.195 -3.65,2.83c-0.038,0.422 -0.21,0.822 -0.49,1.14c-0.45,0.36 -1.16,0.16 -1.67,0.43c-0.91,0.48 -0.51,1.84 -0.61,2.86c-0.223,0.889 -0.535,1.753 -0.93,2.58c-0.404,1.574 -0.081,3.249 0.88,4.56Z" style="fill:#ee8e9e;fill-rule:nonzero;"/><path d="M657.024,711.78c-0.85,-0.84 -2.23,-0.7 -3.41,-0.51c-6.359,0.99 -12.784,1.495 -19.22,1.51c-0.8,-3.92 1.53,-7.74 2.28,-11.67c0.104,-1.032 0.36,-2.043 0.76,-3c0.91,-1.74 3,-2.53 4.86,-2.93c3.45,-0.73 8.85,-2 10.78,1.47c2.31,4.23 3.05,10.42 3.95,15.13Z" style="fill:#65617d;fill-rule:nonzero;"/><path d="M586.754,696.91c2.6,1.78 5.84,2.33 9,2.74c3.16,0.41 6.36,0.7 9.19,2.09c2.45,1.21 4.51,3.19 7.1,4.06c2.41,0.665 4.95,0.706 7.38,0.12c2.91,-0.55 6,-1.61 7.58,-4.12c1.4,-2.24 1.25,-5.07 1.06,-7.7c-0.23,-3 -0.44,-6 -0.66,-8.93c0.006,-0.757 -0.187,-1.502 -0.56,-2.16c-2.1,-3.07 -7.22,1.28 -10,1.28c-4.34,0 -9,-2.36 -12.13,-5.24c-0.275,-0.283 -0.592,-0.523 -0.94,-0.71c-1.24,-0.55 -2.47,0.47 -3.57,1.37l-0.37,0.3c-2.54,2 -5.94,2.42 -9.07,3.23c-3.13,0.81 -6.49,2.45 -7.46,5.54c-0.064,0.196 -0.114,0.397 -0.15,0.6c-0.57,2.84 1.16,5.87 3.6,7.53Z" style="fill:#3f3d56;fill-rule:nonzero;"/><path d="M586.754,696.91c2.6,1.78 5.84,2.33 9,2.74c3.16,0.41 6.36,0.7 9.19,2.09c2.45,1.21 4.51,3.19 7.1,4.06c2.41,0.665 4.95,0.706 7.38,0.12c2.91,-0.55 6,-1.61 7.58,-4.12c1.4,-2.24 1.25,-5.07 1.06,-7.7c-0.23,-3 -0.44,-6 -0.66,-8.93c0.006,-0.757 -0.187,-1.502 -0.56,-2.16c-2.1,-3.07 -7.22,1.28 -10,1.28c-4.34,0 -9,-2.36 -12.13,-5.24c-0.275,-0.283 -0.592,-0.523 -0.94,-0.71c-1.24,-0.55 -2.47,0.47 -3.57,1.37l-0.37,0.3c-2.54,2 -5.94,2.42 -9.07,3.23c-3.13,0.81 -6.49,2.45 -7.46,5.54c-0.064,0.196 -0.114,0.397 -0.15,0.6c-0.57,2.84 1.16,5.87 3.6,7.53Z" style="fill-opacity:0.0470588;fill-rule:nonzero;"/><path d="M586.754,697.91c2.6,1.78 5.84,2.33 9,2.74c3.16,0.41 6.36,0.7 9.19,2.09c2.45,1.21 4.51,3.19 7.1,4.06c2.41,0.665 4.95,0.706 7.38,0.12c3.094,-0.658 5.814,-2.495 7.58,-5.12c1.4,-2.24 1.25,-5.07 1.06,-7.7c-0.23,-3 -0.44,-6 -0.66,-8.93c0.006,-0.757 -0.187,-1.502 -0.56,-2.16c-2.1,-3.07 -7.22,1.28 -10,1.28c-4.34,0 -9,-2.36 -12.13,-5.24c-0.275,-0.283 -0.592,-0.523 -0.94,-0.71c-1.24,-0.55 -2.47,0.47 -3.57,1.37c0.711,2.226 1.72,4.345 3,6.3c2.121,3.333 5.636,5.539 9.56,6c1.94,0.14 3.93,-0.24 5.81,0.26c1.88,0.5 3.62,2.42 3,4.24c-0.62,1.82 -2.95,2.17 -4.84,2.27c-2.639,0.303 -5.311,0.113 -7.88,-0.56c-1.54,-0.51 -3,-1.36 -4.44,-2c-6.37,-2.63 -14.4,-1.16 -19.65,-5.61c-0.499,-0.458 -1.037,-0.869 -1.61,-1.23c-1.38,2.88 1.16,6.87 3.6,8.53Z" style="fill:#e8eaf2;fill-rule:nonzero;"/><path d="M586.754,697.91c2.6,1.78 5.84,2.33 9,2.74c3.16,0.41 6.36,0.7 9.19,2.09c2.45,1.21 4.51,3.19 7.1,4.06c2.41,0.665 4.95,0.706 7.38,0.12c3.094,-0.658 5.814,-2.495 7.58,-5.12c1.4,-2.24 1.25,-5.07 1.06,-7.7c-0.23,-3 -0.44,-6 -0.66,-8.93c0.006,-0.757 -0.187,-1.502 -0.56,-2.16c-2.1,-3.07 -7.22,1.28 -10,1.28c-4.34,0 -9,-2.36 -12.13,-5.24c-0.275,-0.283 -0.592,-0.523 -0.94,-0.71c-1.24,-0.55 -2.47,0.47 -3.57,1.37c0.711,2.226 1.72,4.345 3,6.3c2.121,3.333 5.636,5.539 9.56,6c1.94,0.14 3.93,-0.24 5.81,0.26c1.88,0.5 3.62,2.42 3,4.24c-0.62,1.82 -2.95,2.17 -4.84,2.27c-2.639,0.303 -5.311,0.113 -7.88,-0.56c-1.54,-0.51 -3,-1.36 -4.44,-2c-6.37,-2.63 -14.4,-1.16 -19.65,-5.61c-0.499,-0.458 -1.037,-0.869 -1.61,-1.23c-1.38,2.88 1.16,6.87 3.6,8.53Z" style="fill-opacity:0.0470588;fill-rule:nonzero;"/><path d="M655.784,503.26c2.026,9.949 0.098,20.306 -5.37,28.86c-1.627,2.219 -3.081,4.559 -4.35,7c-0.736,1.79 -1.305,3.645 -1.7,5.54l-4.83,20c-1.31,5.4 -2.62,10.9 -2.23,16.43c0.28,3.86 1.25,8.2 -1.13,11.25c-0.574,0.593 -1.06,1.267 -1.44,2c-0.229,0.851 -0.229,1.749 0,2.6c2.44,14.51 4.25,29.68 -0.16,43.72c-4,12.73 -4.23,26.83 -7.63,39.72c-0.276,1.638 -1.008,3.167 -2.11,4.41c-0.912,0.761 -2.003,1.277 -3.17,1.5c-5,1.2 -10.3,-0.2 -15,-2.37c-3.28,-1.52 -6.82,-4.19 -6.54,-7.8c0.14,-1.71 1.14,-3.22 1.82,-4.8c1.34,-3.1 1.44,-6.57 1.8,-9.93c0.91,-8.43 3.51,-16.58 5.47,-24.83c1.96,-8.25 3.3,-16.87 1.64,-25.19c-3.395,-17.207 -8.837,-33.946 -16.21,-49.86c-0.319,-0.845 -0.825,-1.608 -1.48,-2.23c-0.754,-0.439 -1.47,-0.941 -2.14,-1.5c-0.525,-0.784 -0.867,-1.676 -1,-2.61c-0.73,-2.63 -2.9,-4.57 -4.36,-6.89c-3.68,-5.84 -2.51,-13.32 -2.37,-20.22c0.13,-6.7 -0.84,-13.47 0.26,-20.09c1.1,-6.62 4.89,-13.39 11.27,-15.46c3.16,-1 6.58,-0.79 9.89,-0.47c17.6,1.74 34.62,4.92 51.07,11.22Z" style="fill:#303d5c;fill-rule:nonzero;"/><path d="M655.784,503.26c2.026,9.949 0.098,20.306 -5.37,28.86c-1.627,2.219 -3.081,4.559 -4.35,7c-0.736,1.79 -1.305,3.645 -1.7,5.54l-4.83,20c-1.31,5.4 -2.62,10.9 -2.23,16.43c0.28,3.86 1.25,8.2 -1.13,11.25c-0.574,0.593 -1.06,1.267 -1.44,2c-0.229,0.851 -0.229,1.749 0,2.6c2.44,14.51 4.25,29.68 -0.16,43.72c-4,12.73 -4.23,26.83 -7.63,39.72c-0.276,1.638 -1.008,3.167 -2.11,4.41c-0.912,0.761 -2.003,1.277 -3.17,1.5c-5,1.2 -10.3,-0.2 -15,-2.37c-3.28,-1.52 -6.82,-4.19 -6.54,-7.8c0.14,-1.71 1.14,-3.22 1.82,-4.8c1.34,-3.1 1.44,-6.57 1.8,-9.93c0.91,-8.43 3.51,-16.58 5.47,-24.83c1.96,-8.25 3.3,-16.87 1.64,-25.19c-3.395,-17.207 -8.837,-33.946 -16.21,-49.86c-0.319,-0.845 -0.825,-1.608 -1.48,-2.23c-0.754,-0.439 -1.47,-0.941 -2.14,-1.5c-0.525,-0.784 -0.867,-1.676 -1,-2.61c-0.73,-2.63 -2.9,-4.57 -4.36,-6.89c-3.68,-5.84 -2.51,-13.32 -2.37,-20.22c0.13,-6.7 -0.84,-13.47 0.26,-20.09c1.1,-6.62 4.89,-13.39 11.27,-15.46c3.16,-1 6.58,-0.79 9.89,-0.47c17.6,1.74 34.62,4.92 51.07,11.22Z" style="fill-opacity:0.0470588;fill-rule:nonzero;"/><path d="M584.414,545.32c0.058,2.608 0.353,5.205 0.88,7.76c3.087,17.333 6.38,34.617 9.88,51.85c0.31,1.5 0.61,3 1,4.46c1.299,4.801 3.577,9.281 6.69,13.16c14.56,18.15 15.82,44.5 23.71,66.39c0.54,1.48 1.07,3 1.64,4.43c1.426,3.708 3.052,7.337 4.87,10.87c0.212,0.514 0.557,0.963 1,1.3c0.493,0.241 1.043,0.344 1.59,0.3c7.107,0.043 14.129,-1.552 20.52,-4.66c0.908,-0.343 1.676,-0.98 2.18,-1.81c0.242,-0.668 0.321,-1.385 0.23,-2.09c-0.22,-4.34 -0.49,-8.83 -2.56,-12.65c-1.353,-2.277 -3.039,-4.34 -5,-6.12c-0.471,-13.641 -2.144,-27.213 -5,-40.56c-1.53,-6.8 -3.43,-13.67 -7.38,-19.42c-2.91,-4.24 -7.09,-8.43 -6.58,-13.55c0.23,-2.25 1.17,-5.05 -0.66,-6.37c-0.8,-0.58 -2,-0.65 -2.52,-1.48c-0.22,-0.388 -0.34,-0.824 -0.35,-1.27c-0.378,-3.511 -0.162,-7.061 0.64,-10.5c0.67,-2.247 1.194,-4.535 1.57,-6.85c0.361,-2.345 -0.262,-4.738 -1.72,-6.61c-0.1,-4.68 0,-9.53 -0.06,-14.2c-0.186,-2.658 0.033,-5.328 0.65,-7.92c0.36,-1.22 0.9,-2.39 1.17,-3.64c1,-4.49 -1.46,-9.87 1.44,-13.43c1.21,-1.47 3.08,-2.21 4.66,-3.28c3.106,-2.26 5.361,-5.502 6.4,-9.2c1.025,-3.673 1.632,-7.451 1.81,-11.26c0.085,-0.808 0.085,-1.622 0,-2.43c-0.056,-0.416 -0.167,-0.823 -0.33,-1.21c-0.9,-2 -3.33,-2.82 -5.49,-3.34c-13.723,-3.288 -27.789,-4.933 -41.9,-4.9c-5.22,-3.55 -8.16,-2.28 -10.37,1.49c-1.224,2.294 -2.212,4.707 -2.95,7.2c-1,3.06 -1.07,20.15 -2.06,23.22c-1.25,3.99 2.45,12.14 2.4,16.32Z" style="fill:#303d5c;fill-rule:nonzero;"/><path d="M678.804,389.78c0.38,2.69 -0.91,5.33 -1,8c-0.13,2.38 0.63,4.69 1.06,7c1.68,9.11 -1.55,18.34 -4.85,27c-0.626,1.406 -1.014,2.907 -1.15,4.44c-0.09,2.83 1.54,5.42 2,8.21c0.93,5.87 -3.4,11.39 -3.49,17.33c0,2.74 0.82,5.52 0.14,8.17c-0.624,1.716 -1.408,3.37 -2.34,4.94c-1.39,2.92 -1.76,6.24 -3.09,9.19c-2.39,5.34 -7.53,8.82 -12.43,12c-2.78,-0.93 -5.79,-2 -7.32,-4.53c-0.674,-1.241 -1.108,-2.598 -1.28,-4c-1.06,-6.08 -1,-12.29 -1,-18.46c-0.091,-5.306 0.19,-10.613 0.84,-15.88c1,-6.71 3.17,-13.17 4.73,-19.76c2,-8.32 3,-16.91 6,-24.89c2.69,-7 6.89,-13.3 11.3,-19.32c1.69,-2.3 3,-5.59 6.29,-5.06c2.86,0.497 5.108,2.758 5.59,5.62Z" style="fill:#3f3d56;fill-rule:nonzero;"/><path d="M678.804,389.78c0.38,2.69 -0.91,5.33 -1,8c-0.13,2.38 0.63,4.69 1.06,7c1.68,9.11 -1.55,18.34 -4.85,27c-0.626,1.406 -1.014,2.907 -1.15,4.44c-0.09,2.83 1.54,5.42 2,8.21c0.93,5.87 -3.4,11.39 -3.49,17.33c0,2.74 0.82,5.52 0.14,8.17c-0.624,1.716 -1.408,3.37 -2.34,4.94c-1.39,2.92 -1.76,6.24 -3.09,9.19c-2.39,5.34 -7.53,8.82 -12.43,12c-2.78,-0.93 -5.79,-2 -7.32,-4.53c-0.674,-1.241 -1.108,-2.598 -1.28,-4c-1.06,-6.08 -1,-12.29 -1,-18.46c-0.091,-5.306 0.19,-10.613 0.84,-15.88c1,-6.71 3.17,-13.17 4.73,-19.76c2,-8.32 3,-16.91 6,-24.89c2.69,-7 6.89,-13.3 11.3,-19.32c1.69,-2.3 3,-5.59 6.29,-5.06c2.86,0.497 5.108,2.758 5.59,5.62Z" style="fill-opacity:0.0470588;fill-rule:nonzero;"/><path d="M607.734,331.14c2.158,3.47 3.944,7.157 5.33,11c1.98,0.487 4.011,0.732 6.05,0.73c7.92,0 13.53,-4.5 18.18,-10.19c0.4,-1.83 2.91,-3.53 2.63,-5c-0.37,-1.9 -2.16,-1.52 -3.77,-1.41c-4.917,0.369 -9.81,1 -14.66,1.89c-1.27,0.23 -13.58,3.3 -13.76,2.98Z" style="fill-opacity:0.0980392;fill-rule:nonzero;"/><circle cx="619.114" cy="316.8" r="25.37" style="fill:#ee8e9e;"/><path d="M587.024,498.58c4.39,-0.26 8.81,-0.09 13.22,0.09c2.757,0.029 5.505,0.31 8.21,0.84c3.33,0.76 6.45,2.28 9.73,3.23c5.27,1.53 10.82,1.6 16.27,2.13c3.582,0.352 7.142,0.909 10.66,1.67c-0.056,-0.416 -0.167,-0.823 -0.33,-1.21c-0.9,-2 -3.33,-2.82 -5.49,-3.34c-13.723,-3.288 -27.789,-4.933 -41.9,-4.9c-5.19,-3.55 -8.13,-2.31 -10.37,1.49Z" style="fill-opacity:0.0980392;fill-rule:nonzero;"/><path d="M604.344,358.33c1.11,1.28 2.59,2.69 4.23,2.28c0.593,-0.208 1.15,-0.509 1.65,-0.89c2.92,-1.88 6.51,-2.32 9.95,-2.84c6.937,-1.049 13.791,-2.589 20.51,-4.61c1.947,-0.709 3.99,-1.124 6.06,-1.23c4.3,0 8.11,2.88 10.81,6.23c2.7,3.35 4.6,7.27 7.25,10.66c1.88,2.42 4.12,4.55 5.88,7.06c4.45,6.33 5.4,14.59 4.25,22.24c-1.15,7.65 -4.2,14.86 -7.23,22c-1.614,4.135 -3.589,8.12 -5.9,11.91c1,5.81 0.48,12.46 -2.28,17.67c-0.9,1.7 -2,3.35 -2.3,5.25c-0.137,1.284 -0.083,2.582 0.16,3.85l1.29,9.19c0.39,2.8 0.78,5.6 1.29,8.37c0.93,5.09 2.2,10.61 -0.16,15.21c-2.82,5.51 0.15,12.57 -0.6,18.72c-7.936,-3.068 -16.252,-5.043 -24.72,-5.87c-5.45,-0.54 -11,-0.61 -16.27,-2.14c-3.28,-1 -6.4,-2.47 -9.73,-3.23c-2.705,-0.53 -5.453,-0.811 -8.21,-0.84c-6.08,-0.24 -12.2,-0.49 -18.22,0.41c-0.49,0.07 -1.08,0.11 -1.37,-0.28c-0.132,-0.216 -0.198,-0.467 -0.19,-0.72c-0.09,-2.256 0.45,-4.493 1.56,-6.46c0.77,-1.35 1.83,-2.68 1.8,-4.24c-0.053,-0.725 -0.232,-1.436 -0.53,-2.1l-2.66,-7.15c-2.25,-6 -1.18,-13 -2.35,-19.28c-0.913,-4.929 -1.497,-9.913 -1.75,-14.92c-0.22,-4.28 -0.09,-8.91 2.5,-12.33c0.771,-0.822 1.442,-1.731 2,-2.71c0.364,-1.039 0.52,-2.14 0.46,-3.24c0.06,-8.56 -0.173,-17.117 -0.7,-25.67c2.25,-4 4.59,-8.18 6.85,-12.22c2.62,-4.71 5.27,-9.51 6.33,-14.79c0.7,-3.5 0.68,-7.09 1.18,-10.62c-0.002,-0.042 -0.002,-0.085 -0.002,-0.127c0,-1.953 1.607,-3.56 3.56,-3.56c0.318,0 0.635,0.043 0.942,0.127c1.589,0.06 3.161,0.36 4.66,0.89Z" style="fill:#3f3d56;fill-rule:nonzero;"/><path d="M511.454,343.09c1.598,1.227 3.499,1.998 5.5,2.23c2.61,0.18 8.17,-1.36 9.8,-3.6c0.682,-1.127 1.006,-2.435 0.93,-3.75c-0.352,-0.119 -0.719,-0.189 -1.09,-0.21c-2.837,-0.323 -5.708,-0.209 -8.51,0.34c-2.849,0.571 -5.286,2.414 -6.61,5c-1.324,2.586 -0.01,-0.02 -0.02,-0.01Z" style="fill-opacity:0.0980392;fill-rule:nonzero;"/><path d="M595.874,397.96c-1.55,1.92 -3.16,3.9 -5.35,5c-2.52,1.31 -5.49,1.34 -8.33,1.28c-11.69,-0.249 -23.335,-1.531 -34.8,-3.83c-1.304,-0.217 -2.586,-0.551 -3.83,-1c-1.38,-0.658 -2.682,-1.47 -3.88,-2.42c-3.77,-2.71 -7.6,-5.48 -10.47,-9.14c-3.406,-4.41 -5.546,-9.666 -6.19,-15.2c-2.73,-2.52 -4.18,-6.09 -5.54,-9.54c-0.681,-1.464 -1.11,-3.033 -1.27,-4.64c-0.07,-1.64 1,-3.36 0.71,-5c-0.521,-2.78 -1.924,-5.319 -4,-7.24c-0.46,-0.306 -0.811,-0.751 -1,-1.27c-0.059,-0.427 0.022,-0.862 0.23,-1.24c1.331,-2.58 3.765,-4.421 6.61,-5c2.806,-0.544 5.679,-0.658 8.52,-0.34c0.943,0.178 1.873,0.426 2.78,0.74l2,5.22c0.263,0.878 0.706,1.692 1.3,2.39c0.438,0.402 0.906,0.77 1.4,1.1c2.032,1.725 3.082,4.349 2.8,7c3.702,1.436 5.674,5.556 4.47,9.34c3.03,0.651 5.511,2.837 6.54,5.76c0.144,0.655 0.439,1.268 0.86,1.79c0.652,0.499 1.46,0.751 2.28,0.71c2.24,0.13 4.2,1.9 6.24,0.94c2.309,-1.071 4.889,-1.419 7.4,-1c0.518,0.116 1.049,0.163 1.58,0.14c0.454,-0.08 0.893,-0.232 1.3,-0.45c0.914,-0.536 1.906,-0.927 2.94,-1.16c1.057,-0.22 2.149,0.205 2.78,1.08c0.72,-0.78 1.14,-1.78 1.79,-2.62c0.586,-0.901 1.631,-1.4 2.7,-1.29c-0.67,-0.6 0,-1.8 0.9,-2c0.901,-0.066 1.806,-0.032 2.7,0.1c2.34,0 4.14,-2.14 6.42,-2.7c2.1,-0.51 4.89,0.1 6,-1.77c0.38,-0.66 0.46,-1.56 1.11,-2c0.436,-0.219 0.936,-0.275 1.41,-0.16c1.49,0.19 2.937,0.629 4.28,1.3c2.2,8.59 1,17.51 -0.63,26.23c-0.614,3.982 -2.254,7.735 -4.76,10.89Z" style="fill:#3f3d56;fill-rule:nonzero;"/><path d="M595.934,428.78l10.93,22c-1.18,-2 -3.67,-2.83 -5.64,-4.13c-2.497,-1.802 -4.379,-4.331 -5.39,-7.24c-0.992,-2.898 -1.682,-5.89 -2.06,-8.93c-0.22,-1.4 -0.69,-3.36 0,-4.62c1.25,0.26 1.65,1.86 2.16,2.92Z" style="fill-opacity:0.0980392;fill-rule:nonzero;"/><path d="M627.374,447.46c2.47,2.44 5.48,4.23 8.2,6.39c6.33,5 10.85,12 15.26,18.77c1.248,1.771 2.295,3.676 3.12,5.68c-0.52,0.44 -1.29,0 -1.8,-0.47l-8.58,-7.54c-1.054,-0.859 -2.012,-1.827 -2.86,-2.89c-1.49,-2 -2.15,-4.51 -3.5,-6.61c-1.475,-2.015 -3.234,-3.807 -5.22,-5.32c-2,-1.69 -11,-9.34 -8.82,-12.32c1.6,0.81 2.9,3.02 4.2,4.31Z" style="fill-opacity:0.0980392;fill-rule:nonzero;"/><path d="M608.634,351.96c2.813,-1.557 5.893,-2.575 9.08,-3c1.891,-0.43 3.837,-0.569 5.77,-0.41c1.79,0.22 3.5,0.91 5.3,1c2.52,0.14 4.94,-0.88 7.38,-1.55c2.44,-0.67 5.25,-0.92 7.3,0.55c0.435,0.433 0.988,0.728 1.59,0.85c0.623,-0.076 1.201,-0.362 1.64,-0.81c3.544,-2.536 8.414,-2.278 11.67,0.62c4.65,4.36 4.13,12.88 9.58,16.19c1.5,0.91 3.42,1.39 4.3,2.92c0.221,0.507 0.482,0.995 0.78,1.46c0.366,0.399 0.812,0.716 1.31,0.93c1.583,0.71 3.091,1.577 4.5,2.59c1.415,1.03 2.347,2.596 2.58,4.33c0.022,1.261 -0.249,2.511 -0.79,3.65c-5.461,13.372 -18.821,21.914 -33.25,21.26c-1.252,0.061 -2.486,-0.326 -3.48,-1.09c-0.522,-0.589 -0.935,-1.266 -1.22,-2c-2.57,-5.37 -7.38,-9.34 -10.44,-14.45c-1.82,-3.05 -3,-6.45 -4.88,-9.45c-2.88,-4.55 -7.25,-7.91 -11.53,-11.16c-2.41,-1.84 -5.1,-3.77 -8.13,-3.64c-2.7,0.11 -4.67,0.26 -3.68,-3.06c0.81,-2.398 2.448,-4.43 4.62,-5.73Z" style="fill:#3f3d56;fill-rule:nonzero;"/><path d="M608.634,351.96c2.813,-1.557 5.893,-2.575 9.08,-3c1.891,-0.43 3.837,-0.569 5.77,-0.41c1.79,0.22 3.5,0.91 5.3,1c2.52,0.14 4.94,-0.88 7.38,-1.55c2.44,-0.67 5.25,-0.92 7.3,0.55c0.435,0.433 0.988,0.728 1.59,0.85c0.623,-0.076 1.201,-0.362 1.64,-0.81c3.544,-2.536 8.414,-2.278 11.67,0.62c4.65,4.36 4.13,12.88 9.58,16.19c1.5,0.91 3.42,1.39 4.3,2.92c0.221,0.507 0.482,0.995 0.78,1.46c0.366,0.399 0.812,0.716 1.31,0.93c1.583,0.71 3.091,1.577 4.5,2.59c1.415,1.03 2.347,2.596 2.58,4.33c0.022,1.261 -0.249,2.511 -0.79,3.65c-5.461,13.372 -18.821,21.914 -33.25,21.26c-1.252,0.061 -2.486,-0.326 -3.48,-1.09c-0.522,-0.589 -0.935,-1.266 -1.22,-2c-2.57,-5.37 -7.38,-9.34 -10.44,-14.45c-1.82,-3.05 -3,-6.45 -4.88,-9.45c-2.88,-4.55 -7.25,-7.91 -11.53,-11.16c-2.41,-1.84 -5.1,-3.77 -8.13,-3.64c-2.7,0.11 -4.67,0.26 -3.68,-3.06c0.81,-2.398 2.448,-4.43 4.62,-5.73Z" style="fill-opacity:0.0470588;fill-rule:nonzero;"/><path d="M595.424,719.69c1.84,1.72 4.37,2.47 6.82,3c5.611,1.096 11.291,1.798 17,2.1l5.54,0.42c5.41,0.41 10.83,0.83 16.27,0.85c6.705,0.025 13.399,-0.554 20,-1.73c0.057,0.006 0.113,0.009 0.17,0.009c0.927,0 1.69,-0.763 1.69,-1.69c0,-0.107 -0.01,-0.214 -0.03,-0.319c-0.118,-6.757 -0.942,-13.484 -2.46,-20.07c-0.63,-2.71 -5.48,3.36 -5.7,3.61c-1.015,1.436 -2.652,2.309 -4.41,2.35c-5.58,0.3 -11.83,-3.09 -16.27,-6.11c-0.946,-0.705 -1.95,-1.331 -3,-1.87c-0.775,-0.348 -1.597,-0.58 -2.44,-0.69c-2.871,-0.271 -5.76,0.314 -8.3,1.68c-3.33,1.65 -6.26,4 -9.56,5.73c-2.683,1.381 -5.581,2.297 -8.57,2.71c-3,0.42 -6.62,0.62 -8.17,3.23c-1.33,2.16 -0.41,5.08 1.42,6.79Z" style="fill:#3f3d56;fill-rule:nonzero;"/><path d="M595.424,720.69c1.84,1.72 4.37,2.47 6.82,3c5.611,1.096 11.291,1.798 17,2.1l5.54,0.42c5.41,0.41 10.83,0.83 16.27,0.85c6.705,0.025 13.399,-0.554 20,-1.73c0.612,-0.021 1.189,-0.296 1.59,-0.76c0.522,-0.692 0.94,-1.457 1.24,-2.27c-0.12,-6.75 -1.94,-13.49 -3.46,-20.07c-0.63,-2.71 -5.48,3.36 -5.7,3.61c-1.015,1.436 -2.652,2.309 -4.41,2.35c-5.58,0.3 -11.83,-3.09 -16.27,-6.11c-0.946,-0.705 -1.95,-1.331 -3,-1.87c-0.775,-0.348 -1.597,-0.58 -2.44,-0.69c0.72,4 6.48,8.86 9.45,10.34c6,3 13.16,1.5 19.87,1.85c0.493,-0.021 0.981,0.097 1.41,0.34c0.8,0.53 0.85,1.67 0.83,2.63c-0.06,1.6 -0.26,3.48 -1.65,4.3c-0.696,0.33 -1.461,0.488 -2.23,0.46c-16.533,0.721 -33.098,0.139 -49.54,-1.74c-2.766,-0.179 -5.488,-0.783 -8.07,-1.79c-1.688,-0.785 -3.262,-1.794 -4.68,-3c-2.16,1.64 -0.4,6.07 1.43,7.78Z" style="fill:#e8eaf2;fill-rule:nonzero;"/><path d="M609.244,316.52c0.09,2.62 -1.7,7.71 3.21,6.29c2.92,-0.84 3.75,-4.31 7.46,-3.54c3.71,0.77 4.56,5.35 5.82,8.34c2.084,4.818 6.411,8.315 11.56,9.34c1.049,0.25 2.141,0.25 3.19,0c2.39,-0.68 3.75,-3.15 4.73,-5.44c0.847,-1.946 1.549,-3.951 2.1,-6c0.378,-1.436 0.632,-2.901 0.76,-4.38c0.078,-0.998 0.078,-2.002 0,-3c-0.44,-6 -3.84,-11.41 -8.19,-15.52c-4.35,-4.11 -9.62,-7.08 -14.84,-10c-1.702,-1.06 -3.543,-1.878 -5.47,-2.43c-1.901,-0.39 -3.853,-0.471 -5.78,-0.24c-2.537,0.107 -5.031,0.694 -7.35,1.73c-0.951,0.467 -1.825,1.077 -2.59,1.81c-1.087,1.012 -1.864,2.313 -2.24,3.75c-0.94,3.85 1.51,7.32 3.51,10.37c1.79,2.67 3.99,5.54 4.12,8.92Z" style="fill:#3f3d56;fill-rule:nonzero;"/><path d="M526.684,372.83c1.05,-2.65 5.45,-9.95 4.18,-12.47c-1.322,1.88 -2.448,3.89 -3.36,6c-0.83,2.04 -0.15,4.78 -0.82,6.47Z" style="fill-opacity:0.0980392;fill-rule:nonzero;"/><path d="M605.024,307.57c-2,-3.05 -4.46,-6.52 -3.52,-10.38c0.466,-1.695 1.47,-3.194 2.86,-4.27c-0.321,0.565 -0.567,1.17 -0.73,1.8c-0.94,3.86 1.52,7.33 3.52,10.38c1.78,2.7 4,5.58 4.1,8.95c0.1,2.62 -1.69,7.72 3.22,6.29c2.92,-0.84 3.75,-4.31 7.46,-3.54c3.71,0.77 4.56,5.34 5.82,8.34c2.084,4.818 6.411,8.315 11.56,9.34c1.045,0.25 2.135,0.25 3.18,0c0.548,-0.138 1.067,-0.376 1.53,-0.7c-0.743,1.501 -2.048,2.651 -3.63,3.2c-1.045,0.25 -2.135,0.25 -3.18,0c-5.149,-1.025 -9.476,-4.522 -11.56,-9.34c-1.26,-3 -2.08,-7.55 -5.82,-8.34c-3.74,-0.79 -4.54,2.7 -7.46,3.54c-4.91,1.43 -3.12,-3.67 -3.22,-6.29c-0.13,-3.4 -2.35,-6.28 -4.13,-8.98Z" style="fill-opacity:0.0980392;fill-rule:nonzero;"/><path d="M603.934,302.36c0.462,0.742 0.966,1.456 1.51,2.14c1.037,1.31 2.199,2.516 3.47,3.6c0.749,0.649 1.53,1.26 2.34,1.83c1.515,1.071 3.109,2.024 4.77,2.85c4.87,2.277 9.942,4.095 15.15,5.43l10.13,2.95c1.25,0.94 3.52,2.64 6,4.39c0.378,-1.436 0.632,-2.901 0.76,-4.38c0.078,-0.998 0.078,-2.002 0,-3c-0.44,-6 -3.84,-11.41 -8.19,-15.52c-4.35,-4.11 -9.62,-7.08 -14.84,-10c-1.702,-1.06 -3.543,-1.878 -5.47,-2.43c-1.901,-0.39 -3.853,-0.471 -5.78,-0.24c-2.537,0.107 -5.031,0.694 -7.35,1.73c-0.951,0.467 -1.825,1.077 -2.59,1.81c-0.571,0.845 -1.009,1.772 -1.3,2.75c-0.62,2.01 0.26,4.24 1.39,6.09Z" style="fill-opacity:0.0980392;fill-rule:nonzero;"/><path d="M603.934,301.67c0.462,0.745 0.966,1.463 1.51,2.15c1.034,1.309 2.197,2.512 3.47,3.59c0.746,0.655 1.527,1.27 2.34,1.84c1.518,1.06 3.112,2.006 4.77,2.83c4.872,2.273 9.944,4.09 15.15,5.43l10.13,2.95c3.54,2.67 15.37,11.43 17.36,10.34c2.34,-1.29 -10.5,-10.38 -10.5,-10.38l-0.59,0.45c1.88,-1.19 2.86,-3.93 3.29,-6.3c0.908,-4.228 0.942,-8.598 0.1,-12.84c-1,-4.19 -3.53,-8.18 -7.37,-10.14c-1.7,-0.88 -3.76,-1.47 -5,-2.82c-0.188,-0.197 -0.353,-0.415 -0.49,-0.65c-0.069,-0.113 -0.133,-0.23 -0.19,-0.35c-0.131,-0.373 -0.313,-0.726 -0.54,-1.05c-0.7,-0.81 -2,-0.56 -3,-0.43l-0.35,0l-0.57,0c-3.81,0.08 -7.5,-2 -11.35,-2c-4.22,0 -7.82,2.44 -11.53,4.11l-2.13,1c-2.69,1.25 -4.71,2.58 -5.82,6.14c-0.7,2.05 0.18,4.29 1.31,6.13Z" style="fill:#303d5c;fill-rule:nonzero;"/><path d="M633.394,286.35c-0.149,0.263 -0.231,0.558 -0.24,0.86c0.002,0.525 0.237,1.024 0.64,1.36c0.467,0.34 1.023,0.538 1.6,0.57c0.414,0.059 0.832,0.092 1.25,0.1c0.561,0.044 1.125,-0.052 1.64,-0.28c0.1,-0.057 0.197,-0.121 0.29,-0.19c-0.188,-0.197 -0.353,-0.415 -0.49,-0.65c-0.09,0.07 -0.19,0.05 -0.57,0c-0.677,-0.038 -1.348,-0.152 -2,-0.34c-0.275,-0.08 -0.535,-0.205 -0.77,-0.37c-0.343,-0.294 -0.596,-0.679 -0.73,-1.11l-0.62,0.05Z" style="fill-opacity:0.0980392;fill-rule:nonzero;"/><path d="M647.884,320.32c-0.539,0.329 -1.137,0.55 -1.76,0.65c-1.583,0.461 -3.291,0.205 -4.67,-0.7" style="fill-opacity:0.0980392;fill-rule:nonzero;"/><path d="M223.324,406.45c-1.68,-11.25 -11.89,-37.48 -11.89,-37.48c-0.18,-0.79 -0.38,-1.56 -0.61,-2.34c-7.25,-24.92 -17.29,-27.13 -17.29,-27.13l-35.94,-7.66c0.288,0.19 0.538,0.431 0.74,0.71l-0.57,0.09c-1.646,-1.943 -2.735,-4.297 -3.15,-6.81c-0.07,-0.37 -0.13,-0.76 -0.18,-1.15c4.877,-4.756 7.631,-11.287 7.631,-18.099c0,-7.765 -3.578,-15.112 -9.691,-19.901c-0.37,-0.29 -0.75,-0.58 -1.15,-0.85c1.7,-1.8 1.75,-4.31 0.49,-6.81c-2.84,-5.89 -9,-9.61 -15.32,-11.42c-4.84,-1.39 -10.09,-1.84 -14.88,-0.32c-2.685,0.996 -5.286,2.203 -7.78,3.61c-4.78,2.39 -10,4.27 -13.63,8.19c-0.943,0.823 -1.447,2.042 -1.36,3.29c0.324,0.862 0.779,1.668 1.35,2.39c1,1.79 0.76,4 0.07,6c-0.69,2 -1.73,3.76 -2.22,5.76c-0.49,2 -0.3,4.35 1.2,5.78c0.721,0.569 1.472,1.1 2.25,1.59c0.821,0.698 1.541,1.505 2.14,2.4l4.26,5.75c1.995,2.551 3.775,5.264 5.32,8.11c0.914,2.154 2.018,4.222 3.3,6.18c0.415,0.546 0.892,1.042 1.42,1.48l-0.42,-0.16c1.267,1.237 2.99,1.9 4.76,1.83l0.22,0c0.32,-0.006 0.627,-0.131 0.86,-0.35l0,0.78c0.08,2.77 0.06,5.71 -0.13,8.47l-0.33,-0.17c-1.006,-0.509 -2.223,-0.379 -3.1,0.33l-33.11,26.55c0,0 -7.2,9.85 -6.19,26.83l-5.8,25.48c0,0 -7.26,21.62 -1.68,37.06c5.58,15.44 8.81,24.27 8.81,24.27c0,0 2.24,17.54 5.58,19c3.34,1.46 4.8,2.21 4.8,2.21l0.67,4.19c0,0 0.22,0.41 0.61,1.1c2.44,4.24 11.47,19.2 16.72,17.6c0.655,4.062 0.94,8.176 0.85,12.29l5.19,34.86c0,0 3.62,9.48 3.4,14.45c-0.22,4.97 4.24,12 4.24,12c-2.707,4.949 -3.501,10.724 -2.23,16.22c2.12,9.26 4.8,52.06 4.8,52.06l3.9,10.37l-0.11,12.15c-0.323,1.97 -1.15,3.823 -2.4,5.38c-2.51,2.73 -2.34,5.88 -8.37,9.6c-6.03,3.72 -9.87,5.13 -9.87,10.09c-0.008,0.67 -0.068,1.339 -0.18,2c-0.56,3.62 -1.65,5.58 9.47,6.64c7.935,0.634 15.795,-1.997 21.75,-7.28c5.955,-5.283 1.93,-3.48 11,-4.88c0,0 3.09,-0.17 3.26,-2.9c0.06,-0.94 0,-2.75 0,-4.73c-0.15,-3.79 -0.51,-8.2 -1,-8.42c-0.49,-0.22 -1.66,-4.08 -2,-5.46l2.51,0c0,0 2.35,-17.54 0,-28.9c-2.35,-11.36 -0.22,-19.41 -0.22,-19.41l-0.45,-30c0,0 -3.12,-3.31 -0.67,-9.16c2.45,-5.85 0,-34.75 0,-34.75c0,0 0.9,-10.36 3.46,-12.79c2.56,-2.43 0.13,-15.19 0,-15.86l4.57,15.31c0,0 2,30.44 6.25,36l1.22,13.78c0,0 8.7,12.69 7,19.53c-1.7,6.84 1.79,31.54 1.79,31.54l0,25.22c0,0 -3.91,10.14 1.56,13.78l2.35,-0.09c-0.8,0.72 -1.37,1.81 -2.27,2.74c-1.05,1.08 -1.64,5.17 -2,8.69c-0.28,3 -0.37,5.54 -0.37,5.54c1.526,2.262 3.985,3.73 6.7,4c4.35,0.25 18.74,11.25 18.74,11.25c0,0 14.23,0 17.91,-0.74l0.21,-0.06c1.185,-0.369 2.182,-1.183 2.78,-2.27c0.746,-1.25 0.986,-2.739 0.67,-4.16c-0.45,-2.18 -2.18,-4.56 -6,-6.59c-9.55,-5 -11,-9.75 -11,-9.75l-6.2,-9.34l0.89,0c0,0 -0.56,-9.93 6.24,-21.07l-0.45,-49.16c0,0 2.79,-16.88 -2,-26c0,0 -0.39,-9.7 2.81,-12.68c3.2,-2.98 -4.26,-33.09 -4.26,-33.09c0,0 -1.53,-16.16 -3.37,-30.91c7.53,7.14 15.35,-18.58 16.66,-23.15l0.19,0l-0.09,-0.33l0.09,-0.33c0,0 -1.67,-6 -0.45,-4.74c1.22,1.26 4.24,-3.31 4.24,-3.31c0,0 -0.44,-24.6 4.8,-37c5.24,-12.4 -2.32,-42.56 -2.32,-42.56Zm-22.43,15.65l0,-0.07c0.78,15 -0.15,47.07 -0.15,47.07c0,0 -1,4.11 -2.14,8.95l-0.79,-30.45l-0.75,-28.68l3.83,3.18Zm-96,-10.35c0,0 3.79,47.43 0,54.27c-1.08,1.94 -2,5.41 -2.74,9.37c-1.25,-3.29 -3.9,-11 -3,-15.11c1.22,-5.29 -2.46,-19.19 -2.46,-19.52c0,-0.33 -0.33,-7.72 2.35,-13.41c2.68,-5.69 0.89,-8.1 0.89,-8.1c0,0 2.24,-9.27 4.92,-7.47l0.04,-0.03Z" style="fill:url(#_Linear2);fill-rule:nonzero;"/><path d="M114.084,518.56c-3.3,14.52 -16.44,-7.44 -19.43,-12.7c-0.39,-0.69 -0.61,-1.1 -0.61,-1.1l1.43,-6.68l7.53,-3.06c1.191,0.621 2.319,1.354 3.37,2.19c4.12,3.22 10.26,10.1 7.71,21.35Z" style="fill:#a1616a;fill-rule:nonzero;"/><path d="M216.024,494.78c0,0 0,0.11 -0.08,0.32l-0.11,0.36c-1.28,4.53 -8.95,30.06 -16.34,23c-8.1,-7.77 -4.16,-25.63 -4.16,-25.63l0.05,0l17,-1.75l3.37,3.47l0.27,0.23Z" style="fill:#a1616a;fill-rule:nonzero;"/><path d="M206.164,620.38l0.43,48.72c-6.67,11.06 -6.12,20.92 -6.12,20.92l-22,0.87c-5.37,-3.61 -1.53,-13.68 -1.53,-13.68l0,-25.08c0,0 -3.4,-24.52 -1.76,-31.31c1.64,-6.79 -6.89,-19.38 -6.89,-19.38l-1.22,-13.66c-4.16,-5.47 -6.13,-35.69 -6.13,-35.69l-4.48,-15.19c0.12,0.66 2.44,13.39 0,15.74c-2.44,2.35 -3.39,12.7 -3.39,12.7c0,0 2.41,28.68 0,34.49c-2.41,5.81 0.65,9.09 0.65,9.09l0.44,29.78c0,0 -2.08,8 0.22,19.26c2.3,11.26 0,28.69 0,28.69l-23.66,0l0.11,-12.15l-3.81,-10.33c0,0 -2.63,-42.47 -4.71,-51.67c-1.25,-5.45 -0.471,-11.173 2.19,-16.09c2.661,-4.917 -4.38,-7 -4.16,-11.94c0.22,-4.94 -3.32,-14.34 -3.32,-14.34l-5.09,-34.6c0.135,-6.674 -0.728,-13.331 -2.56,-19.75c-3,-9.85 -7.33,-22.77 -7.33,-22.77l4.94,0.44l24.95,2.22c0,0 60.65,-4.08 63.37,-0.69c0.574,1.105 0.959,2.298 1.14,3.53c2.72,12.24 6.32,50.56 6.32,50.56c0,0 7.34,29.89 4.19,32.84c-3.15,2.95 -2.76,12.59 -2.76,12.59c4.7,9.13 1.97,25.88 1.97,25.88Z" style="fill:#3f3d56;fill-rule:nonzero;"/><path d="M154.894,705.09c-0.17,2.72 -3.2,2.88 -3.2,2.88c-8.87,1.39 -10.76,4.85 -10.76,4.85c-5.824,5.23 -13.547,7.845 -21.35,7.23c-10.91,-1.06 -9.84,-3 -9.29,-6.6c0.113,-0.661 0.173,-1.33 0.18,-2c0,-4.93 3.77,-6.33 9.69,-10c5.92,-3.67 5.74,-6.82 8.21,-9.52c2.47,-2.7 2.71,-8 2.71,-8c2.79,-4.84 9.85,0.74 9.85,0.74c0.33,1.72 10.84,1.48 10.84,1.48c0,0 1.4,5.58 2.11,5.91c0.48,0.22 0.83,4.6 1,8.36c0.05,1.95 0.07,3.74 0.01,4.67Z" style="fill:#303d5c;fill-rule:nonzero;"/><path d="M154.894,705.09c-0.17,2.72 -3.2,2.88 -3.2,2.88c-8.87,1.39 -10.76,4.85 -10.76,4.85c-5.824,5.23 -13.547,7.845 -21.35,7.23c-10.91,-1.06 -9.84,-3 -9.29,-6.6c4.87,1.21 14.2,2.9 19.63,-0.06c7.56,-4.1 13,-7 13,-7l12,-6c0.01,1.98 0.03,3.77 -0.03,4.7Z" style="fill-opacity:0.0980392;fill-rule:nonzero;"/><path d="M221.724,719.71c-0.59,1.07 -1.567,1.875 -2.73,2.25l-0.21,0.06c-3.61,0.73 -17.58,0.73 -17.58,0.73c0,0 -14.12,-10.92 -18.39,-11.17c-2.666,-0.269 -5.077,-1.715 -6.57,-3.94c-1.493,-2.225 0.08,-2.54 0.36,-5.5c0.33,-3.49 0.91,-7.55 1.94,-8.62c1.89,-2 2.3,-4.68 6.57,-3c0,0 6.07,-10.69 13.21,-2.43l7.4,11.22c0,0 1.39,4.68 10.76,9.69c3.75,2 5.45,4.37 5.89,6.53c0.317,1.425 0.085,2.919 -0.65,4.18Z" style="fill:#303d5c;fill-rule:nonzero;"/><path d="M221.724,719.71c-0.84,0.7 -1.76,1.47 -2.73,2.25l-0.21,0.06c-3.61,0.73 -17.58,0.73 -17.58,0.73c0,0 -14.12,-10.92 -18.39,-11.17c-2.666,-0.269 -5.077,-1.715 -6.57,-3.94c-1.493,-2.225 0.08,-2.54 0.36,-5.5c4.34,1.31 10.93,3.6 12.7,6.08c2.7,3.77 10.93,9 10.93,9c0,0 15.33,-1.47 22.14,-1.68c0.315,1.422 0.082,2.911 -0.65,4.17Z" style="fill-opacity:0.0980392;fill-rule:nonzero;"/><path d="M162.024,337.63l-20.19,21.35c0,0 -24.47,-1.81 -20.2,-9c2.18,-3.68 2.52,-11.39 2.33,-18.09c-0.18,-6.46 -0.85,-12 -0.85,-12c0,0 34.33,-17.11 31.7,-1.11c-0.562,3.004 -0.596,6.084 -0.1,9.1c1.5,8 7.31,9.75 7.31,9.75Z" style="fill:#a1616a;fill-rule:nonzero;"/><path d="M154.814,318.78c-0.562,3.004 -0.596,6.084 -0.1,9.1c-4.58,4.63 -10.94,3.61 -18,3.61c-4.66,0 -9.66,0.07 -13.41,-2.14c-0.18,-6.47 -0.22,-9.42 -0.22,-9.42c0,0 34.36,-17.15 31.73,-1.15Z" style="fill-opacity:0.0980392;fill-rule:nonzero;"/><path d="M162.024,308.78c-0.005,13.875 -11.425,25.29 -25.3,25.29c-13.864,-0.016 -25.265,-11.426 -25.27,-25.29c0.467,-13.543 11.734,-24.429 25.285,-24.429c13.551,0 24.818,10.886 25.285,24.429Z" style="fill:#a1616a;fill-rule:nonzero;"/><path d="M196.444,498.55c-6.29,15 -46.81,15.3 -46.81,15.3l0,-16.34l-2.45,-0.16c1.06,4.68 -1.49,16.09 -1.49,16.09c-32,4.52 -39.82,-13.71 -39.82,-13.71l1.11,-6.24l24.95,2.22c0,0 60.65,-4.08 63.37,-0.69c0.574,1.105 0.959,2.298 1.14,3.53Z" style="fill-opacity:0.0980392;fill-rule:nonzero;"/><path d="M149.634,511.88l0,-16.35l-2.45,-0.15c1.06,4.67 -1.49,16.09 -1.49,16.09c-24.1,3.4 -34.48,-6.09 -38.14,-11c-0.654,-0.845 -1.217,-1.757 -1.68,-2.72l9.77,-55l2.3,-81l3.53,-14.2l0.81,-6.82l0,-0.08l0.09,0l2.49,1.07l14.91,6.45l16.94,-12.79l0.24,-0.19l0.85,-0.64l1.4,1.13l3.48,2.79l11.17,72.1c0,0 19.37,55.53 23,77.94c0.14,0.89 0.26,1.72 0.35,2.5c2.36,20.49 -47.57,20.87 -47.57,20.87Z" style="fill:#e1e7ef;fill-rule:nonzero;"/><circle cx="141.594" cy="349.79" r="1.44" style="fill:#67647e;"/><circle cx="142.254" cy="362.93" r="1.44" style="fill:#67647e;"/><circle cx="143.694" cy="384.19" r="1.44" style="fill:#67647e;"/><circle cx="146.074" cy="407.1" r="1.44" style="fill:#67647e;"/><circle cx="147.514" cy="428.62" r="1.44" style="fill:#67647e;"/><circle cx="148.954" cy="451.53" r="1.44" style="fill:#67647e;"/><circle cx="148.374" cy="474.19" r="1.44" style="fill:#67647e;"/><path d="M123.244,450.78c0,0 -1.61,21.07 -4.56,27.2c-2.95,6.13 -4.27,23.32 -4.27,23.32l-6.86,-0.78c-0.654,-0.845 -1.217,-1.757 -1.68,-2.72l9.77,-55l2.3,-81l3.53,-14.2l0.81,-6.82l0.1,0c0.77,-0.374 1.67,-0.374 2.44,0l0.33,0.17c-0.1,0.28 -0.2,0.57 -0.28,0.86c-2.68,8.38 -3.68,23.82 -3.68,23.82c0,0 3.84,28.25 4.27,41.39c0.43,13.14 -2.22,43.76 -2.22,43.76Z" style="fill-opacity:0.0980392;fill-rule:nonzero;"/><path d="M106.374,497.21c-0.078,0.176 -0.168,0.347 -0.27,0.51c-2.66,4.5 -9.4,7.35 -11.45,8.14c-0.39,-0.69 -0.61,-1.1 -0.61,-1.1l1.43,-6.68l7.53,-3.06c1.191,0.621 2.319,1.354 3.37,2.19Z" style="fill-opacity:0.0980392;fill-rule:nonzero;"/><path d="M88.134,389.69l-6.24,3.72l-5.69,25.3c0,0 -7.12,21.45 -1.65,36.78c5.47,15.33 8.65,24.09 8.65,24.09c0,0 2.19,17.41 5.48,18.83c3.29,1.42 4.71,2.19 4.71,2.19l0.63,4.18c0,0 8.91,-3 12.07,-8.35c3.16,-5.35 -2.32,-18.58 -2.32,-18.58c0,0 -4.71,-11.28 -3.51,-16.53c1.2,-5.25 -2.4,-19 -2.4,-19.38c0,-0.38 -0.33,-7.67 2.29,-13.31c2.62,-5.64 0.88,-8 0.88,-8l-1.64,-16.1l-11.26,-14.84Z" style="fill:#303d5c;fill-rule:nonzero;"/><path d="M196.964,493.78c0,0 -16.53,6.24 -21.79,0.77c-5.26,-5.47 -4.71,-31.1 -4.71,-31.1c0,0 -5,-47.29 -8.21,-55.07c-3.21,-7.78 -1.53,-63.83 -1.53,-63.83c0,0 -2.14,-7.25 -4,-9.14c-0.117,-0.125 -0.248,-0.235 -0.39,-0.33l0.63,0.14l2.25,0.49l3.48,2.79l11.17,72.1c0,0 19.37,55.53 23,77.94l0.1,5.24Z" style="fill-opacity:0.0980392;fill-rule:nonzero;"/><path d="M216.024,495.46l-0.19,0c-2.07,0.27 -20.45,2.49 -20.52,-1.34c-0.002,-0.441 0.021,-0.882 0.07,-1.32l17,-1.75l3.37,3.47c0.06,0.22 0.11,0.42 0.16,0.57l0.11,0.37Z" style="fill-opacity:0.0980392;fill-rule:nonzero;"/><path d="M198.394,364.36l12.08,6.3c0,0 10,26 11.67,37.21c0,0 7.45,29.91 2.3,42.22c-5.15,12.31 -4.7,36.72 -4.7,36.72c0,0 -3,4.49 -4.17,3.28c-1.17,-1.21 0.45,4.69 0.45,4.69c0,0 -20.63,2.74 -20.72,-1.31c-0.09,-4.05 4.72,-23.41 4.72,-23.41c0,0 1.31,-46.1 -0.55,-53.33c-1.86,-7.23 -1.08,-52.37 -1.08,-52.37Z" style="fill:#303d5c;fill-rule:nonzero;"/><path d="M162.364,413.45c0,0 -6.78,16.64 -9,17.74c-2.22,1.1 0.43,5.47 0.43,5.47c0,0 12.41,-17.3 8.57,-23.21Z" style="fill-opacity:0.0980392;fill-rule:nonzero;"/><path d="M158.314,355.09c0.08,-0.32 -8.1,8 -10.29,9.27c-2.19,1.27 8,-0.07 10.29,-9.27Z" style="fill-opacity:0.0980392;fill-rule:nonzero;"/><path d="M135.544,412.14c0,0 -12.48,8.07 -10.84,11.26c1.64,3.19 10.84,-11.26 10.84,-11.26Z" style="fill-opacity:0.0980392;fill-rule:nonzero;"/><path d="M158.204,529.94c0,0 10.63,6.84 27.16,8.54l-27.16,-8.54Z" style="fill-opacity:0.0980392;fill-rule:nonzero;"/><path d="M132.694,546.37c0,0 9.86,12.41 14.33,12.7c4.47,0.29 -14.33,-12.7 -14.33,-12.7Z" style="fill-opacity:0.0980392;fill-rule:nonzero;"/><path d="M146.494,594.87c-0.44,0.22 -5.59,11.17 -10.84,11.5c-5.25,0.33 10.84,-11.5 10.84,-11.5Z" style="fill-opacity:0.0980392;fill-rule:nonzero;"/><path d="M192.144,618.85c0,0 9.77,-2.19 11.94,4.82c0,0 -0.66,-2.19 -11.94,-4.82Z" style="fill-opacity:0.0980392;fill-rule:nonzero;"/><path d="M185.584,658.92c0,0 11.82,-2.41 14.34,0.88c2.52,3.29 -14.34,-0.88 -14.34,-0.88Z" style="fill-opacity:0.0980392;fill-rule:nonzero;"/><path d="M152.114,664.5c0,0.11 -12,2.41 -11.57,3.95c0.43,1.54 12.85,1.31 13.28,-1.1c0.056,-0.2 0.084,-0.407 0.084,-0.614c0,-1.07 -0.75,-2.004 -1.794,-2.236Z" style="fill-opacity:0.0980392;fill-rule:nonzero;"/><path d="M181.634,674.91c0,0 19.79,-2.41 18.54,1.75c-1.25,4.16 -18.54,-1.75 -18.54,-1.75Z" style="fill-opacity:0.0980392;fill-rule:nonzero;"/><path d="M78.024,431.19c0.11,0.33 13,2.08 14.78,6.24c0,0 -12.7,-5.91 -14.67,-5.91" style="fill-opacity:0.0980392;fill-rule:nonzero;"/><path d="M96.234,465.02c0,0 -10.73,3.39 -10,8.54c0.73,5.15 -1.05,-2.4 10,-8.54Z" style="fill-opacity:0.0980392;fill-rule:nonzero;"/><path d="M91.234,491.08c0,0 3.91,-5.37 7.63,-4.38c3.72,0.99 -7.63,4.38 -7.63,4.38Z" style="fill-opacity:0.0980392;fill-rule:nonzero;"/><path d="M152.524,288.96c-0.378,0.366 -0.802,0.682 -1.26,0.94c-3.11,1.8 -4,4.58 -5.44,7.78c-1.36,2.93 -2.88,6 -5.64,7.7c-3.56,2.15 -8.26,1.36 -12,3.23c-3.348,1.764 -5.309,5.393 -4.95,9.16c0.219,1.422 0.553,2.823 1,4.19c0.85,2.959 1.231,6.033 1.13,9.11c0.01,0.09 0.01,0.18 0,0.27c-8.545,-4.281 -13.963,-13.054 -13.963,-22.612c0,-13.874 11.416,-25.29 25.29,-25.29c5.73,0 11.294,1.948 15.773,5.522l0.06,0Z" style="fill-opacity:0.0980392;fill-rule:nonzero;"/><path d="M151.864,281.35c-2.78,-5.84 -8.82,-9.54 -15,-11.34c-4.74,-1.37 -9.89,-1.82 -14.6,-0.31c-2.634,0.991 -5.185,2.188 -7.63,3.58c-4.69,2.37 -9.85,4.25 -13.38,8.14c-0.923,0.822 -1.414,2.027 -1.33,3.26c0.313,0.854 0.758,1.654 1.32,2.37c1,1.78 0.74,4 0.07,6c-0.67,2 -1.7,3.73 -2.18,5.72c-0.48,1.99 -0.29,4.31 1.18,5.73c0.706,0.564 1.44,1.091 2.2,1.58c0.811,0.691 1.521,1.492 2.11,2.38l4.17,5.71c1.96,2.536 3.709,5.228 5.23,8.05c0.896,2.135 1.98,4.187 3.24,6.13c1.39,1.85 3.56,3.33 5.87,3.13c0.359,0.01 0.702,-0.154 0.92,-0.44c0.086,-0.181 0.127,-0.38 0.12,-0.58c0.09,-3.077 -0.291,-6.149 -1.13,-9.11c-0.473,-1.364 -0.827,-2.766 -1.06,-4.19c-0.35,-3.778 1.633,-7.411 5,-9.16c3.72,-1.87 8.42,-1.07 12,-3.22c2.76,-1.67 4.28,-4.77 5.64,-7.71c1.49,-3.2 2.32,-6 5.44,-7.78c3.12,-1.78 3.34,-4.87 1.8,-7.94Z" style="fill:#303d5c;fill-rule:nonzero;"/><path d="M140.534,694.78c0,0 3.85,4.93 2.86,7.72c-0.99,2.79 -2.86,-7.72 -2.86,-7.72Z" style="fill-opacity:0.0980392;fill-rule:nonzero;"/><path d="M192.874,707.07c0,0 0.86,-6.61 4.31,-6.67c3.45,-0.06 3.61,-0.36 6.24,0.65c2.63,1.01 5.1,2.59 4.32,2.83c-0.78,0.24 -4.54,-3.79 -8.37,-1.74c-2.398,1.313 -4.589,2.975 -6.5,4.93Z" style="fill-opacity:0.0980392;fill-rule:nonzero;"/><path d="M129.024,356.48l10.8,-7.6c0,0 -15.85,-9.36 -17.74,-8.05c-1.89,1.31 -3.18,13.15 -3.18,13.15l10.12,2.5Z" style="fill-opacity:0.0980392;fill-rule:nonzero;"/><path d="M128.944,355.98l10.84,-7.76c0,0 -15.85,-9.36 -17.74,-8c-1.89,1.36 -3.18,13.8 -3.18,13.8l10.08,1.96Z" style="fill:#e1e7ef;fill-rule:nonzero;"/><path d="M128.944,355.98l10.84,-7.76c0,0 -15.85,-9.36 -17.74,-8c-1.89,1.36 -3.18,13.8 -3.18,13.8l10.08,1.96Z" style="fill-opacity:0.027451;fill-rule:nonzero;"/><path d="M123.844,340.26l-0.33,-0.16c-0.976,-0.484 -2.148,-0.359 -3,0.32l-32.49,26.36c0,0 -7.06,9.77 -6.08,26.63l19.08,27.16c0,0 2.19,-9.2 4.82,-7.45c0,0 3.72,47.08 0,53.87c-3.72,6.79 -5.37,32.19 -5.37,32.19l12.59,1.42c0,0 1.32,-17.19 4.27,-23.32c2.95,-6.13 4.57,-27.19 4.57,-27.19c0,0 2.66,-30.62 2.22,-43.76c-0.44,-13.14 -4.27,-41.38 -4.27,-41.38c0,0 1.1,-16.56 3.99,-24.69Z" style="fill:#303d5c;fill-rule:nonzero;"/><path d="M156.214,351.67l-13.51,-5c0,0 17.2,-18.83 19.34,-8.38l-5.83,13.38Z" style="fill-opacity:0.0980392;fill-rule:nonzero;"/><path d="M156.214,351.01l-13.51,-5c0,0 17.2,-18.84 19.34,-8.39l-5.83,13.39Z" style="fill:#e1e7ef;fill-rule:nonzero;"/><path d="M156.214,351.01l-13.51,-5c0,0 17.2,-18.84 19.34,-8.39l-5.83,13.39Z" style="fill-opacity:0.027451;fill-rule:nonzero;"/><path d="M155.774,335c0.194,-0.036 0.394,0.003 0.56,0.11l-0.56,-0.11Z" style="fill-opacity:0.0980392;fill-rule:nonzero;"/><path d="M157.084,333.68l35.83,7.73c0,0 9.85,2.19 17,26.93c7.15,24.74 -9.74,55.06 -9.74,55.06l-3.73,-3.16l1.87,72.26c0,0 -16.54,6.24 -21.79,0.77c-5.25,-5.47 -4.71,-31.1 -4.71,-31.1c0,0 -5,-47.3 -8.21,-55.07c-3.21,-7.77 -1.58,-63.83 -1.58,-63.83c0,0 -2.94,-10.02 -4.94,-9.59Z" style="fill:#303d5c;fill-rule:nonzero;"/><path d="M189.854,379.78c-0.51,0.47 -1.1,22.33 1.09,39c1.345,10.137 3.42,20.163 6.21,30l-3.25,-66.68c0,0 -2.52,-3.8 -4.05,-2.32Z" style="fill-opacity:0.0980392;fill-rule:nonzero;"/><path d="M185.474,360.9c0.87,0.54 4.7,9.63 2.95,13.35c-1.75,3.72 -2.95,-13.35 -2.95,-13.35Z" style="fill-opacity:0.0980392;fill-rule:nonzero;"/><path d="M151.654,281.35c-1.752,-3.469 -4.495,-6.341 -7.88,-8.25c2.51,1.792 4.54,4.176 5.91,6.94c1.53,3.07 1.09,6.15 -1.92,7.89c-3.01,1.74 -4,4.57 -5.44,7.78c-1.36,2.93 -2.87,6 -5.64,7.7c-3.56,2.15 -8.26,1.36 -12,3.23c-3.35,1.762 -5.312,5.393 -4.95,9.16c0.22,1.421 0.555,2.822 1,4.19c0.85,2.959 1.231,6.033 1.13,9.11c0.012,0.201 -0.03,0.401 -0.12,0.58c-0.217,0.287 -0.56,0.451 -0.92,0.44c-0.928,0.067 -1.857,-0.106 -2.7,-0.5c1.237,1.225 2.93,1.882 4.67,1.81c0.035,0.004 0.071,0.006 0.106,0.006c0.494,0 0.9,-0.406 0.9,-0.9c0,-0.035 -0.002,-0.071 -0.006,-0.106c0.099,-3.076 -0.279,-6.149 -1.12,-9.11c-0.473,-1.364 -0.827,-2.766 -1.06,-4.19c-0.359,-3.767 1.602,-7.396 4.95,-9.16c3.71,-1.87 8.41,-1.07 12,-3.22c2.77,-1.67 4.28,-4.77 5.64,-7.71c1.5,-3.2 2.33,-6 5.44,-7.78c3.11,-1.78 3.54,-4.84 2.01,-7.91Z" style="fill-opacity:0.0980392;fill-rule:nonzero;"/><ellipse cx="519.574" cy="773.94" rx="41" ry="5.63" style="fill:#3755be;fill-opacity:0.0980392;"/><path d="M536.194,766.92c1.838,-1.495 3.178,-3.515 3.84,-5.79c0.49,-2.3 -0.49,-5.05 -2.68,-5.89c-2.46,-0.94 -5.09,0.76 -7.08,2.49c-1.99,1.73 -4.28,3.68 -6.89,3.32c2.727,-2.47 3.96,-6.202 3.24,-9.81c-0.108,-0.737 -0.42,-1.43 -0.9,-2c-1.36,-1.46 -3.84,-0.84 -5.48,0.31c-5.2,3.66 -6.65,10.72 -6.67,17.08c-0.53,-2.29 -0.09,-4.68 -0.1,-7c-0.01,-2.32 -0.66,-5 -2.64,-6.23c-1.229,-0.656 -2.608,-0.98 -4,-0.94c-2.34,-0.09 -4.94,0.14 -6.54,1.85c-2,2.13 -1.47,5.69 0.26,8c1.73,2.31 4.35,3.8 6.76,5.42c1.941,1.151 3.596,2.727 4.84,4.61c0.146,0.265 0.266,0.543 0.36,0.83l14.65,0c3.276,-1.67 6.313,-3.772 9.03,-6.25Z" style="fill:#3755be;fill-rule:nonzero;"/><ellipse cx="29.224" cy="739.88" rx="29.14" ry="4" style="fill:#3755be;fill-opacity:0.0980392;"/><path d="M37.184,726.78c1.838,-1.5 3.177,-3.523 3.84,-5.8c0.49,-2.29 -0.48,-5.05 -2.68,-5.89c-2.46,-0.94 -5.09,0.77 -7.08,2.49c-1.99,1.72 -4.28,3.68 -6.89,3.32c2.731,-2.467 3.964,-6.202 3.24,-9.81c-0.108,-0.737 -0.42,-1.43 -0.9,-2c-1.36,-1.46 -3.84,-0.84 -5.47,0.31c-5.2,3.66 -6.65,10.72 -6.68,17.08c-0.53,-2.29 -0.09,-4.68 -0.1,-7c-0.01,-2.32 -0.66,-5 -2.64,-6.23c-1.228,-0.659 -2.607,-0.983 -4,-0.94c-2.34,-0.09 -4.94,0.15 -6.54,1.85c-2,2.13 -1.47,5.69 0.26,8c1.73,2.31 4.35,3.81 6.77,5.42c1.936,1.154 3.587,2.73 4.83,4.61c0.146,0.265 0.266,0.543 0.36,0.83l14.65,0c3.276,-1.666 6.313,-3.765 9.03,-6.24Z" style="fill:#3755be;fill-rule:nonzero;"/><path d="M734.874,654.38c0,0 5.5,7.19 -2.53,18c-8.03,10.81 -14.65,20 -12,26.77c0,0 12.11,-20.15 22,-20.43c9.89,-0.28 3.38,-12.22 -7.47,-24.34Z" style="fill:#3755be;fill-rule:nonzero;"/><path d="M734.874,654.38c0.481,0.696 0.861,1.457 1.13,2.26c9.62,11.3 14.74,21.85 5.49,22.11c-8.61,0.25 -18.94,15.65 -21.42,19.54c0.08,0.303 0.181,0.6 0.3,0.89c0.119,0.29 12.11,-20.15 22,-20.43c9.89,-0.28 3.35,-12.25 -7.5,-24.37Z" style="fill-opacity:0.0980392;fill-rule:nonzero;"/><path d="M745.094,663.54c0,2.53 -0.29,4.58 -0.64,4.58c-0.35,0 -0.63,-2.05 -0.63,-4.58c0,-2.53 0.35,-1.34 0.7,-1.34c0.35,0 0.57,-1.19 0.57,1.34Z" style="fill:#ffd037;fill-rule:nonzero;"/><path d="M748.594,666.56c-2.22,1.21 -4.15,1.94 -4.32,1.63c-0.17,-0.31 1.49,-1.53 3.71,-2.74c2.22,-1.21 1.35,-0.33 1.52,0c0.17,0.33 1.31,-0.1 -0.91,1.11Z" style="fill:#ffd037;fill-rule:nonzero;"/><path d="M705.864,654.38c0,0 -5.5,7.19 2.53,18c8.03,10.81 14.65,20 12,26.77c0,0 -12.12,-20.15 -22,-20.43c-9.88,-0.28 -3.37,-12.22 7.47,-24.34Z" style="fill:#3755be;fill-rule:nonzero;"/><path d="M705.864,654.38c-0.481,0.696 -0.861,1.457 -1.13,2.26c-9.62,11.3 -14.74,21.85 -5.49,22.11c8.61,0.25 18.94,15.65 21.42,19.54c-0.082,0.301 -0.178,0.598 -0.29,0.89c-0.112,0.292 -12.12,-20.15 -22,-20.43c-9.88,-0.28 -3.35,-12.25 7.49,-24.37Z" style="fill-opacity:0.0980392;fill-rule:nonzero;"/><path d="M695.644,663.54c0,2.53 0.29,4.58 0.64,4.58c0.35,0 0.63,-2.05 0.63,-4.58c0,-2.53 -0.35,-1.34 -0.7,-1.34c-0.35,0 -0.57,-1.19 -0.57,1.34Z" style="fill:#ffd037;fill-rule:nonzero;"/><path d="M692.144,666.56c2.22,1.21 4.16,1.94 4.32,1.63c0.16,-0.31 -1.49,-1.53 -3.71,-2.74c-2.22,-1.21 -1.35,-0.33 -1.52,0c-0.17,0.33 -1.31,-0.1 0.91,1.11Z" style="fill:#ffd037;fill-rule:nonzero;"/><path d="M697.394,698.24c0,0 15.36,-0.48 20,-3.77c4.64,-3.29 23.63,-7.23 24.78,-2c1.15,5.23 23.08,26.29 5.74,26.43c-17.34,0.14 -40.29,-2.7 -44.91,-5.51c-4.62,-2.81 -5.61,-15.15 -5.61,-15.15Z" style="fill:#a8a8a8;fill-rule:nonzero;"/><path d="M748.214,717.11c-17.34,0.14 -40.29,-2.7 -44.91,-5.51c-3.52,-2.14 -4.92,-9.83 -5.39,-13.38l-0.52,0c0,0 1,12.38 5.6,15.2c4.6,2.82 27.57,5.65 44.91,5.51c5,0 6.73,-1.82 6.64,-4.45c-0.7,1.61 -2.61,2.6 -6.33,2.63Z" style="fill-opacity:0.2;fill-rule:nonzero;"/><path d="M397.29,162.423l-6.554,0l0,-12.731c0,-14.367 -11.455,-26.31 -25.821,-26.527c-0.092,-0.001 -0.184,-0.002 -0.276,-0.002c-14.373,0 -26.212,11.803 -26.256,26.176l0,13.084l-6.54,0c-5.977,0.019 -10.889,4.931 -10.908,10.908l0,52.348c0.019,5.977 4.931,10.889 10.908,10.908l65.447,0c5.976,-0.019 10.887,-4.932 10.903,-10.908l0,-52.348c-0.016,-5.976 -4.927,-10.889 -10.903,-10.908Zm-28.902,34.03l0,18.749c0.013,2.048 -1.585,3.778 -3.628,3.927c-0.06,0.003 -0.119,0.005 -0.179,0.005c-2.099,0 -3.826,-1.727 -3.826,-3.826l0,-18.865c-2.988,-1.457 -4.891,-4.502 -4.891,-7.826c0,-4.776 3.931,-8.707 8.707,-8.707c4.777,0 8.707,3.931 8.707,8.707c0,3.324 -1.903,6.369 -4.89,7.826l0,0.01Zm14.724,-34.03l-37.096,0l0,-13.084c0,-10.172 8.37,-18.541 18.541,-18.541c10.171,0 18.541,8.369 18.541,18.541l0.014,13.084Z" style="fill:#3755be;fill-rule:nonzero;"/><defs><linearGradient id="_Linear1" x1="0" y1="0" x2="1" y2="0" gradientUnits="userSpaceOnUse" gradientTransform="matrix(2.71914e-14,-444.07,444.07,2.71914e-14,592.924,726.06)"><stop offset="0" style="stop-color:#808080;stop-opacity:0.247059"/><stop offset="0.54" style="stop-color:#808080;stop-opacity:0.113725"/><stop offset="1" style="stop-color:#808080;stop-opacity:0.0941176"/></linearGradient><linearGradient id="_Linear2" x1="0" y1="0" x2="1" y2="0" gradientUnits="userSpaceOnUse" gradientTransform="matrix(2.80058e-14,-457.37,457.37,2.80058e-14,149.174,723.68)"><stop offset="0" style="stop-color:#808080;stop-opacity:0.247059"/><stop offset="0.54" style="stop-color:#808080;stop-opacity:0.113725"/><stop offset="1" style="stop-color:#808080;stop-opacity:0.0941176"/></linearGradient></defs></svg>