<?xml version="1.0" encoding="UTF-8"?>
<svg width="200px" height="200px" viewBox="0 0 200 200" version="1.1" xmlns="http://www.w3.org/2000/svg">
    <!-- Generator: Sketch 51 (57462) - http://www.bohemiancoding.com/sketch -->
    <title>index-icon-gulp</title>
    <desc>Created with Sketch.</desc>
    <defs></defs>
    <g id="Page-1" stroke="none" stroke-width="1" fill="none" fill-rule="evenodd">
        <g id="index-icon-gulp" fill-rule="nonzero">
            <rect id="Rectangle" fill="#D34A47" x="0" y="0" width="200" height="200"></rect>
            <g id="gulp" transform="translate(73.000000, 40.000000)" fill="#FFFFFF">
                <path d="M41.661801,116.377753 L42.8123655,97.1682874 L45.9892976,91.7344919 C45.9892976,91.7344919 38.7585706,94.6982259 26.6531558,94.6982259 C14.5475289,94.6982259 7.42640984,91.789297 7.42640984,91.789297 L10.9868634,97.7167652 L12.2463998,116.377753 C12.2463998,118.378359 18.8311399,120 26.9542064,120 C35.0768488,120 41.661801,118.378359 41.661801,116.377753 M38.032445,26.6723313 L40.4474221,17.107959 L53.8210657,3.00813051 L50.2962294,0 L36.1375222,15.019835 L33.3335113,26.4467374 C31.2231537,26.3758871 29.1117539,26.3406906 27.000212,26.3411629 C12.0884542,26.3411629 0,28.0439504 0,30.1439701 C0,32.2442021 12.0884542,33.9467773 27.000212,33.9467773 C41.9117578,33.9467773 54,32.2442021 54,30.1439701 C54,28.5975263 47.4438809,27.2664801 38.032445,26.6723313" id="Shape"></path>
                <path d="M37.7459843,31.9127196 C37.7459843,31.9127196 37.1798994,31.9947635 35.5146875,31.9993627 C33.8490167,32.0038135 32.6663653,31.9923897 32.195278,31.7149538 C32.0686145,31.6404764 31.9993167,31.49256 32.0000051,31.392416 C32.0013819,31.2017716 32.210652,31.089462 32.4772879,31.0191387 L32.7294675,31.2749138 C32.6197843,31.2993934 32.5571409,31.3283239 32.5569115,31.3591831 C32.5559936,31.5039838 34.2599847,31.6030893 35.5633337,31.5924073 C36.8669121,31.582022 38.4419451,31.5125888 38.4433219,31.3698651 C38.4433219,31.3266919 38.3242307,31.2860409 38.1170257,31.2539948 L38.3680581,31 C38.7058274,31.0678012 39.0006871,31.1988044 38.9999988,31.4255006 C38.9967863,31.8109437 38.2381821,31.8695464 37.7459843,31.9127196" id="Shape"></path>
                <path d="M53.8959783,3.17369538 C54.2340404,2.78676065 53.7209789,1.7970357 52.7500626,0.963394137 C51.77872,0.130174984 50.7172133,-0.231837089 50.3785117,0.155097635 C50.0402363,0.542032358 50.553511,1.53175731 51.5248536,2.36497646 C52.4957699,3.19840682 53.557703,3.56084131 53.8959783,3.17369538 M41.0506813,69.2147086 C40.7320161,66.1766796 47.7569312,61.7767756 45.9540749,61.6358992 C42.0729677,61.8557678 40.1413666,66.142675 38.1886631,70.632554 C37.4731053,72.2780826 35.0246058,79.2948653 33.4187039,78.4310208 C31.8132282,77.5675985 35.5001522,71.7975823 36.5335226,68.370929 C35.3411394,69.237308 30.9682859,72.6037668 29.8413409,69.4510514 C28.0295323,70.9757685 24.158017,71.8018065 24.5947694,67.796652 C23.6308873,69.4884354 21.4675877,71.8503846 18.8709462,70.8688968 C15.4609092,69.5803112 20.8468834,58.8168939 22.1861297,59.3599121 C23.5255892,59.902719 21.9158505,62.3546432 21.494232,63.306773 C20.5670123,65.4021766 19.4959136,68.0363741 20.2114714,68.5755905 C21.4373199,69.4994182 24.7731793,65.0807166 24.8473569,64.9835605 C25.4712585,64.1668156 27.2487494,58.8234414 28.6813571,59.4370033 C30.1139649,60.0505652 25.1080442,67.1055764 26.979749,68.5056803 C27.3572448,68.7882778 28.9017583,68.3314329 29.8413409,67.3241777 C30.4492561,66.6725981 30.240152,65.2294077 32.2666067,60.4408793 C34.2930614,55.6525621 36.0991149,49.6892897 37.4888786,50.1436001 C38.8786425,50.5976992 37.7331531,53.6583275 37.234586,54.7992781 C34.8950082,60.1542688 30.8493461,69.0011764 32.7572871,68.3314329 C34.6652282,67.6619007 35.6587388,67.6226158 37.5270333,65.456246 C39.3953277,63.2898763 39.3092135,59.7215017 40.5544589,59.7973257 C41.8001306,59.8733609 41.5910266,61.0174796 41.2889874,61.8887163 C42.5146227,60.4989617 47.0987117,57.5720286 48.2054071,60.4708709 C49.5163039,63.9028045 41.6468729,68.8600888 43.6089551,68.6072718 C45.5220119,68.3607909 48.6212705,66.4157681 49.9445302,64.6473159 L53.586905,32.2001359 C53.586905,32.2001359 49.9217227,35.2056387 26.6039587,35.2056387 C3.28598141,35.2056387 0,32.2626537 0,32.2626537 L3.10096378,61.879212 C4.74693865,57.24381 8.65554276,47.8678241 14.8165448,48.1825253 C17.619093,48.325725 21.3603713,53.672901 18.1556015,53.8541182 C16.7990898,53.9305758 16.6613923,51.1850712 15.055064,50.7818734 C13.8959328,50.4908275 12.2821442,51.4245821 11.2391819,52.4362727 C9.15922561,54.4533179 4.68576346,62.4114584 5.27683938,66.3790178 C6.02991232,71.43726 12.3211514,64.6213372 13.3856423,62.5977447 C14.1353048,61.1722957 14.6417585,56.9489624 16.2813388,57.3920787 C17.9211322,57.8351949 16.1383125,62.193702 14.949766,66.0472085 C13.6145696,70.3742455 12.9126536,74.9386811 11.2391819,74.4136156 C9.56549705,73.8889731 12.2917362,68.3029197 12.1930458,67.3241777 C10.6199696,68.7622991 7.72192847,72.4031183 4.01432849,70.6010839 L5.9401745,88.9927333 C5.9401745,88.9927333 11.0586405,93 26.4775584,93 C41.8964762,93 47.2044361,89.0552515 47.2044361,89.0552515 L49.5958103,67.7533541 C47.6392702,69.6411394 41.4471477,72.9934472 41.0506813,69.2147086" id="Shape"></path>
            </g>
        </g>
    </g>
</svg>