<?xml version="1.0" encoding="UTF-8"?>
<svg width="200px" height="200px" viewBox="0 0 200 200" version="1.1" xmlns="http://www.w3.org/2000/svg">
    <!-- Generator: Sketch 51 (57462) - http://www.bohemiancoding.com/sketch -->
    <title>index-icon-sass</title>
    <desc>Created with Sketch.</desc>
    <defs></defs>
    <g id="Page-1" stroke="none" stroke-width="1" fill="none" fill-rule="evenodd">
        <g id="index-icon-sass" fill-rule="nonzero">
            <rect id="Rectangle" fill="#CF649A" x="0" y="0" width="200" height="200"></rect>
            <path d="M142.615192,106.307951 C138.528629,106.33101 134.989986,107.31247 132.022092,108.773815 C130.926254,106.604969 129.830416,104.709855 129.648005,103.294625 C129.442535,101.650869 129.191405,100.646123 129.442535,98.6829747 C129.693436,96.7193701 130.834934,93.9341156 130.834934,93.705816 C130.811876,93.5003464 130.583577,92.4958283 128.232319,92.4729984 C125.881063,92.4501684 123.848968,92.9295975 123.620669,93.5460063 C123.392368,94.1624151 122.93577,95.5778723 122.63898,97.0389895 C122.228041,99.1850054 117.936009,106.787381 115.493204,110.782623 C114.694156,109.230186 114.009257,107.860388 113.872049,106.764323 C113.666808,105.120794 113.415449,104.116047 113.666808,102.152899 C113.917937,100.189295 115.059435,97.4042688 115.059435,97.1759693 C115.036605,96.9704996 114.808305,95.9659816 112.457048,95.9431516 C110.105335,95.9203217 108.073697,96.3997507 107.845397,97.0161596 C107.617098,97.6325684 107.365968,99.0936856 106.863709,100.509142 C106.384052,101.9246 100.676563,114.618055 99.1926156,117.928399 C98.439227,119.617815 97.7773866,120.964783 97.2977292,121.877981 C96.8183001,122.79118 97.2748992,121.946471 97.2292394,122.037791 C96.8183001,122.814009 96.5900006,123.247778 96.5900006,123.247778 L96.5900006,123.270837 C96.2703812,123.841586 95.9279319,124.389276 95.7678939,124.389276 C95.6537441,124.389276 95.4254446,122.85967 95.8135538,120.759542 C96.6582621,116.353132 98.7129582,109.481544 98.6903566,109.230414 C98.6903566,109.116264 99.0782374,107.906049 97.3659908,107.289868 C95.699404,106.673459 95.1060534,107.700807 94.9688455,107.700807 C94.8318657,107.700807 94.7177159,108.066086 94.7177159,108.066086 C94.7177159,108.066086 96.5669424,100.32696 91.1790728,100.32696 C87.8002393,100.32696 83.1429283,104.002583 80.8371028,107.358586 C79.3759856,108.157634 76.2711116,109.846823 72.983598,111.650618 C71.7279504,112.335516 70.4266429,113.066075 69.1938253,113.728144 L68.9429241,113.453728 C62.4135568,106.490591 50.3365101,101.559321 50.8387692,92.1990389 C51.0214088,88.7973755 52.2085665,79.8252029 74.0342325,68.9581439 C91.9100879,60.0544611 106.22447,62.4972664 108.712707,67.9307958 C112.25135,75.6929809 101.064672,90.121513 82.4813162,92.1990389 C75.4040299,92.9980874 71.6825188,90.2584927 70.7467189,89.2311447 C69.7650308,88.1581367 69.6280511,88.1124768 69.2627718,88.3179464 C68.669193,88.6375658 69.0344722,89.5964239 69.2627718,90.1671728 C69.8106908,91.6054601 72.0936863,94.1624151 75.9747788,95.4408926 C79.3762139,96.5595605 87.6865461,97.1759693 97.7317267,93.2948768 C108.986895,88.9343552 117.776428,76.8344786 115.196643,66.7208082 C112.571198,56.4244981 95.494391,53.0456647 79.3536123,58.7759836 C69.7419725,62.2004769 59.3315127,67.5426866 51.8432872,74.5514831 C42.9396044,82.8615869 41.5241471,90.121513 42.117726,93.1350671 C44.1954803,103.887976 59.0118933,110.896772 64.9476819,116.079172 C64.6508924,116.238754 64.376933,116.398563 64.1258034,116.535772 C61.1579092,117.996661 49.857081,123.909848 47.0261665,130.165027 C43.8299727,137.242313 47.5284256,142.333622 49.9940607,143.018521 C57.619266,145.141706 65.4271109,141.329104 69.6506528,135.050866 C73.8511363,128.772628 73.3491056,120.622334 71.4085593,116.901051 L71.3398412,116.764071 L73.6684966,115.394274 C75.1755021,114.503906 76.6594492,113.682027 77.9605283,112.97407 C77.2301981,114.960277 76.7048808,117.311762 76.4311496,120.736255 C76.1115302,124.754556 77.755287,129.959557 79.9241328,132.014254 C80.882991,132.904393 82.0244887,132.927452 82.7322174,132.927452 C85.2435125,132.927452 86.3850103,130.849698 87.6406579,128.361461 C89.1930949,125.325076 90.5628923,121.809264 90.5628923,121.809264 C90.5628923,121.809264 88.8506456,131.329355 93.5307865,131.329355 C95.2430332,131.329355 96.9552799,129.114849 97.7314984,127.973351 L97.7314984,127.996181 C97.7314984,127.996181 97.7771583,127.927691 97.8684781,127.767882 C97.9642695,127.626242 98.0556334,127.481659 98.1424376,127.334341 L98.1424376,127.288681 C98.8273363,126.101523 100.356943,123.384759 102.639939,118.887257 C105.584775,113.088449 108.415918,105.828523 108.415918,105.828523 C108.415918,105.828523 108.689877,107.609259 109.534586,110.531493 C110.036616,112.266799 111.132454,114.161456 111.977162,116.010683 C111.292264,116.969541 110.881325,117.517688 110.881325,117.517688 L110.904154,117.540519 C110.356464,118.271077 109.739827,119.047523 109.100817,119.823513 C106.772161,122.608768 103.986907,125.782361 103.621627,126.695559 C103.187858,127.768338 103.279178,128.567387 104.123886,129.206854 C104.740295,129.663453 105.836132,129.754544 107.000461,129.663453 C109.100817,129.526245 110.561934,129.001384 111.292492,128.681537 C112.43399,128.270597 113.735297,127.654189 114.990945,126.74099 C117.273941,125.051802 118.666568,122.654657 118.529588,119.458463 C118.461098,117.700556 117.890349,115.965479 117.182621,114.321723 C117.388091,114.024933 117.593788,113.727916 117.79903,113.408525 C121.406162,108.134576 124.191417,102.335996 124.191417,102.335996 C124.191417,102.335996 124.465377,104.116732 125.310085,107.038966 C125.743626,108.522914 126.611392,110.144069 127.387611,111.742166 C124.008777,114.50459 121.885592,117.700784 121.155033,119.80114 C119.808066,123.682233 120.858244,125.44014 122.84445,125.851079 C123.73459,126.033718 125.013295,125.622779 125.971925,125.21184 C127.159083,124.823731 128.597371,124.161433 129.921736,123.179974 C132.204731,121.490557 134.396407,119.139072 134.282257,115.965707 C134.213768,114.50459 133.825659,113.066304 133.30057,111.696506 C136.177144,110.509348 139.898198,109.824449 144.624228,110.395199 C154.783558,111.582356 156.792594,117.929084 156.404714,120.577359 C156.016604,123.225862 153.893418,124.686751 153.185461,125.14335 C152.477733,125.577119 152.249433,125.737157 152.317923,126.056549 C152.409243,126.536205 152.728862,126.513147 153.345271,126.422056 C154.189979,126.284848 158.68748,124.25321 158.87012,119.367828 C159.14408,113.088677 153.185461,106.23969 142.615192,106.307951 Z M64.2627832,132.722211 C60.9067796,136.397833 56.1809788,137.79046 54.1719427,136.603303 C52.0030969,135.347655 52.847577,129.936956 56.9800272,126.033033 C59.4913224,123.658718 62.7560061,121.467042 64.9020219,120.120075 C65.381451,119.823285 66.1120096,119.389744 66.9795479,118.864427 C67.1165277,118.773335 67.2078474,118.727448 67.2078474,118.727448 C67.3676572,118.636128 67.5502968,118.521978 67.7329364,118.407828 C69.2625435,123.978337 67.8014263,128.863948 64.2627832,132.722211 Z M88.8049856,116.033513 C87.6406579,118.887257 85.1750227,126.215673 83.6910756,125.804734 C82.4123697,125.462285 81.6363795,119.914605 83.4397177,114.435416 C84.352916,111.672763 86.2934622,108.385477 87.43496,107.106772 C89.2844148,105.052076 91.2932226,104.367177 91.7957099,105.211886 C92.3892887,106.307951 89.5355443,114.252776 88.8049856,116.033513 Z M109.055156,125.713414 C108.552898,125.964772 108.096298,126.147183 107.890829,126.010432 C107.731019,125.919112 108.09607,125.576663 108.09607,125.576663 C108.09607,125.576663 110.630195,122.859898 111.634713,121.604251 C112.205462,120.87392 112.890361,120.029212 113.620919,119.070125 L113.620919,119.344085 C113.621147,122.63137 110.470614,124.823046 109.055156,125.713414 Z M124.670618,122.151941 C124.305338,121.877981 124.351227,121.033273 125.583817,118.384999 C126.063473,117.33482 127.159083,115.576914 129.053969,113.910327 C129.282269,114.595225 129.419477,115.257066 129.396419,115.873703 C129.373817,119.983095 126.451583,121.512702 124.670618,122.151941 Z" id="Shape" fill="#FFFFFF"></path>
        </g>
    </g>
</svg>