<?xml version="1.0" encoding="UTF-8"?>
<svg width="200px" height="200px" viewBox="0 0 200 200" version="1.1" xmlns="http://www.w3.org/2000/svg">
    <!-- Generator: Sketch 51 (57462) - http://www.bohemiancoding.com/sketch -->
    <title>index-icon-bootstrap</title>
    <desc>Created with Sketch.</desc>
    <defs></defs>
    <g id="Page-1" stroke="none" stroke-width="1" fill="none" fill-rule="evenodd">
        <g id="index-icon-bootstrap" fill-rule="nonzero">
            <rect id="Rectangle" fill="#563D7C" x="0" y="0" width="200" height="200"></rect>
            <path d="M83.2715115,91.6331335 L83.2715115,72.1983095 L100.378638,72.1983095 C102.008348,72.1983095 103.579088,72.3339399 105.09193,72.6057369 C106.604772,72.8769977 107.943386,73.361622 109.107235,74.0601456 C110.270548,74.7586692 111.201733,75.7284536 111.900257,76.969499 C112.598244,78.2110804 112.947774,79.8016557 112.947774,81.7406885 C112.947774,85.2322342 111.900257,87.7539956 109.805223,89.3054363 C107.710724,90.8574131 105.034032,91.6331335 101.77515,91.6331335 L83.2715115,91.6331335 Z M65,58 L65,141.09375 L105.266695,141.09375 C108.990904,141.09375 112.61808,140.628425 116.148224,139.697239 C119.678368,138.766052 122.820384,137.330943 125.574807,135.391375 C128.328695,133.451805 130.520762,130.949343 132.149935,127.88506 C133.779645,124.820241 134.593964,121.193065 134.593964,117.003532 C134.593964,111.805079 133.333083,107.363585 130.811858,103.67851 C128.290097,99.9929009 124.468857,97.4132419 119.348137,95.938998 C123.072346,94.1548947 125.885203,91.865796 127.786174,89.0727738 C129.686608,86.2797516 130.637093,82.7887419 130.637093,78.5986726 C130.637093,74.7195347 129.997004,71.4611875 128.716824,68.823095 C127.436644,66.1855385 125.632705,64.0712047 123.305008,62.4806294 C120.977847,60.8900543 118.184825,59.7455048 114.925942,59.0475173 C111.667594,58.3489938 108.059718,58 104.102846,58 L65,58 Z M83.2715115,126.89544 L83.2715115,104.085402 L103.171661,104.085402 C107.128531,104.085402 110.309682,104.996752 112.715112,106.820527 C115.120006,108.643765 116.322989,111.688748 116.322989,115.956015 C116.322989,118.128782 115.95416,119.912885 115.217038,121.309396 C114.479916,122.705908 113.490832,123.811858 112.24925,124.626177 C111.008205,125.441032 109.57256,126.022688 107.943386,126.372218 C106.313676,126.720675 104.607306,126.89544 102.822667,126.89544 L83.2715115,126.89544 Z" id="Shape" fill="#FFFFFF"></path>
        </g>
    </g>
</svg>