<?xml version="1.0" encoding="UTF-8" standalone="no"?>
<!DOCTYPE svg PUBLIC "-//W3C//DTD SVG 1.1//EN" "http://www.w3.org/Graphics/SVG/1.1/DTD/svg11.dtd">
<svg width="100%" height="100%" viewBox="0 0 2501 741" version="1.1" xmlns="http://www.w3.org/2000/svg" xmlns:xlink="http://www.w3.org/1999/xlink" xml:space="preserve" xmlns:serif="http://www.serif.com/" style="fill-rule:evenodd;clip-rule:evenodd;stroke-linejoin:round;stroke-miterlimit:1.41421;">
    <g transform="matrix(4.00216,0,0,4.0011,0,0)">
        <path d="M602.9,185.2L21.9,185.2C9.8,185.2 0,175.4 0,163.3L0,21.9C0,9.8 9.8,0 21.9,0L602.9,0C615,0 624.8,9.8 624.8,21.9L624.8,163.3C624.8,175.4 615,185.2 602.9,185.2Z" style="fill:white;fill-rule:nonzero;"/>
        <path d="M139.5,91.6C139.4,76.7 151.7,69.4 152.3,69.1C145.3,58.9 134.5,57.5 130.6,57.4C121.5,56.4 112.7,62.9 108,62.9C103.3,62.9 96.1,57.5 88.4,57.7C78.5,57.9 69.2,63.6 64.1,72.5C53.6,90.7 61.4,117.4 71.5,132C76.5,139.2 82.4,147.2 90.1,146.9C97.6,146.6 100.4,142.1 109.5,142.1C118.5,142.1 121.1,146.9 129,146.7C137.1,146.6 142.2,139.5 147,132.2C152.8,124 155.1,115.8 155.2,115.4C155.2,115.4 139.7,109.5 139.5,91.6ZM124.7,47.7C128.7,42.6 131.5,35.8 130.7,28.8C124.8,29.1 117.5,32.9 113.3,37.8C109.6,42.2 106.2,49.3 107.1,56C113.7,56.5 120.5,52.7 124.7,47.7Z" style="fill-rule:nonzero;"/>
        <path d="M248.5,145.9L238,145.9L232.2,127.8L212.2,127.8L206.7,145.9L196.5,145.9L216.3,84.3L228.6,84.3L248.5,145.9ZM230.5,120.2L225.3,104.1C224.7,102.5 223.7,98.6 222.2,92.5L222,92.5C221.4,95.1 220.4,99 219.1,104.1L214,120.2L230.5,120.2ZM299.4,123.1C299.4,130.7 297.3,136.6 293.2,141C289.5,144.9 285,146.9 279.5,146.9C273.6,146.9 269.4,144.8 266.8,140.6L266.8,163.9L257,163.9L257,116C257,111.3 256.9,106.4 256.6,101.4L265.3,101.4L265.9,108.4L266.1,108.4C269.4,103.1 274.4,100.4 281.1,100.4C286.3,100.4 290.7,102.5 294.2,106.6C297.7,110.9 299.4,116.4 299.4,123.1ZM289.4,123.5C289.4,119.2 288.4,115.6 286.5,112.8C284.4,109.9 281.5,108.4 277.9,108.4C275.5,108.4 273.3,109.2 271.3,110.8C269.3,112.4 268,114.5 267.4,117.2C267.1,118.2 267,119.2 266.9,120.2L266.9,127.6C266.9,130.8 267.9,133.6 269.9,135.8C271.9,138 274.5,139.1 277.6,139.1C281.3,139.1 284.2,137.7 286.3,134.8C288.4,132 289.4,128.2 289.4,123.5ZM350.6,123.1C350.6,130.7 348.5,136.6 344.4,141C340.7,144.9 336.2,146.9 330.7,146.9C324.8,146.9 320.6,144.8 318,140.6L318,163.9L308.1,163.9L308.1,116C308.1,111.3 308,106.4 307.7,101.4L316.4,101.4L317,108.4L317.2,108.4C320.5,103.1 325.5,100.4 332.2,100.4C337.4,100.4 341.8,102.5 345.3,106.6C348.8,110.9 350.6,116.4 350.6,123.1ZM340.5,123.5C340.5,119.2 339.5,115.6 337.6,112.8C335.5,109.9 332.6,108.4 329,108.4C326.6,108.4 324.4,109.2 322.4,110.8C320.4,112.4 319.1,114.5 318.5,117.2C318.2,118.4 318,119.4 318,120.2L318,127.6C318,130.8 319,133.6 321,135.8C323,138 325.6,139.1 328.7,139.1C332.4,139.1 335.3,137.7 337.4,134.8C339.5,132 340.5,128.2 340.5,123.5ZM407.7,128.6C407.7,133.8 405.9,138.1 402.2,141.4C398.2,145 392.6,146.8 385.4,146.8C378.8,146.8 373.5,145.5 369.4,143L371.7,134.8C376,137.4 380.8,138.6 386,138.6C389.7,138.6 392.6,137.8 394.7,136.1C396.8,134.4 397.8,132.2 397.8,129.4C397.8,126.9 396.9,124.8 395.2,123.1C393.5,121.4 390.7,119.8 386.7,118.3C375.9,114.3 370.5,108.4 370.5,100.6C370.5,95.5 372.4,91.4 376.2,88.2C380,85 385.1,83.4 391.3,83.4C396.9,83.4 401.6,84.4 405.3,86.3L402.8,94.3C399.3,92.4 395.4,91.5 391,91.5C387.5,91.5 384.8,92.4 382.8,94.1C381.2,95.6 380.3,97.5 380.3,99.7C380.3,102.1 381.2,104.2 383.1,105.7C384.7,107.2 387.7,108.7 392.1,110.5C397.4,112.6 401.3,115.1 403.8,118C406.5,120.8 407.7,124.3 407.7,128.6ZM440.4,108.9L429.5,108.9L429.5,130.5C429.5,136 431.4,138.7 435.3,138.7C437.1,138.7 438.5,138.6 439.7,138.2L440,145.7C438.1,146.4 435.5,146.8 432.3,146.8C428.4,146.8 425.4,145.6 423.2,143.2C421,140.8 419.9,136.8 419.9,131.2L419.9,108.8L413.4,108.8L413.4,101.4L419.9,101.4L419.9,93.3L429.6,90.4L429.6,101.5L440.5,101.5L440.4,108.9ZM489.4,123.3C489.4,130.1 487.4,135.7 483.5,140.1C479.4,144.6 474,146.9 467.2,146.9C460.7,146.9 455.5,144.7 451.6,140.4C447.7,136.1 445.8,130.6 445.8,124C445.8,117.1 447.8,111.5 451.8,107.1C455.8,102.7 461.2,100.5 467.9,100.5C474.4,100.5 479.7,102.7 483.6,107C487.5,111.2 489.4,116.7 489.4,123.3ZM479.2,123.5C479.2,119.4 478.3,115.9 476.6,113C474.5,109.5 471.6,107.7 467.7,107.7C463.7,107.7 460.7,109.5 458.6,113C456.8,115.9 456,119.5 456,123.7C456,127.8 456.9,131.3 458.6,134.2C460.7,137.7 463.7,139.5 467.6,139.5C471.4,139.5 474.3,137.7 476.5,134.1C478.3,131.1 479.2,127.6 479.2,123.5ZM521.5,110.1C520.5,109.9 519.4,109.8 518.4,109.8C514.9,109.8 512.2,111.1 510.4,113.7C508.8,116 507.9,118.9 507.9,122.5L507.9,145.8L498,145.8L498,115.4C498,110.7 497.9,106.1 497.7,101.4L506.3,101.4L506.7,109.9L507,109.9C508,107 509.7,104.6 511.9,102.9C514,101.4 516.5,100.5 519,100.5C519.9,100.5 520.7,100.6 521.5,100.7L521.5,110.1ZM565.7,121.6C565.7,123.1 565.6,124.6 565.3,126.1L535.7,126.1C535.8,130.5 537.2,133.9 540,136.2C542.5,138.3 545.7,139.3 549.7,139.3C554.1,139.3 558.1,138.6 561.7,137.2L563.2,144C559,145.8 554,146.7 548.3,146.7C541.4,146.7 536,144.7 532.1,140.6C528.2,136.5 526.2,131.1 526.2,124.3C526.2,117.6 528,112 531.7,107.6C535.5,102.8 540.7,100.5 547.2,100.5C553.6,100.5 558.5,102.9 561.7,107.6C564.4,111.4 565.7,116 565.7,121.6ZM556.3,119C556.4,116.1 555.7,113.5 554.4,111.4C552.7,108.6 550.1,107.3 546.5,107.3C543.3,107.3 540.6,108.6 538.6,111.3C537,113.4 536,116 535.7,119L556.3,119ZM209.4,62.5C206.7,62.5 204.3,62.4 202.3,62.1L202.3,32.3C205.1,31.9 207.9,31.7 210.7,31.7C222,31.7 227.2,37.3 227.2,46.4C227.2,56.8 221,62.5 209.4,62.5ZM211,35.5C209.5,35.5 208.2,35.6 207.1,35.8L207.1,58.4C207.7,58.5 208.8,58.5 210.4,58.5C217.8,58.5 222,54.3 222,46.4C222,39.4 218.2,35.5 211,35.5ZM243.4,62.7C237,62.7 232.9,57.9 232.9,51.5C232.9,44.8 237.1,40 243.8,40C250.1,40 254.3,44.5 254.3,51.2C254.3,57.9 249.9,62.7 243.4,62.7ZM243.6,43.5C240.1,43.5 237.8,46.8 237.8,51.4C237.8,55.9 240.1,59.2 243.5,59.2C246.9,59.2 249.2,55.7 249.2,51.3C249.3,46.8 247,43.5 243.6,43.5ZM290.7,40.4L283.9,62.2L279.4,62.2L276.6,52.7C275.9,50.4 275.3,48 274.8,45.6L274.7,45.6C274.3,48 273.7,50.4 272.9,52.7L269.9,62.2L265.4,62.2L259,40.4L264,40.4L266.5,50.8C267.1,53.3 267.6,55.6 268,57.8L268.1,57.8C268.5,56 269,53.7 269.9,50.8L273,40.4L277,40.4L280,50.6C280.7,53.1 281.3,55.5 281.8,57.8L281.9,57.8C282.2,55.6 282.7,53.2 283.4,50.6L286.1,40.4L290.7,40.4ZM315.8,62.2L311,62.2L311,49.7C311,45.8 309.5,43.9 306.6,43.9C303.7,43.9 301.7,46.4 301.7,49.2L301.7,62.2L296.8,62.2L296.8,46.6C296.8,44.7 296.8,42.6 296.6,40.4L300.9,40.4L301.1,43.8L301.2,43.8C302.5,41.5 305.2,40 308.1,40C312.7,40 315.7,43.5 315.7,49.2L315.8,62.2ZM329.2,62.2L324.3,62.2L324.3,30.3L329.2,30.3L329.2,62.2ZM346.9,62.7C340.5,62.7 336.4,57.9 336.4,51.5C336.4,44.8 340.6,40 347.3,40C353.6,40 357.8,44.5 357.8,51.2C357.8,57.9 353.4,62.7 346.9,62.7ZM347.1,43.5C343.6,43.5 341.3,46.8 341.3,51.4C341.3,55.9 343.6,59.2 347,59.2C350.4,59.2 352.7,55.7 352.7,51.3C352.7,46.8 350.5,43.5 347.1,43.5ZM376.9,62.2L376.5,59.7L376.4,59.7C374.9,61.7 372.8,62.7 370,62.7C366.1,62.7 363.3,60 363.3,56.3C363.3,50.9 368,48.1 376.1,48.1L376.1,47.7C376.1,44.8 374.6,43.4 371.6,43.4C369.4,43.4 367.6,43.9 365.9,45L364.9,41.8C366.9,40.5 369.4,39.9 372.4,39.9C378.1,39.9 381,42.9 381,48.9L381,56.9C381,59.1 381.1,60.8 381.3,62.1L376.9,62.2ZM376.2,51.3C370.8,51.3 368.1,52.6 368.1,55.7C368.1,58 369.5,59.1 371.4,59.1C373.9,59.1 376.2,57.2 376.2,54.7L376.2,51.3ZM404.5,62.2L404.3,58.7L404.2,58.7C402.8,61.3 400.5,62.7 397.2,62.7C391.9,62.7 388,58.1 388,51.6C388,44.8 392,40 397.6,40C400.5,40 402.6,41 403.8,43L403.9,43L403.9,30.3L408.8,30.3L408.8,56.3C408.8,58.4 408.9,60.4 409,62.2L404.5,62.2ZM403.8,49.4C403.8,46.3 401.8,43.7 398.7,43.7C395.1,43.7 392.9,46.9 392.9,51.4C392.9,55.8 395.2,58.8 398.6,58.8C401.7,58.8 403.8,56.1 403.8,53L403.8,49.4ZM439.5,62.7C433.1,62.7 429,57.9 429,51.5C429,44.8 433.2,40 439.9,40C446.2,40 450.4,44.5 450.4,51.2C450.4,57.9 446,62.7 439.5,62.7ZM439.7,43.5C436.2,43.5 434,46.8 434,51.4C434,55.9 436.3,59.2 439.7,59.2C443.1,59.2 445.4,55.7 445.4,51.3C445.3,46.8 443.1,43.5 439.7,43.5ZM476.5,62.2L471.6,62.2L471.6,49.7C471.6,45.8 470.1,43.9 467.2,43.9C464.3,43.9 462.4,46.4 462.4,49.2L462.4,62.2L457.5,62.2L457.5,46.6C457.5,44.7 457.5,42.6 457.3,40.4L461.6,40.4L461.8,43.8L461.9,43.8C463.2,41.5 465.9,40 468.8,40C473.4,40 476.4,43.5 476.4,49.2L476.4,62.2L476.5,62.2ZM509.1,44L503.8,44L503.8,54.6C503.8,57.3 504.7,58.6 506.6,58.6C507.5,58.6 508.2,58.5 508.8,58.4L508.9,62.1C508,62.5 506.7,62.6 505.1,62.6C501.3,62.6 499,60.5 499,55L499,44L495.8,44L495.8,40.4L499,40.4L499,36.4L503.8,35L503.8,40.4L509.1,40.4L509.1,44ZM534.8,62.2L530,62.2L530,49.8C530,45.9 528.5,43.9 525.6,43.9C523.1,43.9 520.7,45.6 520.7,49.1L520.7,62.3L515.9,62.3L515.9,30.3L520.7,30.3L520.7,43.4L520.8,43.4C522.3,41 524.5,39.8 527.4,39.8C532,39.8 534.8,43.4 534.8,49.1L534.8,62.2ZM561.1,52.5L546.5,52.5C546.6,56.6 549.3,59 553.4,59C555.6,59 557.5,58.6 559.3,58L560.1,61.4C558,62.3 555.6,62.7 552.8,62.7C546,62.7 541.9,58.4 541.9,51.7C541.9,45 546,40 552.2,40C557.8,40 561.3,44.1 561.3,50.4C561.3,51 561.3,51.7 561.1,52.5ZM556.7,49C556.7,45.6 555,43.2 551.9,43.2C549.1,43.2 546.9,45.6 546.6,49L556.7,49Z" style="fill-rule:nonzero;"/>
    </g>
</svg>
