<?xml version="1.0" encoding="UTF-8" standalone="no"?><!DOCTYPE svg PUBLIC "-//W3C//DTD SVG 1.1//EN" "http://www.w3.org/Graphics/SVG/1.1/DTD/svg11.dtd"><svg width="100%" height="100%" viewBox="0 0 834 834" version="1.1" xmlns="http://www.w3.org/2000/svg" xmlns:xlink="http://www.w3.org/1999/xlink" xml:space="preserve" xmlns:serif="http://www.serif.com/" style="fill-rule:evenodd;clip-rule:evenodd;stroke-linejoin:round;stroke-miterlimit:1.41421;"><rect id="Artboard1" x="0" y="0" width="833.333" height="833.333" style="fill:none;"/><path d="M104.167,187.419c0,-20.11 7.038,-36.7 21.114,-49.77c14.077,-13.072 32.377,-19.607 54.899,-19.607c22.121,0 40.018,6.434 53.692,19.305c14.077,13.272 21.115,30.566 21.115,51.882c0,19.305 -6.837,35.392 -20.511,48.263c-14.077,13.272 -32.578,19.908 -55.502,19.908l-0.604,0c-22.12,0 -40.017,-6.636 -53.692,-19.908c-13.674,-13.273 -20.511,-29.964 -20.511,-50.073Zm7.842,527.872l0,-402.992l133.929,0l0,402.992l-133.929,0Zm208.133,0l133.927,0l0,-225.025c0,-14.077 1.61,-24.935 4.828,-32.577c5.63,-13.675 14.177,-25.238 25.64,-34.688c11.462,-9.452 25.84,-14.177 43.135,-14.177c45.045,0 67.567,30.365 67.567,91.095l0,215.372l133.928,0l0,-231.057c0,-59.525 -14.078,-104.67 -42.23,-135.437c-28.153,-30.767 -65.355,-46.151 -111.608,-46.151c-51.882,0 -92.302,22.322 -121.26,66.965l0,1.205l-0.602,0l0.602,-1.205l0,-57.312l-133.927,0c0.804,12.869 1.206,52.887 1.206,120.052c0,67.165 -0.402,161.478 -1.206,282.94Z" style="fill:#38d39f;fill-rule:nonzero;"/></svg>