<?xml version="1.0" encoding="UTF-8" standalone="no"?>
<!DOCTYPE svg PUBLIC "-//W3C//DTD SVG 1.1//EN" "http://www.w3.org/Graphics/SVG/1.1/DTD/svg11.dtd">
<svg width="100%" height="100%" viewBox="0 0 2500 741" version="1.1" xmlns="http://www.w3.org/2000/svg" xmlns:xlink="http://www.w3.org/1999/xlink" xml:space="preserve" xmlns:serif="http://www.serif.com/" style="fill-rule:evenodd;clip-rule:evenodd;stroke-linejoin:round;stroke-miterlimit:1.41421;">
    <path d="M2407.41,740.87L92.593,740.87C40.741,740.87 0,700.13 0,648.278L0,92.722C0,40.87 40.741,0.13 92.593,0.13L2407.41,0.13C2459.26,0.13 2500,40.87 2500,92.722L2500,648.278C2500,700.13 2459.26,740.87 2407.41,740.87Z" style="fill:white;fill-rule:nonzero;"/>
    <path d="M877.778,189.019C877.778,203.833 874.074,216.796 864.815,226.056C853.704,237.167 840.741,242.722 824.074,242.722C807.407,242.722 794.444,237.167 783.333,226.056C772.222,214.944 766.667,201.981 766.667,185.315C766.667,168.648 772.222,155.685 783.333,144.574C794.444,133.463 807.407,127.907 824.074,127.907C831.481,127.907 838.889,129.759 846.296,133.463C853.704,137.167 859.259,140.87 862.963,146.426L853.704,155.685C846.296,146.426 837.037,142.722 824.074,142.722C812.963,142.722 801.852,146.426 794.444,155.685C785.185,163.093 781.481,174.204 781.481,187.167C781.481,200.13 785.185,211.241 794.444,218.648C803.704,226.056 812.963,231.611 824.074,231.611C837.037,231.611 846.296,227.907 855.556,218.648C861.111,213.093 864.815,205.685 864.815,196.426L824.074,196.426L824.074,181.611L877.778,181.611L877.778,189.019ZM962.963,142.722L912.963,142.722L912.963,177.907L959.259,177.907L959.259,190.87L912.963,190.87L912.963,226.056L962.963,226.056L962.963,240.87L898.148,240.87L898.148,129.759L962.963,129.759L962.963,142.722ZM1024.07,240.87L1009.26,240.87L1009.26,142.722L977.778,142.722L977.778,129.759L1055.56,129.759L1055.56,142.722L1024.07,142.722L1024.07,240.87ZM1109.26,240.87L1109.26,129.759L1124.07,129.759L1124.07,240.87L1109.26,240.87ZM1187.04,240.87L1172.22,240.87L1172.22,142.722L1140.74,142.722L1140.74,129.759L1216.67,129.759L1216.67,142.722L1185.18,142.722L1185.18,240.87L1187.04,240.87ZM1362.96,226.056C1351.85,237.167 1338.89,242.722 1322.22,242.722C1305.56,242.722 1292.59,237.167 1281.48,226.056C1270.37,214.944 1264.82,201.981 1264.82,185.315C1264.82,168.648 1270.37,155.685 1281.48,144.574C1292.59,133.463 1305.56,127.907 1322.22,127.907C1338.89,127.907 1351.85,133.463 1362.96,144.574C1374.07,155.685 1379.63,168.648 1379.63,185.315C1379.63,201.981 1374.07,214.944 1362.96,226.056ZM1292.59,216.796C1300,224.204 1311.11,229.759 1322.22,229.759C1333.33,229.759 1344.44,226.056 1351.85,216.796C1359.26,209.389 1364.82,198.278 1364.82,185.315C1364.82,172.352 1361.11,161.241 1351.85,153.833C1344.44,146.426 1333.33,140.87 1322.22,140.87C1311.11,140.87 1300,144.574 1292.59,153.833C1285.18,161.241 1279.63,172.352 1279.63,185.315C1279.63,198.278 1283.33,209.389 1292.59,216.796ZM1400,240.87L1400,129.759L1416.67,129.759L1470.37,216.796L1470.37,129.759L1485.18,129.759L1485.18,240.87L1470.37,240.87L1412.96,150.13L1412.96,240.87L1400,240.87Z" style="fill-rule:nonzero;"/>
    <path d="M1261.11,403.833C1216.67,403.833 1181.48,437.167 1181.48,483.463C1181.48,527.907 1216.67,563.093 1261.11,563.093C1305.56,563.093 1340.74,529.759 1340.74,483.463C1340.74,435.315 1305.56,403.833 1261.11,403.833ZM1261.11,529.759C1237.04,529.759 1216.67,509.389 1216.67,481.611C1216.67,453.833 1237.04,433.463 1261.11,433.463C1285.18,433.463 1305.56,451.981 1305.56,481.611C1305.56,509.389 1285.18,529.759 1261.11,529.759ZM1088.89,403.833C1044.44,403.833 1009.26,437.167 1009.26,483.463C1009.26,527.907 1044.44,563.093 1088.89,563.093C1133.33,563.093 1168.52,529.759 1168.52,483.463C1168.52,435.315 1133.33,403.833 1088.89,403.833ZM1088.89,529.759C1064.82,529.759 1044.44,509.389 1044.44,481.611C1044.44,453.833 1064.82,433.463 1088.89,433.463C1112.96,433.463 1133.33,451.981 1133.33,481.611C1133.33,509.389 1112.96,529.759 1088.89,529.759ZM883.333,427.907L883.333,461.241L962.963,461.241C961.111,479.759 953.704,494.574 944.444,503.833C933.333,514.944 914.815,527.907 883.333,527.907C833.333,527.907 796.296,489.019 796.296,439.019C796.296,389.019 835.185,350.13 883.333,350.13C909.259,350.13 929.63,361.241 944.444,374.204L968.519,350.13C948.148,331.611 922.222,316.796 885.185,316.796C818.519,316.796 761.111,372.352 761.111,439.019C761.111,505.685 818.519,561.241 885.185,561.241C922.222,561.241 948.148,550.13 970.37,526.056C992.593,503.833 1000,472.352 1000,448.278C1000,440.87 1000,433.463 998.148,427.907L883.333,427.907ZM1724.07,453.833C1716.67,435.315 1698.15,403.833 1657.41,403.833C1616.67,403.833 1583.33,435.315 1583.33,483.463C1583.33,527.907 1616.67,563.093 1661.11,563.093C1696.3,563.093 1718.52,540.87 1725.93,527.907L1700,509.389C1690.74,522.352 1679.63,531.611 1661.11,531.611C1642.59,531.611 1631.48,524.204 1622.22,507.537L1727.78,463.093L1724.07,453.833ZM1616.67,479.759C1616.67,450.13 1640.74,433.463 1657.41,433.463C1670.37,433.463 1683.33,440.87 1687.04,450.13L1616.67,479.759ZM1529.63,555.685L1564.82,555.685L1564.82,324.204L1529.63,324.204L1529.63,555.685ZM1474.07,420.5C1464.82,411.241 1450,401.981 1431.48,401.981C1392.59,401.981 1355.56,437.167 1355.56,481.611C1355.56,526.056 1390.74,559.389 1431.48,559.389C1450,559.389 1464.82,550.13 1472.22,540.87L1474.07,540.87L1474.07,551.981C1474.07,581.611 1457.41,598.278 1431.48,598.278C1411.11,598.278 1396.3,583.463 1392.59,570.5L1362.96,583.463C1372.22,603.833 1394.44,629.759 1433.33,629.759C1474.07,629.759 1507.41,605.685 1507.41,548.278L1507.41,407.537L1474.07,407.537L1474.07,420.5ZM1433.33,529.759C1409.26,529.759 1388.89,509.389 1388.89,481.611C1388.89,453.833 1409.26,433.463 1433.33,433.463C1457.41,433.463 1475.93,453.833 1475.93,481.611C1475.93,509.389 1457.41,529.759 1433.33,529.759ZM1885.18,324.204L1801.85,324.204L1801.85,555.685L1837.04,555.685L1837.04,468.648L1885.18,468.648C1924.07,468.648 1961.11,440.87 1961.11,396.426C1961.11,351.981 1924.07,324.204 1885.18,324.204ZM1887.04,435.315L1837.04,435.315L1837.04,355.685L1887.04,355.685C1912.96,355.685 1927.78,377.907 1927.78,394.574C1925.93,414.944 1911.11,435.315 1887.04,435.315ZM2100,401.981C2074.07,401.981 2048.15,413.093 2038.89,437.167L2070.37,450.13C2077.78,437.167 2088.89,433.463 2101.85,433.463C2120.37,433.463 2137.04,444.574 2138.89,463.093L2138.89,464.944C2133.33,461.241 2118.52,455.685 2103.7,455.685C2070.37,455.685 2037.04,474.204 2037.04,507.537C2037.04,539.019 2064.82,559.389 2094.44,559.389C2118.52,559.389 2129.63,548.278 2138.89,537.167L2140.74,537.167L2140.74,555.685L2174.07,555.685L2174.07,466.796C2170.37,426.056 2138.89,401.981 2100,401.981ZM2096.3,529.759C2085.18,529.759 2068.52,524.204 2068.52,509.389C2068.52,490.87 2088.89,485.315 2105.56,485.315C2120.37,485.315 2127.78,489.019 2137.04,492.722C2133.33,514.944 2114.82,529.759 2096.3,529.759ZM2290.74,407.537L2251.85,507.537L2250,507.537L2209.26,407.537L2172.22,407.537L2233.33,548.278L2198.15,626.056L2233.33,626.056L2327.78,407.537L2290.74,407.537ZM1979.63,555.685L2014.82,555.685L2014.82,324.204L1979.63,324.204L1979.63,555.685Z" style="fill-rule:nonzero;"/>
    <g>
        <path d="M192.593,139.019C187.037,144.574 185.185,153.833 185.185,164.944L185.185,574.204C185.185,585.315 188.889,594.574 194.444,600.13L196.296,601.981L425.926,372.352L425.926,368.648L192.593,139.019Z" style="fill:url(#_Linear1);fill-rule:nonzero;"/>
        <path d="M500,450.13L424.074,374.204L424.074,368.648L500,292.722L501.852,294.574L592.593,346.426C618.519,361.241 618.519,385.315 592.593,400.13L500,450.13Z" style="fill:url(#_Linear2);fill-rule:nonzero;"/>
        <path d="M501.852,448.278L424.074,370.5L192.593,601.981C201.852,611.241 214.815,611.241 231.481,603.833L501.852,448.278" style="fill:url(#_Linear3);fill-rule:nonzero;"/>
        <path d="M501.852,292.722L231.481,139.019C214.815,129.759 201.852,131.611 192.593,140.87L424.074,370.5L501.852,292.722Z" style="fill:url(#_Linear4);fill-rule:nonzero;"/>
        <path d="M231.481,140.87L592.593,346.426C603.704,353.833 611.111,361.241 611.111,370.5C611.111,361.241 605.556,351.981 592.593,344.574L231.481,139.019C205.556,124.204 185.185,135.315 185.185,164.944L185.185,166.796C185.185,139.019 205.556,126.056 231.481,140.87Z" style="fill:white;fill-opacity:0.25;fill-rule:nonzero;"/>
    </g>
    <defs>
        <linearGradient id="_Linear1" x1="0" y1="0" x2="1" y2="0" gradientUnits="userSpaceOnUse" gradientTransform="matrix(-310.796,310.778,-310.778,-310.796,403.704,161.167)"><stop offset="0" style="stop-color:rgb(0,160,255);stop-opacity:1"/><stop offset="0.01" style="stop-color:rgb(0,161,255);stop-opacity:1"/><stop offset="0.26" style="stop-color:rgb(0,190,255);stop-opacity:1"/><stop offset="0.51" style="stop-color:rgb(0,210,255);stop-opacity:1"/><stop offset="0.76" style="stop-color:rgb(0,223,255);stop-opacity:1"/><stop offset="1" style="stop-color:rgb(0,227,255);stop-opacity:1"/></linearGradient>
        <linearGradient id="_Linear2" x1="0" y1="0" x2="1" y2="0" gradientUnits="userSpaceOnUse" gradientTransform="matrix(-448.093,5.48755e-14,-5.48755e-14,-448.093,626.556,370.259)"><stop offset="0" style="stop-color:rgb(255,224,0);stop-opacity:1"/><stop offset="0.41" style="stop-color:rgb(255,189,0);stop-opacity:1"/><stop offset="0.78" style="stop-color:rgb(255,165,0);stop-opacity:1"/><stop offset="1" style="stop-color:rgb(255,156,0);stop-opacity:1"/></linearGradient>
        <linearGradient id="_Linear3" x1="0" y1="0" x2="1" y2="0" gradientUnits="userSpaceOnUse" gradientTransform="matrix(-421.444,421.444,-421.444,-421.444,459.759,412.759)"><stop offset="0" style="stop-color:rgb(255,58,68);stop-opacity:1"/><stop offset="1" style="stop-color:rgb(195,17,98);stop-opacity:1"/></linearGradient>
        <linearGradient id="_Linear4" x1="0" y1="0" x2="1" y2="0" gradientUnits="userSpaceOnUse" gradientTransform="matrix(188.204,188.204,-188.204,188.204,135.13,3.12963)"><stop offset="0" style="stop-color:rgb(50,160,113);stop-opacity:1"/><stop offset="0.07" style="stop-color:rgb(45,167,113);stop-opacity:1"/><stop offset="0.48" style="stop-color:rgb(21,207,116);stop-opacity:1"/><stop offset="0.8" style="stop-color:rgb(6,231,117);stop-opacity:1"/><stop offset="1" style="stop-color:rgb(0,240,118);stop-opacity:1"/></linearGradient>
    </defs>
</svg>
