<?xml version="1.0" encoding="UTF-8" standalone="no"?><!DOCTYPE svg PUBLIC "-//W3C//DTD SVG 1.1//EN" "http://www.w3.org/Graphics/SVG/1.1/DTD/svg11.dtd"><svg width="100%" height="100%" viewBox="0 0 834 834" version="1.1" xmlns="http://www.w3.org/2000/svg" xmlns:xlink="http://www.w3.org/1999/xlink" xml:space="preserve" xmlns:serif="http://www.serif.com/" style="fill-rule:evenodd;clip-rule:evenodd;"><rect id="Artboard1" x="0" y="0" width="833.333" height="833.333" style="fill:none;"/><path d="M521.773,162.89l0,-0.112l29.305,0l10.709,2.141c7.137,1.391 13.619,3.213 19.442,5.467c5.824,2.254 11.46,4.885 16.908,7.89c5.448,3.005 10.389,6.068 14.822,9.186c4.395,3.081 8.34,6.35 11.834,9.806c3.457,3.494 8.848,4.396 16.175,2.705c7.327,-1.69 15.217,-4.039 23.669,-7.044c8.456,-3.006 16.813,-6.387 25.081,-10.144c8.265,-3.758 13.3,-6.143 15.104,-7.158c1.763,-1.051 2.704,-1.615 2.817,-1.691l0.112,-0.169l0.563,-0.281l0.565,-0.282l0.563,-0.282l0.563,-0.282l0.113,-0.169l0.17,-0.112l0.17,-0.113l0.11,-0.169l0.565,-0.17l0.563,-0.112l-0.113,0.845l-0.17,0.846l-0.28,0.845l-0.282,0.845l-0.283,0.564l-0.28,0.563l-0.283,0.846c-0.188,0.563 -0.375,1.315 -0.563,2.254c-0.187,0.94 -1.974,4.696 -5.353,11.271c-3.382,6.576 -7.61,13.244 -12.68,20.007c-5.073,6.763 -9.619,11.873 -13.639,15.329c-4.06,3.494 -6.744,5.936 -8.059,7.327c-1.316,1.427 -2.912,2.742 -4.791,3.945l-2.819,1.86l-0.563,0.281l-0.563,0.282l-0.112,0.169l-0.17,0.113l-0.168,0.113l-0.115,0.169l-0.563,0.281l-0.563,0.282l-0.112,0.169l-0.17,0.113l-0.168,0.113l-0.113,0.169l-0.112,0.169l-0.17,0.113l-0.17,0.112l-0.113,0.169l2.819,0l15.78,-3.381c10.519,-2.254 20.57,-4.978 30.151,-8.172l15.216,-5.072l1.691,-0.563l0.846,-0.282l0.563,-0.282l0.563,-0.282l0.562,-0.282l0.566,-0.281l1.125,-0.17l1.129,-0.112l0,1.127l-0.283,0.113l-0.28,0.169l-0.113,0.169l-0.17,0.113l-0.17,0.112l-0.113,0.169l-0.112,0.169l-0.168,0.113l-0.17,0.113l-0.112,0.169l-0.113,0.169l-0.17,0.113l-0.28,0.563l-0.283,0.564l-0.167,0.113c-0.076,0.112 -2.462,3.305 -7.16,9.58c-4.695,6.312 -7.232,9.505 -7.607,9.581c-0.375,0.113 -0.901,0.676 -1.578,1.69c-0.638,1.052 -4.621,5.242 -11.948,12.568c-7.327,7.327 -14.501,13.845 -21.528,19.556c-7.064,5.749 -10.634,12.812 -10.706,21.19c-0.115,8.341 -0.546,17.772 -1.299,28.292c-0.75,10.52 -2.158,21.885 -4.227,34.096c-2.064,12.211 -5.258,26.018 -9.578,41.422c-4.323,15.403 -9.584,30.432 -15.783,45.086c-6.198,14.652 -12.68,27.802 -19.441,39.449c-6.764,11.647 -12.963,21.511 -18.599,29.588c-5.636,8.078 -11.365,15.687 -17.188,22.824c-5.824,7.139 -13.188,15.179 -22.091,24.122c-8.943,8.903 -13.828,13.789 -14.654,14.652c-0.863,0.828 -4.545,3.907 -11.047,9.243c-6.461,5.373 -13.413,10.744 -20.852,16.117c-7.4,5.336 -14.202,9.788 -20.4,13.358c-6.199,3.57 -13.676,7.645 -22.431,12.23c-8.716,4.62 -18.146,8.903 -28.29,12.848c-10.146,3.945 -20.853,7.61 -32.125,10.992c-11.271,3.379 -22.166,6.011 -32.687,7.889c-10.519,1.877 -22.448,3.475 -35.787,4.788l-20.006,1.974l0,0.283l-36.632,0l0,-0.283l-4.791,-0.283c-3.193,-0.187 -5.823,-0.375 -7.89,-0.563c-2.066,-0.187 -9.862,-1.22 -23.388,-3.099c-13.526,-1.879 -24.139,-3.757 -31.842,-5.636c-7.701,-1.878 -19.161,-5.448 -34.377,-10.709c-15.217,-5.258 -28.235,-10.576 -39.056,-15.947c-10.783,-5.336 -17.546,-8.718 -20.288,-10.144c-2.706,-1.391 -5.749,-3.119 -9.13,-5.185l-5.072,-3.1l-0.112,-0.17l-0.17,-0.112l-0.169,-0.113l-0.113,-0.168l-0.564,-0.282l-0.563,-0.283l-0.112,-0.168l-0.17,-0.112l-0.169,-0.115l-0.113,-0.168l-0.112,-0.17l-0.169,-0.112l-0.282,0l0,-1.126l0.563,0.112l0.564,0.168l2.536,0.283c1.691,0.187 6.293,0.47 13.808,0.845c7.514,0.375 15.498,0.375 23.951,0c8.454,-0.375 17.095,-1.221 25.924,-2.536c8.83,-1.314 19.256,-3.57 31.279,-6.762c12.023,-3.194 23.069,-6.989 33.138,-11.384c10.032,-4.433 17.17,-7.74 21.416,-9.919c4.207,-2.141 10.632,-6.126 19.273,-11.95l12.962,-8.735l0.113,-0.168l0.169,-0.112l0.17,-0.113l0.112,-0.17l0.113,-0.167l0.169,-0.113l0.17,-0.115l0.112,-0.168l0.563,-0.17l0.564,-0.112l0.113,-0.563l0.168,-0.563l0.17,-0.115l0.112,-0.168l-4.508,-0.282c-3.006,-0.188 -5.918,-0.376 -8.735,-0.563c-2.818,-0.188 -7.233,-1.033 -13.244,-2.537c-6.011,-1.503 -12.493,-3.757 -19.444,-6.761c-6.95,-3.007 -13.713,-6.577 -20.288,-10.709c-6.575,-4.133 -11.328,-7.57 -14.259,-10.314c-2.892,-2.704 -6.65,-6.537 -11.271,-11.497c-4.583,-4.996 -8.566,-10.124 -11.948,-15.384c-3.381,-5.261 -6.612,-11.33 -9.693,-18.204l-4.678,-10.256l-0.282,-0.846l-0.281,-0.845l-0.169,-0.563l-0.113,-0.565l0.845,0.112l0.846,0.17l6.199,0.846c4.133,0.563 10.614,0.75 19.443,0.563c8.83,-0.188 14.935,-0.563 18.316,-1.126c3.382,-0.565 5.448,-0.941 6.199,-1.128l1.128,-0.283l1.409,-0.28l1.408,-0.283l0.113,-0.167l0.169,-0.116l0.17,-0.112l0.112,-0.168l-1.127,-0.282l-1.127,-0.281l-1.127,-0.282l-1.128,-0.283l-1.127,-0.28c-0.751,-0.19 -2.066,-0.565 -3.945,-1.128c-1.878,-0.563 -6.95,-2.629 -15.216,-6.199c-8.266,-3.57 -14.841,-7.044 -19.725,-10.426c-4.897,-3.392 -9.566,-7.1 -13.977,-11.102c-4.395,-4.058 -9.223,-9.281 -14.483,-15.667c-5.26,-6.389 -9.956,-13.809 -14.09,-22.262c-4.132,-8.454 -7.232,-16.531 -9.299,-24.234c-2.058,-7.657 -3.416,-15.485 -4.057,-23.388l-1.015,-11.835l0.564,0.113l0.563,0.169l2.255,1.127l8.735,3.945c5.824,2.63 13.056,4.884 21.697,6.763c8.642,1.878 13.808,2.912 15.499,3.099l2.536,0.282l5.072,0l-0.112,-0.169l-0.17,-0.113l-0.169,-0.112l-0.113,-0.169l-0.112,-0.169l-0.17,-0.113l-0.169,-0.113l-0.112,-0.169l-0.564,-0.282l-0.563,-0.281l-0.112,-0.17l-0.17,-0.112l-0.169,-0.113l-0.113,-0.169l-0.564,-0.282l-0.563,-0.282l-0.112,-0.169c-0.113,-0.075 -1.729,-1.277 -4.847,-3.607c-3.082,-2.367 -6.312,-5.428 -9.694,-9.186c-3.381,-3.757 -6.763,-7.702 -10.144,-11.835c-3.388,-4.142 -6.405,-8.574 -9.017,-13.244c-2.63,-4.696 -5.41,-10.67 -8.341,-17.921c-2.893,-7.214 -5.091,-14.484 -6.594,-21.81c-1.502,-7.327 -2.348,-14.559 -2.536,-21.698c-0.188,-7.139 0,-13.244 0.564,-18.316c0.563,-5.072 1.69,-10.802 3.381,-17.189c1.691,-6.387 4.133,-13.15 7.327,-20.288l4.79,-10.708l0.282,-0.846l0.281,-0.845l0.17,-0.113l0.112,-0.169l0.113,-0.169l0.169,-0.112l0.169,0.112l0.113,0.169l0.112,0.169l0.169,0.113l0.17,0.113l0.112,0.169l0.113,0.169l0.169,0.113l0.564,1.127l0.169,0.113l0.112,0.169l7.609,8.453c5.072,5.636 11.083,11.929 18.034,18.88c6.951,6.95 10.802,10.557 11.553,10.82c0.752,0.301 1.691,1.165 2.818,2.593c1.127,1.39 4.884,4.715 11.271,9.975c6.388,5.26 14.747,11.365 25.079,18.316c10.333,6.951 21.792,13.808 34.378,20.57c12.587,6.763 26.113,12.868 40.577,18.316c14.465,5.448 24.61,9.018 30.433,10.708c5.824,1.691 15.78,3.851 29.869,6.481c14.091,2.631 24.705,4.321 31.842,5.072c7.139,0.752 12.024,1.184 14.654,1.297l3.944,0.112l-0.112,-0.845l-0.17,-0.845l-1.128,-7.045c-0.751,-4.696 -1.126,-11.271 -1.126,-19.725c0,-8.454 0.658,-16.249 1.971,-23.388c1.316,-7.139 3.29,-14.371 5.919,-21.698c2.629,-7.326 5.203,-13.206 7.722,-17.639c2.554,-4.396 5.898,-9.412 10.031,-15.048c4.132,-5.635 9.486,-11.459 16.06,-17.47c6.576,-6.012 14.091,-11.366 22.543,-16.062c8.456,-4.696 16.25,-8.266 23.39,-10.708c7.139,-2.442 13.15,-4.039 18.033,-4.79c4.886,-0.752 7.327,-1.184 7.327,-1.297Z" style="fill:#38d39f;fill-rule:nonzero;stroke:#5da8dc;stroke-width:0.28px;"/></svg>