<svg width="58" height="58" viewBox="0 0 58 58" fill="none" xmlns="http://www.w3.org/2000/svg">
<path d="M10 30V45C10 45.538 10.44 46 10.981 46H17.019C17.569 46 17.944 45.552 17.875 45L16 30H10ZM10 12H8.006C6.876 12 6 12.893 6 13.994V26.006C6 27.094 6.898 28 8.006 28H17.994C19.124 28 20 27.107 20 26.006V13.994C19.996 13.4643 19.783 12.9576 19.4074 12.5842C19.0317 12.2107 18.5237 12.0008 17.994 12H12V21.018C12 21.56 11.536 22 11 22C10.448 22 10 21.544 10 21.018V12ZM52 30.99V36.013C51.9999 36.5377 51.8962 37.0571 51.695 37.5416C51.4938 38.0261 51.1989 38.4662 50.8273 38.8366C50.4558 39.2069 50.0148 39.5003 49.5296 39.7C49.0444 39.8996 48.5246 40.0016 48 40C46.961 40.0015 45.9623 39.5981 45.2159 38.8754C44.4694 38.1527 44.034 37.1675 44.002 36.129L21.5 27.947C21.1547 28.5684 20.6497 29.0864 20.0372 29.4473C19.4247 29.8082 18.7269 29.999 18.016 30L19.859 44.751C20.076 46.483 18.79 48 17.02 48H10.982C9.326 48 8 46.635 8 45V30C5.795 29.997 4 28.202 4 26.006V13.994C3.99894 13.4682 4.10192 12.9474 4.30301 12.4615C4.5041 11.9757 4.79933 11.5345 5.1717 11.1632C5.54406 10.792 5.98619 10.4981 6.47263 10.2984C6.95907 10.0988 7.4802 9.99737 8.006 10H17.994C19.496 10 20.809 10.832 21.494 12.056L44.002 3.87101C44.0327 2.83209 44.4678 1.8462 45.2145 1.1232C45.9612 0.400206 46.9606 -0.0027853 48 1.44916e-05C50.206 1.44916e-05 52 1.78201 52 3.98701V23.009C52 23.556 51.536 24 51 24C50.448 24 50 23.568 50 23.01V3.98601C49.9979 3.45752 49.786 2.95148 49.411 2.57909C49.036 2.2067 48.5285 1.99842 48 2.00001C46.888 2.00001 46 2.89001 46 3.98701V36.013C46 37.11 46.895 38 48 38C49.112 38 50 37.11 50 36.013V30.991C50 30.444 50.464 30 51 30C51.552 30 52 30.432 52 30.99V30.99ZM22 14V26L44 34V6.00001L22 14ZM0 14.982C0 14.44 0.464 14 1 14C1.552 14 2 14.456 2 14.982V25.018C2 25.56 1.536 26 1 26C0.448 26 0 25.544 0 25.018V14.982ZM25.34 16.94C25.2156 16.989 25.0826 17.0126 24.949 17.0093C24.8153 17.0061 24.6837 16.976 24.5618 16.921C24.44 16.866 24.3304 16.7871 24.2396 16.689C24.1487 16.5908 24.0785 16.4755 24.033 16.3498C23.9876 16.224 23.9677 16.0905 23.9748 15.957C23.9818 15.8234 24.0156 15.6927 24.074 15.5724C24.1325 15.4522 24.2145 15.3449 24.3151 15.2569C24.4158 15.1689 24.533 15.1019 24.66 15.06L40.66 9.26001C40.9072 9.17843 41.1765 9.19646 41.4106 9.31027C41.6447 9.42408 41.8252 9.6247 41.9138 9.8695C42.0023 10.1143 41.9919 10.384 41.8848 10.6212C41.7776 10.8585 41.5822 11.0446 41.34 11.14L25.34 16.94V16.94Z" transform="translate(3 5)" fill="#333333"/>
</svg>
