<svg width="58" height="58" viewBox="0 0 58 58" fill="none" xmlns="http://www.w3.org/2000/svg">
<path d="M29.0409 9.192L38.2329 2.74658e-07L49.5469 11.314L40.3549 20.506L41.0619 21.213C41.9996 22.1507 42.5264 23.4224 42.5264 24.7485C42.5264 26.0746 41.9996 27.3463 41.0619 28.284L27.6269 41.719C27.4383 41.9012 27.1857 42.002 26.9235 41.9997C26.6613 41.9974 26.4105 41.8922 26.2251 41.7068C26.0397 41.5214 25.9345 41.2706 25.9323 41.0084C25.93 40.7462 26.0308 40.4936 26.2129 40.305L39.6479 26.87C39.9266 26.5914 40.1476 26.2607 40.2984 25.8967C40.4492 25.5327 40.5268 25.1425 40.5268 24.7485C40.5268 24.3545 40.4492 23.9643 40.2984 23.6003C40.1476 23.2363 39.9266 22.9056 39.6479 22.627L26.9189 9.899C26.6404 9.62037 26.3096 9.39935 25.9456 9.24855C25.5816 9.09775 25.1914 9.02014 24.7974 9.02014C24.4034 9.02014 24.0133 9.09775 23.6493 9.24855C23.2853 9.39935 22.9545 9.62037 22.6759 9.899L2.87693 29.699C2.31452 30.2616 1.99857 31.0245 1.99857 31.82C1.99857 32.6155 2.31452 33.3784 2.87693 33.941L15.6049 46.669C15.8835 46.9476 16.2143 47.1687 16.5783 47.3194C16.9423 47.4702 17.3324 47.5479 17.7264 47.5479C18.1204 47.5479 18.5106 47.4702 18.8746 47.3194C19.2386 47.1687 19.5693 46.9476 19.8479 46.669L21.9679 44.548C22.1554 44.3604 22.4098 44.2549 22.6751 44.2548C22.9403 44.2547 23.1948 44.36 23.3824 44.5475C23.5701 44.735 23.6755 44.9894 23.6756 45.2546C23.6757 45.5199 23.5704 45.7744 23.3829 45.962L21.2619 48.083C20.3243 49.0207 19.0525 49.5474 17.7264 49.5474C16.4004 49.5474 15.1286 49.0207 14.1909 48.083L1.46393 35.355C0.526576 34.4174 -2.26369e-07 33.1458 -2.26369e-07 31.82C-2.26369e-07 30.4942 0.526576 29.2226 1.46393 28.285L21.2629 8.485C22.2006 7.54765 23.4721 7.02107 24.7979 7.02107C26.1238 7.02107 27.3953 7.54765 28.3329 8.485L29.0409 9.192V9.192ZM30.4549 10.607L38.9399 19.092L46.7189 11.314L38.2329 2.828L30.4549 10.607V10.607ZM39.6479 7.071C39.8354 7.25853 39.9407 7.51284 39.9407 7.778C39.9407 8.04316 39.8354 8.29747 39.6479 8.485L36.1119 12.021C36.0197 12.1165 35.9093 12.1927 35.7873 12.2451C35.6653 12.2975 35.5341 12.3251 35.4013 12.3263C35.2686 12.3274 35.1369 12.3021 35.014 12.2518C34.8911 12.2015 34.7794 12.1273 34.6855 12.0334C34.5916 11.9395 34.5174 11.8278 34.4671 11.705C34.4168 11.5821 34.3915 11.4504 34.3927 11.3176C34.3938 11.1848 34.4214 11.0536 34.4738 10.9316C34.5262 10.8096 34.6024 10.6992 34.6979 10.607L38.2329 7.071C38.3258 6.97802 38.4361 6.90426 38.5575 6.85394C38.6789 6.80362 38.809 6.77771 38.9404 6.77771C39.0718 6.77771 39.202 6.80362 39.3234 6.85394C39.4448 6.90426 39.5551 6.97802 39.6479 7.071V7.071ZM42.4759 9.899C42.5689 9.99187 42.6427 10.1022 42.693 10.2236C42.7433 10.345 42.7692 10.4751 42.7692 10.6065C42.7692 10.7379 42.7433 10.868 42.693 10.9894C42.6427 11.1108 42.5689 11.2211 42.4759 11.314L38.9399 14.849C38.7513 15.0312 38.4987 15.132 38.2365 15.1297C37.9743 15.1274 37.7235 15.0222 37.5381 14.8368C37.3527 14.6514 37.2475 14.4006 37.2453 14.1384C37.243 13.8762 37.3438 13.6236 37.5259 13.435L41.0619 9.899C41.2495 9.71153 41.5038 9.60621 41.7689 9.60621C42.0341 9.60621 42.2884 9.71153 42.4759 9.899V9.899ZM26.2129 16.263C26.3059 16.3559 26.3797 16.4662 26.43 16.5876C26.4803 16.709 26.5062 16.8391 26.5062 16.9705C26.5062 17.1019 26.4803 17.232 26.43 17.3534C26.3797 17.4748 26.3059 17.5851 26.2129 17.678L10.6559 33.234C10.4673 33.4162 10.2147 33.517 9.95253 33.5147C9.69034 33.5124 9.43952 33.4072 9.25411 33.2218C9.06871 33.0364 8.96354 32.7856 8.96126 32.5234C8.95898 32.2612 9.05977 32.0086 9.24193 31.82L24.7979 16.263C24.8908 16.17 25.0011 16.0963 25.1225 16.0459C25.2439 15.9956 25.374 15.9697 25.5054 15.9697C25.6368 15.9697 25.767 15.9956 25.8884 16.0459C26.0098 16.0963 26.1201 16.17 26.2129 16.263V16.263ZM33.2829 23.334C33.3759 23.4269 33.4497 23.5372 33.5 23.6586C33.5503 23.78 33.5762 23.9101 33.5762 24.0415C33.5762 24.1729 33.5503 24.303 33.5 24.4244C33.4497 24.5458 33.3759 24.6561 33.2829 24.749L17.7279 40.305C17.5393 40.4872 17.2867 40.588 17.0245 40.5857C16.7623 40.5834 16.5115 40.4782 16.3261 40.2928C16.1407 40.1074 16.0355 39.8566 16.0333 39.5944C16.031 39.3322 16.1318 39.0796 16.3139 38.891L31.8689 23.334C31.9618 23.241 32.0721 23.1673 32.1935 23.1169C32.3149 23.0666 32.445 23.0407 32.5764 23.0407C32.7078 23.0407 32.838 23.0666 32.9594 23.1169C33.0808 23.1673 33.1911 23.241 33.2839 23.334H33.2829Z" transform="translate(4.14111 4.81201)" fill="#333333"/>
</svg>
