<svg width="58" height="58" viewBox="0 0 58 58" fill="none" xmlns="http://www.w3.org/2000/svg">
<path d="M2 24H20C20.5304 24 21.0391 24.2107 21.4142 24.5858C21.7893 24.9609 22 25.4696 22 26V44C22 44.5304 21.7893 45.0391 21.4142 45.4142C21.0391 45.7893 20.5304 46 20 46H2C1.46957 46 0.96086 45.7893 0.585787 45.4142C0.210714 45.0391 0 44.5304 0 44V26C0 25.4696 0.210714 24.9609 0.585787 24.5858C0.96086 24.2107 1.46957 24 2 24V24ZM2 26V44H20V26H2ZM8 30H14C14.5304 30 15.0391 30.2107 15.4142 30.5858C15.7893 30.9609 16 31.4696 16 32V38C16 38.5304 15.7893 39.0391 15.4142 39.4142C15.0391 39.7893 14.5304 40 14 40H8C7.46957 40 6.96086 39.7893 6.58579 39.4142C6.21071 39.0391 6 38.5304 6 38V32C6 31.4696 6.21071 30.9609 6.58579 30.5858C6.96086 30.2107 7.46957 30 8 30V30ZM8 32V38H14V32H8ZM2 0H20C20.5304 0 21.0391 0.210714 21.4142 0.585787C21.7893 0.96086 22 1.46957 22 2V20C22 20.5304 21.7893 21.0391 21.4142 21.4142C21.0391 21.7893 20.5304 22 20 22H2C1.46957 22 0.96086 21.7893 0.585787 21.4142C0.210714 21.0391 0 20.5304 0 20V2C0 1.46957 0.210714 0.96086 0.585787 0.585787C0.96086 0.210714 1.46957 0 2 0V0ZM2 2V20H20V2H2ZM15 6C15.2652 6 15.5196 6.10536 15.7071 6.29289C15.8946 6.48043 16 6.73478 16 7C16 7.26522 15.8946 7.51957 15.7071 7.70711C15.5196 7.89464 15.2652 8 15 8H8V14H15C15.2652 14 15.5196 14.1054 15.7071 14.2929C15.8946 14.4804 16 14.7348 16 15C16 15.2652 15.8946 15.5196 15.7071 15.7071C15.5196 15.8946 15.2652 16 15 16H8C7.46957 16 6.96086 15.7893 6.58579 15.4142C6.21071 15.0391 6 14.5304 6 14V8C6 7.46957 6.21071 6.96086 6.58579 6.58579C6.96086 6.21071 7.46957 6 8 6H15ZM26 0H44C44.5304 0 45.0391 0.210714 45.4142 0.585787C45.7893 0.96086 46 1.46957 46 2V20C46 20.5304 45.7893 21.0391 45.4142 21.4142C45.0391 21.7893 44.5304 22 44 22H26C25.4696 22 24.9609 21.7893 24.5858 21.4142C24.2107 21.0391 24 20.5304 24 20V2C24 1.46957 24.2107 0.96086 24.5858 0.585787C24.9609 0.210714 25.4696 0 26 0ZM26 2V20H44V2H26ZM32 6H38C38.5304 6 39.0391 6.21071 39.4142 6.58579C39.7893 6.96086 40 7.46957 40 8V14C40 14.5304 39.7893 15.0391 39.4142 15.4142C39.0391 15.7893 38.5304 16 38 16H32C31.4696 16 30.9609 15.7893 30.5858 15.4142C30.2107 15.0391 30 14.5304 30 14V8C30 7.46957 30.2107 6.96086 30.5858 6.58579C30.9609 6.21071 31.4696 6 32 6ZM32 8V14H38V8H32ZM24 25C24 24.7348 24.1054 24.4804 24.2929 24.2929C24.4804 24.1054 24.7348 24 25 24C25.2652 24 25.5196 24.1054 25.7071 24.2929C25.8946 24.4804 26 24.7348 26 25V30.069L29.972 30.014C30.2347 30.0103 30.4955 30.0584 30.7395 30.1555C30.9836 30.2526 31.2061 30.3968 31.3945 30.5799C31.5828 30.7631 31.7332 30.9815 31.8371 31.2227C31.941 31.464 31.9963 31.7233 32 31.986V38C32 38.5304 31.7893 39.0391 31.4142 39.4142C31.0391 39.7893 30.5304 40 30 40H26V45C26 45.2652 25.8946 45.5196 25.7071 45.7071C25.5196 45.8946 25.2652 46 25 46C24.7348 46 24.4804 45.8946 24.2929 45.7071C24.1054 45.5196 24 45.2652 24 45V40C24 39.4696 24.2107 38.9609 24.5858 38.5858C24.9609 38.2107 25.4696 38 26 38H30V32.014L26.028 32.069H26C25.4696 32.069 24.9609 31.8583 24.5858 31.4832C24.2107 31.1081 24 30.5994 24 30.069V25ZM46 45C46 45.2652 45.8946 45.5196 45.7071 45.7071C45.5196 45.8946 45.2652 46 45 46C44.7348 46 44.4804 45.8946 44.2929 45.7071C44.1054 45.5196 44 45.2652 44 45V40H40C39.4696 40 38.9609 39.7893 38.5858 39.4142C38.2107 39.0391 38 38.5304 38 38V32.014C38.0008 31.7492 38.054 31.4872 38.1565 31.2431C38.259 30.9989 38.4089 30.7775 38.5974 30.5916C38.786 30.4057 39.0094 30.2589 39.255 30.1598C39.5005 30.0606 39.7632 30.0111 40.028 30.014L44 30.07V25C44 24.7348 44.1054 24.4804 44.2929 24.2929C44.4804 24.1054 44.7348 24 45 24C45.2652 24 45.5196 24.1054 45.7071 24.2929C45.8946 24.4804 46 24.7348 46 25V30.069C46 30.5994 45.7893 31.1081 45.4142 31.4832C45.0391 31.8583 44.5304 32.069 44 32.069H43.972L40 32.014V38H44C44.5304 38 45.0391 38.2107 45.4142 38.5858C45.7893 38.9609 46 39.4696 46 40V45ZM29 26C28.7348 26 28.4804 25.8946 28.2929 25.7071C28.1054 25.5196 28 25.2652 28 25C28 24.7348 28.1054 24.4804 28.2929 24.2929C28.4804 24.1054 28.7348 24 29 24H41C41.2652 24 41.5196 24.1054 41.7071 24.2929C41.8946 24.4804 42 24.7348 42 25C42 25.2652 41.8946 25.5196 41.7071 25.7071C41.5196 25.8946 41.2652 26 41 26H29ZM29 46C28.7348 46 28.4804 45.8946 28.2929 45.7071C28.1054 45.5196 28 45.2652 28 45C28 44.7348 28.1054 44.4804 28.2929 44.2929C28.4804 44.1054 28.7348 44 29 44H41C41.2652 44 41.5196 44.1054 41.7071 44.2929C41.8946 44.4804 42 44.7348 42 45C42 45.2652 41.8946 45.5196 41.7071 45.7071C41.5196 45.8946 41.2652 46 41 46H29ZM34 29C34 28.7348 34.1054 28.4804 34.2929 28.2929C34.4804 28.1054 34.7348 28 35 28C35.2652 28 35.5196 28.1054 35.7071 28.2929C35.8946 28.4804 36 28.7348 36 29V41C36 41.2652 35.8946 41.5196 35.7071 41.7071C35.5196 41.8946 35.2652 42 35 42C34.7348 42 34.4804 41.8946 34.2929 41.7071C34.1054 41.5196 34 41.2652 34 41V29ZM25 36C24.7348 36 24.4804 35.8946 24.2929 35.7071C24.1054 35.5196 24 35.2652 24 35C24 34.7348 24.1054 34.4804 24.2929 34.2929C24.4804 34.1054 24.7348 34 25 34H27C27.2652 34 27.5196 34.1054 27.7071 34.2929C27.8946 34.4804 28 34.7348 28 35C28 35.2652 27.8946 35.5196 27.7071 35.7071C27.5196 35.8946 27.2652 36 27 36H25ZM43 36C42.7348 36 42.4804 35.8946 42.2929 35.7071C42.1054 35.5196 42 35.2652 42 35C42 34.7348 42.1054 34.4804 42.2929 34.2929C42.4804 34.1054 42.7348 34 43 34H45C45.2652 34 45.5196 34.1054 45.7071 34.2929C45.8946 34.4804 46 34.7348 46 35C46 35.2652 45.8946 35.5196 45.7071 35.7071C45.5196 35.8946 45.2652 36 45 36H43Z" transform="translate(6 6)" fill="#333333"/>
</svg>
