<svg width="58" height="58" viewBox="0 0 58 58" fill="none" xmlns="http://www.w3.org/2000/svg">
<path d="M26.0004 6C26.2656 6 26.52 6.10536 26.7075 6.29289C26.8951 6.48043 27.0004 6.73478 27.0004 7C27.0004 7.26522 26.8951 7.51957 26.7075 7.70711C26.52 7.89464 26.2656 8 26.0004 8C18.3534 8 12.2904 11.9 7.43741 20.047C6.89451 20.9585 6.01174 21.6171 4.98329 21.8778C3.95484 22.1384 2.86496 21.9799 1.95341 21.437C1.04186 20.8941 0.383311 20.0113 0.122636 18.9829C-0.13804 17.9544 0.0205104 16.8645 0.563409 15.953C6.83141 5.43 15.4384 0 26.0004 0C36.5624 0 45.1694 5.431 51.4374 15.953C51.7062 16.4044 51.8835 16.9042 51.9591 17.4241C52.0348 17.944 52.0073 18.4736 51.8782 18.9829C51.7491 19.4921 51.521 19.9709 51.2069 20.392C50.8928 20.8131 50.4988 21.1682 50.0474 21.437C49.5961 21.7058 49.0962 21.8831 48.5763 21.9587C48.0564 22.0344 47.5268 22.0068 47.0175 21.8778C46.5083 21.7487 46.0295 21.5206 45.6084 21.2065C45.1873 20.8923 44.8322 20.4984 44.5634 20.047C41.3984 14.733 37.7174 11.235 33.4504 9.442C33.2059 9.33923 33.0122 9.14353 32.912 8.89795C32.8117 8.65237 32.8131 8.37703 32.9159 8.1325C33.0187 7.88797 33.2144 7.69428 33.46 7.59404C33.7055 7.49381 33.9809 7.49523 34.2254 7.598C38.9184 9.57 42.9114 13.364 46.2824 19.024C46.4169 19.2496 46.5945 19.4465 46.805 19.6035C47.0156 19.7605 47.2551 19.8744 47.5097 19.9389C47.7643 20.0033 48.0291 20.017 48.289 19.9791C48.5489 19.9412 48.7988 19.8525 49.0244 19.718C49.25 19.5835 49.4469 19.4059 49.6039 19.1954C49.7609 18.9848 49.8749 18.7453 49.9393 18.4907C50.0037 18.2361 50.0174 17.9713 49.9795 17.7114C49.9416 17.4515 49.8529 17.2016 49.7184 16.976C43.7954 7.033 35.8204 2 26.0004 2C16.1804 2 8.20541 7.033 2.28241 16.976C2.01083 17.4316 1.93137 17.9765 2.06152 18.4907C2.19167 19.005 2.52077 19.4464 2.97641 19.718C3.43205 19.9896 3.97692 20.069 4.49114 19.9389C5.00537 19.8087 5.44683 19.4796 5.71841 19.024C10.9134 10.303 17.6034 6 26.0004 6ZM6.18241 24.575C6.10441 24.4677 6.04855 24.3459 6.01806 24.2168C5.98758 24.0877 5.98308 23.9539 6.00484 23.823C6.0266 23.6921 6.07418 23.5669 6.14481 23.4546C6.21544 23.3423 6.3077 23.2452 6.41623 23.1689C6.52475 23.0927 6.64737 23.0387 6.77694 23.0103C6.90651 22.9818 7.04045 22.9795 7.17095 23.0033C7.30144 23.0271 7.42589 23.0767 7.53705 23.1491C7.64821 23.2215 7.74385 23.3153 7.81841 23.425L25.1384 48.037C25.2319 48.1699 25.3564 48.278 25.5012 48.352C25.6459 48.4259 25.8064 48.4635 25.9689 48.4614C26.1314 48.4594 26.291 48.4177 26.4338 48.3401C26.5766 48.2625 26.6983 48.1512 26.7884 48.016L43.1684 23.446C43.2401 23.3342 43.3334 23.2379 43.4427 23.1625C43.5521 23.0872 43.6753 23.0343 43.8053 23.0071C43.9353 22.98 44.0694 22.9789 44.1997 23.0041C44.3301 23.0293 44.4542 23.0802 44.5647 23.1538C44.6752 23.2275 44.7699 23.3224 44.8433 23.433C44.9168 23.5437 44.9674 23.6678 44.9923 23.7983C45.0173 23.9287 45.016 24.0628 44.9885 24.1927C44.961 24.3226 44.908 24.4458 44.8324 24.555L28.4524 49.125C28.1821 49.5307 27.8169 49.8645 27.3885 50.0973C26.9602 50.3302 26.4815 50.4551 25.994 50.4613C25.5065 50.4675 25.0248 50.3548 24.5907 50.1329C24.1565 49.9111 23.783 49.5867 23.5024 49.188L6.18241 24.575V24.575ZM33.0004 27C31.4091 27 29.883 26.3679 28.7578 25.2426C27.6325 24.1174 27.0004 22.5913 27.0004 21C27.0004 19.4087 27.6325 17.8826 28.7578 16.7574C29.883 15.6321 31.4091 15 33.0004 15C34.5917 15 36.1178 15.6321 37.243 16.7574C38.3683 17.8826 39.0004 19.4087 39.0004 21C39.0004 22.5913 38.3683 24.1174 37.243 25.2426C36.1178 26.3679 34.5917 27 33.0004 27ZM19.0004 27C17.9395 27 16.9221 26.5786 16.172 25.8284C15.4218 25.0783 15.0004 24.0609 15.0004 23C15.0004 21.9391 15.4218 20.9217 16.172 20.1716C16.9221 19.4214 17.9395 19 19.0004 19C20.0613 19 21.0787 19.4214 21.8288 20.1716C22.579 20.9217 23.0004 21.9391 23.0004 23C23.0004 24.0609 22.579 25.0783 21.8288 25.8284C21.0787 26.5786 20.0613 27 19.0004 27ZM26.0004 39C25.2048 39 24.4417 38.6839 23.8791 38.1213C23.3165 37.5587 23.0004 36.7956 23.0004 36C23.0004 35.2044 23.3165 34.4413 23.8791 33.8787C24.4417 33.3161 25.2048 33 26.0004 33C26.7961 33 27.5591 33.3161 28.1217 33.8787C28.6843 34.4413 29.0004 35.2044 29.0004 36C29.0004 36.7956 28.6843 37.5587 28.1217 38.1213C27.5591 38.6839 26.7961 39 26.0004 39ZM26.0004 37C26.2656 37 26.52 36.8946 26.7075 36.7071C26.8951 36.5196 27.0004 36.2652 27.0004 36C27.0004 35.7348 26.8951 35.4804 26.7075 35.2929C26.52 35.1054 26.2656 35 26.0004 35C25.7352 35 25.4808 35.1054 25.2933 35.2929C25.1058 35.4804 25.0004 35.7348 25.0004 36C25.0004 36.2652 25.1058 36.5196 25.2933 36.7071C25.4808 36.8946 25.7352 37 26.0004 37ZM19.0004 25C19.5308 25 20.0396 24.7893 20.4146 24.4142C20.7897 24.0391 21.0004 23.5304 21.0004 23C21.0004 22.4696 20.7897 21.9609 20.4146 21.5858C20.0396 21.2107 19.5308 21 19.0004 21C18.47 21 17.9613 21.2107 17.5862 21.5858C17.2111 21.9609 17.0004 22.4696 17.0004 23C17.0004 23.5304 17.2111 24.0391 17.5862 24.4142C17.9613 24.7893 18.47 25 19.0004 25ZM33.0004 25C34.0613 25 35.0787 24.5786 35.8288 23.8284C36.579 23.0783 37.0004 22.0609 37.0004 21C37.0004 19.9391 36.579 18.9217 35.8288 18.1716C35.0787 17.4214 34.0613 17 33.0004 17C31.9395 17 30.9221 17.4214 30.172 18.1716C29.4218 18.9217 29.0004 19.9391 29.0004 21C29.0004 22.0609 29.4218 23.0783 30.172 23.8284C30.9221 24.5786 31.9395 25 33.0004 25V25Z" transform="translate(2.99951 3)" fill="#333333"/>
</svg>
