<svg width="58" height="58" viewBox="0 0 58 58" fill="none" xmlns="http://www.w3.org/2000/svg">
<path fill-rule="evenodd" clip-rule="evenodd" d="M9.031 36C12.261 40.824 17.759 44 24 44C33.941 44 42 35.941 42 26C42 16.059 33.941 8 24 8C21.126 8 18.41 8.673 16 9.871V14.509C18.3459 12.8713 21.139 11.9953 24 12C31.732 12 38 18.268 38 26C38 33.732 31.732 40 24 40C20.3355 40.0048 16.8161 38.5681 14.202 36H9.032H9.031ZM6.676 36H3C2.20435 36 1.44129 35.6839 0.878679 35.1213C0.31607 34.5587 0 33.7956 0 33C0 32.2044 0.31607 31.4413 0.878679 30.8787C1.44129 30.3161 2.20435 30 3 30H17C17.7663 30.0003 18.5035 30.2938 19.0603 30.8204C19.617 31.3469 19.9512 32.0666 19.9942 32.8317C20.0372 33.5969 19.7857 34.3494 19.2914 34.935C18.7971 35.5206 18.0975 35.8949 17.336 35.981C19.3075 37.3009 21.6274 38.0038 24 38C30.627 38 36 32.627 36 26C36 19.373 30.627 14 24 14C21.0475 13.9958 18.1978 15.0844 16 17.056V19C16 19.7956 15.6839 20.5587 15.1213 21.1213C14.5587 21.6839 13.7956 22 13 22H7C6.20435 22 5.44129 21.6839 4.87868 21.1213C4.31607 20.5587 4 19.7956 4 19V3C4 2.20435 4.31607 1.44129 4.87868 0.878679C5.44129 0.31607 6.20435 0 7 0H13C13.7956 0 14.5587 0.31607 15.1213 0.878679C15.6839 1.44129 16 2.20435 16 3V7.664C18.5231 6.56281 21.247 5.99624 24 6C35.046 6 44 14.954 44 26C44 33.916 39.4 40.759 32.728 44H37C37.7956 44 38.5587 44.3161 39.1213 44.8787C39.6839 45.4413 40 46.2044 40 47V49C40 49.7956 39.6839 50.5587 39.1213 51.1213C38.5587 51.6839 37.7956 52 37 52H33C32.7348 52 32.4804 51.8946 32.2929 51.7071C32.1054 51.5196 32 51.2652 32 51C32 50.7348 32.1054 50.4804 32.2929 50.2929C32.4804 50.1054 32.7348 50 33 50H37C37.2652 50 37.5196 49.8946 37.7071 49.7071C37.8946 49.5196 38 49.2652 38 49V47C38 46.7348 37.8946 46.4804 37.7071 46.2929C37.5196 46.1054 37.2652 46 37 46H11C10.7348 46 10.4804 46.1054 10.2929 46.2929C10.1054 46.4804 10 46.7348 10 47V49C10 49.2652 10.1054 49.5196 10.2929 49.7071C10.4804 49.8946 10.7348 50 11 50H27C27.2652 50 27.5196 50.1054 27.7071 50.2929C27.8946 50.4804 28 50.7348 28 51C28 51.2652 27.8946 51.5196 27.7071 51.7071C27.5196 51.8946 27.2652 52 27 52H11C10.2044 52 9.44129 51.6839 8.87868 51.1213C8.31607 50.5587 8 49.7956 8 49V47C8 46.2044 8.31607 45.4413 8.87868 44.8787C9.44129 44.3161 10.2044 44 11 44H15.272C11.6738 42.249 8.68056 39.4633 6.676 36V36ZM7 2C6.73478 2 6.48043 2.10536 6.29289 2.29289C6.10536 2.48043 6 2.73478 6 3V19C6 19.2652 6.10536 19.5196 6.29289 19.7071C6.48043 19.8946 6.73478 20 7 20H13C13.2652 20 13.5196 19.8946 13.7071 19.7071C13.8946 19.5196 14 19.2652 14 19V3C14 2.73478 13.8946 2.48043 13.7071 2.29289C13.5196 2.10536 13.2652 2 13 2H7ZM7 24H13C13.2652 24 13.5196 24.1054 13.7071 24.2929C13.8946 24.4804 14 24.7348 14 25C14 25.2652 13.8946 25.5196 13.7071 25.7071C13.5196 25.8946 13.2652 26 13 26H7C6.73478 26 6.48043 25.8946 6.29289 25.7071C6.10536 25.5196 6 25.2652 6 25C6 24.7348 6.10536 24.4804 6.29289 24.2929C6.48043 24.1054 6.73478 24 7 24ZM3 32C2.73478 32 2.48043 32.1054 2.29289 32.2929C2.10536 32.4804 2 32.7348 2 33C2 33.2652 2.10536 33.5196 2.29289 33.7071C2.48043 33.8946 2.73478 34 3 34H17C17.2652 34 17.5196 33.8946 17.7071 33.7071C17.8946 33.5196 18 33.2652 18 33C18 32.7348 17.8946 32.4804 17.7071 32.2929C17.5196 32.1054 17.2652 32 17 32H3Z" transform="translate(7 3)" fill="#333333"/>
</svg>
