<svg width="58" height="58" viewBox="0 0 58 58" fill="none" xmlns="http://www.w3.org/2000/svg">
<path d="M34.593 19.635C34.4661 19.669 34.3338 19.6777 34.2036 19.6606C34.0734 19.6435 33.9478 19.6009 33.8341 19.5352C33.7203 19.4696 33.6206 19.3821 33.5406 19.278C33.4607 19.1738 33.402 19.0549 33.368 18.928C33.334 18.8011 33.3253 18.6688 33.3424 18.5386C33.3595 18.4084 33.4021 18.2828 33.4678 18.1691C33.5334 18.0553 33.6209 17.9556 33.725 17.8756C33.8292 17.7957 33.9481 17.737 34.075 17.703L37.939 16.668C38.1951 16.5996 38.4678 16.6356 38.6973 16.7682C38.9268 16.9007 39.0943 17.119 39.163 17.375L40.2 21.24C40.2687 21.4962 40.2328 21.7692 40.1002 21.9989C40.0346 22.1127 39.9471 22.2124 39.843 22.2924C39.7388 22.3723 39.6199 22.431 39.493 22.465C39.2368 22.5337 38.9638 22.4978 38.7341 22.3652C38.5043 22.2326 38.3367 22.0142 38.268 21.758L37.888 20.338C34.471 26.286 30.963 27.543 23.185 24.95C17.644 23.103 13.287 24.906 9.855 30.522C9.78726 30.6355 9.6977 30.7344 9.5915 30.813C9.4853 30.8917 9.36457 30.9485 9.23628 30.9802C9.10799 31.0119 8.97468 31.0179 8.84408 30.9977C8.71347 30.9776 8.58814 30.9318 8.47535 30.8629C8.36255 30.7941 8.26453 30.7036 8.18693 30.5966C8.10933 30.4896 8.05371 30.3683 8.02327 30.2397C7.99283 30.1111 7.98818 29.9778 8.00959 29.8474C8.031 29.717 8.07804 29.5921 8.148 29.48C12.048 23.096 17.358 20.9 23.818 23.052C30.674 25.338 33.283 24.474 36.242 19.195L34.594 19.636L34.593 19.635ZM3 0H45C45.7956 0 46.5587 0.31607 47.1213 0.878679C47.6839 1.44129 48 2.20435 48 3V39C48 39.7956 47.6839 40.5587 47.1213 41.1213C46.5587 41.6839 45.7956 42 45 42H3C2.20435 42 1.44129 41.6839 0.878679 41.1213C0.31607 40.5587 0 39.7956 0 39V3C0 2.20435 0.31607 1.44129 0.878679 0.878679C1.44129 0.31607 2.20435 0 3 0V0ZM3 2C2.73478 2 2.48043 2.10536 2.29289 2.29289C2.10536 2.48043 2 2.73478 2 3V39C2 39.2652 2.10536 39.5196 2.29289 39.7071C2.48043 39.8946 2.73478 40 3 40H45C45.2652 40 45.5196 39.8946 45.7071 39.7071C45.8946 39.5196 46 39.2652 46 39V3C46 2.73478 45.8946 2.48043 45.7071 2.29289C45.5196 2.10536 45.2652 2 45 2H3ZM5 44H15C15.2652 44 15.5196 44.1054 15.7071 44.2929C15.8946 44.4804 16 44.7348 16 45C16 45.2652 15.8946 45.5196 15.7071 45.7071C15.5196 45.8946 15.2652 46 15 46H5C4.73478 46 4.48043 45.8946 4.29289 45.7071C4.10536 45.5196 4 45.2652 4 45C4 44.7348 4.10536 44.4804 4.29289 44.2929C4.48043 44.1054 4.73478 44 5 44ZM33 44H43C43.2652 44 43.5196 44.1054 43.7071 44.2929C43.8946 44.4804 44 44.7348 44 45C44 45.2652 43.8946 45.5196 43.7071 45.7071C43.5196 45.8946 43.2652 46 43 46H33C32.7348 46 32.4804 45.8946 32.2929 45.7071C32.1054 45.5196 32 45.2652 32 45C32 44.7348 32.1054 44.4804 32.2929 44.2929C32.4804 44.1054 32.7348 44 33 44ZM5 4H43C43.2652 4 43.5196 4.10536 43.7071 4.29289C43.8946 4.48043 44 4.73478 44 5C44 5.26522 43.8946 5.51957 43.7071 5.70711C43.5196 5.89464 43.2652 6 43 6H5C4.73478 6 4.48043 5.89464 4.29289 5.70711C4.10536 5.51957 4 5.26522 4 5C4 4.73478 4.10536 4.48043 4.29289 4.29289C4.48043 4.10536 4.73478 4 5 4Z" transform="translate(5 9)" fill="#333333"/>
</svg>
