<svg width="58" height="58" viewBox="0 0 58 58" fill="none" xmlns="http://www.w3.org/2000/svg">
<path d="M38 18.123V48.123C38 49.1839 37.5786 50.2013 36.8284 50.9514C36.0783 51.7016 35.0609 52.123 34 52.123H12C10.9391 52.123 9.92172 51.7016 9.17157 50.9514C8.42143 50.2013 8 49.1839 8 48.123V18.123H3C2.20435 18.123 1.44129 17.8069 0.878679 17.2443C0.31607 16.6817 0 15.9186 0 15.123V11.123C0 10.3274 0.31607 9.56429 0.878679 9.00168C1.44129 8.43907 2.20435 8.123 3 8.123H45C45.7956 8.123 46.5587 8.43907 47.1213 9.00168C47.6839 9.56429 48 10.3274 48 11.123V15.123C48 15.9186 47.6839 16.6817 47.1213 17.2443C46.5587 17.8069 45.7956 18.123 45 18.123H38ZM3 16.123H45C45.2652 16.123 45.5196 16.0176 45.7071 15.8301C45.8946 15.6426 46 15.3882 46 15.123V11.123C46 10.8578 45.8946 10.6034 45.7071 10.4159C45.5196 10.2284 45.2652 10.123 45 10.123H3C2.73478 10.123 2.48043 10.2284 2.29289 10.4159C2.10536 10.6034 2 10.8578 2 11.123V15.123C2 15.3882 2.10536 15.6426 2.29289 15.8301C2.48043 16.0176 2.73478 16.123 3 16.123ZM10 18.123V48.123C10 48.6534 10.2107 49.1621 10.5858 49.5372C10.9609 49.9123 11.4696 50.123 12 50.123H34C34.5304 50.123 35.0391 49.9123 35.4142 49.5372C35.7893 49.1621 36 48.6534 36 48.123V18.123H10ZM19 24.123C19.2652 24.123 19.5196 24.2284 19.7071 24.4159C19.8946 24.6034 20 24.8578 20 25.123V43.123C20 43.3882 19.8946 43.6426 19.7071 43.8301C19.5196 44.0176 19.2652 44.123 19 44.123C18.7348 44.123 18.4804 44.0176 18.2929 43.8301C18.1054 43.6426 18 43.3882 18 43.123V25.123C18 24.8578 18.1054 24.6034 18.2929 24.4159C18.4804 24.2284 18.7348 24.123 19 24.123ZM27 24.123C27.2652 24.123 27.5196 24.2284 27.7071 24.4159C27.8946 24.6034 28 24.8578 28 25.123V43.123C28 43.3882 27.8946 43.6426 27.7071 43.8301C27.5196 44.0176 27.2652 44.123 27 44.123C26.7348 44.123 26.4804 44.0176 26.2929 43.8301C26.1054 43.6426 26 43.3882 26 43.123V25.123C26 24.8578 26.1054 24.6034 26.2929 24.4159C26.4804 24.2284 26.7348 24.123 27 24.123ZM15 24.123C15.2652 24.123 15.5196 24.2284 15.7071 24.4159C15.8946 24.6034 16 24.8578 16 25.123V43.123C16 43.3882 15.8946 43.6426 15.7071 43.8301C15.5196 44.0176 15.2652 44.123 15 44.123C14.7348 44.123 14.4804 44.0176 14.2929 43.8301C14.1054 43.6426 14 43.3882 14 43.123V25.123C14 24.8578 14.1054 24.6034 14.2929 24.4159C14.4804 24.2284 14.7348 24.123 15 24.123ZM31 24.123C31.2652 24.123 31.5196 24.2284 31.7071 24.4159C31.8946 24.6034 32 24.8578 32 25.123V43.123C32 43.3882 31.8946 43.6426 31.7071 43.8301C31.5196 44.0176 31.2652 44.123 31 44.123C30.7348 44.123 30.4804 44.0176 30.2929 43.8301C30.1054 43.6426 30 43.3882 30 43.123V25.123C30 24.8578 30.1054 24.6034 30.2929 24.4159C30.4804 24.2284 30.7348 24.123 31 24.123ZM18 4.123C18 4.38822 17.8946 4.64257 17.7071 4.83011C17.5196 5.01764 17.2652 5.123 17 5.123C16.7348 5.123 16.4804 5.01764 16.2929 4.83011C16.1054 4.64257 16 4.38822 16 4.123V3C16 2.20435 16.3161 1.44129 16.8787 0.87868C17.4413 0.316071 18.2044 8.08716e-07 19 8.08716e-07H29C29.7956 8.08716e-07 30.5587 0.316071 31.1213 0.87868C31.6839 1.44129 32 2.20435 32 3V4.123C32 4.38822 31.8946 4.64257 31.7071 4.83011C31.5196 5.01764 31.2652 5.123 31 5.123C30.7348 5.123 30.4804 5.01764 30.2929 4.83011C30.1054 4.64257 30 4.38822 30 4.123V3C30 2.73478 29.8946 2.48043 29.7071 2.29289C29.5196 2.10536 29.2652 2 29 2H19C18.7348 2 18.4804 2.10536 18.2929 2.29289C18.1054 2.48043 18 2.73478 18 3V4.123Z" transform="translate(5 2.87695)" fill="#333333"/>
</svg>
