<svg width="58" height="58" viewBox="0 0 58 58" fill="none" xmlns="http://www.w3.org/2000/svg">
<path d="M10.0006 29C9.20496 29 8.44189 28.6839 7.87928 28.1213C7.31668 27.5587 7.00061 26.7956 7.00061 26C7.00061 25.2043 7.31668 24.4412 7.87928 23.8786C8.44189 23.316 9.20496 23 10.0006 23C10.7963 23 11.5593 23.316 12.1219 23.8786C12.6845 24.4412 13.0006 25.2043 13.0006 26C13.0006 26.7956 12.6845 27.5587 12.1219 28.1213C11.5593 28.6839 10.7963 29 10.0006 29ZM42.0006 29C41.205 29 40.4419 28.6839 39.8793 28.1213C39.3167 27.5587 39.0006 26.7956 39.0006 26C39.0006 25.2043 39.3167 24.4412 39.8793 23.8786C40.4419 23.316 41.205 23 42.0006 23C42.7963 23 43.5593 23.316 44.1219 23.8786C44.6845 24.4412 45.0006 25.2043 45.0006 26C45.0006 26.7956 44.6845 27.5587 44.1219 28.1213C43.5593 28.6839 42.7963 29 42.0006 29ZM26.0006 13C25.205 13 24.4419 12.6839 23.8793 12.1213C23.3167 11.5587 23.0006 10.7956 23.0006 9.99995C23.0006 9.2043 23.3167 8.44124 23.8793 7.87863C24.4419 7.31602 25.205 6.99995 26.0006 6.99995C26.7963 6.99995 27.5593 7.31602 28.1219 7.87863C28.6845 8.44124 29.0006 9.2043 29.0006 9.99995C29.0006 10.7956 28.6845 11.5587 28.1219 12.1213C27.5593 12.6839 26.7963 13 26.0006 13ZM26.0006 45C25.205 45 24.4419 44.6839 23.8793 44.1213C23.3167 43.5587 23.0006 42.7956 23.0006 42C23.0006 41.2043 23.3167 40.4412 23.8793 39.8786C24.4419 39.316 25.205 39 26.0006 39C26.7963 39 27.5593 39.316 28.1219 39.8786C28.6845 40.4412 29.0006 41.2043 29.0006 42C29.0006 42.7956 28.6845 43.5587 28.1219 44.1213C27.5593 44.6839 26.7963 45 26.0006 45ZM42.0006 27C42.2658 27 42.5202 26.8946 42.7077 26.7071C42.8953 26.5195 43.0006 26.2652 43.0006 26C43.0006 25.7347 42.8953 25.4804 42.7077 25.2928C42.5202 25.1053 42.2658 25 42.0006 25C41.7354 25 41.481 25.1053 41.2935 25.2928C41.106 25.4804 41.0006 25.7347 41.0006 26C41.0006 26.2652 41.106 26.5195 41.2935 26.7071C41.481 26.8946 41.7354 27 42.0006 27ZM26.0006 43C26.2658 43 26.5202 42.8946 26.7077 42.7071C26.8952 42.5195 27.0006 42.2652 27.0006 42C27.0006 41.7347 26.8952 41.4804 26.7077 41.2928C26.5202 41.1053 26.2658 41 26.0006 41C25.7354 41 25.481 41.1053 25.2935 41.2928C25.106 41.4804 25.0006 41.7347 25.0006 42C25.0006 42.2652 25.106 42.5195 25.2935 42.7071C25.481 42.8946 25.7354 43 26.0006 43ZM26.0006 11C26.2658 11 26.5202 10.8946 26.7077 10.7071C26.8952 10.5195 27.0006 10.2652 27.0006 9.99995C27.0006 9.73473 26.8952 9.48038 26.7077 9.29284C26.5202 9.10531 26.2658 8.99995 26.0006 8.99995C25.7354 8.99995 25.481 9.10531 25.2935 9.29284C25.106 9.48038 25.0006 9.73473 25.0006 9.99995C25.0006 10.2652 25.106 10.5195 25.2935 10.7071C25.481 10.8946 25.7354 11 26.0006 11ZM10.0006 27C10.2658 27 10.5202 26.8946 10.7077 26.7071C10.8952 26.5195 11.0006 26.2652 11.0006 26C11.0006 25.7347 10.8952 25.4804 10.7077 25.2928C10.5202 25.1053 10.2658 25 10.0006 25C9.73539 25 9.48103 25.1053 9.2935 25.2928C9.10596 25.4804 9.0006 25.7347 9.0006 26C9.0006 26.2652 9.10596 26.5195 9.2935 26.7071C9.48103 26.8946 9.73539 27 10.0006 27ZM19.3956 27.098C19.4349 26.9707 19.4992 26.8526 19.5848 26.7505C19.6703 26.6484 19.7754 26.5645 19.8939 26.5036C20.0123 26.4427 20.1417 26.406 20.2745 26.3958C20.4073 26.3857 20.5408 26.4021 20.6672 26.4442C20.7936 26.4863 20.9102 26.5532 21.0104 26.641C21.1105 26.7288 21.1921 26.8357 21.2504 26.9555C21.3086 27.0753 21.3424 27.2055 21.3496 27.3385C21.3569 27.4715 21.3375 27.6046 21.2926 27.73L19.8336 32.1059L27.7306 29.144L22.8566 24.27C22.6199 24.0333 22.4465 23.7411 22.352 23.42C22.2576 23.099 22.2452 22.7593 22.3161 22.4323C22.3869 22.1052 22.5387 21.8011 22.7575 21.5479C22.9764 21.2947 23.2552 21.1004 23.5686 20.983L31.4646 18.021C31.8183 17.8882 32.2023 17.8584 32.5722 17.9349C32.9422 18.0114 33.2829 18.1911 33.5549 18.4532C33.8269 18.7153 34.0192 19.0491 34.1094 19.4159C34.1996 19.7827 34.1841 20.1676 34.0646 20.526L32.6066 24.902C32.5227 25.1536 32.3422 25.3617 32.1049 25.4803C31.8675 25.5989 31.5928 25.6184 31.3411 25.5345C31.0894 25.4505 30.8814 25.27 30.7628 25.0327C30.6441 24.7954 30.6247 24.5206 30.7086 24.269L32.1676 19.894L24.2706 22.855L29.1456 27.73C29.3823 27.9666 29.5558 28.2588 29.6502 28.5799C29.7446 28.9009 29.757 29.2406 29.6861 29.5677C29.6153 29.8947 29.4635 30.1988 29.2447 30.452C29.0258 30.7052 28.747 30.8995 28.4336 31.017L20.5366 33.978C20.1829 34.1107 19.7989 34.1405 19.429 34.064C19.059 33.9875 18.7183 33.8078 18.4463 33.5457C18.1743 33.2836 17.982 32.9498 17.8918 32.583C17.8016 32.2162 17.8171 31.8313 17.9366 31.473L19.3956 27.098V27.098ZM41.2736 7.48195C40.2636 6.65195 39.1736 5.89395 38.0046 5.21995C36.7411 4.48969 35.414 3.87551 34.0396 3.38495C30.7283 2.21351 27.2011 1.77939 23.7046 2.11295C20.2085 2.45241 16.8288 3.55135 13.8016 5.33295C12.546 6.0768 11.3605 6.93297 10.2596 7.89095C9.25737 8.7614 8.32856 9.71295 7.48261 10.736C6.65261 11.746 5.8946 12.836 5.2206 14.004C4.49029 15.2678 3.87611 16.5952 3.38561 17.97C2.21416 21.2812 1.78005 24.8084 2.11361 28.305C2.45321 31.8007 3.55214 35.1801 5.33361 38.207C6.0774 39.4629 6.93357 40.6487 7.89161 41.75C8.7621 42.7518 9.71365 43.6803 10.7366 44.526C11.7466 45.356 12.8366 46.114 14.0046 46.789C22.7116 51.769 33.8416 50.992 41.7506 44.117C41.9508 43.943 42.212 43.8557 42.4766 43.8742C42.7412 43.8928 42.9876 44.0157 43.1616 44.216C43.3356 44.4162 43.4229 44.6773 43.4043 44.942C43.3858 45.2066 43.2628 45.453 43.0626 45.6269C33.3286 54.0879 19.0896 54.023 9.46461 46.07C7.12765 44.1484 5.14653 41.8312 3.61161 39.2239C1.67354 35.9485 0.48221 32.2858 0.122605 28.497C-0.247567 24.7087 0.222958 20.8854 1.5006 17.3C2.50989 14.4481 4.0124 11.7958 5.9396 9.46395C7.86114 7.127 10.1784 5.14587 12.7856 3.61095C16.061 1.67289 19.7238 0.481557 23.5126 0.121951C27.2306 -0.239049 31.0526 0.195952 34.7086 1.49995C37.5608 2.50913 40.2135 4.01165 42.5456 5.93895C52.1896 13.869 54.9706 27.835 48.5216 39.004C48.3881 39.2318 48.1698 39.3975 47.9145 39.465C47.6592 39.5325 47.3876 39.4963 47.1589 39.3642C46.9302 39.2322 46.763 39.0151 46.6939 38.7602C46.6247 38.5054 46.6591 38.2335 46.7896 38.004C52.0296 28.929 50.6686 17.855 44.1966 10.34C43.3013 9.30971 42.3237 8.35391 41.2736 7.48195V7.48195Z" transform="translate(2.99951 3)" fill="#333333"/>
</svg>
