<svg width="58" height="58" viewBox="0 0 58 58" fill="none" xmlns="http://www.w3.org/2000/svg">
<path d="M39.6604 45.6604L39.6624 45.6624L38.7044 49.3224C38.0864 51.6824 35.6204 52.7094 33.5084 51.4744L26.7304 47.5094C26.3904 47.3094 25.6124 47.3094 25.2704 47.5094L18.4924 51.4744C16.3864 52.7064 13.9164 51.6884 13.2964 49.3224L11.3074 41.7254C11.2074 41.3444 10.6574 40.7934 10.2754 40.6934L2.6784 38.7034C0.318405 38.0864 -0.708596 35.6204 0.526404 33.5084L4.4914 26.7304C4.6914 26.3904 4.6914 25.6124 4.4914 25.2704L0.526404 18.4924C-0.705596 16.3864 0.312405 13.9164 2.6784 13.2964L10.2754 11.3074C10.6564 11.2074 11.2074 10.6574 11.3074 10.2754L13.2974 2.6784C13.9144 0.318405 16.3804 -0.708596 18.4924 0.526404L25.2704 4.4914C25.6104 4.6914 26.3884 4.6914 26.7304 4.4914L33.5084 0.526404C35.6144 -0.705596 38.0844 0.312405 38.7044 2.6784L40.6934 10.2754C40.7934 10.6564 41.3434 11.2074 41.7254 11.3074L49.3224 13.2974C51.6824 13.9144 52.7094 16.3804 51.4744 18.4924L47.5094 25.2704C47.3094 25.6104 47.3094 26.3884 47.5094 26.7304L51.4744 33.5084C52.7064 35.6144 51.6884 38.0844 49.3224 38.7044L45.9984 39.5744C45.9534 39.5924 45.9074 39.6074 45.8584 39.6194L43.9364 40.0984C43.6784 40.1612 43.406 40.1203 43.1777 39.9846C42.9495 39.8489 42.7835 39.6291 42.7154 39.3724C42.6819 39.2442 42.6746 39.1105 42.6937 38.9794C42.7129 38.8483 42.7581 38.7223 42.8269 38.609C42.8956 38.4957 42.9864 38.3973 43.0938 38.3198C43.2013 38.2422 43.3232 38.187 43.4524 38.1574L44.7074 37.8454L48.8154 36.7694C49.9024 36.4854 50.3104 35.4794 49.7484 34.5194L45.7824 27.7404C45.2154 26.7714 45.2204 25.2204 45.7824 24.2604L49.7484 17.4824C50.3154 16.5124 49.8934 15.5134 48.8154 15.2314L41.2194 13.2424C40.1334 12.9584 39.0394 11.8584 38.7584 10.7824L36.7694 3.1854C36.4854 2.0984 35.4794 1.69041 34.5194 2.25241L27.7404 6.21841C26.7714 6.78541 25.2204 6.78041 24.2604 6.21841L17.4824 2.25241C16.5124 1.68541 15.5134 2.1074 15.2314 3.1854L13.2424 10.7814C12.9584 11.8674 11.8584 12.9614 10.7824 13.2424L3.1854 15.2314C2.0984 15.5154 1.69041 16.5214 2.25241 17.4814L6.21841 24.2604C6.78541 25.2294 6.78041 26.7804 6.21841 27.7404L2.25241 34.5184C1.68541 35.4884 2.1074 36.4874 3.1854 36.7694L10.7814 38.7584C11.8674 39.0424 12.9614 40.1424 13.2424 41.2184L15.2314 48.8154C15.5154 49.9024 16.5214 50.3104 17.4814 49.7484L24.2604 45.7824C25.2294 45.2154 26.7804 45.2204 27.7404 45.7824L34.5184 49.7484C35.4884 50.3154 36.4874 49.8934 36.7694 48.8154L37.4494 46.2204C37.4554 46.1754 37.4644 46.1304 37.4764 46.0854L37.8274 44.7754L37.8444 44.7114L37.9894 44.1714C38.1334 43.6334 38.6984 43.3164 39.2164 43.4554C39.3447 43.4885 39.4651 43.5469 39.5703 43.6273C39.6756 43.7077 39.7637 43.8085 39.8294 43.9235C39.895 44.0386 39.9369 44.1657 39.9525 44.2972C39.9682 44.4288 39.9572 44.5621 39.9204 44.6894L39.6604 45.6604V45.6604ZM26.0004 42.0004C17.1634 42.0004 10.0004 34.8374 10.0004 26.0004C10.0004 17.1634 17.1634 10.0004 26.0004 10.0004C34.8374 10.0004 42.0004 17.1634 42.0004 26.0004C42.0004 34.8374 34.8374 42.0004 26.0004 42.0004ZM26.0004 40.0004C33.7324 40.0004 40.0004 33.7324 40.0004 26.0004C40.0004 18.2684 33.7324 12.0004 26.0004 12.0004C18.2684 12.0004 12.0004 18.2684 12.0004 26.0004C12.0004 33.7324 18.2684 40.0004 26.0004 40.0004ZM21.0004 26.0004C20.2048 26.0004 19.4417 25.6843 18.8791 25.1217C18.3165 24.5591 18.0004 23.7961 18.0004 23.0004C18.0004 22.2048 18.3165 21.4417 18.8791 20.8791C19.4417 20.3165 20.2048 20.0004 21.0004 20.0004C21.7961 20.0004 22.5591 20.3165 23.1217 20.8791C23.6843 21.4417 24.0004 22.2048 24.0004 23.0004C24.0004 23.7961 23.6843 24.5591 23.1217 25.1217C22.5591 25.6843 21.7961 26.0004 21.0004 26.0004ZM21.0004 24.0004C21.2656 24.0004 21.52 23.895 21.7075 23.7075C21.895 23.52 22.0004 23.2656 22.0004 23.0004C22.0004 22.7352 21.895 22.4808 21.7075 22.2933C21.52 22.1058 21.2656 22.0004 21.0004 22.0004C20.7352 22.0004 20.4808 22.1058 20.2933 22.2933C20.1058 22.4808 20.0004 22.7352 20.0004 23.0004C20.0004 23.2656 20.1058 23.52 20.2933 23.7075C20.4808 23.895 20.7352 24.0004 21.0004 24.0004ZM31.0004 32.0004C30.2048 32.0004 29.4417 31.6843 28.8791 31.1217C28.3165 30.5591 28.0004 29.7961 28.0004 29.0004C28.0004 28.2048 28.3165 27.4417 28.8791 26.8791C29.4417 26.3165 30.2048 26.0004 31.0004 26.0004C31.7961 26.0004 32.5591 26.3165 33.1217 26.8791C33.6843 27.4417 34.0004 28.2048 34.0004 29.0004C34.0004 29.7961 33.6843 30.5591 33.1217 31.1217C32.5591 31.6843 31.7961 32.0004 31.0004 32.0004V32.0004ZM31.0004 30.0004C31.2656 30.0004 31.52 29.895 31.7075 29.7075C31.895 29.52 32.0004 29.2656 32.0004 29.0004C32.0004 28.7352 31.895 28.4808 31.7075 28.2933C31.52 28.1058 31.2656 28.0004 31.0004 28.0004C30.7352 28.0004 30.4808 28.1058 30.2933 28.2933C30.1058 28.4808 30.0004 28.7352 30.0004 29.0004C30.0004 29.2656 30.1058 29.52 30.2933 29.7075C30.4808 29.895 30.7352 30.0004 31.0004 30.0004ZM21.7054 30.5334L28.7874 20.3494C28.9508 20.1404 29.1905 20.0049 29.4538 19.9726C29.7171 19.9404 29.9824 20.014 30.1914 20.1774C30.4004 20.3408 30.5359 20.5805 30.5682 20.8438C30.6004 21.1071 30.5268 21.3724 30.3634 21.5814L23.2814 31.7654C23.2005 31.8689 23.1 31.9554 22.9857 32.0201C22.8713 32.0847 22.7454 32.1262 22.615 32.1422C22.3517 32.1744 22.0864 32.1008 21.8774 31.9374C21.6684 31.774 21.5329 31.5343 21.5006 31.271C21.4684 31.0077 21.542 30.7424 21.7054 30.5334Z" transform="translate(2.99951 2.99951)" fill="#333333"/>
</svg>
