<svg width="58" height="58" viewBox="0 0 58 58" fill="none" xmlns="http://www.w3.org/2000/svg">
<path fill-rule="evenodd" clip-rule="evenodd" d="M10 23.6755V45.6755H12V23.6755H10ZM8 23.6755H6.989C5.333 23.6755 4 22.3115 4 20.6755C4 20.3255 4.06 19.9885 4.17 19.6755H3.003C0.482 19.6755 -0.389001 16.8645 1.717 15.4605L24.064 0.5625C25.191 -0.1895 26.814 -0.1855 27.936 0.5625L50.283 15.4605C52.4 16.8715 51.517 19.6755 48.997 19.6755H47.827C47.9869 20.127 48.0363 20.6102 47.9711 21.0847C47.9059 21.5593 47.728 22.0113 47.4523 22.4029C47.1765 22.7946 46.811 23.1145 46.3863 23.3359C45.9616 23.5573 45.49 23.6737 45.011 23.6755H44V45.6755H46.998C47.552 45.6755 48 46.1395 48 46.6755C48 47.2275 47.565 47.6755 46.998 47.6755H5.002C4.73732 47.6732 4.48412 47.5671 4.29677 47.3801C4.10942 47.1932 4.00287 46.9402 4 46.6755C4 46.1235 4.435 45.6755 5.002 45.6755H8V23.6755ZM42 23.6755H40V45.6755H42V23.6755ZM38 23.6755H34V45.6755H38V23.6755ZM32 23.6755H30V45.6755H32V23.6755ZM28 23.6755H24V45.6755H28V23.6755ZM22 23.6755H20V45.6755H22V23.6755ZM18 23.6755H14V45.6755H18V23.6755ZM5.12742e-10 50.6755C-8.44238e-06 50.4117 0.10425 50.1585 0.29006 49.9712C0.47587 49.7839 0.728173 49.6776 0.992001 49.6755H51.008C51.2732 49.6755 51.5276 49.7809 51.7151 49.9684C51.9026 50.1559 52.008 50.4103 52.008 50.6755C52.008 50.9407 51.9026 51.1951 51.7151 51.3826C51.5276 51.5701 51.2732 51.6755 51.008 51.6755H0.992001C0.444001 51.6755 5.12742e-10 51.2115 5.12742e-10 50.6755ZM25.174 2.2255L2.826 17.1255C2.377 17.4245 2.449 17.6755 3.003 17.6755H48.997C49.555 17.6755 49.63 17.4285 49.174 17.1255L26.826 2.2255C26.377 1.9265 25.63 1.9225 25.174 2.2255V2.2255ZM6 20.6755C6 21.2115 6.443 21.6755 6.989 21.6755H45.01C45.55 21.6755 45.999 21.2275 45.999 20.6755C45.999 20.1395 45.556 19.6755 45.01 19.6755H6.99C6.72644 19.6779 6.47449 19.7843 6.28906 19.9716C6.10362 20.1589 5.99973 20.4119 6 20.6755V20.6755ZM18 12.6755C18 12.1235 18.462 11.6755 19 11.6755H33C33.552 11.6755 34 12.1395 34 12.6755C34 13.2275 33.538 13.6755 33 13.6755H19C18.448 13.6755 18 13.2115 18 12.6755ZM24 7.6755H28C28.2652 7.6755 28.5196 7.78086 28.7071 7.96839C28.8946 8.15593 29 8.41028 29 8.6755C29 8.94072 28.8946 9.19507 28.7071 9.38261C28.5196 9.57014 28.2652 9.6755 28 9.6755H24C23.7348 9.6755 23.4804 9.57014 23.2929 9.38261C23.1054 9.19507 23 8.94072 23 8.6755C23 8.41028 23.1054 8.15593 23.2929 7.96839C23.4804 7.78086 23.7348 7.6755 24 7.6755Z" transform="translate(3 3.32446)" fill="#333333"/>
</svg>
