<svg width="58" height="58" viewBox="0 0 58 58" fill="none" xmlns="http://www.w3.org/2000/svg">
<path d="M2.0002 37.01V39.985C2.0002 41.102 2.8962 42 4.0012 42H48.0002C48.2639 41.9991 48.5247 41.9462 48.7679 41.8445C49.0112 41.7427 49.2319 41.594 49.4177 41.4069C49.6034 41.2197 49.7504 40.9979 49.8504 40.7539C49.9504 40.5099 50.0013 40.2486 50.0002 39.985V14.015C50.0015 13.7512 49.9508 13.4897 49.8508 13.2456C49.7509 13.0014 49.6038 12.7794 49.4179 12.5922C49.232 12.405 49.011 12.2563 48.7676 12.1547C48.5241 12.0531 48.263 12.0005 47.9992 12H10.9992C10.735 11.9971 10.4824 11.8908 10.2956 11.7039C10.1089 11.5169 10.0028 11.2642 10.0002 11C10.0002 10.7351 10.1053 10.4811 10.2924 10.2936C10.4795 10.1061 10.7333 10.0005 10.9982 10H26.0002L22.8872 3.775C22.4042 2.809 21.1102 2 20.0102 2H3.9912C2.9102 2 2.0002 2.891 2.0002 3.99V28.99C2.0002 29.548 1.5362 30 1.0002 30C0.867655 30.0014 0.736183 29.9761 0.613584 29.9257C0.490984 29.8753 0.379754 29.8008 0.28649 29.7066C0.193227 29.6124 0.119831 29.5004 0.0706529 29.3773C0.0214753 29.2542 -0.0024818 29.1225 0.000203119 28.99V3.99C0.000203119 1.79 1.8032 0 3.9902 0H20.0102C21.8612 0 23.8522 1.232 24.6762 2.88L28.2362 10H48.0002C48.5266 10.0007 49.0476 10.1051 49.5336 10.3073C50.0196 10.5094 50.461 10.8054 50.8325 11.1783C51.204 11.5512 51.4983 11.9937 51.6987 12.4804C51.8991 12.9672 52.0015 13.4886 52.0002 14.015V39.985C52.0013 40.5114 51.8986 41.0328 51.6981 41.5195C51.4975 42.0062 51.2031 42.4486 50.8315 42.8214C50.46 43.1943 50.0186 43.4903 49.5326 43.6925C49.0466 43.8947 48.5256 43.9992 47.9992 44H4.0002C3.47384 43.9993 2.95276 43.8949 2.46678 43.6927C1.98079 43.4906 1.53943 43.1946 1.16793 42.8217C0.796434 42.4488 0.502082 42.0063 0.301713 41.5196C0.101344 41.0328 -0.00111156 40.5114 0.000203119 39.985V37.009C0.000203119 36.452 0.464203 36 1.0002 36C1.13275 35.9986 1.26422 36.0239 1.38682 36.0743C1.50942 36.1247 1.62065 36.1992 1.71392 36.2934C1.80718 36.3876 1.88058 36.4996 1.92975 36.6227C1.97893 36.7458 2.00289 36.8775 2.0002 37.01ZM32.0002 35C32.0002 34.448 32.4562 34 32.9822 34H43.0182C43.5602 34 44.0002 34.464 44.0002 35C44.0002 35.552 43.5442 36 43.0182 36H32.9822C32.4402 36 32.0002 35.536 32.0002 35ZM32.0002 31C32.0002 30.448 32.4562 30 32.9822 30H43.0182C43.5602 30 44.0002 30.464 44.0002 31C44.0002 31.552 43.5442 32 43.0182 32H32.9822C32.4402 32 32.0002 31.536 32.0002 31ZM13.0002 14H51.0002C51.2654 14 51.5198 14.1054 51.7073 14.2929C51.8948 14.4804 52.0002 14.7348 52.0002 15C52.0002 15.2652 51.8948 15.5196 51.7073 15.7071C51.5198 15.8946 51.2654 16 51.0002 16H13.0002C12.735 16 12.4806 15.8946 12.2931 15.7071C12.1056 15.5196 12.0002 15.2652 12.0002 15C12.0002 14.7348 12.1056 14.4804 12.2931 14.2929C12.4806 14.1054 12.735 14 13.0002 14Z" transform="translate(2.99976 7)" fill="#333333"/>
</svg>
