<svg width="58" height="58" viewBox="0 0 58 58" fill="none" xmlns="http://www.w3.org/2000/svg">
<path d="M9.18047 22.892L23.5845 8.489C25.7245 3.497 30.6825 -2.13623e-07 36.4575 -2.13623e-07C44.1895 -2.13623e-07 50.4575 6.268 50.4575 14C50.4575 19.775 46.9605 24.734 41.9685 26.873L18.6835 50.161C18.4946 50.3466 18.2405 50.4509 17.9756 50.4515C17.7107 50.452 17.4562 50.3488 17.2665 50.164C17.1728 50.0711 17.0984 49.9606 17.0478 49.8388C16.9971 49.717 16.9712 49.5863 16.9715 49.4544C16.9718 49.3224 16.9983 49.1919 17.0494 49.0703C17.1006 48.9487 17.1754 48.8385 17.2695 48.746L38.1115 27.904C37.5695 27.968 37.0175 28.001 36.4585 28.001C33.0902 28.0058 29.834 26.7913 27.2915 24.582L4.54147 47.332C4.35265 47.5181 4.0984 47.6227 3.83329 47.6235C3.56818 47.6242 3.31334 47.521 3.12347 47.336C3.02982 47.2431 2.95557 47.1325 2.90502 47.0106C2.85446 46.8888 2.82862 46.7581 2.829 46.6262C2.82937 46.4942 2.85594 46.3637 2.90718 46.2421C2.95842 46.1206 3.0333 46.0104 3.12747 45.918L25.8775 23.168C23.6682 20.6255 22.4537 17.3693 22.4585 14.001C22.4585 13.441 22.4915 12.891 22.5555 12.348L10.5955 24.308C10.2125 24.69 9.57447 24.673 9.19547 24.294C9.10203 24.2033 9.02749 24.095 8.97616 23.9754C8.92483 23.8557 8.89774 23.7271 8.89643 23.5969C8.89513 23.4667 8.91965 23.3376 8.96858 23.2169C9.0175 23.0963 9.08986 22.9865 9.18147 22.894L9.18047 22.892ZM0.297471 31.775L4.94447 27.128C5.13329 26.9411 5.38786 26.8357 5.65354 26.8344C5.91922 26.833 6.17482 26.936 6.36547 27.121C6.46019 27.2137 6.53533 27.3244 6.58645 27.4467C6.63757 27.569 6.66362 27.7003 6.66306 27.8328C6.6625 27.9653 6.63534 28.0963 6.58319 28.2182C6.53105 28.34 6.45497 28.4501 6.35947 28.542L1.71247 33.189C1.52352 33.3749 1.26919 33.4794 1.00408 33.48C0.738978 33.4805 0.484213 33.3772 0.294471 33.192C0.200908 33.0992 0.126704 32.9887 0.0761559 32.867C0.0256081 32.7452 -0.000275903 32.6147 3.14633e-06 32.4829C0.000282196 32.3511 0.0267182 32.2206 0.077781 32.0991C0.128844 31.9776 0.203516 31.8674 0.297471 31.775V31.775ZM24.4575 14C24.4575 20.627 29.8305 26 36.4575 26C43.0845 26 48.4575 20.627 48.4575 14C48.4575 7.373 43.0845 2 36.4575 2C29.8305 2 24.4575 7.373 24.4575 14V14ZM35.8005 4.959C35.8323 4.83155 35.8888 4.71161 35.967 4.60603C36.0451 4.50044 36.1433 4.41128 36.2558 4.34363C36.3684 4.27599 36.4932 4.23118 36.6232 4.21177C36.7531 4.19235 36.8855 4.19872 37.013 4.2305C37.1404 4.26228 37.2604 4.31885 37.3659 4.39698C37.4715 4.47512 37.5607 4.57328 37.6283 4.68587C37.696 4.79846 37.7408 4.92328 37.7602 5.05318C37.7796 5.18309 37.7733 5.31555 37.7415 5.443C37.6725 5.718 37.6305 6.276 37.7455 7.013C37.9435 8.276 38.5585 9.534 39.7415 10.716C40.9235 11.899 42.1815 12.514 43.4455 12.712C44.1815 12.827 44.7395 12.785 45.0145 12.716C45.2693 12.6587 45.5365 12.7033 45.7588 12.8404C45.9812 12.9775 46.141 13.1961 46.2043 13.4495C46.2675 13.703 46.2291 13.9711 46.0972 14.1966C45.9653 14.422 45.7504 14.5869 45.4985 14.656C44.9815 14.786 44.1605 14.849 43.1355 14.688C41.4645 14.426 39.8165 13.62 38.3265 12.131C36.8365 10.641 36.0315 8.993 35.7695 7.322C35.6095 6.297 35.6715 5.476 35.8005 4.959V4.959Z" transform="translate(3.77661 2.79907)" fill="#333333"/>
</svg>
