<svg width="58" height="58" viewBox="0 0 58 58" fill="none" xmlns="http://www.w3.org/2000/svg">
<path d="M3.11091 21.0479C2.22491 19.5129 2.15391 17.2209 2.93991 15.6319L7.55391 6.29891C8.40191 4.58291 10.4579 3.39791 12.3659 3.52091L22.7559 4.19091C24.5239 4.30491 26.4779 5.52091 27.3599 7.04791L44.3599 35.0279C44.888 35.9481 45.03 37.0399 44.7549 38.0645C44.4797 39.0892 43.8099 39.963 42.8919 40.4949L25.5789 50.4899C24.6595 51.0189 23.568 51.1621 22.5433 50.8883C21.5185 50.6145 20.6439 49.9459 20.1109 49.0289L3.11091 21.0479V21.0479ZM4.84391 20.0479L21.8439 48.0279C22.1115 48.4858 22.5492 48.8194 23.0616 48.9561C23.5741 49.0928 24.1198 49.0216 24.5799 48.7579L41.8919 38.7629C42.3503 38.4963 42.6848 38.0594 42.8226 37.5474C42.9604 37.0353 42.8905 36.4896 42.6279 36.0289L25.6279 8.04791C25.0829 7.10391 23.7319 6.25791 22.6269 6.18691L12.2369 5.51691C11.1369 5.44591 9.83691 6.19291 9.34691 7.18491L4.73191 16.5179C4.24291 17.5079 4.29191 19.0909 4.84391 20.0479V20.0479ZM19.5289 28.1589C19.2579 27.6889 19.4389 27.0769 19.9039 26.8089C20.131 26.6783 20.4001 26.6418 20.6538 26.7072C20.9074 26.7726 21.1254 26.9348 21.2609 27.1589L28.3389 39.2789C28.6099 39.7489 28.4289 40.3619 27.9639 40.6289C27.7369 40.7595 27.4677 40.796 27.214 40.7306C26.9604 40.6652 26.7425 40.503 26.6069 40.2789L19.5289 28.1589ZM24.7249 25.1589C24.4539 24.6889 24.6349 24.0769 25.0999 23.8089C25.327 23.6783 25.5961 23.6418 25.8498 23.7072C26.1034 23.7726 26.3214 23.9348 26.4569 24.1589L33.5349 36.2789C33.8059 36.7489 33.6249 37.3619 33.1599 37.6289C32.9329 37.7595 32.6637 37.796 32.41 37.7306C32.1564 37.6652 31.9385 37.503 31.8029 37.2789L24.7249 25.1589ZM15.2149 12.0099C15.4445 11.8794 15.7163 11.845 15.9712 11.9142C16.226 11.9833 16.4431 12.1505 16.5752 12.3792C16.7072 12.6079 16.7434 12.8795 16.6759 13.1348C16.6085 13.3901 16.4427 13.6084 16.2149 13.7419C15.7866 13.989 15.4411 14.3576 15.2223 14.8011C15.0034 15.2445 14.921 15.7429 14.9855 16.2332C15.0499 16.7235 15.2583 17.1837 15.5843 17.5555C15.9103 17.9274 16.3393 18.1942 16.8169 18.3222C17.2946 18.4502 17.7995 18.4337 18.2678 18.2747C18.736 18.1158 19.1466 17.8215 19.4477 17.4291C19.7487 17.0368 19.9265 16.564 19.9588 16.0705C19.9911 15.5771 19.8763 15.0851 19.6289 14.6569C19.4984 14.4273 19.464 14.1555 19.5332 13.9006C19.6023 13.6458 19.7695 13.4287 19.9982 13.2966C20.2269 13.1646 20.4985 13.1284 20.7538 13.1959C21.0091 13.2634 21.2274 13.4291 21.3609 13.6569C21.806 14.4277 22.0124 15.3131 21.9542 16.2012C21.8961 17.0893 21.5758 17.9403 21.034 18.6464C20.4922 19.3525 19.7532 19.8821 18.9104 20.1682C18.0676 20.4543 17.1589 20.4841 16.2992 20.2537C15.4395 20.0234 14.6675 19.5433 14.0806 18.8741C13.4938 18.205 13.1185 17.3768 13.0024 16.4944C12.8862 15.612 13.0343 14.715 13.428 13.9167C13.8216 13.1185 14.4431 12.4549 15.2139 12.0099H15.2149ZM35.4379 14.3029C35.2393 14.1337 35.1147 13.8937 35.0907 13.6339C35.0666 13.3741 35.145 13.1153 35.3092 12.9125C35.4733 12.7097 35.7102 12.5791 35.9693 12.5486C36.2283 12.518 36.4891 12.5899 36.6959 12.7489L50.5289 23.9489C50.8351 24.1969 51.0895 24.5027 51.2775 24.849C51.4655 25.1953 51.5834 25.5753 51.6246 25.9671C51.6657 26.359 51.6292 26.7552 51.5173 27.1329C51.4053 27.5107 51.22 27.8627 50.9719 28.1689L47.7809 32.1099C47.6996 32.2157 47.5979 32.3041 47.4819 32.37C47.3658 32.4359 47.2378 32.4779 47.1053 32.4935C46.9728 32.5092 46.8385 32.4981 46.7103 32.461C46.5821 32.424 46.4626 32.3616 46.3589 32.2777C46.2552 32.1937 46.1694 32.0898 46.1064 31.9722C46.0434 31.8545 46.0047 31.7255 45.9924 31.5926C45.9801 31.4597 45.9945 31.3258 46.0348 31.1985C46.075 31.0713 46.1404 30.9535 46.2269 30.8519L49.4179 26.9109C49.5006 26.8088 49.5624 26.6914 49.5997 26.5655C49.6371 26.4395 49.6492 26.3074 49.6355 26.1767C49.6217 26.0461 49.5824 25.9194 49.5196 25.8039C49.4569 25.6885 49.3721 25.5865 49.2699 25.5039L35.4389 14.3029H35.4379ZM0.978911 0.592906C1.08588 0.352915 1.283 0.164662 1.52765 0.0688523C1.77231 -0.0269575 2.04485 -0.0226267 2.28634 0.0809067C2.52783 0.18444 2.71887 0.378859 2.81815 0.622126C2.91744 0.865394 2.91699 1.13796 2.81691 1.3809C1.03491 5.5399 2.13291 8.2849 6.29191 10.0679C6.41444 10.1184 6.52572 10.1927 6.61927 10.2866C6.71282 10.3804 6.78679 10.492 6.83686 10.6146C6.88694 10.7373 6.91213 10.8688 6.91097 11.0013C6.90981 11.1338 6.88232 11.2648 6.8301 11.3866C6.77788 11.5084 6.70197 11.6186 6.60679 11.7108C6.51161 11.803 6.39905 11.8753 6.27565 11.9237C6.15225 11.972 6.02048 11.9953 5.888 11.9923C5.75551 11.9892 5.62495 11.9599 5.50391 11.9059C0.329911 9.68891 -1.23909 5.76691 0.978911 0.592906Z" transform="translate(3.10107 3.01318)" fill="#333333"/>
</svg>
