<svg width="58" height="58" viewBox="0 0 58 58" fill="none" xmlns="http://www.w3.org/2000/svg">
<path d="M25.98 20.8229C25.0605 20.8217 24.1499 21.0022 23.3004 21.354C22.4509 21.7058 21.6793 22.222 21.03 22.8729C20.3791 23.5223 19.8629 24.2939 19.5111 25.1433C19.1592 25.9928 18.9788 26.9034 18.98 27.8229C18.9788 28.7423 19.1592 29.653 19.5111 30.5024C19.8629 31.3519 20.3791 32.1235 21.03 32.7729C21.6793 33.4238 22.4509 33.94 23.3004 34.2918C24.1499 34.6436 25.0605 34.8241 25.98 34.8229C26.8994 34.8241 27.81 34.6436 28.6595 34.2918C29.509 33.94 30.2806 33.4238 30.93 32.7729C31.0222 32.6774 31.1326 32.6012 31.2546 32.5488C31.3766 32.4964 31.5078 32.4688 31.6406 32.4676C31.7734 32.4665 31.905 32.4918 32.0279 32.5421C32.1508 32.5924 32.2625 32.6666 32.3564 32.7605C32.4503 32.8544 32.5245 32.966 32.5748 33.0889C32.6251 33.2118 32.6504 33.3435 32.6492 33.4763C32.6481 33.6091 32.6205 33.7403 32.5681 33.8623C32.5157 33.9843 32.4395 34.0946 32.344 34.1869C31.5091 35.0238 30.5171 35.6875 29.425 36.1399C28.3329 36.5923 27.1621 36.8244 25.98 36.8229C24.7979 36.8244 23.6271 36.5923 22.535 36.1399C21.4428 35.6875 20.4508 35.0238 19.616 34.1869C18.7791 33.352 18.1153 32.3601 17.663 31.2679C17.2106 30.1758 16.9785 29.005 16.98 27.8229C16.9785 26.6408 17.2106 25.47 17.663 24.3779C18.1153 23.2857 18.7791 22.2937 19.616 21.4589C20.4508 20.622 21.4428 19.9583 22.535 19.5059C23.6271 19.0535 24.7979 18.8214 25.98 18.8229C28.283 18.8229 30.587 19.7019 32.344 21.4589C32.4395 21.5511 32.5157 21.6615 32.5681 21.7835C32.6205 21.9055 32.6481 22.0367 32.6492 22.1695C32.6504 22.3023 32.6251 22.434 32.5748 22.5569C32.5245 22.6797 32.4503 22.7914 32.3564 22.8853C32.2625 22.9792 32.1508 23.0534 32.0279 23.1037C31.905 23.154 31.7734 23.1793 31.6406 23.1781C31.5078 23.177 31.3766 23.1494 31.2546 23.097C31.1326 23.0446 31.0222 22.9684 30.93 22.8729C30.2806 22.2219 29.5091 21.7057 28.6596 21.3539C27.8101 21.0021 26.8994 20.8216 25.98 20.8229V20.8229ZM25.515 42.8789L13.173 49.3669C12.6775 49.6275 12.1189 49.7442 11.5605 49.7038C11.0021 49.6635 10.4661 49.4677 10.0132 49.1386C9.56029 48.8095 9.2085 48.3602 8.99763 47.8416C8.78676 47.323 8.72522 46.7557 8.81998 46.2039L11.177 32.4619C11.2044 32.3022 11.1927 32.1382 11.1427 31.984C11.0927 31.8298 11.006 31.6901 10.89 31.5769L0.905977 21.8449C0.505161 21.4542 0.22164 20.9592 0.0874672 20.4158C-0.0467053 19.8723 -0.0261775 19.3022 0.14673 18.7699C0.319638 18.2375 0.638029 17.7642 1.06591 17.4033C1.49378 17.0425 2.01408 16.8085 2.56798 16.7279L16.366 14.7229C16.5264 14.6996 16.6788 14.6376 16.81 14.5423C16.9412 14.447 17.0472 14.3213 17.119 14.1759L23.289 1.67289C23.5367 1.17076 23.9199 0.747964 24.3954 0.452323C24.8709 0.156683 25.4196 -8.29556e-07 25.9795 -8.29556e-07C26.5394 -8.29556e-07 27.0881 0.156683 27.5636 0.452323C28.039 0.747964 28.4223 1.17076 28.67 1.67289L34.84 14.1759C34.9118 14.3214 35.018 14.4473 35.1494 14.5426C35.2808 14.6379 35.4333 14.6997 35.594 14.7229L49.392 16.7279C49.9459 16.8085 50.4662 17.0425 50.894 17.4033C51.3219 17.7642 51.6403 18.2375 51.8132 18.7699C51.9861 19.3022 52.0067 19.8723 51.8725 20.4158C51.7383 20.9592 51.4548 21.4542 51.054 21.8449L41.07 31.5769C40.9538 31.69 40.8669 31.8297 40.8167 31.9838C40.7666 32.138 40.7546 32.3021 40.782 32.4619L43.139 46.2039C43.2336 46.7555 43.172 47.3227 42.9612 47.8411C42.7503 48.3596 42.3987 48.8088 41.9459 49.1378C41.4932 49.4669 40.9574 49.6627 40.3991 49.7032C39.8409 49.7437 39.2825 49.6272 38.787 49.3669L26.445 42.8789C26.3016 42.8036 26.142 42.7642 25.98 42.7642C25.818 42.7642 25.6584 42.8036 25.515 42.8789V42.8789ZM27.376 41.1089L39.717 47.5969C39.8821 47.6837 40.0683 47.7226 40.2544 47.7092C40.4405 47.6957 40.6191 47.6305 40.77 47.5208C40.921 47.4112 41.0383 47.2615 41.1086 47.0887C41.1789 46.9159 41.1995 46.7268 41.168 46.5429L38.811 32.7999C38.7288 32.3205 38.7645 31.8284 38.9148 31.3659C39.0652 30.9034 39.3257 30.4843 39.674 30.1449L49.658 20.4129C49.7917 20.2827 49.8863 20.1176 49.9311 19.9365C49.9758 19.7553 49.969 19.5652 49.9114 19.3877C49.8537 19.2101 49.7476 19.0523 49.6049 18.932C49.4622 18.8117 49.2887 18.7337 49.104 18.7069L35.306 16.7019C34.8246 16.632 34.3675 16.4461 33.9739 16.1602C33.5804 15.8743 33.2623 15.4971 33.047 15.0609L26.877 2.55789C26.7945 2.39043 26.6667 2.24941 26.5082 2.1508C26.3496 2.05219 26.1667 1.99992 25.98 1.99992C25.7933 1.99992 25.6103 2.05219 25.4518 2.1508C25.2933 2.24941 25.1655 2.39043 25.083 2.55789L18.913 15.0609C18.6976 15.4972 18.3793 15.8746 17.9856 16.1604C17.5919 16.4463 17.1345 16.6321 16.653 16.7019L2.85598 18.7069C2.67128 18.7337 2.49777 18.8117 2.35508 18.932C2.21239 19.0523 2.10622 19.2101 2.04858 19.3877C1.99093 19.5652 1.98412 19.7553 2.0289 19.9365C2.07368 20.1176 2.16827 20.2827 2.30198 20.4129L12.286 30.1449C12.6343 30.4843 12.8948 30.9034 13.0451 31.3659C13.1955 31.8284 13.2311 32.3205 13.149 32.7999L10.792 46.5429C10.7606 46.7267 10.7812 46.9155 10.8515 47.0882C10.9218 47.2609 11.0389 47.4105 11.1897 47.5201C11.3405 47.6297 11.519 47.695 11.7049 47.7085C11.8908 47.7221 12.0769 47.6834 12.242 47.5969L24.584 41.1089C25.0145 40.8826 25.4936 40.7643 25.98 40.7643C26.4664 40.7643 26.9455 40.8826 27.376 41.1089V41.1089Z" transform="translate(3.02002 4.17712)" fill="#333333"/>
</svg>
