<svg width="58" height="58" viewBox="0 0 58 58" fill="none" xmlns="http://www.w3.org/2000/svg">
<path d="M17.18 28L17.847 32H24C24.2652 32 24.5196 32.1054 24.7071 32.2929C24.8946 32.4804 25 32.7348 25 33C25 33.2652 24.8946 33.5196 24.7071 33.7071C24.5196 33.8946 24.2652 34 24 34H18.18L19.794 43.681L30.134 40.235L34.18 20H43C43.2652 20 43.5196 19.8946 43.7071 19.7071C43.8946 19.5196 44 19.2652 44 19V8H39C38.7348 8 38.4804 7.89464 38.2929 7.70711C38.1054 7.51957 38 7.26522 38 7C38 6.73478 38.1054 6.48043 38.2929 6.29289C38.4804 6.10536 38.7348 6 39 6H46C46.5304 6 47.0391 5.78929 47.4142 5.41421C47.7893 5.03914 48 4.53043 48 4C48 3.46957 47.7893 2.96086 47.4142 2.58579C47.0391 2.21071 46.5304 2 46 2H4C3.46957 2 2.96086 2.21071 2.58579 2.58579C2.21071 2.96086 2 3.46957 2 4C2 4.53043 2.21071 5.03914 2.58579 5.41421C2.96086 5.78929 3.46957 6 4 6H11C11.2652 6 11.5196 6.10536 11.7071 6.29289C11.8946 6.48043 12 6.73478 12 7C12 7.26522 11.8946 7.51957 11.7071 7.70711C11.5196 7.89464 11.2652 8 11 8H6V19C6 19.2652 6.10536 19.5196 6.29289 19.7071C6.48043 19.8946 6.73478 20 7 20H24C24.2652 20 24.5196 20.1054 24.7071 20.2929C24.8946 20.4804 25 20.7348 25 21C25 21.2652 24.8946 21.5196 24.7071 21.7071C24.5196 21.8946 24.2652 22 24 22H16.18L16.849 26.011C16.899 26.004 16.949 26 17 26H24C24.2652 26 24.5196 26.1054 24.7071 26.2929C24.8946 26.4804 25 26.7348 25 27C25 27.2652 24.8946 27.5196 24.7071 27.7071C24.5196 27.8946 24.2652 28 24 28H17.18ZM16.017 33.183C16.0148 33.1714 16.0128 33.1597 16.011 33.148L14.153 22H7C6.20435 22 5.44129 21.6839 4.87868 21.1213C4.31607 20.5587 4 19.7956 4 19V8C2.93913 8 1.92172 7.57857 1.17157 6.82843C0.421428 6.07828 0 5.06087 0 4C0 2.93913 0.421428 1.92172 1.17157 1.17157C1.92172 0.421428 2.93913 0 4 0H46C47.0609 0 48.0783 0.421428 48.8284 1.17157C49.5786 1.92172 50 2.93913 50 4C50 5.06087 49.5786 6.07828 48.8284 6.82843C48.0783 7.57857 47.0609 8 46 8V19C46 19.7956 45.6839 20.5587 45.1213 21.1213C44.5587 21.6839 43.7956 22 43 22H35.82L32.094 40.627C32.0249 40.9726 31.8657 41.2939 31.6325 41.5582C31.3993 41.8224 31.1003 42.0204 30.766 42.132L20.426 45.579C20.1518 45.6704 19.861 45.7012 19.5738 45.6694C19.2865 45.6376 19.0095 45.5439 18.762 45.3948C18.5144 45.2457 18.302 45.0446 18.1396 44.8056C17.9772 44.5665 17.8685 44.2951 17.821 44.01L16.017 33.183V33.183ZM33 6C33.2652 6 33.5196 6.10536 33.7071 6.29289C33.8946 6.48043 34 6.73478 34 7C34 7.26522 33.8946 7.51957 33.7071 7.70711C33.5196 7.89464 33.2652 8 33 8H17C16.7348 8 16.4804 7.89464 16.2929 7.70711C16.1054 7.51957 16 7.26522 16 7C16 6.73478 16.1054 6.48043 16.2929 6.29289C16.4804 6.10536 16.7348 6 17 6H33Z" transform="translate(4 5)" fill="#333333"/>
</svg>
