<svg width="58" height="58" viewBox="0 0 58 58" fill="none" xmlns="http://www.w3.org/2000/svg">
<path fill-rule="evenodd" clip-rule="evenodd" d="M34 27.011V31.001C34 32.657 32.644 34.001 31 34.001H17C16.2052 33.9984 15.4436 33.6814 14.8816 33.1194C14.3196 32.5574 14.0026 31.7958 14 31.001V17.001C14 15.345 15.356 14.001 17 14.001H31C32.656 14.001 34 15.357 34 17.001V20.991C34 21.549 33.536 22.001 33 22.001C32.8675 22.0024 32.736 21.9771 32.6134 21.9267C32.4908 21.8763 32.3795 21.8018 32.2863 21.7076C32.193 21.6134 32.1196 21.5014 32.0704 21.3783C32.0213 21.2552 31.9973 21.1235 32 20.991V17.001C32 16.463 31.552 16.001 31 16.001H17C16.462 16.001 16 16.449 16 17.001V31.001C16 31.539 16.448 32.001 17 32.001H31C31.538 32.001 32 31.553 32 31.001V27.011C32 26.453 32.464 26.001 33 26.001C33.1325 25.9996 33.264 26.0249 33.3866 26.0753C33.5092 26.1257 33.6205 26.2002 33.7137 26.2944C33.807 26.3886 33.8804 26.5006 33.9296 26.6237C33.9787 26.7468 34.0027 26.8785 34 27.011V27.011ZM20 1.003C20 0.449001 20.464 5.49316e-07 21 5.49316e-07C21.552 5.49316e-07 22 0.445001 22 1.003V4.001H26V1.004C26 0.45 26.464 0.001 27 0.001C27.552 0.001 28 0.446 28 1.004V4.001H32V1.004C32 0.45 32.464 0.001 33 0.001C33.552 0.001 34 0.446 34 1.004V4.001H41C42.656 4.001 44 5.354 44 7.001V14.001H46.997C47.551 14.001 48 14.465 48 15.001C48 15.553 47.555 16.001 46.997 16.001H44V20.001H46.997C47.551 20.001 48 20.465 48 21.001C48 21.553 47.555 22.001 46.997 22.001H44V26.001H46.997C47.551 26.001 48 26.465 48 27.001C48 27.553 47.555 28.001 46.997 28.001H44V32.001H46.997C47.551 32.001 48 32.465 48 33.001C48 33.553 47.555 34.001 46.997 34.001H44V41.001C44 42.657 42.647 44.001 41 44.001H34V46.998C34 47.552 33.536 48.001 33 48.001C32.448 48.001 32 47.556 32 46.998V44.001H28V46.998C28 47.552 27.536 48.001 27 48.001C26.448 48.001 26 47.556 26 46.998V44.001H22V46.998C22 47.552 21.536 48.001 21 48.001C20.448 48.001 20 47.556 20 46.998V44.001H16V46.998C16 47.552 15.536 48.001 15 48.001C14.448 48.001 14 47.556 14 46.998V44.001H7C5.344 44.001 4 42.648 4 41.001V34.001H1.003C0.738229 33.9987 0.484918 33.8927 0.297409 33.7057C0.1099 33.5188 0.00312939 33.2658 0 33.001C0 32.449 0.445 32.001 1.003 32.001H4V28.001H1.003C0.738229 27.9987 0.484918 27.8927 0.297409 27.7057C0.1099 27.5188 0.00312939 27.2658 0 27.001C0 26.449 0.445 26.001 1.003 26.001H4V22.001H1.003C0.738229 21.9987 0.484918 21.8927 0.297409 21.7057C0.1099 21.5188 0.00312939 21.2658 0 21.001C0 20.449 0.445 20.001 1.003 20.001H4V16.001H1.003C0.738229 15.9987 0.484918 15.8927 0.297409 15.7057C0.1099 15.5188 0.00312939 15.2658 0 15.001C0 14.449 0.445 14.001 1.003 14.001H4V7.001C4 5.345 5.353 4.001 7 4.001H14V1.004C14 0.45 14.464 0.001 15 0.001C15.552 0.001 16 0.446 16 1.004V4.001H20V1.004V1.003ZM6 7.001V40.999C6 41.542 6.448 42 7 42H41C41.542 42 42 41.552 42 41V7.001C42 6.459 41.552 6.001 41 6.001H7C6.458 6.001 6 6.449 6 7.001Z" transform="translate(5 4.99902)" fill="#333333"/>
</svg>
