<svg width="58" height="58" viewBox="0 0 58 58" fill="none" xmlns="http://www.w3.org/2000/svg">
<path d="M29.3314 30.734L9.41743 50.648C8.30643 51.759 6.48743 51.961 5.31643 50.79L0.790433 46.264C-0.381567 45.093 -0.179568 43.274 0.931432 42.163L20.8464 22.249C18.3784 16.424 19.5184 9.434 24.2664 4.686C30.5144 -1.562 40.6454 -1.562 46.8934 4.686C53.1424 10.935 53.1424 21.066 46.8934 27.314C42.1454 32.062 35.1564 33.202 29.3314 30.734V30.734ZM21.7944 24.129L2.34643 43.577C1.95643 43.967 1.89243 44.537 2.20443 44.85L6.73043 49.375C7.04243 49.688 7.61243 49.625 8.00343 49.234L27.4504 29.786C26.289 29.0993 25.2188 28.2688 24.2654 27.314C23.3107 26.3606 22.4801 25.2905 21.7934 24.129H21.7944ZM25.6804 25.899C31.1484 31.367 40.0124 31.367 45.4804 25.899C50.9474 20.432 50.9474 11.568 45.4804 6.101C40.0124 0.633 31.1484 0.633 25.6804 6.101C20.2134 11.568 20.2134 20.432 25.6804 25.899ZM39.5154 9.331C38.6638 9.08695 37.7553 9.13252 36.9324 9.46056C36.1094 9.78859 35.4187 10.3805 34.9685 11.1435C34.5183 11.9065 34.3341 12.7973 34.4449 13.6763C34.5556 14.5552 34.955 15.3725 35.5804 16C35.9519 16.3715 36.3928 16.6661 36.8782 16.8671C37.3635 17.0682 37.8836 17.1716 38.4089 17.1716C38.9342 17.1716 39.4544 17.0682 39.9397 16.8671C40.425 16.6661 40.866 16.3715 41.2374 16C41.2614 15.975 41.2874 15.952 41.3144 15.93C41.7444 15.478 42.0744 14.92 42.2574 14.278C42.3306 14.023 42.5021 13.8075 42.7342 13.679C42.9663 13.5504 43.2399 13.5193 43.4949 13.5925C43.7499 13.6657 43.9654 13.8372 44.094 14.0693C44.2225 14.3014 44.2536 14.575 44.1804 14.83C43.8818 15.871 43.3071 16.8118 42.5171 17.5526C41.7271 18.2933 40.7513 18.8065 39.6933 19.0376C38.6352 19.2687 37.5344 19.2091 36.5075 18.8651C35.4805 18.5212 34.5659 17.9057 33.8604 17.084C32.8529 15.9066 32.34 14.3851 32.4291 12.838C32.5182 11.291 33.2024 9.8384 34.3384 8.78446C35.4744 7.73052 36.9741 7.15697 38.5235 7.18391C40.0729 7.21085 41.5518 7.8362 42.6504 8.929C42.8282 9.11833 42.9254 9.36939 42.9213 9.62908C42.9173 9.88876 42.8124 10.1367 42.6288 10.3204C42.4452 10.5041 42.1974 10.6092 41.9377 10.6134C41.678 10.6176 41.4269 10.5207 41.2374 10.343C40.7776 9.88194 40.2118 9.54064 39.5894 9.349C39.5645 9.34393 39.5399 9.33792 39.5154 9.331V9.331ZM19.3164 33.678C19.5039 33.8655 19.6092 34.1198 19.6092 34.385C19.6092 34.6502 19.5039 34.9045 19.3164 35.092L16.4884 37.92C16.3962 38.0155 16.2858 38.0917 16.1638 38.1441C16.0418 38.1965 15.9106 38.2241 15.7778 38.2253C15.6451 38.2264 15.5134 38.2011 15.3905 38.1508C15.2676 38.1005 15.1559 38.0263 15.062 37.9324C14.9681 37.8385 14.8939 37.7269 14.8436 37.604C14.7933 37.4811 14.768 37.3494 14.7692 37.2166C14.7703 37.0838 14.7979 36.9526 14.8503 36.8306C14.9027 36.7086 14.9789 36.5982 15.0744 36.506L17.9024 33.678C18.09 33.4905 18.3443 33.3852 18.6094 33.3852C18.8746 33.3852 19.1289 33.4905 19.3164 33.678V33.678ZM50.0864 44.38L43.0154 51.45C42.8297 51.6358 42.6092 51.7832 42.3665 51.8838C42.1238 51.9843 41.8636 52.0361 41.6009 52.0361C41.3382 52.0361 41.0781 51.9843 40.8354 51.8838C40.5927 51.7832 40.3722 51.6358 40.1864 51.45L34.5304 45.794C34.1555 45.4189 33.9449 44.9103 33.9449 44.38C33.9449 43.8497 34.1555 43.3411 34.5304 42.966L41.6004 35.895L46.8794 36.95C49.1854 33.095 49.2454 29.3 47.1264 25.486C46.8584 25.003 48.6064 24.032 48.8744 24.514C51.3204 28.916 51.2574 33.337 48.7504 37.699L50.0864 44.379V44.38ZM13.6594 39.335C13.8469 39.5225 13.9522 39.7768 13.9522 40.042C13.9522 40.3072 13.8469 40.5615 13.6594 40.749L8.00343 46.406C7.91052 46.4989 7.80022 46.5726 7.67883 46.6229C7.55744 46.6732 7.42733 46.6991 7.29593 46.6991C7.16454 46.6991 7.03443 46.6732 6.91304 46.6229C6.79164 46.5726 6.68134 46.4989 6.58843 46.406C6.49552 46.3131 6.42182 46.2028 6.37154 46.0814C6.32126 45.96 6.29538 45.8299 6.29538 45.6985C6.29538 45.5671 6.32126 45.437 6.37154 45.3156C6.42182 45.1942 6.49552 45.0839 6.58843 44.991L12.2454 39.335C12.433 39.1475 12.6873 39.0422 12.9524 39.0422C13.2176 39.0422 13.4719 39.1475 13.6594 39.335V39.335ZM35.9444 44.38L41.6014 50.037L47.9154 43.722L46.9724 39.008L42.2584 38.066L35.9444 44.38V44.38Z" transform="translate(2.99951 3)" fill="#333333"/>
</svg>
