<svg width="58" height="58" viewBox="0 0 58 58" fill="none" xmlns="http://www.w3.org/2000/svg">
<path d="M17.8589 13.9054C17.4843 13.5345 17.1869 13.093 16.9837 12.6066C16.7805 12.1202 16.6757 11.5983 16.6751 11.0712C16.6745 10.544 16.7783 10.022 16.9805 9.53508C17.1826 9.04822 17.4791 8.60617 17.8529 8.23442L24.9159 1.17142C25.2885 0.799483 25.7308 0.504597 26.2175 0.303603C26.7041 0.10261 27.2256 -0.000554403 27.7521 2.75998e-06C28.2786 0.000559923 28.7999 0.104826 29.2861 0.306849C29.7723 0.508872 30.214 0.804694 30.5859 1.17742L47.5379 18.1274C47.9126 18.4984 48.2101 18.9399 48.4134 19.4264C48.6166 19.9129 48.7216 20.4349 48.7221 20.9622C48.7227 21.4894 48.6188 22.0116 48.4166 22.4986C48.2144 22.9855 47.9178 23.4277 47.5439 23.7994L40.4809 30.8614C40.1083 31.2334 39.666 31.5284 39.1794 31.7295C38.6928 31.9305 38.1713 32.0338 37.6448 32.0333C37.1183 32.0329 36.597 31.9287 36.1108 31.7268C35.6245 31.5248 35.1828 31.2291 34.8109 30.8564L17.8579 13.9054H17.8589ZM26.3299 2.58542L19.2679 9.64842C18.4679 10.4484 18.4869 11.7044 19.2729 12.4904L36.2239 29.4424C36.4101 29.6296 36.6314 29.7782 36.8752 29.8797C37.1189 29.9813 37.3803 30.0338 37.6443 30.0343C37.9084 30.0347 38.1699 29.9831 38.414 29.8824C38.6581 29.7817 38.8799 29.6339 39.0669 29.4474L46.1289 22.3844C46.9289 21.5854 46.9099 20.3284 46.1239 19.5424L29.1729 2.59142C28.9867 2.4042 28.7654 2.25551 28.5217 2.15387C28.278 2.05223 28.0166 1.99963 27.7526 1.99907C27.4886 1.99852 27.227 2.05002 26.9829 2.15063C26.7387 2.25124 26.5168 2.39899 26.3299 2.58542V2.58542ZM30.5769 3.99542L31.9909 5.41042L22.0909 15.3104L20.6779 13.8954L30.5779 3.99542H30.5769ZM43.3049 16.7234L44.7189 18.1384L34.8189 28.0374L33.4059 26.6234L43.3059 16.7234H43.3049ZM29.6779 50.0374H51.6779C51.9431 50.0374 52.1974 50.1428 52.385 50.3303C52.5725 50.5179 52.6779 50.7722 52.6779 51.0374C52.6779 51.3026 52.5725 51.557 52.385 51.7445C52.1974 51.9321 51.9431 52.0374 51.6779 52.0374H29.6779C29.4126 52.0374 29.1583 51.9321 28.9708 51.7445C28.7832 51.557 28.6779 51.3026 28.6779 51.0374C28.6779 50.7722 28.7832 50.5179 28.9708 50.3303C29.1583 50.1428 29.4126 50.0374 29.6779 50.0374ZM32.6779 40.0374H48.6779C49.7387 40.0374 50.7561 40.4588 51.5063 41.209C52.2564 41.9591 52.6779 42.9766 52.6779 44.0374C52.6779 45.0983 52.2564 46.1157 51.5063 46.8658C50.7561 47.616 49.7387 48.0374 48.6779 48.0374H32.6779C31.617 48.0374 30.5996 47.616 29.8494 46.8658C29.0993 46.1157 28.6779 45.0983 28.6779 44.0374C28.6779 42.9766 29.0993 41.9591 29.8494 41.209C30.5996 40.4588 31.617 40.0374 32.6779 40.0374V40.0374ZM32.6779 42.0374C32.1474 42.0374 31.6387 42.2481 31.2636 42.6232C30.8886 42.9983 30.6779 43.507 30.6779 44.0374C30.6779 44.5679 30.8886 45.0766 31.2636 45.4516C31.6387 45.8267 32.1474 46.0374 32.6779 46.0374H48.6779C49.2083 46.0374 49.717 45.8267 50.0921 45.4516C50.4671 45.0766 50.6779 44.5679 50.6779 44.0374C50.6779 43.507 50.4671 42.9983 50.0921 42.6232C49.717 42.2481 49.2083 42.0374 48.6779 42.0374H32.6779ZM24.2129 17.4304L31.2839 24.5014L7.94986 47.8364C7.67128 48.115 7.34054 48.3361 6.97653 48.4869C6.61252 48.6377 6.22237 48.7153 5.82836 48.7153C5.43435 48.7153 5.0442 48.6377 4.68019 48.4869C4.31618 48.3361 3.98544 48.115 3.70686 47.8364L0.878859 45.0084C0.600229 44.7298 0.379205 44.3991 0.228409 44.0351C0.0776134 43.6711 4.71896e-07 43.2809 4.71896e-07 42.8869C4.71896e-07 42.4929 0.0776134 42.1028 0.228409 41.7388C0.379205 41.3747 0.600229 41.044 0.878859 40.7654L24.2129 17.4294V17.4304ZM24.2129 20.2594L2.29286 42.1794C2.10539 42.3669 2.00007 42.6213 2.00007 42.8864C2.00007 43.1516 2.10539 43.4059 2.29286 43.5934L5.12086 46.4224C5.21373 46.5154 5.32402 46.5892 5.44542 46.6395C5.56682 46.6898 5.69694 46.7157 5.82836 46.7157C5.95978 46.7157 6.0899 46.6898 6.2113 46.6395C6.3327 46.5892 6.44299 46.5154 6.53586 46.4224L28.4559 24.5024L24.2129 20.2594V20.2594ZM23.5059 25.2094C23.6933 25.3969 23.7986 25.6513 23.7986 25.9164C23.7986 26.1816 23.6933 26.4359 23.5059 26.6234L7.94986 42.1794C7.85761 42.2749 7.74727 42.3511 7.62526 42.4035C7.50326 42.4559 7.37204 42.4835 7.23926 42.4847C7.10648 42.4858 6.9748 42.4605 6.8519 42.4102C6.72901 42.36 6.61736 42.2857 6.52346 42.1918C6.42957 42.0979 6.35532 41.9863 6.30504 41.8634C6.25476 41.7405 6.22945 41.6088 6.23061 41.476C6.23176 41.3432 6.25935 41.212 6.31176 41.09C6.36417 40.968 6.44035 40.8577 6.53586 40.7654L22.0919 25.2094C22.2794 25.0219 22.5337 24.9166 22.7989 24.9166C23.064 24.9166 23.3183 25.0219 23.5059 25.2094V25.2094Z" transform="translate(3.00024 3.00049)" fill="#333333"/>
</svg>
