<svg width="58" height="58" viewBox="0 0 58 58" fill="none" xmlns="http://www.w3.org/2000/svg">
<path d="M33.615 19.806L28.126 25.293C27.5634 25.8554 26.8005 26.1714 26.005 26.1714C25.2095 26.1714 24.4466 25.8554 23.884 25.293L18.401 19.809L2 33.477V37.05C2 37.3152 2.10536 37.5696 2.29289 37.7571C2.48043 37.9446 2.73478 38.05 3 38.05L49.011 38.002C49.276 38.0017 49.5301 37.8963 49.7175 37.7088C49.9048 37.5212 50.01 37.267 50.01 37.002V33.468L33.615 19.806ZM50.01 30.865V9C50.01 8.73478 50.1154 8.48043 50.3029 8.29289C50.4904 8.10536 50.7448 8 51.01 8C51.2752 8 51.5296 8.10536 51.7171 8.29289C51.9046 8.48043 52.01 8.73478 52.01 9V37.002C52.01 37.7971 51.6943 38.5597 51.1324 39.1223C50.5704 39.6848 49.8081 40.0012 49.013 40.002L3.003 40.05C2.60878 40.0504 2.21835 39.9731 1.85403 39.8225C1.48971 39.6719 1.15863 39.451 0.87974 39.1724C0.600846 38.8938 0.379601 38.5629 0.228649 38.1987C0.0776972 37.8346 -4.25991e-07 37.4442 -2.28881e-07 37.05V3C-2.28881e-07 2.20435 0.31607 1.44129 0.878679 0.878679C1.44129 0.31607 2.20435 8.21172e-08 3 8.21172e-08H48.595C48.9906 -0.000113251 49.3773 0.117088 49.7063 0.336781C50.0353 0.556473 50.2917 0.868788 50.4432 1.23423C50.5946 1.59967 50.6343 2.00182 50.5572 2.38982C50.4801 2.77782 50.2897 3.13424 50.01 3.414L35.035 18.386L50.01 30.865ZM2 30.873L16.982 18.39L5.302 6.708C5.20916 6.61509 5.13552 6.5048 5.0853 6.38343C5.03508 6.26207 5.00925 6.132 5.0093 6.00065C5.00934 5.8693 5.03526 5.73924 5.08557 5.61791C5.13588 5.49658 5.20959 5.38635 5.3025 5.2935C5.39541 5.20066 5.5057 5.12702 5.62707 5.0768C5.74843 5.02658 5.8785 5.00075 6.00985 5.0008C6.1412 5.00084 6.27126 5.02676 6.39259 5.07707C6.51392 5.12738 6.62416 5.20109 6.717 5.294L25.298 23.88C25.4855 24.0675 25.7398 24.1728 26.005 24.1728C26.2702 24.1728 26.5245 24.0675 26.712 23.88L48.595 2H3C2.73478 2 2.48043 2.10536 2.29289 2.29289C2.10536 2.48043 2 2.73478 2 3V30.873V30.873ZM17.01 32H35.01C35.2752 32 35.5296 32.1054 35.7171 32.2929C35.9046 32.4804 36.01 32.7348 36.01 33C36.01 33.2652 35.9046 33.5196 35.7171 33.7071C35.5296 33.8946 35.2752 34 35.01 34H17.01C16.7448 34 16.4904 33.8946 16.3029 33.7071C16.1154 33.5196 16.01 33.2652 16.01 33C16.01 32.7348 16.1154 32.4804 16.3029 32.2929C16.4904 32.1054 16.7448 32 17.01 32Z" transform="translate(2.98999 9)" fill="#333333"/>
</svg>
