<svg width="58" height="58" viewBox="0 0 58 58" fill="none" xmlns="http://www.w3.org/2000/svg">
<path d="M22.98 31.607L19.134 27.281L13.208 33.206L17.775 36.811L22.979 31.607H22.98ZM24.31 33.104L19.355 38.059L23.065 40.988C23.552 41.372 24.411 41.356 24.905 40.944L27.815 38.519C27.913 38.438 27.9936 38.3379 28.052 38.225C28.1104 38.112 28.1454 37.9884 28.1548 37.8615C28.1643 37.7347 28.148 37.6073 28.1069 37.4869C28.0659 37.3665 28.0009 37.2557 27.916 37.161L24.31 33.104V33.104ZM17.803 25.784L14.589 22.168C14.22 21.753 13.578 21.713 13.179 22.068L8.661 26.084C7.468 27.144 7.509 28.707 8.757 29.692L11.627 31.958L17.803 25.783V25.784ZM34.66 37.925L30.025 33.29C29.8375 33.1024 29.7322 32.8479 29.7323 32.5826C29.7324 32.3174 29.8379 32.063 30.0255 31.8755C30.2131 31.688 30.4676 31.5827 30.7329 31.5828C30.9981 31.5829 31.2525 31.6884 31.44 31.876L36.074 36.51L40.302 32.283L35.71 27.691C35.5278 27.5024 35.427 27.2498 35.4293 26.9876C35.4316 26.7254 35.5368 26.4746 35.7222 26.2892C35.9076 26.1038 36.1584 25.9986 36.4206 25.9963C36.6828 25.994 36.9354 26.0948 37.124 26.277L41.716 30.869L44.873 27.712C44.9628 27.6234 45.0338 27.5175 45.0816 27.4007C45.1293 27.2839 45.153 27.1587 45.151 27.0325C45.149 26.9063 45.1215 26.7819 45.0701 26.6666C45.0188 26.5514 44.9445 26.4478 44.852 26.362L34.317 14.525C34.1231 14.3439 34.0092 14.0931 34.0002 13.8279C33.9912 13.5628 34.0879 13.3049 34.269 13.111C34.4501 12.9171 34.7009 12.8032 34.9661 12.7942C35.2312 12.7851 35.4891 12.8819 35.683 13.063L46.217 24.901C46.557 25.218 46.804 25.595 46.958 26H51C51.2652 26 51.5196 26.1054 51.7071 26.2929C51.8946 26.4804 52 26.7348 52 27C52 27.2652 51.8946 27.5196 51.7071 27.7071C51.5196 27.8946 51.2652 28 51 28H46.992C46.8462 28.4246 46.605 28.8101 46.287 29.127L33.127 42.287C31.99 43.424 30.082 43.562 28.9 42.666L27.504 41.868C27.3932 41.8052 27.2954 41.7217 27.216 41.622L26.186 42.481C24.968 43.495 23.058 43.531 21.826 42.557L7.518 31.262C6.412 30.389 5.836 29.204 5.795 28H1C0.734784 28 0.480429 27.8946 0.292892 27.7071C0.105356 27.5196 0 27.2652 0 27C0 26.7348 0.105356 26.4804 0.292892 26.2929C0.480429 26.1054 0.734784 26 1 26H6.238C6.493 25.49 6.858 25.01 7.333 24.589L11.849 20.574C13.077 19.483 14.983 19.601 16.084 20.839L29.411 35.832C29.6741 36.127 29.8751 36.472 30.002 36.8464C30.1289 37.2208 30.1791 37.6169 30.1496 38.0111C30.1201 38.4053 30.0115 38.7895 29.8303 39.1408C29.6492 39.4922 29.3991 39.8034 29.095 40.056L28.796 40.305L29.996 40.997C30.486 41.364 31.279 41.307 31.713 40.873L34.66 37.926V37.925ZM24.414 2L17.417 8.997C17.36 9.054 17.343 9.212 17.379 9.265L18.286 10.625C18.359 10.735 18.625 10.843 18.786 10.809L28.824 7.016C29.0815 6.97727 29.344 7.04053 29.5556 7.19232C29.7672 7.34411 29.9112 7.57246 29.9571 7.82881C30.003 8.08516 29.947 8.34929 29.8011 8.56502C29.6553 8.78075 29.431 8.93106 29.176 8.984L19.172 12.772C18.242 12.971 17.15 12.528 16.622 11.735L15.714 10.375C15.147 9.523 15.276 8.31 16.003 7.583L21.586 2H17.002C16.721 2 16.198 2.216 15.995 2.419L11.419 6.995C10.84 7.573 9.818 8 9.002 8H1C0.734784 8 0.480429 7.89464 0.292892 7.70711C0.105356 7.51957 0 7.26522 0 7C0 6.73478 0.105356 6.48043 0.292892 6.29289C0.480429 6.10536 0.734784 6 1 6H9.002C9.285 6 9.801 5.785 10.005 5.581L14.581 1.005C15.159 0.425999 16.191 0 17.002 0H36.998C37.815 0 38.841 0.426999 39.418 1.005L43.995 5.581C44.198 5.784 44.721 6 45.003 6H51C51.2652 6 51.5196 6.10536 51.7071 6.29289C51.8946 6.48043 52 6.73478 52 7C52 7.26522 51.8946 7.51957 51.7071 7.70711C51.5196 7.89464 51.2652 8 51 8H45.003C44.191 8 43.159 7.574 42.581 6.995L38.005 2.419C37.801 2.215 37.283 2 36.998 2H24.414Z" transform="translate(3 7)" fill="#333333"/>
</svg>
