<svg width="58" height="58" viewBox="0 0 58 58" fill="none" xmlns="http://www.w3.org/2000/svg">
<path d="M42.144 19H45.104C45.8964 19 46.6566 19.3134 47.2186 19.872C47.7807 20.4305 48.099 21.1886 48.104 21.981L48.204 38.023C48.2027 38.417 48.1238 38.8068 47.9718 39.1703C47.8198 39.5338 47.5978 39.8637 47.3183 40.1414C47.0388 40.419 46.7073 40.6389 46.3428 40.7885C45.9783 40.938 45.588 41.0143 45.194 41.013L41.212 41C41.0807 40.9995 40.9507 40.9732 40.8296 40.9225C40.7084 40.8719 40.5985 40.7978 40.5059 40.7046C40.4134 40.6114 40.3401 40.501 40.2903 40.3795C40.2404 40.258 40.215 40.1278 40.2155 39.9965C40.216 39.8652 40.2423 39.7352 40.293 39.6141C40.3436 39.4929 40.4177 39.383 40.5109 39.2904C40.6041 39.1979 40.7146 39.1246 40.8361 39.0748C40.9576 39.0249 41.0877 38.9995 41.219 39L45.199 39.013C45.464 39.0138 45.7186 38.9093 45.9066 38.7226C46.0947 38.5358 46.2009 38.282 46.202 38.017L46.104 21.994C46.1024 21.7298 45.9964 21.477 45.809 21.2908C45.6216 21.1045 45.3682 21 45.104 21H42.137L42.113 27.012C42.1098 27.8056 41.7924 28.5656 41.2301 29.1256C40.6678 29.6856 39.9066 30 39.113 30H22.38L13.686 38.694C13.4974 38.8762 13.2448 38.977 12.9826 38.9747C12.7204 38.9724 12.4696 38.8672 12.2842 38.6818C12.0988 38.4964 11.9936 38.2456 11.9913 37.9834C11.989 37.7212 12.0898 37.4686 12.272 37.28L21.552 28H39.112C39.3765 28 39.6303 27.8952 39.8177 27.7085C40.0051 27.5219 40.1109 27.2685 40.112 27.004L40.208 3.004C40.2085 2.87234 40.183 2.74188 40.133 2.62009C40.083 2.4983 40.0094 2.38759 39.9165 2.29431C39.8236 2.20102 39.7132 2.12701 39.5916 2.0765C39.47 2.026 39.3397 2 39.208 2H3.096C2.83148 2 2.57773 2.10481 2.3903 2.29148C2.20288 2.47815 2.09706 2.73148 2.096 2.996L2 27.012C2 27.57 2.45 28.017 3.001 28.016L12.977 28C13.2422 27.9996 13.4967 28.1046 13.6845 28.2918C13.8724 28.4791 13.9781 28.7333 13.9785 28.9985C13.9789 29.2637 13.8739 29.5182 13.6867 29.706C13.4994 29.8939 13.2452 29.9996 12.98 30L3.005 30.016C2.61103 30.0167 2.2208 29.9397 1.85657 29.7896C1.49234 29.6394 1.16125 29.419 0.882213 29.1409C0.603173 28.8627 0.381645 28.5324 0.230274 28.1687C0.0789036 27.8049 0.000655971 27.415 -9.15527e-08 27.021L0.0960006 2.988C0.0991749 2.19443 0.416645 1.43445 0.97891 0.874434C1.54118 0.314417 2.30243 -6.34853e-06 3.096 0H39.208C40.0036 0 40.7667 0.31607 41.3293 0.878679C41.8919 1.44129 42.208 2.20435 42.208 3L42.144 19ZM11.104 10C10.8388 10 10.5844 9.89464 10.3969 9.70711C10.2094 9.51957 10.104 9.26522 10.104 9C10.104 8.73478 10.2094 8.48043 10.3969 8.29289C10.5844 8.10536 10.8388 8 11.104 8H31.104C31.3692 8 31.6236 8.10536 31.8111 8.29289C31.9986 8.48043 32.104 8.73478 32.104 9C32.104 9.26522 31.9986 9.51957 31.8111 9.70711C31.6236 9.89464 31.3692 10 31.104 10H11.104ZM11.104 16C10.8388 16 10.5844 15.8946 10.3969 15.7071C10.2094 15.5196 10.104 15.2652 10.104 15C10.104 14.7348 10.2094 14.4804 10.3969 14.2929C10.5844 14.1054 10.8388 14 11.104 14H31.104C31.3692 14 31.6236 14.1054 31.8111 14.2929C31.9986 14.4804 32.104 14.7348 32.104 15C32.104 15.2652 31.9986 15.5196 31.8111 15.7071C31.6236 15.8946 31.3692 16 31.104 16H11.104ZM11.104 22C10.8388 22 10.5844 21.8946 10.3969 21.7071C10.2094 21.5196 10.104 21.2652 10.104 21C10.104 20.7348 10.2094 20.4804 10.3969 20.2929C10.5844 20.1054 10.8388 20 11.104 20H31.104C31.3692 20 31.6236 20.1054 31.8111 20.2929C31.9986 20.4804 32.104 20.7348 32.104 21C32.104 21.2652 31.9986 21.5196 31.8111 21.7071C31.6236 21.8946 31.3692 22 31.104 22H11.104ZM37.389 46.699L31.821 41H25.104C24.3084 41 23.5453 40.6839 22.9827 40.1213C22.4201 39.5587 22.104 38.7956 22.104 38V35C22.104 34.7348 22.2094 34.4804 22.3969 34.2929C22.5844 34.1054 22.8388 34 23.104 34C23.3692 34 23.6236 34.1054 23.8111 34.2929C23.9986 34.4804 24.104 34.7348 24.104 35V38C24.104 38.2652 24.2094 38.5196 24.3969 38.7071C24.5844 38.8946 24.8388 39 25.104 39H32.664L38.819 45.301C38.9128 45.3945 38.9871 45.5056 39.0376 45.6281C39.0881 45.7505 39.1138 45.8817 39.1132 46.0142C39.1126 46.1466 39.0857 46.2776 39.034 46.3995C38.9823 46.5215 38.907 46.6319 38.8123 46.7245C38.7176 46.8171 38.6054 46.8899 38.4824 46.9388C38.3593 46.9877 38.2277 47.0116 38.0953 47.0093C37.9629 47.0069 37.8323 46.9783 37.711 46.925C37.5898 46.8717 37.4803 46.7949 37.389 46.699Z" transform="translate(4.896 5)" fill="#333333"/>
</svg>
