<svg width="58" height="58" viewBox="0 0 58 58" fill="none" xmlns="http://www.w3.org/2000/svg">
<path fill-rule="evenodd" clip-rule="evenodd" d="M26.6976 34H41.0106C42.6666 34 44.0036 35.362 44.0036 37C44.0036 38.653 42.6596 40 41.0106 40H38.0426L36.3596 48.417C36.2434 48.9847 36.0139 49.5232 35.6846 50H47.0026C47.2678 50 47.5221 50.1054 47.7097 50.2929C47.8972 50.4804 48.0026 50.7348 48.0026 51C48.0026 51.2652 47.8972 51.5196 47.7097 51.7071C47.5221 51.8946 47.2678 52 47.0026 52H5.00256C4.73734 52 4.48299 51.8946 4.29545 51.7071C4.10791 51.5196 4.00256 51.2652 4.00256 51C4.00256 50.7348 4.10791 50.4804 4.29545 50.2929C4.48299 50.1054 4.73734 50 5.00256 50H16.3186C15.9903 49.5228 15.7614 48.9845 15.6456 48.417L13.9626 40H10.9956C9.33956 40 8.00256 38.638 8.00256 37C8.00256 35.347 9.34656 34 10.9956 34H24.6056C24.5256 33.725 24.4456 33.42 24.3636 33.088C23.3236 28.808 23.3226 23.882 25.0516 18.69C23.5172 17.8166 22.2416 16.5524 21.3544 15.026C20.4672 13.4996 20.0001 11.7655 20.0006 10C20.0006 4.477 24.4786 0 30.0006 0C35.5246 0 40.0006 4.477 40.0006 10C40.0006 15.523 35.5246 20 30.0006 20C28.9433 20.0011 27.8925 19.8343 26.8876 19.506C25.3476 24.242 25.3606 28.727 26.3066 32.616C26.4436 33.178 26.5786 33.643 26.6966 34H26.6976ZM26.0256 36H10.9956C10.4556 36 10.0026 36.448 10.0026 37C10.0026 37.536 10.4466 38 10.9956 38H41.0096C41.5496 38 42.0026 37.552 42.0026 37C42.0026 36.464 41.5576 36 41.0096 36H26.0256V36ZM16.0026 40L17.6076 48.024C17.8246 49.113 18.8956 50 19.9966 50H32.0086C33.0966 50 34.1786 49.115 34.3976 48.024L36.0026 40H16.0026V40ZM30.0026 18C32.1243 18 34.1591 17.1571 35.6594 15.6569C37.1597 14.1566 38.0026 12.1217 38.0026 10C38.0026 7.87827 37.1597 5.84344 35.6594 4.34315C34.1591 2.84285 32.1243 2 30.0026 2C27.8808 2 25.846 2.84285 24.3457 4.34315C22.8454 5.84344 22.0026 7.87827 22.0026 10C22.0026 12.1217 22.8454 14.1566 24.3457 15.6569C25.846 17.1571 27.8808 18 30.0026 18ZM30.0026 16C28.4113 16 26.8851 15.3679 25.7599 14.2426C24.6347 13.1174 24.0026 11.5913 24.0026 10C24.0026 8.4087 24.6347 6.88258 25.7599 5.75736C26.8851 4.63214 28.4113 4 30.0026 4C31.5939 4 33.12 4.63214 34.2452 5.75736C35.3704 6.88258 36.0026 8.4087 36.0026 10C36.0026 11.5913 35.3704 13.1174 34.2452 14.2426C33.12 15.3679 31.5939 16 30.0026 16ZM30.0026 14C31.0634 14 32.0808 13.5786 32.831 12.8284C33.5811 12.0783 34.0026 11.0609 34.0026 10C34.0026 8.93913 33.5811 7.92172 32.831 7.17157C32.0808 6.42143 31.0634 6 30.0026 6C28.9417 6 27.9243 6.42143 27.1741 7.17157C26.424 7.92172 26.0026 8.93913 26.0026 10C26.0026 11.0609 26.424 12.0783 27.1741 12.8284C27.9243 13.5786 28.9417 14 30.0026 14V14ZM8.72256 25.114C10.6396 25.547 12.7166 25.529 14.6726 25.234C15.1916 25.155 15.5666 25.078 15.7596 25.03C16.015 24.9708 16.2835 25.0143 16.5073 25.1511C16.731 25.288 16.892 25.5072 16.9556 25.7616C17.0192 26.016 16.9803 26.2853 16.8473 26.5113C16.7143 26.7373 16.4978 26.902 16.2446 26.97C15.9936 27.033 15.5566 27.123 14.9716 27.211C12.7896 27.541 10.4766 27.561 8.28156 27.065C2.74455 25.812 -0.450444 21.619 0.0515561 13.935L0.117556 12.943L1.10955 13.002C8.53455 13.44 14.0046 16.113 17.7726 20.301C19.1402 21.8161 20.2666 23.5325 21.1126 25.39C21.5896 26.443 21.8616 27.274 21.9766 27.775C22.0061 27.903 22.0102 28.0355 21.9885 28.1651C21.9668 28.2946 21.9198 28.4186 21.8502 28.53C21.7806 28.6414 21.6898 28.7379 21.5829 28.8142C21.4759 28.8905 21.355 28.945 21.2271 28.9745C21.0991 29.004 20.9665 29.0081 20.837 28.9864C20.7075 28.9647 20.5835 28.9178 20.4721 28.8482C20.3607 28.7786 20.2641 28.6877 20.1878 28.5808C20.1116 28.4739 20.0571 28.353 20.0276 28.225C19.9406 27.847 19.7106 27.141 19.2906 26.216C18.5293 24.5451 17.5158 23.001 16.2856 21.638C13.0366 18.028 8.37756 15.65 2.00356 15.074C1.87556 21.095 4.37356 24.13 8.72256 25.114V25.114ZM33.3226 25.37C32.252 26.2319 31.2713 27.1998 30.3956 28.259C29.9156 28.841 29.6006 29.287 29.4536 29.525C29.3126 29.7469 29.0898 29.9044 28.8336 29.9633C28.5773 30.0223 28.3082 29.9779 28.0844 29.8398C27.8607 29.7018 27.7003 29.4812 27.638 29.2257C27.5757 28.9703 27.6165 28.7006 27.7516 28.475C27.9436 28.162 28.3106 27.643 28.8516 26.986C29.8137 25.8225 30.8912 24.7594 32.0676 23.813C37.1636 19.706 43.5846 17.987 51.2596 20.033L52.2116 20.287L51.9716 21.243C49.8986 29.539 44.6776 31.279 34.6866 27.949C34.4349 27.8652 34.2268 27.6848 34.1081 27.4476C33.9894 27.2104 33.9697 26.9357 34.0536 26.684C34.1374 26.4323 34.3177 26.2242 34.555 26.1055C34.7922 25.9868 35.0669 25.9672 35.3186 26.051C43.8946 28.91 47.8956 27.851 49.7646 21.725C43.1866 20.245 37.7316 21.816 33.3236 25.37H33.3226Z" transform="translate(2.99951 3)" fill="#333333"/>
</svg>
