<svg width="58" height="58" viewBox="0 0 58 58" fill="none" xmlns="http://www.w3.org/2000/svg">
<path fill-rule="evenodd" clip-rule="evenodd" d="M44.1966 10.34C44.1688 10.3144 44.1424 10.2874 44.1176 10.259C43.2475 9.25675 42.2963 8.32795 41.2736 7.48195C40.2636 6.65195 39.1736 5.89395 38.0046 5.21995C36.7411 4.48969 35.414 3.87551 34.0396 3.38495C30.7283 2.21351 27.2011 1.77939 23.7046 2.11295C20.2085 2.45241 16.8288 3.55135 13.8016 5.33295C12.546 6.0768 11.3605 6.93297 10.2596 7.89095C9.25737 8.7614 8.32856 9.71295 7.48261 10.736C6.65261 11.746 5.8946 12.836 5.2206 14.004C4.49029 15.2678 3.87611 16.5952 3.38561 17.97C2.21416 21.2812 1.78005 24.8084 2.11361 28.305C2.45321 31.8007 3.55214 35.1801 5.33361 38.207C6.0774 39.4629 6.93357 40.6487 7.89161 41.75C8.7621 42.7518 9.71365 43.6803 10.7366 44.526C11.7466 45.356 12.8366 46.114 14.0046 46.789C14.0376 46.808 14.0696 46.8289 14.0996 46.8509C22.7116 51.7689 33.8416 50.992 41.7496 44.117C41.8488 44.0307 41.9639 43.9649 42.0885 43.9232C42.2131 43.8815 42.3447 43.8647 42.4758 43.8739C42.6068 43.883 42.7348 43.9179 42.8524 43.9765C42.97 44.0351 43.0749 44.1163 43.1611 44.2155C43.2473 44.3146 43.3132 44.4298 43.3549 44.5543C43.3966 44.6789 43.4133 44.8105 43.4042 44.9416C43.395 45.0727 43.3602 45.2007 43.3016 45.3182C43.243 45.4358 43.1618 45.5407 43.0626 45.6269C33.3286 54.0879 19.0896 54.023 9.46461 46.07C7.12765 44.1484 5.14653 41.8312 3.61161 39.2239C1.67354 35.9485 0.48221 32.2858 0.122605 28.497C-0.247567 24.7087 0.222958 20.8854 1.5006 17.3C2.50989 14.4481 4.0124 11.7958 5.9396 9.46395C7.86114 7.127 10.1784 5.14587 12.7856 3.61095C16.061 1.67289 19.7238 0.481557 23.5126 0.121951C27.2306 -0.239049 31.0526 0.195952 34.7086 1.49995C37.5608 2.50913 40.2135 4.01165 42.5456 5.93895C52.1896 13.869 54.9706 27.835 48.5216 39.004C48.3881 39.2318 48.1698 39.3975 47.9145 39.465C47.6592 39.5325 47.3876 39.4963 47.1589 39.3642C46.9302 39.2322 46.763 39.0151 46.6939 38.7602C46.6247 38.5054 46.6591 38.2335 46.7896 38.004C52.0296 28.929 50.6686 17.855 44.1966 10.34V10.34ZM26.0006 46C14.9546 46 6.00061 37.046 6.00061 26C6.00061 14.954 14.9546 5.99995 26.0006 5.99995C37.0466 5.99995 46.0006 14.954 46.0006 26C46.0006 37.046 37.0466 46 26.0006 46ZM26.0006 44C35.9416 44 44.0006 35.941 44.0006 26C44.0006 16.059 35.9416 7.99995 26.0006 7.99995C16.0596 7.99995 8.0006 16.059 8.0006 26C8.0006 35.941 16.0596 44 26.0006 44ZM19.0006 23H33.0006C33.7963 23 34.5593 23.316 35.1219 23.8786C35.6845 24.4412 36.0006 25.2043 36.0006 26C36.0006 26.7956 35.6845 27.5587 35.1219 28.1213C34.5593 28.6839 33.7963 29 33.0006 29H19.0006C18.205 29 17.4419 28.6839 16.8793 28.1213C16.3167 27.5587 16.0006 26.7956 16.0006 26C16.0006 25.2043 16.3167 24.4412 16.8793 23.8786C17.4419 23.316 18.205 23 19.0006 23ZM19.0006 25C18.7354 25 18.481 25.1053 18.2935 25.2928C18.106 25.4804 18.0006 25.7347 18.0006 26C18.0006 26.2652 18.106 26.5195 18.2935 26.7071C18.481 26.8946 18.7354 27 19.0006 27H33.0006C33.2658 27 33.5202 26.8946 33.7077 26.7071C33.8953 26.5195 34.0006 26.2652 34.0006 26C34.0006 25.7347 33.8953 25.4804 33.7077 25.2928C33.5202 25.1053 33.2658 25 33.0006 25H19.0006Z" transform="translate(2.99951 3)" fill="#333333"/>
</svg>
