<svg width="58" height="58" viewBox="0 0 58 58" fill="none" xmlns="http://www.w3.org/2000/svg">
<path d="M3 13C2.73478 13 2.48043 13.1054 2.29289 13.2929C2.10536 13.4804 2 13.7348 2 14V18C2 18.2652 2.10536 18.5196 2.29289 18.7071C2.48043 18.8946 2.73478 19 3 19H49C49.2652 19 49.5196 18.8946 49.7071 18.7071C49.8946 18.5196 50 18.2652 50 18V14C50 13.7348 49.8946 13.4804 49.7071 13.2929C49.5196 13.1054 49.2652 13 49 13H3ZM25 21H7V34H25V21ZM27 21V34H45V21H27ZM25 48V36H7V47C7 47.2652 7.10536 47.5196 7.29289 47.7071C7.48043 47.8946 7.73478 48 8 48H25ZM27 48H44C44.2652 48 44.5196 47.8946 44.7071 47.7071C44.8946 47.5196 45 47.2652 45 47V36H27V48ZM47 21V47C47 47.7956 46.6839 48.5587 46.1213 49.1213C45.5587 49.6839 44.7956 50 44 50H8C7.20435 50 6.44129 49.6839 5.87868 49.1213C5.31607 48.5587 5 47.7956 5 47V21H3C2.20435 21 1.44129 20.6839 0.878679 20.1213C0.31607 19.5587 0 18.7956 0 18V14C0 13.2044 0.31607 12.4413 0.878679 11.8787C1.44129 11.3161 2.20435 11 3 11H49C49.7956 11 50.5587 11.3161 51.1213 11.8787C51.6839 12.4413 52 13.2044 52 14V18C52 18.7956 51.6839 19.5587 51.1213 20.1213C50.5587 20.6839 49.7956 21 49 21H47ZM29.73 4.315C29.6314 4.40318 29.5164 4.47094 29.3914 4.51435C29.2665 4.55776 29.1342 4.57596 29.0022 4.5679C28.8702 4.55983 28.7411 4.52567 28.6224 4.46737C28.5037 4.40908 28.3977 4.32782 28.3107 4.2283C28.2236 4.12877 28.1571 4.01296 28.1151 3.88757C28.073 3.76218 28.0563 3.6297 28.0658 3.49779C28.0753 3.36588 28.1109 3.23717 28.1705 3.11911C28.2301 3.00105 28.3125 2.89599 28.413 2.81L30.776 0.742001C31.3228 0.2637 32.0245 4.97173e-05 32.751 0H41.5C42.6935 0 43.8381 0.474106 44.682 1.31802C45.5259 2.16193 46 3.30653 46 4.5C46 5.69347 45.5259 6.83807 44.682 7.68198C43.8381 8.52589 42.6935 9 41.5 9H34C33.7348 9 33.4804 8.89464 33.2929 8.70711C33.1054 8.51957 33 8.26522 33 8C33 7.73478 33.1054 7.48043 33.2929 7.29289C33.4804 7.10536 33.7348 7 34 7H41.5C42.163 7 42.7989 6.73661 43.2678 6.26777C43.7366 5.79893 44 5.16304 44 4.5C44 3.83696 43.7366 3.20107 43.2678 2.73223C42.7989 2.26339 42.163 2 41.5 2H32.751C32.509 2 32.2752 2.08776 32.093 2.247L29.73 4.315ZM19 7C19.2652 7 19.5196 7.10536 19.7071 7.29289C19.8946 7.48043 20 7.73478 20 8C20 8.26522 19.8946 8.51957 19.7071 8.70711C19.5196 8.89464 19.2652 9 19 9H11.5C10.3065 9 9.16193 8.52589 8.31802 7.68198C7.47411 6.83807 7 5.69347 7 4.5C7 3.30653 7.47411 2.16193 8.31802 1.31802C9.16193 0.474106 10.3065 0 11.5 0H18.249C18.9755 4.97173e-05 19.6772 0.2637 20.224 0.742001L27.659 7.247C27.8587 7.42178 27.9808 7.66873 27.9984 7.93353C28.0161 8.19833 27.9278 8.45929 27.753 8.659C27.5782 8.85871 27.3313 8.98081 27.0665 8.99843C26.8017 9.01606 26.5407 8.92778 26.341 8.753L18.907 2.247C18.7248 2.08776 18.491 2 18.249 2H11.5C10.837 2 10.2011 2.26339 9.73223 2.73223C9.26339 3.20107 9 3.83696 9 4.5C9 5.16304 9.26339 5.79893 9.73223 6.26777C10.2011 6.73661 10.837 7 11.5 7H19Z" transform="translate(3 5)" fill="#333333"/>
</svg>
