<svg width="58" height="58" viewBox="0 0 58 58" fill="none" xmlns="http://www.w3.org/2000/svg">
<path d="M45.5421 39.9351L41.7591 36.1521C41.6662 36.0591 41.5926 35.9489 41.5424 35.8275C41.4921 35.7061 41.4663 35.576 41.4664 35.4447C41.4664 35.3133 41.4923 35.1833 41.5426 35.062C41.5929 34.9406 41.6666 34.8304 41.7596 34.7376C41.8525 34.6447 41.9627 34.5711 42.0841 34.5209C42.2055 34.4706 42.3356 34.4448 42.4669 34.4449C42.5983 34.4449 42.7283 34.4708 42.8496 34.5211C42.971 34.5714 43.0812 34.6451 43.1741 34.7381L46.659 38.2231C48.8527 34.5237 50.007 30.3008 50.0001 26.0001C50.0001 21.5301 48.7781 17.3471 46.6501 13.7641L39.1711 21.2441C39.7081 22.7271 40.0001 24.3301 40.0001 26.0001C40.0001 31.3021 37.0521 35.9161 32.7061 38.2921L39.9481 45.5331C42.108 43.9875 43.9981 42.0961 45.5421 39.9351V39.9351ZM6.46705 12.0521L13.7071 19.2941C14.9974 16.9365 16.9363 14.998 19.2941 13.7081L12.0521 6.46705C9.89635 8.00943 8.00943 9.89635 6.46705 12.0521V12.0521ZM5.34905 13.7641C3.15036 17.4664 1.99322 21.6941 2.00005 26.0001C2.00005 30.4701 3.22205 34.6531 5.35005 38.2361L12.8291 30.7561C12.2789 29.2308 11.9984 27.6215 12.0001 26.0001C12.0001 24.3301 12.2921 22.7281 12.8291 21.2431L5.34905 13.7631V13.7641ZM13.7641 5.34905L21.2441 12.8291C22.7693 12.2789 24.3786 11.9984 26.0001 12.0001C27.6701 12.0001 29.2721 12.2921 30.7571 12.8291L38.2371 5.34905C34.5345 3.15019 30.3063 1.99304 26.0001 2.00005C21.5301 2.00005 17.3471 3.22205 13.7641 5.35005V5.34905ZM38.2361 46.6511L30.7561 39.1711C29.2308 39.7212 27.6215 40.0017 26.0001 40.0001C24.3301 40.0001 22.7281 39.7081 21.2431 39.1711L13.7631 46.6511C17.4656 48.8499 21.6938 50.0071 26.0001 50.0001C30.4701 50.0001 34.6531 48.7781 38.2361 46.6501V46.6511ZM6.46605 39.9481C8.00873 42.1038 9.89599 43.9908 12.0521 45.5331L19.2941 38.2931C16.9365 37.0027 14.998 35.0638 13.7081 32.7061L6.46705 39.9481H6.46605ZM45.5331 12.0521C43.9907 9.89635 42.1038 8.00943 39.9481 6.46705L32.7061 13.7071C35.0636 14.9974 37.0021 16.9363 38.2921 19.2941L45.5331 12.0521V12.0521ZM26.0001 5.23222e-05C40.3601 5.23222e-05 52.0001 11.6401 52.0001 26.0001C52.0001 40.3601 40.3601 52.0001 26.0001 52.0001C11.6401 52.0001 5.23222e-05 40.3601 5.23222e-05 26.0001C5.23222e-05 11.6401 11.6401 5.23222e-05 26.0001 5.23222e-05ZM26.0001 14.0001C19.3731 14.0001 14.0001 19.3731 14.0001 26.0001C14.0001 32.6271 19.3731 38.0001 26.0001 38.0001C32.6271 38.0001 38.0001 32.6271 38.0001 26.0001C38.0001 19.3731 32.6271 14.0001 26.0001 14.0001ZM50.2401 43.3501C50.4124 43.1485 50.6578 43.0237 50.9223 43.003C51.1867 42.9824 51.4485 43.0677 51.6501 43.2401C51.8516 43.4124 51.9764 43.6578 51.9971 43.9223C52.0177 44.1867 51.9324 44.4485 51.7601 44.6501L45.7601 51.6501C45.5877 51.8516 45.3423 51.9764 45.0778 51.9971C44.8134 52.0177 44.5516 51.9324 44.3501 51.7601C44.1485 51.5877 44.0237 51.3423 44.003 51.0778C43.9824 50.8134 44.0677 50.5516 44.2401 50.3501L50.2401 43.3501V43.3501ZM0.240052 44.6501C0.0676614 44.4485 -0.0175974 44.1867 0.0030316 43.9223C0.0236606 43.6578 0.148488 43.4124 0.350053 43.2401C0.551617 43.0677 0.813408 42.9824 1.07783 43.003C1.34226 43.0237 1.58766 43.1485 1.76005 43.3501L7.76005 50.3501C7.84541 50.4499 7.91028 50.5655 7.95095 50.6904C7.99161 50.8152 8.00729 50.9469 7.99707 51.0778C7.98686 51.2088 7.95096 51.3364 7.89141 51.4535C7.83187 51.5705 7.74986 51.6747 7.65005 51.7601C7.55025 51.8454 7.43461 51.9103 7.30974 51.9509C7.18486 51.9916 7.0532 52.0073 6.92227 51.9971C6.79134 51.9869 6.6637 51.951 6.54665 51.8914C6.42959 51.8319 6.32541 51.7499 6.24005 51.6501L0.240052 44.6501V44.6501ZM50.2401 8.65005L44.2401 1.65005C44.0677 1.44849 43.9824 1.1867 44.003 0.922271C44.0237 0.657844 44.1485 0.412443 44.3501 0.240052C44.5516 0.0676614 44.8134 -0.0175974 45.0778 0.0030316C45.3423 0.0236606 45.5877 0.148488 45.7601 0.350053L51.7601 7.35005C51.8454 7.44986 51.9103 7.5655 51.9509 7.69037C51.9916 7.81524 52.0073 7.9469 51.9971 8.07783C51.9869 8.20876 51.951 8.3364 51.8914 8.45346C51.8319 8.57051 51.7499 8.67469 51.6501 8.76005C51.5503 8.84541 51.4346 8.91028 51.3097 8.95095C51.1849 8.99161 51.0532 9.00729 50.9223 8.99707C50.7913 8.98686 50.6637 8.95096 50.5466 8.89141C50.4296 8.83187 50.3254 8.74986 50.2401 8.65005V8.65005ZM0.240052 7.35005L6.24005 0.350053C6.32541 0.250248 6.42959 0.168233 6.54665 0.108691C6.6637 0.0491492 6.79134 0.013246 6.92227 0.0030316C7.0532 -0.00718284 7.18486 0.00849086 7.30974 0.0491589C7.43461 0.089827 7.55025 0.154693 7.65005 0.240052C7.74986 0.325411 7.83187 0.429594 7.89141 0.546649C7.95096 0.663704 7.98686 0.79134 7.99707 0.922271C8.00729 1.0532 7.99161 1.18486 7.95095 1.30974C7.91028 1.43461 7.84541 1.55025 7.76005 1.65005L1.76005 8.65005C1.58766 8.85162 1.34226 8.97644 1.07783 8.99707C0.813408 9.0177 0.551617 8.93244 0.350053 8.76005C0.148488 8.58766 0.0236606 8.34226 0.0030316 8.07783C-0.0175974 7.81341 0.0676614 7.55162 0.240052 7.35005V7.35005Z" transform="translate(3 3)" fill="#333333"/>
</svg>
