<svg width="58" height="58" viewBox="0 0 58 58" fill="none" xmlns="http://www.w3.org/2000/svg">
<path fill-rule="evenodd" clip-rule="evenodd" d="M2.00002 47.995C2.00002 49.121 2.89802 50 4.00502 50H27.995C28.526 49.9977 29.0347 49.7857 29.4102 49.4102C29.7856 49.0347 29.9976 48.5261 30 47.995V4.00502C30.0016 3.74127 29.9508 3.47984 29.8506 3.23586C29.7504 2.99188 29.6028 2.77022 29.4163 2.58372C29.2298 2.39722 29.0082 2.24959 28.7642 2.1494C28.5202 2.0492 28.2588 1.99843 27.995 2.00002H4.00502C3.47399 2.00239 2.96538 2.21439 2.58988 2.58988C2.21439 2.96538 2.00239 3.47399 2.00002 4.00502V40H30V42H2.00002V47.995ZM1.80876e-05 4.00502C0.00239539 2.94356 0.425113 1.92625 1.17568 1.17568C1.92625 0.425113 2.94356 0.00239539 4.00502 1.80876e-05H27.995C28.5214 -0.00156624 29.0429 0.100945 29.5295 0.301654C30.0162 0.502363 30.4583 0.797308 30.8305 1.16952C31.2027 1.54174 31.4977 1.98387 31.6984 2.4705C31.8991 2.95712 32.0016 3.47863 32 4.00502V47.995C31.9976 49.0565 31.5749 50.0738 30.8244 50.8244C30.0738 51.5749 29.0565 51.9976 27.995 52H4.00502C3.47863 52.0016 2.95712 51.8991 2.4705 51.6984C1.98387 51.4977 1.54174 51.2027 1.16952 50.8305C0.797308 50.4583 0.502363 50.0162 0.301654 49.5295C0.100945 49.0429 -0.00156624 48.5214 1.80876e-05 47.995V4.00502ZM16 48C15.4696 48 14.9609 47.7893 14.5858 47.4142C14.2107 47.0392 14 46.5305 14 46C14 45.4696 14.2107 44.9609 14.5858 44.5858C14.9609 44.2107 15.4696 44 16 44C16.5305 44 17.0392 44.2107 17.4142 44.5858C17.7893 44.9609 18 45.4696 18 46C18 46.5305 17.7893 47.0392 17.4142 47.4142C17.0392 47.7893 16.5305 48 16 48ZM4.00002 9.00002C4.00002 8.44802 4.45802 8.00002 5.00002 8.00002H27C27.552 8.00002 28 8.46402 28 9.00002C28 9.55202 27.542 10 27 10H5.00002C4.44802 10 4.00002 9.53602 4.00002 9.00002Z" transform="translate(13 3)" fill="#333333"/>
</svg>
