<svg width="58" height="58" viewBox="0 0 58 58" fill="none" xmlns="http://www.w3.org/2000/svg">
<path fill-rule="evenodd" clip-rule="evenodd" d="M26.0123 46.0163C14.9663 46.0163 6.01229 37.0623 6.01229 26.0163C6.01229 14.9703 14.9663 6.01629 26.0123 6.01629C37.0583 6.01629 46.0123 14.9703 46.0123 26.0163C46.0123 37.0623 37.0583 46.0163 26.0123 46.0163ZM25.9983 44.0303C35.9383 44.0303 43.9983 35.9713 43.9983 26.0303C43.9983 16.0903 35.9383 8.03029 25.9983 8.03029C16.0573 8.03029 7.99829 16.0903 7.99829 26.0303C7.99829 35.9713 16.0573 44.0303 25.9983 44.0303ZM25.0513 27.4353C25.0513 29.0433 24.6423 30.3153 23.8253 31.2533C23.0083 32.1903 21.9093 32.6593 20.5293 32.6593C19.1553 32.6593 18.0573 32.1903 17.2333 31.2533C16.4103 30.3153 15.9983 29.0433 15.9983 27.4353V23.2553C15.9983 21.6603 16.4063 20.3903 17.2233 19.4463C18.0403 18.5023 19.1363 18.0303 20.5103 18.0303C21.8903 18.0303 22.9923 18.5023 23.8153 19.4463C24.6393 20.3903 25.0513 21.6603 25.0513 23.2553V27.4353ZM23.1273 22.8553C23.1273 21.8323 22.8993 21.0253 22.4433 20.4333C21.9873 19.8403 21.3433 19.5433 20.5103 19.5433C19.6833 19.5433 19.0453 19.8403 18.5953 20.4333C18.1463 21.0253 17.9223 21.8333 17.9223 22.8543V27.8253C17.9223 28.8473 18.1523 29.6583 18.6103 30.2573C19.0703 30.8563 19.7093 31.1553 20.5293 31.1553C21.3623 31.1553 22.0043 30.8573 22.4533 30.2623C22.9033 29.6663 23.1273 28.8543 23.1273 27.8253V22.8553V22.8553ZM36.3103 27.4353C36.3103 29.0433 35.9023 30.3153 35.0853 31.2533C34.2683 32.1903 33.1693 32.6593 31.7893 32.6593C30.4153 32.6593 29.3163 32.1903 28.4933 31.2533C27.6693 30.3153 27.2583 29.0433 27.2583 27.4353V23.2553C27.2583 21.6603 27.6663 20.3903 28.4833 19.4463C29.3003 18.5023 30.3963 18.0303 31.7693 18.0303C33.1493 18.0303 34.2513 18.5023 35.0753 19.4463C35.8993 20.3903 36.3103 21.6603 36.3103 23.2553V27.4353ZM34.3863 22.8553C34.3863 21.8323 34.1593 21.0253 33.7033 20.4333C33.2473 19.8403 32.6033 19.5433 31.7693 19.5433C30.9423 19.5433 30.3043 19.8403 29.8553 20.4333C29.4063 21.0253 29.1813 21.8333 29.1813 22.8543V27.8253C29.1813 28.8473 29.4113 29.6583 29.8703 30.2573C30.3293 30.8563 30.9683 31.1553 31.7893 31.1553C32.6223 31.1553 33.2633 30.8573 33.7133 30.2623C34.1623 29.6663 34.3863 28.8543 34.3863 27.8253V22.8553V22.8553ZM1.71929 8.72229C1.62704 8.8178 1.5167 8.89398 1.39469 8.94639C1.27269 8.9988 1.14147 9.02638 1.00869 9.02754C0.87591 9.02869 0.744231 9.00339 0.621335 8.95311C0.498439 8.90283 0.386786 8.82858 0.292894 8.73468C0.199001 8.64079 0.124747 8.52914 0.0744659 8.40624C0.024185 8.28335 -0.00111651 8.15167 3.73086e-05 8.01889C0.00119113 7.88611 0.0287784 7.75489 0.0811874 7.63288C0.133596 7.51088 0.209777 7.40053 0.305287 7.30829L7.30529 0.308288C7.39753 0.212778 7.50788 0.136595 7.62988 0.084186C7.75189 0.031777 7.88311 0.00419167 8.01589 0.00303786C8.14867 0.00188404 8.28034 0.0271855 8.40324 0.0774664C8.52614 0.127747 8.63779 0.202001 8.73168 0.295894C8.82558 0.389787 8.89983 0.501437 8.95011 0.624334C9.00039 0.74723 9.02569 0.87891 9.02454 1.01169C9.02339 1.14447 8.9958 1.27569 8.94339 1.39769C8.89098 1.5197 8.8148 1.63004 8.71929 1.72229L1.71929 8.72229ZM51.5553 7.30529C51.6508 7.39753 51.727 7.50788 51.7794 7.62988C51.8318 7.75189 51.8594 7.88311 51.8605 8.01589C51.8617 8.14867 51.8364 8.28034 51.7861 8.40324C51.7358 8.52614 51.6616 8.63779 51.5677 8.73168C51.4738 8.82558 51.3621 8.89983 51.2392 8.95011C51.1163 9.00039 50.9847 9.02569 50.8519 9.02454C50.7191 9.02339 50.5879 8.9958 50.4659 8.94339C50.3439 8.89098 50.2335 8.8148 50.1413 8.71929L43.1413 1.71929C43.0458 1.62704 42.9696 1.5167 42.9172 1.39469C42.8648 1.27269 42.8372 1.14147 42.836 1.00869C42.8349 0.87591 42.8602 0.74423 42.9105 0.621334C42.9607 0.498437 43.035 0.386787 43.1289 0.292894C43.2228 0.199001 43.3344 0.124747 43.4573 0.0744662C43.5802 0.0241853 43.7119 -0.00111622 43.8447 3.75986e-05C43.9775 0.00119141 44.1087 0.0287786 44.2307 0.0811877C44.3527 0.133597 44.463 0.209778 44.5553 0.305288L51.5553 7.30529ZM44.2083 10.3553C44.1805 10.3298 44.1541 10.3027 44.1293 10.2743C43.2592 9.27209 42.3079 8.34328 41.2853 7.49729C40.2753 6.66729 39.1853 5.90929 38.0163 5.23529C36.7528 4.50503 35.4257 3.89084 34.0513 3.40029C30.74 2.22885 27.2128 1.79473 23.7163 2.12829C20.2202 2.46775 16.8404 3.56669 13.8133 5.34829C12.5577 6.09213 11.3722 6.94831 10.2713 7.90629C9.26905 8.77674 8.34024 9.72829 7.49429 10.7513C6.66429 11.7613 5.90629 12.8513 5.23229 14.0193C4.50197 15.2831 3.88779 16.6105 3.39729 17.9853C2.22585 21.2966 1.79173 24.8238 2.12529 28.3203C2.46489 31.816 3.56382 35.1954 5.34529 38.2223C6.08908 39.4782 6.94526 40.6641 7.90329 41.7653C8.77378 42.7672 9.72533 43.6957 10.7483 44.5413C11.7583 45.3713 12.8483 46.1293 14.0163 46.8043C14.0493 46.8233 14.0813 46.8443 14.1113 46.8663C22.7233 51.7843 33.8533 51.0073 41.7613 44.1323C41.8604 44.0461 41.9756 43.9802 42.1002 43.9385C42.2248 43.8968 42.3564 43.8801 42.4874 43.8892C42.6185 43.8984 42.7465 43.9332 42.8641 43.9918C42.9817 44.0504 43.0866 44.1316 43.1728 44.2308C43.259 44.3299 43.3248 44.4451 43.3665 44.5697C43.4083 44.6943 43.425 44.8259 43.4159 44.9569C43.4067 45.088 43.3718 45.216 43.3132 45.3336C43.2546 45.4512 43.1734 45.5561 43.0743 45.6423C33.3403 54.1033 19.1013 54.0383 9.47629 46.0853C7.13933 44.1638 5.15821 41.8465 3.62329 39.2393C1.68522 35.9639 0.493893 32.3011 0.134288 28.5123C-0.235735 24.7244 0.234788 20.9014 1.51229 17.3163C2.52158 14.4645 4.02408 11.8121 5.95129 9.48029C7.87282 7.14333 10.1901 5.16221 12.7973 3.62729C16.0727 1.68922 19.7355 0.497893 23.5243 0.138288C27.2423 -0.222712 31.0643 0.212288 34.7203 1.51629C37.5725 2.52547 40.2251 4.02798 42.5573 5.95529C52.2013 13.8853 54.9823 27.8513 48.5333 39.0203C48.3997 39.2481 48.1815 39.4138 47.9262 39.4813C47.6709 39.5488 47.3993 39.5126 47.1706 39.3806C46.9419 39.2485 46.7747 39.0314 46.7055 38.7766C46.6364 38.5217 46.6708 38.2498 46.8013 38.0203C52.0413 28.9453 50.6803 17.8713 44.2083 10.3563V10.3553Z" transform="translate(2.98779 2.98364)" fill="#333333"/>
</svg>
