<svg width="58" height="58" viewBox="0 0 58 58" fill="none" xmlns="http://www.w3.org/2000/svg">
<path fill-rule="evenodd" clip-rule="evenodd" d="M26 19C25.0805 18.9987 24.1699 19.1792 23.3204 19.531C22.4709 19.8828 21.6993 20.399 21.05 21.05C20.9578 21.1455 20.8474 21.2217 20.7254 21.2741C20.6034 21.3265 20.4722 21.3541 20.3394 21.3553C20.2066 21.3564 20.0749 21.3311 19.952 21.2808C19.8291 21.2305 19.7175 21.1563 19.6236 21.0624C19.5297 20.9685 19.4555 20.8569 19.4052 20.734C19.3549 20.6111 19.3296 20.4794 19.3307 20.3466C19.3319 20.2138 19.3595 20.0826 19.4119 19.9606C19.4643 19.8386 19.5405 19.7282 19.636 19.636C21.1083 18.1637 23.0456 17.2474 25.1178 17.0433C27.19 16.8392 29.2688 17.3599 31.0001 18.5167C32.7314 19.6735 34.008 21.3948 34.6124 23.3873C35.2169 25.3798 35.1117 27.5203 34.3149 29.444C33.5181 31.3677 32.079 32.9556 30.2426 33.9372C28.4063 34.9187 26.2864 35.2332 24.2443 34.827C22.2021 34.4208 20.3639 33.3191 19.043 31.7095C17.722 30.1 17 28.0822 17 26C17 25.7348 17.1054 25.4804 17.2929 25.2929C17.4804 25.1054 17.7348 25 18 25C18.2652 25 18.5196 25.1054 18.7071 25.2929C18.8946 25.4804 19 25.7348 19 26C19 27.3845 19.4105 28.7378 20.1797 29.889C20.9489 31.0401 22.0421 31.9373 23.3212 32.4672C24.6003 32.997 26.0078 33.1356 27.3656 32.8655C28.7235 32.5954 29.9708 31.9287 30.9497 30.9497C31.9287 29.9708 32.5954 28.7235 32.8655 27.3656C33.1356 26.0078 32.997 24.6003 32.4672 23.3212C31.9373 22.0421 31.0401 20.9489 29.889 20.1797C28.7378 19.4105 27.3845 19 26 19ZM20 3.003C20 1.353 21.316 0 22.981 0H29.019C30.675 0 32 1.35 32 3.003V8.665C32.725 8.863 33.436 9.103 34.13 9.384L38.019 5.496C39.185 4.33 41.073 4.303 42.25 5.48L46.52 9.75C47.69 10.921 47.673 12.812 46.504 13.981L43.282 17.203C43.8202 18.0956 44.2838 19.0311 44.668 20H48.998C50.646 20 52 21.316 52 22.981V29.019C52 30.675 50.65 32 48.997 32H45.335C45.0054 33.211 44.5558 34.3862 43.993 35.508L46.504 38.019C47.67 39.185 47.697 41.073 46.52 42.25L42.25 46.52C41.079 47.69 39.188 47.673 38.019 46.504L35.508 43.993C34.3862 44.5558 33.211 45.0054 32 45.335V48.997C32 50.647 30.684 52 29.019 52H22.981C21.325 52 20 50.65 20 48.997V44.668C19.0311 44.2838 18.0956 43.8202 17.203 43.282L13.981 46.504C12.815 47.67 10.927 47.697 9.75 46.52L5.48 42.25C4.31 41.079 4.327 39.188 5.496 38.019L9.384 34.131C9.10217 33.4356 8.86208 32.724 8.665 32H3.003C1.353 32 0 30.684 0 29.019V22.981C0 21.325 1.35 20 3.003 20H9.332C9.535 19.488 9.76 18.985 10.007 18.492L5.496 13.981C4.33 12.815 4.303 10.927 5.48 9.75L9.75 5.48C10.921 4.31 12.812 4.327 13.981 5.496L18.492 10.007C18.985 9.76 19.488 9.535 20 9.332V3.002V3.003ZM18.143 12.486L12.567 6.91C12.476 6.81664 12.3675 6.74217 12.2476 6.69087C12.1278 6.63957 11.999 6.61244 11.8686 6.61104C11.7383 6.60965 11.6089 6.63402 11.488 6.68275C11.3671 6.73148 11.257 6.80361 11.164 6.895L6.894 11.165C6.80234 11.2577 6.72999 11.3678 6.68113 11.4887C6.63227 11.6096 6.60788 11.7389 6.60937 11.8693C6.61086 11.9997 6.63819 12.1285 6.6898 12.2483C6.7414 12.368 6.81625 12.4764 6.91 12.567L12.486 18.143C11.7472 19.3508 11.1629 20.6466 10.747 22H3.003C2.87266 21.9983 2.74325 22.0223 2.62222 22.0707C2.5012 22.1192 2.39092 22.191 2.29773 22.2822C2.20454 22.3733 2.13026 22.482 2.07917 22.6019C2.02808 22.7218 2.00117 22.8506 2 22.981V29.019C2 29.569 2.449 30 3.003 30H10.263C10.5454 31.5876 11.0539 33.1266 11.773 34.57L6.91 39.433C6.81664 39.524 6.74217 39.6325 6.69087 39.7524C6.63957 39.8722 6.61244 40.001 6.61104 40.1314C6.60965 40.2617 6.63402 40.3911 6.68275 40.512C6.73148 40.6329 6.80361 40.743 6.895 40.836L11.165 45.106C11.2577 45.1977 11.3678 45.27 11.4887 45.3189C11.6096 45.3677 11.7389 45.3921 11.8693 45.3906C11.9997 45.3891 12.1285 45.3618 12.2483 45.3102C12.368 45.2586 12.4764 45.1838 12.567 45.09L16.947 40.71C18.4769 41.8349 20.1851 42.6945 22 43.253V48.997C21.9983 49.1273 22.0223 49.2567 22.0707 49.3778C22.1192 49.4988 22.191 49.6091 22.2822 49.7023C22.3733 49.7955 22.482 49.8697 22.6019 49.9208C22.7218 49.9719 22.8506 49.9988 22.981 50H29.019C29.569 50 30 49.551 30 48.997V43.737C32.0739 43.3677 34.0603 42.6137 35.857 41.514L39.433 45.09C39.524 45.1834 39.6325 45.2578 39.7524 45.3091C39.8722 45.3604 40.001 45.3876 40.1314 45.389C40.2617 45.3903 40.3911 45.366 40.512 45.3173C40.6329 45.2685 40.743 45.1964 40.836 45.105L45.106 40.835C45.1977 40.7423 45.27 40.6322 45.3189 40.5113C45.3677 40.3904 45.3921 40.2611 45.3906 40.1307C45.3891 40.0003 45.3618 39.8715 45.3102 39.7517C45.2586 39.632 45.1838 39.5236 45.09 39.433L41.514 35.857C42.6133 34.0603 43.367 32.0738 43.736 30H48.997C49.1273 30.0017 49.2567 29.9777 49.3778 29.9293C49.4988 29.8808 49.6091 29.809 49.7023 29.7178C49.7955 29.6267 49.8697 29.518 49.9208 29.3981C49.9719 29.2782 49.9988 29.1494 50 29.019V22.981C49.9994 22.8505 49.9728 22.7214 49.9219 22.6012C49.871 22.4811 49.7967 22.3722 49.7034 22.281C49.6101 22.1897 49.4997 22.1179 49.3784 22.0697C49.2571 22.0214 49.1275 21.9977 48.997 22H43.253C42.6945 20.1851 41.8349 18.4769 40.71 16.947L45.09 12.567C45.1834 12.476 45.2578 12.3675 45.3091 12.2476C45.3604 12.1278 45.3876 11.999 45.389 11.8686C45.3903 11.7383 45.366 11.6089 45.3173 11.488C45.2685 11.3671 45.1964 11.257 45.105 11.164L40.835 6.894C40.7423 6.80234 40.6322 6.72999 40.5113 6.68113C40.3904 6.63227 40.2611 6.60788 40.1307 6.60937C40.0003 6.61086 39.8715 6.63819 39.7517 6.6898C39.632 6.7414 39.5236 6.81625 39.433 6.91L34.569 11.774C33.1259 11.055 31.5873 10.5465 30 10.264V3.003C30.0017 2.87266 29.9777 2.74325 29.9293 2.62222C29.8808 2.5012 29.809 2.39092 29.7178 2.29773C29.6267 2.20454 29.518 2.13026 29.3981 2.07917C29.2782 2.02808 29.1494 2.00117 29.019 2H22.981C22.8505 2.00064 22.7214 2.02719 22.6012 2.07809C22.4811 2.129 22.3722 2.20325 22.281 2.29655C22.1897 2.38985 22.1179 2.50034 22.0697 2.62161C22.0214 2.74288 21.9977 2.87251 22 3.003V10.747C20.6466 11.1633 19.3508 11.7478 18.143 12.487V12.486ZM26 28C25.4696 28 24.9609 27.7893 24.5858 27.4142C24.2107 27.0391 24 26.5304 24 26C24 25.4696 24.2107 24.9609 24.5858 24.5858C24.9609 24.2107 25.4696 24 26 24C26.5304 24 27.0391 24.2107 27.4142 24.5858C27.7893 24.9609 28 25.4696 28 26C28 26.5304 27.7893 27.0391 27.4142 27.4142C27.0391 27.7893 26.5304 28 26 28Z" transform="translate(3 3)" fill="#333333"/>
</svg>
