<svg width="58" height="58" viewBox="0 0 58 58" fill="none" xmlns="http://www.w3.org/2000/svg">
<path d="M49.684 19.9996H52V21.9996C52 27.5226 47.523 31.9996 42 31.9996C36.477 31.9996 32 27.5226 32 21.9996V19.9996H34.316L39.367 7.0106C39.2305 6.89139 39.1022 6.7631 38.983 6.6266L13.913 19.1616C13.97 19.4316 14 19.7116 14 19.9996C14 21.1996 13.47 22.2776 12.633 23.0106L17.684 35.9996H20V37.9996C20 43.5226 15.523 47.9996 10 47.9996C4.477 47.9996 0 43.5226 0 37.9996V35.9996H2.316L7.367 23.0106C6.95467 22.6497 6.62091 22.2078 6.38641 21.7126C6.15191 21.2173 6.02168 20.6791 6.00379 20.1314C5.9859 19.5837 6.08074 19.0382 6.28243 18.5287C6.48411 18.0191 6.78834 17.5565 7.17624 17.1694C7.56414 16.7824 8.02743 16.4791 8.53738 16.2785C9.04733 16.0779 9.59306 15.9842 10.1407 16.0033C10.6884 16.0223 11.2263 16.1537 11.7211 16.3893C12.2158 16.6248 12.6569 16.9595 13.017 17.3726L38.087 4.8376C37.9394 4.1484 37.9765 3.43243 38.1947 2.76219C38.4128 2.09195 38.8041 1.49125 39.3291 1.0209C39.854 0.550557 40.4939 0.22727 41.184 0.0837744C41.874 -0.0597209 42.5898 -0.0183286 43.2587 0.203762C43.9276 0.425852 44.526 0.820753 44.9932 1.34848C45.4604 1.87621 45.7799 2.51802 45.9193 3.20893C46.0587 3.89984 46.0131 4.61532 45.787 5.28292C45.5609 5.95052 45.1625 6.54653 44.632 7.0106L49.685 19.9996H49.684ZM47.538 19.9996L42.838 7.9116C42.2859 8.02933 41.7151 8.02933 41.163 7.9116L36.462 19.9996H47.538V19.9996ZM4.462 35.9996H15.538L10.838 23.9116C10.2859 24.0293 9.71513 24.0293 9.163 23.9116L4.462 35.9996ZM42 5.9996C42.5304 5.9996 43.0391 5.78889 43.4142 5.41382C43.7893 5.03874 44 4.53004 44 3.9996C44 3.46917 43.7893 2.96046 43.4142 2.58539C43.0391 2.21032 42.5304 1.9996 42 1.9996C41.4696 1.9996 40.9609 2.21032 40.5858 2.58539C40.2107 2.96046 40 3.46917 40 3.9996C40 4.53004 40.2107 5.03874 40.5858 5.41382C40.9609 5.78889 41.4696 5.9996 42 5.9996ZM10 21.9996C10.5304 21.9996 11.0391 21.7889 11.4142 21.4138C11.7893 21.0387 12 20.53 12 19.9996C12 19.4692 11.7893 18.9605 11.4142 18.5854C11.0391 18.2103 10.5304 17.9996 10 17.9996C9.46957 17.9996 8.96086 18.2103 8.58579 18.5854C8.21071 18.9605 8 19.4692 8 19.9996C8 20.53 8.21071 21.0387 8.58579 21.4138C8.96086 21.7889 9.46957 21.9996 10 21.9996V21.9996ZM10 45.9996C12.1217 45.9996 14.1566 45.1567 15.6569 43.6565C17.1571 42.1562 18 40.1213 18 37.9996H2C2 40.1213 2.84285 42.1562 4.34315 43.6565C5.84344 45.1567 7.87827 45.9996 10 45.9996ZM42 29.9996C44.1217 29.9996 46.1566 29.1567 47.6569 27.6565C49.1571 26.1562 50 24.1213 50 21.9996H34C34 24.1213 34.8429 26.1562 36.3431 27.6565C37.8434 29.1567 39.8783 29.9996 42 29.9996ZM26.447 6.8936C26.2111 7.00258 25.942 7.01544 25.6968 6.92947C25.4516 6.84349 25.2494 6.66543 25.1332 6.433C25.017 6.20057 24.9958 5.93202 25.0742 5.68425C25.1525 5.43648 25.3243 5.22895 25.553 5.1056L33.553 1.1056C33.7889 0.996627 34.058 0.983763 34.3032 1.06974C34.5484 1.15572 34.7506 1.33378 34.8668 1.56621C34.983 1.79864 35.0042 2.06718 34.9258 2.31495C34.8475 2.56272 34.6757 2.77026 34.447 2.8936L26.447 6.8936ZM18.447 22.8936C18.2111 23.0026 17.942 23.0154 17.6968 22.9295C17.4516 22.8435 17.2494 22.6654 17.1332 22.433C17.017 22.2006 16.9958 21.932 17.0742 21.6843C17.1525 21.4365 17.3243 21.2289 17.553 21.1056L25.553 17.1056C25.7889 16.9966 26.058 16.9838 26.3032 17.0697C26.5484 17.1557 26.7506 17.3338 26.8668 17.5662C26.983 17.7986 27.0042 18.0672 26.9258 18.315C26.8475 18.5627 26.6757 18.7703 26.447 18.8936L18.447 22.8936Z" transform="translate(3 5.00049)" fill="#333333"/>
</svg>
