<svg width="58" height="58" viewBox="0 0 58 58" fill="none" xmlns="http://www.w3.org/2000/svg">
<path d="M45.01 16H48.013C50.217 16 52 17.808 52 20.005V39.995C52 42.203 50.219 44 48.013 44H15.987C13.783 44 12 42.192 12 39.995V32.991C12 32.444 12.464 32 13 32C13.552 32 14 32.432 14 32.99V39.995C14 41.088 14.89 42 15.987 42H48.013C48.2751 41.9988 48.5344 41.946 48.7762 41.8446C49.0179 41.7432 49.2372 41.5952 49.4218 41.409C49.6063 41.2228 49.7523 41.0021 49.8515 40.7595C49.9507 40.5169 50.0012 40.2571 50 39.995V20.005C50 18.912 49.11 18 48.013 18H45.01C44.452 18 44 17.536 44 17C44 16.448 44.428 16 45.01 16ZM18 37C18 36.448 18.44 36 18.997 36H45.003C45.553 36 46 36.464 46 37C46 37.552 45.56 38 45.003 38H18.997C18.447 38 18 37.536 18 37ZM0 4.005C0 1.797 1.781 0 3.987 0H36.013C38.217 0 40 1.808 40 4.005V23.995C40 26.203 38.219 28 36.013 28H3.987C1.783 28 0 26.192 0 23.995V4.005ZM2 4.005V23.995C2 25.088 2.89 26 3.987 26H36.013C36.2751 25.9988 36.5344 25.946 36.7762 25.8446C37.0179 25.7432 37.2372 25.5952 37.4218 25.409C37.6063 25.2228 37.7523 25.0021 37.8515 24.7595C37.9507 24.5169 38.0012 24.2571 38 23.995V4.005C38 2.912 37.11 2 36.013 2H3.987C3.72488 2.00118 3.46556 2.05398 3.22385 2.15537C2.98213 2.25677 2.76276 2.40479 2.57825 2.59097C2.39373 2.77715 2.2477 2.99786 2.14849 3.24048C2.04927 3.4831 1.99882 3.74288 2 4.005V4.005ZM14 20C12.4087 20 10.8826 19.3679 9.75736 18.2426C8.63214 17.1174 8 15.5913 8 14C8 12.4087 8.63214 10.8826 9.75736 9.75736C10.8826 8.63214 12.4087 8 14 8C15.5913 8 17.1174 8.63214 18.2426 9.75736C19.3679 10.8826 20 12.4087 20 14C20 15.5913 19.3679 17.1174 18.2426 18.2426C17.1174 19.3679 15.5913 20 14 20ZM14 18C15.0609 18 16.0783 17.5786 16.8284 16.8284C17.5786 16.0783 18 15.0609 18 14C18 12.9391 17.5786 11.9217 16.8284 11.1716C16.0783 10.4214 15.0609 10 14 10C12.9391 10 11.9217 10.4214 11.1716 11.1716C10.4214 11.9217 10 12.9391 10 14C10 15.0609 10.4214 16.0783 11.1716 16.8284C11.9217 17.5786 12.9391 18 14 18ZM21.757 18.243C21.5694 18.0554 21.4639 17.8009 21.4639 17.5355C21.4639 17.2701 21.5694 17.0156 21.757 16.828C21.9446 16.6404 22.1991 16.5349 22.4645 16.5349C22.7299 16.5349 22.9844 16.6404 23.172 16.828C23.7314 17.3875 24.4441 17.7686 25.22 17.9231C25.996 18.0775 26.8003 17.9983 27.5313 17.6956C28.2623 17.3929 28.8871 16.8802 29.3266 16.2224C29.7662 15.5646 30.0009 14.7912 30.0009 14C30.0009 13.2088 29.7662 12.4354 29.3266 11.7776C28.8871 11.1198 28.2623 10.6071 27.5313 10.3044C26.8003 10.0017 25.996 9.92251 25.22 10.0769C24.4441 10.2314 23.7314 10.6125 23.172 11.172C22.9844 11.3596 22.7299 11.4651 22.4645 11.4651C22.1991 11.4651 21.9446 11.3596 21.757 11.172C21.5694 10.9844 21.4639 10.7299 21.4639 10.4645C21.4639 10.1991 21.5694 9.94464 21.757 9.757C22.5962 8.91799 23.6653 8.34664 24.8291 8.11521C25.993 7.88378 27.1993 8.00266 28.2956 8.45682C29.3919 8.91098 30.3289 9.68001 30.9882 10.6667C31.6474 11.6534 31.9993 12.8134 31.9993 14C31.9993 15.1866 31.6474 16.3466 30.9882 17.3333C30.3289 18.32 29.3919 19.089 28.2956 19.5432C27.1993 19.9973 25.993 20.1162 24.8291 19.8848C23.6653 19.6534 22.5962 19.082 21.757 18.243V18.243Z" transform="translate(3 7)" fill="#333333"/>
</svg>
