<svg width="58" height="58" viewBox="0 0 58 58" fill="none" xmlns="http://www.w3.org/2000/svg">
<path d="M13 11H17.018C17.56 11 18 11.464 18 12C18 12.552 17.544 13 17.018 13H13V17.018C13 17.56 12.536 18 12 18C11.448 18 11 17.544 11 17.018V13H6.982C6.44 13 6 12.536 6 12C6 11.448 6.456 11 6.982 11H11V6.982C11 6.44 11.464 6 12 6C12.552 6 13 6.456 13 6.982V11ZM1.25043e-07 4.001C-0.000131255 3.47554 0.103268 2.95521 0.304291 2.46973C0.505313 1.98425 0.80002 1.54313 1.17157 1.17157C1.54313 0.80002 1.98425 0.505313 2.46973 0.304291C2.95521 0.103268 3.47554 -0.000131255 4.001 1.25043e-07H44C44.5254 1.08625e-07 45.0456 0.103496 45.531 0.304577C46.0163 0.505658 46.4573 0.800386 46.8288 1.17193C47.2002 1.54347 47.4948 1.98454 47.6958 2.46996C47.8968 2.95538 48.0001 3.47563 48 4.001V44C48 44.5254 47.8965 45.0456 47.6954 45.531C47.4943 46.0163 47.1996 46.4573 46.8281 46.8288C46.4565 47.2002 46.0155 47.4948 45.53 47.6958C45.0446 47.8968 44.5244 48.0001 43.999 48H4C3.47463 48 2.9544 47.8965 2.46904 47.6954C1.98367 47.4943 1.54267 47.1996 1.17122 46.8281C0.799772 46.4565 0.505156 46.0155 0.304196 45.53C0.103236 45.0446 -0.000131218 44.5244 1.25043e-07 43.999V4V4.001ZM2 4.001V44C2 44.2627 2.05176 44.5229 2.15234 44.7656C2.25291 45.0083 2.40032 45.2288 2.58614 45.4146C2.77196 45.6003 2.99256 45.7476 3.23533 45.848C3.47809 45.9485 3.73827 46.0001 4.001 46H44C44.2627 46 44.5229 45.9482 44.7656 45.8477C45.0083 45.7471 45.2288 45.5997 45.4146 45.4139C45.6003 45.228 45.7476 45.0074 45.848 44.7647C45.9485 44.5219 46.0001 44.2617 46 43.999V4C46 3.73727 45.9482 3.47712 45.8477 3.2344C45.7471 2.99169 45.5997 2.77116 45.4139 2.58543C45.228 2.3997 45.0074 2.25241 44.7647 2.15195C44.5219 2.0515 44.2617 1.99987 43.999 2H4C3.73727 2 3.47712 2.05176 3.2344 2.15234C2.99169 2.25291 2.77116 2.40032 2.58543 2.58614C2.3997 2.77196 2.25241 2.99256 2.15195 3.23533C2.0515 3.47809 1.99987 3.73827 2 4.001ZM2 23H20.005C20.555 23 21 23.464 21 24C21.0013 24.1313 20.9765 24.2615 20.9271 24.3831C20.8776 24.5047 20.8044 24.6152 20.7118 24.7083C20.6192 24.8013 20.5091 24.8751 20.3877 24.9251C20.2664 24.9752 20.1363 25.0007 20.005 25H2V23ZM46 23V25H27.995C27.8637 25.0007 27.7336 24.9752 27.6123 24.9251C27.4909 24.8751 27.3808 24.8013 27.2882 24.7083C27.1956 24.6152 27.1224 24.5047 27.0729 24.3831C27.0235 24.2615 26.9987 24.1313 27 24C27 23.464 27.445 23 27.995 23H46ZM25 2V20.005C25 20.555 24.536 21 24 21C23.8687 21.0013 23.7385 20.9765 23.6169 20.9271C23.4953 20.8776 23.3848 20.8044 23.2917 20.7118C23.1987 20.6192 23.1249 20.5091 23.0749 20.3877C23.0248 20.2664 22.9993 20.1363 23 20.005V2H25ZM25 46H23V27.995C22.9993 27.8637 23.0248 27.7336 23.0749 27.6123C23.1249 27.4909 23.1987 27.3808 23.2917 27.2882C23.3848 27.1956 23.4953 27.1224 23.6169 27.0729C23.7385 27.0235 23.8687 26.9987 24 27C24.536 27 25 27.445 25 27.995V46ZM38.841 7.745C39.225 7.361 39.864 7.378 40.243 7.757C40.633 8.147 40.627 8.787 40.255 9.159L33.159 16.255C32.775 16.639 32.136 16.622 31.757 16.243C31.572 16.0573 31.4672 15.8065 31.4649 15.5444C31.4627 15.2824 31.5632 15.0298 31.745 14.841L38.841 7.745V7.745ZM33 10C32.7348 10 32.4804 9.89464 32.2929 9.70711C32.1054 9.51957 32 9.26522 32 9C32 8.73478 32.1054 8.48043 32.2929 8.29289C32.4804 8.10536 32.7348 8 33 8C33.2652 8 33.5196 8.10536 33.7071 8.29289C33.8946 8.48043 34 8.73478 34 9C34 9.26522 33.8946 9.51957 33.7071 9.70711C33.5196 9.89464 33.2652 10 33 10ZM39 16C38.7348 16 38.4804 15.8946 38.2929 15.7071C38.1054 15.5196 38 15.2652 38 15C38 14.7348 38.1054 14.4804 38.2929 14.2929C38.4804 14.1054 38.7348 14 39 14C39.2652 14 39.5196 14.1054 39.7071 14.2929C39.8946 14.4804 40 14.7348 40 15C40 15.2652 39.8946 15.5196 39.7071 15.7071C39.5196 15.8946 39.2652 16 39 16ZM13.414 36L16.255 38.841C16.639 39.225 16.622 39.864 16.243 40.243C15.853 40.633 15.213 40.627 14.841 40.255L12 37.415L9.159 40.255C8.775 40.639 8.136 40.622 7.757 40.243C7.57204 40.0573 7.46719 39.8065 7.46495 39.5444C7.46271 39.2824 7.56324 39.0298 7.745 38.841L10.585 36L7.745 33.159C7.361 32.775 7.378 32.136 7.757 31.757C8.147 31.367 8.787 31.373 9.159 31.745L12 34.585L14.841 31.745C15.225 31.361 15.864 31.378 16.243 31.757C16.633 32.147 16.627 32.787 16.255 33.159L13.415 36H13.414ZM41.018 37C41.56 37 42 37.464 42 38C42 38.552 41.544 39 41.018 39H30.982C30.44 39 30 38.536 30 38C30 37.448 30.456 37 30.982 37H41.018ZM41.018 33C41.56 33 42 33.464 42 34C42 34.552 41.544 35 41.018 35H30.982C30.44 35 30 34.536 30 34C30 33.448 30.456 33 30.982 33H41.018Z" transform="translate(5 5)" fill="#333333"/>
</svg>
