<svg width="58" height="58" viewBox="0 0 58 58" fill="none" xmlns="http://www.w3.org/2000/svg">
<path d="M24 44.131V38H11C4.925 38 0 33.075 0 27C0 22.763 2.395 19.086 5.905 17.249C5.64687 15.4971 5.85845 13.708 6.51813 12.0646C7.17781 10.4212 8.26194 8.98236 9.65975 7.89513C11.0576 6.8079 12.7189 6.11123 14.4742 5.87631C16.2294 5.64139 18.0155 5.87663 19.65 6.558C20.7862 4.56536 22.4297 2.90899 24.4133 1.75715C26.397 0.605316 28.6502 -0.00093194 30.944 1.07531e-06C38.124 1.07531e-06 43.944 5.82 43.944 13C43.944 13.2652 43.8386 13.5196 43.6511 13.7071C43.4636 13.8946 43.2092 14 42.944 14C42.6788 14 42.4244 13.8946 42.2369 13.7071C42.0494 13.5196 41.944 13.2652 41.944 13C41.944 6.925 37.019 2 30.944 2C29.0112 1.99912 27.1123 2.50772 25.4387 3.47453C23.765 4.44135 22.3758 5.83223 21.411 7.507C22.6635 8.3546 23.7065 9.47629 24.461 10.787C24.5277 10.9008 24.5712 11.0266 24.5891 11.1573C24.607 11.2879 24.5988 11.4208 24.5651 11.5483C24.5314 11.6758 24.4728 11.7954 24.3927 11.9002C24.3126 12.0049 24.2125 12.0928 24.0983 12.1588C23.9841 12.2247 23.858 12.2674 23.7272 12.2844C23.5964 12.3014 23.4636 12.2924 23.3363 12.2578C23.209 12.2233 23.0899 12.1639 22.9856 12.0831C22.8814 12.0023 22.7942 11.9016 22.729 11.787C21.8201 10.2101 20.4007 8.99025 18.705 8.32884C17.0094 7.66743 15.1389 7.60401 13.4023 8.14903C11.6657 8.69405 10.1669 9.81494 9.15328 11.3267C8.13966 12.8384 7.67182 14.6505 7.827 16.464C8.85632 16.1552 9.92535 15.9988 11 16C11.2652 16 11.5196 16.1054 11.7071 16.2929C11.8946 16.4804 12 16.7348 12 17C12 17.2652 11.8946 17.5196 11.7071 17.7071C11.5196 17.8946 11.2652 18 11 18C8.61305 18 6.32387 18.9482 4.63604 20.636C2.94821 22.3239 2 24.6131 2 27C2 29.387 2.94821 31.6761 4.63604 33.364C6.32387 35.0518 8.61305 36 11 36H24V26C24 25.7348 24.1054 25.4804 24.2929 25.2929C24.4804 25.1054 24.7348 25 25 25C25.2652 25 25.5196 25.1054 25.7071 25.2929C25.8946 25.4804 26 25.7348 26 26V44.131L27.445 43.168C27.5543 43.0951 27.6768 43.0445 27.8056 43.0189C27.9345 42.9934 28.0671 42.9935 28.1959 43.0192C28.3247 43.045 28.4471 43.0958 28.5563 43.1689C28.6654 43.2419 28.7591 43.3357 28.832 43.445C28.9049 43.5543 28.9555 43.6768 28.9811 43.8056C29.0066 43.9345 29.0065 44.0671 28.9808 44.1959C28.955 44.3247 28.9042 44.4471 28.8311 44.5563C28.7581 44.6654 28.6643 44.7591 28.555 44.832L25.566 46.824L25.542 46.841L25 47.201L24.458 46.841C24.4499 46.8355 24.4419 46.8298 24.434 46.824L21.445 44.832C21.3357 44.7591 21.2419 44.6654 21.1689 44.5563C21.0958 44.4471 21.045 44.3247 21.0192 44.1959C20.9935 44.0671 20.9934 43.9345 21.0189 43.8056C21.0445 43.6768 21.0951 43.5543 21.168 43.445C21.2409 43.3357 21.3346 43.2419 21.4437 43.1689C21.5529 43.0958 21.6753 43.045 21.8041 43.0192C21.9329 42.9935 22.0655 42.9934 22.1944 43.0189C22.3232 43.0445 22.4457 43.0951 22.555 43.168L24 44.13V44.131ZM39 18C38.7348 18 38.4804 17.8946 38.2929 17.7071C38.1054 17.5196 38 17.2652 38 17C38 16.7348 38.1054 16.4804 38.2929 16.2929C38.4804 16.1054 38.7348 16 39 16C45.075 16 50 20.925 50 27C50 33.075 45.075 38 39 38H32C31.7348 38 31.4804 37.8946 31.2929 37.7071C31.1054 37.5196 31 37.2652 31 37C31 36.7348 31.1054 36.4804 31.2929 36.2929C31.4804 36.1054 31.7348 36 32 36H39C41.3869 36 43.6761 35.0518 45.364 33.364C47.0518 31.6761 48 29.387 48 27C48 24.6131 47.0518 22.3239 45.364 20.636C43.6761 18.9482 41.3869 18 39 18ZM38.5 13C38.5 13.2652 38.3946 13.5196 38.2071 13.7071C38.0196 13.8946 37.7652 14 37.5 14C37.2348 14 36.9804 13.8946 36.7929 13.7071C36.6054 13.5196 36.5 13.2652 36.5 13C36.5 11.5413 35.9205 10.1424 34.8891 9.11091C33.8576 8.07946 32.4587 7.5 31 7.5C30.7348 7.5 30.4804 7.39464 30.2929 7.20711C30.1054 7.01957 30 6.76522 30 6.5C30 6.23478 30.1054 5.98043 30.2929 5.79289C30.4804 5.60536 30.7348 5.5 31 5.5C32.9891 5.5 34.8968 6.29018 36.3033 7.6967C37.7098 9.10322 38.5 11.0109 38.5 13Z" transform="translate(4 5)" fill="#333333"/>
</svg>
