<svg width="58" height="58" viewBox="0 0 58 58" fill="none" xmlns="http://www.w3.org/2000/svg">
<path fill-rule="evenodd" clip-rule="evenodd" d="M24.9073 11.7749H27.9043C28.4613 11.7749 28.9133 12.2299 28.9133 12.7549C28.9133 13.2979 28.4853 13.7369 27.9033 13.7369H10.1433C9.99733 13.7369 9.88933 13.8619 9.91233 14.1289C9.92533 14.3529 9.95733 14.7809 10.0133 15.3839C10.1083 16.3939 10.2363 17.5219 10.4043 18.7359C10.8843 22.2029 11.5833 25.6689 12.5403 28.8949C15.2053 37.8819 19.2823 43.1709 24.9073 43.1709V43.1749L24.9133 43.1709C30.5383 43.1709 34.6143 37.8809 37.2783 28.8949C38.2343 25.6689 38.9323 22.2039 39.4113 18.7369C39.5793 17.5219 39.7073 16.3949 39.8013 15.3849C39.8583 14.7809 39.8903 14.3529 39.9053 14.1019C39.9263 13.8619 39.8183 13.7369 39.6723 13.7369H35.9223C35.3653 13.7369 34.9133 13.2819 34.9133 12.7559C34.9133 12.2139 35.3413 11.7749 35.9233 11.7749H39.6733C41.0263 11.7749 42.0163 12.9169 41.9003 14.2429C41.8853 14.4879 41.8513 14.9369 41.7933 15.5629C41.6854 16.7114 41.552 17.8574 41.3933 18.9999C40.9013 22.5559 40.1853 26.1139 39.1983 29.4429C36.3113 39.1849 31.7263 45.1329 24.9133 45.1329L24.9073 45.1289V45.1329C18.0943 45.1329 13.5083 39.1849 10.6193 29.4429C9.63233 26.1139 8.91533 22.5569 8.42233 18.9999C8.26361 17.8574 8.13024 16.7114 8.02233 15.5629C7.98061 15.1325 7.9456 14.7015 7.91733 14.2699C7.79833 12.9169 8.78933 11.7749 10.1423 11.7749H24.9073V11.7749ZM24.9563 0.000937308C25.1203 -0.00606269 25.2883 0.0259379 25.4463 0.103938C25.7023 0.228938 26.1873 0.453938 26.8593 0.745938C27.9853 1.23394 29.2163 1.72194 30.5113 2.17594C32.7583 2.96594 34.9533 3.57094 36.9993 3.91794L37.1213 3.93794C40.4603 4.48794 43.4443 4.53894 45.8783 4.29794C46.3683 4.24994 46.7023 4.20194 46.9263 4.16394C48.6173 3.96194 49.9883 5.22894 49.9063 6.87594C49.8894 7.52104 49.8614 8.1658 49.8223 8.80994C49.7248 10.4964 49.5858 12.1803 49.4053 13.8599C48.8483 19.0849 47.9253 24.3109 46.5513 29.1999C42.5623 43.3769 35.6183 52.0009 24.9133 52.0009C14.2073 52.0009 7.27833 43.3769 3.31633 29.1989C1.95033 24.3109 1.03733 19.0839 0.490328 13.8589C0.312838 12.1792 0.176798 10.4954 0.0823292 8.80894C0.0450587 8.17444 0.018721 7.53934 0.0033287 6.90394C-0.0766713 5.22894 1.29533 3.96294 3.04733 4.17394C3.20933 4.20394 3.54333 4.25094 4.03433 4.29894C6.46733 4.53994 9.45233 4.48894 12.7903 3.93894L12.9123 3.91894C14.9583 3.57194 17.1543 2.96794 19.4013 2.17794C20.6348 1.74404 21.8525 1.26675 23.0523 0.746938C23.5282 0.54313 23.9997 0.32908 24.4663 0.104937C24.6233 0.0269374 24.7923 -0.00506324 24.9563 0.00193676V0.000937308ZM24.9563 2.05094C23.3606 2.78266 21.7322 3.44102 20.0763 4.02394C17.7283 4.84894 15.4253 5.48394 13.2523 5.85094L13.1223 5.87294C9.59633 6.45294 6.43533 6.50794 3.83333 6.25094C3.28733 6.19694 2.89833 6.14094 2.74433 6.11094C2.28933 6.05694 1.97933 6.34294 2.00233 6.84094C2.00833 7.17394 2.03033 7.80894 2.07933 8.70194C2.16133 10.1959 2.29133 11.8619 2.47933 13.6569C3.01633 18.7829 3.91133 23.9069 5.24533 28.6789C8.99533 42.1009 15.3723 50.0389 24.9133 50.0389C34.4553 50.0389 40.8473 42.1009 44.6233 28.6789C45.9653 23.9059 46.8703 18.7819 47.4163 13.6569C47.6083 11.8619 47.7413 10.1959 47.8263 8.70194C47.8763 7.80794 47.8993 7.17294 47.9063 6.81094C47.9303 6.34294 47.6223 6.05794 47.2283 6.10394C47.0133 6.14194 46.6253 6.19794 46.0783 6.25194C43.4773 6.50894 40.3163 6.45494 36.7903 5.87394L36.6603 5.85194C34.4873 5.48494 32.1843 4.84994 29.8363 4.02494C28.1804 3.44201 26.5521 2.78366 24.9563 2.05194V2.05094Z" transform="translate(4.08667 1.99902)" fill="#333333"/>
</svg>
