<svg width="58" height="58" viewBox="0 0 58 58" fill="none" xmlns="http://www.w3.org/2000/svg">
<path d="M35.178 37.838C36.302 34.645 36.906 31.034 36.99 27H18C17.7348 27 17.4804 26.8946 17.2929 26.7071C17.1054 26.5196 17 26.2652 17 26C17 25.7348 17.1054 25.4804 17.2929 25.2929C17.4804 25.1054 17.7348 25 18 25H36.99C36.902 20.966 36.294 17.357 35.165 14.164C32.1428 14.728 29.0744 15.0079 26 15C22.839 15 19.784 14.722 16.835 14.164C15.612 17.624 15 21.572 15 26.02C15 30.452 15.607 34.388 16.822 37.838C19.8484 37.2725 22.9212 36.9919 26 37C29.166 37 32.225 37.28 35.178 37.838ZM34.428 39.733C31.6461 39.2381 28.8256 38.9928 26 39C23.093 39 20.284 39.244 17.572 39.733C19.403 43.877 22.212 47.24 26 49.837C29.788 47.24 32.597 43.877 34.428 39.733V39.733ZM7.138 40.841C9.62362 39.7429 12.2057 38.8775 14.851 38.256C13.617 34.648 13 30.566 13 26.02C13 21.458 13.621 17.364 14.864 13.747C12.2141 13.1253 9.6277 12.2589 7.138 11.159C4.01392 15.1169 2.2224 19.9618 2.02 25H10C10.2652 25 10.5196 25.1054 10.7071 25.2929C10.8946 25.4804 11 25.7348 11 26C11 26.2652 10.8946 26.5196 10.7071 26.7071C10.5196 26.8946 10.2652 27 10 27H2.02C2.2224 32.0382 4.01392 36.8831 7.138 40.841V40.841ZM8.504 42.429C12.2334 46.4082 17.2095 48.9952 22.609 49.762C19.517 47.136 17.171 43.926 15.571 40.142C13.1525 40.6944 10.7876 41.4597 8.504 42.429V42.429ZM44.864 40.842C45.596 39.912 46.264 38.922 46.86 37.877C46.9241 37.761 47.0105 37.659 47.1144 37.5767C47.2182 37.4945 47.3374 37.4337 47.4649 37.3979C47.5925 37.362 47.7258 37.3519 47.8573 37.3681C47.9888 37.3842 48.1158 37.4264 48.2308 37.492C48.3459 37.5577 48.4468 37.6455 48.5276 37.7505C48.6084 37.8554 48.6676 37.9754 48.7017 38.1034C48.7357 38.2315 48.744 38.365 48.726 38.4962C48.7081 38.6275 48.6642 38.7538 48.597 38.868C46.3261 42.8578 43.0387 46.1748 39.0695 48.4815C35.1003 50.7881 30.5908 52.0022 26 52C11.64 52 0 40.36 0 26C0 11.64 11.64 0 26 0C40.36 0 52 11.64 52 26C52 27.885 51.8 29.744 51.405 31.556C51.3463 31.8128 51.1886 32.0361 50.9661 32.1773C50.7437 32.3186 50.4746 32.3663 50.2171 32.3102C49.9597 32.2541 49.7349 32.0986 49.5914 31.8776C49.4479 31.6566 49.3975 31.388 49.451 31.13C49.745 29.78 49.922 28.399 49.98 27H38.99C38.907 31.155 38.293 34.91 37.149 38.256C39.7951 38.8777 42.3778 39.7434 44.864 40.842V40.842ZM43.498 42.43C41.2138 41.4602 38.8482 40.6946 36.429 40.142C34.829 43.926 32.484 47.135 29.392 49.761C34.7912 48.9937 39.7672 46.4077 43.498 42.43V42.43ZM44.862 11.159C42.3723 12.2589 39.7859 13.1253 37.136 13.747C38.286 17.092 38.903 20.845 38.989 25H49.979C49.7769 19.9619 47.9857 15.117 44.862 11.159V11.159ZM43.496 9.571C39.7531 5.57731 34.7549 2.98647 29.334 2.23C32.444 4.856 34.804 8.07 36.414 11.861C38.8377 11.3085 41.2077 10.5422 43.496 9.571V9.571ZM34.41 12.27C32.58 8.143 29.776 4.792 26 2.203C22.224 4.793 19.42 8.143 17.589 12.27C20.296 12.757 23.099 13 26 13C28.9 13 31.704 12.757 34.411 12.27H34.41ZM8.504 9.57C10.784 10.539 13.144 11.302 15.586 11.86C17.196 8.07 19.556 4.855 22.666 2.229C17.2451 2.98547 12.2469 5.57631 8.504 9.57V9.57Z" transform="translate(3 3)" fill="#333333"/>
</svg>
