<svg width="58" height="58" viewBox="0 0 58 58" fill="none" xmlns="http://www.w3.org/2000/svg">
<path d="M48 10V2.995C48 2.445 48.464 2 49 2C49.552 2 50 2.43 50 2.995V12C51.3011 13.7295 52.0032 15.8358 52 18C52 23.523 47.523 28 42 28C36.477 28 32 23.523 32 18C32 12.477 36.477 8 42 8C44.251 8 46.329 8.744 48 10ZM20 25.346V11.02C20 10.457 20.464 10.001 21 10.001C21.552 10.001 22 10.446 22 11.021V26.511C25.627 29.041 28 33.244 28 38.001C28 45.733 21.732 52.001 14 52.001C6.268 52.001 0 45.733 0 38.001C0 30.269 6.268 24.001 14 24.001C16.147 24.001 18.181 24.484 20 25.348V25.346ZM14 50C20.627 50 26 44.627 26 38C26 31.373 20.627 26 14 26C7.373 26 2 31.373 2 38C2 44.627 7.373 50 14 50ZM4 14.995C4 14.445 4.464 14 5 14C5.552 14 6 14.43 6 14.995V23.005C6 23.555 5.536 24 5 24C4.448 24 4 23.57 4 23.005V14.995ZM12 3.019C12 2.456 12.464 2 13 2C13.552 2 14 2.445 14 3.02V18.98C14.0001 19.2471 13.8953 19.5035 13.7084 19.6943C13.5214 19.885 13.267 19.9948 13 20C12.448 20 12 19.555 12 18.98V3.02V3.019ZM42 26C44.1217 26 46.1566 25.1571 47.6569 23.6569C49.1571 22.1566 50 20.1217 50 18C50 15.8783 49.1571 13.8434 47.6569 12.3431C46.1566 10.8429 44.1217 10 42 10C39.8783 10 37.8434 10.8429 36.3431 12.3431C34.8429 13.8434 34 15.8783 34 18C34 20.1217 34.8429 22.1566 36.3431 23.6569C37.8434 25.1571 39.8783 26 42 26ZM42 24C40.4087 24 38.8826 23.3679 37.7574 22.2426C36.6321 21.1174 36 19.5913 36 18C36 16.4087 36.6321 14.8826 37.7574 13.7574C38.8826 12.6321 40.4087 12 42 12C43.5913 12 45.1174 12.6321 46.2426 13.7574C47.3679 14.8826 48 16.4087 48 18C48 19.5913 47.3679 21.1174 46.2426 22.2426C45.1174 23.3679 43.5913 24 42 24ZM42 22C43.0609 22 44.0783 21.5786 44.8284 20.8284C45.5786 20.0783 46 19.0609 46 18C46 16.9391 45.5786 15.9217 44.8284 15.1716C44.0783 14.4214 43.0609 14 42 14C40.9391 14 39.9217 14.4214 39.1716 15.1716C38.4214 15.9217 38 16.9391 38 18C38 19.0609 38.4214 20.0783 39.1716 20.8284C39.9217 21.5786 40.9391 22 42 22V22ZM34 0.99C34 0.444 34.464 0 35 0C35.552 0 36 0.432 36 0.99V5.01C36 5.556 35.536 6 35 6C34.448 6 34 5.568 34 5.01V0.99ZM7.999 37.95L8 38C8 38.437 8.047 38.863 8.135 39.274C8.32702 40.1514 8.71276 40.9748 9.264 41.684C9.79262 42.3658 10.4627 42.9249 11.228 43.323L11.252 43.335C12.491 43.9714 13.9124 44.1587 15.274 43.865C16.1514 43.673 16.9748 43.2872 17.684 42.736C18.3658 42.2074 18.9249 41.5373 19.323 40.772L19.335 40.748C19.9714 39.509 20.1587 38.0876 19.865 36.726C19.6758 35.8615 19.2986 35.0492 18.76 34.347C18.2209 33.6454 17.534 33.0712 16.748 32.665C15.8977 32.2284 14.9558 32.0005 14 32C13.7348 32 13.4804 31.8946 13.2929 31.7071C13.1054 31.5196 13 31.2652 13 31C13 30.7348 13.1054 30.4804 13.2929 30.2929C13.4804 30.1054 13.7348 30 14 30C15.32 30 16.566 30.32 17.664 30.887C18.7134 31.4267 19.6298 32.1928 20.347 33.13C21.0665 34.0653 21.5693 35.1487 21.819 36.302C22.012 37.185 22.056 38.112 21.932 39.044C21.8131 39.9582 21.5359 40.8448 21.113 41.664C20.5733 42.7134 19.8072 43.6298 18.87 44.347C17.9347 45.0665 16.8513 45.5693 15.698 45.819C14.7975 46.0154 13.8696 46.0537 12.956 45.932C12.0418 45.8131 11.1552 45.5359 10.336 45.113C9.28657 44.5733 8.37015 43.8072 7.653 42.87C6.93345 41.9347 6.43067 40.8513 6.181 39.698C5.90965 38.4524 5.9412 37.1599 6.273 35.929C6.30412 35.7991 6.36095 35.6767 6.44015 35.5691C6.51934 35.4615 6.61929 35.3709 6.73409 35.3026C6.8489 35.2343 6.97623 35.1896 7.10856 35.1713C7.2409 35.1531 7.37556 35.1615 7.50459 35.1961C7.63362 35.2307 7.75441 35.2908 7.85982 35.3729C7.96523 35.4549 8.05313 35.5573 8.11833 35.6739C8.18353 35.7905 8.2247 35.919 8.23941 36.0518C8.25412 36.1846 8.24208 36.3189 8.204 36.447C8.0728 36.9374 8.00425 37.4424 8 37.95H7.999Z" transform="translate(3 3)" fill="#333333"/>
</svg>
