<svg width="58" height="58" viewBox="0 0 58 58" fill="none" xmlns="http://www.w3.org/2000/svg">
<path d="M0 3.984C0.00368963 2.92851 0.424617 1.91731 1.17096 1.17096C1.91731 0.424617 2.92851 0.00368963 3.984 0H48.016C49.0715 0.00368963 50.0827 0.424617 50.829 1.17096C51.5754 1.91731 51.9963 2.92851 52 3.984V40.016C51.9963 41.0715 51.5754 42.0827 50.829 42.829C50.0827 43.5754 49.0715 43.9963 48.016 44H3.984C2.92851 43.9963 1.91731 43.5754 1.17096 42.829C0.424617 42.0827 0.00368963 41.0715 0 40.016V3.984ZM2 3.984V40.016C2 41.09 2.888 42 3.984 42H48.016C48.5411 41.9963 49.0436 41.7861 49.4148 41.4148C49.7861 41.0436 49.9963 40.5411 50 40.016V3.984C49.9963 3.45894 49.7861 2.95643 49.4148 2.58515C49.0436 2.21387 48.5411 2.00367 48.016 2H3.984C3.45894 2.00367 2.95643 2.21387 2.58515 2.58515C2.21387 2.95643 2.00367 3.45894 2 3.984ZM19 8C18.7348 8 18.4804 7.89464 18.2929 7.70711C18.1054 7.51957 18 7.26522 18 7C18 6.73478 18.1054 6.48043 18.2929 6.29289C18.4804 6.10536 18.7348 6 19 6H33C33.2652 6 33.5196 6.10536 33.7071 6.29289C33.8946 6.48043 34 6.73478 34 7C34 7.26522 33.8946 7.51957 33.7071 7.70711C33.5196 7.89464 33.2652 8 33 8H19ZM7 14C6.73478 14 6.48043 13.8946 6.29289 13.7071C6.10536 13.5196 6 13.2652 6 13C6 12.7348 6.10536 12.4804 6.29289 12.2929C6.48043 12.1054 6.73478 12 7 12H45C45.2652 12 45.5196 12.1054 45.7071 12.2929C45.8946 12.4804 46 12.7348 46 13C46 13.2652 45.8946 13.5196 45.7071 13.7071C45.5196 13.8946 45.2652 14 45 14H7ZM7 8C6.73478 8 6.48043 7.89464 6.29289 7.70711C6.10536 7.51957 6 7.26522 6 7C6 6.73478 6.10536 6.48043 6.29289 6.29289C6.48043 6.10536 6.73478 6 7 6H9C9.26522 6 9.51957 6.10536 9.70711 6.29289C9.89464 6.48043 10 6.73478 10 7C10 7.26522 9.89464 7.51957 9.70711 7.70711C9.51957 7.89464 9.26522 8 9 8H7ZM43 8C42.7348 8 42.4804 7.89464 42.2929 7.70711C42.1054 7.51957 42 7.26522 42 7C42 6.73478 42.1054 6.48043 42.2929 6.29289C42.4804 6.10536 42.7348 6 43 6H45C45.2652 6 45.5196 6.10536 45.7071 6.29289C45.8946 6.48043 46 6.73478 46 7C46 7.26522 45.8946 7.51957 45.7071 7.70711C45.5196 7.89464 45.2652 8 45 8H43ZM30 21C29.7348 21 29.4804 20.8946 29.2929 20.7071C29.1054 20.5196 29 20.2652 29 20C29 19.7348 29.1054 19.4804 29.2929 19.2929C29.4804 19.1054 29.7348 19 30 19H45C45.2652 19 45.5196 19.1054 45.7071 19.2929C45.8946 19.4804 46 19.7348 46 20C46 20.2652 45.8946 20.5196 45.7071 20.7071C45.5196 20.8946 45.2652 21 45 21H30ZM7 37C6.73478 37 6.48043 36.8946 6.29289 36.7071C6.10536 36.5196 6 36.2652 6 36C6 35.7348 6.10536 35.4804 6.29289 35.2929C6.48043 35.1054 6.73478 35 7 35H22C22.2652 35 22.5196 35.1054 22.7071 35.2929C22.8946 35.4804 23 35.7348 23 36C23 36.2652 22.8946 36.5196 22.7071 36.7071C22.5196 36.8946 22.2652 37 22 37H7ZM7 29C6.73478 29 6.48043 28.8946 6.29289 28.7071C6.10536 28.5196 6 28.2652 6 28C6 27.7348 6.10536 27.4804 6.29289 27.2929C6.48043 27.1054 6.73478 27 7 27H14C14.2652 27 14.5196 27.1054 14.7071 27.2929C14.8946 27.4804 15 27.7348 15 28C15 28.2652 14.8946 28.5196 14.7071 28.7071C14.5196 28.8946 14.2652 29 14 29H7ZM28 29C27.7348 29 27.4804 28.8946 27.2929 28.7071C27.1054 28.5196 27 28.2652 27 28C27 27.7348 27.1054 27.4804 27.2929 27.2929C27.4804 27.1054 27.7348 27 28 27H45C45.2652 27 45.5196 27.1054 45.7071 27.2929C45.8946 27.4804 46 27.7348 46 28C46 28.2652 45.8946 28.5196 45.7071 28.7071C45.5196 28.8946 45.2652 29 45 29H28ZM21 32C19.9391 32 18.9217 31.5786 18.1716 30.8284C17.4214 30.0783 17 29.0609 17 28C17 26.9391 17.4214 25.9217 18.1716 25.1716C18.9217 24.4214 19.9391 24 21 24C22.0609 24 23.0783 24.4214 23.8284 25.1716C24.5786 25.9217 25 26.9391 25 28C25 29.0609 24.5786 30.0783 23.8284 30.8284C23.0783 31.5786 22.0609 32 21 32ZM21 30C21.5304 30 22.0391 29.7893 22.4142 29.4142C22.7893 29.0391 23 28.5304 23 28C23 27.4696 22.7893 26.9609 22.4142 26.5858C22.0391 26.2107 21.5304 26 21 26C20.4696 26 19.9609 26.2107 19.5858 26.5858C19.2107 26.9609 19 27.4696 19 28C19 28.5304 19.2107 29.0391 19.5858 29.4142C19.9609 29.7893 20.4696 30 21 30Z" transform="translate(3 7)" fill="#333333"/>
</svg>
