<svg width="58" height="58" viewBox="0 0 58 58" fill="none" xmlns="http://www.w3.org/2000/svg">
<path d="M47.732 29.0099C46.839 32.9399 44.319 36.3749 40.211 39.2789L42.43 45.1949C42.5434 45.4975 42.5818 45.823 42.542 46.1437C42.5021 46.4644 42.3851 46.7707 42.201 47.0363C42.0168 47.3018 41.7711 47.5189 41.4848 47.6688C41.1985 47.8186 40.8802 47.8969 40.557 47.8969H33.677C33.2773 47.8969 32.8868 47.7771 32.5558 47.5531C32.2248 47.329 31.9685 47.011 31.82 46.6399L30.38 43.0399L26.196 43.8779C26.0672 43.9036 25.9345 43.9037 25.8057 43.8782C25.6768 43.8527 25.5542 43.802 25.4449 43.7291C25.3356 43.6562 25.2418 43.5625 25.1687 43.4534C25.0956 43.3442 25.0447 43.2217 25.019 43.0929C24.9933 42.964 24.9931 42.8314 25.0187 42.7025C25.0442 42.5737 25.0948 42.4511 25.1677 42.3418C25.315 42.1211 25.5438 41.9678 25.804 41.9159L29.988 41.0799C30.4463 40.988 30.9222 41.0595 31.3332 41.282C31.7443 41.5045 32.0644 41.8639 32.238 42.2979L33.676 45.8969H40.556L38.337 39.9809C38.1817 39.5668 38.1681 39.1129 38.2981 38.6903C38.4282 38.2676 38.6948 37.9 39.056 37.6449C44.325 33.9209 46.606 29.4109 46.008 24.0289C44.754 14.6169 36.889 9.89686 22 9.89686H21.532L21.232 9.53686C18.16 5.85186 15.602 4.71386 13.447 5.79086C12.925 6.05286 12.81 6.23086 12.827 6.54886C12.847 6.92186 12.882 7.02186 13.502 8.57286C14.897 12.0579 14.718 14.5929 11.707 17.6039C9.257 20.0539 6.269 21.7079 2.764 22.5569C2.54612 22.6098 2.35235 22.7344 2.21379 22.9107C2.07524 23.0869 1.99994 23.3047 2 23.5289V31.8969C2 32.1621 2.10536 32.4164 2.29289 32.604C2.48043 32.7915 2.73478 32.8969 3 32.8969H14C14.2652 32.8969 14.5196 33.0022 14.7071 33.1898C14.8946 33.3773 15 33.6316 15 33.8969C15 34.1621 14.8946 34.4164 14.7071 34.604C14.5196 34.7915 14.2652 34.8969 14 34.8969H7.977C8.007 36.0579 8.263 36.8059 8.707 37.1899C9.105 37.5879 10.598 38.1299 13.034 38.6719C13.321 38.7356 13.5905 38.8618 13.8232 39.0415C14.0559 39.2213 14.2461 39.4501 14.3802 39.7118C14.5144 39.9734 14.5892 40.2614 14.5994 40.5553C14.6095 40.8491 14.5548 41.1416 14.439 41.4119L12.517 45.8969H19.219L20.029 42.6539C20.0934 42.3965 20.2575 42.1752 20.4851 42.0388C20.7127 41.9024 20.9851 41.8619 21.2425 41.9264C21.4999 41.9908 21.7211 42.1549 21.8576 42.3824C21.994 42.61 22.0344 42.8825 21.97 43.1399L21.16 46.3819C21.0518 46.8145 20.8022 47.1987 20.4507 47.4732C20.0992 47.7477 19.666 47.8968 19.22 47.8969H12.517C12.186 47.897 11.8601 47.8149 11.5685 47.6581C11.277 47.5012 11.029 47.2744 10.8467 46.9981C10.6644 46.7218 10.5536 46.4045 10.5241 46.0747C10.4947 45.745 10.5476 45.4131 10.678 45.1089L12.6 40.6239C9.78 39.9979 8.062 39.3739 7.35 38.6559C6.443 37.8799 6.011 36.6179 5.977 34.8969H3C2.20435 34.8969 1.44129 34.5808 0.878679 34.0182C0.31607 33.4556 0 32.6925 0 31.8969V23.5289C0.000166878 22.8561 0.226441 22.203 0.642477 21.6743C1.05851 21.1457 1.64016 20.7722 2.294 20.6139C5.444 19.8499 8.105 18.3779 10.293 16.1899C12.652 13.8309 12.771 12.1299 11.645 9.31586C10.886 7.41786 10.867 7.36286 10.83 6.65386C10.77 5.50686 11.347 4.60586 12.553 4.00286C15.643 2.45786 18.979 3.85886 22.464 7.89886C37.951 8.00186 46.594 13.2819 47.994 23.7869C48.094 24.6869 48.124 25.5669 48.082 26.4269L48.094 26.4499C48.578 27.4169 49.49 27.8969 51 27.8969C51.2652 27.8969 51.5196 28.0022 51.7071 28.1898C51.8946 28.3773 52 28.6316 52 28.8969C52 29.1621 51.8946 29.4164 51.7071 29.604C51.5196 29.7915 51.2652 29.8969 51 29.8969C49.691 29.8969 48.59 29.6009 47.732 29.0099ZM45.692 12.0789C45.6471 12.2023 45.5783 12.3157 45.4896 12.4126C45.4008 12.5094 45.2939 12.5878 45.1749 12.6434C45.0558 12.6989 44.927 12.7304 44.7958 12.7362C44.6645 12.7419 44.5334 12.7218 44.41 12.6769C44.2866 12.632 44.1732 12.5632 44.0763 12.4744C43.9795 12.3857 43.901 12.2788 43.8455 12.1597C43.79 12.0407 43.7584 11.9118 43.7527 11.7806C43.7469 11.6494 43.7671 11.5183 43.812 11.3949C44.1346 10.5293 44.2827 9.6084 44.2478 8.6853C44.2129 7.76221 43.9956 6.85515 43.6084 6.01644C43.2213 5.17772 42.672 4.42392 41.9921 3.79849C41.3123 3.17307 40.5154 2.68839 39.6474 2.37239C38.7794 2.05639 37.8574 1.91532 36.9346 1.95732C36.0118 1.99931 35.1064 2.22355 34.2707 2.61708C33.4349 3.01062 32.6853 3.56569 32.0651 4.25028C31.4449 4.93487 30.9664 5.73545 30.657 6.60586C30.6121 6.7293 30.5433 6.84269 30.4546 6.93955C30.3658 7.03641 30.2589 7.11484 30.1399 7.17037C30.0208 7.2259 29.892 7.25744 29.7608 7.26319C29.6295 7.26893 29.4984 7.24877 29.375 7.20386C29.2516 7.15895 29.1382 7.09016 29.0413 7.00143C28.9445 6.9127 28.866 6.80576 28.8105 6.68671C28.755 6.56767 28.7234 6.43885 28.7177 6.30762C28.7119 6.17638 28.7321 6.0453 28.777 5.92186C29.5935 3.67879 31.2676 1.85194 33.431 0.843178C35.5944 -0.16558 38.0699 -0.273607 40.313 0.542862C42.5561 1.35933 44.3829 3.03342 45.3917 5.19684C46.4004 7.36025 46.5085 9.83579 45.692 12.0789V12.0789ZM16 21.8969C15.4696 21.8969 14.9609 21.6861 14.5858 21.3111C14.2107 20.936 14 20.4273 14 19.8969C14 19.3664 14.2107 18.8577 14.5858 18.4826C14.9609 18.1076 15.4696 17.8969 16 17.8969C16.5304 17.8969 17.0391 18.1076 17.4142 18.4826C17.7893 18.8577 18 19.3664 18 19.8969C18 20.4273 17.7893 20.936 17.4142 21.3111C17.0391 21.6861 16.5304 21.8969 16 21.8969ZM0.5 49.8969H51.5C51.6326 49.8969 51.7598 49.9495 51.8536 50.0433C51.9473 50.1371 52 50.2643 52 50.3969V51.3969C52 51.5295 51.9473 51.6566 51.8536 51.7504C51.7598 51.8442 51.6326 51.8969 51.5 51.8969H0.5C0.367392 51.8969 0.240214 51.8442 0.146446 51.7504C0.052678 51.6566 0 51.5295 0 51.3969V50.3969C0 50.2643 0.052678 50.1371 0.146446 50.0433C0.240214 49.9495 0.367392 49.8969 0.5 49.8969Z" transform="translate(3 3.10303)" fill="#333333"/>
</svg>
