<svg width="58" height="58" viewBox="0 0 58 58" fill="none" xmlns="http://www.w3.org/2000/svg">
<path fill-rule="evenodd" clip-rule="evenodd" d="M24.2541 30H30.0001V32.2H24.2541V36H22.0001V32.2H20.0001V30H22.0001V16H28.3721C30.1491 16 31.5311 16.55 32.5191 17.648C33.5061 18.748 34.0001 20.194 34.0001 21.989C34.0001 23.802 33.5061 25.254 32.5191 26.343C31.5311 27.433 30.1491 27.978 28.3721 27.978H24.2541V30ZM26.0001 46C14.9541 46 6.00007 37.046 6.00007 26C6.00007 14.954 14.9541 5.99995 26.0001 5.99995C37.0461 5.99995 46.0001 14.954 46.0001 26C46.0001 37.046 37.0461 46 26.0001 46ZM26.0001 44C35.9411 44 44.0001 35.941 44.0001 26C44.0001 16.059 35.9411 7.99995 26.0001 7.99995C16.0591 7.99995 8.00007 16.059 8.00007 26C8.00007 35.941 16.0591 44 26.0001 44ZM24.2541 25.863V18.129H28.3721C29.4921 18.129 30.3341 18.5 30.8941 19.242C31.4541 19.984 31.7351 20.908 31.7351 22.016C31.7351 23.125 31.4571 24.043 30.9001 24.771C30.3431 25.499 29.5001 25.863 28.3721 25.863H24.2541ZM41.6641 44.1959C41.6899 44.1681 41.7173 44.1417 41.7461 44.117C42.7479 43.2468 43.6764 42.2956 44.5221 41.2729C45.3521 40.2629 46.1101 39.173 46.7851 38.004C47.5153 36.7405 48.1295 35.4134 48.6201 34.039C49.7915 30.7277 50.2256 27.2005 49.8921 23.704C49.5526 20.2079 48.4537 16.8281 46.6721 13.801C45.9279 12.5453 45.0714 11.3598 44.1131 10.259C43.2429 9.25675 42.2917 8.32795 41.2691 7.48195C40.2591 6.65195 39.1691 5.89395 38.0001 5.21995C36.7366 4.48969 35.4095 3.87551 34.0351 3.38495C30.7238 2.21351 27.1966 1.77939 23.7001 2.11295C20.2043 2.45255 16.8249 3.55149 13.7981 5.33295C12.5422 6.07675 11.3563 6.93292 10.2551 7.89095C9.25317 8.76144 8.3247 9.71299 7.47907 10.736C6.64907 11.746 5.89107 12.836 5.21607 14.004C5.1972 14.0368 5.1765 14.0685 5.15407 14.099C0.235065 22.711 1.01307 33.841 7.88707 41.749C7.97328 41.8481 8.03912 41.9633 8.08083 42.0878C8.12253 42.2124 8.13929 42.344 8.13015 42.4751C8.121 42.6062 8.08613 42.7342 8.02752 42.8517C7.96891 42.9693 7.88771 43.0742 7.78857 43.1604C7.68942 43.2467 7.57426 43.3125 7.44967 43.3542C7.32507 43.3959 7.19349 43.4127 7.06242 43.4035C6.93135 43.3944 6.80336 43.3595 6.68577 43.3009C6.56818 43.2423 6.46328 43.1611 6.37707 43.062C-2.08293 33.328 -2.01893 19.089 5.93507 9.46395C7.8566 7.127 10.1738 5.14587 12.7811 3.61095C16.0565 1.67289 19.7192 0.481557 23.5081 0.121951C27.2261 -0.239049 31.0481 0.195952 34.7041 1.49995C37.5562 2.50913 40.2089 4.01165 42.5411 5.93895C44.878 7.86048 46.8591 10.1777 48.3941 12.785C50.3321 16.0604 51.5235 19.7231 51.8831 23.512C52.2531 27.2999 51.7826 31.1228 50.5051 34.708C49.4956 37.5602 47.9927 40.2129 46.0651 42.5449C38.1361 52.1889 24.1701 54.97 13.0001 48.521C12.7723 48.3874 12.6065 48.1692 12.539 47.9139C12.4715 47.6586 12.5078 47.3869 12.6398 47.1583C12.7718 46.9296 12.989 46.7624 13.2438 46.6932C13.4986 46.624 13.7705 46.6584 14.0001 46.789C23.0751 52.029 34.1501 50.6679 41.6651 44.1959H41.6641Z" transform="translate(3 3)" fill="#333333"/>
</svg>
