<svg width="58" height="58" viewBox="0 0 58 58" fill="none" xmlns="http://www.w3.org/2000/svg">
<path d="M30.707 0.292999C30.8 0.385738 30.8738 0.495938 30.924 0.617268C30.9743 0.738597 31.0001 0.868664 31 1V10.033C31 10.2982 31.1054 10.5526 31.2929 10.7401C31.4804 10.9276 31.7348 11.033 32 11.033L34.989 11C35.2542 10.9971 35.5097 11.0996 35.6993 11.2851C35.8889 11.4706 35.9971 11.7238 36 11.989C36.0029 12.2542 35.9004 12.5097 35.7149 12.6993C35.5294 12.8889 35.2762 12.9971 35.011 13L32.033 13.033H32C31.2044 13.033 30.4413 12.7169 29.8787 12.1543C29.3161 11.5917 29 10.8287 29 10.033V2H3C2.73478 2 2.48043 2.10536 2.29289 2.29289C2.10536 2.48043 2 2.73478 2 3V45C2 45.2652 2.10536 45.5196 2.29289 45.7071C2.48043 45.8946 2.73478 46 3 46H39C39.2652 46 39.5196 45.8946 39.7071 45.7071C39.8946 45.5196 40 45.2652 40 45V12.071L34.69 6.703C34.5913 6.6112 34.5122 6.5004 34.4574 6.37726C34.4026 6.25411 34.3733 6.12116 34.3712 5.98639C34.3691 5.85162 34.3942 5.71782 34.4452 5.59303C34.4961 5.46823 34.5717 5.35501 34.6675 5.26018C34.7633 5.16534 34.8772 5.09085 35.0025 5.04118C35.1278 4.9915 35.2618 4.96766 35.3966 4.9711C35.5313 4.97454 35.664 5.00519 35.7866 5.06119C35.9092 5.11719 36.0192 5.1974 36.11 5.297L42 11.249V45C42 45.7956 41.6839 46.5587 41.1213 47.1213C40.5587 47.6839 39.7956 48 39 48H3C2.20435 48 1.44129 47.6839 0.878679 47.1213C0.31607 46.5587 0 45.7956 0 45V3C0 2.20435 0.31607 1.44129 0.878679 0.878679C1.44129 0.31607 2.20435 0 3 0H30C30.276 0 30.526 0.111999 30.707 0.292999ZM10 19C10 18.448 10.5 18 11.121 18H30.88C31.499 18 32.001 18.464 32.001 19C32.001 19.552 31.501 20 30.88 20H11.12C10.502 20 10 19.536 10 19ZM10 26C10 25.448 10.5 25 11.121 25H30.88C31.499 25 32.001 25.464 32.001 26C32.001 26.552 31.501 27 30.88 27H11.12C10.502 27 10 26.536 10 26ZM10 33C10 32.448 10.296 32 10.663 32H22.337C22.703 32 23 32.464 23 33C23 33.552 22.704 34 22.337 34H10.663C10.297 34 10 33.536 10 33ZM28 36C27.2044 36 26.4413 35.6839 25.8787 35.1213C25.3161 34.5587 25 33.7956 25 33C25 32.2044 25.3161 31.4413 25.8787 30.8787C26.4413 30.3161 27.2044 30 28 30C28.7956 30 29.5587 30.3161 30.1213 30.8787C30.6839 31.4413 31 32.2044 31 33C31 33.7956 30.6839 34.5587 30.1213 35.1213C29.5587 35.6839 28.7956 36 28 36ZM28 34C28.2652 34 28.5196 33.8946 28.7071 33.7071C28.8946 33.5196 29 33.2652 29 33C29 32.7348 28.8946 32.4804 28.7071 32.2929C28.5196 32.1054 28.2652 32 28 32C27.7348 32 27.4804 32.1054 27.2929 32.2929C27.1054 32.4804 27 32.7348 27 33C27 33.2652 27.1054 33.5196 27.2929 33.7071C27.4804 33.8946 27.7348 34 28 34Z" transform="translate(8 5)" fill="#333333"/>
</svg>
