<svg width="58" height="58" viewBox="0 0 58 58" fill="none" xmlns="http://www.w3.org/2000/svg">
<path fill-rule="evenodd" clip-rule="evenodd" d="M50 32H47C46.7348 32 46.4804 31.8946 46.2929 31.7071C46.1054 31.5196 46 31.2652 46 31C46 30.7348 46.1054 30.4804 46.2929 30.2929C46.4804 30.1054 46.7348 30 47 30H50V28C50 27.7348 49.8946 27.4804 49.7071 27.2929C49.5196 27.1054 49.2652 27 49 27H46.594C46.2347 27.0001 45.882 26.9033 45.573 26.72C45.264 26.5366 45.0101 26.2734 44.838 25.958L39.406 16H34V31C34 31.7956 33.6839 32.5587 33.1213 33.1213C32.5587 33.6839 31.7956 34 31 34H3C2.20435 34 1.44129 33.6839 0.878679 33.1213C0.31607 32.5587 0 31.7956 0 31V3C0 2.20435 0.31607 1.44129 0.878679 0.878679C1.44129 0.31607 2.20435 0 3 0H31C31.7956 0 32.5587 0.31607 33.1213 0.878679C33.6839 1.44129 34 2.20435 34 3V14H39.406C39.7653 13.9999 40.118 14.0967 40.427 14.28C40.736 14.4634 40.9899 14.7266 41.162 15.042L46.594 25H49C49.7956 25 50.5587 25.3161 51.1213 25.8787C51.6839 26.4413 52 27.2044 52 28V40C52 40.7956 51.6839 41.5587 51.1213 42.1213C50.5587 42.6839 49.7956 43 49 43H47.917C47.6793 44.3972 46.9548 45.6653 45.8719 46.5796C44.7889 47.4939 43.4173 47.9955 42 47.9955C40.5827 47.9955 39.2111 47.4939 38.1281 46.5796C37.0452 45.6653 36.3207 44.3972 36.083 43H15.917C15.6793 44.3972 14.9548 45.6653 13.8719 46.5796C12.7889 47.4939 11.4173 47.9955 10 47.9955C8.58269 47.9955 7.2111 47.4939 6.12813 46.5796C5.04516 45.6653 4.32068 44.3972 4.083 43H1C0.734784 43 0.480429 42.8946 0.292892 42.7071C0.105356 42.5196 0 42.2652 0 42C0 41.7348 0.105356 41.4804 0.292892 41.2929C0.480429 41.1054 0.734784 41 1 41H4.083C4.32068 39.6028 5.04516 38.3347 6.12813 37.4204C7.2111 36.5061 8.58269 36.0045 10 36.0045C11.4173 36.0045 12.7889 36.5061 13.8719 37.4204C14.9548 38.3347 15.6793 39.6028 15.917 41H36.083C36.3207 39.6028 37.0452 38.3347 38.1281 37.4204C39.2111 36.5061 40.5827 36.0045 42 36.0045C43.4173 36.0045 44.7889 36.5061 45.8719 37.4204C46.9548 38.3347 47.6793 39.6028 47.917 41H49C49.2652 41 49.5196 40.8946 49.7071 40.7071C49.8946 40.5196 50 40.2652 50 40V32ZM3 2C2.73478 2 2.48043 2.10536 2.29289 2.29289C2.10536 2.48043 2 2.73478 2 3V31C2 31.2652 2.10536 31.5196 2.29289 31.7071C2.48043 31.8946 2.73478 32 3 32H31C31.2652 32 31.5196 31.8946 31.7071 31.7071C31.8946 31.5196 32 31.2652 32 31V3C32 2.73478 31.8946 2.48043 31.7071 2.29289C31.5196 2.10536 31.2652 2 31 2H3ZM10 46C11.0609 46 12.0783 45.5786 12.8284 44.8284C13.5786 44.0783 14 43.0609 14 42C14 40.9391 13.5786 39.9217 12.8284 39.1716C12.0783 38.4214 11.0609 38 10 38C8.93913 38 7.92172 38.4214 7.17157 39.1716C6.42143 39.9217 6 40.9391 6 42C6 43.0609 6.42143 44.0783 7.17157 44.8284C7.92172 45.5786 8.93913 46 10 46ZM42 46C43.0609 46 44.0783 45.5786 44.8284 44.8284C45.5786 44.0783 46 43.0609 46 42C46 40.9391 45.5786 39.9217 44.8284 39.1716C44.0783 38.4214 43.0609 38 42 38C40.9391 38 39.9217 38.4214 39.1716 39.1716C38.4214 39.9217 38 40.9391 38 42C38 43.0609 38.4214 44.0783 39.1716 44.8284C39.9217 45.5786 40.9391 46 42 46V46ZM11 14H23C23.2652 14 23.5196 14.1054 23.7071 14.2929C23.8946 14.4804 24 14.7348 24 15C24 15.2652 23.8946 15.5196 23.7071 15.7071C23.5196 15.8946 23.2652 16 23 16H11C10.7348 16 10.4804 15.8946 10.2929 15.7071C10.1054 15.5196 10 15.2652 10 15C10 14.7348 10.1054 14.4804 10.2929 14.2929C10.4804 14.1054 10.7348 14 11 14ZM1 48H51C51.2652 48 51.5196 48.1054 51.7071 48.2929C51.8946 48.4804 52 48.7348 52 49C52 49.2652 51.8946 49.5196 51.7071 49.7071C51.5196 49.8946 51.2652 50 51 50H1C0.734784 50 0.480429 49.8946 0.292892 49.7071C0.105356 49.5196 0 49.2652 0 49C0 48.7348 0.105356 48.4804 0.292892 48.2929C0.480429 48.1054 0.734784 48 1 48Z" transform="translate(3 5)" fill="#333333"/>
</svg>
