<svg width="58" height="58" viewBox="0 0 58 58" fill="none" xmlns="http://www.w3.org/2000/svg">
<path fill-rule="evenodd" clip-rule="evenodd" d="M12 2V13.042H32C32.2652 13.042 32.5196 13.1474 32.7071 13.3349C32.8946 13.5224 33 13.7768 33 14.042C33 14.3072 32.8946 14.5616 32.7071 14.7491C32.5196 14.9366 32.2652 15.042 32 15.042H12C11.4696 15.042 10.9609 14.8313 10.5858 14.4562C10.2107 14.0811 10 13.5724 10 13.042V2H3C2.73478 2 2.48043 2.10536 2.29289 2.29289C2.10536 2.48043 2 2.73478 2 3V30C2 30.2652 1.89464 30.5196 1.70711 30.7071C1.51957 30.8946 1.26522 31 1 31C0.734784 31 0.480429 30.8946 0.292892 30.7071C0.105356 30.5196 0 30.2652 0 30V3C0 2.20435 0.31607 1.44129 0.878679 0.878679C1.44129 0.31607 2.20435 0 3 0H35.414L46 10.586V43.015C46 43.8106 45.6839 44.5737 45.1213 45.1363C44.5587 45.6989 43.7956 46.015 43 46.015H3C2.20435 46.015 1.44129 45.6989 0.878679 45.1363C0.31607 44.5737 0 43.8106 0 43.015V40C0 39.7348 0.105356 39.4804 0.292892 39.2929C0.480429 39.1054 0.734784 39 1 39C1.26522 39 1.51957 39.1054 1.70711 39.2929C1.89464 39.4804 2 39.7348 2 40V43.015C2 43.2802 2.10536 43.5346 2.29289 43.7221C2.48043 43.9096 2.73478 44.015 3 44.015H43C43.2652 44.015 43.5196 43.9096 43.7071 43.7221C43.8946 43.5346 44 43.2802 44 43.015V11.415L34.586 2H12ZM16 32H30C30.2652 32 30.5196 32.1054 30.7071 32.2929C30.8946 32.4804 31 32.7348 31 33C31 33.2652 30.8946 33.5196 30.7071 33.7071C30.5196 33.8946 30.2652 34 30 34H16C15.7348 34 15.4804 33.8946 15.2929 33.7071C15.1054 33.5196 15 33.2652 15 33C15 32.7348 15.1054 32.4804 15.2929 32.2929C15.4804 32.1054 15.7348 32 16 32ZM16 36H30C30.2652 36 30.5196 36.1054 30.7071 36.2929C30.8946 36.4804 31 36.7348 31 37C31 37.2652 30.8946 37.5196 30.7071 37.7071C30.5196 37.8946 30.2652 38 30 38H16C15.7348 38 15.4804 37.8946 15.2929 37.7071C15.1054 37.5196 15 37.2652 15 37C15 36.7348 15.1054 36.4804 15.2929 36.2929C15.4804 36.1054 15.7348 36 16 36ZM12 44H10V25.975C10 25.4446 10.2107 24.9359 10.5858 24.5608C10.9609 24.1857 11.4696 23.975 12 23.975L34.002 23.999C34.5321 23.9995 35.0403 24.2105 35.4149 24.5855C35.7896 24.9605 36 25.4689 36 25.999V44H34V25.999L12 25.975V44V44Z" transform="translate(6 6)" fill="#333333"/>
</svg>
