<svg width="58" height="58" viewBox="0 0 58 58" fill="none" xmlns="http://www.w3.org/2000/svg">
<path d="M25.997 22C27.2996 20.2712 28.0028 18.1646 28 16V8H30V16C30 20.917 27.035 25.147 22.799 27C27.035 28.853 30 33.083 30 38V44H28V42H8V44H6V38C6 33.085 8.963 28.854 13.2 27C8.963 25.146 6 20.915 6 16V8H8V16C8 16.685 8.07 17.354 8.2 18H17.005C17.555 18 18 18.464 18 19C18 19.552 17.57 20 17.005 20H8.835C10.378 23.528 13.901 26 18 26C20.1629 26.0025 22.2677 25.3005 23.996 24H16.996C16.446 24 16 23.536 16 23C16 22.448 16.43 22 16.995 22H25.997ZM28 40V38C28 32.477 23.512 28 18 28C12.477 28 8 32.488 8 38V40H28ZM2.0067e-06 4C2.0067e-06 1.79 1.786 4.50793e-06 4.002 4.50793e-06H31.998C32.5236 -0.000784951 33.0442 0.102125 33.53 0.30284C34.0157 0.503555 34.4571 0.79813 34.8289 1.1697C35.2007 1.54126 35.4954 1.98252 35.6964 2.46819C35.8974 2.95386 36.0005 3.4744 36 4C36 6.21 34.214 8 31.998 8H4.002C3.4764 8.00079 2.9558 7.89788 2.47003 7.69717C1.98426 7.49645 1.54286 7.20188 1.17111 6.83031C0.799357 6.45875 0.50456 6.01749 0.303602 5.53182C0.102645 5.04615 -0.000524717 4.52561 2.0067e-06 4V4ZM2 4C2 5.112 2.896 6 4.002 6H31.998C32.261 6.0008 32.5215 5.94962 32.7646 5.84941C33.0077 5.74921 33.2287 5.60195 33.4147 5.4161C33.6007 5.23026 33.7482 5.00948 33.8486 4.76646C33.9491 4.52344 34.0005 4.26296 34 4C34 2.888 33.104 2 31.998 2H4.002C3.73904 1.99921 3.47852 2.05039 3.2354 2.1506C2.99228 2.2508 2.77135 2.39806 2.58532 2.5839C2.39928 2.76975 2.25181 2.99053 2.15136 3.23355C2.05091 3.47657 1.99947 3.73704 2 4V4ZM2.0067e-06 48C2.0067e-06 45.79 1.786 44 4.002 44H31.998C32.5236 43.9992 33.0442 44.1021 33.53 44.3028C34.0157 44.5036 34.4571 44.7981 34.8289 45.1697C35.2007 45.5413 35.4954 45.9825 35.6964 46.4682C35.8974 46.9539 36.0005 47.4744 36 48C36 50.21 34.214 52 31.998 52H4.002C3.4764 52.0008 2.9558 51.8979 2.47003 51.6972C1.98426 51.4965 1.54286 51.2019 1.17111 50.8303C0.799357 50.4587 0.50456 50.0175 0.303602 49.5318C0.102645 49.0462 -0.000524717 48.5256 2.0067e-06 48V48ZM2 48C2 49.112 2.896 50 4.002 50H31.998C32.261 50.0008 32.5215 49.9496 32.7646 49.8494C33.0077 49.7492 33.2287 49.602 33.4147 49.4161C33.6007 49.2303 33.7482 49.0095 33.8486 48.7665C33.9491 48.5234 34.0005 48.263 34 48C34 46.888 33.104 46 31.998 46H4.002C3.73904 45.9992 3.47852 46.0504 3.2354 46.1506C2.99228 46.2508 2.77135 46.3981 2.58532 46.5839C2.39928 46.7698 2.25181 46.9905 2.15136 47.2335C2.05091 47.4766 1.99947 47.737 2 48ZM12 37C12 36.448 12.456 36 12.982 36H23.018C23.56 36 24 36.464 24 37C24 37.552 23.544 38 23.018 38H12.982C12.44 38 12 37.536 12 37Z" transform="translate(11 3)" fill="#333333"/>
</svg>
