<svg width="58" height="58" viewBox="0 0 58 58" fill="none" xmlns="http://www.w3.org/2000/svg">
<path fill-rule="evenodd" clip-rule="evenodd" d="M24.007 46.58C12.029 35.93 6 27.115 6 20C6 8.954 14.954 0 26 0C37.046 0 46 8.954 46 20C46 27.116 39.971 35.93 27.993 46.58C27.4439 47.0681 26.7347 47.3377 26 47.3377C25.2653 47.3377 24.5561 47.0681 24.007 46.58ZM26.664 45.085C38.248 34.785 44 26.377 44 20C44 10.059 35.941 2 26 2C16.059 2 8 10.059 8 20C8 26.377 13.752 34.785 25.336 45.085C25.519 45.2475 25.7553 45.3373 26 45.3373C26.2447 45.3373 26.481 45.2475 26.664 45.085V45.085ZM32.249 26.477L32.252 26.474C33.3214 25.4412 34.1184 24.1596 34.5716 22.7437C35.0248 21.3278 35.1202 19.8216 34.8493 18.3598C34.5783 16.898 33.9495 15.5261 33.0189 14.3667C32.0884 13.2072 30.8851 12.2963 29.5165 11.7155C28.148 11.1346 26.6569 10.9017 25.1765 11.0378C23.696 11.1738 22.2723 11.6745 21.0326 12.4951C19.7928 13.3156 18.7757 14.4305 18.072 15.7401C17.3683 17.0498 17 18.5133 17 20V20.004C17 22.254 17.84 24.506 19.526 26.252C19.7103 26.4428 19.8113 26.6991 19.8067 26.9643C19.8021 27.2296 19.6923 27.4822 19.5015 27.6665C19.3107 27.8508 19.0544 27.9518 18.7892 27.9472C18.5239 27.9426 18.2713 27.8328 18.087 27.642C16.0865 25.576 14.9779 22.8067 15 19.931C15.0074 18.4243 15.3252 16.9352 15.9336 15.5567C16.5419 14.1783 17.4278 12.9399 18.536 11.919C20.5835 10.0225 23.2773 8.97855 26.068 9C27.5747 9.00739 29.0638 9.32519 30.4423 9.93356C31.8207 10.5419 33.0591 11.4278 34.08 12.536C35.9768 14.5833 37.0212 17.2771 37 20.068C36.9929 21.5223 36.6966 22.9607 36.1283 24.2995C35.5601 25.6382 34.7312 26.8506 33.69 27.866C31.6367 29.8785 28.8751 31.004 26 31C25.7348 31 25.4804 30.8946 25.2929 30.7071C25.1054 30.5196 25 30.2652 25 30C25 29.7348 25.1054 29.4804 25.2929 29.2929C25.4804 29.1054 25.7348 29 26 29C28.3318 29.0032 30.5731 28.0982 32.249 26.477ZM0.5 50H51.5C51.6326 50 51.7598 50.0527 51.8536 50.1464C51.9473 50.2402 52 50.3674 52 50.5V51.5C52 51.6326 51.9473 51.7598 51.8536 51.8536C51.7598 51.9473 51.6326 52 51.5 52H0.5C0.367392 52 0.240214 51.9473 0.146446 51.8536C0.052678 51.7598 0 51.6326 0 51.5V50.5C0 50.3674 0.052678 50.2402 0.146446 50.1464C0.240214 50.0527 0.367392 50 0.5 50Z" transform="translate(3 3)" fill="#333333"/>
</svg>
