<svg width="58" height="58" viewBox="0 0 58 58" fill="none" xmlns="http://www.w3.org/2000/svg">
<path fill-rule="evenodd" clip-rule="evenodd" d="M10 47C10 46.448 10.61 46 11.334 46H40.666C41.403 46 42 46.464 42 47C42 47.552 41.39 48 40.666 48H11.334C10.597 48 10 47.536 10 47ZM18 40H20V46H18V40ZM52 19.01V35.998C52.0003 36.5235 51.897 37.044 51.696 37.5296C51.495 38.0152 51.2004 38.4564 50.8288 38.8281C50.4572 39.1997 50.0161 39.4945 49.5305 39.6956C49.045 39.8967 48.5245 40.0001 47.999 40H4C3.47444 40.0004 2.95395 39.8971 2.46834 39.6961C1.98273 39.4951 1.54153 39.2003 1.16999 38.8286C0.798449 38.4569 0.503867 38.0155 0.303106 37.5298C0.102344 37.0441 -0.000654471 36.5236 3.12904e-06 35.998V4.002C-0.000259657 3.47646 0.103042 2.95602 0.304006 2.47042C0.50497 1.98482 0.799656 1.54359 1.17122 1.17193C1.54279 0.800268 1.98395 0.505472 2.4695 0.304387C2.95505 0.103302 3.47546 -0.000130322 4.001 1.1283e-06H48C48.5256 -0.000393754 49.0461 0.102866 49.5317 0.30387C50.0173 0.504874 50.4585 0.799676 50.83 1.1714C51.2016 1.54313 51.4961 1.98448 51.6969 2.47019C51.8977 2.9559 52.0007 3.47644 52 4.002V10.991C52 11.548 51.536 12 51 12C50.8675 12.0014 50.736 11.9761 50.6134 11.9257C50.4908 11.8753 50.3796 11.8008 50.2863 11.7066C50.193 11.6124 50.1196 11.5004 50.0705 11.3773C50.0213 11.2542 49.9973 11.1225 50 10.99V4.002C50.0007 3.73899 49.9494 3.47845 49.849 3.23532C49.7487 2.99219 49.6014 2.77128 49.4155 2.58526C49.2295 2.39924 49.0087 2.25178 48.7656 2.15134C48.5225 2.0509 48.262 1.99947 47.999 2H4C3.73719 2 3.47696 2.0518 3.23417 2.15243C2.99139 2.25307 2.77083 2.40056 2.58508 2.58649C2.39934 2.77242 2.25206 2.99314 2.15167 3.23602C2.05128 3.4789 1.99974 3.73919 2 4.002V35.998C2 37.111 2.896 38 4.001 38H48C48.2628 38 48.5231 37.9482 48.7658 37.8476C49.0086 37.7469 49.2292 37.5994 49.4149 37.4135C49.6007 37.2276 49.7479 37.0069 49.8483 36.764C49.9487 36.5211 50.0003 36.2608 50 35.998V19.01C50 18.453 50.464 18.001 51 18.001C51.1326 17.9996 51.264 18.0249 51.3866 18.0753C51.5092 18.1257 51.6205 18.2002 51.7137 18.2944C51.807 18.3886 51.8804 18.5006 51.9296 18.6237C51.9787 18.7468 52.0027 18.8785 52 19.011V19.01ZM32 40H34V46H32V40ZM4 33C4 32.448 4.435 32 5.002 32H46.998C47.552 32 48 32.464 48 33C48 33.552 47.565 34 46.998 34H5.002C4.73733 33.9977 4.48412 33.8916 4.29677 33.7046C4.10942 33.5177 4.00287 33.2647 4 33V33Z" transform="translate(3 7)" fill="#333333"/>
</svg>
