<svg width="58" height="58" viewBox="0 0 58 58" fill="none" xmlns="http://www.w3.org/2000/svg">
<path d="M28.5703 45.3332C28.261 45.6377 27.8611 45.8333 27.4308 45.8904C27.0006 45.9476 26.5634 45.8633 26.1853 45.6502L23.9813 44.4082C23.6816 44.2393 23.3434 44.1505 22.9993 44.1505C22.6553 44.1505 22.3171 44.2393 22.0173 44.4082L19.8133 45.6502C19.4503 45.8548 19.0324 45.9408 18.6181 45.8964C18.2038 45.8519 17.8137 45.6791 17.5023 45.4022L13.9483 51.9622C13.782 52.2661 13.5404 52.5222 13.2465 52.7057C12.9527 52.8893 12.6166 52.9942 12.2706 53.0104C11.9245 53.0265 11.5801 52.9534 11.2704 52.7981C10.9608 52.6427 10.6963 52.4103 10.5023 52.1232L7.91734 48.2702C7.83685 48.1507 7.73163 48.0498 7.6088 47.9744C7.48597 47.899 7.34838 47.8508 7.20534 47.8332L1.76234 47.1562C1.4251 47.1144 1.10385 46.9882 0.828343 46.7892C0.614965 46.6356 0.434097 46.4413 0.296168 46.2175C0.158239 45.9937 0.0659775 45.7448 0.0247029 45.4852C-0.0165717 45.2255 -0.00604303 44.9603 0.055682 44.7047C0.117407 44.4492 0.229108 44.2084 0.384343 43.9962L5.51834 36.9792L4.69834 36.7492C4.238 36.6207 3.83887 36.3317 3.57326 35.9343C3.30764 35.537 3.19308 35.0577 3.25034 34.5832L3.55434 32.0712C3.59558 31.7297 3.54803 31.3833 3.4163 31.0656C3.28457 30.7478 3.07311 30.4694 2.80234 30.2572L0.812342 28.6962C0.435831 28.4015 0.177371 27.9816 0.0838097 27.5127C-0.00975194 27.0438 0.0677758 26.5569 0.302342 26.1402L1.54534 23.9362C1.71427 23.6365 1.80302 23.2982 1.80302 22.9542C1.80302 22.6102 1.71427 22.2719 1.54534 21.9722L0.303344 19.7682C0.0685608 19.3518 -0.00928827 18.865 0.0839032 18.3961C0.177095 17.9272 0.435161 17.5072 0.811343 17.2122L2.80234 15.6512C3.07311 15.439 3.28457 15.1606 3.4163 14.8428C3.54803 14.5251 3.59558 14.1787 3.55434 13.8372L3.25034 11.3252C3.19278 10.8507 3.30707 10.3712 3.57251 9.97371C3.83796 9.57619 4.23699 9.28689 4.69734 9.1582L7.13434 8.4782C7.4658 8.38573 7.76779 8.2093 8.01112 7.96597C8.25444 7.72265 8.43087 7.42066 8.52334 7.0892L9.20334 4.6522C9.33203 4.19185 9.62134 3.79281 10.0189 3.52737C10.4164 3.26193 10.8958 3.14764 11.3703 3.2052L13.8823 3.5092C14.2239 3.55043 14.5702 3.50289 14.888 3.37116C15.2058 3.23943 15.4842 3.02796 15.6963 2.7572L17.2573 0.767199C17.5521 0.390687 17.9719 0.132228 18.4409 0.0386659C18.9098 -0.0548957 19.3967 0.0226321 19.8133 0.257199L22.0173 1.5002C22.3171 1.66913 22.6553 1.75788 22.9993 1.75788C23.3434 1.75788 23.6816 1.66913 23.9813 1.5002L26.1853 0.2582C26.6018 0.023417 27.0885 -0.054432 27.5574 0.0387594C28.0263 0.131951 28.4463 0.390017 28.7413 0.766199L30.3023 2.7572C30.5145 3.02796 30.7929 3.23943 31.1107 3.37116C31.4285 3.50289 31.7748 3.55043 32.1163 3.5092L34.6283 3.2052C35.1029 3.14764 35.5823 3.26193 35.9798 3.52737C36.3773 3.79281 36.6667 4.19185 36.7953 4.6522L37.4753 7.0892C37.5678 7.42066 37.7442 7.72265 37.9876 7.96597C38.2309 8.2093 38.5329 8.38573 38.8643 8.4782L41.3013 9.1582C41.7617 9.28689 42.1607 9.57619 42.4262 9.97371C42.6916 10.3712 42.8059 10.8507 42.7483 11.3252L42.4443 13.8372C42.4031 14.1787 42.4507 14.5251 42.5824 14.8428C42.7141 15.1606 42.9256 15.439 43.1963 15.6512L45.1863 17.2122C45.5629 17.5069 45.8213 17.9268 45.9149 18.3957C46.0084 18.8646 45.9309 19.3515 45.6963 19.7682L44.4533 21.9722C44.2844 22.2719 44.1957 22.6102 44.1957 22.9542C44.1957 23.2982 44.2844 23.6365 44.4533 23.9362L45.6953 26.1402C45.9301 26.5566 46.008 27.0434 45.9148 27.5123C45.8216 27.9812 45.5635 28.4012 45.1873 28.6962L43.1963 30.2572C42.9256 30.4694 42.7141 30.7478 42.5824 31.0656C42.4507 31.3833 42.4031 31.7297 42.4443 32.0712L42.7483 34.5832C42.8059 35.0577 42.6916 35.5372 42.4262 35.9347C42.1607 36.3322 41.7617 36.6215 41.3013 36.7502L38.8643 37.4302C38.5329 37.5227 38.2309 37.6991 37.9876 37.9424C37.7442 38.1858 37.5678 38.4877 37.4753 38.8192L36.7953 41.2562C36.6667 41.7165 36.3773 42.1156 35.9798 42.381C35.5823 42.6465 35.1029 42.7608 34.6283 42.7032L32.1163 42.3992C31.7748 42.358 31.4285 42.4055 31.1107 42.5372C30.7929 42.669 30.5145 42.8804 30.3023 43.1512L29.9443 43.6082L33.6703 51.0602L36.9443 46.6942C37.1054 46.4793 37.3082 46.299 37.5405 46.1641C37.7727 46.0293 38.0298 45.9426 38.2963 45.9092L44.1023 45.1832L41.2183 41.5792C41.0526 41.3721 40.9759 41.1076 41.0051 40.8439C41.0344 40.5802 41.1672 40.339 41.3743 40.1732C41.5815 40.0074 41.846 39.9308 42.1096 39.96C42.3733 39.9893 42.6146 40.1221 42.7803 40.3292L45.6643 43.9342C45.8865 44.2119 46.0306 44.5438 46.0818 44.8958C46.133 45.2477 46.0894 45.607 45.9555 45.9364C45.8216 46.2659 45.6023 46.5538 45.3202 46.7703C45.038 46.9868 44.7032 47.1241 44.3503 47.1682L38.5443 47.8942L35.2703 52.2602C35.0658 52.5329 34.7949 52.7489 34.4834 52.8875C34.1719 53.026 33.8301 53.0827 33.4905 53.052C33.151 53.0214 32.8249 52.9044 32.5432 52.7123C32.2616 52.5201 32.0338 52.2592 31.8813 51.9542L28.5713 45.3332H28.5703ZM16.1343 43.7092L15.6963 43.1512C15.4842 42.8804 15.2058 42.669 14.888 42.5372C14.5702 42.4055 14.2239 42.358 13.8823 42.3992L11.3703 42.7032C10.8958 42.7608 10.4164 42.6465 10.0189 42.381C9.62134 42.1156 9.33203 41.7165 9.20334 41.2562L8.52334 38.8192C8.45143 38.5612 8.32843 38.3202 8.16163 38.1107C7.99483 37.9011 7.78764 37.7272 7.55234 37.5992L2.01234 45.1722L7.45534 45.8482C7.88482 45.9012 8.2979 46.0458 8.66659 46.2724C9.03529 46.4989 9.351 46.802 9.59234 47.1612L12.1763 51.0142L16.1343 43.7092V43.7092ZM17.2703 41.9172L18.8313 43.9072L21.0363 42.6662C21.6355 42.3287 22.3116 42.1514 22.9993 42.1514C23.687 42.1514 24.3631 42.3287 24.9623 42.6662L27.1673 43.9082L28.7283 41.9172C29.1528 41.3759 29.7097 40.9531 30.3452 40.6898C30.9807 40.4266 31.6734 40.3316 32.3563 40.4142L34.8683 40.7182L35.5493 38.2802C35.7344 37.6179 36.0871 37.0145 36.5734 36.5282C37.0596 36.042 37.663 35.6893 38.3253 35.5042L40.7633 34.8242L40.4593 32.3112C40.3768 31.6283 40.4717 30.9356 40.735 30.3001C40.9983 29.6645 41.421 29.1076 41.9623 28.6832L43.9523 27.1222L42.7113 24.9172C42.3738 24.318 42.1965 23.6419 42.1965 22.9542C42.1965 22.2665 42.3738 21.5904 42.7113 20.9912L43.9533 18.7862L41.9623 17.2252C41.421 16.8007 40.9983 16.2439 40.735 15.6083C40.4717 14.9728 40.3768 14.2801 40.4593 13.5972L40.7633 11.0852L38.3253 10.4042C37.663 10.2191 37.0596 9.86645 36.5734 9.38019C36.0871 8.89392 35.7344 8.29051 35.5493 7.6282L34.8693 5.1902L32.3563 5.4942C31.6734 5.57678 30.9807 5.48185 30.3452 5.21856C29.7097 4.95528 29.1528 4.53255 28.7283 3.9912L27.1673 2.0012L24.9623 3.2422C24.3631 3.57969 23.687 3.757 22.9993 3.757C22.3116 3.757 21.6355 3.57969 21.0363 3.2422L18.8313 2.0002L17.2703 3.9912C16.8459 4.53255 16.289 4.95528 15.6535 5.21856C15.018 5.48185 14.3253 5.57678 13.6423 5.4942L11.1303 5.1902L10.4493 7.6282C10.2643 8.29051 9.9116 8.89392 9.42533 9.38019C8.93907 9.86645 8.33565 10.2191 7.67334 10.4042L5.23534 11.0842L5.53934 13.5972C5.62193 14.2801 5.52699 14.9728 5.26371 15.6083C5.00042 16.2439 4.57769 16.8007 4.03634 17.2252L2.04634 18.7862L3.28734 20.9912C3.62484 21.5904 3.80214 22.2665 3.80214 22.9542C3.80214 23.6419 3.62484 24.318 3.28734 24.9172L2.04534 27.1222L4.03634 28.6832C4.57769 29.1076 5.00042 29.6645 5.26371 30.3001C5.52699 30.9356 5.62193 31.6283 5.53934 32.3112L5.23534 34.8232L7.67334 35.5042C8.33565 35.6893 8.93907 36.042 9.42533 36.5282C9.9116 37.0145 10.2643 37.6179 10.4493 38.2802L11.1293 40.7182L13.6423 40.4142C14.3253 40.3316 15.018 40.4266 15.6535 40.6898C16.289 40.9531 16.8459 41.3759 17.2703 41.9172V41.9172ZM22.9993 38.9542C14.1623 38.9542 6.99934 31.7912 6.99934 22.9542C6.99934 14.1172 14.1623 6.9542 22.9993 6.9542C31.8363 6.9542 38.9993 14.1172 38.9993 22.9542C38.9993 31.7912 31.8363 38.9542 22.9993 38.9542ZM22.9993 36.9542C30.7313 36.9542 36.9993 30.6862 36.9993 22.9542C36.9993 15.2222 30.7313 8.9542 22.9993 8.9542C15.2673 8.9542 8.99934 15.2222 8.99934 22.9542C8.99934 30.6862 15.2673 36.9542 22.9993 36.9542ZM16.8493 23.6302H14.4093V26.9542H12.9993V18.9542H17.2793V20.2072H14.4093V22.3832H16.8513V23.6302H16.8493ZM19.4303 23.7732V26.9542H18.0263V18.9592H20.3743C21.0833 18.9592 21.6393 19.1672 22.0423 19.5832C22.4463 19.9992 22.6483 20.5772 22.6483 21.3172C22.6483 21.7342 22.5643 22.0942 22.3963 22.3972C22.2243 22.703 21.9686 22.9535 21.6593 23.1192C22.0293 23.2582 22.2953 23.4892 22.4583 23.8112C22.6213 24.1332 22.7023 24.5362 22.7023 25.0202V25.5862C22.7023 25.8062 22.7253 26.0412 22.7723 26.2922C22.8183 26.5422 22.8983 26.7252 23.0143 26.8392V26.9542H21.5613C21.4453 26.8372 21.3733 26.6462 21.3433 26.3832C21.3136 26.1149 21.2989 25.8451 21.2993 25.5752V25.0312C21.2993 24.6312 21.2253 24.3222 21.0793 24.1022C21.0124 23.9969 20.919 23.911 20.8084 23.853C20.6979 23.7951 20.574 23.7673 20.4493 23.7722H19.4293L19.4303 23.7732ZM19.4303 22.5252H20.3703C20.6563 22.5252 20.8733 22.4282 21.0223 22.2352C21.1703 22.0402 21.2443 21.7642 21.2443 21.4052C21.2443 21.0382 21.1703 20.7472 21.0223 20.5312C20.8733 20.3152 20.6583 20.2072 20.3743 20.2072H19.4303V22.5252V22.5252ZM27.5913 23.4432H25.1743V25.7072H28.0163V26.9542H23.7663V18.9542H28.0063V20.2072H25.1743V22.1962H27.5913V23.4432V23.4432ZM32.5743 23.4432H30.1573V25.7072H32.9993V26.9542H28.7483V18.9542H32.9893V20.2072H30.1573V22.1962H32.5743V23.4432V23.4432Z" transform="translate(6.00073 2.04578)" fill="#333333"/>
</svg>
