<svg width="58" height="58" viewBox="0 0 58 58" fill="none" xmlns="http://www.w3.org/2000/svg">
<path fill-rule="evenodd" clip-rule="evenodd" d="M29.327 6.82826L25.785 10.3703C25.5962 10.5537 25.343 10.6558 25.0798 10.6546C24.8165 10.6535 24.5642 10.5493 24.377 10.3643C24.2832 10.2727 24.2086 10.1635 24.1575 10.0428C24.1064 9.92216 24.0798 9.79255 24.0792 9.66152C24.0786 9.53048 24.1042 9.40065 24.1542 9.27957C24.2043 9.1585 24.278 9.04859 24.371 8.95626L32.155 1.17126C33.712 -0.385741 36.25 -0.39074 37.799 1.15826L43.482 6.84126C45.038 8.39726 45.02 10.9343 43.469 12.4853L18.956 36.9983L10.371 38.2243C7.958 38.5693 6.071 36.6833 6.416 34.2643L7.642 25.6843L20.141 13.1873C20.3298 13.0039 20.583 12.9018 20.8462 12.9029C21.1095 12.904 21.3618 13.0082 21.549 13.1933C21.6428 13.2848 21.7174 13.3941 21.7685 13.5147C21.8196 13.6354 21.8462 13.765 21.8468 13.896C21.8474 14.027 21.8218 14.1569 21.7718 14.2779C21.7217 14.399 21.648 14.5089 21.555 14.6013L10.942 25.2133L14.478 28.7483L32.862 10.3643L29.327 6.82826V6.82826ZM30.741 5.41426L39.226 13.8993L42.055 11.0713C42.825 10.3003 42.842 9.02926 42.068 8.25526L36.385 2.57226C35.621 1.80926 34.351 1.80426 33.57 2.58526L30.741 5.41426ZM37.812 15.3143L34.277 11.7783L15.892 30.1633L19.427 33.6983L37.812 15.3133V15.3143ZM9.528 26.6273L8.396 34.5473C8.239 35.6483 8.998 36.4003 10.088 36.2453L18.013 35.1123L9.528 26.6273ZM1 43.1073C0.734784 43.1073 0.480429 43.0019 0.292892 42.8144C0.105356 42.6268 0 42.3725 0 42.1073C0 41.842 0.105356 41.5877 0.292892 41.4002C0.480429 41.2126 0.734784 41.1073 1 41.1073H51.01C51.2752 41.1073 51.5296 41.2126 51.7171 41.4002C51.9046 41.5877 52.01 41.842 52.01 42.1073C52.01 42.3725 51.9046 42.6268 51.7171 42.8144C51.5296 43.0019 51.2752 43.1073 51.01 43.1073H1Z" transform="translate(3 7.89282)" fill="#333333"/>
</svg>
